<svg xmlns="http://www.w3.org/2000/svg" fill="none" viewBox="0 0 24 24"><path fill="currentColor" d="M9.628 7.027a.896.896 0 0 1 0 1.791H6.586l-.226 1.976a3 3 0 0 1 .554-.226q.396-.136.875-.136.739 0 1.306.225.573.22.97.65.396.423.595 1.046.205.622.205 1.421 0 .643-.212 1.245a3.04 3.04 0 0 1-1.709 1.825q-.649.273-1.538.273-.663 0-1.292-.205a3.8 3.8 0 0 1-1.135-.588 2.9 2.9 0 0 1-.643-.69c-.478-.725.27-1.483 1.139-1.484.42 0 .74.356.977.703.202.296.527.487.94.487q.343 0 .568-.137a1 1 0 0 0 .355-.376q.13-.24.185-.547.054-.314.055-.663 0-.369-.082-.663a1.25 1.25 0 0 0-.246-.499 1.07 1.07 0 0 0-.445-.321 1.7 1.7 0 0 0-.642-.11 2 2 0 0 0-.551.078c-.465.14-.96.37-1.433.258a1.21 1.21 0 0 1-.925-1.32l.37-3.13a1 1 0 0 1 .994-.883zm6.378-.144q1.374 0 2.235.438.861.43 1.306 1.197.05.086.097.176c.404.787-.323 1.58-1.208 1.58-.375 0-.673-.285-.812-.632-.133-.33-.337-.576-.634-.728q-.348-.184-.902-.185-.431 0-.786.185a1.6 1.6 0 0 0-.595.56 2.9 2.9 0 0 0-.383.93q-.13.561-.13 1.313v.567q0 .745.123 1.306.13.56.383.936.26.37.656.56.404.185.95.185.384 0 .657-.061.273-.069.451-.164.184-.102.28-.191V13.31h-.844a.824.824 0 0 1 0-1.648h2.244a1 1 0 0 1 1 1v2.319c0 .495-.173.992-.587 1.263-.46.3-.996.503-1.505.648q-.793.225-1.866.225-.99 0-1.798-.314-.807-.322-1.388-.937a4.3 4.3 0 0 1-.888-1.517q-.308-.903-.308-2.065v-.553q0-1.163.314-2.065.315-.901.882-1.518a3.8 3.8 0 0 1 1.347-.943 4.4 4.4 0 0 1 1.709-.322"/></svg>
