<svg xmlns="http://www.w3.org/2000/svg" fill="none" viewBox="0 0 24 24"><path fill="currentColor" d="M14 3a1 1 0 0 1 1 1v1h2a2 2 0 0 1 2 2v2h1a1 1 0 1 1 0 2h-1v2h1a1 1 0 1 1 0 2h-1v2a2 2 0 0 1-2 2h-2v1a1 1 0 1 1-2 0v-1h-2v1a1 1 0 1 1-2 0v-1H7a2 2 0 0 1-2-2v-2H4a1 1 0 1 1 0-2h1v-2H4a1 1 0 1 1 0-2h1V7a2 2 0 0 1 2-2h2V4a1 1 0 0 1 2 0v1h2V4a1 1 0 0 1 1-1m-2 5.25a.75.75 0 0 0-.75.75v.82A4 4 0 0 0 8 13.75v.59c0 .503.407.91.91.91h6.18a.91.91 0 0 0 .91-.91v-.59c0-1.953-1.4-3.579-3.25-3.93V9a.75.75 0 0 0-.75-.75M10.5 12a.75.75 0 1 1 0 1.5.75.75 0 0 1 0-1.5m3 0a.75.75 0 1 1 0 1.5.75.75 0 0 1 0-1.5"/></svg>
