<svg xmlns="http://www.w3.org/2000/svg" fill="none" viewBox="0 0 24 24"><path fill="currentColor" d="M10.5 4.5q.679 0 1.33.098a3.1 3.1 0 0 0-.318 1.13l-.006.094-.004.1a2 2 0 0 0 0 .156l.004.1.006.093a3.14 3.14 0 0 0 2.36 2.774l.192.063c.436.178.774.559.891 1.02l.073.248a3.14 3.14 0 0 0 4.373 1.792q.098.653.099 1.332a9 9 0 1 1-9-9m0 5c-.552 0-.983.46-1.164.981a3.01 3.01 0 0 1-1.855 1.855c-.521.18-.981.612-.981 1.164s.46.983.981 1.164a3.01 3.01 0 0 1 1.855 1.855c.18.521.612.981 1.164.981s.983-.46 1.164-.981a3.01 3.01 0 0 1 1.855-1.855c.521-.18.981-.612.981-1.164s-.46-.983-.981-1.164a3.01 3.01 0 0 1-1.855-1.855c-.18-.521-.612-.981-1.164-.981m7.5-8c.505 0 .927.326 1.08.772l.027.091.067.229a3.51 3.51 0 0 0 2.463 2.3 1.143 1.143 0 0 1 0 2.214 3.51 3.51 0 0 0-2.53 2.53 1.142 1.142 0 0 1-2.213 0 3.51 3.51 0 0 0-2.53-2.53 1.14 1.14 0 0 1-.86-1.006L13.5 6l.004-.1c.042-.493.398-.89.86-1.007a3.51 3.51 0 0 0 2.529-2.53A1.144 1.144 0 0 1 18 1.5"/></svg>
