<svg xmlns="http://www.w3.org/2000/svg" fill="none" viewBox="0 0 24 24"><path fill="currentColor" d="M17.086 4.5a2 2 0 0 1 2.828 0L21.5 6.086a2 2 0 0 1 0 2.828L8.707 21.707A1 1 0 0 1 8 22H5a1 1 0 0 1-1-1v-3l.005-.099a1 1 0 0 1 .288-.608zM6 1.5c.505 0 .927.326 1.08.772l.027.091.067.229a3.51 3.51 0 0 0 2.463 2.3 1.143 1.143 0 0 1 0 2.214 3.51 3.51 0 0 0-2.53 2.53c-.125.492-.569.864-1.107.864s-.982-.372-1.106-.863a3.51 3.51 0 0 0-2.53-2.53 1.14 1.14 0 0 1-.86-1.007L1.5 6l.004-.1c.042-.493.398-.89.86-1.007a3.51 3.51 0 0 0 2.529-2.53A1.144 1.144 0 0 1 6 1.5m9.707 7.207 1.586 1.586L20.086 7.5 18.5 5.914z"/></svg>
