<svg xmlns="http://www.w3.org/2000/svg" fill="none" viewBox="0 0 24 24"><path fill="currentColor" d="M10.5 5c.52 0 1.028.05 1.523.139q-.007.045-.011.09l-.006.093-.004.1a2 2 0 0 0 0 .156l.004.1.006.093a3.14 3.14 0 0 0 2.36 2.774l.193.063c.435.178.773.559.89 1.02l.073.248A3.14 3.14 0 0 0 18.5 12q.183-.002.361-.023A8.5 8.5 0 0 1 6.794 21.15l-3.57.824a1 1 0 0 1-1.199-1.2l.825-3.57A8.5 8.5 0 0 1 10.5 5m8-4c.505 0 .927.326 1.08.772l.027.091.067.229a3.51 3.51 0 0 0 2.463 2.3 1.143 1.143 0 0 1 0 2.214 3.51 3.51 0 0 0-2.53 2.53A1.14 1.14 0 0 1 18.5 10c-.538 0-.982-.372-1.106-.863a3.51 3.51 0 0 0-2.53-2.53 1.14 1.14 0 0 1-.86-1.007L14 5.5l.004-.1c.042-.493.398-.89.86-1.007a3.51 3.51 0 0 0 2.529-2.53A1.144 1.144 0 0 1 18.5 1"/></svg>
