<svg xmlns="http://www.w3.org/2000/svg" fill="none" viewBox="0 0 24 24"><path fill="currentColor" d="M19 18a1 1 0 1 1 0 2H5a1 1 0 1 1 0-2zm0-4a1 1 0 1 1 0 2H5a1 1 0 1 1 0-2zm-7-4a1 1 0 1 1 0 2H5a1 1 0 1 1 0-2zm6-8.5c.505 0 .927.326 1.08.772l.027.091.067.229a3.51 3.51 0 0 0 2.463 2.3 1.143 1.143 0 0 1 0 2.214 3.51 3.51 0 0 0-2.53 2.53 1.142 1.142 0 0 1-2.213 0 3.51 3.51 0 0 0-2.53-2.53 1.14 1.14 0 0 1-.86-1.006L13.5 6l.004-.1c.042-.493.398-.89.86-1.007a3.51 3.51 0 0 0 2.529-2.53A1.144 1.144 0 0 1 18 1.5M9 6a1 1 0 0 1 0 2H5a1 1 0 0 1 0-2z"/></svg>
