<svg xmlns="http://www.w3.org/2000/svg" fill="none" viewBox="0 0 24 24"><path fill="currentColor" d="M1.287 2.713a1.007 1.007 0 0 1 1.425 0l6.283 6.283h.001l5.654 5.654h-.002l6.64 6.638a1.008 1.008 0 0 1-1.426 1.425L16.5 19.35v.869a1.5 1.5 0 0 1-1.864 1.456L12 21.015l-2.636.66A1.5 1.5 0 0 1 7.5 20.219v-1.101a1.5 1.5 0 0 1 .83-1.342l1.17-.586v-2.572l-5.186 1.111A1.5 1.5 0 0 1 2.5 14.263v-.683a1.5 1.5 0 0 1 .756-1.302l3.926-2.246-5.895-5.894a1.007 1.007 0 0 1 0-1.425M12 2.5A2.5 2.5 0 0 1 14.5 5v3.709l6.244 3.57a1.5 1.5 0 0 1 .756 1.3v.683a1.5 1.5 0 0 1-1.814 1.467l-1.409-.301L9.5 6.649V5A2.5 2.5 0 0 1 12 2.5"/></svg>
