<svg xmlns="http://www.w3.org/2000/svg" fill="none" viewBox="0 0 24 24"><path fill="currentColor" d="M11.433 3.428a1 1 0 0 1 1.732 1l-.178.307 1.959 1.13a4 4 0 0 0 4.204-.125l.538-.356.099-.057a1 1 0 0 1 1.39.546l-.937.346.938-.344.001.002.002.006.005.014q.007.016.015.042l.042.136c.033.113.076.273.118.471.084.397.169.958.18 1.64.023 1.367-.249 3.22-1.397 5.21s-2.62 3.153-3.815 3.817a8.6 8.6 0 0 1-1.51.663 6 6 0 0 1-.606.164l-.043.01-.015.002h-.005l-.004.001-.17-.984.169.984a1 1 0 0 1-1.168-1.045l.04-.643a4 4 0 0 0-1.994-3.704L9.064 11.53l-4.418 7.654a1 1 0 0 1-1.732-1l4.419-7.654h-.001A2 2 0 0 1 6.6 7.798l1.923-3.33a2 2 0 0 1 2.55-.827l.182.094z"/></svg>
