<svg xmlns="http://www.w3.org/2000/svg" fill="none" viewBox="0 0 24 24"><path fill="currentColor" d="M5.63 10c.477 0 .94.17 1.302.481L9.869 13H20a2 2 0 0 1 2 2v3a4 4 0 0 1-4 4H6a4 4 0 0 1-3.995-3.794L2 18v-3a2 2 0 0 1 1.5-1.935V12a2 2 0 0 1 2-2zM5.5 5a2 2 0 1 1 0 4 2 2 0 0 1 0-4m4.516-3c.552.011.99.47.98 1.021a2.43 2.43 0 0 0 .711 1.772 4.43 4.43 0 0 1 1.297 3.228 1 1 0 1 1-2-.043 2.43 2.43 0 0 0-.712-1.771 4.43 4.43 0 0 1-1.297-3.229A1 1 0 0 1 10.015 2m4 0a1 1 0 0 1 .98 1.021 2.43 2.43 0 0 0 .712 1.772 4.43 4.43 0 0 1 1.297 3.228 1 1 0 1 1-2-.043 2.43 2.43 0 0 0-.712-1.771 4.43 4.43 0 0 1-1.297-3.229A1 1 0 0 1 14.015 2m4 0a1 1 0 0 1 .98 1.021 2.43 2.43 0 0 0 .712 1.772 4.43 4.43 0 0 1 1.297 3.228 1 1 0 1 1-2-.043 2.43 2.43 0 0 0-.712-1.771 4.43 4.43 0 0 1-1.297-3.229A1 1 0 0 1 18.015 2"/></svg>
