<svg xmlns="http://www.w3.org/2000/svg" fill="none" viewBox="0 0 24 24"><path fill="currentColor" d="M12 4a7 7 0 0 1 7 7v.028A4.5 4.5 0 0 1 18.5 20h-12A5.5 5.5 0 0 1 5.251 9.143 7 7 0 0 1 12 4m-3.5 8a.75.75 0 0 0-.75.75v1h-1a.751.751 0 0 0 0 1.5h1v1a.75.75 0 0 0 1.5 0v-1h1a.75.75 0 0 0 0-1.5h-1v-1A.75.75 0 0 0 8.5 12m8 2.5a1.2 1.2 0 0 0-.875.375q-.375.375-.375.875c0 .5.125.625.375.875Q16 17 16.5 17t.875-.375.375-.875c0-.5-.125-.625-.375-.875a1.2 1.2 0 0 0-.875-.375M14 12a1.2 1.2 0 0 0-.875.375q-.375.375-.375.875c0 .5.125.625.375.875q.375.375.875.375t.875-.375.375-.875c0-.5-.125-.625-.375-.875A1.2 1.2 0 0 0 14 12"/></svg>
