<svg xmlns="http://www.w3.org/2000/svg" fill="none" viewBox="0 0 24 24"><path fill="currentColor" d="M18.77 1.507c.625.03 1.225.166 1.779.389a1 1 0 0 1 .334 1.634L18.413 6 19.5 7.085l2.47-2.469.093-.083a1 1 0 0 1 1.541.417C23.858 5.584 24 6.276 24 7l-.007.283a5.5 5.5 0 0 1-5.21 5.21l-.283.007c-.485 0-.956-.065-1.404-.184L15.913 13.5l4.294 4.294a2.768 2.768 0 0 1-3.914 3.914l-4.294-4.294-4.292 4.294a2.77 2.77 0 0 1-3.704.19l-.21-.19a2.77 2.77 0 0 1 0-3.914L8.085 13.5 6.75 12.165l-.336.336a2 2 0 0 1-2.828 0L1 9.914a2 2 0 0 1 0-2.828L5.586 2.5a2 2 0 0 1 2.828 0L11 5.086a2 2 0 0 1 0 2.828l-.336.336L12 9.585l1.184-1.184A5.5 5.5 0 0 1 18.5 1.5zm-5.357 14.492 4.294 4.294a.768.768 0 0 0 1.086-1.086l-4.294-4.294zM8.164 10.75 9.5 12.085l1.086-1.086L9.25 9.664z"/></svg>
