<svg xmlns="http://www.w3.org/2000/svg" fill="none" viewBox="0 0 24 24"><path fill="currentColor" d="M19.783 15.283a1.001 1.001 0 0 1 .434 1.953c-1.025.228-2.765.53-5.217.676V20.5a1 1 0 0 1-1 1h-4a1 1 0 0 1-1-1v-2.588c-2.452-.147-4.191-.448-5.217-.676a1.001 1.001 0 0 1 .434-1.953c1.264.281 3.858.718 7.783.718s6.52-.437 7.783-.718M12 11a2 2 0 1 1 0 4 2 2 0 0 1 0-4M3.5 9a1.5 1.5 0 1 1 0 3 1.5 1.5 0 0 1 0-3m17 0a1.5 1.5 0 1 1 0 3 1.5 1.5 0 0 1 0-3m-14-4.5a1.5 1.5 0 1 1 0 3 1.5 1.5 0 0 1 0-3m11 0a1.5 1.5 0 1 1 0 3 1.5 1.5 0 0 1 0-3m-5.5-2a1.5 1.5 0 1 1 0 3 1.5 1.5 0 0 1 0-3"/></svg>
