<svg xmlns="http://www.w3.org/2000/svg" fill="none" viewBox="0 0 24 24"><path fill="currentColor" d="M11.586 2a2 2 0 0 1 2.828 0l6.293 6.293a1 1 0 0 1 0 1.414l-10 10A1 1 0 0 1 10 20H2a1 1 0 0 1-1-1v-2.235c0-1.17.678-2.194 1.67-2.713 1.537-.804 2.352-1.464 2.922-2.403.6-.99.99-2.386 1.424-4.825l.038-.147a1 1 0 0 1 .239-.384zm-4.94 11.586a7.3 7.3 0 0 1-1.094 1.026l.887.888A.75.75 0 0 0 7.5 14.44zm14.44-3.086a1 1 0 0 1 1.414 1.414L19.914 14.5a1 1 0 0 1-1.414-1.414zm-12.78-.254a12 12 0 0 1-.553 1.568L8.939 13A.75.75 0 0 0 10 11.94z"/></svg>
