<svg xmlns="http://www.w3.org/2000/svg" fill="none" viewBox="0 0 24 24"><path fill="currentColor" d="M19 17a1 1 0 0 1-.105.447L18 17l.894.448v.001l-.002.003-.003.006-.008.015-.023.043-.077.132a5 5 0 0 1-.286.42 6.8 6.8 0 0 1-1.183 1.213c-1.102.882-2.82 1.719-5.312 1.72s-4.21-.838-5.312-1.72a6.8 6.8 0 0 1-1.183-1.213 5 5 0 0 1-.363-.552l-.023-.043-.008-.015-.003-.006-.002-.003c.004-.003.063-.034.894-.449l-.895.447A1 1 0 0 1 5 17v-3.03l5.786 3.216.08.04.116.056q.047.023.095.042a2.5 2.5 0 0 0 2.137-.138L19 13.97zM11.028 4.396a2 2 0 0 1 1.944 0l8.487 4.715.436.218A2 2 0 0 1 23 11.12V16a1 1 0 0 1-2 0v-4.856l-8.028 4.46a2 2 0 0 1-1.944 0l-7.727-4.292a1.5 1.5 0 0 1 0-2.623z"/></svg>
