<svg xmlns="http://www.w3.org/2000/svg" fill="none" viewBox="0 0 24 24"><path fill="currentColor" d="M12 9c1.714 0 2.81 1.413 3.292 2.567.547 1.31 1.902 2.175 3.816 2.385a1.001 1.001 0 0 1-.216 1.988c-1.976-.216-3.806-1.049-4.892-2.598v2.77l3.72 1.24A1.873 1.873 0 0 1 17.128 21H9.177l3.985-1.992a.75.75 0 0 0-.67-1.342l-6.362 3.18a1.872 1.872 0 0 1 .15-3.494l3.72-1.24v-2.77c-1.086 1.55-2.916 2.382-4.892 2.598a1 1 0 1 1-.216-1.988c1.914-.21 3.269-1.075 3.816-2.385C9.19 10.413 10.286 9 12 9m0-5a2 2 0 1 1 0 4 2 2 0 0 1 0-4"/></svg>
