<svg xmlns="http://www.w3.org/2000/svg" fill="none" viewBox="0 0 24 24"><path fill="currentColor" d="M12 2c2.251 0 4.329.744 6 1.999a10.05 10.05 0 0 0-2.805 3.256l-.068-.04a1 1 0 0 0-.992 1.737l.288.164A10 10 0 0 0 14 12c0 1.002.148 1.97.423 2.883l-.288.165a1 1 0 0 0 .992 1.737l.068-.04A10.05 10.05 0 0 0 18 20a9.96 9.96 0 0 1-6 2 9.96 9.96 0 0 1-6-2 10.05 10.05 0 0 0 2.804-3.255l.07.04a1.001 1.001 0 0 0 .991-1.737l-.289-.165a10 10 0 0 0 0-5.767l.29-.164a1 1 0 0 0-.991-1.736l-.071.039A10.05 10.05 0 0 0 6 3.999 9.96 9.96 0 0 1 12 2M4.501 5.387a8.04 8.04 0 0 1 2.564 2.86l-.286.164a1 1 0 0 0 .992 1.737l.01-.005a8 8 0 0 1 0 3.715l-.01-.006a1 1 0 0 0-.992 1.737l.286.163a8.04 8.04 0 0 1-2.564 2.86A9.96 9.96 0 0 1 2 12a9.96 9.96 0 0 1 2.501-6.613m14.997 0A9.96 9.96 0 0 1 22 12c0 2.536-.946 4.85-2.502 6.612a8.04 8.04 0 0 1-2.564-2.86l.287-.163a1 1 0 1 0-.991-1.736l-.011.004a8 8 0 0 1 0-3.715l.01.006a1.001 1.001 0 0 0 .992-1.737l-.287-.164a8.04 8.04 0 0 1 2.564-2.86"/></svg>
