<svg xmlns="http://www.w3.org/2000/svg" fill="none" viewBox="0 0 24 24"><path fill="currentColor" d="M14.897 1.054a1 1 0 0 1 .199 1.99 8.96 8.96 0 0 0-4.945 2.117c4.608-1.728 9.873-.168 12.778 3.875a1.001 1.001 0 0 1-1.625 1.167 8.96 8.96 0 0 0-4.305-3.224c3.8 3.127 5.081 8.465 3.032 13.002a1 1 0 0 1-1.822-.823 8.96 8.96 0 0 0 .639-5.338c-.808 4.853-4.79 8.632-9.744 9.126a1 1 0 0 1-.199-1.99 8.96 8.96 0 0 0 4.943-2.116c-4.608 1.726-9.871.167-12.776-3.876a1 1 0 0 1 1.625-1.166A8.96 8.96 0 0 0 7 17.02C3.201 13.894 1.92 8.555 3.97 4.018a1 1 0 0 1 1.822.824 8.96 8.96 0 0 0-.64 5.338c.808-4.853 4.791-8.632 9.745-9.126M12 10a2 2 0 1 0 0 4 2 2 0 0 0 0-4"/></svg>
