<svg xmlns="http://www.w3.org/2000/svg" fill="none" viewBox="0 0 24 24"><path fill="currentColor" d="M3 6a1 1 0 0 1 1 1v13h13a1 1 0 1 1 0 2H4a2 2 0 0 1-1.99-1.796L2 20V7a1 1 0 0 1 1-1m17-4a2 2 0 0 1 2 2v12a2 2 0 0 1-2 2H8a2 2 0 0 1-2-2V4a2 2 0 0 1 2-2zm-6 9.5q-.975 0-1.937.188a9.6 9.6 0 0 0-1.863.562q-.576.225-.887.737A2.1 2.1 0 0 0 9 14.1c0 .22.18.4.4.4h9.2a.4.4 0 0 0 .4-.4q0-.6-.312-1.113c-.312-.513-.505-.587-.888-.737q-.9-.375-1.862-.562A10 10 0 0 0 14 11.5m0-6q-1.05 0-1.775.725C11.5 6.95 11.5 7.3 11.5 8s.241 1.292.725 1.775q.725.726 1.775.725c1.05-.001 1.292-.241 1.775-.725Q16.501 9.05 16.5 8c-.001-1.05-.241-1.292-.725-1.775S14.7 5.5 14 5.5"/></svg>
