<svg xmlns="http://www.w3.org/2000/svg" fill="none" viewBox="0 0 48 48"><path fill="currentColor" fill-rule="evenodd" d="M24 4.5C13.23 4.5 4.5 13.23 4.5 24S13.23 43.5 24 43.5 43.5 34.77 43.5 24 34.77 4.5 24 4.5M.5 24C.5 11.021 11.021.5 24 .5S47.5 11.021 47.5 24 36.979 47.5 24 47.5.5 36.979.5 24m17.843-8.842a5.658 5.658 0 1 1 10.097 3.507c2.926.623 5.06 3.138 5.06 6.276 0 1.762-.238 2.97-.415 3.626-.13.479-.46.898-.968 1.081-.472.17-1.271.385-2.579.556-.219 2.037-.57 4.416-1.13 6.403-.185.653-.661 1.211-1.346 1.428a10.2 10.2 0 0 1-3.063.465 10.2 10.2 0 0 1-3.062-.464c-.685-.218-1.161-.776-1.345-1.429-.561-1.987-.912-4.367-1.13-6.403-1.308-.171-2.107-.386-2.58-.556-.507-.183-.838-.602-.968-1.08-.177-.657-.414-1.865-.414-3.627 0-3.138 2.134-5.653 5.06-6.276a5.64 5.64 0 0 1-1.218-3.507" clip-rule="evenodd"/></svg>
