<svg xmlns="http://www.w3.org/2000/svg" fill="none" viewBox="0 0 48 48"><path fill="currentColor" fill-rule="evenodd" d="M6.35 39.688c-.842-.137-1.362-.542-1.616-.95-.241-.387-.348-.936-.066-1.646.775-1.955 2.05-4.758 4.145-8.66a4.1 4.1 0 0 0 .604 1.542c3.43 5.278 8.625 8.8 14.583 8.8 5.957 0 11.151-3.522 14.581-8.8.31-.478.512-1.003.605-1.543 2.095 3.903 3.37 6.706 4.145 8.66.282.71.175 1.26-.066 1.647-.254.409-.774.814-1.616.95C37.898 40.294 31.845 41 24 41s-13.898-.707-17.65-1.313M35.198 21.4c-3.868-6.47-7.052-10.761-9.238-13.41-1.094-1.324-2.827-1.324-3.92 0-2.187 2.648-5.37 6.938-9.238 13.41 3.105-2.93 6.958-4.715 11.198-4.715s8.092 1.784 11.198 4.715M.949 35.618c-.721 1.82-.56 3.707.389 5.233.935 1.503 2.528 2.487 4.373 2.785 3.937.637 10.204 1.365 18.289 1.365 8.084 0 14.352-.728 18.288-1.365 1.845-.298 3.438-1.282 4.374-2.785.949-1.526 1.11-3.413.388-5.234-1.173-2.957-3.32-7.503-7.26-14.3-4.482-7.73-8.199-12.789-10.746-15.873-2.693-3.262-7.395-3.262-10.089 0-2.547 3.084-6.264 8.142-10.745 15.872C4.269 28.114 2.122 32.66.95 35.618M24 31.98a4.25 4.25 0 1 1 0-8.499 4.25 4.25 0 0 1 0 8.499" clip-rule="evenodd"/></svg>
