<svg xmlns="http://www.w3.org/2000/svg" fill="none" viewBox="0 0 48 48"><path fill="currentColor" fill-rule="evenodd" d="m36.222 8.566-.004.005-13.245 18.814a2 2 0 0 1-3.126.181l-8.274-9.257c-.965-1.001-2.308-1.044-3.14-.352-1.105.918-2.317 2.078-3.343 3.414-.47.614-.495 1.645.255 2.564a171 171 0 0 0 14.752 15.85c1.091 1.03 2.708.932 3.65-.188 3.495-4.152 9.974-12.382 19.044-26.099.598-.904.54-1.747.205-2.214-1.195-1.667-2.794-2.823-4.204-3.587-.712-.385-1.804-.198-2.57.869m-3.257-2.323c1.63-2.277 4.813-3.644 7.732-2.063 1.747.947 3.892 2.461 5.55 4.774 1.581 2.205 1.096 4.912-.12 6.75-9.146 13.834-15.717 22.188-19.319 26.468-2.444 2.905-6.718 3.106-9.456.523a175 175 0 0 1-15.105-16.23c-1.654-2.025-2.172-5.129-.33-7.53 1.259-1.639 2.703-3.01 3.958-4.054 2.696-2.242 6.425-1.62 8.618.694l.04.043 6.619 7.406L32.956 6.256z" clip-rule="evenodd"/></svg>
