<svg xmlns="http://www.w3.org/2000/svg" fill="none" viewBox="0 0 48 48"><path fill="currentColor" fill-rule="evenodd" d="M24 1.492q-.424 0-.832.003c-4.22.03-7.834 1.537-10.454 4.162-2.32 2.325-3.771 5.435-4.246 8.945C3.636 16.657.48 21.16.48 26.966c0 6.302 3.718 11.068 9.261 12.836a2.023 2.023 0 1 0 1.23-3.855c-3.893-1.242-6.445-4.468-6.445-8.98s2.552-7.74 6.445-8.982a2.02 2.02 0 0 0 1.404-1.798c.205-3.206 1.379-5.843 3.203-7.671 1.814-1.817 4.382-2.952 7.619-2.975a111 111 0 0 1 1.606 0c3.237.023 5.805 1.158 7.619 2.974 1.824 1.83 2.998 4.466 3.203 7.672.053.831.61 1.545 1.404 1.798 3.893 1.242 6.444 4.468 6.444 8.981 0 3.144-1.234 5.608-3.2 7.236a2.023 2.023 0 1 0 2.581 3.117c2.944-2.438 4.666-6.07 4.666-10.353 0-5.807-3.156-10.309-7.988-12.364-.475-3.51-1.926-6.62-4.246-8.945-2.62-2.625-6.233-4.132-10.454-4.162q-.409-.003-.832-.003m-2.613 23.773c-.428 0-.867.082-1.275.287-1.281.644-4.693 2.61-7.766 6.599-1.123 1.459-.173 3.433 1.541 3.745l2.295.417.39 7.4c.067 1.282.871 2.54 2.293 2.715a11.2 11.2 0 0 0 2.569.014c1.497-.167 2.314-1.517 2.314-2.866V27.625a2.36 2.36 0 0 0-2.36-2.36m8.43 0c-.454 0-.864.026-1.227.066-1.497.167-2.314 1.517-2.314 2.866v15.951a2.36 2.36 0 0 0 2.36 2.36c.428 0 .867-.082 1.275-.287 1.282-.644 4.694-2.61 7.766-6.6 1.124-1.458.173-3.432-1.54-3.744l-2.296-.417-.389-7.4c-.067-1.282-.871-2.54-2.293-2.715a11 11 0 0 0-1.342-.08" clip-rule="evenodd"/></svg>
