<svg xmlns="http://www.w3.org/2000/svg" fill="none" viewBox="0 0 48 48"><path fill="currentColor" fill-rule="evenodd" d="M24 1c-7.417 0-12.617.233-15.893.455C4.61 1.692 1.8 4.327 1.484 7.88 1.236 10.656 1 14.8 1 20.5s.236 9.844.484 12.62c.316 3.553 3.126 6.188 6.623 6.425 1.403.095 3.16.192 5.292.272v3.178c0 3.453 4.08 5.284 6.66 2.988l6.733-5.994c5.95-.05 10.253-.25 13.101-.444 3.497-.237 6.307-2.872 6.623-6.425.248-2.776.484-6.92.484-12.62s-.236-9.844-.484-12.62c-.316-3.553-3.126-6.188-6.623-6.425C36.617 1.233 31.417 1 24 1M8.378 5.446C11.556 5.23 16.666 5 24 5s12.444.23 15.622.446c1.597.108 2.774 1.259 2.91 2.79.236 2.649.468 6.674.468 12.264s-.232 9.615-.468 12.265c-.136 1.53-1.313 2.681-2.91 2.79-2.88.195-7.343.402-13.61.44a2 2 0 0 0-1.317.505l-7.296 6.495v-5.112a2 2 0 0 0-1.942-2 184 184 0 0 1-7.08-.329c-1.596-.108-2.773-1.259-2.91-2.79C5.233 30.115 5 26.09 5 20.5s.232-9.615.468-12.265c.136-1.53 1.313-2.681 2.91-2.79M21.464 22.26a.5.5 0 0 0 .036-.186v-5.03c0-1.15-.015-2.054-.035-2.754-.044-1.505-1.146-2.678-2.67-2.74A69 69 0 0 0 16 11.5c-1.177 0-2.091.02-2.794.05-1.525.062-2.627 1.235-2.67 2.74a97 97 0 0 0-.036 2.783c0 1.078.013 1.94.03 2.623.043 1.595 1.252 2.808 2.849 2.848.42.011.909.02 1.479.025-.131.81-.412 1.467-.842 2.038-.527.701-1.3 1.307-2.378 1.908-.684.382-1.045 1.28-.568 2.029.286.447.686 1.002 1.165 1.46.537.514 1.29.591 1.92.397 3.617-1.113 6.93-3.716 7.31-8.141m16 0a.5.5 0 0 0 .036-.186v-5.03c0-1.15-.015-2.054-.035-2.754-.044-1.505-1.146-2.678-2.67-2.74A69 69 0 0 0 32 11.5c-1.177 0-2.091.02-2.794.05-1.525.062-2.627 1.235-2.67 2.74a97 97 0 0 0-.036 2.783c0 1.078.013 1.94.03 2.623.043 1.595 1.252 2.808 2.849 2.848.42.011.909.02 1.479.025-.131.81-.412 1.467-.842 2.038-.527.701-1.3 1.307-2.378 1.908-.684.382-1.045 1.28-.568 2.029.286.447.686 1.002 1.165 1.46.537.514 1.29.591 1.92.397 3.617-1.113 6.93-3.716 7.31-8.141" clip-rule="evenodd"/></svg>
