<svg xmlns="http://www.w3.org/2000/svg" fill="none" viewBox="0 0 48 48"><path fill="currentColor" fill-rule="evenodd" d="M5.316 1.102c1.083-.057 2.55-.1 4.515-.1s3.433.043 4.515.1c1.113.058 2.176.452 2.983 1.203.821.763 1.297 1.823 1.325 3.027a25 25 0 0 1 0 1.181c-.028 1.204-.504 2.263-1.325 3.027-.808.75-1.87 1.144-2.983 1.203-1.082.057-2.55.1-4.515.1s-3.432-.043-4.515-.1c-1.112-.059-2.175-.452-2.983-1.203-.82-.764-1.296-1.823-1.325-3.027a25 25 0 0 1 0-1.181c.029-1.204.504-2.264 1.325-3.027.808-.75 1.87-1.145 2.983-1.203m0 11.727c1.083-.057 2.55-.1 4.515-.1s3.433.043 4.515.1c1.113.058 2.176.452 2.983 1.202.821.764 1.297 1.823 1.325 3.027a25 25 0 0 1 0 1.182c-.028 1.204-.504 2.263-1.325 3.026-.808.751-1.87 1.145-2.983 1.203a87 87 0 0 1-4.515.1c-1.964 0-3.432-.043-4.515-.1-1.112-.058-2.175-.452-2.983-1.203-.82-.763-1.296-1.822-1.325-3.026a25 25 0 0 1 0-1.182c.029-1.204.504-2.263 1.325-3.027.808-.75 1.87-1.144 2.983-1.202M24.861 1.102c1.083-.057 2.551-.1 4.516-.1s3.432.043 4.515.1c1.112.058 2.175.452 2.983 1.203.82.763 1.296 1.823 1.325 3.027a25 25 0 0 1 0 1.181c-.029 1.204-.504 2.263-1.325 3.027-.808.75-1.87 1.144-2.983 1.203-1.083.057-2.55.1-4.515.1s-3.433-.043-4.515-.1c-1.113-.059-2.176-.452-2.983-1.203-.821-.764-1.297-1.823-1.325-3.027a26 26 0 0 1 0-1.181c.028-1.204.504-2.264 1.325-3.027.807-.75 1.87-1.145 2.983-1.203m4.37 11.6c-.698 0-1.348.068-1.916.164-2.396.405-3.761 2.449-3.992 4.438-.27 2.34-.657 6.422-.795 11.603a59 59 0 0 0-1.261-.82c-1.735-1.098-4.798-1.606-6.584.89-.59.825-1.137 1.893-1.503 3.254-.376 1.394.007 2.774.761 3.793 1.52 2.055 5.468 7.093 10.13 10.575a2 2 0 1 0 2.393-3.205c-4.17-3.115-7.834-7.758-9.307-9.75-.137-.183-.129-.322-.115-.372.241-.897.58-1.53.893-1.967a.25.25 0 0 1 .092-.086.5.5 0 0 1 .182-.04c.217-.012.56.06.92.288a52 52 0 0 1 3.719 2.58c1.48 1.133 3.622.082 3.629-1.783.024-6.583.506-11.789.82-14.5.035-.31.15-.554.282-.71a.65.65 0 0 1 .403-.244 7.5 7.5 0 0 1 1.248-.109c.446 0 .867.045 1.244.112a.57.57 0 0 1 .347.214c.121.144.234.374.276.67.29 2.064.692 5.458.78 8.893a2.26 2.26 0 0 0 2.173 2.198c.696.027 3.315.2 6.584 1.31 1.458.495 2.375 1.77 2.364 3.201-.02 2.583-.496 6.468-2.548 10.85a2 2 0 0 0 3.623 1.696c2.34-4.999 2.901-9.472 2.925-12.514.026-3.264-2.09-6.006-5.078-7.02a30 30 0 0 0-6.104-1.39 90 90 0 0 0-.758-7.78c-.265-1.882-1.566-3.857-3.889-4.267a11 11 0 0 0-1.939-.173" clip-rule="evenodd"/></svg>
