<svg xmlns="http://www.w3.org/2000/svg" fill="none" viewBox="0 0 48 48"><path fill="currentColor" fill-rule="evenodd" d="M24 4.5C13.23 4.5 4.5 13.23 4.5 24S13.23 43.5 24 43.5 43.5 34.77 43.5 24 34.77 4.5 24 4.5M.5 24C.5 11.021 11.021.5 24 .5S47.5 11.021 47.5 24 36.98 47.5 24 47.5.5 36.98.5 24M24 8.974c8.299 0 15.026 6.728 15.026 15.026S32.3 39.026 24 39.026 8.975 32.299 8.975 24 15.702 8.974 24 8.974M26 15a2 2 0 1 0-4 0v.834c-.8.214-1.56.553-2.219 1.001-1.179.802-2.281 2.148-2.281 3.95 0 .92.232 1.77.717 2.507.474.72 1.11 1.206 1.733 1.545 1.112.605 2.493.886 3.517 1.094l.133.028c1.215.248 2.011.429 2.538.715.22.12.288.207.306.234v.001c.01.013.056.083.056.304 0 .036-.023.297-.531.642-.494.337-1.223.573-1.969.573-2.25 0-3.003-.708-3.068-.775a2 2 0 1 0-2.864 2.793c.717.735 1.969 1.507 3.932 1.828V33a2 2 0 1 0 4 0v-.838c.8-.213 1.56-.552 2.219-1 1.179-.802 2.281-2.149 2.281-3.95 0-.92-.232-1.771-.717-2.507-.474-.72-1.11-1.207-1.733-1.545-1.112-.606-2.493-.886-3.517-1.095l-.133-.027c-1.215-.248-2.011-.429-2.538-.715-.22-.12-.288-.207-.306-.234v-.001c-.01-.013-.056-.083-.056-.304 0-.036.023-.297.531-.643.483-.328 1.188-.56 1.915-.571h.112a6.2 6.2 0 0 1 3.074.867q.108.067.148.096l.02.013a2 2 0 0 0 2.415-3.187l-1.18 1.541 1.18-1.542-.002-.001-.002-.002-.006-.004-.013-.01-.035-.026-.102-.073a7 7 0 0 0-.334-.216 10 10 0 0 0-1.157-.6A10.3 10.3 0 0 0 26 15.773z" clip-rule="evenodd"/></svg>
