<svg xmlns="http://www.w3.org/2000/svg" fill="none" viewBox="0 0 48 48"><path fill="currentColor" fill-rule="evenodd" d="M9.75 17.857C9.75 10.757 14.964 4.5 24 4.5c9.038 0 14.251 6.256 14.251 13.357 0 7.794-4.895 11.683-7.065 13.032-1.184.737-2.025 2.03-2.108 3.51-.187 3.338-1.164 5.578-2.5 6.97-1.314 1.368-3.183 2.132-5.624 2.132-2.082 0-3.399-.56-4.316-1.44-.965-.928-1.727-2.44-2.214-4.785a2 2 0 0 0-3.917.813c.571 2.752 1.582 5.15 3.36 6.857 1.828 1.754 4.226 2.555 7.087 2.555 3.321 0 6.307-1.069 8.51-3.362 2.181-2.272 3.384-5.527 3.608-9.515a.47.47 0 0 1 .226-.338c2.724-1.693 8.953-6.653 8.953-16.429C42.251 8.577 35.277.5 24.001.5S5.75 8.577 5.75 17.857q.001.725.062 1.428a2 2 0 1 0 3.985-.342 13 13 0 0 1-.047-1.086m7.26 1.268c0-3.64 2.745-7.048 6.991-7.048 2.05 0 3.479.903 4.453 2.211 1.02 1.369 1.54 3.196 1.54 4.837 0 3.359-2.176 5.24-3.687 6.154-1.303.787-2.244 2.237-2.25 3.892-.01 2.366-.59 3.596-1.129 4.21-.516.589-1.187.834-1.924.834-.93 0-1.554-.258-1.979-.632-.432-.38-.85-1.05-1.043-2.218a2 2 0 1 0-3.946.653c.306 1.848 1.065 3.44 2.346 4.568 1.288 1.134 2.912 1.63 4.622 1.63 1.689 0 3.533-.603 4.932-2.198 1.376-1.569 2.109-3.857 2.12-6.831.001-.13.095-.349.319-.484 2.022-1.222 5.619-4.168 5.619-9.578 0-2.381-.73-5.077-2.332-7.227-1.648-2.21-4.216-3.821-7.66-3.821-6.744 0-10.992 5.497-10.992 11.048a2 2 0 1 0 4 0" clip-rule="evenodd"/></svg>
