<svg xmlns="http://www.w3.org/2000/svg" fill="none" viewBox="0 0 48 48"><path fill="currentColor" fill-rule="evenodd" d="M33.365 11.51a5.6 5.6 0 0 0-2.764.538 6 6 0 0 0-.869.504l-.052.039-.015.011-.003.002-.003.003-.017.013-.056.045q-.072.06-.21.182c-.182.165-.455.424-.823.806-.735.765-1.857 2.03-3.42 4.04A35 35 0 0 0 23.15 20.5H2a.5.5 0 0 0-.5.5v6a.5.5 0 0 0 .5.5h21.15c.5.795 1.148 1.731 1.984 2.807 1.562 2.01 2.684 3.274 3.42 4.04.367.382.64.64.823.806q.136.123.209.181l.029.024.027.022.017.013.003.002.003.002.015.012a3 3 0 0 0 .24.167c.16.104.391.24.68.376a5.6 5.6 0 0 0 2.765.538c1.155-.055 1.858-.839 2.074-1.768.21-.905-.025-1.976-.705-2.78a68 68 0 0 1-1.818-2.249 36 36 0 0 1-1.619-2.247c1.043-.014 1.965-.03 2.777-.047.51.817 1.176 1.786 2.047 2.908 1.563 2.01 2.684 3.274 3.42 4.04.368.382.64.64.823.806a7 7 0 0 0 .266.227l.015.012.001.001.006.004.002.002.013.01.052.039q.068.049.188.128c.16.104.392.24.68.376a5.6 5.6 0 0 0 2.765.538c1.155-.055 1.859-.839 2.075-1.768.21-.905-.025-1.976-.706-2.78a69 69 0 0 1-1.818-2.249c-1.536-1.977-2.406-3.45-2.889-4.417-.241-.483-.386-.84-.47-1.07a5 5 0 0 1-.068-.206q.022-.077.069-.206c.083-.23.228-.587.47-1.07.482-.968 1.352-2.44 2.888-4.418.695-.894 1.3-1.636 1.819-2.25.68-.802.915-1.874.705-2.779-.216-.928-.92-1.712-2.075-1.767a5.6 5.6 0 0 0-2.764.538 6 6 0 0 0-.869.504l-.052.039-.013.01-.002.001-.005.004-.002.002-.015.012-.057.045q-.072.06-.209.182c-.183.165-.455.424-.823.806-.736.765-1.857 2.03-3.42 4.04a35 35 0 0 0-2.047 2.908c-.813-.017-1.734-.033-2.777-.047.433-.658.966-1.407 1.619-2.248a70 70 0 0 1 1.818-2.25c.68-.802.915-1.874.705-2.779-.216-.928-.919-1.712-2.074-1.767m7.08 12.38q0-.002 0 0" clip-rule="evenodd"/></svg>
