<svg xmlns="http://www.w3.org/2000/svg" fill="none" viewBox="0 0 48 48"><path fill="currentColor" fill-rule="evenodd" d="M38.608 14.767a2.96 2.96 0 0 0-3.975 0 76 76 0 0 0-3.674 3.508 90 90 0 0 0-2.102 2.198c-1.655-.008-3.524-.013-5.632-.013H2a.5.5 0 0 0-.5.5v6.08a.5.5 0 0 0 .5.5h21.225c2.108 0 3.976-.006 5.631-.014a90 90 0 0 0 2.103 2.199 76 76 0 0 0 3.674 3.508 2.96 2.96 0 0 0 3.975 0 77 77 0 0 0 3.674-3.508 76 76 0 0 0 3.463-3.721 3.04 3.04 0 0 0 0-4.008 76 76 0 0 0-3.464-3.721 76 76 0 0 0-3.673-3.508" clip-rule="evenodd"/></svg>
