<svg xmlns="http://www.w3.org/2000/svg" fill="none" viewBox="0 0 48 48"><path fill="currentColor" fill-rule="evenodd" d="M36.567.838a177 177 0 0 0-25.134 0c-2.865.206-5.502 2.024-6.106 5.174C4.89 8.29 4.5 11.806 4.5 17.114q0 .364.002.718c.032 4.633 1.752 8.52 4.685 11.299 2.472 2.342 5.719 3.819 9.348 4.363l-.201 4.23c-.02.41-.32.807-.793.93-2.737.717-5.455 1.607-6.845 2.078a3.405 3.405 0 0 0-2.307 3.23 3.427 3.427 0 0 0 3.424 3.43h24.374a3.427 3.427 0 0 0 3.424-3.43 3.405 3.405 0 0 0-2.307-3.23c-1.39-.471-4.108-1.361-6.845-2.078-.473-.123-.774-.52-.793-.93l-.201-4.23c3.63-.544 6.876-2.02 9.348-4.363 2.933-2.78 4.653-6.666 4.684-11.3q.003-.352.003-.717c0-5.308-.39-8.824-.827-11.102-.605-3.15-3.24-4.968-6.106-5.174M24.415 4.391c3.973.01 7.943.155 11.866.437 1.397.1 2.26.88 2.464 1.938.378 1.972.755 5.226.755 10.348q0 .351-.002.69c-.025 3.606-1.337 6.434-3.436 8.423-2.12 2.009-5.163 3.272-8.796 3.476a2 2 0 0 0-1.886 2.091l.29 6.12c.107 2.239 1.693 4.065 3.776 4.61a86 86 0 0 1 3.057.867H15.497a85 85 0 0 1 3.057-.867c2.083-.545 3.67-2.371 3.776-4.61l.29-6.12a2 2 0 0 0-1.886-2.091c-3.634-.204-6.676-1.467-8.796-3.476-2.1-1.989-3.411-4.817-3.436-8.423l-.002-.69c0-5.122.377-8.376.755-10.348.203-1.059 1.067-1.838 2.464-1.938a169 169 0 0 1 4.899-.28 246 246 0 0 0-1.883 4.488 1.44 1.44 0 0 0 .16 1.393c.544.753 1.798 2.403 3.728 4.448a.51.51 0 0 1 .13.467 334 334 0 0 0-1.652 7.502c-.112.54.037 1.103.503 1.372.495.284 1.056.079 1.426-.352 1.199-1.394 3.13-4.053 5.957-9.08.247-.439.263-.988.005-1.441a38.5 38.5 0 0 0-2.955-4.442" clip-rule="evenodd"/></svg>
