<svg xmlns="http://www.w3.org/2000/svg" fill="none" viewBox="0 0 48 48"><path fill="currentColor" fill-rule="evenodd" d="M19.19 4.52c1.267-.158 3.025-.326 4.808-.326s3.541.168 4.808.327c1.884.236 3.554 1.455 4.231 3.333.712 1.97 1.717 5.398 2.332 10.28.324 2.566-1.498 4.907-4.127 5.139-1.669.147-4.083.287-7.244.287s-5.575-.14-7.244-.287c-2.629-.232-4.45-2.573-4.127-5.139.615-4.882 1.62-8.31 2.332-10.28.678-1.878 2.347-3.097 4.232-3.333m-7.302 23.882c-1.556 0-3.136.148-4.315.296-.51.064-.86.366-.998.747-.617 1.711-1.55 4.854-2.128 9.431-.048.383.199.667.546.698 1.553.137 3.851.271 6.895.271s5.343-.134 6.896-.271c.347-.03.594-.315.546-.698-.577-4.577-1.51-7.72-2.128-9.43-.138-.382-.489-.684-.998-.748-1.18-.148-2.76-.296-4.316-.296m-4.807-3.635c1.266-.158 3.025-.327 4.807-.327s3.542.169 4.808.327c1.884.236 3.554 1.455 4.232 3.333.71 1.971 1.716 5.399 2.332 10.281.323 2.566-1.499 4.907-4.128 5.139-1.668.147-4.083.286-7.244.286s-5.575-.14-7.244-.286C2.016 43.287.194 40.947.517 38.38c.616-4.882 1.62-8.31 2.332-10.28.678-1.878 2.347-3.098 4.232-3.334m29.03 3.634c-1.556 0-3.136.15-4.315.297-.51.064-.86.366-.998.747-.617 1.711-1.55 4.854-2.127 9.431-.049.383.198.667.545.698 1.553.137 3.852.271 6.896.271s5.342-.134 6.895-.271c.347-.03.594-.315.546-.698-.577-4.577-1.51-7.72-2.128-9.43-.138-.382-.488-.684-.998-.748-1.179-.148-2.76-.296-4.315-.296m-4.807-3.634c1.267-.158 3.025-.327 4.808-.327s3.54.169 4.807.327c1.885.236 3.554 1.455 4.232 3.333.711 1.971 1.717 5.399 2.332 10.281.323 2.566-1.499 4.907-4.127 5.139-1.669.147-4.084.286-7.244.286s-5.576-.14-7.244-.286c-2.63-.233-4.451-2.573-4.128-5.139.616-4.882 1.621-8.31 2.332-10.28.678-1.878 2.347-3.098 4.232-3.334" clip-rule="evenodd"/></svg>
