<svg xmlns="http://www.w3.org/2000/svg" fill="none" viewBox="0 0 48 48"><path fill="currentColor" fill-rule="evenodd" d="M21.783 3.987a6.98 6.98 0 0 1 4.434 0c1.997.668 5.656 1.966 10.979 4.136 3.817 1.557 6.537 2.766 8.378 3.628 1.208.565 1.924 1.69 1.924 2.91 0 1.222-.716 2.346-1.924 2.911a171 171 0 0 1-6.895 3.018c.04.969.066 2.07.066 3.31 0 3.1-.158 5.098-.326 6.349-.216 1.608-1.155 3.033-2.645 3.814-1.998 1.049-5.806 2.464-11.748 2.464-5.943 0-9.75-1.415-11.75-2.464-1.49-.781-2.428-2.206-2.644-3.814-.168-1.251-.326-3.25-.326-6.348 0-1.232.025-2.326.065-3.29q-1.027-.426-1.936-.813V34.91a4.95 4.95 0 0 1 2.936 4.52 4.94 4.94 0 0 1-4.936 4.943A4.94 4.94 0 0 1 .5 39.431a4.95 4.95 0 0 1 2.935-4.52V18.04q-.543-.248-1.009-.467C1.22 17.007.502 15.883.502 14.662s.717-2.346 1.924-2.911c1.842-.862 4.561-2.071 8.379-3.628 5.322-2.17 8.981-3.468 10.978-4.136m-8.46 18.225q-.017.791-.017 1.689c0 2.97.152 4.784.29 5.816.052.384.252.654.54.804 1.438.755 4.61 2.006 9.89 2.006s8.451-1.25 9.89-2.006c.287-.15.487-.42.538-.804.139-1.032.291-2.845.291-5.816q0-.91-.018-1.709c-4.002 1.584-6.838 2.584-8.51 3.144a6.98 6.98 0 0 1-4.434 0c-1.664-.557-4.484-1.551-8.46-3.124" clip-rule="evenodd"/></svg>
