<svg xmlns="http://www.w3.org/2000/svg" fill="none" viewBox="0 0 48 48"><path fill="currentColor" fill-rule="evenodd" d="M40.41.524c-1.602-.082-4.152.016-7.961.734-2.33.44-4.143.854-5.53 1.214-1.55.402-2.767 1.521-3.092 3.066-.323 1.542.339 3.054 1.585 4.047a100 100 0 0 0 2.266 1.75 51 51 0 0 1-3.08 5.457q-.42-.325-.915-.705a185 185 0 0 0-5.567-4.122c-1.966-1.39-4.68-1.127-6.321.674C5.695 19.334 2.206 25.825.97 28.346c-.502 1.024-.852 2.72.305 4.16.422.525 1.01 1.093 1.826 1.666.573.403 1.105.7 1.592.918 2.213.988 4.071-.44 4.906-1.587 1.544-2.123 4.57-6.209 6.817-8.817 2.032 1.586 4.509 3.758 6.253 5.326a2 2 0 1 0 2.673-2.976c-2.151-1.933-5.64-4.99-8.037-6.676a2 2 0 0 0-2.585.243c-2.466 2.54-6.577 8.1-8.356 10.547q-.1.135-.187.207l-.009.007a6 6 0 0 1-.766-.464 5.5 5.5 0 0 1-.867-.736l.026-.057c1.134-2.311 4.428-8.448 10.19-14.774a.8.8 0 0 1 1.056-.102 181 181 0 0 1 5.442 4.03 232 232 0 0 1 2.367 1.84l.137.109.045.036a2 2 0 0 0 2.866-.395c2.035-2.818 3.916-6.13 5.342-9.336a2 2 0 0 0-.642-2.423 115 115 0 0 1-3.46-2.635 1 1 0 0 1-.087-.079 1 1 0 0 1 .107-.034c1.29-.335 3.015-.73 5.266-1.155 3.56-.671 5.788-.733 7.015-.67.361.019.618.203.752.518.483 1.132 1.199 3.258 1.803 6.863.378 2.254.603 4.008.736 5.337a1 1 0 0 1 .003.117 1 1 0 0 1-.159-.078 115 115 0 0 1-3.453-2.218 2 2 0 0 0-2.562.293c-.67.71-1.38 1.498-2.111 2.324a2 2 0 0 0 2.996 2.65q.456-.516.89-.998c.819.53 1.53.98 2.147 1.358 1.369.84 3.024.947 4.37.13 1.357-.823 2.02-2.355 1.859-3.975a85 85 0 0 0-.771-5.602c-.646-3.853-1.439-6.293-2.07-7.771A4.81 4.81 0 0 0 40.41.524M36.56 23.5a8 8 0 0 0-5.798 13.513c-2.276 1.291-4.052 3.325-4.962 5.77-.697 1.87.284 4.324 2.625 4.504l.07.005q.026 0 .05.003c1.949.112 4.588.205 7.994.205s6.046-.093 7.994-.205l.122-.008c2.341-.18 3.321-2.634 2.625-4.505-.907-2.435-2.673-4.463-4.937-5.755A8 8 0 0 0 36.56 23.5" clip-rule="evenodd"/></svg>
