<svg xmlns="http://www.w3.org/2000/svg" fill="none" viewBox="0 0 48 48"><path fill="currentColor" fill-rule="evenodd" d="M4.682 21.32Q4.5 22.633 4.499 24c0 4.469 1.503 8.586 4.031 11.875l.378-.063.062-.01.76-.126a51 51 0 0 0 4.237-.894 50 50 0 0 0 5.372-1.711q-.351-.18-.686-.388a59.3 59.3 0 0 1-12.228-9.51 54 54 0 0 1-1.743-1.854m1.265-4.707q.174.222.404.506a47 47 0 0 0 2.924 3.247 55 55 0 0 0 4.544 4.12q-.011-.24-.011-.484c0-6.364 1.06-11.796 2.12-15.64.247-.9.496-1.713.731-2.433A19.57 19.57 0 0 0 5.947 16.613M24 43.5c-4.547 0-8.73-1.556-12.046-4.164a53 53 0 0 0 3.008-.68c3.688-.947 8.563-2.624 14.02-5.76q.27-.15.528-.318a55 55 0 0 1-1.295 5.998 47 47 0 0 1-1.349 4.157 33 33 0 0 1-.23.59Q25.34 43.5 24 43.5M43.5 24q-.001 1.365-.182 2.68a54 54 0 0 0-1.743-1.853 59.3 59.3 0 0 0-12.479-9.657l-.102-.055q-.16-.09-.323-.174a55 55 0 0 1 5.84-1.878 47 47 0 0 1 4.273-.91q.356-.057.633-.096A19.4 19.4 0 0 1 43.5 24m-1.475 7.455.028-.069q-.174-.222-.403-.505a47 47 0 0 0-2.925-3.247 55 55 0 0 0-4.548-4.123 11 11 0 0 1 .014.489 59.3 59.3 0 0 1-2.12 15.64 54 54 0 0 1-.731 2.431 19.57 19.57 0 0 0 10.662-10.56q.01-.029.023-.056M35.976 8.61A19.4 19.4 0 0 0 24 4.5q-1.342 0-2.636.177-.105.257-.232.591a47 47 0 0 0-1.349 4.157 55 55 0 0 0-1.295 6 10 10 0 0 1 .689-.406 59.3 59.3 0 0 1 14.327-5.827 54 54 0 0 1 2.472-.582M.499 24C.499 11.021 11.021.5 23.999.5 36.98.5 47.502 11.021 47.502 24S36.979 47.5 24 47.5.499 36.979.499 24" clip-rule="evenodd"/></svg>
