<svg xmlns="http://www.w3.org/2000/svg" fill="none" viewBox="0 0 48 48"><path fill="currentColor" fill-rule="evenodd" d="M46 5h-2v37.999A2 2 0 0 0 48 43V5.001zm2 0a2 2 0 0 0-4 0h2zM0 5v37.999A2 2 0 0 0 4 43V5.001a2 2 0 0 0-4 0m37.425 17.478c.71 1.024.713 2.251.116 3.114-1.215 1.754-3.027 3.825-5.44 5.739-.351.279-.685.242-.855.14a6 6 0 0 1-.71-.494 2 2 0 0 1-.282-.282l.002-.015c.018-.111.098-.313.283-.52l1.245-1.388a2 2 0 0 0-1.532-3.335c-4.666.1-7.84.1-12.506 0a2 2 0 0 0-1.532 3.335l1.245 1.389c.185.206.265.408.283.519l.002.015a2 2 0 0 1-.281.282 6 6 0 0 1-.71.494c-.17.102-.504.139-.856-.14-2.413-1.914-4.225-3.984-5.44-5.739-.597-.862-.594-2.09.117-3.114 1.257-1.813 2.964-3.9 5.339-5.813.338-.272.668-.24.84-.136.259.156.503.323.71.494q.15.125.281.281l-.002.016c-.018.111-.098.313-.283.52l-1.244 1.388a2 2 0 0 0 1.531 3.334c4.667-.099 7.84-.099 12.506 0a2 2 0 0 0 1.532-3.334L30.54 17.84c-.185-.207-.265-.409-.283-.52l-.003-.016q.132-.157.282-.28c.207-.172.45-.339.71-.495.172-.104.502-.136.84.136 2.374 1.913 4.081 4 5.339 5.813m-2.838 11.987c2.74-2.173 4.818-4.539 6.242-6.596 1.657-2.392 1.429-5.443-.118-7.671-1.405-2.026-3.361-4.428-6.116-6.648-1.46-1.176-3.607-1.535-5.413-.448-.38.23-.796.509-1.194.837-.34.28-.625.58-.865.875-.974 1.198-1.032 2.536-.687 3.686a243 243 0 0 0-4.874 0c.345-1.15.288-2.488-.687-3.686a6.3 6.3 0 0 0-.865-.875 10 10 0 0 0-1.194-.837c-1.805-1.087-3.953-.728-5.413.448-2.755 2.22-4.71 4.622-6.116 6.647-1.546 2.23-1.775 5.28-.118 7.672 1.424 2.057 3.502 4.422 6.242 6.596 1.457 1.155 3.597 1.521 5.405.433.38-.23.796-.509 1.194-.838.34-.28.626-.58.866-.875.974-1.198 1.031-2.536.686-3.686 1.658.017 3.217.017 4.874 0-.345 1.15-.288 2.489.687 3.686.24.295.526.595.865.875.398.33.814.608 1.195.838 1.807 1.088 3.947.722 5.404-.433" clip-rule="evenodd"/></svg>
