<svg xmlns="http://www.w3.org/2000/svg" fill="none" viewBox="0 0 48 48"><path fill="currentColor" fill-rule="evenodd" d="M22.309 10.101a.6.6 0 0 1 .201-.095.6.6 0 0 1 .045.197c.078.978.153 2.239.208 3.846a2 2 0 0 0 1.801 1.922c2.493.247 5.092.36 7.513.4 5.263.084 9.693 3.655 10.224 8.523.434 3.977.766 8.545.686 12.77a.5.5 0 0 1-.062.26 10 10 0 0 1-1.234.075c-.503 0-.926-.034-1.268-.08a.4.4 0 0 1-.238-.133 1.36 1.36 0 0 1-.307-.569l-2.76-9.432c-.856-2.927-3.401-5.28-6.718-5.325a46 46 0 0 0-5.847.302 2 2 0 0 0-1.771 1.929 88 88 0 0 1-.228 4.45.6.6 0 0 1-.044.196.6.6 0 0 1-.2-.095c-1.296-.875-3.09-2.17-5.439-4.044-2.862-2.282-4.444-3.949-5.289-4.994-.28-.348-.28-.718 0-1.066.845-1.045 2.426-2.711 5.29-4.994 2.347-1.872 4.142-3.167 5.437-4.043m4.233-.218c-.124-1.534-.96-2.861-2.309-3.502-1.345-.638-2.898-.45-4.164.406a75 75 0 0 0-2.811 2.005c-.216-1.034-.845-1.858-1.743-2.258-1.047-.466-2.276-.276-3.284.519-1.247.983-2.882 2.356-4.946 4.246-3.033 2.778-4.7 4.838-5.604 6.182a3.87 3.87 0 0 0 0 4.384c.904 1.344 2.571 3.404 5.604 6.182 2.064 1.89 3.7 3.264 4.947 4.247 1.008.795 2.236.985 3.283.519.899-.401 1.528-1.226 1.743-2.261a75 75 0 0 0 2.812 2.005c1.266.855 2.818 1.044 4.163.405 1.35-.64 2.185-1.968 2.308-3.5.064-.796.125-1.75.175-2.888a41 41 0 0 1 3.63-.115c1.3.018 2.493.945 2.933 2.45l2.76 9.432c.458 1.562 1.707 3.253 3.848 3.542.519.07 1.12.116 1.804.116.68 0 1.277-.045 1.793-.115 2.302-.309 3.468-2.33 3.502-4.144.085-4.461-.265-9.215-.709-13.28-.788-7.227-7.234-11.978-14.136-12.089a96 96 0 0 1-5.455-.232 76 76 0 0 0-.144-2.256" clip-rule="evenodd"/></svg>
