<svg xmlns="http://www.w3.org/2000/svg" fill="none" viewBox="0 0 48 48"><path fill="currentColor" fill-rule="evenodd" d="M24 1c-1.344 0-2.466.098-3.32.214-1.771.238-3.16 1.377-3.9 2.83-.56 1.098-1.334 2.715-1.847 4.202-3.508.21-6.073.522-7.887.82-3.096.51-5.16 3.032-5.45 5.974-.844 8.588-.844 16.332 0 24.92.29 2.942 2.354 5.464 5.45 5.974C10.16 46.447 15.488 47 24.001 47s13.841-.553 16.954-1.066c3.097-.51 5.161-3.032 5.45-5.974.845-8.588.845-16.332 0-24.92-.289-2.942-2.353-5.464-5.45-5.974-1.814-.299-4.38-.611-7.89-.82-.513-1.487-1.288-3.104-1.847-4.202-.74-1.453-2.129-2.592-3.899-2.83A25 25 0 0 0 23.999 1m4.697 7.06a40 40 0 0 0-1.043-2.201c-.217-.425-.552-.638-.87-.681A21 21 0 0 0 24 5c-1.148 0-2.091.084-2.785.178-.318.043-.653.256-.87.68a41 41 0 0 0-1.043 2.203c1.446-.04 3.01-.061 4.7-.061 1.688 0 3.25.022 4.696.06M24.001 12c-8.346 0-13.452.543-16.304 1.013-1.134.187-1.99 1.095-2.12 2.419-.819 8.327-.819 15.809 0 24.136.13 1.324.986 2.232 2.12 2.419C10.549 42.457 15.655 43 24 43s13.451-.543 16.304-1.013c1.133-.187 1.99-1.095 2.12-2.419.819-8.327.819-15.809 0-24.136-.13-1.324-.987-2.232-2.12-2.419C37.452 12.543 32.347 12 24.001 12M24 16.5c-1 0-1.807.064-2.435.15-1.513.204-2.396 1.498-2.445 2.835-.027.74-.057 1.75-.08 3.055-1.305.023-2.315.053-3.055.08-1.337.049-2.631.932-2.836 2.445A18 18 0 0 0 13 27.5c0 1 .064 1.807.15 2.435.204 1.513 1.498 2.396 2.835 2.445.74.027 1.75.057 3.055.08.023 1.305.053 2.315.08 3.055.049 1.338.932 2.631 2.445 2.836.628.085 1.434.149 2.435.149 1 0 1.807-.064 2.435-.15 1.513-.204 2.396-1.498 2.445-2.835.027-.74.057-1.75.08-3.055 1.305-.023 2.315-.053 3.055-.08 1.338-.049 2.631-.932 2.836-2.445.085-.628.149-1.434.149-2.435 0-1-.064-1.807-.15-2.435-.204-1.513-1.498-2.396-2.835-2.445-.74-.027-1.75-.057-3.055-.08a164 164 0 0 0-.08-3.055c-.049-1.337-.932-2.631-2.445-2.836A18 18 0 0 0 24 16.5" clip-rule="evenodd"/></svg>
