<svg xmlns="http://www.w3.org/2000/svg" fill="none" viewBox="0 0 48 48"><path fill="currentColor" fill-rule="evenodd" d="M17.976 10.5c-3.314 0-5.572 1.323-7.108 3.34-1.371 1.8-2.111 4.103-2.715 5.985l-.05.153c-.605 1.883-1.096 3.355-1.834 4.426-.638.925-1.412 1.484-2.763 1.567a3.25 3.25 0 0 0-2.554 1.523c-.55.888-.704 2.2.147 3.306 3.236 4.206 7.627 6.7 13.877 6.7 2.926 0 5.313-1.362 7.104-3.249A15 15 0 0 0 24 31.714a15 15 0 0 0 1.92 2.537c1.791 1.887 4.178 3.249 7.104 3.249 6.25 0 10.64-2.494 13.877-6.7.85-1.105.697-2.418.147-3.306a3.25 3.25 0 0 0-2.554-1.523c-1.35-.083-2.125-.642-2.763-1.567-.739-1.071-1.23-2.543-1.835-4.426l-.049-.153c-.604-1.882-1.344-4.185-2.715-5.985-1.536-2.017-3.794-3.34-7.108-3.34-1.872 0-3.488.327-4.832 1.04q-.657.35-1.192.796a7 7 0 0 0-1.192-.795c-1.344-.714-2.96-1.041-4.832-1.041m-6.064 10.702c.666-2.074 1.225-3.74 2.138-4.939.786-1.032 1.872-1.763 3.926-1.763 1.423 0 2.348.25 2.957.574.581.308.985.74 1.288 1.33a2 2 0 0 0 3.558 0c.303-.59.707-1.022 1.288-1.33.61-.323 1.534-.574 2.957-.574 2.054 0 3.14.73 3.926 1.763.913 1.2 1.471 2.865 2.138 4.939l.046.142c.547 1.702 1.196 3.723 2.303 5.33.97 1.406 2.303 2.522 4.148 3.022-2.345 2.435-5.326 3.804-9.56 3.804-1.578 0-2.974-.707-4.205-2.003-1.251-1.318-2.254-3.18-2.92-5.212a2 2 0 0 0-3.8 0c-.666 2.033-1.669 3.894-2.92 5.212-1.23 1.296-2.627 2.003-4.204 2.003-4.235 0-7.216-1.37-9.561-3.804 1.845-.5 3.178-1.616 4.147-3.022 1.108-1.606 1.757-3.628 2.304-5.33z" clip-rule="evenodd"/></svg>
