<svg xmlns="http://www.w3.org/2000/svg" fill="none" viewBox="0 0 48 48"><path fill="currentColor" fill-rule="evenodd" d="M25.925.5C22.9.5 20.527 1.744 18.95 3.678c-1.537 1.884-2.235 4.31-2.235 6.64 0 1.628.163 3.266.664 4.885l-.611.335c-1.662.916-3.51 2.006-4.91 3.632-1.473 1.707-2.357 3.886-2.357 6.783 0 4.121 1.92 7.273 4.806 9.328q.8.567 1.683 1.022c-.833 1.07-1.2 2.414-1.2 3.822 0 1.742.687 3.638 2.276 5.083 1.595 1.45 3.921 2.292 6.936 2.292 3.899 0 6.71-2.026 8.182-4.702 1.193-2.17 1.526-4.812.845-7.143q.675-.451 1.279-.964c2.496-2.114 4.193-5.077 4.193-8.245 0-3.775-2.368-7.037-5.913-8.505.416-.596.783-1.224 1.1-1.86.898-1.805 1.474-3.86 1.474-5.764 0-2.748-.682-5.248-2.328-7.078C31.156 1.374 28.747.5 25.925.5m2.64 20.616q.064.005.13.005c3.618.163 5.805 2.736 5.805 5.325 0 1.718-.947 3.642-2.778 5.192-1.81 1.533-4.36 2.58-7.241 2.58-3.06 0-5.87-.783-7.855-2.196-1.921-1.368-3.126-3.348-3.126-6.069 0-1.988.572-3.227 1.386-4.172.886-1.028 2.154-1.826 3.811-2.74q.406-.222.837-.454h.001c3.044-1.641 6.977-3.761 8.746-8.555a2 2 0 1 0-3.753-1.384c-.741 2.009-1.99 3.324-3.567 4.435-.175-.861-.247-1.776-.247-2.766 0-1.58.48-3.062 1.334-4.11.814-.997 2.046-1.707 3.877-1.707 1.987 0 3.195.592 3.933 1.413.77.857 1.302 2.266 1.302 4.404 0 1.153-.367 2.6-1.055 3.982-.575 1.156-1.31 2.141-2.084 2.817-5.398.127-9.385 3.58-9.385 7.864 0 3.678 2.953 5.91 5.845 5.91 1.282 0 2.385-.303 3.29-.873a5.2 5.2 0 0 0 1.855-2.045c.703-1.368.702-2.739.702-2.988v-.008a2 2 0 0 0-4 0c0 .11-.01.68-.26 1.169-.11.213-.246.372-.429.487-.177.112-.517.257-1.158.257-.953 0-1.845-.701-1.845-1.909 0-1.5 1.63-3.867 5.692-3.867q.12 0 .237.003m-2.35 17.007c1.083-.12 2.126-.35 3.115-.672a5.63 5.63 0 0 1-.652 3.42C27.865 42.35 26.35 43.5 24 43.5c-2.275 0-3.556-.625-4.245-1.251-.694-.632-.968-1.423-.968-2.124 0-.83.238-1.256.447-1.468.206-.209.608-.441 1.4-.441.587 0 .93.109 1.12.203.186.092.304.205.393.331.215.304.298.716.346 1.122a2 2 0 1 0 3.972-.472 7.5 7.5 0 0 0-.25-1.277" clip-rule="evenodd"/></svg>
