<svg xmlns="http://www.w3.org/2000/svg" fill="none" viewBox="0 0 48 48"><path fill="currentColor" fill-rule="evenodd" d="M19.547 4.797c-.25.098-.598.354-.95.8-.397.504-.53.941-.539 1.253-.007.275.077.6.43.978 2.79 2.982 5.15 7.026 5.971 8.498 1.1 1.97-.935 3.838-2.716 3.214-3.214-1.125-6.382-1.135-9.256.276a1.75 1.75 0 0 0-.742 2.467c.38.645.755.946 1.074 1.085.306.134.765.208 1.496.017 2.068-.54 4.095-.481 5.88.248 1.798.735 3.208 2.092 4.105 3.883 1.269 2.532.234 5.4-1.814 6.89-2.254 1.637-4.84 1.78-7.04.818-2.141-.936-3.823-2.866-4.606-5.241-.228-.693-.497-.887-.612-.947-.123-.063-.43-.157-1.076.03-.699.204-1.28.991-1.13 2.08.65 4.739 2.99 7.983 6.288 10.035 2.125 1.323 5.674 2.037 9.57 2.068 3.857.03 7.644-.61 10.084-1.638 1.944-.818 3.49-2.927 4.559-5.827 1.045-2.838 1.476-6.03 1.476-8.332 0-10.22-2.939-18.716-5.904-22.358-.148-.182-.337-.277-.608-.293a1.7 1.7 0 0 0-.977.272c-.551.352-.733.668-.801.894-.074.242-.098.657.16 1.336.676 1.785 1.017 3.7 1.17 4.765.343 2.376-2.631 3.435-3.983 1.68-2.182-2.834-5.4-6.799-9.038-8.91a.54.54 0 0 0-.243-.088.5.5 0 0 0-.228.047m-1.461-3.724a4.44 4.44 0 0 1 3.94.305c2.077 1.206 3.985 2.862 5.646 4.566q.039-.57.208-1.135c.401-1.328 1.303-2.357 2.474-3.106 1.801-1.152 4.898-1.524 6.843.866C40.947 7.175 44 16.698 44 27.452c0 2.704-.492 6.373-1.723 9.715-1.209 3.28-3.291 6.67-6.76 8.13-3.09 1.303-7.459 1.985-11.669 1.952-4.171-.034-8.6-.773-11.651-2.672-4.303-2.678-7.324-6.964-8.137-12.886-.37-2.694 1.043-5.61 3.975-6.465q.373-.108.753-.176a8 8 0 0 1-.49-.738 5.75 5.75 0 0 1 2.427-8.086c2.642-1.298 5.405-1.694 8.124-1.418-.94-1.411-2.077-2.96-3.281-4.247-1.022-1.092-1.542-2.418-1.507-3.811.033-1.356.587-2.603 1.397-3.63.625-.793 1.508-1.607 2.629-2.047m-4 26.402c.225.392.408.814.553 1.256.461 1.399 1.406 2.39 2.41 2.828.946.414 2.022.384 3.085-.39.707-.513.854-1.333.59-1.861-.496-.99-1.205-1.63-2.042-1.972-.85-.347-1.972-.443-3.355-.08q-.624.163-1.24.219" clip-rule="evenodd"/></svg>
