<svg xmlns="http://www.w3.org/2000/svg" fill="none" viewBox="0 0 48 48"><path fill="currentColor" fill-rule="evenodd" d="M44.492 3.506c-1.29-1.287-3.083-2.308-4.983-2.765-1.903-.458-4.134-.392-6.069.841l-14.322 9.132c-1.333.85-2.444 2.082-3.08 3.62a47 47 0 0 0-1.588 4.401c-.445 1.489-.843 3.176-.91 4.708-5.192.402-8.145 2.324-9.814 4.963-1.831 2.895-2.038 6.55-2.209 9.555l-.003.063c-.099 1.736-.186 3.222-.516 4.328-.038.126-.085.269-.134.42-.097.294-.204.62-.274.919-.114.482-.172 1.024-.007 1.582.22.74.637 1.323 1.28 1.71.629.376 1.424.537 2.36.537 5.99 0 11.084-.578 14.684-2.791 3.236-1.99 5.188-5.249 5.598-10.33 1.494-.064 3.152-.428 4.631-.84a50 50 0 0 0 4.419-1.485c1.636-.63 2.951-1.79 3.842-3.202l9.032-14.317c1.22-1.934 1.287-4.16.83-6.063-.455-1.9-1.474-3.695-2.767-4.986M24.356 30.173c.985-.045 2.263-.302 3.643-.687a46 46 0 0 0 4.035-1.357c.712-.275 1.337-.8 1.787-1.513l9.032-14.317c.443-.703.569-1.678.295-2.822-.275-1.147-.91-2.246-1.643-2.979-.736-.734-1.837-1.37-2.985-1.646-1.143-.275-2.11-.148-2.807.296L21.391 14.28c-.675.43-1.174 1.013-1.448 1.672a43 43 0 0 0-1.442 3.996c-.413 1.38-.688 2.66-.736 3.647 1.5.419 2.94 1.337 4.094 2.488s2.077 2.589 2.497 4.09" clip-rule="evenodd"/></svg>
