<svg xmlns="http://www.w3.org/2000/svg" fill="none" viewBox="0 0 48 48"><path fill="currentColor" fill-rule="evenodd" d="M26.306 4.636a19.6 19.6 0 0 0-4.644.004 2 2 0 0 1-.476-3.972 23.6 23.6 0 0 1 5.59-.004 2 2 0 0 1-.47 3.972m-9.993 1.437a2 2 0 1 0-1.575-3.677 23.4 23.4 0 0 0-4.815 2.783 2 2 0 0 0 2.4 3.2 19.4 19.4 0 0 1 3.99-2.306M38.077 42.82a2 2 0 1 0-2.4-3.2 19.4 19.4 0 0 1-4.018 2.318 2 2 0 1 0 1.57 3.68 23.4 23.4 0 0 0 4.848-2.798M40.02 9.523a2 2 0 0 1 2.8.4 23.4 23.4 0 0 1 2.782 4.814 2 2 0 1 1-3.676 1.575 19.4 19.4 0 0 0-2.306-3.99 2 2 0 0 1 .4-2.8M6.061 31.66a2 2 0 0 0-3.68 1.569 23.4 23.4 0 0 0 2.798 4.848 2 2 0 1 0 3.2-2.4 19.4 19.4 0 0 1-2.318-4.017M2.885 19.473a2 2 0 0 1 1.751 2.221 19.6 19.6 0 0 0 0 4.613 2 2 0 0 1-3.972.47 23.6 23.6 0 0 1 0-5.553 2 2 0 0 1 2.221-1.751m5.495-7.15a2 2 0 0 0-3.2-2.4 23.4 23.4 0 0 0-2.77 4.78 2 2 0 0 0 3.675 1.581 19.4 19.4 0 0 1 2.295-3.961m36.173 18.313a2 2 0 0 1 1.05 2.626 23.4 23.4 0 0 1-2.782 4.815 2 2 0 0 1-3.2-2.4 19.4 19.4 0 0 0 2.306-3.99 2 2 0 0 1 2.626-1.05m2.779-9.448a2 2 0 0 0-3.972.476 19.6 19.6 0 0 1 0 4.674 2 2 0 1 0 3.972.477 23.6 23.6 0 0 0 0-5.627M33.298 2.41a2 2 0 1 0-1.582 3.674 19.4 19.4 0 0 1 3.961 2.294 2 2 0 1 0 2.4-3.2 23.4 23.4 0 0 0-4.78-2.768M9.523 40.02a2 2 0 0 1 2.8-.4 19.4 19.4 0 0 0 3.989 2.306 2 2 0 1 1-1.576 3.676 23.4 23.4 0 0 1-4.813-2.782 2 2 0 0 1-.4-2.8m12.14 3.339a2 2 0 0 0-.476 3.972c1.856.222 3.734.224 5.59.004a2 2 0 0 0-.47-3.972 19.6 19.6 0 0 1-4.644-.004" clip-rule="evenodd"/></svg>
