<svg xmlns="http://www.w3.org/2000/svg" fill="none" viewBox="0 0 48 48"><path fill="currentColor" fill-rule="evenodd" d="M12.787 1.962c1.834-.216 4.716-.416 9.213-.462v15.127c-6.011.03-10.481.193-13.42.345a6.3 6.3 0 0 0-2.463.634c-.442 1.493-.617 3.105-.617 4.788v8.924c0 3.493.173 6.226.368 8.204.143 1.442 1.305 2.55 2.899 2.632 3.197.165 8.27.345 15.233.345 6.962 0 12.036-.18 15.233-.345 1.594-.083 2.756-1.19 2.899-2.632.196-1.978.368-4.71.368-8.204v-8.924c0-1.683-.175-3.295-.617-4.789a6.3 6.3 0 0 0-2.461-.633c-2.94-.152-7.41-.315-13.422-.345V1.5c4.497.046 7.379.246 9.213.462 2.538.298 4.455 1.883 5.585 3.893 1.254 2.229 3.118 5.77 4.521 9.434.893 2.332 1.18 4.772 1.18 7.105l.001 8.924c0 3.625-.179 6.49-.388 8.598-.352 3.555-3.252 6.055-6.672 6.232-3.266.17-8.409.351-15.44.351s-12.173-.181-15.44-.35c-3.42-.178-6.32-2.678-6.672-6.233-.209-2.108-.388-4.973-.388-8.598v-8.924c0-2.333.288-4.773 1.18-7.105 1.404-3.664 3.268-7.205 4.522-9.434 1.13-2.01 3.047-3.595 5.585-3.893m9.386 19.913c1.108-.833 2.55-.833 3.657 0 .863.649 2.077 1.726 3.643 3.499a63 63 0 0 1 2.375 2.837c.633.809.784 1.785.408 2.613-.376.827-1.21 1.357-2.232 1.417-.546.032-1.179.061-1.912.085a368 368 0 0 1-.207 4.236c-.068 1.258-.897 2.476-2.29 2.692-.47.073-1.017.127-1.614.127-.596 0-1.143-.054-1.612-.127-1.392-.216-2.22-1.433-2.289-2.689-.06-1.1-.14-2.644-.208-4.24a73 73 0 0 1-1.914-.084c-1.023-.06-1.857-.59-2.232-1.417s-.225-1.804.408-2.612a63 63 0 0 1 2.376-2.838c1.566-1.773 2.78-2.85 3.643-3.5" clip-rule="evenodd"/></svg>
