<svg xmlns="http://www.w3.org/2000/svg" fill="none" viewBox="0 0 48 48"><path fill="currentColor" fill-rule="evenodd" d="M4.75 24C4.75 13.369 13.369 4.75 24 4.75S43.25 13.369 43.25 24 34.632 43.25 24 43.25 4.75 34.632 4.75 24M24 .75C11.16.75.75 11.16.75 24S11.16 47.25 24 47.25 47.25 36.84 47.25 24 36.84.75 24 .75M13 15.5a2.5 2.5 0 0 0 0 5h6a2.5 2.5 0 0 0 0-5zm3 14a2.5 2.5 0 0 0 0 5h16a2.5 2.5 0 0 0 0-5zM26.5 18a2.5 2.5 0 0 1 2.5-2.5h6a2.5 2.5 0 0 1 0 5h-6a2.5 2.5 0 0 1-2.5-2.5" clip-rule="evenodd"/></svg>
