<svg xmlns="http://www.w3.org/2000/svg" fill="none" viewBox="0 0 48 48"><path fill="currentColor" fill-rule="evenodd" d="m9.623 2.576-.03.051-.01.019-.09.152q-.114.199-.322.573a70 70 0 0 0-1.14 2.145 95 95 0 0 0-3.492 7.707c-.812 2.026-.718 4.325.348 6.279a76 76 0 0 0 4.348 7.02 15.7 15.7 0 0 0-.917 5.297C8.318 40.479 15.34 47.5 24 47.5s15.682-7.02 15.682-15.682c0-1.858-.324-3.641-.917-5.295a76 76 0 0 0 4.348-7.021c1.065-1.954 1.16-4.253.348-6.28a95 95 0 0 0-3.493-7.706 70 70 0 0 0-1.462-2.718l-.088-.152-.006-.01-.035-.06a2 2 0 0 0-1.325-.93C29.33.118 18.678.118 10.948 1.646a2 2 0 0 0-1.325.93M36.637 22.53a72 72 0 0 0 2.964-4.944 3.37 3.37 0 0 0 .147-2.876 91 91 0 0 0-3.168-7.033q-.394.654-.861 1.42a313 313 0 0 1-5.31 8.404 15.74 15.74 0 0 1 6.228 5.029m-10.238-6.212c.846-1.28 1.65-2.519 2.4-3.693A52 52 0 0 0 24 12.404c-1.805 0-3.424.093-4.8.222a297 297 0 0 0 2.401 3.693 15.8 15.8 0 0 1 4.798 0m-8.808 1.183a313 313 0 0 1-6.17-9.824 91 91 0 0 0-3.17 7.033 3.37 3.37 0 0 0 .148 2.876 72 72 0 0 0 2.964 4.944 15.74 15.74 0 0 1 6.228-5.03M24 20.137c-6.452 0-11.682 5.23-11.682 11.681C12.318 38.27 17.548 43.5 24 43.5s11.682-5.23 11.682-11.682c0-6.451-5.23-11.681-11.682-11.681m1.528 3.768c-.642-1.238-2.414-1.238-3.056 0l-1.686 3.25-3.567.703c-1.311.258-1.841 1.846-.948 2.84l2.543 2.828-.467 3.79c-.169 1.362 1.248 2.364 2.477 1.75L24 37.483l3.176 1.585c1.228.613 2.645-.389 2.477-1.752l-.467-3.789 2.543-2.828c.893-.994.363-2.582-.948-2.84l-3.567-.702z" clip-rule="evenodd"/></svg>
