<svg xmlns="http://www.w3.org/2000/svg" fill="none" viewBox="0 0 48 48"><path fill="currentColor" fill-rule="evenodd" d="M29.626 4.425a2.24 2.24 0 0 1 2.227-1.923q1.624.002 3.029.03c6.784.127 11.96 5.303 12.088 12.088q.026 1.388.03 2.993 0 .065-.004.13.004.06.004.122c0 2.987-.497 5.8-1.065 8.047-1.052 4.164-4.592 6.88-8.777 7.116-2.046.116-4.777.2-8.386.2s-6.34-.084-8.386-.2c-4.184-.236-7.724-2.951-8.777-7.116-.554-2.193-1.04-4.924-1.063-7.831C9.5 13.287 7.96 9.01 7.252 7.163a.4.4 0 0 0-.092-.15c-.756-.218-2.14-.51-4.16-.51a2 2 0 1 1 0-4c2.42 0 4.183.352 5.286.673 1.368.399 2.273 1.443 2.7 2.555a84 84 0 0 1 3.156 10.135h14.563c.13-5.667.769-10.385.92-11.44m1.272 15.44h-16.27c.149 1.834.48 3.57.86 5.067.598 2.37 2.58 3.959 5.124 4.102 1.958.111 4.613.195 8.16.195 3.548 0 6.202-.084 8.16-.195 2.544-.143 4.526-1.732 5.125-4.102.378-1.497.71-3.232.86-5.066H30.93zM19.704 34.908a5.296 5.296 0 1 1 0 10.59 5.296 5.296 0 0 1 0-10.59m12.84 5.295a5.296 5.296 0 1 1 10.592 0 5.296 5.296 0 0 1-10.591 0" clip-rule="evenodd"/></svg>
