<svg xmlns="http://www.w3.org/2000/svg" fill="none" viewBox="0 0 48 48"><path fill="currentColor" fill-rule="evenodd" d="M24.586 4.246a2 2 0 0 0-3.129-2.492c-2.558 3.21-3.258 6.389-2.925 9.484.312 2.895 1.53 5.652 2.6 8.072l.06.135c1.14 2.577 2.103 4.8 2.341 7.017.223 2.07-.188 4.195-2.076 6.564a2 2 0 0 0 3.129 2.492c2.558-3.21 3.258-6.389 2.925-9.484-.312-2.895-1.53-5.652-2.6-8.072l-.06-.135c-1.14-2.577-2.103-4.8-2.342-7.017-.222-2.07.19-4.195 2.077-6.564M14.93 7.991a2 2 0 0 0-3.364-2.163c-3.426 5.328-1.678 10.278-.275 14.25l.07.2c1.482 4.197 2.51 7.373.205 10.958a2 2 0 0 0 3.364 2.163c3.426-5.329 1.678-10.279.275-14.251l-.071-.2c-1.48-4.197-2.508-7.373-.204-10.957m19.545 0a2 2 0 0 0-3.364-2.163c-3.426 5.328-1.678 10.278-.275 14.25l.07.2c1.482 4.197 2.51 7.373.205 10.958a2 2 0 0 0 3.364 2.163c3.426-5.329 1.678-10.279.275-14.251l-.071-.2c-1.48-4.197-2.508-7.373-.204-10.957m4.544 21.083a1 1 0 0 1 1.277-.343c3.59 1.78 6.202 4.352 6.202 7.497 0 3.332-2.926 6.022-6.883 7.821-4.048 1.84-9.57 2.952-15.617 2.952-6.046 0-11.568-1.112-15.616-2.952C4.425 42.25 1.5 39.56 1.5 36.229c0-3.146 2.612-5.718 6.202-7.498A1 1 0 0 1 8.8 30.384c-.986.852-1.391 1.678-1.391 2.423 0 .664.319 1.386 1.084 2.14.77.758 1.933 1.487 3.453 2.12 3.034 1.264 7.295 2.07 12.054 2.07 4.758 0 9.019-.806 12.053-2.07 1.52-.633 2.684-1.362 3.453-2.12.765-.754 1.084-1.476 1.084-2.14 0-.745-.405-1.571-1.391-2.423a1 1 0 0 1-.18-1.31" clip-rule="evenodd"/></svg>
