<svg xmlns="http://www.w3.org/2000/svg" fill="none" viewBox="0 0 48 48"><path fill="currentColor" fill-rule="evenodd" d="M4.796 30.969c-.384-.563-.339-1.041-.174-1.363.173-.336.58-.692 1.305-.74 1.714-.114 3.934-.218 6.768-.277a2 2 0 0 0 1.957-2v-5.832c0-8.805 6.49-16.007 14.992-16.007 7.899 0 13.856 6.651 13.856 14.875v.99c0 .394-.105.729-.245.952-.13.206-.273.3-.427.342-1.423.38-3.027.396-4.298.022-.07-.02-.155-.065-.25-.229-.108-.185-.196-.48-.196-.84 0-4.633-2.99-9.168-8.294-9.186h-.146c-5.316 0-8.24 4.514-8.24 9.127v5.785a2 2 0 0 0 1.96 2c2.86.059 5.099.163 6.823.277.726.049 1.132.405 1.305.741.165.322.21.8-.173 1.363-2.95 4.315-7.266 8.858-11.453 11.718-1.098.75-2.52.75-3.617 0-4.187-2.86-8.504-7.403-11.453-11.718m.866-6.095c-2.045.136-3.747 1.247-4.598 2.905-.859 1.673-.753 3.716.43 5.447 3.18 4.653 7.834 9.578 12.498 12.764a7.19 7.19 0 0 0 8.13 0c4.664-3.186 9.319-8.11 12.5-12.764 1.181-1.73 1.287-3.774.429-5.446-.852-1.659-2.554-2.77-4.598-2.906-1.37-.09-3.038-.174-5.048-.236v-3.835c0-3.139 1.801-5.126 4.237-5.128h.136c2.457.01 4.306 2.056 4.306 5.186 0 1.792.867 4.187 3.317 4.908 2.075.61 4.433.544 6.457.005 2.564-.683 3.642-3.135 3.642-5.159v-.99C47.5 9.525 40.07.75 29.644.75c-11.007 0-18.992 9.302-18.992 20.007v3.883c-1.984.061-3.633.144-4.99.234" clip-rule="evenodd"/></svg>
