<svg xmlns="http://www.w3.org/2000/svg" fill="none" viewBox="0 0 48 48"><path fill="currentColor" fill-rule="evenodd" d="M14.606 4.938C16.216 4.728 19.1 4.5 24 4.5s7.783.228 9.393.438c.583.077.89.408.965.877.177 1.107.347 2.857.347 5.48s-.17 4.373-.347 5.48c-.075.469-.382.8-.965.877-1.61.21-4.492.439-9.393.439-4.9 0-7.783-.229-9.393-.44-.583-.075-.89-.407-.964-.876-.177-1.107-.347-2.856-.347-5.48 0-2.623.17-4.373.347-5.48.074-.469.381-.8.964-.877M24 .5c-5.012 0-8.077.232-9.911.472-2.226.29-4.024 1.884-4.396 4.212-.217 1.355-.397 3.32-.397 6.111s.18 4.756.397 6.111c.372 2.328 2.17 3.921 4.396 4.212 1.576.206 4.062.407 7.911.46v2.379c-10.628.027-14.651.273-16.107.413q-.07.008-.158.014c-.36.032-.92.082-1.453.219-.666.17-1.635.556-2.444 1.442C.994 27.47.5 28.747.5 30.364l-.001 3.41c0 3.74.083 7.245.145 9.333.056 1.896 1.31 4.061 3.754 4.335.383.043 1.26.06 1.533.06.274 0 1.151-.017 1.534-.06 2.443-.274 3.698-2.44 3.754-4.335.061-2.088.145-5.593.145-9.333h-4c0 3.687-.082 7.149-.144 9.215a.75.75 0 0 1-.131.426.2.2 0 0 1-.048.046q0 .002-.02.006l-.017.001-.02.002-.117.007-.334.013c-.248.007-.489.011-.602.011a23 23 0 0 1-1.088-.034q-.021-.003-.021-.005a.2.2 0 0 1-.048-.047.75.75 0 0 1-.132-.426 322 322 0 0 1-.143-9.215h39.003c0 3.687-.083 7.149-.144 9.215a.75.75 0 0 1-.132.426.2.2 0 0 1-.047.046q0 .002-.022.006s-.045.004-.153.01l-.333.013a26 26 0 0 1-.602.011c-.751 0-.939-.017-1.088-.034-.017-.002-.02-.005-.022-.006a.2.2 0 0 1-.047-.046.75.75 0 0 1-.132-.426 322 322 0 0 1-.143-9.215h-4c0 3.74.083 7.245.145 9.333.056 1.896 1.31 4.061 3.754 4.335.366.041.724.06 1.533.06.274 0 1.15-.017 1.534-.06 2.443-.274 3.697-2.44 3.754-4.335.061-2.088.145-5.593.145-9.333l-.001-3.41c0-1.723-.54-3.06-1.443-4-.862-.9-1.877-1.256-2.53-1.401-.445-.099-.907-.134-1.196-.156h-.003q-.068-.004-.12-.01c-1.315-.108-5.23-.317-16.209-.34v-2.379c3.85-.052 6.336-.253 7.912-.459 2.225-.29 4.024-1.884 4.396-4.212.216-1.355.397-3.32.397-6.11 0-2.792-.18-4.757-.397-6.112-.372-2.328-2.17-3.921-4.396-4.212C32.077.732 29.01.5 23.999.5" clip-rule="evenodd"/></svg>
