<svg xmlns="http://www.w3.org/2000/svg" fill="none" viewBox="0 0 48 48"><path fill="currentColor" fill-rule="evenodd" d="M5.116 1.068a2.177 2.177 0 0 1 2.933 0c.822.743 1.59 1.839 2.25 2.973a29 29 0 0 1 1.718 3.524c.544 1.333-.48 2.685-1.832 2.685H8.832v5a2.25 2.25 0 0 1-4.5 0v-5H2.98c-1.35 0-2.375-1.353-1.83-2.686a29 29 0 0 1 1.717-3.523c.66-1.134 1.428-2.23 2.25-2.973m5.07 26.182H8.833v-5a2.25 2.25 0 0 0-4.5 0v5H2.98c-1.351 0-2.375 1.352-1.831 2.685a29 29 0 0 0 1.717 3.524c.66 1.134 1.428 2.23 2.25 2.972a2.177 2.177 0 0 0 2.934 0c.821-.743 1.59-1.838 2.25-2.972a29 29 0 0 0 1.717-3.524c.544-1.333-.48-2.685-1.831-2.685m12.71-13.258c-1.458-1.886-4.165-3.24-6.881-2.042a11.3 11.3 0 0 0-1.673.913c-2.88 1.917-2.774 5.53-1.446 7.858 1.478 2.592 3.756 6.584 6.076 10.642-3.088-.335-6.07 1.978-5.914 5.418.035.764.143 1.598.383 2.442.487 1.72 1.79 2.825 3.007 3.453 2.11 1.09 6.343 3.084 11.376 4.42 1.976.525 4.171.602 6.277-.162 1.365-.496 3.157-1.283 5.289-2.525a57 57 0 0 0 3.47-2.187 9.44 9.44 0 0 0 4.012-9.354 45.6 45.6 0 0 0-2.515-9.104c-1.395-3.574-5.049-5.716-8.892-4.939-2.993.606-5.755 1.527-7.4 2.13-1.396-2.045-3.65-5-5.168-6.963M17.63 15.61c.529-.233 1.393-.09 2.104.83 1.925 2.488 4.722 6.177 5.705 7.81a2.255 2.255 0 0 0 2.778.931c.83-.336 4.261-1.67 8.042-2.435 1.846-.373 3.65.621 4.373 2.473a41.6 41.6 0 0 1 2.294 8.297 5.44 5.44 0 0 1-2.32 5.403 53 53 0 0 1-3.229 2.034c-1.923 1.12-3.498 1.806-4.64 2.22-1.168.425-2.505.424-3.886.057-4.65-1.234-8.598-3.093-10.567-4.109-.63-.325-.912-.698-.994-.99a6.8 6.8 0 0 1-.235-1.532c-.034-.752.653-1.452 1.65-1.232 1.3.286 2.349.683 2.984.958 1.057.457 2.051.013 2.573-.549.527-.567.91-1.629.316-2.668a15005 15005 0 0 1-8.207-14.37c-.312-.546-.42-1.131-.36-1.599.055-.437.243-.742.549-.946a7 7 0 0 1 1.07-.583" clip-rule="evenodd"/></svg>
