<svg xmlns="http://www.w3.org/2000/svg" fill="none" viewBox="0 0 48 48"><path fill="currentColor" fill-rule="evenodd" d="M24 1.5C11.574 1.5 1.5 11.574 1.5 24S11.574 46.5 24 46.5 46.5 36.426 46.5 24 36.426 1.5 24 1.5m2.97 18.047a4.79 4.79 0 1 0-5.94 0c-2.88.313-5.03 2.65-5.03 5.624 0 1.622.202 2.728.349 3.32.084.338.302.618.629.74.41.154 1.134.357 2.344.516.2 1.852.518 3.99 1.015 5.776.143.511.508.928 1.015 1.085A9 9 0 0 0 24 37a9 9 0 0 0 2.647-.392c.507-.157.873-.574 1.015-1.085.498-1.786.815-3.924 1.015-5.776 1.211-.159 1.935-.362 2.345-.516.327-.123.545-.402.629-.74.147-.591.349-1.698.349-3.32 0-2.974-2.15-5.311-5.03-5.624" clip-rule="evenodd"/></svg>
