<svg xmlns="http://www.w3.org/2000/svg" fill="none" viewBox="0 0 48 48"><path fill="currentColor" fill-rule="evenodd" d="M32.738 2.475q-.332-.33-.662-.573c-.774-.575-1.657-.644-2.47-.417-.801.224-1.548.735-2.132 1.35-4.539 4.77-8.972 10.274-10.867 12.677-.349.443-.61.995-.677 1.562-.067.577.069 1.189.545 1.664.475.476 1.087.612 1.664.545.567-.067 1.12-.328 1.562-.677 2.403-1.895 7.906-6.328 12.677-10.866.615-.585 1.126-1.331 1.35-2.132.227-.815.158-1.697-.417-2.471a6 6 0 0 0-.573-.662m13.326 6.214a6 6 0 0 0-.491-.725c-.599-.756-1.433-1.051-2.279-1.042-.831.01-1.684.31-2.408.752-5.619 3.433-11.325 7.602-13.778 9.433-.451.337-.847.803-1.057 1.333-.215.54-.242 1.166.094 1.749.337.583.893.872 1.467.956.565.083 1.166-.026 1.684-.249 2.812-1.208 9.275-4.066 15.058-7.215.745-.406 1.431-.994 1.855-1.71.43-.728.592-1.598.237-2.495a6 6 0 0 0-.382-.787M6.565 23.78c-2.29.108-4.216 2.053-3.863 4.526C4.15 38.425 13.141 46.5 24 46.5s19.851-8.075 21.298-18.193c.353-2.473-1.573-4.418-3.864-4.526C38.69 23.651 33.46 23.5 24 23.5s-14.69.152-17.434.281m23.559 14.97a1.5 1.5 0 0 1 .546-2.049 13.8 13.8 0 0 0 6.04-7.212 1.5 1.5 0 1 1 2.822 1.02 16.8 16.8 0 0 1-7.358 8.788 1.5 1.5 0 0 1-2.05-.546" clip-rule="evenodd"/></svg>
