<svg xmlns="http://www.w3.org/2000/svg" fill="none" viewBox="0 0 48 48"><path fill="currentColor" fill-rule="evenodd" d="M18.5 1.5a4.5 4.5 0 1 0 0 9 4.5 4.5 0 0 0 0-9M1.5 16a4.5 4.5 0 1 1 9 0 4.5 4.5 0 0 1-9 0m15.419-2.376c.518-.073 1.08-.124 1.649-.124.565 0 1.125.05 1.641.123 1.857.261 3.049 1.885 3.18 3.654.186 2.5.44 6.208.48 8.213l.22.01c.451.023 1.095.068 1.876.158 1.558.18 3.67.54 5.873 1.262 2.391.784 4.004 2.94 4.128 5.446.147 2.983-.105 7.448-2.096 12.022-.584 1.342-1.869 2.198-3.302 2.317-1.672.139-4.341.295-7.878.295-4.227 0-6.647-.223-7.803-.375a3.5 3.5 0 0 1-1.715-.73c-4.502-3.558-8.265-9.5-9.588-11.727-.399-.672-.566-1.492-.345-2.288a8.4 8.4 0 0 1 1.696-3.232c1.25-1.467 3.295-1.318 4.767-.415a58 58 0 0 1 3.581 2.386c.03-5.52.3-10.488.492-13.363.117-1.76 1.302-3.37 3.144-3.632M42 11.5a4.5 4.5 0 1 1 0 9 4.5 4.5 0 0 1 0-9M26.5 16a4.5 4.5 0 1 1 9 0 4.5 4.5 0 0 1-9 0m20-10a4.5 4.5 0 1 0-9 0 4.5 4.5 0 0 0 9 0" clip-rule="evenodd"/></svg>
