<svg xmlns="http://www.w3.org/2000/svg" fill="none" viewBox="0 0 48 48"><path fill="currentColor" fill-rule="evenodd" d="M2.928 22.98a2 2 0 0 0 2.263-1.697C6.508 12.077 14.428 5 23.998 5s17.491 7.077 18.808 16.283a2 2 0 0 0 3.96-.566C45.17 9.569 35.587 1 23.999 1 12.409 1 2.826 9.569 1.23 20.717a2 2 0 0 0 1.697 2.263m0 2.04a2 2 0 0 1 2.263 1.697c.216 1.511.61 2.964 1.16 4.337a2 2 0 0 1-3.714 1.486 23 23 0 0 1-1.406-5.257 2 2 0 0 1 1.697-2.263m42.141 0a2 2 0 0 1 1.697 2.264 23 23 0 0 1-1.406 5.256 2 2 0 1 1-3.714-1.486 19 19 0 0 0 1.16-4.337 2 2 0 0 1 2.263-1.697M6.241 35.392a2 2 0 0 1 2.809.337 19 19 0 0 0 3.197 3.202 2 2 0 1 1-2.477 3.141 23 23 0 0 1-3.865-3.871 2 2 0 0 1 .336-2.809m35.515 0a2 2 0 0 1 .337 2.809 23 23 0 0 1-3.895 3.894 2 2 0 1 1-2.471-3.145 19 19 0 0 0 3.22-3.22 2 2 0 0 1 2.809-.338m-27.442 7.354a2 2 0 0 1 2.602-1.11c1.382.556 2.844.954 4.366 1.172a2 2 0 1 1-.567 3.96 23 23 0 0 1-5.291-1.42 2 2 0 0 1-1.11-2.602m19.34.016a2 2 0 0 1-1.115 2.6 23 23 0 0 1-5.257 1.405 2 2 0 0 1-.567-3.96 19 19 0 0 0 4.338-1.16 2 2 0 0 1 2.6 1.115m-4.586-30.294c.179-2.57-2.787-4.142-4.774-2.394-4.907 4.315-9.43 9.156-11.954 11.965-1.488 1.658-.665 4.269 1.56 4.699 1.466.283 3.406.617 5.739.924-.24 2.135-.489 4.755-.705 7.871-.179 2.57 2.787 4.142 4.774 2.394 4.906-4.315 9.43-9.157 11.953-11.966 1.489-1.657.665-4.268-1.56-4.698a97 97 0 0 0-5.738-.924c.24-2.136.488-4.755.705-7.871" clip-rule="evenodd"/></svg>
