<svg xmlns="http://www.w3.org/2000/svg" fill="none" viewBox="0 0 48 48"><path fill="currentColor" fill-rule="evenodd" d="M21.493 20.43c1.362-4.994 2.731-10.015 3.848-15.077.244-1.106-.021-2.46-1.315-2.941q-.333-.125-.761-.24c-.428-.116-.545-.133-.78-.173-1.36-.23-2.266.81-2.608 1.89-1.57 4.961-2.9 10.014-4.222 15.04l-.02.073q.11-.003.219-.002c2.143 0 4.03.529 5.639 1.43M27 28a2 2 0 0 1 2-2h10a2 2 0 1 1 0 4H29a2 2 0 0 1-2-2m5 6a2 2 0 1 0 0 4h10a2 2 0 1 0 0-4zm3 8a2 2 0 1 0 0 4h10a2 2 0 1 0 0-4zM15.854 21.5c-6.044 0-10.64 4.527-12.119 10.068-.885 3.32-1.764 7.237-2.096 10.722-.223 2.343 1.512 4.274 3.736 4.534 1.042.122 2.348.259 3.809.377-1.705-3.667-1.818-7.556-1.602-9.377a1.5 1.5 0 0 1 2.979.352c-.204 1.726-.004 5.909 2.164 9.249 1.07.047 2.172.075 3.275.075 1.1 0 2.254-.028 3.412-.075-1.139-1.627-1.822-3.393-2.234-4.905a20 20 0 0 1-.592-3.16 17 17 0 0 1-.084-1.243l-.002-.08V38a1.501 1.501 0 0 1 3-.002v.052l.008.202c.009.182.026.454.062.795.072.684.216 1.633.502 2.683.513 1.882 1.447 3.959 3.116 5.486.848-.058 1.668-.12 2.437-.185 3.54-.292 4.951-4.549 2.481-6.973L27 38.973a5.5 5.5 0 0 1-1.647-4.051l.057-2.57c.121-5.481-3.587-10.852-9.556-10.852" clip-rule="evenodd"/></svg>
