<svg xmlns="http://www.w3.org/2000/svg" fill="none" viewBox="0 0 48 48"><path fill="currentColor" fill-rule="evenodd" d="M3.842 27.88a7.92 7.92 0 0 1 0-8.76c3.23-4.872 7.107-8.528 9.356-10.443 1.452-1.237 3.258-1.857 5.087-1.931C20.838 6.642 25.196 6.5 30 6.5c3.443 0 6.764.073 9.364.152 3.76.115 6.808 3.052 6.956 6.846A258 258 0 0 1 46.5 23.5c0 4.158-.083 7.51-.18 10.002-.148 3.794-3.196 6.73-6.956 6.846-2.6.08-5.921.152-9.364.152-4.804 0-9.162-.142-11.715-.246-1.829-.074-3.635-.695-5.087-1.931-2.249-1.916-6.125-5.57-9.356-10.443m33.54-7.851c.67-.724.86-1.742.26-2.526-.251-.33-.58-.712-1.005-1.137A11.5 11.5 0 0 0 35.5 15.36c-.784-.599-1.802-.409-2.526.261a187 187 0 0 0-3.969 3.813 186 186 0 0 0-3.967-3.81c-.724-.671-1.742-.861-2.526-.262-.33.252-.711.58-1.137 1.005-.425.426-.753.808-1.005 1.137-.6.784-.41 1.802.261 2.526a186 186 0 0 0 3.811 3.967c-1.868 1.9-3.073 3.17-3.817 3.973-.67.724-.86 1.742-.26 2.526.251.33.579.712 1.005 1.137s.807.754 1.136 1.005c.785.6 1.802.41 2.526-.26.804-.744 2.074-1.95 3.973-3.818 1.9 1.87 3.171 3.075 3.975 3.819.724.67 1.742.86 2.526.261.33-.252.711-.58 1.137-1.005.425-.426.753-.808 1.005-1.137.6-.784.41-1.802-.261-2.526-.744-.803-1.95-2.075-3.819-3.975a187 187 0 0 0 3.813-3.968Z" clip-rule="evenodd"/></svg>
