<svg xmlns="http://www.w3.org/2000/svg" fill="none" viewBox="0 0 48 48"><path fill="currentColor" fill-rule="evenodd" d="M11.27 2.962c-2.08.558-3.774 1.062-5.117 1.492-3.178 1.017-4.99 4.155-4.281 7.416.299 1.378.708 3.096 1.266 5.177a112 112 0 0 0 1.492 5.117c1.016 3.177 4.155 4.99 7.416 4.281 1.378-.3 3.096-.709 5.177-1.266a112 112 0 0 0 5.116-1.492c3.178-1.017 4.99-4.156 4.282-7.416-.3-1.378-.71-3.097-1.267-5.177a112 112 0 0 0-1.491-5.117C22.846 2.8 19.707.987 16.447 1.696c-1.378.3-3.097.709-5.177 1.266m3.81 13.73a2.75 2.75 0 1 0-1.667-5.242 2.75 2.75 0 0 0 1.668 5.242m16.016 28.664c2.08.558 3.799.967 5.177 1.267 3.26.708 6.4-1.104 7.416-4.282.43-1.343.934-3.036 1.491-5.116.558-2.081.967-3.8 1.267-5.178.708-3.26-1.104-6.399-4.282-7.415-1.343-.43-3.036-.935-5.116-1.492s-3.8-.967-5.177-1.267c-3.26-.708-6.4 1.104-7.416 4.282-.43 1.343-.934 3.036-1.492 5.117s-.967 3.799-1.266 5.177c-.709 3.26 1.103 6.399 4.281 7.415 1.343.43 3.036.935 5.117 1.492m7.562-16.089a2.75 2.75 0 1 0-1.215 5.365 2.75 2.75 0 0 0 1.215-5.365m-9.176 9.96-.104-.024a2.75 2.75 0 1 1 .105.025" clip-rule="evenodd"/></svg>
