<svg xmlns="http://www.w3.org/2000/svg" fill="none" viewBox="0 0 48 48"><g fill="currentColor" fill-rule="evenodd" clip-rule="evenodd"><path d="M9.5 24c0 8.008 6.492 14.5 14.5 14.5S38.5 32.008 38.5 24 32.008 9.5 24 9.5 9.5 15.992 9.5 24m16-9a1.5 1.5 0 0 0-3 0v1.237c-2.267.493-4.5 2.07-4.5 4.548 0 3.17 3.023 4.138 5.589 4.66.137.029.306.056.494.087 1.118.18 2.917.472 2.917 1.681 0 1.24-2.093 1.714-3 1.714-1.377 0-2.492-.447-3.554-1.115-.702-.441-1.634-.332-2.137.326s-.384 1.609.31 2.062c1.211.791 2.455 1.366 3.882 1.605v1.196a1.5 1.5 0 0 0 3 0v-1.24C27.768 31.267 30 29.69 30 27.213c0-3.17-3.023-4.139-5.589-4.661a13 13 0 0 0-.494-.086c-1.118-.18-2.917-.472-2.917-1.681 0-1.22 2.024-1.699 2.954-1.714h.099c1.353.01 2.453.455 3.502 1.115.7.441 1.633.331 2.136-.326.504-.658.384-1.61-.31-2.062-1.21-.79-2.455-1.366-3.88-1.605V15Z"/><path d="M1.5 24c0 12.426 10.074 22.5 22.5 22.5S46.5 36.426 46.5 24 36.426 1.5 24 1.5 1.5 11.574 1.5 24M24 41.5c-9.665 0-17.5-7.835-17.5-17.5S14.335 6.5 24 6.5 41.5 14.335 41.5 24 33.665 41.5 24 41.5"/></g></svg>
