<svg xmlns="http://www.w3.org/2000/svg" fill="none" viewBox="0 0 48 48"><path fill="currentColor" fill-rule="evenodd" d="M1.856 8.833a24.4 24.4 0 0 0-.32 3.896.5.5 0 0 0-.036.187c0 7.08.745 16.298 1.425 23.24 1.685-.052 3.773-.086 6.343-.086q1.806.001 3.306.02V23.773c1.835.287 3.769.53 5.593.647 1.57.101 3.092-.644 3.471-2.33.365-1.617.707-4.398.707-9.158s-.342-7.54-.707-9.158c-.38-1.685-1.901-2.426-3.464-2.356-3.667.162-7.022.697-9.563 1.224-3.25.673-6.176 2.768-6.755 6.192m10.718 34.328v-4.07a248 248 0 0 0-9.347.056c.183 1.755.351 3.269.485 4.44a3.47 3.47 0 0 0 3.457 3.074h1.905a3.5 3.5 0 0 0 3.5-3.5m33.57-34.328c.185 1.09.31 2.384.32 3.896q.037.087.037.187c0 7.08-.745 16.298-1.425 23.24a207 207 0 0 0-6.344-.086c-1.205 0-2.304.008-3.306.02V23.773c-1.834.287-3.768.53-5.592.647-1.57.101-3.092-.644-3.471-2.33-.365-1.617-.707-4.398-.707-9.158s.342-7.54.707-9.158c.38-1.685 1.9-2.426 3.464-2.356 3.667.162 7.022.697 9.563 1.224 3.25.673 6.176 2.768 6.754 6.192M38.732 39.07c2.438 0 4.428.031 6.041.078-.183 1.754-.35 3.267-.484 4.439a3.47 3.47 0 0 1-3.457 3.074h-1.906a3.5 3.5 0 0 1-3.5-3.5v-4.07c.998-.013 2.097-.02 3.306-.02" clip-rule="evenodd"/></svg>
