<svg xmlns="http://www.w3.org/2000/svg" fill="none" viewBox="0 0 48 48"><path fill="currentColor" d="m40.712 12.59-.014.01-.002.002-.005.004-.001.001-.016.012-.056.046q-.072.06-.21.182a16 16 0 0 0-.824.806c-.737.765-1.86 2.029-3.423 4.04a35 35 0 0 0-2.05 2.908c-.814-.017-1.737-.033-2.781-.047.434-.658.967-1.407 1.62-2.247.696-.895 1.3-1.637 1.82-2.25.682-.803.917-1.874.707-2.78-.216-.929-.92-1.712-2.077-1.767a5.6 5.6 0 0 0-2.767.538 6 6 0 0 0-.869.504l-.052.039-.016.011-.002.002-.003.003-.017.012-.056.046q-.072.06-.21.182a16 16 0 0 0-.824.806c-.737.765-1.86 2.029-3.423 4.04a35 35 0 0 0-1.987 2.807H2a.5.5 0 0 0-.5.5v6a.5.5 0 0 0 .5.5h21.174c.501.795 1.15 1.731 1.987 2.807 1.564 2.01 2.686 3.275 3.423 4.04.369.382.64.64.824.806a7 7 0 0 0 .266.227l.017.013.003.003.002.002.016.011.052.039a6 6 0 0 0 .87.504 5.6 5.6 0 0 0 2.766.538c1.156-.055 1.86-.838 2.077-1.768.21-.905-.025-1.976-.706-2.78a69 69 0 0 1-1.821-2.249 36 36 0 0 1-1.62-2.247c1.044-.014 1.967-.03 2.78-.047.51.817 1.178 1.786 2.05 2.908 1.565 2.01 2.687 3.275 3.424 4.04.368.382.64.64.824.806a7 7 0 0 0 .266.227l.016.012v.001l.006.004.002.002.014.01.025.02.027.019a6 6 0 0 0 .87.504 5.6 5.6 0 0 0 2.766.538c1.156-.055 1.86-.838 2.077-1.768.21-.905-.025-1.976-.706-2.78a68 68 0 0 1-1.821-2.249c-1.538-1.977-2.408-3.45-2.892-4.417a10 10 0 0 1-.47-1.071 5 5 0 0 1-.07-.205l.07-.205c.083-.231.228-.588.47-1.071.484-.967 1.354-2.44 2.892-4.417.695-.895 1.3-1.637 1.82-2.25.682-.803.917-1.875.707-2.78-.216-.929-.92-1.712-2.077-1.767a5.6 5.6 0 0 0-2.767.538 6 6 0 0 0-.869.504z"/></svg>
