<svg xmlns="http://www.w3.org/2000/svg" fill="none" viewBox="0 0 48 48"><path fill="currentColor" fill-rule="evenodd" d="M17.481 2.894c-.033-.807-1.035-1.08-1.507-.481-.891 1.132-1.656 1.968-2.6 2.468-.924.488-2.075.682-3.789.395-3.597-.602-6.13.693-7.504 2.974-.46.762-.581 1.636-.581 2.439V29c0 .82.67 1.52 1.528 1.468 1.288-.077 3.068-.319 4.8-.97 1.73-.652 3.448-1.727 4.547-3.495 1.05-1.686 1.184-3.447 1.292-4.866l.014-.187c.058-.744.117-1.356.279-1.858.155-.48.395-.83.811-1.075a.76.76 0 0 0 .325-.403.95.95 0 0 0 .048-.41.9.9 0 0 0-.147-.413.68.68 0 0 0-.51-.295c-1.402-.101-2.456-.004-3.3.227a5.7 5.7 0 0 0-1.988.99c-.269.203-.505.402-.73.592-.673.569-1.26 1.064-2.36 1.34a.27.27 0 0 1-.195-.019.1.1 0 0 1-.035-.03.1.1 0 0 1-.012-.04c-.084-.847.302-2.24 1.045-3.61.739-1.364 1.76-2.572 2.819-3.117.653-.335 1.338-.584 2.05-.843l.56-.206c.895-.334 1.813-.716 2.617-1.326 1.662-1.26 2.697-3.378 2.523-7.56M28.378 17.64c-3.778-.26-7.196-.102-8.857.011-.842.057-1.6.668-1.696 1.572-.085.8-.057 1.546 0 2.127.095.978.939 1.606 1.837 1.63 1.42.036 3.959.145 6.613.463.108.013.21.063.29.143l.478.484a229 229 0 0 0-7.547 9.316.5.5 0 0 1-.402.198h-5.687c-.901 0-1.773.623-1.865 1.611a10.7 10.7 0 0 0 .023 2.117c.097.903.845 1.52 1.688 1.59 3.15.267 5.594.37 7.021.411a4.86 4.86 0 0 0 2.866-.815 41 41 0 0 0 3.555-2.712 21.4 21.4 0 0 1 2.745 2.586.44.44 0 0 1 .105.293v5.933c0 .897.618 1.766 1.604 1.86.792.074 1.523.037 2.083-.024.902-.098 1.514-.847 1.584-1.688.294-3.552.388-6.223.418-7.57a4.8 4.8 0 0 0-.407-2.075 28.5 28.5 0 0 0-1.71-3.253c-.229-.374-.424-.67-.565-.879l.943-.953.482.425a4.3 4.3 0 0 0 2.539 1.081c3.396.24 6.622.087 8.23-.024.845-.058 1.603-.673 1.7-1.577.085-.805.058-1.55.002-2.128-.096-.978-.942-1.602-1.838-1.622-1.51-.034-4.27-.137-6.977-.455a.53.53 0 0 1-.361-.215c-.757-1.028-3.087-4.026-6.51-6.904a4.14 4.14 0 0 0-2.384-.957M40 23a5.5 5.5 0 1 0 0-11 5.5 5.5 0 0 0 0 11" clip-rule="evenodd"/></svg>
