<svg xmlns="http://www.w3.org/2000/svg" fill="none" viewBox="0 0 48 48"><path fill="currentColor" fill-rule="evenodd" d="M24.5 5.096c0-1.951-1.668-3.693-3.804-3.378C9.833 3.318 1.5 12.685 1.5 24s8.334 20.68 19.196 22.282c2.136.315 3.804-1.427 3.804-3.378zm11.407 1.63a2 2 0 0 0-.821-2.707 22 22 0 0 0-5.106-1.961 2 2 0 0 0-.96 3.883c1.47.363 2.872.907 4.18 1.606a2 2 0 0 0 2.707-.821m8.803 7.302a2 2 0 1 1-3.595 1.752 18.6 18.6 0 0 0-3.656-5.093 2 2 0 1 1 2.81-2.846 22.6 22.6 0 0 1 4.441 6.187m-.338 15.452a2 2 0 0 0 2.306-1.637 23 23 0 0 0 0-7.686 2 2 0 1 0-3.944.668Q42.998 22.371 43 24q-.001 1.626-.266 3.174a2 2 0 0 0 1.638 2.306M40.27 40.157a2 2 0 0 1-2.81-2.846 18.6 18.6 0 0 0 3.655-5.092 2 2 0 0 1 3.595 1.752 22.6 22.6 0 0 1-4.44 6.186m-10.29 5.784a2 2 0 0 1-.96-3.883 18 18 0 0 0 4.18-1.606 2 2 0 1 1 1.886 3.528 22 22 0 0 1-5.106 1.961" clip-rule="evenodd"/></svg>
