<svg xmlns="http://www.w3.org/2000/svg" fill="none" viewBox="0 0 48 48"><path fill="currentColor" fill-rule="evenodd" d="M24 1.5c-5.926 0-10.206.242-13.041.491-3.3.29-5.765 2.887-5.993 6.152-.212 3.04-.433 7.747-.463 14.357h38.994c-.03-6.61-.251-11.317-.463-14.357-.228-3.265-2.693-5.862-5.993-6.152-2.835-.249-7.115-.491-13.04-.491m-12.5 8A1.5 1.5 0 0 1 13 8h12a1.5 1.5 0 0 1 0 3H13a1.5 1.5 0 0 1-1.5-1.5M13 15a1.5 1.5 0 0 0 0 3h22a1.5 1.5 0 0 0 0-3zM4.966 39.857c-.212-3.04-.433-7.747-.463-14.357h38.994c-.03 6.61-.251 11.317-.463 14.357-.228 3.265-2.693 5.862-5.993 6.152-2.835.249-7.115.491-13.04.491s-10.207-.242-13.042-.491c-3.3-.29-5.765-2.887-5.993-6.152M14 29.5a3.5 3.5 0 1 0 0 7 3.5 3.5 0 0 0 0-7m19.09 2.985c1.532 1.057 3.83 2.868 7.031 5.934a139 139 0 0 1-.08 1.229c-.128 1.833-1.471 3.215-3.263 3.372-2.742.241-6.934.48-12.778.48-2.678 0-5.009-.05-7.013-.128.911-.953 1.958-2.024 3.16-3.226 3.788-3.788 6.285-6.037 7.843-7.343 1.479-1.24 3.477-1.437 5.1-.318" clip-rule="evenodd"/></svg>
