<svg xmlns="http://www.w3.org/2000/svg" fill="none" viewBox="0 0 48 48"><path fill="currentColor" fill-rule="evenodd" d="M21.5 4a2.5 2.5 0 0 1 5 0v2.905c7.87-1.737 11.721-2.523 13.26-2.827.417-.082.952-.117 1.494.035a2.35 2.35 0 0 1 1.52 1.272q.188.395.3.899.112.505.11.94a2.35 2.35 0 0 1-.837 1.798c-.426.367-.925.563-1.338.666-.542.135-1.376.338-2.581.625a539 539 0 0 1 2.3 6.798c1.339 4.049 2.8 8.662 3.663 12.006 1.278.527 2.225 1.834 1.933 3.43-.932 5.101-5.43 8.953-10.823 8.953-5.392 0-9.89-3.852-10.823-8.954-.292-1.595.656-2.901 1.933-3.428.863-3.345 2.324-7.958 3.663-12.007a534 534 0 0 1 1.792-5.32c-2.048.468-4.486 1.018-7.373 1.66a1334 1334 0 0 1-9.21 2.022 538 538 0 0 1 2.245 6.638c1.339 4.049 2.8 8.662 3.663 12.006 1.278.528 2.225 1.834 1.933 3.43-.932 5.101-5.43 8.953-10.823 8.953-5.392 0-9.89-3.852-10.823-8.954-.292-1.595.656-2.901 1.933-3.428.863-3.345 2.324-7.958 3.663-12.007a528 528 0 0 1 1.781-5.288l-.732.146c-.417.082-.953.117-1.495-.035a2.35 2.35 0 0 1-1.52-1.272 4.4 4.4 0 0 1-.3-.899 4.3 4.3 0 0 1-.11-.94c0-.792.379-1.403.837-1.798a3.25 3.25 0 0 1 1.338-.666c1.599-.397 5.735-1.396 14.427-3.342zm14.001 24.5c1.75 0 3.297.05 4.616.122-.828-2.971-2.024-6.74-3.187-10.256-.5-1.511-.987-2.96-1.429-4.256a535 535 0 0 0-1.43 4.256c-1.161 3.515-2.358 7.285-3.185 10.256A85 85 0 0 1 35.5 28.5Zm-18.384 5.122A85 85 0 0 0 12.5 33.5c-1.749 0-3.297.05-4.615.122.827-2.971 2.024-6.74 3.186-10.256.5-1.511.988-2.96 1.43-4.256.44 1.296.929 2.745 1.428 4.256 1.162 3.515 2.359 7.285 3.187 10.256Z" clip-rule="evenodd"/></svg>
