<svg xmlns="http://www.w3.org/2000/svg" fill="none" viewBox="0 0 48 48"><path fill="currentColor" d="M26.86 2.507c-1.693-1.397-4.027-1.396-5.72 0-1.013.835-2.449 2.084-4.416 3.925-2.692.089-4.591.221-5.898.347-2.186.21-3.836 1.86-4.046 4.046-.125 1.306-.257 3.205-.347 5.898-1.84 1.967-3.09 3.404-3.925 4.416-1.397 1.694-1.397 4.028 0 5.722.835 1.012 2.085 2.449 3.926 4.416.089 2.691.221 4.59.346 5.896.21 2.186 1.86 3.836 4.046 4.046 1.306.125 3.205.258 5.896.347 1.968 1.841 3.404 3.09 4.417 3.926 1.694 1.397 4.028 1.397 5.722 0 1.013-.835 2.45-2.085 4.417-3.926 2.692-.09 4.591-.222 5.897-.347 2.186-.21 3.836-1.86 4.046-4.045.125-1.306.258-3.206.347-5.898 1.84-1.967 3.09-3.403 3.924-4.415 1.397-1.694 1.397-4.028 0-5.721-.834-1.013-2.083-2.45-3.924-4.416-.09-2.694-.222-4.593-.347-5.9-.21-2.185-1.86-3.835-4.046-4.045-1.306-.126-3.206-.258-5.9-.347-1.966-1.84-3.402-3.09-4.415-3.925"/></svg>
