<svg xmlns="http://www.w3.org/2000/svg" fill="none" viewBox="0 0 48 48"><path fill="currentColor" d="M37.348 3.635c-.673-.761-1.662-1.196-2.704-1.08-1.349.15-3.517.715-4.444 2.79-.462 1.035-.08 2.14.313 2.957.414.86.783 1.83 1.09 2.878-2.29-2.672-5.582-5.89-9.382-7.962-1.01-.55-2.284-.642-3.31.048-.992.669-2.232 1.847-2.642 3.715-.32 1.456.638 2.703 1.604 3.488 1.9 1.546 3.572 3.497 5.008 5.66-3.679-1.124-7.492-1.092-11.04.632-2.32 1.126-3.2 3.967-1.876 6.19.213.358.43.69.642.995 1.145 1.645 3.247 1.78 4.957 1.337 1.729-.447 3.271-.362 4.54.15 1.264.512 2.29 1.462 2.97 2.806.678 1.337.172 2.997-1.108 3.917-.511.368-1.07.702-1.63.921-2.697.794-5.556-1.074-6.61-4.24-.265-.795-.714-1.587-1.331-2.152-.626-.572-1.446-.924-2.398-.756-.44.078-.856.177-1.242.288-2.185.63-3.341 2.82-3.039 4.991.78 5.606 3.62 9.579 7.655 12.105 2.004 1.254 4.324 1.847 6.632 2.038 5.572.46 10.815-.233 14.02-.833 2.213-.414 4.31-1.458 5.714-3.297 1.998-2.617 4.6-7.324 4.752-14.195.227-10.21-3.444-19.211-7.14-23.391"/></svg>
