<svg xmlns="http://www.w3.org/2000/svg" fill="none" viewBox="0 0 48 48"><g fill="currentColor"><path fill-rule="evenodd" d="M24 1.492c3.387 0 6.225.043 8.6.11a85 85 0 0 0-.1 4.462c0 1.96.044 3.43.103 4.525.127 2.372 1.732 4.367 4.25 4.661 1.216.142 2.868.25 5.086.25 1.852 0 3.31-.075 4.448-.183.07 2.39.113 5.253.113 8.675 0 11.925-.527 18.609-.841 21.535-.218 2.023-2.546 2.82-4.01 1.6l-3.907-3.256-2.599 2.599a2.5 2.5 0 0 1-3.33.184l-3.502-2.802-2.543 2.543a2.5 2.5 0 0 1-3.536 0l-2.543-2.543-3.503 2.802a2.5 2.5 0 0 1-3.33-.184l-2.598-2.599-3.908 3.257c-1.464 1.22-3.791.422-4.009-1.601-.314-2.926-.841-9.61-.841-21.535 0-9.172.312-14.328.602-17.147.267-2.585 2.166-4.484 4.75-4.75 2.82-.291 7.976-.603 17.148-.603m-7.188 27.855c-.9.96-1.139 2.314-.27 3.303a12 12 0 0 0 1.082 1.082c.988.868 2.343.63 3.302-.271a191 191 0 0 0 3.21-3.098 193 193 0 0 0 3.211 3.098c.96.9 2.314 1.14 3.303.271a12 12 0 0 0 1.082-1.082c.868-.989.63-2.343-.271-3.303-.695-.74-1.694-1.783-3.098-3.21a193 193 0 0 0 3.098-3.21c.9-.96 1.14-2.315.271-3.303a12 12 0 0 0-1.082-1.083c-.989-.868-2.343-.63-3.303.271-.74.695-1.783 1.694-3.21 3.098a193 193 0 0 0-3.21-3.098c-.96-.9-2.315-1.139-3.303-.27a12 12 0 0 0-1.083 1.082c-.868.988-.63 2.343.271 3.302.695.74 1.694 1.784 3.098 3.21a193 193 0 0 0-3.098 3.211" clip-rule="evenodd"/><path d="M41.86 6.131c2.953 2.953 3.958 5.036 4.293 6.195-1.036.1-2.413.174-4.214.174-2.123 0-3.657-.103-4.737-.23-.912-.106-1.546-.767-1.604-1.842a82 82 0 0 1-.098-4.364c0-1.834.04-3.21.091-4.228 1.186.336 3.314 1.34 6.27 4.295"/></g></svg>
