<svg xmlns="http://www.w3.org/2000/svg" fill="none" viewBox="0 0 48 48"><path fill="currentColor" d="M10.977 33.644C10.99 30.96 11 27.77 11 24c0-12.93-.108-19.024-.167-21.364a7 7 0 0 0-.073-.853c3.846.46 7.074 1.407 10.058 2.282.966.284 1.907.56 2.835.81 4.862 1.306 9.664 2.01 16.807-.31 2.335-.758 5.163.424 5.516 3.274.27 2.177.524 5.553.524 10.554 0 6.748-.462 10.54-.803 12.42-.26 1.437-1.287 2.51-2.544 2.984-8.434 3.179-14.112 3.061-19.582 2.128-1.507-.257-2.961-.566-4.431-.877-2.554-.541-5.156-1.093-8.163-1.404M1.5 24c0-12.738.127-18.19.179-19.9.02-.65.291-1.838 1.513-2.304C3.664 1.616 4.258 1.5 5 1.5s1.336.116 1.808.296C8.03 2.262 8.3 3.45 8.32 4.1c.052 1.71.179 7.162.179 19.9s-.127 18.19-.179 19.9c-.02.65-.291 1.838-1.513 2.304-.472.18-1.066.296-1.808.296s-1.336-.116-1.808-.296C1.97 45.738 1.7 44.55 1.68 43.9c-.053-1.71-.18-7.162-.18-19.9"/></svg>
