<svg xmlns="http://www.w3.org/2000/svg" fill="none" viewBox="0 0 48 48"><path fill="currentColor" fill-rule="evenodd" d="m28.199 3.013-.095-.01c-3.342-.255-5.932-.128-7.707.069-.889.099-1.572.215-2.043.309q-.374.073-.742.17l-.015.004-.005.002h-.003l-.001.001a1.5 1.5 0 0 0-.649.382c-2.088 2.087-4.269 4.916-5.905 7.182a110 110 0 0 0-2.74 3.982l-.041.062-.015.023a1.5 1.5 0 1 0 2.524 1.622l.01-.017.037-.056.146-.223a107 107 0 0 1 2.511-3.637c1.425-1.973 3.205-4.286 4.918-6.117l3.907 7.212a32 32 0 0 0-1.945 1.447c-.82.666-.602 1.87.33 2.272 3.154 1.362 7.329 2.545 10.446 3.24a2.387 2.387 0 0 0 2.802-1.619c.955-3.039 2.015-7.233 2.415-10.64.12-1.02-.83-1.813-1.82-1.431-.444.171-1.005.403-1.691.716a32 32 0 0 0-1.666-2.33 4 4 0 0 0-.26-.302c-.624-.847-1.106-1.37-1.489-1.697a3 3 0 0 0-.667-.45 2 2 0 0 0-.547-.166M39.51 14.756a1.5 1.5 0 1 0-2.666 1.375l.01.018.03.06.12.237a107 107 0 0 1 1.894 3.993c.996 2.22 2.11 4.919 2.839 7.318l-8.2-.223a32 32 0 0 0-.28-2.408c-.167-1.043-1.318-1.456-2.134-.85-2.755 2.05-5.868 5.074-8.027 7.427a2.387 2.387 0 0 0 0 3.236c2.154 2.347 5.257 5.362 8.007 7.411.824.614 1.986.188 2.15-.861.074-.47.153-1.071.225-1.822.87-.046 1.833-.131 2.85-.278a4 4 0 0 0 .392-.074c1.045-.117 1.739-.273 2.214-.44.282-.1.522-.215.723-.354a2 2 0 0 0 .418-.39l.055-.078c1.893-2.766 3.078-5.073 3.795-6.709.358-.818.6-1.468.753-1.923a13 13 0 0 0 .212-.683l.012-.045.004-.015.001-.005.001-.004a1.5 1.5 0 0 0-.006-.753c-.764-2.851-2.123-6.155-3.267-8.705a110 110 0 0 0-1.951-4.113l-.127-.251-.034-.067zM3.651 29.498c.092-.495.304-1.174.725-2.138a4 4 0 0 1 .132-.376c.382-.954.789-1.83 1.184-2.608a31 31 0 0 1-1.465-1.106c-.826-.666-.614-1.885.33-2.292 3.15-1.357 7.312-2.537 10.421-3.229a2.387 2.387 0 0 1 2.803 1.618c.957 3.047 2.02 7.254 2.417 10.665.118 1.01-.816 1.8-1.802 1.423a32 32 0 0 1-2.226-.961l-4.293 6.99c2.443.568 5.336.952 7.758 1.2a106 106 0 0 0 4.67.371l.067.003.02.001a1.5 1.5 0 0 1-.142 2.997l-.028-.001-.074-.004-.28-.016a110 110 0 0 1-4.537-.367c-2.782-.284-6.323-.759-9.174-1.523a1.5 1.5 0 0 1-.655-.37L9.5 39.77l-.004-.003-.01-.011-.034-.033-.109-.112a14 14 0 0 1-.376-.413c-.317-.36-.76-.894-1.29-1.614-1.057-1.439-2.463-3.618-3.912-6.64a1.6 1.6 0 0 1-.103-.272 2 2 0 0 1-.066-.373q-.028-.364.056-.802" clip-rule="evenodd"/></svg>
