<svg xmlns="http://www.w3.org/2000/svg" fill="none" viewBox="0 0 48 48"><path fill="currentColor" fill-rule="evenodd" d="M16.336 5.188A8 8 0 0 1 23.37 1h1.26a8 8 0 0 1 7.034 4.188c3.28.067 5.861.169 7.744.264 2.67.134 5.364 1.58 6.188 4.41q.161.551.294 1.168c.54 2.524-1.377 4.585-3.751 4.785-3.056.259-8.613.55-18.162.55-9.547 0-15.104-.291-18.16-.55-2.356-.199-4.338-2.273-3.658-4.821.188-.707.42-1.35.663-1.92C3.83 6.713 6.21 5.598 8.522 5.47c1.813-.1 4.403-.21 7.814-.282M5.564 18.805a7 7 0 0 1-.695-.095c.821 12.048 1.592 18.537 2.07 21.774.332 2.251 1.85 4.217 4.226 4.788 2.445.587 6.55 1.227 12.837 1.227 6.286 0 10.392-.64 12.837-1.227 2.375-.571 3.894-2.537 4.226-4.788.478-3.237 1.249-9.73 2.07-21.782a7 7 0 0 1-.743.103c-3.165.267-8.811.56-18.415.56-9.602 0-15.248-.293-18.413-.56M19.99 26.8a2 2 0 1 0-3.98.398l1 10a2 2 0 1 0 3.98-.398zm10.21-1.79a2 2 0 0 0-2.19 1.79l-1 10a2 2 0 1 0 3.98.399l1-10a2 2 0 0 0-1.79-2.19" clip-rule="evenodd"/></svg>
