<svg xmlns="http://www.w3.org/2000/svg" fill="none" viewBox="0 0 48 48"><g fill="currentColor"><path d="M29.97 8.802a30 30 0 0 1-.173 2.572 1.72 1.72 0 0 1-.933 1.357 1.76 1.76 0 0 1-1.624-.048c-.717-.386-1.834-1.04-3.411-2.104-1.312-.885-2.166-1.596-2.721-2.137-.468-.455-.739-1.054-.739-1.692s.271-1.236.74-1.691c.554-.54 1.408-1.252 2.72-2.138 1.577-1.064 2.694-1.717 3.411-2.103A1.76 1.76 0 0 1 28.864.77c.525.261.862.77.933 1.357.05.412.098.957.136 1.673 4.373.078 7.671.232 10 .38 3.716.239 6.753 3.026 7.102 6.836.241 2.637.465 6.494.465 11.734s-.224 9.098-.465 11.734c-.35 3.81-3.386 6.598-7.103 6.836-3.033.194-7.714.397-14.273.427l-5.73 4.911c-2.92 2.502-7.429.428-7.429-3.416v-1.697c-1.75-.069-3.222-.148-4.432-.225-3.717-.238-6.754-3.026-7.103-6.836C.724 31.848.5 27.99.5 22.75s.224-9.097.465-11.734c.35-3.81 3.386-6.597 7.103-6.835a197 197 0 0 1 6.86-.308 2.5 2.5 0 1 1 .144 4.998 190 190 0 0 0-6.685.3c-1.36.087-2.327 1.044-2.442 2.301-.227 2.476-.445 6.18-.445 11.278s.218 8.803.445 11.279c.115 1.256 1.081 2.214 2.442 2.301 1.674.107 3.888.218 6.685.3a2.5 2.5 0 0 1 2.428 2.498v3.027l5.604-4.804a2.5 2.5 0 0 1 1.622-.602c6.95-.013 11.823-.223 14.887-.419 1.36-.087 2.327-1.044 2.443-2.301.226-2.476.444-6.18.444-11.279 0-5.098-.218-8.802-.444-11.278-.116-1.257-1.082-2.214-2.443-2.301-2.225-.143-5.406-.293-9.643-.369"/><path d="M13.5 19a4 4 0 1 0 0 8 4 4 0 0 0 0-8M24 19a4 4 0 1 0 0 8 4 4 0 0 0 0-8m10.5 0a4 4 0 1 0 0 8 4 4 0 0 0 0-8"/></g></svg>
