<svg xmlns="http://www.w3.org/2000/svg" fill="none" viewBox="0 0 48 48"><g fill="currentColor"><path fill-rule="evenodd" d="M9.47 1.5H4.811c-1.7 0-3.225 1.242-3.296 3.015a17 17 0 0 0 0 1.37C1.585 7.658 3.11 8.9 4.81 8.9h3.097a504 504 0 0 1 2.25 8.267c1.14 4.284 2.254 8.476 3.656 12.962.637 2.04 2.295 3.605 4.464 3.87 2.085.254 5.296.501 9.913.501 4.745 0 7.899-.26 9.872-.523 1.937-.258 3.445-1.61 4.077-3.421 1.492-4.277 2.817-9.513 3.684-14.41.475-2.686-1.643-5.046-4.334-5.046H16.51l-1.79-5.739A5.5 5.5 0 0 0 9.47 1.5M35 22.5a2 2 0 0 0-2-2h-3v-3a2 2 0 1 0-4 0v3h-3a2 2 0 1 0 0 4h3v3a2 2 0 1 0 4 0v-3h3a2 2 0 0 0 2-2" clip-rule="evenodd"/><path d="M42.5 41.5a5 5 0 1 0-10 0 5 5 0 0 0 10 0m-24-5a5 5 0 1 1 0 10 5 5 0 0 1 0-10"/></g></svg>
