<svg xmlns="http://www.w3.org/2000/svg" fill="none" viewBox="0 0 48 48"><g fill="currentColor"><path fill-rule="evenodd" d="m2.71 16.7 1.707.85 1.831 4.954c1.289 3.484 6.216 3.484 7.504 0l1.832-4.954 3.955-1.969c2.956-1.472 2.956-5.69 0-7.162L15.584 6.45l-1.06-2.864A22.4 22.4 0 0 1 24 1.5c3.385 0 6.596.748 9.476 2.087l-1.06 2.863-3.954 1.97c-2.957 1.471-2.957 5.69 0 7.161l3.955 1.97 1.831 4.953c1.288 3.484 6.216 3.484 7.504 0l1.832-4.954 1.706-.85A22.5 22.5 0 0 1 46.5 24c0 12.426-10.074 22.5-22.5 22.5S1.5 36.426 1.5 24c0-2.555.426-5.01 1.21-7.3m10.268 12.503c.769-.678 1.906-1.01 3.04-.807 2.123.38 4.935.74 7.982.74 3.046 0 5.858-.36 7.98-.74 1.135-.203 2.272.129 3.041.807.783.691 1.19 1.754.783 2.92C34.1 37 29.459 40.5 23.999 40.5S13.9 37 12.197 32.122c-.407-1.165-.001-2.228.782-2.919Z" clip-rule="evenodd"/><path d="M37.062 2.537c.322-.87 1.554-.87 1.876 0l2.244 6.07 5.02 2.498a1 1 0 0 1 0 1.79l-5.02 2.5-2.244 6.069c-.322.87-1.554.87-1.876 0l-2.244-6.07-5.02-2.498a1 1 0 0 1 0-1.79l5.02-2.5zm-26.124 0c-.322-.87-1.554-.87-1.876 0l-2.244 6.07-5.02 2.498a1 1 0 0 0 0 1.79l5.02 2.5 2.244 6.069c.322.87 1.554.87 1.876 0l2.244-6.07 5.02-2.498a1 1 0 0 0 0-1.79l-5.02-2.5z"/></g></svg>
