<svg xmlns="http://www.w3.org/2000/svg" fill="none" viewBox="0 0 48 48"><path fill="currentColor" fill-rule="evenodd" d="M20.804 2.723a4.93 4.93 0 0 1 6.393 0c1.044.878 2.442 2.097 4.19 3.719 2.257.089 4.02.21 5.328.323a4.93 4.93 0 0 1 4.52 4.52c.114 1.309.234 3.071.323 5.327 1.622 1.75 2.84 3.147 3.719 4.192a4.93 4.93 0 0 1 0 6.393 116 116 0 0 1-3.719 4.19 114 114 0 0 1-.323 5.328 4.93 4.93 0 0 1-4.52 4.52 114 114 0 0 1-5.327.323 116 116 0 0 1-4.192 3.719 4.93 4.93 0 0 1-6.393 0 116 116 0 0 1-4.19-3.719 114 114 0 0 1-5.328-.323 4.93 4.93 0 0 1-4.52-4.52 114 114 0 0 1-.323-5.327 116 116 0 0 1-3.719-4.192 4.93 4.93 0 0 1 0-6.393 116 116 0 0 1 3.719-4.19c.089-2.257.21-4.02.323-5.328a4.93 4.93 0 0 1 4.52-4.52c1.309-.114 3.071-.234 5.327-.323 1.75-1.622 3.147-2.84 4.192-3.719M24 34c5.523 0 10-4.477 10-10s-4.477-10-10-10-10 4.477-10 10 4.477 10 10 10" clip-rule="evenodd"/></svg>
