<svg xmlns="http://www.w3.org/2000/svg" fill="none" viewBox="0 0 48 48"><path fill="currentColor" fill-rule="evenodd" d="M28.5 1.5c5.166 0 8.966.172 11.56.357 3.3.236 5.847 2.782 6.083 6.084.185 2.593.357 6.393.357 11.559s-.172 8.966-.357 11.56c-.23 3.214-2.65 5.713-5.825 6.06.106-2.313.182-5.17.182-8.62 0-5.233-.174-9.104-.365-11.773-.342-4.79-4.072-8.52-8.862-8.862-2.669-.19-6.54-.365-11.773-.365-3.45 0-6.307.076-8.62.182.347-3.175 2.846-5.595 6.06-5.825 2.594-.185 6.394-.357 11.56-.357m-9 9c5.166 0 8.966.172 11.56.357 3.3.236 5.847 2.782 6.083 6.084.185 2.593.357 6.393.357 11.559s-.172 8.966-.357 11.56c-.236 3.3-2.782 5.847-6.084 6.083-2.593.185-6.393.357-11.559.357s-8.966-.172-11.56-.357c-3.3-.236-5.847-2.782-6.083-6.084C1.672 37.466 1.5 33.666 1.5 28.5s.172-8.966.357-11.56c.236-3.3 2.782-5.847 6.084-6.083 2.593-.185 6.393-.357 11.559-.357m4.526 20.228a7 7 0 1 0-8.066-.01c-2.496.932-4.485 2.708-5.5 4.92-.646 1.404.16 3.086 1.704 3.18l.044.002a150 150 0 0 0 7.77.18c3.309 0 5.874-.081 7.77-.18l.045-.003c1.543-.093 2.35-1.775 1.704-3.18-1.012-2.203-2.989-3.974-5.471-4.91" clip-rule="evenodd"/></svg>
