<svg xmlns="http://www.w3.org/2000/svg" fill="none" viewBox="0 0 48 48"><path fill="currentColor" fill-rule="evenodd" d="M24 1.5c-2.62 0-4.585.174-5.998.383-2.09.31-3.514 1.957-4 3.915l-.604 2.433A18.9 18.9 0 0 1 24 5c3.926 0 7.573 1.19 10.601 3.23l-.603-2.432c-.486-1.958-1.91-3.605-4-3.915C28.585 1.674 26.621 1.5 24 1.5m-9.998 40.702-.604-2.433A18.9 18.9 0 0 0 24 43c3.926 0 7.573-1.19 10.601-3.23l-.603 2.432c-.486 1.958-1.91 3.605-4 3.915-1.413.209-3.377.383-5.998.383-2.62 0-4.585-.174-5.998-.383-2.09-.31-3.514-1.957-4-3.915M7.5 24c0-9.113 7.387-16.5 16.5-16.5S40.5 14.887 40.5 24 33.113 40.5 24 40.5 7.5 33.113 7.5 24" clip-rule="evenodd"/></svg>
