<svg xmlns="http://www.w3.org/2000/svg" fill="none" viewBox="0 0 48 48"><path fill="currentColor" d="M1.5 24C1.5 11.574 11.574 1.5 24 1.5S46.5 11.574 46.5 24c0 10.493-7.182 19.308-16.899 21.797V39.69c0-1.59.974-2.987 2.287-3.884A13.98 13.98 0 0 0 38 24.24c0-5.09-2.717-9.547-6.78-11.997-1.182-.712-2.553.242-2.553 1.622v8.223c0 .445-.147.878-.452 1.202-.638.676-1.914 1.861-3.591 2.578-.398.17-.849.17-1.247 0-1.723-.736-3.022-1.967-3.64-2.632a1.7 1.7 0 0 1-.44-1.072c-.13-2.299-.172-5.234-.17-8.154.002-1.401-1.397-2.367-2.582-1.62-3.93 2.479-6.542 6.86-6.542 11.85 0 4.806 2.422 9.047 6.112 11.567 1.313.897 2.287 2.294 2.287 3.884v6.108C8.684 43.31 1.5 34.494 1.5 24"/></svg>
