<svg xmlns="http://www.w3.org/2000/svg" fill="none" viewBox="0 0 14 14"><path fill="currentColor" fill-rule="evenodd" d="m12 1.625-10 0A.375.375 0 0 0 1.625 2l0 10c0 .207.168.375.375.375l10 0a.375.375 0 0 0 .375-.375l0-10A.375.375 0 0 0 12 1.625M2 .375h10c.898 0 1.625.728 1.625 1.625l0 10c0 .898-.727 1.625-1.625 1.625l-10 0A1.625 1.625 0 0 1 .375 12V2C.375 1.103 1.103.375 2 .375M7 3.25a.75.75 0 0 1 .75.75v2.25H10a.75.75 0 0 1 0 1.5H7.75V10a.75.75 0 0 1-1.5 0V7.75H4a.75.75 0 0 1 0-1.5h2.25V4A.75.75 0 0 1 7 3.25" clip-rule="evenodd"></path></svg>
