<svg xmlns="http://www.w3.org/2000/svg" fill="none" viewBox="0 0 14 14"><path fill="currentColor" fill-rule="evenodd" d="M.375 12c0 .898.728 1.625 1.625 1.625l7.5 0c.898 0 1.625-.727 1.625-1.625l0-.875.875 0c.898 0 1.625-.727 1.625-1.625l0-7.5c0-.897-.727-1.625-1.625-1.625l-7.5 0c-.897 0-1.625.728-1.625 1.625l0 .875-.875 0c-.897 0-1.625.728-1.625 1.625zM2 12.375A.375.375 0 0 1 1.625 12l0-7.5c0-.207.168-.375.375-.375l7.5 0c.207 0 .375.168.375.375l0 7.5a.375.375 0 0 1-.375.375zm.75-4.125a.75.75 0 0 1 .75-.75l1.5 0L5 6a.75.75 0 0 1 1.5 0l0 1.5 1.5 0A.75.75 0 0 1 8 9L6.5 9l0 1.5a.75.75 0 0 1-1.5 0L5 9 3.5 9a.75.75 0 0 1-.75-.75" clip-rule="evenodd"></path></svg>
