<svg xmlns="http://www.w3.org/2000/svg" fill="none" viewBox="0 0 14 14"><path fill="currentColor" fill-rule="evenodd" d="M7.734 1.273a3.18 3.18 0 0 0-2.067.46 3.17 3.17 0 0 0-1.318 1.652.85.85 0 0 1-.772.546 2.52 2.52 0 0 0-1.707.85 2.502 2.502 0 0 0 .655 3.827.625.625 0 1 1-.602 1.096 3.753 3.753 0 0 1 1.348-6.998 4.433 4.433 0 0 1 7.256-1.366 4.4 4.4 0 0 1 1.198 2.399 3.298 3.298 0 0 1 .7 5.95.625.625 0 1 1-.654-1.066 2.06 2.06 0 0 0 .966-1.516 2.05 2.05 0 0 0-1.573-2.229l-.035-.01a.87.87 0 0 1-.408-.263l.472-.409-.472.41a.87.87 0 0 1-.206-.476 3.17 3.17 0 0 0-.884-1.918 3.18 3.18 0 0 0-1.897-.939M7.8 7.4c-.195-.87-1.428-.864-1.616.007l-.02.097A2.65 2.65 0 0 1 4.047 9.57c-.896.159-.896 1.453 0 1.612a2.65 2.65 0 0 1 2.118 2.066l.02.097c.188.87 1.42.877 1.616.007l.025-.113a2.67 2.67 0 0 1 2.126-2.056c.898-.159.898-1.455 0-1.614a2.67 2.67 0 0 1-2.126-2.056z" clip-rule="evenodd"/></svg>
