<svg xmlns="http://www.w3.org/2000/svg" fill="none" viewBox="0 0 14 14"><path fill="currentColor" fill-rule="evenodd" d="M2.81.656C2.998-.214 4.23-.22 4.426.65l.025.113a2.67 2.67 0 0 0 2.126 2.056c.897.159.897 1.455 0 1.614A2.67 2.67 0 0 0 4.45 6.488l-.025.113c-.195.87-1.428.863-1.616-.007l-.02-.097A2.65 2.65 0 0 0 .672 4.43c-.896-.159-.896-1.453 0-1.612A2.65 2.65 0 0 0 2.79.753l.488.105L2.79.753zm8.209 4.12a.35.35 0 0 1 .384.078l.003.003 1.237 1.246.003.004a.35.35 0 0 1 0 .495l-.003.003-5.875 5.913-1.952.17.17-1.953 5.912-5.875.006-.006a.4.4 0 0 1 .114-.078m.135-1.277a1.6 1.6 0 0 0-1.14.477L3.942 10.01a.63.63 0 0 0-.182.39l-.253 2.92a.625.625 0 0 0 .676.677l2.921-.253a.63.63 0 0 0 .39-.182l6.034-6.074a1.6 1.6 0 0 0 0-2.266l-1.233-1.244a1.6 1.6 0 0 0-1.141-.479" clip-rule="evenodd"></path></svg>
