<svg xmlns="http://www.w3.org/2000/svg" fill="none" viewBox="0 0 14 14"><path fill="currentColor" fill-rule="evenodd" d="M11.176.65c-.195-.87-1.428-.865-1.616.006l-.02.097.489.105-.49-.105A2.65 2.65 0 0 1 7.423 2.82c-.896.159-.896 1.453 0 1.612A2.65 2.65 0 0 1 9.54 6.497l.02.097c.188.87 1.42.877 1.616.007l.025-.113a2.67 2.67 0 0 1 2.126-2.056c.897-.159.897-1.455 0-1.614A2.67 2.67 0 0 1 11.2.762zm-5.73 4.813A.625.625 0 1 0 5.1 4.26l-1.23.353a1.016 1.016 0 0 0-.746.973v2.036l0 .028v2.184a2.188 2.188 0 1 0 1.25 1.992l0-.015v-3.7l3.516-.976a.625.625 0 0 0-.335-1.204l-3.18.883V5.77zm3.773 3.85a.938.938 0 1 0 0 1.874.938.938 0 0 0 0-1.875m-2.188.937a2.188 2.188 0 0 1 3.348-1.855.625.625 0 0 1 1.028.478v1.377l0 .016a2.188 2.188 0 0 1-4.376-.016m-4.843.625a.938.938 0 1 0 0 1.875.938.938 0 0 0 0-1.875" clip-rule="evenodd"></path></svg>
