<svg xmlns="http://www.w3.org/2000/svg" fill="none" viewBox="0 0 14 14"><path fill="currentColor" fill-rule="evenodd" d="M11.176.65c-.195-.87-1.428-.865-1.616.006l-.02.097.489.105-.49-.105A2.65 2.65 0 0 1 7.423 2.82c-.896.159-.896 1.453 0 1.612A2.65 2.65 0 0 1 9.54 6.497l.02.097c.188.87 1.42.877 1.616.007l.025-.113a2.67 2.67 0 0 1 2.126-2.056c.897-.159.897-1.455 0-1.614A2.67 2.67 0 0 1 11.2.762zM5.799 2.731a.625.625 0 0 1-.623.626.19.19 0 0 0-.18.124l0 .001-.352.908a.63.63 0 0 1-.275.318l-1.211.688a.63.63 0 0 1-.403.074l-.959-.146a.19.19 0 0 0-.19.094l-.325.57-.004.008a.19.19 0 0 0 .014.217l.613.76c.09.11.138.25.138.392V8.74c0 .14-.047.276-.133.386l-.598.761-.002.004a.19.19 0 0 0-.016.218l.004.007.326.57a.19.19 0 0 0 .19.095l.959-.146a.63.63 0 0 1 .406.076l1.195.687a.63.63 0 0 1 .27.316l.353.909a.19.19 0 0 0 .18.124h.684a.19.19 0 0 0 .18-.123l0-.001.352-.909a.63.63 0 0 1 .27-.316l1.196-.687a.63.63 0 0 1 .406-.076l.959.146a.19.19 0 0 0 .19-.094l0-.001.326-.57.003-.007a.19.19 0 0 0-.014-.217l-.001-.001-.612-.759a.625.625 0 0 1 .973-.784l.614.76.002.004a1.44 1.44 0 0 1 .118 1.627l-.326.57-.001.003a1.44 1.44 0 0 1-1.444.707l-.01-.001-.75-.115-.813.469-.272.702a1.44 1.44 0 0 1-1.343.923l-.002 0h-.687l-.002 0a1.44 1.44 0 0 1-1.342-.923l-.272-.702-.814-.469-.75.115-.01.001a1.44 1.44 0 0 1-1.443-.707l-.002-.003-.326-.57A1.44 1.44 0 0 1 .33 9.115l.463-.59v-.938l-.475-.59-.002-.003a1.44 1.44 0 0 1-.118-1.627l.326-.57.001-.003a1.44 1.44 0 0 1 1.444-.707l.01.001.752.115.829-.47.27-.7 0-.001a1.44 1.44 0 0 1 1.343-.924.625.625 0 0 1 .627.624M5.51 6.04a2.013 2.013 0 1 0 0 4.027 2.013 2.013 0 0 0 0-4.027" clip-rule="evenodd"></path></svg>
