<svg xmlns="http://www.w3.org/2000/svg" fill="none" viewBox="0 0 14 14"><path fill="currentColor" fill-rule="evenodd" d="M7.75.759a.75.75 0 0 0-1.5 0V2.05a.75.75 0 1 0 1.5 0zm-.205 2.84a.625.625 0 0 0-1.113.566L.217 10.813a.625.625 0 0 0-.085.74l.597 1.033a.625.625 0 0 0 .683.296l1.575-.366.28.487.002.003a2.017 2.017 0 0 0 3.719-1.419l3.289-.763a.625.625 0 0 0 1.046-.682l-.183-.316-.032-.055-3.348-5.8-.032-.055zM3.127 11.2l.056-.013L9.62 9.693 7.083 5.299l-5.637 6.03.134.23zm1.222 1.176-.09-.156 1.51-.35a.767.767 0 0 1-1.42.506M11.2 7a.75.75 0 0 1 .75-.75h1.293a.75.75 0 0 1 0 1.5H11.95A.75.75 0 0 1 11.2 7M.76 6.25a.75.75 0 1 0 0 1.5h1.29a.75.75 0 0 0 0-1.5zm1.296-4.194a.75.75 0 0 1 1.06 0l.914.914a.75.75 0 0 1-1.06 1.06l-.914-.913a.75.75 0 0 1 0-1.06m9.889 1.061a.75.75 0 0 0-1.06-1.06l-.914.913a.75.75 0 1 0 1.06 1.06z" clip-rule="evenodd"></path></svg>
