<svg xmlns="http://www.w3.org/2000/svg" fill="none" viewBox="0 0 14 14"><path fill="currentColor" fill-rule="evenodd" d="M9.8 1.494A.875.875 0 1 0 8.564.256L7.315 1.504a.875.875 0 0 0 1.238 1.238zm.306 2.092a3.34 3.34 0 0 0-2.65.49.31.31 0 0 1-.286-.004 3.51 3.51 0 0 0-4.99 1.375 5.4 5.4 0 0 0-.57 3.517 7.4 7.4 0 0 0 2 4.295c.42.399.992.702 1.63.737s1.235-.202 1.695-.55a.61.61 0 0 1 .712-.004 2.55 2.55 0 0 0 3.307-.112 6.77 6.77 0 0 0 1.749-3.086.625.625 0 0 0-.52-.774 1.69 1.69 0 0 1-1.459-1.704l0-.01a1.7 1.7 0 0 1 1.188-1.618.625.625 0 0 0 .36-.894 3.34 3.34 0 0 0-2.166-1.658m-1.16 1.197a2.1 2.1 0 0 1 1.825.533 2.95 2.95 0 0 0-1.297 2.433 2.94 2.94 0 0 0 1.833 2.77 5.5 5.5 0 0 1-1.226 1.915 1.3 1.3 0 0 1-1.683.01 1.86 1.86 0 0 0-2.209 0l-.006.003c-.276.21-.59.317-.874.302-.28-.016-.579-.154-.827-.386a6.14 6.14 0 0 1-1.638-3.599 4.16 4.16 0 0 1 .438-2.728l.008-.015a2.26 2.26 0 0 1 3.248-.871 1.56 1.56 0 0 0 1.602-.03c.241-.168.516-.283.805-.338" clip-rule="evenodd"></path></svg>
