<svg xmlns="http://www.w3.org/2000/svg" fill="none" viewBox="0 0 14 14"><path fill="currentColor" fill-rule="evenodd" d="M0 3.978c0-.84.661-1.604 1.573-1.59.945.014 1.71.17 2.507.533.765.35 1.54.884 2.51 1.612a2.5 2.5 0 0 1 .82 0c.97-.728 1.745-1.262 2.51-1.612.797-.363 1.562-.519 2.507-.533.912-.014 1.573.75 1.573 1.59v6.024c0 .827-.64 1.584-1.539 1.589-.944.005-1.704-.14-2.502-.503-.766-.347-1.55-.885-2.548-1.622a2.5 2.5 0 0 1-.822 0c-.999.737-1.782 1.275-2.548 1.622-.799.362-1.558.508-2.502.503C.64 11.586 0 10.829 0 10.002zm8.685 4.87c.725.518 1.276.869 1.79 1.102.614.278 1.191.395 1.98.39.14 0 .295-.126.295-.338V3.978c0-.215-.16-.342-.304-.34-.797.012-1.389.138-2.007.42-.512.234-1.056.581-1.759 1.091.504.457.82 1.117.82 1.851 0 .732-.314 1.39-.815 1.847M3.56 4.057c.513.234 1.057.581 1.76 1.09A2.5 2.5 0 0 0 4.5 7c0 .732.314 1.39.815 1.847-.725.52-1.276.87-1.79 1.103-.613.278-1.191.395-1.98.39-.14 0-.295-.126-.295-.338V3.978c0-.215.16-.342.304-.34.797.012 1.389.138 2.006.42" clip-rule="evenodd"></path></svg>
