<svg xmlns="http://www.w3.org/2000/svg" fill="none" viewBox="0 0 14 14"><path fill="currentColor" fill-rule="evenodd" d="M11.49 1.625 8.697 4.42c-1.557-1.317-3.417-1.8-4.9-1.953a12 12 0 0 0-2.668.024l-.219.033-.014.002H.892l-.002.001.111.615-.112-.615a.625.625 0 0 0 .224 1.23l.006-.001.033-.005.138-.02a9 9 0 0 1 .8-.067v6.997H1a.625.625 0 0 0 0 1.25h1.09V13a.625.625 0 1 0 1.25 0v-1.09h6.996a10 10 0 0 1-.067.8l-.02.139-.005.032v.007a.625.625 0 0 0 1.23.223l-.571-.104.57.104v-.002l.001-.005.003-.014.004-.026.004-.021.024-.171c.019-.146.042-.355.06-.613a12 12 0 0 0-.036-2.056c-.153-1.482-.635-3.342-1.952-4.9l2.795-2.794V4.5a.625.625 0 1 0 1.25 0V1.009a.623.623 0 0 0-.615-.634H9.5a.625.625 0 1 0 0 1.25zm-1.172 9.036a10 10 0 0 0-.029-.33c-.136-1.313-.55-2.857-1.597-4.14l-4.47 4.47zm-6.979-.884V3.68q.16.012.329.03c1.313.135 2.858.549 4.14 1.596z" clip-rule="evenodd"/></svg>
