<svg xmlns="http://www.w3.org/2000/svg" fill="none" viewBox="0 0 14 14"><path fill="currentColor" fill-rule="evenodd" d="M4.5.875a.625.625 0 0 0-.625.625 3.13 3.13 0 0 0 .708 1.98c-.573.307-1.08.72-1.497 1.212a4.1 4.1 0 0 0-2.463-.817.625.625 0 1 0 .004 1.25 2.84 2.84 0 0 1 1.772.615 5.1 5.1 0 0 0-.486 1.635H.625a.625.625 0 1 0 0 1.25h1.288c.07.58.238 1.13.486 1.635a2.83 2.83 0 0 1-1.772.615.625.625 0 0 0-.004 1.25 4.1 4.1 0 0 0 2.463-.817A5.11 5.11 0 0 0 7 13.125a5.11 5.11 0 0 0 3.914-1.817 4.1 4.1 0 0 0 2.463.817.625.625 0 1 0-.004-1.25 2.83 2.83 0 0 1-1.772-.615 5.1 5.1 0 0 0 .486-1.635h1.288a.625.625 0 1 0 0-1.25h-1.288a5.1 5.1 0 0 0-.486-1.635 2.83 2.83 0 0 1 1.772-.615.625.625 0 1 0 .004-1.25 4.1 4.1 0 0 0-2.463.817A5.2 5.2 0 0 0 9.417 3.48a3.13 3.13 0 0 0 .708-1.98.625.625 0 0 0-1.25 0 1.88 1.88 0 0 1-.75 1.499 5.14 5.14 0 0 0-2.25 0 1.88 1.88 0 0 1-.75-1.5A.625.625 0 0 0 4.5.876M10.745 7A3.88 3.88 0 0 1 7 11.875 3.875 3.875 0 0 1 3.255 7z" clip-rule="evenodd"></path></svg>
