<svg xmlns="http://www.w3.org/2000/svg" fill="none" viewBox="0 0 14 14"><path fill="currentColor" fill-rule="evenodd" d="M2.145.596a1.77 1.77 0 0 1 1.749.02l7.972 4.894a1.651 1.651 0 0 1 .001 2.943l-7.971 4.93-.022.013a1.77 1.77 0 0 1-1.729.007 1.68 1.68 0 0 1-.913-1.465V2.062A1.68 1.68 0 0 1 2.145.596m.858 1.029a.5.5 0 0 0-.285.082.43.43 0 0 0-.236.372v9.842a.43.43 0 0 0 .264.387.52.52 0 0 0 .505.004l7.983-4.938.058-.031a.402.402 0 0 0 0-.723l-.056-.03-7.985-4.902a.5.5 0 0 0-.248-.063" clip-rule="evenodd"/></svg>
