<svg xmlns="http://www.w3.org/2000/svg" fill="none" viewBox="0 0 14 14"><path fill="currentColor" fill-rule="evenodd" d="M7.625.663a.625.625 0 1 0-1.25 0v5.395a.625.625 0 1 0 1.25 0zm-4.012 2.09a.75.75 0 0 0-.918-1.187A6.95 6.95 0 0 0 .289 5.07a6.9 6.9 0 0 0 .093 4.24 6.96 6.96 0 0 0 2.555 3.397 7.035 7.035 0 0 0 8.126 0 6.96 6.96 0 0 0 2.555-3.396 6.9 6.9 0 0 0 .093-4.24 6.95 6.95 0 0 0-2.406-3.504.75.75 0 1 0-.918 1.186A5.46 5.46 0 0 1 12.274 5.5a5.4 5.4 0 0 1-.073 3.32 5.46 5.46 0 0 1-2.004 2.663 5.535 5.535 0 0 1-6.394 0A5.46 5.46 0 0 1 1.8 8.818a5.4 5.4 0 0 1-.073-3.32 5.45 5.45 0 0 1 1.887-2.746" clip-rule="evenodd"></path></svg>
