<svg xmlns="http://www.w3.org/2000/svg" fill="none" viewBox="0 0 14 14"><path fill="currentColor" fill-rule="evenodd" d="M3.5.25c.345 0 .625.28.625.625V2h5.75V.875a.625.625 0 1 1 1.25 0V2H12a1.625 1.625 0 0 1 1.625 1.625v8.25A1.625 1.625 0 0 1 12 13.5H2a1.625 1.625 0 0 1-1.625-1.625v-8.25A1.625 1.625 0 0 1 2 2h.875V.875c0-.345.28-.625.625-.625m6.375 3v.625a.625.625 0 1 0 1.25 0V3.25H12a.375.375 0 0 1 .375.375v8.25a.375.375 0 0 1-.375.375H2a.375.375 0 0 1-.375-.375v-8.25A.375.375 0 0 1 2 3.25h.875v.625a.625.625 0 1 0 1.25 0V3.25zm-2.89 1.5a.74.74 0 0 1 .67.399l.003.007.648 1.303 1.435.218a.738.738 0 0 1 .403 1.27l-.998.949.211 1.484a.738.738 0 0 1-1.088.776l-1.273-.674-1.273.674a.739.739 0 0 1-1.086-.784l.244-1.445-1.035-.99-.01-.01a.739.739 0 0 1 .407-1.248l.007-.002 1.437-.21.646-1.299a.74.74 0 0 1 .651-.418" clip-rule="evenodd"/></svg>
