<svg xmlns="http://www.w3.org/2000/svg" fill="none" viewBox="0 0 14 14"><path fill="currentColor" fill-rule="evenodd" d="M1.612 2.304a.75.75 0 0 0 .97 1.144A7.16 7.16 0 0 1 7.004 1.75a7.15 7.15 0 0 1 4.413 1.697.75.75 0 0 0 .972-1.143A8.65 8.65 0 0 0 6.983.25a8.66 8.66 0 0 0-5.37 2.054m2.465 1.981a.75.75 0 0 0 .868 1.223c.652-.463 1.36-.715 2.072-.756.712.04 1.423.29 2.076.753a.75.75 0 0 0 .867-1.224c-.88-.623-1.877-.982-2.91-1.029l-.07 0c-1.031.05-2.025.41-2.903 1.033m5.335 4.117a.68.68 0 0 0-.68.68v2.612a.68.68 0 0 0 .68.681h.871a.68.68 0 0 0 .68-.68v-.246h-.68a.625.625 0 0 1 0-1.25h1.306c.345 0 .625.28.625.625v.87a1.93 1.93 0 0 1-1.931 1.931h-.87a1.93 1.93 0 0 1-1.931-1.93V9.082a1.93 1.93 0 0 1 1.93-1.931h.871a1.93 1.93 0 0 1 1.82 1.287.625.625 0 0 1-1.178.417.68.68 0 0 0-.642-.454zm-3.74 0-2.297 0-.167.999q.34-.075.689-.074h.688a1.93 1.93 0 0 1 1.93 1.93v.435a1.93 1.93 0 0 1-1.93 1.93h-.87a1.93 1.93 0 0 1-1.82-1.287.625.625 0 1 1 1.179-.416.68.68 0 0 0 .641.453h.87a.68.68 0 0 0 .68-.68l0-.435a.68.68 0 0 0-.68-.68h-.688a2 2 0 0 0-.888.21l-.32.159a.625.625 0 0 1-.895-.662l.435-2.61a.625.625 0 0 1 .616-.522h2.828a.625.625 0 0 1 0 1.25" clip-rule="evenodd"></path></svg>
