<svg xmlns="http://www.w3.org/2000/svg" fill="none" viewBox="0 0 14 14"><path fill="currentColor" fill-rule="evenodd" d="M4.026.18a.625.625 0 0 0-.747.386l-1.926 5.19A2.903 2.903 0 0 0 2.736 9.34l-.729 2.722-.845-.227a.625.625 0 1 0-.324 1.207l1.437.385.012.004.013.003 1.436.385a.625.625 0 1 0 .324-1.208l-.845-.226.729-2.721a2.903 2.903 0 0 0 2.99-2.414l.927-5.457a.625.625 0 0 0-.454-.708zm-.603 3.591.83-2.236 2.28.61-.399 2.353zm4.159 4.705c.158-.326.274-.68.338-1.057l.523-3.075 2.135-.573-.83-2.236-.185.05A.625.625 0 1 1 9.24.376L9.974.18a.625.625 0 0 1 .748.386l1.925 5.19a2.903 2.903 0 0 1-1.383 3.585l.73 2.722.844-.227a.625.625 0 0 1 .324 1.207l-1.437.385-.012.004-.012.003-1.437.385a.625.625 0 0 1-.323-1.207l.845-.227-.73-2.721a2.91 2.91 0 0 1-2.474-1.19" clip-rule="evenodd"/></svg>
