<svg xmlns="http://www.w3.org/2000/svg" fill="none" viewBox="0 0 14 14"><path fill="currentColor" fill-rule="evenodd" d="M7.75 3.125a3.125 3.125 0 1 1 6.25 0 3.125 3.125 0 0 1-6.25 0M6.548 1.266A.625.625 0 0 0 6.452.02 7.002 7.002 0 0 0 .998 10.605l-.959 2.551a.625.625 0 0 0 .696.835l3.379-.611a7 7 0 0 0 9.866-5.832.625.625 0 1 0-1.246-.096 5.752 5.752 0 0 1-8.203 4.744.62.62 0 0 0-.438-.083l-.005.001-2.491.45.68-1.81.001-.003a.63.63 0 0 0-.096-.609 5.75 5.75 0 0 1 4.366-8.876" clip-rule="evenodd"></path></svg>
