<svg xmlns="http://www.w3.org/2000/svg" fill="none" viewBox="0 0 14 14"><path fill="currentColor" fill-rule="evenodd" d="M5.55 3.904c-.798-.008-1.605.277-2.333.859C2.55 5.296 1.976 6.06 1.562 7c.414.94.988 1.704 1.655 2.237.728.582 1.535.867 2.334.859h.007c.807 0 1.648-.375 2.494-1.041C8.76 8.498 9.428 7.77 10.027 7c-.6-.771-1.267-1.498-1.975-2.055-.846-.666-1.687-1.04-2.494-1.04zm5.383 4.366c-.582.712-1.238 1.4-1.953 1.964-.985.775-2.146 1.36-3.419 1.362-1.177.01-2.313-.413-3.28-1.187C1.314 9.636.55 8.545.051 7.274a.75.75 0 0 1 0-.548c.5-1.271 1.263-2.362 2.228-3.135.968-.774 2.104-1.197 3.281-1.187 1.273.001 2.434.587 3.419 1.363.715.562 1.371 1.25 1.953 1.963a25 25 0 0 0 1.6-2.812l.027-.06.007-.014.001-.002a.75.75 0 0 1 1.364.625l-.647-.297.647.297-.004.008-.009.019a10 10 0 0 1-.157.325A26 26 0 0 1 11.885 7a26 26 0 0 1 2.034 3.506l.009.02.003.006-.681.314.682-.313a.75.75 0 0 1-1.364.626l-.001-.003-.007-.014-.028-.06-.113-.232a25 25 0 0 0-1.486-2.58" clip-rule="evenodd"/></svg>
