<svg xmlns="http://www.w3.org/2000/svg" fill="none" viewBox="0 0 14 14"><path fill="currentColor" fill-rule="evenodd" d="M2.463.918a11.67 11.67 0 0 1 9.074 0 .75.75 0 0 1-.583 1.382 10.17 10.17 0 0 0-7.908 0A.75.75 0 1 1 2.463.918m1.651 2.278a8.97 8.97 0 0 1 5.771 0 .75.75 0 1 1-.482 1.42 7.47 7.47 0 0 0-4.806 0 .75.75 0 0 1-.483-1.42M7.74 5.423a3.75 3.75 0 0 0-3.882 2.211 3.203 3.203 0 0 0 .674 6.364h5.515l.003 0a2.83 2.83 0 0 0 .932-5.496A3.75 3.75 0 0 0 7.74 5.423M5.964 7.026A2.498 2.498 0 0 1 9.78 8.95a.82.82 0 0 0 .615.68 1.58 1.58 0 0 1-.351 3.118H4.513l-.042.002a1.953 1.953 0 0 1-.278-3.897.81.81 0 0 0 .734-.523 2.5 2.5 0 0 1 1.037-1.304" clip-rule="evenodd"></path></svg>
