<svg xmlns="http://www.w3.org/2000/svg" fill="none" viewBox="0 0 14 14"><path fill="currentColor" fill-rule="evenodd" d="M7.884.032a4.43 4.43 0 0 0-4.614 2.68 3.763 3.763 0 0 0-1.985 6.564c.771.674 1.74.923 2.687.923h.403a.625.625 0 1 0 0-1.25h-.403c-.736 0-1.382-.192-1.864-.614a2.513 2.513 0 0 1 1.468-4.398.85.85 0 0 0 .772-.546 3.177 3.177 0 0 1 6.171.78.87.87 0 0 0 .645.716 2.059 2.059 0 0 1-.458 4.062H9.625a.625.625 0 0 0 0 1.25h1.087a3.308 3.308 0 0 0 1.014-6.452A4.43 4.43 0 0 0 7.884.032M7.75 7.5a.75.75 0 0 0-1.5 0v3a.75.75 0 0 0 1.5 0zM6 13a1 1 0 1 0 2 0 1 1 0 0 0-2 0" clip-rule="evenodd"/></svg>
