<svg xmlns="http://www.w3.org/2000/svg" fill="none" viewBox="0 0 14 14"><path fill="currentColor" fill-rule="evenodd" d="M5.004.674a4.427 4.427 0 0 1 6.722 3.073 3.309 3.309 0 0 1 .484 6.084.625.625 0 0 1-.574-1.111 2.057 2.057 0 0 0 .74-3.015 2.06 2.06 0 0 0-1.247-.828.87.87 0 0 1-.614-.739 3.177 3.177 0 0 0-6.167-.747.85.85 0 0 1-.772.546 2.513 2.513 0 0 0-1.14 4.641.625.625 0 0 1-.659 1.062A3.763 3.763 0 0 1 3.27 2.712 4.43 4.43 0 0 1 5.004.674M4.62 8.232a3.375 3.375 0 1 1 4.76 4.786 3.375 3.375 0 0 1-4.76-4.786m.502 1.398a2.125 2.125 0 0 0 2.873 2.873zm3.756 1.99L6.005 8.747a2.125 2.125 0 0 1 2.873 2.873" clip-rule="evenodd"/></svg>
