<svg xmlns="http://www.w3.org/2000/svg" fill="none" viewBox="0 0 14 14"><path fill="currentColor" fill-rule="evenodd" d="M5.004.674a4.427 4.427 0 0 1 6.722 3.073 3.309 3.309 0 0 1-.079 6.311.625.625 0 1 1-.36-1.197 2.058 2.058 0 0 0-.123-3.974l-.035-.01a.87.87 0 0 1-.614-.739 3.177 3.177 0 0 0-6.167-.747.85.85 0 0 1-.772.546 2.513 2.513 0 0 0-.843 4.799.625.625 0 0 1-.512 1.14 3.762 3.762 0 0 1 1.05-7.164A4.43 4.43 0 0 1 5.003.674M7 7.5a.75.75 0 0 1 .75.75V10H9.5a.75.75 0 0 1 0 1.5H7.75v1.75a.75.75 0 0 1-1.5 0V11.5H4.5a.75.75 0 0 1 0-1.5h1.75V8.25A.75.75 0 0 1 7 7.5" clip-rule="evenodd"></path></svg>
