<svg xmlns="http://www.w3.org/2000/svg" fill="none" viewBox="0 0 14 14"><path fill="currentColor" fill-rule="evenodd" d="M7.884.032a4.43 4.43 0 0 0-4.614 2.68 3.763 3.763 0 0 0-1.178 7.103.625.625 0 0 0 .555-1.12 2.512 2.512 0 0 1 .93-4.758.85.85 0 0 0 .771-.546 3.177 3.177 0 0 1 6.171.78.87.87 0 0 0 .645.716 2.059 2.059 0 0 1 .428 3.855.625.625 0 0 0 .547 1.124 3.3 3.3 0 0 0 1.84-2.604 3.31 3.31 0 0 0-2.253-3.515A4.43 4.43 0 0 0 7.884.032M10.36 8.72a.75.75 0 0 0-1.171-.938l-3.546 4.433-1.419-1.064a.75.75 0 1 0-.9 1.2l2 1.5a.75.75 0 0 0 1.036-.131z" clip-rule="evenodd"/></svg>
