<svg xmlns="http://www.w3.org/2000/svg" fill="none" viewBox="0 0 14 14"><path fill="currentColor" fill-rule="evenodd" d="M3.404 4.086a.75.75 0 0 1-.117-1.054.8.8 0 0 0 .145-.234 2 2 0 0 0-.152-.213l-.021-.028c-.122-.155-.367-.467-.432-.88-.078-.499.114-.963.46-1.395a.75.75 0 0 1 1.171.937.8.8 0 0 0-.145.233c.01.02.045.075.152.213l.022.028c.122.155.367.467.431.88.079.499-.114.963-.46 1.396a.75.75 0 0 1-1.054.117m.905-2.614.002-.01q0 .01-.002.01m-.873 1.306v.01zM2.5 5C1.603 5 .875 5.728.875 6.625v4.75A2.625 2.625 0 0 0 3.5 14h4c1.234 0 2.27-.852 2.55-2h.2a3 3 0 1 0 0-6H10c-.244-.587-.824-1-1.5-1zm7.625 2.5v3h.125a1.5 1.5 0 1 0 0-3zm-8-.875c0-.207.168-.375.375-.375h6c.207 0 .375.168.375.375v4.75c0 .76-.616 1.375-1.375 1.375h-4c-.76 0-1.375-.616-1.375-1.375zm4.412-3.593a.75.75 0 0 0 1.171.937c.346-.433.539-.897.46-1.396-.064-.413-.31-.725-.43-.88l-.023-.028a2 2 0 0 1-.152-.213.8.8 0 0 1 .145-.233.75.75 0 0 0-1.17-.937c-.347.432-.54.896-.46 1.395.064.413.31.725.43.88l.022.028c.107.138.142.194.152.213a.8.8 0 0 1-.145.234m1.022-1.56.002-.01q0 .01-.002.01m-.873 1.306v.01z" clip-rule="evenodd"/></svg>
