<svg xmlns="http://www.w3.org/2000/svg" fill="none" viewBox="0 0 14 14"><path fill="currentColor" fill-rule="evenodd" d="M10.782 2.315c-1.807-1.238-4.8-.827-7.047 1.42-1.988 1.989-2.539 4.56-1.782 6.379.592-1.367 1.264-2.27 2.028-2.87.971-.763 1.995-.948 2.814-1.096l.049-.009c.852-.155 1.486-.282 2.095-.76.578-.453 1.223-1.304 1.843-3.064m-7.564 9.37c1.807 1.238 4.8.827 7.047-1.42 1.989-1.989 2.54-4.56 1.782-6.379-.592 1.367-1.264 2.27-2.027 2.87-.972.763-1.996.948-2.815 1.096l-.049.009c-.852.154-1.486.282-2.095.76-.578.453-1.223 1.304-1.843 3.064M12.16 1.84C9.775-.544 5.596.107 2.85 2.851.107 5.596-.544 9.775 1.841 12.16s6.563 1.733 9.308-1.011c2.744-2.745 3.395-6.924 1.01-9.309" clip-rule="evenodd"/></svg>
