<svg xmlns="http://www.w3.org/2000/svg" fill="none" viewBox="0 0 14 14"><path fill="currentColor" fill-rule="evenodd" d="m6.598-.001-.002 0a1.61 1.61 0 0 0-1.493 1.027l-.341.881-1.07.607-.943-.144-.01-.001a1.61 1.61 0 0 0-1.606.787l-.002.003-.39.683a1.61 1.61 0 0 0 .13 1.811l.002.003.597.74v1.212l-.581.74a1.61 1.61 0 0 0-.129 1.81l.39.683.002.003a1.61 1.61 0 0 0 1.606.787l.01-.001.942-.144 1.05.605.343.882a1.61 1.61 0 0 0 1.493 1.028l.002 0h.824l.002 0a1.605 1.605 0 0 0 1.493-1.027l.342-.883 1.051-.605.941.144.01.001a1.61 1.61 0 0 0 1.606-.787l.002-.003.39-.683a1.61 1.61 0 0 0-.13-1.811l-.002-.003-.597-.74V6.391l.581-.74a1.61 1.61 0 0 0 .13-1.81l-.391-.683-.002-.003a1.61 1.61 0 0 0-1.606-.787l-.01.001-.941.144-1.052-.605-.341-.882A1.61 1.61 0 0 0 7.404-.001h-.002zm.001 1.25h.802a.36.36 0 0 1 .33.228l.423 1.09a.63.63 0 0 0 .27.315l1.433.824a.62.62 0 0 0 .406.076l1.15-.175a.36.36 0 0 1 .352.174l.392.684.003.007a.36.36 0 0 1-.028.402l-.003.004-.716.912a.63.63 0 0 0-.133.386v1.648c0 .143.049.281.138.392l.734.91a.36.36 0 0 1 .028.402l-.004.007-.39.683-.001.001a.36.36 0 0 1-.351.174l-1.152-.175a.63.63 0 0 0-.406.076l-1.432.824a.63.63 0 0 0-.27.316l-.423 1.089a.36.36 0 0 1-.33.228h-.822a.36.36 0 0 1-.33-.228l-.422-1.09a.63.63 0 0 0-.271-.315l-1.433-.824a.63.63 0 0 0-.406-.076l-1.15.175a.36.36 0 0 1-.352-.174l-.391-.684-.004-.007a.36.36 0 0 1 .028-.402l.003-.004.716-.912a.63.63 0 0 0 .133-.386V6.176a.63.63 0 0 0-.138-.392l-.734-.91a.36.36 0 0 1-.028-.402l.004-.007.391-.684a.36.36 0 0 1 .352-.174l1.15.175a.63.63 0 0 0 .404-.074l1.451-.824a.63.63 0 0 0 .275-.318l.421-1.088 0-.001a.36.36 0 0 1 .331-.228M4.75 7a2.25 2.25 0 1 0 4.5 0 2.25 2.25 0 0 0-4.5 0" clip-rule="evenodd"></path></svg>
