<svg xmlns="http://www.w3.org/2000/svg" fill="none" viewBox="0 0 14 14"><path fill="currentColor" fill-rule="evenodd" d="M6.125 0c-1.576 0-3.03.245-4.114.663-.54.208-1.02.47-1.375.795C.281 1.782 0 2.216 0 2.744v6.761c0 .46.214.852.504 1.157.286.303.673.552 1.107.755.869.407 2.04.683 3.34.787a.625.625 0 1 0 .099-1.246c-1.2-.097-2.215-.348-2.91-.673-.347-.163-.586-.331-.729-.483-.14-.148-.161-.246-.161-.297V7.851q.174.099.36.186c.87.407 2.042.683 3.34.787a.625.625 0 0 0 .1-1.246c-1.2-.097-2.215-.348-2.91-.673-.347-.163-.586-.331-.729-.482-.14-.149-.161-.247-.161-.298V4.471c.233.133.49.252.761.356 1.084.418 2.538.663 4.114.663s3.03-.245 4.114-.663q.41-.156.761-.356V5a.625.625 0 1 0 1.25 0V2.745c0-.529-.28-.963-.636-1.287S10.779.87 10.239.663C9.155.245 7.7 0 6.125 0m4.169 6.465-.002 0a1 1 0 0 0-.932.642l-.152.39-.438.25-.421-.065-.009 0a1 1 0 0 0-1.002.49l-.002.003-.2.35a1 1 0 0 0 .083 1.13l.001.002.267.33v.491l-.267.33-.001.003a1 1 0 0 0-.083 1.13l.2.35.002.002a1 1 0 0 0 1.002.491l.009-.001.421-.065.438.25.152.39a1 1 0 0 0 .932.642l.002 0 .206 0 .206 0 .002 0a1 1 0 0 0 .932-.641l.152-.392.438-.249.422.065.008.001a1 1 0 0 0 1.002-.491l.002-.003.2-.35a1 1 0 0 0-.082-1.13l-.002-.002-.267-.33v-.491l.267-.33.002-.003a1 1 0 0 0 .082-1.13l-.2-.35-.002-.002a1 1 0 0 0-1.002-.49l-.008 0-.422.065-.438-.25-.152-.39a1 1 0 0 0-.932-.642l-.002 0-.206 0zM10.5 9a1.25 1.25 0 1 0 0 2.5 1.25 1.25 0 0 0 0-2.5" clip-rule="evenodd"></path></svg>
