<svg xmlns="http://www.w3.org/2000/svg" fill="none" viewBox="0 0 14 14"><path fill="currentColor" fill-rule="evenodd" d="M6.125 0c-1.576 0-3.03.245-4.114.663-.54.208-1.02.47-1.375.795C.281 1.782 0 2.216 0 2.744l0 .001v6.76c0 .854.705 1.451 1.431 1.824.774.398 1.822.68 2.995.82a.625.625 0 0 0 .148-1.241c-1.082-.13-1.972-.383-2.572-.69-.648-.334-.752-.614-.752-.713V7.851c.233.133.49.252.761.356 1.084.418 2.538.663 4.114.663.886 0 1.73-.077 2.489-.218a.625.625 0 1 0-.228-1.229c-.679.126-1.446.197-2.261.197-1.462 0-2.757-.23-3.664-.58-.456-.175-.782-.368-.983-.552-.2-.183-.228-.306-.228-.363V4.471c.233.133.49.252.761.356 1.084.418 2.538.663 4.114.663s3.03-.245 4.114-.663q.41-.156.761-.356V6a.625.625 0 1 0 1.25 0V2.745c0-.529-.28-.963-.636-1.287S10.779.87 10.239.663C9.155.245 7.7 0 6.125 0m7.594 7.664a.75.75 0 0 1 .117 1.055l-4 5a.75.75 0 0 1-1.036.131l-2-1.5a.75.75 0 1 1 .9-1.2l1.418 1.064 3.546-4.433a.75.75 0 0 1 1.054-.117" clip-rule="evenodd"></path></svg>
