<svg xmlns="http://www.w3.org/2000/svg" fill="none" viewBox="0 0 14 14"><path fill="currentColor" fill-rule="evenodd" d="M4.25 5.5a4.25 4.25 0 1 1 8.5 0 4.25 4.25 0 0 1-8.5 0m4.496 5.495A4.502 4.502 0 0 1 0 9.5a4.5 4.5 0 0 1 3.005-4.246 5.5 5.5 0 1 1 5.74 5.74m.384-8.428a.625.625 0 1 0-1.25 0v.28a1.535 1.535 0 0 0-.152 3.024l1.201.263a.395.395 0 0 1-.084.78h-.68a.395.395 0 0 1-.372-.263.625.625 0 1 0-1.178.416c.194.552.675.969 1.265 1.072v.294a.625.625 0 0 0 1.25 0v-.294a1.645 1.645 0 0 0 .066-3.227l-1.2-.261a.285.285 0 0 1 .06-.564h.79a.39.39 0 0 1 .372.263.625.625 0 0 0 1.178-.416A1.65 1.65 0 0 0 9.13 2.86z" clip-rule="evenodd"/></svg>
