<svg xmlns="http://www.w3.org/2000/svg" fill="none" viewBox="0 0 14 14"><path fill="currentColor" fill-rule="evenodd" d="M9.839 1.087a.625.625 0 0 1 .699 0l3.187 2.148a.625.625 0 0 1 0 1.036l-2.421 1.631 2.42 1.632a.625.625 0 0 1 0 1.036l-3.186 2.148-.05.03-3.137 2.114a.625.625 0 0 1-.698 0l-3.124-2.105-.067-.04L.275 8.57a.625.625 0 0 1 0-1.036l2.42-1.632-2.42-1.63a.625.625 0 0 1 0-1.037l3.187-2.148a.625.625 0 0 1 .699 0L7 3zm-4.905 9.11L7 8.805l2.067 1.393-2.065 1.392zM5.88 8.05 3.811 6.658 1.743 8.052 3.81 9.445zm2.24-4.298 2.07 1.394 2.068-1.394-2.069-1.394zm2.072 5.69 2.066-1.391-2.069-1.394L8.123 8.05zm-8.449-5.69 2.07 1.394L5.88 3.753 3.811 2.359z" clip-rule="evenodd"></path></svg>
