<svg xmlns="http://www.w3.org/2000/svg" fill="none" viewBox="0 0 14 14"><path fill="currentColor" fill-rule="evenodd" d="M6.529 1.438v1.09a1.98 1.98 0 0 0 1.98 1.982.98.98 0 0 1 .981.98v1.27a1.98 1.98 0 0 0 1.981 1.98h.519a4.9 4.9 0 0 1-.962 1.104.625.625 0 1 0 .809.952A6.125 6.125 0 1 0 1.83 5.137a.625.625 0 1 0 1.233.2A4.88 4.88 0 0 1 6.53 1.439M1.485 7.096a.59.59 0 0 0-.7.398l-.76 2.81-.002.01a.92.92 0 0 0 .67 1.097l2.359.638-.543.575a.61.61 0 0 0 .286 1.028l1.196.329.008.002a.64.64 0 0 0 .558-.132l.004-.002 1.25-1.081.103.009 2.625.703a.91.91 0 0 0 1.14-.65l.002-.008A2.73 2.73 0 0 0 7.148 9.52l-4.171-.493V7.946a.59.59 0 0 0-.416-.555l-.008-.003-1.06-.29z" clip-rule="evenodd"/></svg>
