<svg xmlns="http://www.w3.org/2000/svg" fill="none" viewBox="0 0 14 14"><path fill="currentColor" fill-rule="evenodd" d="M1 3.625c.345 0 .625-.28.625-.625l0-1c0-.207.168-.375.375-.375l1 0a.625.625 0 1 0 0-1.25l-1 0C1.103.375.375 1.103.375 2l0 1c0 .345.28.625.625.625M.375 7l0-1.5a.625.625 0 1 1 1.25 0l0 1.5 10.75 0 0-1.5a.625.625 0 1 1 1.25 0l0 1.5 0 5c0 .898-.727 1.625-1.625 1.625l-10 0A1.625 1.625 0 0 1 .375 12zM5.5 1.625a.625.625 0 1 1 0-1.25l3 0a.625.625 0 1 1 0 1.25zm7.5 2c.345 0 .625-.28.625-.625l0-1c0-.897-.727-1.625-1.625-1.625l-1 0a.625.625 0 1 0 0 1.25l1 0c.207 0 .375.168.375.375l0 1c0 .345.28.625.625.625" clip-rule="evenodd"></path></svg>
