<svg xmlns="http://www.w3.org/2000/svg" fill="none" viewBox="0 0 14 14"><path fill="currentColor" fill-rule="evenodd" d="M6.648.312a.625.625 0 0 1 .854-.23c2.822 1.63 3.286 5.006 2.01 7.694 1.471-.719 2.48-2.082 2.48-3.8a.625.625 0 0 1 1.25 0c0 3.254-2.685 5.342-5.645 5.587 1.36.908 3.039 1.101 4.518.247a.625.625 0 1 1 .625 1.083c-2.813 1.624-5.966.331-7.66-2.098-.109 1.632.564 3.185 2.043 4.04a.625.625 0 0 1-.625 1.082c-2.813-1.624-3.27-5-2.013-7.683-1.468.722-2.476 2.081-2.476 3.79a.625.625 0 1 1-1.25 0c0-3.253 2.704-5.338 5.66-5.586-1.359-.916-3.044-1.108-4.533-.249a.625.625 0 0 1-.625-1.082c2.821-1.63 5.978-.343 7.668 2.106.112-1.634-.564-3.188-2.052-4.048a.625.625 0 0 1-.23-.853" clip-rule="evenodd"/></svg>
