<svg xmlns="http://www.w3.org/2000/svg" fill="none" viewBox="0 0 14 14"><path fill="currentColor" fill-rule="evenodd" d="M9.5 0a.5.5 0 0 0-.354.854l.808.808-1.013 1.013a4.125 4.125 0 1 0-3.066 7.403v1.172H5a.625.625 0 1 0 0 1.25h.875v.875a.625.625 0 1 0 1.25 0V12.5H8a.625.625 0 1 0 0-1.25h-.875v-1.172a4.126 4.126 0 0 0 2.7-6.52l1.013-1.013.808.809A.5.5 0 0 0 12.5 3V.5A.5.5 0 0 0 12 0zm-.967 3.967-.003-.003a2.875 2.875 0 1 0 .007.007zM4.875 5c0-.345.28-.625.625-.625h2a.625.625 0 1 1 0 1.25h-2A.625.625 0 0 1 4.875 5M5.5 6.375a.625.625 0 1 0 0 1.25h2a.625.625 0 1 0 0-1.25z" clip-rule="evenodd"></path></svg>
