<svg xmlns="http://www.w3.org/2000/svg" fill="none" viewBox="0 0 14 14"><path fill="currentColor" fill-rule="evenodd" d="M1.29 5.376a4.76 4.76 0 0 1 3.383-3.938 9.1 9.1 0 0 0-1.276 3.938zm7.369 0c-.112-1.391-.62-2.76-1.327-3.937a4.76 4.76 0 0 1 3.38 3.937zm2.06 1.25H8.647l-.016.138a.625.625 0 0 1-1.242-.138H4.647q.063.758.298 1.505a.625.625 0 1 1-1.193.376 8.2 8.2 0 0 1-.36-1.88h-2.1a4.75 4.75 0 0 0 2.278 3.457.625.625 0 1 1-.641 1.073A6.001 6.001 0 0 1 6.002 0a6 6 0 0 1 5.963 6.675.625.625 0 0 1-1.246-.049M6.002 1.674c.744 1.106 1.277 2.413 1.402 3.702H4.652c.119-1.3.59-2.57 1.35-3.702M9.276 7.6a.5.5 0 0 1 .397 0L13.7 9.344a.5.5 0 0 1 0 .917l-1.402.608 0 1.626c0 .137-.044.27-.127.379l-.497-.379.497.38-.001 0-.002.004-.005.006-.013.016a2 2 0 0 1-.174.185 3 3 0 0 1-.5.382c-.447.274-1.109.532-2 .532-.892 0-1.553-.258-2-.532a3 3 0 0 1-.633-.522l-.04-.046-.012-.016-.005-.007-.002-.002-.001-.002.498-.377-.499.376a.63.63 0 0 1-.126-.375l-.004-1.629-.452-.196v2.073a.625.625 0 1 1-1.25 0V9.928q0-.034.004-.067a.5.5 0 0 1 .298-.517zm-1.374 3.81.002.83c.057.048.132.105.227.163.268.165.705.347 1.343.347.639 0 1.076-.182 1.346-.347q.142-.09.227-.164l0-.829-1.374.595a.5.5 0 0 1-.397 0z" clip-rule="evenodd"></path></svg>
