<svg xmlns="http://www.w3.org/2000/svg" fill="none" viewBox="0 0 14 14"><path fill="currentColor" fill-rule="evenodd" d="M4.729.912a.62.62 0 0 0-.576.36L.08 8.515a.63.63 0 0 0 .015.637l2.275 3.642a.63.63 0 0 0 .53.294h8.194a.63.63 0 0 0 .53-.294L13.87 9.2a.62.62 0 0 0 .045-.685L9.818 1.23a.63.63 0 0 0-.545-.319zm4.179 1.25 3.395 6.036H9.619L7.552 4.89a1 1 0 0 0-.054-.086L5.847 2.162zM6.016 8.198h2.13L7.023 6.404zm-1.6.295-.028.048-1.516 2.696-1.52-2.434 3.397-6.04 1.52 2.434zm-.447 3.344 1.343-2.39h6.929l-1.493 2.39z" clip-rule="evenodd"/></svg>
