<svg xmlns="http://www.w3.org/2000/svg" fill="none" viewBox="0 0 14 14"><path fill="currentColor" fill-rule="evenodd" d="M2.763 5.892a1.92 1.92 0 0 0-1.507 1.886l0 .011-.006.492a.234.234 0 0 0 .229.226l2.132-.001a.23.23 0 0 0 .224-.224A1.47 1.47 0 0 1 5.313 6.81l.002 0-.004.625 0-.625.002 0 3.384-.002a1.484 1.484 0 0 1 1.468 1.468l0 .002a.225.225 0 0 0 .223.224l-.001 0-.003.625.004-.625 2.132.01-.003 0 .007.624.003-.625-.007 0a.236.236 0 0 0 .23-.229l0 .01.625-.007-.625-.007 0 .004-.005-.503a1.91 1.91 0 0 0-1.503-1.882l.006.002.119-.614-.131.611.006.001c-2.8-.54-5.677-.542-8.479-.004M2.52 4.666a23.7 23.7 0 0 1 8.966.004l.012.003a3.16 3.16 0 0 1 2.497 3.109l.005.51a1.487 1.487 0 0 1-1.468 1.468l-.01 0-2.14-.01-.003 0a1.476 1.476 0 0 1-1.464-1.464l.625-.005-.625.007a.234.234 0 0 0-.229-.231l-3.374.002-.005 0a.22.22 0 0 0-.222.222l0 .01a1.48 1.48 0 0 1-1.464 1.465l-.006 0-2.147.001A1.484 1.484 0 0 1 0 8.29l0-.014.006-.496a3.17 3.17 0 0 1 2.5-3.11z" clip-rule="evenodd"></path></svg>
