<svg xmlns="http://www.w3.org/2000/svg" fill="none" viewBox="0 0 14 14"><path fill="currentColor" fill-rule="evenodd" d="M1.678 3.307a1.92 1.92 0 0 1 1.085-.674 22.4 22.4 0 0 1 8.479.004 1.91 1.91 0 0 1 1.503 1.882l0 .011.005.492a.237.237 0 0 1-.23.23l-2.131-.01-.005.625.003-.625.001 0a.226.226 0 0 1-.223-.225l0-.001a1.483 1.483 0 0 0-1.468-1.468l-.007 0-3.377.002-.002 0 0 .625.004-.625-.002 0a1.47 1.47 0 0 0-1.478 1.473.23.23 0 0 1-.224.224l-2.132.001a.234.234 0 0 1-.229-.226l.006-.492 0-.011a1.92 1.92 0 0 1 .422-1.212M12.52 5.25l.007 0-.003.625-.007-.625zm.23-.229 0-.004.625.007-.625.007zm-1.508-2.385-.006-.001.13-.611-.118.614zm.244-1.226a23.7 23.7 0 0 0-8.966-.004l-.014.003a3.17 3.17 0 0 0-2.5 3.11L0 5.016l0 .014a1.484 1.484 0 0 0 1.468 1.468l.007 0 2.14-.001.006 0a1.48 1.48 0 0 0 1.464-1.465l0-.01a.22.22 0 0 1 .222-.222l.005 0 3.374-.002a.234.234 0 0 1 .229.231l.625-.007-.625.005a1.476 1.476 0 0 0 1.464 1.465l.002 0 2.14.01.01 0a1.487 1.487 0 0 0 1.47-1.47l0-.013-.006-.496a3.16 3.16 0 0 0-2.497-3.109zM7.75 7.123a.75.75 0 1 0-1.5 0l0 2.072H4.426a.625.625 0 0 0-.442 1.067l2.574 2.574c.244.244.64.244.884 0l2.575-2.574a.625.625 0 0 0-.442-1.067H7.75z" clip-rule="evenodd"></path></svg>
