<svg xmlns="http://www.w3.org/2000/svg" fill="none" viewBox="0 0 14 14"><path fill="currentColor" fill-rule="evenodd" d="M1.25.625a.625.625 0 1 0-1.25 0v10.75a.625.625 0 1 0 1.25 0v-4.75h4.5v4.75a.625.625 0 1 0 1.25 0V.625a.625.625 0 1 0-1.25 0v4.75h-4.5zM11.625 6.5l-.75 0c-.974 0-1.793.654-2.045 1.546a.75.75 0 1 0 1.443.408.626.626 0 0 1 .602-.454l.75 0a.625.625 0 1 1 0 1.25h-.375a.75.75 0 0 0 0 1.5h.375l.125 0a.75.75 0 0 1 .75.75l0 .25a.75.75 0 0 1-.75.75l-1 0a.75.75 0 0 1-.707-.5.75.75 0 1 0-1.415.5A2.25 2.25 0 0 0 10.75 14l1 0A2.25 2.25 0 0 0 14 11.75l0-.25c0-.628-.257-1.196-.672-1.604A2.125 2.125 0 0 0 11.625 6.5" clip-rule="evenodd"></path></svg>
