<svg xmlns="http://www.w3.org/2000/svg" fill="none" viewBox="0 0 14 14"><path fill="currentColor" fill-rule="evenodd" d="M2.907 2.092A2.278 2.278 0 0 1 6.293 4.99a4.4 4.4 0 0 0-1.475-.25.625.625 0 0 0 0 1.25 3.193 3.193 0 1 1-3.193 3.192.625.625 0 0 0-1.25 0 4.443 4.443 0 1 0 8.286-2.231l.062-.014a2.9 2.9 0 0 1 .829-.06 2.62 2.62 0 0 1 1.816 4.266.625.625 0 0 0 .969.79A3.87 3.87 0 0 0 9.655 5.63a4.2 4.2 0 0 0-1.203.085 3.3 3.3 0 0 0-.62.201 5 5 0 0 0-.43-.35A3.528 3.528 0 0 0 2.148 1.1a.625.625 0 1 0 .76.993m10.535.832a.625.625 0 0 1 0 .884 3.07 3.07 0 0 1-4.344 0 .625.625 0 1 1 .884-.884 1.82 1.82 0 0 0 2.576 0 .625.625 0 0 1 .884 0M10.395 1.25a.875.875 0 1 0 1.75 0 .875.875 0 0 0-1.75 0" clip-rule="evenodd"></path></svg>
