<svg xmlns="http://www.w3.org/2000/svg" fill="none" viewBox="0 0 14 14"><path fill="currentColor" fill-rule="evenodd" d="M7 .624 6.558.182a.625.625 0 0 1 .884 0zm0 12.127a4.28 4.28 0 0 1-4.28-4.28c0-.583.25-1.332.695-2.176.437-.83 1.027-1.688 1.628-2.47A32 32 0 0 1 7 1.527zM7 .624 6.558.182l-.001.001-.003.004-.012.011-.043.044-.16.166a33 33 0 0 0-2.286 2.655c-.625.812-1.261 1.733-1.744 2.65-.475.903-.838 1.87-.838 2.758a5.53 5.53 0 1 0 11.059 0c0-.888-.363-1.855-.839-2.758-.482-.917-1.118-1.838-1.743-2.65A33 33 0 0 0 7.502.243L7.458.197l-.011-.01-.003-.004h-.001z" clip-rule="evenodd"/></svg>
