<svg xmlns="http://www.w3.org/2000/svg" fill="none" viewBox="0 0 14 14"><path fill="currentColor" fill-rule="evenodd" d="M5.004.674a4.427 4.427 0 0 1 6.722 3.073 3.309 3.309 0 0 1 .375 6.137.625.625 0 1 1-.532-1.131 2.06 2.06 0 0 0 1.169-1.631 2.06 2.06 0 0 0-1.61-2.245.87.87 0 0 1-.613-.739 3.177 3.177 0 0 0-6.167-.747.85.85 0 0 1-.772.546 2.513 2.513 0 0 0-1.468 4.398 2.47 2.47 0 0 0 1.165.55.625.625 0 1 1-.242 1.226 3.7 3.7 0 0 1-1.746-.835A3.763 3.763 0 0 1 3.27 2.712 4.43 4.43 0 0 1 5.004.674m.811 6.902A.5.5 0 0 0 5.05 8v5.5a.5.5 0 0 0 .765.424l4.4-2.75a.5.5 0 0 0 0-.848z" clip-rule="evenodd"/></svg>
