<svg xmlns="http://www.w3.org/2000/svg" fill="none" viewBox="0 0 14 14"><path fill="currentColor" fill-rule="evenodd" d="M6.375 1.5a.625.625 0 1 1 1.25 0v1.375H12.5a.625.625 0 1 1 0 1.25h-.815l2.268 5.481a.6.6 0 0 1 .047.24c0 .867-.34 1.7-.95 2.316a3.24 3.24 0 0 1-2.3.963 3.24 3.24 0 0 1-2.3-.963 3.3 3.3 0 0 1-.95-2.317q0-.124.047-.239l2.268-5.481h-5.63l2.268 5.481a.6.6 0 0 1 .047.24c0 .867-.34 1.7-.95 2.316a3.24 3.24 0 0 1-2.3.963 3.24 3.24 0 0 1-2.3-.963A3.3 3.3 0 0 1 0 9.845q0-.124.047-.239l2.268-5.481H1.5a.625.625 0 1 1 0-1.25h4.875zm2.426 8.345 1.949-4.71 1.949 4.71zm-7.5 0H5.2l-1.95-4.71z" clip-rule="evenodd"></path></svg>
