<svg xmlns="http://www.w3.org/2000/svg" fill="none" viewBox="0 0 14 14"><path fill="currentColor" fill-rule="evenodd" d="M7.625.625a.625.625 0 1 0-1.25 0V2.48L1.253 4.684a.625.625 0 1 0 .494 1.148l.372-.16L.05 10.473a.6.6 0 0 0-.05.247c0 .868.34 1.701.95 2.317a3.24 3.24 0 0 0 2.3.963c.864 0 1.692-.347 2.3-.963.61-.616.95-1.45.95-2.317a.6.6 0 0 0-.051-.247L4.028 4.851l5.564-2.394-2.04 4.637a.6.6 0 0 0-.052.251c0 .868.34 1.701.95 2.317a3.24 3.24 0 0 0 2.3.963c.864 0 1.692-.347 2.3-.963.61-.616.95-1.45.95-2.317a.6.6 0 0 0-.053-.251L11.54 1.619l.848-.365a.625.625 0 1 0-.494-1.148L7.625 1.942zm1.183 6.72 1.942-4.417 1.942 4.417zM5.195 10.72 3.25 6.205 1.306 10.72z" clip-rule="evenodd"></path></svg>
