<svg xmlns="http://www.w3.org/2000/svg" fill="none" viewBox="0 0 14 14"><path fill="currentColor" fill-rule="evenodd" d="M11.854.146a.5.5 0 0 0-.708 0l-2 2A.5.5 0 0 0 9.5 3h4a.5.5 0 0 0 .354-.854zM4.037 7.15a1.187 1.187 0 0 1 2.338.288V9.25h1.34c.65 0 1.238.387 1.494.985l1.24 2.894a.625.625 0 0 1-1.148.492l-1.24-2.894a.38.38 0 0 0-.345-.227H5.28a1.625 1.625 0 0 1-1.577-2.02zm-.958.21a.625.625 0 0 1-.344.813 2.376 2.376 0 1 0 2.887 3.489.625.625 0 1 1 1.05.678 3.625 3.625 0 1 1-4.407-5.325c.32-.13.685.025.814.345m5.96-2.05A.5.5 0 0 1 9.5 5h4a.5.5 0 0 1 .354.854l-2 2a.5.5 0 0 1-.708 0l-2-2a.5.5 0 0 1-.108-.545M4.5 3.25a.875.875 0 1 1 1.75 0 .875.875 0 0 1-1.75 0m.875-2.125a2.125 2.125 0 1 0 0 4.25 2.125 2.125 0 0 0 0-4.25" clip-rule="evenodd"></path></svg>
