<svg xmlns="http://www.w3.org/2000/svg" fill="none" viewBox="0 0 14 14"><path fill="currentColor" fill-rule="evenodd" d="M5.066 13.125h6.382a1.756 1.756 0 0 0 1.74-1.53l.792-5.11 0-.004a1.765 1.765 0 0 0-1.709-2.027H8.666V2.187A1.726 1.726 0 0 0 6.892.476a1.7 1.7 0 0 0-1.456.812l-.002.002-2.399 3.855H.996A.996.996 0 0 0 0 6.14v5.268a.996.996 0 0 0 .996.996H3l.178.089.714.357c.365.182.767.275 1.174.274m-.615-1.393-.369-.184.003-5.725 2.413-3.876.002-.004a.46.46 0 0 1 .422-.218.476.476 0 0 1 .494.47V5.08c0 .345.28.625.625.625h4.218a.516.516 0 0 1 .486.59l0 .002-.794 5.116-.003.02a.506.506 0 0 1-.5.443H5.061a1.36 1.36 0 0 1-.611-.143" clip-rule="evenodd"></path></svg>
