<svg xmlns="http://www.w3.org/2000/svg" fill="none" viewBox="0 0 14 14"><path fill="currentColor" fill-rule="evenodd" d="M10.797 2.482a.61.61 0 0 1 0 .866L9.44 4.705h.924c1.393 0 2.305.572 2.845 1.343.515.736.651 1.593.651 2.153 0 .561-.136 1.418-.651 2.154-.54.77-1.452 1.342-2.845 1.342-.948 0-1.695-.48-2.295-1.08-.584-.584-1.093-1.347-1.56-2.046l-.019-.03c-.49-.734-.936-1.4-1.425-1.889-.481-.48-.935-.721-1.429-.721-1.01 0-1.54.39-1.84.82-.327.466-.43 1.05-.43 1.45s.103.985.43 1.451c.3.43.83.82 1.84.82.512 0 .982-.259 1.482-.775a.613.613 0 0 1 .88.852c-.612.632-1.379 1.148-2.362 1.148-1.393 0-2.305-.571-2.845-1.342C.276 9.619.14 8.762.14 8.2s.137-1.418.651-2.153c.54-.77 1.452-1.343 2.845-1.343.948 0 1.695.48 2.295 1.08.584.585 1.093 1.348 1.56 2.047l.019.03c.49.734.936 1.4 1.425 1.889.481.48.935.721 1.429.721 1.01 0 1.54-.39 1.84-.82.327-.466.43-1.05.43-1.45s-.103-.986-.43-1.451c-.3-.43-.83-.82-1.84-.82H7.961a.613.613 0 0 1-.433-1.046L9.93 2.482a.61.61 0 0 1 .866 0" clip-rule="evenodd"/></svg>
