<svg xmlns="http://www.w3.org/2000/svg" fill="none" viewBox="0 0 14 14"><path fill="currentColor" fill-rule="evenodd" d="M2.183 0 2.16 0A1.826 1.826 0 0 0 .375 1.774a1.846 1.846 0 0 0 1.808 1.82 1.816 1.816 0 0 0 1.775-1.83l0-.016A1.816 1.816 0 0 0 2.183 0m.407 5.44a6 6 0 0 0-.418-.01c-.174 0-.307.001-.42.01a1 1 0 0 0-.113.012v7.264q.043.008.115.013c.114.007.246.008.418.008s.303 0 .416-.008q.066-.005.107-.012V5.451a1 1 0 0 0-.105-.012m1.18-.688c.132.22.175.464.175.697v7.299c0 .233-.046.477-.186.694a1.1 1.1 0 0 1-.545.428c-.185.07-.377.094-.54.105-.16.012-.333.012-.49.012H2.16c-.157 0-.33 0-.492-.012a2 2 0 0 1-.542-.104 1.1 1.1 0 0 1-.547-.425 1.25 1.25 0 0 1-.19-.698V5.449c0-.235.044-.481.18-.7.14-.229.342-.366.543-.445.189-.074.385-.1.55-.112.163-.011.338-.011.498-.011h.024c.16 0 .334 0 .496.011.164.012.36.039.549.113.2.08.4.219.54.447M8.257 6.04c.361-.484.92-.738 1.717-.738 1.375 0 2.522 1.09 2.522 2.473v4.913q-.04.006-.103.01c-.113.009-.246.009-.42.009s-.307 0-.42-.008l-.103-.01V8.883c0-1.174-.88-2.229-2.14-2.17-1.248-.017-2.08 1.013-2.08 2.2l0 3.803a1 1 0 0 1-.11.012 7 7 0 0 1-.423.008 7 7 0 0 1-.42-.008l-.103-.01v-7.27l0-.027.073-.002a10 10 0 0 1 .373.002c.103.002.217.006.327.01l.168.004a1 1 0 0 1 .016.214.625.625 0 0 0 1.126.39m1.717-1.988c-.7 0-1.356.151-1.91.495a.88.88 0 0 0-.714-.356c-.078 0-.19-.004-.327-.008q-.168-.006-.375-.01a11 11 0 0 0-.425-.003 2.4 2.4 0 0 0-.39.033 1.07 1.07 0 0 0-.683.426c-.176.247-.226.541-.226.82v7.299c0 .23.044.474.183.69.143.225.345.357.542.431.186.07.379.095.542.106.16.012.335.012.494.012h.024c.16 0 .334 0 .496-.012a1.9 1.9 0 0 0 .542-.105c.197-.073.4-.203.546-.427a1.26 1.26 0 0 0 .187-.695l0-3.834c0-.625.39-.96.825-.95l.052 0c.434-.026.843.328.843.92v3.834c0 .23.044.474.183.691.143.225.345.356.542.43.186.07.379.096.542.107.16.01.335.01.494.01h.024c.16 0 .333 0 .494-.01.163-.011.356-.036.541-.106.198-.075.4-.206.543-.43.139-.218.183-.461.183-.692V7.775c0-2.11-1.745-3.723-3.772-3.723" clip-rule="evenodd"></path></svg>
