<svg xmlns="http://www.w3.org/2000/svg" fill="none" viewBox="0 0 14 14"><path fill="currentColor" fill-rule="evenodd" d="M6.346.03Q6.67 0 7 0A7 7 0 1 1 .985 10.581a.625.625 0 1 1 1.073-.64 5.75 5.75 0 1 0 4.403-8.666.625.625 0 0 1-.115-1.244m-.244 4.293c-.66-.338-1.588.067-1.588.913v3.528c0 .846.929 1.25 1.588.912l3.441-1.764c.76-.39.76-1.435 0-1.824zm-2-2.29A.625.625 0 0 0 3.47.956a7 7 0 0 0-1.854 1.571.625.625 0 1 0 .96.8 5.8 5.8 0 0 1 1.525-1.292M1.439 5.538a.625.625 0 0 0-1.21-.316 7 7 0 0 0-.2 2.423.625.625 0 1 0 1.245-.114 5.8 5.8 0 0 1 .165-1.993" clip-rule="evenodd"></path></svg>
