<svg xmlns="http://www.w3.org/2000/svg" fill="none" viewBox="0 0 14 14"><path fill="currentColor" fill-rule="evenodd" d="m7.13 1.478 1.7 1.271.018.013a1.03 1.03 0 0 0 .93.128l2.05-.694-.684 2.02a1.03 1.03 0 0 0 .023.885 1 1 0 0 0 .057.092l1.302 1.74h-2.181l-.019.001a1.06 1.06 0 0 0-.824.438L8.305 9.094l-.642-2.056a1 1 0 0 0-.677-.677l-2.06-.643 1.77-1.248.016-.013a1.06 1.06 0 0 0 .418-.81l0-.018zM4.555 5.98l-.003.002zm2.693 3.925.011.032c.124.354.439.618.811.676a1.03 1.03 0 0 0 1.01-.445l1.38-1.984h2.499c.386.006.75-.212.927-.555a1.03 1.03 0 0 0-.09-1.085l-.001 0-1.459-1.951.82-2.421a1.03 1.03 0 0 0-.244-1.06 1.03 1.03 0 0 0-1.06-.244l-2.375.804L7.48.178A1.03 1.03 0 0 0 6.41.127a1.03 1.03 0 0 0-.53.882v2.506L3.836 4.957a1.03 1.03 0 0 0-.425.997c.06.383.337.706.708.822l1.424.444-5.287 5.286a.875.875 0 1 0 1.238 1.238l5.299-5.3z" clip-rule="evenodd"></path></svg>
