<svg xmlns="http://www.w3.org/2000/svg" fill="none" viewBox="0 0 14 14"><path fill="currentColor" fill-rule="evenodd" d="M2.907 4.058C2.907 1.978 4.714 0 7 0c1.16 0 2.184.535 2.907 1.288.72.748 1.186 1.755 1.186 2.77 0 1.264-.54 2.514-1.276 3.64-.554.847-1.24 1.657-1.95 2.392a29 29 0 0 0 3.439 2.708l.059.04.014.008.003.002a.626.626 0 0 1-.674 1.053l.31-.484-.31.484-.002-.001-.005-.003-.018-.012-.066-.044-.247-.165a30 30 0 0 1-3.397-2.71 31.6 31.6 0 0 1-3.65 2.914l-.018.012-.005.004-.001 0-.322-.486.322.486a.626.626 0 0 1-.689-1.043l.004-.002.014-.01.06-.04.23-.16a30 30 0 0 0 3.16-2.551c-.691-.715-1.356-1.504-1.896-2.335-.738-1.136-1.275-2.402-1.275-3.697m4.065 5.159c.67-.693 1.3-1.439 1.798-2.203.673-1.03 1.073-2.037 1.073-2.956 0-.641-.304-1.35-.837-1.904-.529-.55-1.24-.904-2.006-.904-1.57 0-2.843 1.393-2.843 2.808 0 .957.402 1.983 1.073 3.016.485.746 1.093 1.47 1.742 2.143" clip-rule="evenodd"></path></svg>
