<svg xmlns="http://www.w3.org/2000/svg" fill="none" viewBox="0 0 14 14"><path fill="currentColor" fill-rule="evenodd" d="M6.98 1.249a.03.03 0 0 1 .023.01l.025.027 1.789 1.779a.625.625 0 0 0 1.065-.412c.017-.334.16-.65.399-.884l-.437-.447.442.442a1.379 1.379 0 1 1 1.95 1.95l-.005.005a1.33 1.33 0 0 1-.884.4.625.625 0 0 0-.407 1.069l1.779 1.75.022.02a.03.03 0 0 1 .01.022.03.03 0 0 1-.01.023l-.026.024-.98.98-.026-.026-.005-.004a2.643 2.643 0 1 0-3.75 3.724l.007.008.038.036-.941.979-.016.017a.03.03 0 0 1-.045 0l-.025-.027-1.789-1.779a.625.625 0 0 0-1.064.406 1.378 1.378 0 1 1-1.46-1.46.625.625 0 0 0 .4-1.069l-1.778-1.75-.022-.02a.03.03 0 0 1 0-.045l.023-.021 1-.987.056.056a2.638 2.638 0 0 0 3.7-3.754l-.037-.036.941-.979.016-.017a.03.03 0 0 1 .022-.01M9.405.877c-.174.17-.322.364-.44.572L7.92.411a1.28 1.28 0 0 0-1.887.006l-1.44 1.498a.625.625 0 0 0 .179.995q.21.103.38.263a1.388 1.388 0 0 1-1.96 1.96 1.5 1.5 0 0 1-.263-.38.625.625 0 0 0-1.002-.172L.413 6.077a1.28 1.28 0 0 0 0 1.886l1.029 1.01a2.63 2.63 0 0 0-.558 4.143 2.63 2.63 0 0 0 4.148-.568L6.08 13.59a1.28 1.28 0 0 0 1.887-.006l1.44-1.498a.625.625 0 0 0-.179-.995 1.5 1.5 0 0 1-.39-.273 1.393 1.393 0 1 1 2.253-1.57.625.625 0 0 0 1.004.17l1.495-1.495a1.28 1.28 0 0 0-.003-1.885L12.561 5.03a2.6 2.6 0 0 0 .562-.434A2.63 2.63 0 0 0 9.405.877" clip-rule="evenodd"></path></svg>
