<svg xmlns="http://www.w3.org/2000/svg" fill="none" viewBox="0 0 14 14"><path fill="currentColor" fill-rule="evenodd" d="M.375 2C.375 1.103 1.103.375 2 .375h10c.898 0 1.625.728 1.625 1.625v10c0 .898-.727 1.625-1.625 1.625H2A1.625 1.625 0 0 1 .375 12zm1.25 10V7h1.343a1.385 1.385 0 1 0 2.064 0H7l0 1.968a1.385 1.385 0 1 1 0 2.064v1.343H2A.375.375 0 0 1 1.625 12m10.75-5h-1.343a1.385 1.385 0 1 0-2.064 0L7 7l0-1.968a1.385 1.385 0 1 1 0-2.064V1.625h5c.207 0 .375.168.375.375z" clip-rule="evenodd"></path></svg>
