<svg xmlns="http://www.w3.org/2000/svg" fill="none" viewBox="0 0 14 14"><path fill="currentColor" fill-rule="evenodd" d="M10.176 1.197a.5.5 0 0 0-.509-.695 3.5 3.5 0 0 0-3.11 4.03 5.4 5.4 0 0 1 2.18 1.66 4.4 4.4 0 0 1 3.233.697 3.5 3.5 0 0 0 1.528-2.556.5.5 0 0 0-.695-.509 2 2 0 0 1-2.627-2.627M1.625 9.5a2.875 2.875 0 0 1 5.653-.744.625.625 0 0 0 1.009.315A1.875 1.875 0 1 1 9.5 12.375h-5A2.875 2.875 0 0 1 1.625 9.5M4.5 5.375a4.125 4.125 0 0 0 0 8.25h5a3.125 3.125 0 1 0-1.307-5.964A4.12 4.12 0 0 0 4.5 5.375" clip-rule="evenodd"/></svg>
