<svg xmlns="http://www.w3.org/2000/svg" fill="none" viewBox="0 0 14 14"><path fill="currentColor" fill-rule="evenodd" d="M5.038 4.484c-.738 0-1.336.598-1.336 1.336 0 .448-.098 1.018-.327 1.466-.114.224-.29.475-.562.637-.302.18-.657.209-1.006.073a4 4 0 0 1-.338-.15 2.747 2.747 0 0 0 4.975.172.625.625 0 0 1 1.112 0 2.746 2.746 0 0 0 4.975-.173q-.166.084-.338.15a1.12 1.12 0 0 1-1.006-.072c-.271-.162-.448-.413-.562-.637-.23-.448-.327-1.018-.327-1.466a1.337 1.337 0 0 0-2.41-.797l-.058.068a3 3 0 0 0-.274.43.625.625 0 0 1-1.112 0 3 3 0 0 0-.274-.43 1 1 0 0 1-.059-.068 1.33 1.33 0 0 0-1.073-.54M7 4.134A2.587 2.587 0 0 0 2.452 5.82c0 .306-.073.669-.19.897a1 1 0 0 1-.055.092 2.74 2.74 0 0 1-1.078-.797.625.625 0 0 0-1.106.327A3.996 3.996 0 0 0 7 9.406a3.996 3.996 0 0 0 6.977-3.067.625.625 0 0 0-1.106-.327 2.74 2.74 0 0 1-1.078.797 1 1 0 0 1-.055-.092c-.117-.228-.19-.591-.19-.897A2.587 2.587 0 0 0 7 4.134" clip-rule="evenodd"></path></svg>
