<svg xmlns="http://www.w3.org/2000/svg" fill="none" viewBox="0 0 14 14"><path fill="currentColor" fill-rule="evenodd" d="M4.104 3.817c.063-.021.228-.03.527.055.28.08.595.219.902.379a10 10 0 0 1 1.084.658l.015.01.003.003a.625.625 0 0 0 .73 0l.003-.003.015-.01a6 6 0 0 1 .3-.201c.203-.13.481-.3.784-.457.307-.16.622-.298.902-.379.3-.085.464-.076.527-.055.03.01.111.049.248.15q.195.146.444.387c.332.318.695.722 1.038 1.126.168.198.329.394.476.577H1.898c.147-.183.308-.379.476-.577.343-.404.706-.808 1.038-1.126q.249-.241.444-.386c.137-.102.218-.141.248-.151M.298 6.442l-.177-.13.002-.002.006-.008.02-.027a23 23 0 0 1 .356-.47c.235-.302.559-.712.915-1.133.355-.419.75-.86 1.126-1.22a6 6 0 0 1 .563-.486c.177-.132.383-.263.599-.335.427-.143.895-.067 1.267.04.393.112.79.292 1.134.47.348.181.66.372.884.516L7 3.66l.007-.004c.224-.144.536-.334.884-.515a6.3 6.3 0 0 1 1.134-.471c.372-.107.84-.183 1.267-.04.216.072.422.203.599.335.185.138.375.306.563.486.376.36.771.801 1.126 1.22a33 33 0 0 1 1.27 1.603l.021.027.006.008.001.002-.176.13.177-.13c.141.193.16.45.05.66l-.206-.107.205.108-.001.002-.002.005-.007.012-.021.038-.077.129a6 6 0 0 1-.296.432 7.7 7.7 0 0 1-1.217 1.28c-1.114.933-2.845 1.855-5.307 1.855S2.807 9.803 1.693 8.87A7.7 7.7 0 0 1 .476 7.59a6 6 0 0 1-.394-.6l-.007-.01-.002-.005v-.001H.072l.205-.11-.206.109a.63.63 0 0 1 .05-.66zm11.84.865a7 7 0 0 1-.633.606C10.577 8.689 9.122 9.476 7 9.476S3.423 8.69 2.495 7.913a7 7 0 0 1-.632-.606z" clip-rule="evenodd"/></svg>
