<svg xmlns="http://www.w3.org/2000/svg" fill="none" viewBox="0 0 14 14"><path fill="currentColor" fill-rule="evenodd" d="M.186.186a.625.625 0 0 0 0 .883l3.777 3.777.02.021L8.9 9.784l.022.022 4.009 4.008a.625.625 0 1 0 .884-.883l-3.733-3.733 2.473-6.4.002-.004c.33-.866-.542-1.63-1.326-1.363l-.009.003-6.64 2.264L1.069.186a.625.625 0 0 0-.883 0m2.224 4.83a.625.625 0 0 0-.793-.39l-.945.323a.992.992 0 0 0-.087 1.843L4.977 8.77a.38.38 0 0 1 .2.218l1.524 4.355a.983.983 0 0 0 1.846.03l.496-1.287a.625.625 0 1 0-1.166-.45l-.235.61-1.285-3.671a1.63 1.63 0 0 0-.867-.945L1.694 5.92l.326-.111a.625.625 0 0 0 .39-.793" clip-rule="evenodd"/></svg>
