<svg xmlns="http://www.w3.org/2000/svg" fill="none" viewBox="0 0 14 14"><path fill="currentColor" fill-rule="evenodd" d="M7.93 1.322a.72.72 0 0 0-.888.25l-.003.005c-.26.387-.574.878-.899 1.429a.6.6 0 0 1-.104.18c-.253.436-.508.905-.744 1.389C4.707 5.769 4.27 6.98 4.22 7.957l0 .01a52 52 0 0 0-.005 5.232l.003.052.001.013 0 .003a.625.625 0 0 1-1.247.084l.624-.042-.624.042 0-.001 0-.001 0-.004-.001-.015-.004-.058-.011-.217a55 55 0 0 1-.033-3.91c-.46-1.084-.669-2.445-.758-3.71a28 28 0 0 1-.01-3.46C2.21 1.013 2.948.269 3.869.14a2.04 2.04 0 0 1 2.007.93l.128-.194.005-.006C6.544.074 7.555-.188 8.41.169a2.04 2.04 0 0 1 1.085 2.698l-.005.013-.956 2.191a4.42 4.42 0 0 1 2.722 1.576c.341.419.469.972.438 1.469-.02.317-.106.656-.283.954.63.498.895 1.363.597 2.154a4.4 4.4 0 0 1-1.35 1.873 4.4 4.4 0 0 1-1.524.81.625.625 0 0 1-.36-1.197c.388-.116.76-.309 1.095-.582.452-.367.777-.835.97-1.344a.645.645 0 0 0-.666-.87l-.053.002a.64.64 0 0 0-.385.38 1.895 1.895 0 1 1-.304-1.868.64.64 0 0 0 .564.235l.053-.003a.6.6 0 0 0 .186-.107c.1-.08.197-.258.213-.513s-.058-.478-.16-.603A3.18 3.18 0 0 0 7.7 6.265l-.015.002a4 4 0 0 0-.497.094 2.4 2.4 0 0 0-.53.187.625.625 0 1 1-.595-1.099c.338-.182.772-.298 1.102-.363L8.35 2.367l.004-.01a.79.79 0 0 0-.424-1.035m-3 1.278 0-.57a.79.79 0 0 0-.888-.652.72.72 0 0 0-.638.666c-.047.837-.08 2.055.008 3.304l.031.387c.205-.583.458-1.163.726-1.71.243-.497.504-.978.761-1.425m2.533 7.433a.645.645 0 0 1 1-.816q.129.159.283.28-.107.166-.18.358a.645.645 0 0 1-1.104.178" clip-rule="evenodd"></path></svg>
