<svg xmlns="http://www.w3.org/2000/svg" fill="none" viewBox="0 0 14 14"><path fill="currentColor" fill-rule="evenodd" d="M13.279.72C12.27-.284 10.577-.23 9.633.83l0 .001-4.905 5.483a3.53 3.53 0 0 0-3.057 1.13c-.45.454-.672.91-.749 1.386-.06.375-.024.75.005 1.039q.008.069.013.132c.03.328.036.6-.049.894-.083.29-.27.655-.715 1.115a.625.625 0 0 0 .001.87c.914.938 2.148 1.23 3.329 1.084 1.146-.142 2.28-.699 3.134-1.532a3.53 3.53 0 0 0 1.115-3.23l5.413-4.835c1.063-.945 1.115-2.637.113-3.646zM5.127 7.698a2.275 2.275 0 0 0-2.56.617c-.291.291-.38.518-.411.714-.033.202-.015.396.013.692l.016.167c.033.368.058.828-.092 1.35a3.5 3.5 0 0 1-.578 1.126c.525.33 1.163.442 1.837.359.876-.109 1.772-.547 2.44-1.21l.02-.02.001-.002.056-.05A2.274 2.274 0 0 0 5.127 7.7" clip-rule="evenodd"></path></svg>
