<svg xmlns="http://www.w3.org/2000/svg" fill="none" viewBox="0 0 14 14"><path fill="currentColor" fill-rule="evenodd" d="M1.25 7a5.75 5.75 0 1 1 11.5 0 5.75 5.75 0 0 1-11.5 0M7 0a7 7 0 1 0 0 14A7 7 0 0 0 7 0m2.962 4.619a.625.625 0 1 0-.175-1.238L9.875 4l-.088-.619h-.003l-.009.002-.035.005-.134.019a440 440 0 0 0-2.003.29c-1.13.165-2.39.356-2.801.44-.924.191-1.403.967-1.531 1.454a.625.625 0 1 0 1.208.318.8.8 0 0 1 .185-.316.7.7 0 0 1 .39-.23q.074-.016.19-.037a19 19 0 0 1-.122 1.89c-.126 1.028-.363 1.914-.74 2.4a.625.625 0 1 0 .987.767c.603-.777.866-1.968.994-3.015.1-.815.127-1.625.134-2.243.395-.06.828-.124 1.253-.187v4.536c0 .205.065.485.262.725.218.266.552.426.963.426.79 0 1.282-.56 1.443-.842a.625.625 0 0 0-1.086-.619l-.01.014-.028.035a.6.6 0 0 1-.091.082.4.4 0 0 1-.203.079V4.756l.3-.043.482-.069.134-.019.035-.004.008-.002zL9.875 4z" clip-rule="evenodd"/></svg>
