<svg xmlns="http://www.w3.org/2000/svg" fill="none" viewBox="0 0 14 14"><path fill="currentColor" fill-rule="evenodd" d="M4.125 2.625a1.375 1.375 0 0 1 2.406-.91.625.625 0 0 0 .938 0A1.375 1.375 0 0 1 9.827 2.99a.625.625 0 0 0 .716.78q.1-.019.207-.019a1.125 1.125 0 0 1 .936 1.75H2.314A1.125 1.125 0 0 1 3.457 3.77a.625.625 0 0 0 .717-.78 1.4 1.4 0 0 1-.049-.364M1.403 6.368A2.376 2.376 0 0 1 2.877 2.53 2.625 2.625 0 0 1 7 .47a2.625 2.625 0 0 1 4.123 2.059 2.376 2.376 0 0 1 1.474 3.839l-.859 6.229A1.625 1.625 0 0 1 10.128 14H3.873a1.625 1.625 0 0 1-1.61-1.403zm4.847.382v6h1.5v-6z" clip-rule="evenodd"/></svg>
