<svg xmlns="http://www.w3.org/2000/svg" fill="none" viewBox="0 0 14 14"><path fill="currentColor" fill-rule="evenodd" d="M5.137 1.86a.625.625 0 1 0-.884-.883 3.88 3.88 0 0 0-.809 4.299 4 4 0 0 0-.107.184l-.073.009a3.88 3.88 0 0 0-3.243 2.84.625.625 0 1 0 1.207.325 2.63 2.63 0 0 1 1.637-1.788q-.048.31-.048.635a4.18 4.18 0 0 0 2.612 3.878 2.63 2.63 0 0 1-2.339.5.625.625 0 0 0-.322 1.208 3.88 3.88 0 0 0 4.082-1.389l.013-.016a5 5 0 0 0 .274 0l.013.016a3.88 3.88 0 0 0 4.082 1.39.625.625 0 1 0-.323-1.208 2.63 2.63 0 0 1-2.338-.501 4.184 4.184 0 0 0 2.564-4.513 2.63 2.63 0 0 1 1.637 1.788.625.625 0 1 0 1.207-.325 3.88 3.88 0 0 0-3.315-2.85 4 4 0 0 0-.108-.183l.03-.07A3.88 3.88 0 0 0 9.748.977a.625.625 0 1 0-.885.883 2.63 2.63 0 0 1 .725 2.334A4.17 4.17 0 0 0 7 3.298c-.977 0-1.876.335-2.588.896a2.63 2.63 0 0 1 .725-2.334m3.505 3.916q.124-.1.235-.212A2.67 2.67 0 0 0 7 4.798c-.73 0-1.393.292-1.877.765q.111.114.236.213a4 4 0 0 1 .681.393 2.63 2.63 0 0 0 1.92 0 4 4 0 0 1 .682-.393M6.37 8.917a2.63 2.63 0 0 0-.96-1.657 4 4 0 0 1-.68-.393 3 3 0 0 0-.317-.101 2.686 2.686 0 0 0 1.878 3.303q.05-.173.079-.352a4 4 0 0 1 0-.8m2.902-2.05q.155-.06.315-.101a2.686 2.686 0 0 1-1.878 3.303 3 3 0 0 1-.08-.352 4 4 0 0 0 0-.8 2.63 2.63 0 0 1 .96-1.656 4 4 0 0 0 .683-.394" clip-rule="evenodd"></path></svg>
