<svg xmlns="http://www.w3.org/2000/svg" fill="none" viewBox="0 0 14 14"><path fill="currentColor" fill-rule="evenodd" d="M10.375 0a.625.625 0 1 0 0 1.25h2.071c.168 0 .304.136.304.304v2.071a.625.625 0 1 0 1.25 0V1.554C14 .696 13.304 0 12.446 0zM.625 9.75c.345 0 .625.28.625.625v2.071c0 .168.136.304.304.304l2.071 0a.625.625 0 1 1 0 1.25l-2.071 0A1.554 1.554 0 0 1 0 12.446v-2.071c0-.345.28-.625.625-.625m12.75 0c.345 0 .625.28.625.625v2.071c0 .858-.696 1.554-1.554 1.554l-2.071 0a.625.625 0 1 1 0-1.25l2.071 0a.304.304 0 0 0 .304-.304v-2.071c0-.345.28-.625.625-.625M1.554 1.25a.304.304 0 0 0-.304.304v2.071a.625.625 0 1 1-1.25 0V1.554C0 .696.696 0 1.554 0h2.071a.625.625 0 1 1 0 1.25zM.875 6.125a.875.875 0 1 0 0 1.75h12.25a.875.875 0 0 0 0-1.75z" clip-rule="evenodd"></path></svg>
