<svg xmlns="http://www.w3.org/2000/svg" fill="none" viewBox="0 0 14 14"><path fill="currentColor" fill-rule="evenodd" d="M1.288.638c3.872.541 7.552.541 11.424 0 .317-.05.645.042.891.249s.392.515.397.837l0 .012v8.36l0 .002a1.13 1.13 0 0 1-.383.849 1.13 1.13 0 0 1-.9.268l-.002 0a41 41 0 0 0-4.84-.404v1.064H9.5a.875.875 0 0 1 0 1.75h-5a.875.875 0 1 1 0-1.75h1.625v-1.064a41 41 0 0 0-4.842.404l-.002 0a1.13 1.13 0 0 1-.89-.26 1.13 1.13 0 0 1-.39-.842l0-.012v-8.35A1.12 1.12 0 0 1 .387.895a1.12 1.12 0 0 1 .9-.256M1.25 1.895v8.062a41 41 0 0 1 11.5 0V1.895a41.6 41.6 0 0 1-11.5 0" clip-rule="evenodd"></path></svg>
