<svg xmlns="http://www.w3.org/2000/svg" fill="none" viewBox="0 0 14 14"><path fill="currentColor" fill-rule="evenodd" d="M8.611.182a7.2 7.2 0 0 0-3.222 0 .625.625 0 1 0 .28 1.218 5.95 5.95 0 0 1 2.662 0 .625.625 0 1 0 .28-1.218M3.984 2.107a.625.625 0 1 0-.659-1.062 7.4 7.4 0 0 0-1.273.995l-.012.012q-.566.584-.996 1.274a.625.625 0 1 0 1.063.659q.354-.572.823-1.055a6.2 6.2 0 0 1 1.054-.823M.931 4.92a.625.625 0 0 1 .47.749 5.9 5.9 0 0 0 0 2.662.625.625 0 0 1-1.219.28 7.2 7.2 0 0 1 0-3.222.625.625 0 0 1 .75-.47m1.176 5.095a.625.625 0 1 0-1.063.66q.429.69.996 1.273l.012.012q.583.566 1.273.996a.625.625 0 1 0 .66-1.063 6.3 6.3 0 0 1-1.055-.823 6.2 6.2 0 0 1-.823-1.054m2.812 3.054a.625.625 0 0 1 .75-.469 5.95 5.95 0 0 0 2.662 0 .625.625 0 1 1 .28 1.218 7.2 7.2 0 0 1-3.222 0 .625.625 0 0 1-.47-.749m8.036-2.395a.625.625 0 1 0-1.062-.659 6.2 6.2 0 0 1-.823 1.055 6.3 6.3 0 0 1-1.055.823.625.625 0 0 0 .66 1.063 7.5 7.5 0 0 0 1.273-.996l.012-.012q.567-.582.995-1.274m.114-5.754a.625.625 0 0 1 .75.469 7.2 7.2 0 0 1 0 3.223.625.625 0 0 1-1.22-.28 5.9 5.9 0 0 0 0-2.663.625.625 0 0 1 .47-.75m-2.395-3.875a.625.625 0 0 0-.659 1.062q.572.355 1.055.823.468.483.823 1.055a.625.625 0 0 0 1.062-.66 7.5 7.5 0 0 0-.995-1.273l-.012-.012a7.5 7.5 0 0 0-1.274-.995" clip-rule="evenodd"/></svg>
