<svg xmlns="http://www.w3.org/2000/svg" fill="none" viewBox="0 0 14 14"><path fill="currentColor" fill-rule="evenodd" d="M10 10.5a1.375 1.375 0 1 0 2.75 0 1.375 1.375 0 0 0-2.75 0m1.375 2.625a2.625 2.625 0 0 1-2.622-2.755l-4.17-1.62a2.625 2.625 0 1 1 0-3.497l4.17-1.622-.003-.13a2.625 2.625 0 1 1 .667 1.749l-4.17 1.62a3 3 0 0 1 0 .258l4.17 1.622a2.625 2.625 0 1 1 1.958 4.374m0-8.25a1.375 1.375 0 1 1 0-2.75 1.375 1.375 0 0 1 0 2.75m-8.75 3.5a1.375 1.375 0 1 1 0-2.75 1.375 1.375 0 0 1 0 2.75" clip-rule="evenodd"/></svg>
