<svg xmlns="http://www.w3.org/2000/svg" fill="none" viewBox="0 0 14 14"><path fill="currentColor" fill-rule="evenodd" d="M8.25.5h-2.5c-.683 0-1.287.41-1.573.994A3.415 3.415 0 0 0 1.599 4.43l-.055.495C.757 5.137.295 5.958.388 6.708l.688 5.499c.096.768.762 1.42 1.564 1.418h8.717c.805.005 1.47-.649 1.566-1.418l.69-5.5c.092-.75-.37-1.57-1.157-1.78l-.055-.494a3.415 3.415 0 0 0-2.589-2.962A1.77 1.77 0 0 0 8.25.5m1.651 2.318C9.658 3.5 8.996 4 8.25 4h-2.5c-.749 0-1.4-.492-1.646-1.164A2.17 2.17 0 0 0 2.84 4.569l-.033.306 8.385 0-.034-.307 0-.003A2.17 2.17 0 0 0 9.9 2.818M2.12 6.125l-.021 0-.154 0c-.08 0-.16.035-.227.118a.43.43 0 0 0-.09.31l.688 5.5c.024.198.203.323.318.322l.005 0 8.725 0c.115.001.293-.125.318-.323l.689-5.5a.43.43 0 0 0-.091-.31.28.28 0 0 0-.22-.117h-.014l-.15 0h-.016zM4.25 7.5a.75.75 0 0 1 .75.75v2a.75.75 0 0 1-1.5 0v-2a.75.75 0 0 1 .75-.75m3.5.75a.75.75 0 0 0-1.5 0v2a.75.75 0 0 0 1.5 0zm2-.75a.75.75 0 0 1 .75.75v2a.75.75 0 0 1-1.5 0v-2a.75.75 0 0 1 .75-.75" clip-rule="evenodd"></path></svg>
