<svg xmlns="http://www.w3.org/2000/svg" fill="none" viewBox="0 0 14 14"><path fill="currentColor" fill-rule="evenodd" d="M8.49 1.934a.875.875 0 0 1 1.52-.868l1.89 3.309h.498c.239-.004.475.048.69.151.217.104.407.257.556.445s.254.406.31.639.06.474.016.708v.001l-1.048 5.498v.002c-.071.366-.263.7-.55.94a1.55 1.55 0 0 1-1.022.366h-8.7a1.55 1.55 0 0 1-1.022-.365 1.63 1.63 0 0 1-.55-.941v-.002L.03 6.319v-.001A1.67 1.67 0 0 1 .355 4.97c.15-.188.339-.34.556-.445.215-.103.451-.155.69-.151H2.1l1.891-3.31a.875.875 0 0 1 1.52.869l-1.395 2.44h5.77zm3.927 3.69q.066 0 .13.03.066.03.118.094.052.065.073.153.021.09.004.18v.002l-1.047 5.498a.4.4 0 0 1-.127.221.3.3 0 0 1-.199.073H2.63a.3.3 0 0 1-.199-.073.4.4 0 0 1-.127-.22v-.001L1.257 6.083v-.002a.42.42 0 0 1 .077-.333.3.3 0 0 1 .117-.094.3.3 0 0 1 .131-.03l.014.001z" clip-rule="evenodd"/></svg>
