<svg xmlns="http://www.w3.org/2000/svg" fill="none" viewBox="0 0 14 14"><path fill="currentColor" fill-rule="evenodd" d="M3.81 9.617 1.995 1.25H.627a.625.625 0 1 1 0-1.25h1.465c.514 0 .99.365 1.101.884l.231 1.063h9.453c.64.003 1.247.568 1.104 1.317l-.82 3.897c-.144.68-.798.886-1.107.905h-7.3L5.01 9.25h5.992a.625.625 0 0 1 0 1.25h-6.09c-.514 0-.991-.365-1.101-.883m.672-2.801h7.474l.753-3.619H3.696zm6.02 4.934a1.125 1.125 0 1 1 0 2.25 1.125 1.125 0 0 1 0-2.25m-3.875 1.125a1.125 1.125 0 1 0-2.25 0 1.125 1.125 0 0 0 2.25 0" clip-rule="evenodd"></path></svg>
