<svg xmlns="http://www.w3.org/2000/svg" fill="none" viewBox="0 0 14 14"><path fill="currentColor" fill-rule="evenodd" d="M1.25 7a5.75 5.75 0 1 1 11.5 0 5.75 5.75 0 0 1-11.5 0M7 0a7 7 0 1 0 0 14A7 7 0 0 0 7 0M3.95 3.4a.75.75 0 1 0-.9 1.2l1.03.772-.915.457a.75.75 0 0 0 .67 1.342l2-1A.75.75 0 0 0 5.95 4.9zm7 1.2a.75.75 0 1 0-.9-1.2l-2 1.5a.75.75 0 0 0 .115 1.27l2 1a.75.75 0 1 0 .67-1.34l-.914-.458zm-5.825 6.314.003-.005.013-.018a10 10 0 0 1 .24-.344c.162-.225.384-.523.63-.818.248-.298.503-.574.73-.769q.164-.138.259-.189.095.05.259.19c.227.194.482.47.73.768a15 15 0 0 1 .87 1.162l.013.018.002.005a.75.75 0 0 0 1.251-.828L9.5 10.5l.625-.414v-.001l-.002-.002-.004-.007-.016-.023a12 12 0 0 0-.266-.381c-.175-.244-.42-.571-.694-.901a8 8 0 0 0-.909-.95 3 3 0 0 0-.527-.373A1.5 1.5 0 0 0 7 7.25c-.28 0-.527.1-.707.198a3 3 0 0 0-.527.373 8 8 0 0 0-.91.95 17 17 0 0 0-.96 1.282l-.015.023-.004.007-.002.002.625.415-.625-.414a.75.75 0 0 0 1.25.828" clip-rule="evenodd"/></svg>
