<svg xmlns="http://www.w3.org/2000/svg" fill="none" viewBox="0 0 14 14"><path fill="currentColor" fill-rule="evenodd" d="M8.71 2.814a1.92 1.92 0 0 0-.27 2.022l1.047-1.048a.625.625 0 1 1 .884.884l-1.07 1.07a1.915 1.915 0 0 0 2.108-.232c.128-.138.268-.41.387-.83.118-.417.197-.905.247-1.382.045-.436.066-.849.075-1.169a16 16 0 0 0-1.184.069 8.6 8.6 0 0 0-1.393.238c-.422.116-.694.253-.83.378M7.592 5.861a3.165 3.165 0 0 1 .223-3.92c.364-.36.897-.573 1.394-.71a10 10 0 0 1 1.603-.277 17 17 0 0 1 1.909-.077l.032 0 .01 0 .002.001.001 0-.018.625.625-.014 0 .003 0 .01.001.032a12 12 0 0 1-.004.542c-.008.352-.03.835-.084 1.352a9.7 9.7 0 0 1-.288 1.594c-.14.495-.357 1.024-.72 1.387l-.035.032a3.165 3.165 0 0 1-3.71.3c-.467.87-.801 1.807-.887 2.776 3.377.184 5.526 1.773 6.244 2.67a.5.5 0 0 1-.39.813H.5a.5.5 0 0 1-.39-.812c.713-.892 2.84-2.467 6.18-2.667a4.7 4.7 0 0 0-.404-.925 6 6 0 0 0-.645-.935 2.61 2.61 0 0 1-3.278-.1c-.339-.271-.563-.685-.717-1.058a7.7 7.7 0 0 1-.374-1.238 14 14 0 0 1-.24-1.486l-.003-.026-.001-.007 0-.002 0-.001.622-.057-.09-.619.003 0 .007-.001.026-.004a9 9 0 0 1 .428-.05c.279-.027.662-.057 1.075-.065a8 8 0 0 1 1.291.07c.399.062.854.182 1.196.446a2.61 2.61 0 0 1 .848 3.21c.266.285.52.623.742.976a10 10 0 0 1 .816-1.788m5.157-4.358.017-.625c.333.01.6.278.607.61zM1.159 3.067l.091.619-.622.057a.625.625 0 0 1 .531-.676m3.588 3.336a1.36 1.36 0 0 0-.323-1.95c-.083-.065-.28-.147-.624-.2a6.5 6.5 0 0 0-1.077-.056c-.28.005-.548.022-.772.04.034.222.08.484.141.757.08.363.183.728.309 1.031.133.321.26.494.345.561l.025.021a1.36 1.36 0 0 0 1.961-.185l.012-.015zM1.34 4.304" clip-rule="evenodd"></path></svg>
