<svg xmlns="http://www.w3.org/2000/svg" fill="none" viewBox="0 0 14 14"><path fill="currentColor" fill-rule="evenodd" d="m13.19.476-.242.576c.575-.244.575-.243.576-.243l0 .002.002.004.004.01a3 3 0 0 1 .06.16 6.9 6.9 0 0 1 .364 1.917c.051 1.197-.218 2.76-1.534 4.079-.485.5-1.179.998-1.944 1.483.438.905.461 1.807.19 2.661-.318.995-1.02 1.882-1.8 2.64a.625.625 0 0 1-.97-.124l-1.923-3.192L3.55 8.027.36 6.104a.625.625 0 0 1-.126-.971c.759-.78 1.646-1.482 2.64-1.799a3.5 3.5 0 0 1 2.661.19c.486-.766.984-1.46 1.484-1.944C8.337.264 9.901-.006 11.098.046a6.9 6.9 0 0 1 1.917.364l.16.06.01.004zm-.242.576.575-.244a.63.63 0 0 0-.332-.331zM9.276 7.73a.6.6 0 0 1 .107-.059c.932-.569 1.685-1.089 2.142-1.562l.007-.008c.999-.998 1.215-2.178 1.173-3.146a5.6 5.6 0 0 0-.247-1.413 5.6 5.6 0 0 0-1.414-.247c-.967-.042-2.147.174-3.145 1.173l-.008.007C7.42 2.93 6.9 3.681 6.331 4.61a.6.6 0 0 1-.1.165l-.112.188L9.036 7.88l.196-.117zm-.038 1.483.028-.017.135-.079c.247.574.238 1.111.073 1.629-.164.514-.49 1.032-.932 1.546l-1.195-1.984q.475-.278.957-.555l.078-.044q.432-.249.856-.496M7.92 8.532 5.467 6.079l-.156.271q-.298.521-.612 1.057l1.893 1.894c.361-.212.726-.422 1.086-.63l.08-.046zM3.254 4.525a2.24 2.24 0 0 1 1.627.074c-.219.372-.445.765-.671 1.157-.175.303-.348.605-.518.897L1.708 5.458c.514-.442 1.031-.769 1.546-.933M.01 13.405l.49.095za.5.5 0 0 0 .585.585L.5 13.5l.095.49.002 0 .006 0 .023-.005.087-.018a22 22 0 0 0 1.29-.304c.37-.1.767-.22 1.116-.355.325-.125.68-.29.905-.505a2.001 2.001 0 0 0-2.18-3.287 2 2 0 0 0-.647.46c-.215.225-.38.58-.505.905a12 12 0 0 0-.355 1.116 22 22 0 0 0-.322 1.376l-.004.024-.002.006zM10.5 2.5a1 1 0 1 0 0 2 1 1 0 0 0 0-2" clip-rule="evenodd"></path></svg>
