<svg xmlns="http://www.w3.org/2000/svg" fill="none" viewBox="0 0 14 14"><path fill="currentColor" fill-rule="evenodd" d="M12.205.838a.625.625 0 0 0-.803-.43L3.804 2.96a.625.625 0 0 0-.405.754l.13.483-1.69.453-.13-.483A.625.625 0 1 0 .5 4.492l1.036 3.864a.625.625 0 0 0 1.207-.324l-.13-.483 1.691-.453.13.483a.625.625 0 0 0 .727.45l1.675-.338-2.032 5.028a.75.75 0 0 0 1.39.562L8 8.817l1.805 4.464a.75.75 0 0 0 1.39-.562L8.987 7.257l4.032-.815a.625.625 0 0 0 .48-.774zM5.49 6.688l-.731-2.73 6.41-2.154.95 3.545z" clip-rule="evenodd"></path></svg>
