<svg xmlns="http://www.w3.org/2000/svg" fill="none" viewBox="0 0 14 14"><path fill="currentColor" fill-rule="evenodd" d="M4.282 2.655c-.23.372-.4.793-.405 1.2a.62.62 0 0 0 .284.542.62.62 0 0 0 .584.052c1.12-.445 1.842-.308 2.267-.005.44.314.737.932.737 1.802 0 .63-.245 1.108-.65 1.44-.418.343-1.048.564-1.849.564a1.125 1.125 0 0 1-1.125-1.125.625.625 0 1 0-1.25 0 1.125 1.125 0 0 1-1.848.862.625.625 0 0 0-.804.957c.413.347.946.556 1.527.556.693 0 1.316-.296 1.75-.77.434.474 1.057.77 1.75.77 1.02 0 1.952-.282 2.642-.847.701-.576 1.107-1.413 1.107-2.407 0-1.128-.39-2.197-1.261-2.819-.581-.415-1.303-.58-2.118-.488A4.18 4.18 0 0 1 8.75 1.5c1.549 0 2.549.655 3.172 1.306a4.6 4.6 0 0 1 .826 1.198l.032.074.006.015v.001a.625.625 0 0 0 1.171-.44l-.586.219.586-.22-.001-.002-.002-.004-.004-.011-.014-.035-.051-.117a5 5 0 0 0-.2-.388 6 6 0 0 0-.86-1.154C12.012 1.094 10.701.25 8.749.25c-1.42 0-2.62.568-3.462 1.27a4.8 4.8 0 0 0-1.005 1.135m-.157 8.095a.625.625 0 1 0-1.25 0 1.125 1.125 0 0 1-1.848.862.625.625 0 0 0-1.027.479v1.284c0 .345.28.625.625.625h12.75c.345 0 .625-.28.625-.625v-1.284a.625.625 0 0 0-1.027-.479 1.125 1.125 0 0 1-1.848-.862.625.625 0 1 0-1.25 0 1.125 1.125 0 0 1-2.25 0 .625.625 0 1 0-1.25 0 1.125 1.125 0 0 1-2.25 0" clip-rule="evenodd"/></svg>
