<svg xmlns="http://www.w3.org/2000/svg" fill="none" viewBox="0 0 14 14"><path fill="currentColor" fill-rule="evenodd" d="M5.454.141a1.01 1.01 0 0 1 .998-.02c3.95 1.838 6.2 5.656 6.062 8.87l0 .005c-.061 1.352-.547 2.611-1.493 3.534-.949.924-2.305 1.458-4.005 1.461A5.223 5.223 0 0 1 1.482 8.99l0-.009a4.43 4.43 0 0 1 2.277-3.986.625.625 0 0 1 .876.294c.21.479.498.918.85 1.302.399-.585.587-1.322.58-2.137-.007-1.044-.335-2.167-.887-3.125A.88.88 0 0 1 5.454.141M6.738 1.68c3.027 1.76 4.63 4.82 4.527 7.253l0 .005c-.048 1.091-.434 2.032-1.117 2.698-.384.374-.88.679-1.5.873a2 2 0 1 0-3.292.009 3.97 3.97 0 0 1-2.625-3.574 3.18 3.18 0 0 1 1.104-2.486c.34.57.775 1.081 1.285 1.511a.62.62 0 0 0 .845-.022c.976-.933 1.36-2.217 1.35-3.503a7.5 7.5 0 0 0-.577-2.764" clip-rule="evenodd"></path></svg>
