<svg xmlns="http://www.w3.org/2000/svg" fill="none" viewBox="0 0 14 14"><path fill="currentColor" fill-rule="evenodd" d="m9.354 5.854 2.5-2.5a.5.5 0 0 0 0-.708l-2.5-2.5A.5.5 0 0 0 8.5.5v1.75l-6.75 0A1.75 1.75 0 0 0 0 4v2.5a.75.75 0 0 0 1.5 0l0-2.5a.25.25 0 0 1 .25-.25l6.75 0V5.5a.5.5 0 0 0 .854.354M5.19 8.038a.5.5 0 0 1 .31.462v1.75h6.75a.25.25 0 0 0 .25-.25V7.5a.75.75 0 0 1 1.5 0V10a1.75 1.75 0 0 1-1.75 1.75H5.5v1.75a.5.5 0 0 1-.854.354l-2.5-2.5a.5.5 0 0 1 0-.707l2.5-2.5a.5.5 0 0 1 .545-.109" clip-rule="evenodd"></path></svg>
