<svg xmlns="http://www.w3.org/2000/svg" fill="none" viewBox="0 0 14 14"><path fill="currentColor" fill-rule="evenodd" d="M7 1.25A5.75 5.75 0 0 0 1.249 7a.625.625 0 1 1-1.25 0 7 7 0 0 1 12.352-4.514l.582-.582A.625.625 0 0 1 14 2.345v2.203c0 .345-.28.625-.625.625h-.47l-.037 0h-1.695a.625.625 0 0 1-.442-1.067l.732-.732A5.74 5.74 0 0 0 7 1.249m6.375 5.125c.345 0 .625.28.625.625a7 7 0 0 1-12.352 4.514l-.582.582a.625.625 0 0 1-1.067-.442V9.452c0-.345.28-.625.625-.625h.473l.03 0h1.7a.625.625 0 0 1 .441 1.067l-.732.732A5.75 5.75 0 0 0 12.75 7c0-.345.28-.625.625-.625M6.125 5a.875.875 0 1 1 1.75 0 .875.875 0 0 1-1.75 0M7 2.875a2.125 2.125 0 1 0 0 4.25 2.125 2.125 0 0 0 0-4.25M7 8a3 3 0 0 0-2.75 1.8.5.5 0 0 0 .458.7h4.584a.5.5 0 0 0 .458-.7A3 3 0 0 0 7 8" clip-rule="evenodd"></path></svg>
