<svg xmlns="http://www.w3.org/2000/svg" fill="none" viewBox="0 0 14 14"><path fill="currentColor" fill-rule="evenodd" d="M1.875 12.5a.375.375 0 0 1-.375-.375l0-10.25c0-.207.168-.375.375-.375l10.25 0c.207 0 .375.168.375.375l0 10.25a.375.375 0 0 1-.375.375zM.25 12.125c0 .898.728 1.625 1.625 1.625l10.25 0c.898 0 1.625-.727 1.625-1.625l0-10.25c0-.897-.727-1.625-1.625-1.625l-10.25 0C.978.25.25.978.25 1.875zM4 6.48a2 2 0 1 1 1.5 0l0 4.52A.75.75 0 0 1 4 11zM10 3l0 2.895a2 2 0 0 1 0 3.71L10 11a.75.75 0 0 1-1.5 0l0-1.395a2 2 0 0 1 0-3.71L8.5 3A.75.75 0 0 1 10 3" clip-rule="evenodd"></path></svg>
