<svg xmlns="http://www.w3.org/2000/svg" fill="none" viewBox="0 0 14 14"><path fill="currentColor" fill-rule="evenodd" d="m2 1.625 10 0c.207 0 .375.168.375.375v4.26H10.5a.75.75 0 0 0-.575.269L8.189 8.604 6.183 4.19a.75.75 0 0 0-1.27-.157L3.14 6.26H1.625l0-4.26c0-.207.168-.375.375-.375M1.625 7.76l0 4.24c0 .207.168.375.375.375l10 0a.375.375 0 0 0 .375-.375V7.76h-1.524l-2.276 2.721a.75.75 0 0 1-1.258-.17L5.324 5.924 4.087 7.477a.75.75 0 0 1-.587.283zM12 .375H2C1.103.375.375 1.103.375 2v10c0 .898.728 1.625 1.625 1.625l10 0c.898 0 1.625-.727 1.625-1.625l0-10c0-.897-.727-1.625-1.625-1.625" clip-rule="evenodd"></path></svg>
