<svg xmlns="http://www.w3.org/2000/svg" fill="none" viewBox="0 0 14 14"><path fill="currentColor" fill-rule="evenodd" d="M12.375 6.625a5.375 5.375 0 1 0-10.75 0 5.375 5.375 0 0 0 10.75 0M7 0a6.625 6.625 0 0 1 4.743 11.25 8.3 8.3 0 0 1 1.46 1.292.875.875 0 0 1-1.306 1.166 6.5 6.5 0 0 0-1.627-1.32A6.6 6.6 0 0 1 7 13.25a6.6 6.6 0 0 1-3.27-.862 6.5 6.5 0 0 0-1.627 1.32.875.875 0 0 1-1.306-1.166 8.3 8.3 0 0 1 1.46-1.291A6.625 6.625 0 0 1 7 0m3.5 6.625a3.5 3.5 0 1 0-7 0 3.5 3.5 0 0 0 7 0M7 5.375a1.25 1.25 0 1 1 0 2.5 1.25 1.25 0 0 1 0-2.5" clip-rule="evenodd"/></svg>
