<svg xmlns="http://www.w3.org/2000/svg" fill="none" viewBox="0 0 14 14"><path fill="currentColor" fill-rule="evenodd" d="M8.568 1.875v4.75c0 .897-.727 1.625-1.625 1.625H1.875A1.625 1.625 0 0 1 .25 6.625v-4.75C.25.978.978.25 1.875.25h5.068c.898 0 1.625.728 1.625 1.625m3.807 10.25v-1.25A.375.375 0 0 0 12 10.5l-10 0a.375.375 0 0 0-.375.375l0 1.25c0 .207.168.375.375.375l10 0a.375.375 0 0 0 .375-.375m1.25-1.25v1.25c0 .898-.727 1.625-1.625 1.625l-10 0a1.625 1.625 0 0 1-1.625-1.625l0-1.25c0-.897.728-1.625 1.625-1.625l10 0c.898 0 1.625.728 1.625 1.625M12.5 1.5h-1.719v1.125l1.719 0zm1.25-.125V2.75c0 .621-.504 1.125-1.125 1.125l-1.969 0A1.125 1.125 0 0 1 9.531 2.75V1.375c0-.621.504-1.125 1.125-1.125h1.969c.621 0 1.125.504 1.125 1.125m-2.969 4.5H12.5V7h-1.719zm2.969 1.25V5.75c0-.621-.504-1.125-1.125-1.125h-1.969c-.621 0-1.125.504-1.125 1.125v1.375c0 .621.504 1.125 1.125 1.125l1.969 0c.621 0 1.125-.504 1.125-1.125" clip-rule="evenodd"></path></svg>
