<svg xmlns="http://www.w3.org/2000/svg" fill="none" viewBox="0 0 14 14"><path fill="currentColor" fill-rule="evenodd" d="M9.812 1.166a.625.625 0 0 0 .195.862 5.87 5.87 0 0 1 2.743 4.97 5.87 5.87 0 0 1-2.747 4.973.625.625 0 0 0 .666 1.058c2-1.26 3.331-3.49 3.331-6.03A7.12 7.12 0 0 0 10.675.97a.625.625 0 0 0-.863.195M7 5.75a1.25 1.25 0 1 1 0 2.5 1.25 1.25 0 0 1 0-2.5m1.17-1.407a.625.625 0 1 1 .55-1.123 4.205 4.205 0 0 1 .003 7.558.625.625 0 1 1-.55-1.123 2.955 2.955 0 0 0-.002-5.312M4.189 1.166a.625.625 0 0 1-.195.862 5.87 5.87 0 0 0-2.743 4.97 5.87 5.87 0 0 0 2.747 4.973.625.625 0 0 1-.666 1.058A7.12 7.12 0 0 1 0 6.999 7.12 7.12 0 0 1 3.326.97a.625.625 0 0 1 .862.195m1.641 3.177a.625.625 0 1 0-.548-1.123 4.205 4.205 0 0 0-.004 7.558.625.625 0 1 0 .55-1.123 2.955 2.955 0 0 1 .002-5.312" clip-rule="evenodd"/></svg>
