<svg xmlns="http://www.w3.org/2000/svg" fill="none" viewBox="0 0 14 14"><path fill="currentColor" fill-rule="evenodd" d="M3.5 0a.63.63 0 0 0-.347.105l.347.52-.347-.52-.001.001-.002.001-.003.003-.01.006a1 1 0 0 0-.095.072 3 3 0 0 0-.218.198 4 4 0 0 0-.61.792c-.435.725-.839 1.837-.839 3.447 0 3.04 2.073 5.18 4.75 5.563v2.062h-1.25a.875.875 0 0 0 0 1.75h4.25a.875.875 0 0 0 0-1.75h-1.25v-2.062c2.677-.384 4.75-2.522 4.75-5.563 0-1.61-.404-2.722-.84-3.447a4 4 0 0 0-.609-.792 3 3 0 0 0-.314-.27L10.853.11 10.85.107l-.002-.001c-.001 0-.001-.001-.348.519l.347-.52A.63.63 0 0 0 10.5 0zm7.875 4.625c0-1.39-.346-2.278-.66-2.803a3 3 0 0 0-.423-.552l-.02-.02H3.728l-.02.02a3 3 0 0 0-.422.552c-.315.525-.661 1.413-.661 2.803z" clip-rule="evenodd"/></svg>
