<svg xmlns="http://www.w3.org/2000/svg" fill="none" viewBox="0 0 14 14"><path fill="currentColor" fill-rule="evenodd" d="M.433.738a.625.625 0 0 1 .83-.305L1 1l.263-.567.003.001.006.003.019.01.062.03q.078.04.215.117c.181.104.434.26.734.475.6.431 1.393 1.103 2.183 2.075C5.45 4.332 6.402 5.957 7 8.118c.598-2.161 1.55-3.786 2.515-4.974a11.4 11.4 0 0 1 2.183-2.075 8.5 8.5 0 0 1 .95-.592l.062-.03.018-.01.006-.003h.003V.433L13 1l-.262-.567a.625.625 0 0 1 .526 1.134h-.001l-.007.003-.038.02a7 7 0 0 0-.79.495 10.2 10.2 0 0 0-1.943 1.848C9.073 5.67 7.625 8.533 7.625 13a.625.625 0 1 1-1.25 0c0-4.467-1.447-7.329-2.86-9.067a10.2 10.2 0 0 0-1.942-1.848 7 7 0 0 0-.79-.495l-.039-.02-.006-.003A.625.625 0 0 1 .433.738m.304.829" clip-rule="evenodd"/></svg>
