<svg xmlns="http://www.w3.org/2000/svg" fill="none" viewBox="0 0 14 14"><path stroke="currentColor" stroke-linecap="round" stroke-linejoin="round" d="M11.527 1.064v2.83m-1.416-1.415h2.83M2.829 12.936c1.133 0 1.77-.637 1.77-1.77s-.637-1.77-1.77-1.77-1.77.637-1.77 1.77.637 1.77 1.77 1.77m6.928-.839c1.133 0 1.77-.638 1.77-1.77 0-1.134-.637-1.771-1.77-1.771s-1.77.637-1.77 1.77.637 1.77 1.77 1.77M4.589 7.32v3.846m6.938-5.452-.349.094c-1.028.274-2.092.56-3.192.813a94 94 0 0 1-3.397.7V5.864A1.98 1.98 0 0 1 6.076 3.94 60 60 0 0 1 8.5 3.381m3.027 6.923V5.721"/></svg>
