<svg xmlns="http://www.w3.org/2000/svg" fill="none" viewBox="0 0 14 14"><path stroke="currentColor" stroke-linecap="round" stroke-linejoin="round" d="M.75.75h12.5M1.892 8.902c-.08-.616-.142-1.556-.142-2.473s.062-1.858.142-2.474a.98.98 0 0 1 .803-.859A5.5 5.5 0 0 1 3.75 3c.42 0 .772.04 1.055.096a.98.98 0 0 1 .803.86c.08.615.142 1.555.142 2.473s-.062 1.857-.142 2.473a.98.98 0 0 1-.803.859 5.5 5.5 0 0 1-1.055.096c-.42 0-.772-.04-1.055-.096a.98.98 0 0 1-.803-.859m6.52 2.996c-.09-.82-.162-2.288-.162-3.97 0-1.681.072-3.148.161-3.969a.96.96 0 0 1 .784-.863A5.5 5.5 0 0 1 10.25 3c.42 0 .772.04 1.055.096.437.086.735.42.784.863.089.82.16 2.288.16 3.97 0 1.681-.071 3.148-.16 3.97a.96.96 0 0 1-.784.862 5.5 5.5 0 0 1-1.055.096c-.42 0-.772-.04-1.055-.096a.96.96 0 0 1-.784-.863"/></svg>
