<svg xmlns="http://www.w3.org/2000/svg" fill="none" viewBox="0 0 14 14"><path stroke="currentColor" stroke-linecap="round" stroke-linejoin="round" d="M10.726 13.25V8.442m-2.404 2.404h4.808M.95 4.411c.06.554.506 1 1.06 1.061.411.046.833.086 1.264.086.43 0 .853-.04 1.264-.086.554-.061 1-.507 1.06-1.061.043-.41.08-.829.08-1.257s-.037-.848-.08-1.257c-.06-.554-.506-1-1.06-1.062A11 11 0 0 0 3.274.75c-.43 0-.853.04-1.264.085-.554.062-1 .508-1.06 1.062-.043.409-.08.829-.08 1.257s.037.848.08 1.257m0 7.692c.06.555.506 1 1.06 1.062.411.046.833.085 1.264.085.43 0 .853-.04 1.264-.085.554-.062 1-.507 1.06-1.062.043-.409.08-.829.08-1.257s-.037-.848-.08-1.257c-.06-.554-.506-1-1.06-1.061a11 11 0 0 0-1.264-.086c-.43 0-.853.04-1.264.086-.554.061-1 .507-1.06 1.061-.043.41-.08.83-.08 1.257 0 .428.037.848.08 1.257m7.453-7.692c.06.554.505 1 1.059 1.061.411.046.833.086 1.264.086.43 0 .853-.04 1.264-.086.554-.061 1-.507 1.06-1.061.043-.41.08-.829.08-1.257s-.037-.848-.08-1.257c-.06-.554-.506-1-1.06-1.062C11.58.79 11.157.75 10.727.75s-.853.04-1.264.085c-.554.062-1 .508-1.059 1.062-.044.409-.08.829-.08 1.257s.036.848.08 1.257"/></svg>
