<svg xmlns="http://www.w3.org/2000/svg" fill="none" viewBox="0 0 14 14"><path stroke="currentColor" stroke-linecap="round" stroke-linejoin="round" d="M5.354 6.135c1.664 0 2.6-.936 2.6-2.6s-.936-2.6-2.6-2.6-2.6.936-2.6 2.6.936 2.6 2.6 2.6m3.874 6.781c.815 0 1.274-.459 1.274-1.274s-.46-1.274-1.274-1.274-1.274.459-1.274 1.274.459 1.274 1.274 1.274m-3.148-.997H2.483c-1.528 0-2.387-1.634-1.115-2.481a7.16 7.16 0 0 1 3.985-1.203c.837 0 1.64.143 2.388.406m2.761 3.001V7.24c1.441 0 2.732 1.232 2.747 2.673v.052"/></svg>
