<svg xmlns="http://www.w3.org/2000/svg" fill="none" viewBox="0 0 14 14"><g stroke="currentColor" stroke-linecap="round" stroke-linejoin="round"><path d="M10.783 10.693 9.32 3.583h1.767c1.203 0 1.423.92 1.382 1.381m-2.762.759-6.42 4.952m1.536-5.839 1.974 2.912m-3.556 5.426c1.568 0 2.449-.882 2.449-2.449s-.882-2.448-2.449-2.448-2.448.881-2.448 2.448.881 2.449 2.448 2.449"/><path d="M10.758 13.174c1.567 0 2.449-.882 2.449-2.449s-.882-2.448-2.449-2.448-2.448.881-2.448 2.448.881 2.449 2.448 2.449M3.765 4.802h2.288"/></g></svg>
