<svg xmlns="http://www.w3.org/2000/svg" fill="none" viewBox="0 0 14 14"><g stroke="currentColor" stroke-linecap="round" stroke-linejoin="round"><path d="M3.276 13.247c1.607 0 2.511-.917 2.511-2.548 0-1.63-.904-2.548-2.51-2.548-1.608 0-2.511.917-2.511 2.548 0 1.63.903 2.548 2.51 2.548m7.448 0c-1.607 0-2.511-.917-2.511-2.548 0-1.63.904-2.548 2.51-2.548 1.607 0 2.511.917 2.511 2.548 0 1.63-.904 2.548-2.51 2.548M9.506 4.139c-1.705-1.157-3.318-1.157-5.024 0"/><path d="m5.56 3.545-.02-.383C5.473 1.616 4.85.75 3.284.75s-2.189.866-2.257 2.412C.915 5.663.665 8.337.776 10.838c.068 1.546.963 2.412 2.507 2.412s2.44-.866 2.508-2.412c.062-1.41.01-2.874-.067-4.332M8.44 3.545l.018-.383C8.527 1.616 9.151.75 10.716.75s2.189.866 2.258 2.412c.11 2.501.36 5.175.25 7.676-.069 1.546-.964 2.412-2.508 2.412s-2.44-.866-2.508-2.412c-.062-1.41-.01-2.875.067-4.333"/></g></svg>
