<svg xmlns="http://www.w3.org/2000/svg" fill="none" viewBox="0 0 14 14"><g stroke="currentColor" stroke-linecap="round" stroke-linejoin="round"><path d="M7 5.404c-.78 0-2.822 0-4.338.293-.615.119-1.07.61-1.23 1.216-.21.794-.21 1.098-.21 2.352 0 1.255 0 1.558.21 2.352.16.606.615 1.098 1.23 1.217 1.516.292 3.558.292 4.338.292s2.822 0 4.337-.292c.615-.12 1.071-.61 1.23-1.216.21-.795.21-1.098.21-2.353 0-1.254 0-1.558-.21-2.352-.159-.606-.615-1.097-1.23-1.216C9.822 5.404 7.78 5.404 7 5.404"/><path d="M12.777 8.764q-.15.069-.315.105c-1.853.396-4.481.396-5.462.396s-3.608 0-5.461-.396a1.5 1.5 0 0 1-.316-.105M5.458.874 4.937 2.04m0 3.284c1.05 0 1.641-.59 1.641-1.641s-.59-1.641-1.641-1.641-1.642.59-1.642 1.64.591 1.642 1.642 1.642"/></g></svg>
