<svg xmlns="http://www.w3.org/2000/svg" fill="none" viewBox="0 0 14 14"><g stroke="currentColor" stroke-linecap="round" stroke-linejoin="round"><path d="M9.305 1.396h-4.61L3.55 3.468l-.675.058a2.09 2.09 0 0 0-1.884 1.77C.864 6.156.75 7.041.75 7.945c0 .906.114 1.792.241 2.652.14.95.928 1.687 1.884 1.77 1.372.118 2.747.236 4.125.236s2.753-.118 4.125-.236a2.09 2.09 0 0 0 1.884-1.77c.127-.86.241-1.746.241-2.651s-.114-1.791-.241-2.651a2.09 2.09 0 0 0-1.884-1.77l-.675-.058z"/><path d="M7 9.902c1.44 0 2.25-.81 2.25-2.25S8.44 5.402 7 5.402s-2.25.81-2.25 2.25.81 2.25 2.25 2.25"/></g></svg>
