<svg xmlns="http://www.w3.org/2000/svg" fill="none" viewBox="0 0 14 14"><g stroke="currentColor" stroke-linecap="round" stroke-linejoin="round"><path d="m2.67 11.285-.541-.025a1.06 1.06 0 0 1-.966-.779c-.137-.5-.27-1.02-.27-1.55 0-.563.15-1.113.296-1.644l.016-.058c.1-.363.382-.654.748-.744q.549-.135 1.082-.251a5.3 5.3 0 0 1 .632-2.193.9.9 0 0 1 .613-.447c.87-.181 1.598-.27 2.707-.27 1.11 0 1.807.089 2.716.271.27.054.507.22.635.462.37.706.59 1.44.628 2.197q.537.115 1.065.238c.374.087.666.38.767.751l.013.044c.145.531.297 1.081.297 1.645 0 .53-.134 1.048-.271 1.55-.12.438-.512.758-.966.778l-.541.025m-5.674.122a51 51 0 0 0 2.68 0M7 1.523v1.8"/><path d="M4.172 12.471c.98 0 1.531-.551 1.531-1.531s-.551-1.531-1.531-1.531S2.64 9.96 2.64 10.94s.55 1.531 1.53 1.531m5.65 0c.98 0 1.532-.551 1.532-1.531S10.8 9.409 9.82 9.409s-1.53.551-1.53 1.531.55 1.531 1.53 1.531"/></g></svg>
