<svg xmlns="http://www.w3.org/2000/svg" fill="none" viewBox="0 0 14 14"><g stroke="currentColor" stroke-linecap="round" stroke-linejoin="round"><path d="m4.184 2.442-1.044.132a1.01 1.01 0 0 0-.892.924 60 60 0 0 0 0 8.609.98.98 0 0 0 .894.907 45 45 0 0 0 7.716 0 .98.98 0 0 0 .894-.907 60 60 0 0 0 0-8.609 1.01 1.01 0 0 0-.892-.924l-1.044-.132"/><path d="M5.656.82h2.688s1.484 0 1.484 1.484v.001s0 1.484-1.484 1.484H5.656s-1.484 0-1.484-1.484v-.001S4.172.82 5.656.82m.89 10.133c-.358-.037-.616-.348-.628-.708q-.012-.414-.02-.822a67 67 0 0 1-.831-.02c-.36-.012-.671-.27-.709-.629a5.3 5.3 0 0 1 0-1.111c.038-.359.349-.617.709-.628q.42-.014.83-.02l.021-.823c.012-.36.27-.67.628-.708.374-.04.738-.04 1.112 0 .358.037.616.348.628.708q.012.415.02.822l.815.021c.36.011.671.27.709.628a5.3 5.3 0 0 1 0 1.111c-.038.359-.348.617-.709.628q-.41.014-.815.021-.008.407-.02.822c-.012.36-.27.67-.628.708-.374.04-.738.04-1.112 0"/></g></svg>
