<svg xmlns="http://www.w3.org/2000/svg" fill="none" viewBox="0 0 14 14"><path stroke="currentColor" stroke-linecap="round" stroke-linejoin="round" d="M7.061 3.297c.902.068 1.712.068 2.614 0a9.7 9.7 0 0 0 0-2.176 17 17 0 0 0-2.614 0 9.7 9.7 0 0 0 0 2.176m-2.76 4.324q-.927.021-1.878.057a.954.954 0 0 0-.92.815 13 13 0 0 0 0 3.589c.063.46.456.797.92.815a118 118 0 0 0 9.154 0 .954.954 0 0 0 .92-.815 13 13 0 0 0 0-3.589.954.954 0 0 0-.92-.815q-.951-.036-1.879-.057a39 39 0 0 0-.047-.784.98.98 0 0 0-.469-.77c-.728-.445-1.456-.867-2.136-1.164-.753.295-1.496.711-2.235 1.164a.98.98 0 0 0-.463.765q-.027.405-.047.79M7 2.21v2.693M4.302 7.62v5.324M7 10.833v2.152M9.694 7.62v5.324"/></svg>
