<svg xmlns="http://www.w3.org/2000/svg" fill="none" viewBox="0 0 14 14"><path stroke="currentColor" stroke-linecap="round" stroke-linejoin="round" d="M11.223 5.484a.24.24 0 0 1-.167-.19 3.62 3.62 0 0 0-1.037-2.212 3.79 3.79 0 0 0-4.65-.553 3.67 3.67 0 0 0-1.547 1.906.22.22 0 0 1-.202.12 3.1 3.1 0 0 0-1.159.307 3.1 3.1 0 0 0-.95.718 2.98 2.98 0 0 0-.754 2.186c.055.798.43 1.543 1.045 2.069 2.309 1.979 8.245 2.13 10.576.078a2.54 2.54 0 0 0 .393-3.403 2.63 2.63 0 0 0-1.548-1.026m-4.12-.828V6.68m0 2.24v.125"/></svg>
