<svg xmlns="http://www.w3.org/2000/svg" fill="none" viewBox="0 0 14 14"><g stroke="currentColor" stroke-linecap="round" stroke-linejoin="round"><path d="M4.75 13.25h6.5a2 2 0 0 0 2-2v-3c0-.632-.293-1.195-.75-1.561"/><path d="m12.372 6.86-4.639 4.647q.017-.126.017-.257v-8.5l-.017-1.092a2 2 0 0 1 2.514.255l2.123 2.12a2 2 0 0 1 .002 2.828"/><path d="m12.372 6.86-4.639 4.647q.017-.126.017-.257V1.647a2 2 0 0 1 2.497.266l2.123 2.12a2 2 0 0 1 .002 2.828"/><path d="M.75 11.25v-8.5a2 2 0 0 1 2-2h3a2 2 0 0 1 2 2v8.5a2 2 0 0 1-2 2h-3a2 2 0 0 1-2-2"/><path d="M.75 11.25v-8.5a2 2 0 0 1 2-2h3a2 2 0 0 1 2 2v8.5a2 2 0 0 1-2 2h-3a2 2 0 0 1-2-2"/><path d="M.75 8v3.25a2 2 0 0 0 2 2h3a2 2 0 0 0 2-2V8zM1 8h6.5M.75 4.516l7-.032m-3.5 6.05v.182"/></g></svg>
