<svg xmlns="http://www.w3.org/2000/svg" fill="none" viewBox="0 0 14 14"><path stroke="currentColor" stroke-linecap="round" stroke-linejoin="round" d="M.869 9.05h2.084m8.087 0h2.085M9.132 2.953V.869m0 12.271v-2.084M.869 4.95h2.084m1.915-1.997V.869M11.04 4.95h2.085m-8.257 8.19v-2.084m-1.811-1.04c.054.48.435.861.915.916.973.111 1.987.244 3.028.244 1.042 0 2.055-.133 3.029-.244a1.04 1.04 0 0 0 .914-.916c.108-.97.233-1.979.233-3.016s-.125-2.047-.233-3.016a1.04 1.04 0 0 0-.914-.916c-.974-.11-1.987-.244-3.029-.244s-2.055.133-3.028.244a1.04 1.04 0 0 0-.915.916c-.107.97-.232 1.979-.232 3.016s.125 2.047.232 3.016M7 8.009h1.448"/></svg>
