<svg xmlns="http://www.w3.org/2000/svg" fill="none" viewBox="0 0 14 14"><g stroke="currentColor" stroke-linecap="round" stroke-linejoin="round"><path d="M12.019 10.271c.12-2.719.087-5.348-.097-8.115a.98.98 0 0 0-.887-.912 43 43 0 0 0-8.07 0 .98.98 0 0 0-.887.912 73 73 0 0 0-.032 9.348q.015-.255.034-.51a.98.98 0 0 1 .892-.91 47.6 47.6 0 0 1 8.553 0 1 1 0 0 1 .494.187"/><path d="m5.586 3.785-.047.052c-.322.36-.33.9-.012 1.264A20 20 0 0 0 7.495 7.07a.953.953 0 0 0 1.264-.012l.052-.047m3.197 3.253a1 1 0 0 0-.484-.18 47.6 47.6 0 0 0-8.553 0 .98.98 0 0 0-.891.91l-.034.507q.015.252.034.506a.98.98 0 0 0 .891.91c2.934.257 5.62.257 8.553 0a1 1 0 0 0 .48-.177 1.87 1.87 0 0 1-.465-1.236c0-.476.177-.91.469-1.24"/></g></svg>
