<svg xmlns="http://www.w3.org/2000/svg" fill="none" viewBox="0 0 14 14"><g stroke="currentColor" stroke-linecap="round" stroke-linejoin="round"><path d="M10.374 3.49a51 51 0 0 0-.099-1.652.976.976 0 0 0-.9-.9 48.4 48.4 0 0 0-7.477 0 .976.976 0 0 0-.9.9 48 48 0 0 0 0 7.448.976.976 0 0 0 .9.9q.869.065 1.716.101"/><path d="M3.729 11.913a.976.976 0 0 0 .9.9 48.4 48.4 0 0 0 7.477 0 .976.976 0 0 0 .9-.9 48 48 0 0 0 0-7.447.976.976 0 0 0-.9-.9 48.4 48.4 0 0 0-7.477 0 .976.976 0 0 0-.9.9 48 48 0 0 0 0 7.447M6.26 8.19h4.216M8.367 6.081v4.216"/></g></svg>
