<svg xmlns="http://www.w3.org/2000/svg" fill="none" viewBox="0 0 14 14"><g stroke="currentColor" stroke-linecap="round" stroke-linejoin="round"><path d="M2.24 2.639c1.105-.18 2.033-.446 4.76-.446 2.1 0 3.77.197 4.802.36.68.11 1.151.705 1.151 1.395v5.867c0 .793-.62 1.446-1.4 1.581q-.26.045-.526.094"/><path d="M1.047 5.605h1.024M2.26 2.64q.06-.015.122-.026l.406-.072c.917-.165 1.94-.35 4.212-.35 2.136 0 3.83.204 4.856.37.648.105 1.097.672 1.097 1.329v1.713H4.768m3.775 3.597h2.017"/><path d="M.55.55c4.362 5.587 7.193 8.388 12.9 12.9M1.047 5.605v4.21c0 .793.62 1.446 1.401 1.581 1.021.178 1.998.411 4.552.411h.233"/></g></svg>
