<svg xmlns="http://www.w3.org/2000/svg" fill="none" viewBox="0 0 14 14"><path stroke="currentColor" stroke-linecap="round" stroke-linejoin="round" d="M.856 8.088c-.09.7.408 1.361 1.08 1.558.776.227 1.665.464 2.577.695a50 50 0 0 0 1.037 1.935c.265.47.821.75 1.343.686.596-.073.96-.571.825-1.144l-.178-.742c.968.225 1.836.42 2.473.56a1.024 1.024 0 0 0 1.235-.797 1 1 0 0 0 .038-.11c.206-.736.388-1.617.512-2.274a1.184 1.184 0 0 0-.742-1.315 1.05 1.05 0 0 0-1.339.524c-.164.347-.357.766-.542 1.197-1.513-.673-3.56-1.553-5.347-2.217-1.319-.49-2.794.044-2.972 1.444M9.967 4l.844-.844M7.005 5.888c-.272-.503-.413-1.126-.413-1.859 0-2.141 1.204-3.345 3.345-3.345s3.346 1.204 3.346 3.345c0 .55-.08 1.04-.235 1.462"/></svg>
