<svg xmlns="http://www.w3.org/2000/svg" fill="none" viewBox="0 0 14 14"><g stroke="currentColor" stroke-linecap="round" stroke-linejoin="round"><path d="M.75.75v10.5a2 2 0 0 0 2 2h10.5"/><path d="M4.5 7.25c1.12 0 1.75-.63 1.75-1.75S5.62 3.75 4.5 3.75s-1.75.63-1.75 1.75.63 1.75 1.75 1.75m7-3c1.12 0 1.75-.63 1.75-1.75S12.62.75 11.5.75s-1.75.63-1.75 1.75.63 1.75 1.75 1.75M9 10.75c1.12 0 1.75-.63 1.75-1.75S10.12 7.25 9 7.25 7.25 7.88 7.25 9s.63 1.75 1.75 1.75M3.313 6.906.75 9.766m10.437-5.538-1 3.366M6.113 6.292 7.56 7.883"/></g></svg>
