<svg xmlns="http://www.w3.org/2000/svg" fill="none" viewBox="0 0 14 14"><g stroke="currentColor" stroke-linecap="round" stroke-linejoin="round"><path d="M3.5 4.506v5.5a2 2 0 0 0 2 2h1m-3-5h3"/><path d="M3.637.506C3 .506 2.4.53 1.86.586 1.294.644.76.982.608 1.53.535 1.794.5 2.095.5 2.506s.035.713.108.977c.152.548.686.886 1.252.944.541.056 1.141.08 1.777.08s1.235-.024 1.776-.08c.566-.058 1.1-.396 1.252-.944.073-.264.109-.565.109-.977 0-.411-.036-.712-.109-.976C6.514.982 5.98.644 5.413.586a18 18 0 0 0-1.776-.08M10 5.464c-.799 0-1.548.024-2.209.079-.49.041-.996.264-1.175.722-.078.201-.116.43-.116.741 0 .312.038.541.116.742.18.458.684.68 1.175.722.66.055 1.41.079 2.209.079s1.548-.024 2.209-.079c.49-.041.996-.264 1.175-.722.078-.201.116-.43.116-.742 0-.311-.038-.54-.116-.74-.18-.46-.684-.682-1.175-.723-.66-.055-1.41-.079-2.209-.079m0 4.946c-.799 0-1.548.023-2.209.078-.49.042-.996.264-1.175.723-.078.2-.116.43-.116.74s.038.541.116.742c.18.459.684.681 1.175.722.66.056 1.41.079 2.209.079s1.548-.023 2.209-.079c.49-.04.996-.263 1.175-.722.078-.2.116-.43.116-.741s-.038-.54-.116-.741c-.18-.46-.684-.681-1.175-.723-.66-.055-1.41-.078-2.209-.078"/></g></svg>
