<svg xmlns="http://www.w3.org/2000/svg" fill="none" viewBox="0 0 14 14"><g stroke="currentColor" stroke-linecap="round" stroke-linejoin="round"><path d="M7 .75c-5 0-5.788 4.119-5.5 6 .31 2.02 2.119 6 5.5 6 3.382 0 5.19-3.98 5.5-6 .289-1.881-.5-6-5.5-6"/><path d="M7 3.25c-1.991 0-2.858 1.147-3 2.014-.05.304.163.566.459.652.547.16 1.457.334 2.54.334 1.085 0 1.995-.174 2.542-.333.296-.087.51-.349.46-.653C9.857 4.397 8.99 3.25 7 3.25m3.271 8.008C9.871 10.158 8.935 9 7.001 9c-1.936 0-2.872 1.158-3.272 2.258.849.873 1.938 1.492 3.271 1.492 1.334 0 2.422-.619 3.271-1.492m1.981.492 1 1.56M1.749 11.75.748 13.31"/></g></svg>
