<svg xmlns="http://www.w3.org/2000/svg" fill="none" viewBox="0 0 14 14"><path stroke="currentColor" stroke-linecap="round" stroke-linejoin="round" d="M9.572 6.975c-.458-.041-.787-.438-.801-.898a76 76 0 0 1-.021-.841 75 75 0 0 1-.852-.021c-.459-.014-.856-.343-.898-.8a6 6 0 0 1 0-1.083c.042-.458.439-.787.898-.8q.429-.014.852-.022.008-.417.02-.842c.015-.459.344-.856.802-.898a6 6 0 0 1 1.082 0c.457.042.787.439.8.898q.014.424.021.843.414.008.834.02c.46.014.857.343.898.801.033.363.033.719 0 1.082-.041.458-.438.787-.898.8q-.42.014-.834.022-.008.417-.02.841c-.014.46-.344.857-.801.898a6 6 0 0 1-1.082 0m-8.506-.609.698-.044a8 8 0 0 1 2.448.227l1.166.294c.639.16 1.062.766.995 1.42v0a1.325 1.325 0 0 1-1.551 1.169l-1.109-.198 3.909.7 4.048-.96a1.24 1.24 0 0 1 1.487.89v0a1.24 1.24 0 0 1-.733 1.469l-3.238 1.315c-1.575.64-3.33.68-4.933.113L.896 11.572"/></svg>
