<svg xmlns="http://www.w3.org/2000/svg" fill="none" viewBox="0 0 14 14"><path stroke="currentColor" stroke-linecap="round" stroke-linejoin="round" d="M1.233 3.087c-.644.386-.643.942-.003 1.33.63.38 1.288.77 2.038 1.13s1.562.675 2.356.977c.807.308 1.967.308 2.771-.001.787-.303 1.59-.618 2.337-.976a25 25 0 0 0 2.035-1.121c.644-.386.644-.943.003-1.33-.63-.38-1.288-.77-2.038-1.13S9.17 1.291 8.376.988C7.569.681 6.409.681 5.605.99c-.787.302-1.59.618-2.337.976-.746.358-1.405.743-2.035 1.12M13.25 7.795a27 27 0 0 1-2.205 1.12c-.81.359-1.68.675-2.533.977-.871.309-2.128.309-3.003.001-.86-.302-1.74-.617-2.553-.977S1.43 8.166.747 7.786M13.25 10.92a27 27 0 0 1-2.205 1.12c-.81.359-1.68.675-2.533.977-.871.309-2.128.309-3.003.002-.86-.303-1.74-.618-2.553-.978S1.43 11.29.747 10.91"/></svg>
