<svg xmlns="http://www.w3.org/2000/svg" fill="none" viewBox="0 0 14 14"><path stroke="currentColor" stroke-linecap="round" stroke-linejoin="round" d="M7.25 6.747.843 13.152M11.159 1.607c.85-.367 1.708.453 1.337 1.3-.208.477-.462.946-.81 1.511.485.475.863.87 1.213 1.279.605.705.072 1.767-.851 1.654a13 13 0 0 1-1.31-.236.4.4 0 0 0-.445.206 17 17 0 0 1-.882 1.542c-.5.769-1.657.583-1.83-.317-.108-.566-.161-1.15-.18-1.898-.727-.03-1.3-.088-1.86-.195-.906-.174-1.111-1.341-.337-1.843.45-.292.925-.559 1.518-.855a.4.4 0 0 0 .21-.448 13 13 0 0 1-.245-1.36C6.58 1.034 7.623.503 8.32 1.1c.418.357.822.75 1.311 1.262.576-.314 1.05-.55 1.528-.756"/></svg>
