<svg xmlns="http://www.w3.org/2000/svg" fill="none" viewBox="0 0 14 14"><g stroke="currentColor" stroke-linecap="round" stroke-linejoin="round"><path d="M13.181 7.226c.047-.534.069-1.12.069-1.822 0-1.176-.062-2.026-.197-2.849-.133-.815-.819-1.415-1.64-1.508C9.994.885 8.517.764 7 .764s-2.993.121-4.414.283c-.82.093-1.506.693-1.64 1.508C.813 3.378.75 4.228.75 5.404c0 1.175.062 2.026.197 2.848.133.816.819 1.415 1.64 1.509l.125.014"/><path d="m1.277 1.777 4.486 3.539a2 2 0 0 0 2.475.001l4.493-3.536M8.21 10.25h3a2 2 0 0 1 2 2v1"/><path d="m10.21 8.25-2 2 2 2m-3.25-4-2 2 2 2"/></g></svg>
