<svg xmlns="http://www.w3.org/2000/svg" fill="none" viewBox="0 0 14 14"><path stroke="currentColor" stroke-linecap="round" stroke-linejoin="round" d="M8.076 4.258a4 4 0 0 1 .821-2.008.84.84 0 0 1 1.327 0c.435.554.728 1.233.821 2.008a4 4 0 0 1 2.008.822.84.84 0 0 1 0 1.326 4 4 0 0 1-2.008.821 4 4 0 0 1-.821 2.008.84.84 0 0 1-1.327 0 4 4 0 0 1-.821-2.008 4 4 0 0 1-2.008-.821.84.84 0 0 1 0-1.326 4 4 0 0 1 2.008-.822M2.519 8.956a3.25 3.25 0 0 1 .668-1.633.682.682 0 0 1 1.078 0c.354.45.592 1.002.668 1.633.63.075 1.182.314 1.632.668a.682.682 0 0 1 0 1.078 3.25 3.25 0 0 1-1.632.668 3.25 3.25 0 0 1-.668 1.632.682.682 0 0 1-1.078 0 3.25 3.25 0 0 1-.668-1.632 3.25 3.25 0 0 1-1.632-.668.682.682 0 0 1 0-1.079 3.25 3.25 0 0 1 1.632-.667m-.524-6.849A2.35 2.35 0 0 1 2.478.925c.2-.255.58-.255.78 0 .257.326.43.726.484 1.182a2.35 2.35 0 0 1 1.182.483c.255.2.255.58 0 .78a2.35 2.35 0 0 1-1.182.484 2.35 2.35 0 0 1-.483 1.182.494.494 0 0 1-.78 0 2.35 2.35 0 0 1-.484-1.182 2.35 2.35 0 0 1-1.182-.483.494.494 0 0 1 0-.78 2.35 2.35 0 0 1 1.182-.484"/></svg>
