<svg xmlns="http://www.w3.org/2000/svg" fill="none" viewBox="0 0 14 14"><g stroke="currentColor" stroke-linecap="round" stroke-linejoin="round"><path d="M6.918 3.181c.568-.122.945-.128 1.518-.046.142.02.213.18.135.3-.499.77-.885 1.248-1.505 1.865-.112.112-.06.304.096.332.574.103.999.073 1.684-.076M10.523.715c.8-.172 1.333-.182 2.134-.07.212.03.319.27.202.449-.697 1.074-1.242 1.75-2.105 2.611-.168.168-.09.456.145.497.8.14 1.4.097 2.364-.113m-8.281 8.548a1.5 1.5 0 0 0 2.646 0"/><path d="M6.217 1.679a3.484 3.484 0 0 0-3.485 3.484c0 .75-.125 1.35-.313 1.826-.218.551-.877.728-1.321 1.122-.557.495-.423 1.445.089 1.823 0 0 .86.745 5.03.745s5.03-.745 5.03-.745c.511-.378.646-1.328.089-1.823-.444-.394-1.103-.57-1.321-1.122a4 4 0 0 1-.089-.249"/></g></svg>
