<svg xmlns="http://www.w3.org/2000/svg" fill="none" viewBox="0 0 14 14"><g stroke="currentColor" stroke-linecap="round" stroke-linejoin="round"><path d="M9.777 3.616C9.184 1.86 7.684.9 5.437.9 2.478.901.814 2.566.814 5.526c0 2.447 1.137 4.008 3.202 4.477"/><path d="M1.168 7.305h1.245A1.245 1.245 0 0 0 3.66 6.06V4.993a1.245 1.245 0 0 1 1.245-1.246A1.245 1.245 0 0 0 6.15 2.502V.936A7 7 0 0 0 5.438.9C2.478.901.813 2.566.813 5.526q.001 1 .248 1.796zm5.77 4.827c.03.481.406.868.887.906 1.474.116 2.845.116 4.318 0a.966.966 0 0 0 .887-.906 42 42 0 0 0 0-5.21.966.966 0 0 0-.887-.906 27 27 0 0 0-4.318 0 .966.966 0 0 0-.887.906 42 42 0 0 0 0 5.21"/><path d="M9.985 9.931c.691 0 1.08-.389 1.08-1.08s-.389-1.08-1.08-1.08-1.08.388-1.08 1.08c0 .691.388 1.08 1.08 1.08"/></g></svg>
