<svg xmlns="http://www.w3.org/2000/svg" fill="none" viewBox="0 0 14 14"><g stroke="currentColor" stroke-linecap="round" stroke-linejoin="round"><path d="M2.569 8.045c-.607.658-.765 1.671-.303 2.439.16.265.338.517.557.736.218.218.47.397.736.557.767.462 1.78.303 2.439-.303 1.165-1.074 2.38-2.186 3.575-3.381a99 99 0 0 0 2.784-2.927c.96-1.042 1.187-2.664.185-3.666v0C11.54.498 9.918.725 8.877 1.686A99 99 0 0 0 5.95 4.469C4.755 5.664 3.642 6.88 2.569 8.045m.001 3.263L.845 13.03"/><path d="M2.813 3.428 4.61 1.742a2 2 0 0 1 2.782.045l.691.691"/><path d="M11.61 6.004 8.038 2.433q.436-.405.867-.799C9.942.688 11.55.508 12.542 1.5c.992.993.812 2.6-.134 3.637q-.393.431-.798.867"/></g></svg>
