<svg xmlns="http://www.w3.org/2000/svg" fill="none" viewBox="0 0 14 14"><g stroke="currentColor" stroke-linecap="round" stroke-linejoin="round"><path d="M5.39 2.41c-.87.04-1.722.134-2.553.23a2.094 2.094 0 0 0-1.835 1.84C.882 5.558.766 6.673.766 7.813s.116 2.256.236 3.335c.108.96.875 1.727 1.835 1.838 1.084.125 2.204.25 3.35.25 1.147 0 2.267-.125 3.351-.25a2.094 2.094 0 0 0 1.834-1.838 39 39 0 0 0 .212-2.38"/><path d="m10.108 1.303-3.685 4.18-.504 2.375c-.082.382.317.744.69.626l2.362-.742 3.806-4.005c.633-.665.522-1.778-.243-2.455-.747-.66-1.833-.652-2.426.02Z"/></g></svg>
