<svg xmlns="http://www.w3.org/2000/svg" fill="none" viewBox="0 0 14 14"><path stroke="currentColor" stroke-linecap="round" stroke-linejoin="round" d="M9.176 1.48c.71-.596 1.769-.51 2.307.244.144.201.315.441.61.81a3.51 3.51 0 0 1-.006 4.366c-.752.932-1.54 1.873-2.422 2.754-.882.882-1.823 1.67-2.755 2.423a3.51 3.51 0 0 1-4.366.005c-.393-.314-.639-.485-.847-.634-.728-.52-.83-1.54-.261-2.23.449-.547.95-1.067 1.432-1.576.384-.405 1.026-.431 1.463-.083.117.094.263.217.558.494 1.45-.861 2.329-1.75 3.175-3.174a9 9 0 0 1-.499-.564c-.348-.436-.322-1.076.085-1.457.497-.464 1.002-.94 1.526-1.378"/></svg>
