<svg xmlns="http://www.w3.org/2000/svg" fill="none" viewBox="0 0 14 14"><path stroke="currentColor" stroke-linecap="round" stroke-linejoin="round" d="M4.406 3.098q-.81.01-1.639.07c-.959.067-1.703.85-1.784 1.807-.088 1.022-.17 2.077-.17 3.156s.082 2.134.17 3.156c.081.958.825 1.741 1.784 1.808 1.386.097 2.705.097 4.091 0 .959-.067 1.703-.85 1.784-1.808.063-.737.124-1.49.153-2.258M4.24 10.775h1.146m1.802-7.14c0-1.787.5-2.553.75-2.809h4.5c.25.256.75 1.022.75 2.81 0 2.043-1.97 2.796-2.97 3.052-1-.256-3.03-1.01-3.03-3.053"/></svg>
