<svg xmlns="http://www.w3.org/2000/svg" fill="none" viewBox="0 0 14 14"><g stroke="currentColor" stroke-linecap="round" stroke-linejoin="round"><path d="m2.004 3.173-.12.009a1.04 1.04 0 0 0-.942.87C.774 5.088.574 6.169.574 7.28c0 1.11.2 2.192.368 3.228.076.472.466.834.943.87l.119.009m1.478.281c.034.476.395.867.866.948.853.148 1.74.318 2.652.318s1.8-.17 2.653-.318c.47-.081.832-.472.866-.948.1-1.405.231-2.875.231-4.388 0-1.514-.13-2.984-.231-4.388a1.044 1.044 0 0 0-.866-.949C8.8 1.796 7.912 1.625 7 1.625s-1.799.17-2.652.318c-.47.082-.832.472-.866.949-.1 1.404-.231 2.874-.231 4.388s.13 2.983.23 4.388"/><path d="M6.759 9.04V5.407c.69 0 1.225.295 1.781.825m-2.803 2.04c0 .586.47.883 1.02.767m5.239-5.866.12.009c.476.035.866.398.943.87.167 1.036.367 2.117.367 3.228 0 1.11-.2 2.192-.367 3.228a1.04 1.04 0 0 1-.943.87l-.12.009"/></g></svg>
