<svg xmlns="http://www.w3.org/2000/svg" fill="none" viewBox="0 0 14 14"><g stroke="currentColor" stroke-linecap="round" stroke-linejoin="round"><path d="M.75 1.75a1 1 0 0 1 1-1h3a1 1 0 0 1 1 1v3a1 1 0 0 1-1 1h-3a1 1 0 0 1-1-1zm0 7.5a1 1 0 0 1 1-1h3a1 1 0 0 1 1 1v3a1 1 0 0 1-1 1h-3a1 1 0 0 1-1-1zm7.5-7.5a1 1 0 0 1 1-1h3a1 1 0 0 1 1 1v3a1 1 0 0 1-1 1h-3a1 1 0 0 1-1-1zm0 7.5a1 1 0 0 1 1-1h3a1 1 0 0 1 1 1v3a1 1 0 0 1-1 1h-3a1 1 0 0 1-1-1z"/><path d="M5.75 3.5v1.25a1 1 0 0 1-1 1h-3a1 1 0 0 1-1-1V3.5zm0 7.5v1.25a1 1 0 0 1-1 1h-3a1 1 0 0 1-1-1V11zm7.5-7.5v1.25a1 1 0 0 1-1 1h-3a1 1 0 0 1-1-1V3.5zm0 7.5v1.25a1 1 0 0 1-1 1h-3a1 1 0 0 1-1-1V11z"/></g></svg>
