<svg xmlns="http://www.w3.org/2000/svg" fill="none" viewBox="0 0 14 14"><g stroke="currentColor" stroke-linecap="round" stroke-linejoin="round"><path d="m2.248 6.927-.12.005a.965.965 0 0 0-.92.825 14.3 14.3 0 0 0 0 3.959c.063.461.455.8.92.818 3.333.128 6.411.128 9.744 0a.96.96 0 0 0 .922-.818 14.3 14.3 0 0 0 0-3.959.966.966 0 0 0-.985-.83"/><path d="M7.767 2.303a.49.49 0 0 0-.63.077 37 37 0 0 0-2.905 3.563.49.49 0 0 0 .052.633c.828.818 1.67 1.504 2.638 2.15.2.134.467.1.63-.076a37 37 0 0 0 2.905-3.564.49.49 0 0 0-.051-.632 17.5 17.5 0 0 0-2.639-2.15m-3.453 7.17h5.373"/></g></svg>
