<svg xmlns="http://www.w3.org/2000/svg" fill="none" viewBox="0 0 14 14"><g stroke="currentColor" stroke-linecap="round" stroke-linejoin="round"><path d="M2.974 4.922c-.232-1.225-.25-2.033-.093-3.136a.96.96 0 0 1 .852-.812C6.172.708 7.813.7 10.243.969c.447.05.806.398.856.846.126 1.11.11 1.913-.077 3.107"/><path d="M2.631 11.28A2 2 0 0 1 .75 9.282V7.875c0-1.5.497-2.77 2.5-3 2.932-.336 4.57-.332 7.5 0 1.987.225 2.5 1.5 2.5 3v1.408a2 2 0 0 1-1.881 1.996"/><path d="M11.043 9.992c.241.58.369 1.36.423 2.107.039.522-.37.958-.89.993-2.665.178-4.487.179-7.151 0-.522-.035-.93-.471-.891-.992.054-.746.181-1.526.422-2.105.24-.576.865-.81 1.485-.882 1.859-.216 3.22-.222 5.122 0 .617.072 1.24.305 1.48.879"/></g></svg>
