<svg xmlns="http://www.w3.org/2000/svg" fill="none" viewBox="0 0 14 14"><g stroke="currentColor" stroke-linecap="round" stroke-linejoin="round"><path d="M13.198 4.115H.798c.054-.788.15-1.56.288-2.303a.95.95 0 0 1 .83-.769 43.8 43.8 0 0 1 10.153.002.96.96 0 0 1 .841.782c.133.74.232 1.506.288 2.288M7 10.365v2.885m-1.443-2.885L2.673 13.25m5.769-2.885 2.885 2.885"/><path d="M1.086 9.267a.97.97 0 0 0 .868.79c1.554.152 3.315.308 5.046.308a46 46 0 0 0 5.052-.296.97.97 0 0 0 .853-.799c.206-1.193.345-2.43.345-3.712a21 21 0 0 0-.34-3.73.96.96 0 0 0-.841-.783 43.8 43.8 0 0 0-10.152-.002.95.95 0 0 0-.83.769A20.6 20.6 0 0 0 .75 5.558c0 1.28.122 2.515.336 3.71"/></g></svg>
