<svg xmlns="http://www.w3.org/2000/svg" fill="none" viewBox="0 0 14 14"><g stroke="currentColor" stroke-linecap="round" stroke-linejoin="round"><path d="M5.083 5.25a69 69 0 0 0-2.996.145c-.494.035-.896.263-.983.567a8 8 0 0 0-.31 2.23c0 .76.112 1.494.31 2.204.087.317.513.552 1.027.583 1.508.091 3.203.182 4.869.182a73 73 0 0 0 4.875-.174c.512-.034.927-.273 1.012-.589.19-.71.318-1.445.318-2.206a8.3 8.3 0 0 0-.313-2.219c-.086-.31-.495-.542-.997-.577q-.465-.03-.935-.058M2.268 11v2.13M11.732 11v2.13"/><path d="M8.018 8.167c1.88 0 2.937-1.057 2.937-2.937S9.898 2.293 8.018 2.293 5.082 3.351 5.082 5.23c0 1.88 1.057 2.937 2.936 2.937"/></g></svg>
