<svg xmlns="http://www.w3.org/2000/svg" fill="none" viewBox="0 0 14 14"><g stroke="currentColor" stroke-linecap="round" stroke-linejoin="round"><path d="M10.194.936H3.821c-.91 0-1.715.613-1.858 1.512-.47 2.953-.314 6.53.07 9.757.094.781 1.019 1.127 1.615.613l1.255-1.08.963 1.05a1.5 1.5 0 0 0 2.216-.007l.945-1.042 1.299 1.106c.594.507 1.509.168 1.607-.607.405-3.191.599-6.94.085-9.856-.153-.869-.941-1.446-1.824-1.446"/><path d="M8.367 4.849s-.514-.574-1.348-.502c-.833.072-1.235.584-1.235 1.098 0 1.498 2.583.46 2.583 1.996 0 .792-1.714 1.351-2.735.42m1.49-4.521v1m0 3.998V9.34"/></g></svg>
