<svg xmlns="http://www.w3.org/2000/svg" fill="none" viewBox="0 0 14 14"><path stroke="currentColor" stroke-linecap="round" stroke-linejoin="round" d="M4.008 6.323H2.41a.947.947 0 0 0-.962.999c.065 1.046.224 2.594.55 3.984.182.779.77 1.36 1.563 1.464.756.098 1.876.179 3.44.179s2.684-.081 3.44-.18c.794-.103 1.38-.684 1.563-1.463.326-1.39.484-2.938.55-3.984a.947.947 0 0 0-.962-.999h-1.55m-6.835 0-1.5-2.934m9.086 2.934 1.5-2.934M5.17 8.956v1.389m3.66-1.389v1.389m.133-6.485C8.57 4.647 7.785 5.43 7 5.824c-.785-.392-1.57-1.177-1.963-1.962M7 .802v5"/></svg>
