<svg xmlns="http://www.w3.org/2000/svg" fill="none" viewBox="0 0 14 14"><path stroke="currentColor" stroke-linecap="round" stroke-linejoin="round" d="M4.836 10.844c-2.235 0-3.435-1.5-3.845-2.962C.798 7.195.757 6.546.757 5.845.757 3.2 3.137 1.073 5.78.953q.609-.03 1.227-.03t1.227.03c2.642.12 4.75 2.089 4.96 4.892.133 1.802 0 3.626-.402 5.539-.198.948-.614 1.559-1.284 1.559-.302 0-.764-.97-1.07-.943-.314.027-.866 1.076-1.56 1.076-.696 0-1.298-.991-1.63-1.008-.51-.027-.957.875-1.327.875-.626 0-.987-.834-1.085-2.1Zm2.457-5.008V6.93m3.219-1.094V6.93"/></svg>
