<svg xmlns="http://www.w3.org/2000/svg" fill="none" viewBox="0 0 14 14"><g stroke="currentColor" stroke-linecap="round" stroke-linejoin="round"><path d="M2.968 2.95h7.374m-4.42 0L4.434.865m.146 2.097c-.685.752-1.822 2.398-1.87 3a29 29 0 0 0-.108 2.322c0 .7.037 2.178.087 2.854.114 1.52 1.226 2 2.62 2.152.439.048.885.08 1.336.08.45 0 .896-.032 1.335-.08 1.394-.152 2.506-.632 2.62-2.152.05-.675.088-2.154.088-2.854a29 29 0 0 0-.108-2.322c-.048-.602-1.186-2.248-1.871-3"/><path d="M6.655 9.974c1.161 0 1.815-.653 1.815-1.815s-.654-1.815-1.815-1.815S4.84 6.998 4.84 8.16s.653 1.815 1.815 1.815"/></g></svg>
