<svg xmlns="http://www.w3.org/2000/svg" fill="none" viewBox="0 0 14 14"><g stroke="currentColor" stroke-linecap="round" stroke-linejoin="round"><path d="M1 13.25c.573-.587.589-1.448.607-2.442.028-1.556.062-3.435 2.251-5.091h6.374c2.19 1.656 2.224 3.535 2.252 5.091.018.994.034 1.855.607 2.442m-2.735-7.533H3.734l-.827-4.139 2.07 1.242L7.044.75l2.07 2.07 2.069-1.242z"/><path d="M10.11 10.147c.047.337-.006.697-.107 1.044-.36 1.228-1.678 1.795-2.958 1.795s-2.597-.567-2.957-1.795c-.102-.347-.154-.707-.106-1.044.063-.454.194-.888.362-1.295a5.54 5.54 0 0 0 2.701-1.248 5.54 5.54 0 0 0 2.701 1.248c.169.407.3.84.363 1.295"/></g></svg>
