<svg xmlns="http://www.w3.org/2000/svg" fill="none" viewBox="0 0 14 14"><g stroke="currentColor" stroke-linecap="round" stroke-linejoin="round"><path d="M7 13c.9 0 5.538-1.957 5.538-5.991 0-1.396-.17-3.046-.314-4.022-.048-.32-.391-.488-.707-.419-1.366.3-2.811-.485-4.252-1.399a.5.5 0 0 0-.533-.004c-1.493.915-2.895 1.703-4.25 1.404-.315-.07-.659.098-.706.418-.144.976-.315 2.626-.315 4.022C1.461 11.043 6.1 13 7 13"/><path d="M3.93 6.026a4.34 4.34 0 0 1 6.14 0m-4.548 1.69a2.09 2.09 0 0 1 2.956 0M7 9.194v.309"/></g></svg>
