<svg xmlns="http://www.w3.org/2000/svg" fill="none" viewBox="0 0 24 24"><path fill="currentColor" d="M10.523 8.818H6.585l-.226 1.975q.164-.095.554-.225.396-.137.875-.137.738 0 1.306.226.573.219.97.65.397.423.595 1.045.205.622.205 1.422 0 .642-.212 1.244a3.03 3.03 0 0 1-1.709 1.825q-.649.273-1.538.274-.663 0-1.292-.205a3.8 3.8 0 0 1-1.134-.588 2.95 2.95 0 0 1-.793-.937 2.6 2.6 0 0 1-.28-1.237h2.317q.02.362.17.629.15.266.404.417.26.143.595.143.341 0 .567-.136a1 1 0 0 0 .355-.376 1.8 1.8 0 0 0 .185-.547q.054-.315.055-.663 0-.37-.082-.663a1.25 1.25 0 0 0-.246-.5 1.07 1.07 0 0 0-.445-.32 1.7 1.7 0 0 0-.642-.11q-.5 0-.786.17a1.4 1.4 0 0 0-.417.35l-1.832-.431.601-5.086h5.818zm5.482-1.935q1.374 0 2.235.438.862.43 1.306 1.196.444.76.54 1.757h-2.304a2.4 2.4 0 0 0-.26-.834 1.2 1.2 0 0 0-.533-.526q-.348-.185-.902-.185-.431 0-.786.185-.348.185-.595.56a2.9 2.9 0 0 0-.383.93q-.13.56-.13 1.312v.568q0 .745.123 1.305.13.56.383.937.26.37.657.56.402.185.95.185.383 0 .656-.062.273-.068.451-.164a1.5 1.5 0 0 0 .28-.191v-1.545h-1.668v-1.647h4.068v4.087q-.253.28-.78.602-.519.315-1.312.54t-1.866.226q-.991 0-1.798-.315-.806-.321-1.388-.936a4.3 4.3 0 0 1-.888-1.518q-.308-.902-.308-2.064v-.554q0-1.163.314-2.064.315-.903.882-1.518a3.8 3.8 0 0 1 1.347-.943 4.4 4.4 0 0 1 1.709-.322"/></svg>
