<svg xmlns="http://www.w3.org/2000/svg" fill="none" viewBox="0 0 24 24"><path fill="currentColor" d="M10.5 5q.508 0 1 .06v4.203a11 11 0 0 0-1-1.684A11 11 0 0 0 9.179 10H15v2.001h-.603c.064.48.103.98.103 1.5s-.039 1.02-.103 1.5h2.427a6.5 6.5 0 0 0 .176-1.5c0-.34-.03-.674-.08-1h2.02q.058.492.06 1A8.5 8.5 0 1 1 10.5 5M5.024 17a6.5 6.5 0 0 0 3.202 2.59l-.094-.156A12.8 12.8 0 0 1 7.057 17zm8.92 0c-.302.94-.69 1.76-1.076 2.434l-.095.156A6.5 6.5 0 0 0 15.976 17zm-4.765 0a11 11 0 0 0 1.321 2.42A11 11 0 0 0 11.821 17zm-5.003-5a6.5 6.5 0 0 0 0 3h2.428c-.065-.48-.104-.98-.104-1.5s.039-1.02.104-1.5zm4.448 0a9.2 9.2 0 0 0 0 3h3.752a9.2 9.2 0 0 0 0-3zM19 1.5A3.5 3.5 0 0 0 22.5 5v2l-.175.004a3.5 3.5 0 0 0-3.32 3.316L19 10.5h-2a3.5 3.5 0 0 0-3.32-3.495L13.5 7V5l.18-.005A3.5 3.5 0 0 0 17 1.5zM8.226 7.41A6.52 6.52 0 0 0 5.024 10h2.033c.301-.94.69-1.76 1.075-2.434q.046-.08.094-.157"/></svg>
