<svg xmlns="http://www.w3.org/2000/svg" fill="none" viewBox="0 0 24 24"><path fill="currentColor" d="m13.658 3.574-.67 1.16 1.958 1.131a4 4 0 0 0 4.204-.125l.539-.356 1.052-.696.437 1.185-.939.346.939-.345v.002l.002.002v.005l.007.014.013.042q.017.051.042.136c.034.114.076.272.118.47.085.398.17.958.181 1.64.023 1.367-.249 3.222-1.397 5.211-1.15 1.99-2.62 3.153-3.816 3.817a8.6 8.6 0 0 1-1.509.663 6 6 0 0 1-.65.174l-.014.002h-.005l-.003.002-.171-.986.17.985-1.245.216.077-1.261.038-.643a4 4 0 0 0-1.993-3.704l-1.96-1.13-4.905 8.497-1.732-1 4.906-8.498-1.732-1 3.923-6.796 1.732 1 .67-1.16z"/></svg>
