<svg xmlns="http://www.w3.org/2000/svg" fill="none" viewBox="0 0 24 24"><path fill="currentColor" d="m8.008 1.602 3.925 3.926.707.707-1.717 1.716 1.284 1.284 1.14-1.14a5.4 5.4 0 0 1-.17-1.104l-.007-.266a5.417 5.417 0 0 1 5.416-5.416l.266.007a5.4 5.4 0 0 1 1.753.383l1.404.564-3.48 3.48 1.038 1.04 3.48-3.48.564 1.405a5.417 5.417 0 0 1-4.747 7.427l-.278.006a5.4 5.4 0 0 1-1.372-.179l-1.14 1.14 5.428 5.428.707.708-3.867 3.867-.708-.707-5.428-5.428-5.426 5.428-.707.707-3.867-3.867.707-.707 5.426-5.428-1.284-1.284-1.717 1.718-.707-.707L.705 8.905l-.707-.708L7.3.895zm5.612 13.953 4.72 4.72 1.04-1.038-4.72-4.72zm-5.15-5.15 1.283 1.283 1.039-1.04-1.283-1.282z"/></svg>
