<svg xmlns="http://www.w3.org/2000/svg" fill="none" viewBox="0 0 24 24"><path fill="currentColor" d="m3.333 15.057.088.026q.122.037.384.104c.35.087.886.206 1.61.327C6.86 15.754 9.054 16 12 16s5.14-.245 6.586-.486c.723-.12 1.26-.24 1.61-.327a10 10 0 0 0 .471-.13l.017-.006.631 1.898h-.001l-.004.002-.011.003-.036.012-.123.037q-.16.047-.46.123c-.4.1-.99.23-1.766.36-.996.166-2.3.329-3.914.425V21.5H9v-3.589a38 38 0 0 1-3.914-.425c-.777-.13-1.365-.26-1.766-.36a13 13 0 0 1-.583-.16l-.036-.012-.01-.003-.004-.002h-.002l.63-1.898h.001zM12 11a2 2 0 1 1 0 4 2 2 0 0 1 0-4M3.5 9a1.5 1.5 0 1 1 0 3 1.5 1.5 0 0 1 0-3m17 0a1.5 1.5 0 1 1 0 3 1.5 1.5 0 0 1 0-3m-14-4.5a1.5 1.5 0 1 1 0 3 1.5 1.5 0 0 1 0-3m11 0a1.5 1.5 0 1 1 0 3 1.5 1.5 0 0 1 0-3m-5.5-2a1.5 1.5 0 1 1 0 3 1.5 1.5 0 0 1 0-3"/></svg>
