<svg xmlns="http://www.w3.org/2000/svg" fill="none" viewBox="0 0 24 24"><path fill="currentColor" d="m19 17.236-.105.211L18 17l.894.448v.001l-.002.003-.003.006-.008.015-.023.043-.077.132a5 5 0 0 1-.286.42 6.8 6.8 0 0 1-1.183 1.213C16.21 20.163 14.492 21 12 21s-4.21-.837-5.312-1.719a6.8 6.8 0 0 1-1.183-1.213 5 5 0 0 1-.363-.552l-.023-.043-.008-.015-.003-.006-.002-.003c.004-.003.059-.031.894-.449l-.895.447-.105-.21V13.97l5.786 3.215.08.04.116.056q.047.023.095.042a2.5 2.5 0 0 0 2.137-.139L19 13.972zm-6.515-13.11 8.974 4.985 1.541.77v.086l.06.033-.06.032V17h-2v-5.856l-8.515 4.73-.485.27-.485-.27-9-5L.94 10l1.575-.874 9-5 .485-.27z"/></svg>
