<svg xmlns="http://www.w3.org/2000/svg" fill="none" viewBox="0 0 24 24"><path fill="currentColor" d="M16 3a8.96 8.96 0 0 0-5.847 2.16c4.945-1.852 10.646.081 13.373 4.805l-1.732 1a8.96 8.96 0 0 0-4.79-3.983c4.074 3.357 5.249 9.26 2.522 13.982l-1.732-1a8.96 8.96 0 0 0 1.053-6.142C17.978 19.03 13.454 23 8 23v-2a8.96 8.96 0 0 0 5.844-2.16C8.9 20.693 3.2 18.76.474 14.037l1.732-1a8.96 8.96 0 0 0 4.79 3.98c-4.075-3.357-5.25-9.258-2.523-13.98l.866.5.865.5a8.96 8.96 0 0 0-1.053 6.142C6.021 4.97 10.546 1 16 1zm-4 7a2 2 0 1 0 0 4 2 2 0 0 0 0-4"/></svg>
