<svg xmlns="http://www.w3.org/2000/svg" fill="none" viewBox="0 0 24 24"><path fill="currentColor" d="M4 20h14v2H2V6h2zm18-2H6V2h16zm-8-6.5q-.975 0-1.937.188a9.6 9.6 0 0 0-1.863.562q-.576.225-.887.737A2.1 2.1 0 0 0 9 14.1v.4h10v-.4q0-.6-.312-1.113c-.312-.513-.505-.587-.888-.737q-.9-.375-1.862-.562A10 10 0 0 0 14 11.5m0-6q-1.05 0-1.775.725C11.5 6.95 11.5 7.3 11.5 8s.241 1.292.725 1.775q.725.726 1.775.725c1.05-.001 1.292-.241 1.775-.725Q16.501 9.05 16.5 8c-.001-1.05-.241-1.292-.725-1.775S14.7 5.5 14 5.5"/></svg>
