<svg xmlns="http://www.w3.org/2000/svg" fill="none" viewBox="0 0 24 24"><path fill="currentColor" d="M8 2.5a1 1 0 0 1 1 1v3.794a.5.5 0 0 1-.854.353L6.6 6.1A7.98 7.98 0 0 0 4 12.001a8.005 8.005 0 0 0 6.222 7.801 1 1 0 0 1-.444 1.95C5.325 20.743 2 16.762 2 12.002a9.97 9.97 0 0 1 3.184-7.317l-1.33-1.33a.5.5 0 0 1 .353-.853zm5.024.502a1 1 0 0 1 1.198-.754C18.675 3.258 22 7.24 22 12a9.98 9.98 0 0 1-3.184 7.316l1.33 1.33a.5.5 0 0 1-.353.854H16a1 1 0 0 1-1-1v-3.793a.5.5 0 0 1 .854-.354L17.4 17.9A7.98 7.98 0 0 0 20 12a8.004 8.004 0 0 0-6.222-7.802 1 1 0 0 1-.754-1.197M12 6.75a.75.75 0 0 1 .75.75v.812a4.5 4.5 0 0 1 3.75 4.438v1a1.5 1.5 0 0 1-1.5 1.5H9a1.5 1.5 0 0 1-1.5-1.5v-1c0-2.23 1.622-4.08 3.75-4.438V7.5a.75.75 0 0 1 .75-.75m-1.5 4.75a.75.75 0 1 0 0 1.5.75.75 0 0 0 0-1.5m3 0a.75.75 0 1 0 0 1.5.75.75 0 0 0 0-1.5"/></svg>
