<svg xmlns="http://www.w3.org/2000/svg" fill="none" viewBox="0 0 24 24"><path fill="currentColor" d="M11 9H5v8h13v-5.5h2V17a2 2 0 0 1-2 2h-2.5l.707.707a1 1 0 0 1 .293.707V21a1 1 0 0 1-1 1h-8a1 1 0 0 1-1-1v-.586a1 1 0 0 1 .293-.707L7.5 19H5a2 2 0 0 1-2-2V9a2 2 0 0 1 2-2h6zm6.5-8a.75.75 0 0 1 .75.75v.813A4.5 4.5 0 0 1 22 7v1a1.5 1.5 0 0 1-1.5 1.5h-6A1.5 1.5 0 0 1 13 8V7a4.5 4.5 0 0 1 3.75-4.437V1.75A.75.75 0 0 1 17.5 1M16 5.75a.75.75 0 1 0 0 1.5.75.75 0 0 0 0-1.5m3 0a.75.75 0 1 0 0 1.5.75.75 0 0 0 0-1.5"/></svg>
