<svg xmlns="http://www.w3.org/2000/svg" fill="none" viewBox="0 0 24 24"><path fill="currentColor" d="M18.5 14c.505 0 .927.326 1.08.773l.027.09.067.229a3.51 3.51 0 0 0 2.463 2.3 1.143 1.143 0 0 1 0 2.214 3.51 3.51 0 0 0-2.53 2.53 1.142 1.142 0 0 1-2.213 0 3.51 3.51 0 0 0-2.53-2.53 1.14 1.14 0 0 1-.86-1.006L14 18.5l.004-.1c.042-.493.398-.89.86-1.007a3.51 3.51 0 0 0 2.529-2.53A1.14 1.14 0 0 1 18.5 14M9 2c1.734 0 3.346.233 4.559.637.6.2 1.16.462 1.589.8.417.329.852.85.852 1.563v8c0 .714-.435 1.234-.852 1.564-.43.337-.988.599-1.59.8C12.347 15.766 10.735 16 9 16s-3.346-.233-4.559-.637c-.6-.2-1.16-.461-1.588-.8C2.435 14.235 2 13.714 2 13V5c0-.714.435-1.234.853-1.563.428-.338.987-.6 1.588-.8C5.654 2.233 7.266 2 9 2m4.559 9.363C12.346 11.767 10.734 12 9 12s-3.346-.233-4.559-.637A8 8 0 0 1 4 11.201v1.71a1 1 0 0 0 .09.082c.18.14.499.311.983.473.96.32 2.348.534 3.927.534s2.968-.215 3.927-.534c.484-.162.804-.332.982-.473a1 1 0 0 0 .091-.082v-1.71a8 8 0 0 1-.441.162m0-4C12.346 7.767 10.734 8 9 8s-3.346-.233-4.559-.637A8 8 0 0 1 4 7.201v1.71a1 1 0 0 0 .09.082c.18.14.499.311.983.473.96.32 2.348.534 3.927.534s2.968-.215 3.927-.534c.484-.162.804-.332.982-.473A1 1 0 0 0 14 8.91V7.201a8 8 0 0 1-.441.162M9 4c-1.58 0-2.968.215-3.927.534-.476.159-.792.327-.972.466.18.14.496.307.972.466C6.033 5.786 7.421 6 9 6s2.968-.215 3.927-.534c.475-.159.791-.327.971-.466-.18-.139-.496-.307-.971-.466C11.967 4.214 10.579 4 9 4"/></svg>
