<svg xmlns="http://www.w3.org/2000/svg" fill="none" viewBox="0 0 24 24"><path fill="currentColor" d="M10.5 4.5q.422 0 .835.038l-.184 1.992a7 7 0 1 0 6.31 6.235l.996-.103.994-.103q.049.464.049.941a9 9 0 1 1-9-9m0 5c.552 0 .983.46 1.164.981a3.01 3.01 0 0 0 1.855 1.855c.521.18.981.612.981 1.164s-.46.983-.981 1.164a3.01 3.01 0 0 0-1.855 1.855c-.18.521-.612.981-1.164.981s-.983-.46-1.164-.981a3.01 3.01 0 0 0-1.855-1.855c-.521-.18-.981-.612-.981-1.164s.46-.983.981-1.164a3.01 3.01 0 0 0 1.855-1.855c.18-.521.612-.981 1.164-.981m7.5-8c.505 0 .927.326 1.08.772l.027.091.067.229a3.51 3.51 0 0 0 2.463 2.3 1.143 1.143 0 0 1 0 2.214 3.51 3.51 0 0 0-2.53 2.53 1.142 1.142 0 0 1-2.213 0 3.51 3.51 0 0 0-2.53-2.53 1.14 1.14 0 0 1-.86-1.006L13.5 6l.004-.1c.042-.493.398-.89.86-1.007a3.51 3.51 0 0 0 2.529-2.53A1.144 1.144 0 0 1 18 1.5"/></svg>
