<svg xmlns="http://www.w3.org/2000/svg" fill="none" viewBox="0 0 24 24"><path fill="currentColor" d="M19.465 7.389A2 2 0 0 1 22 9.315V17l-.004.154A3 3 0 1 1 20 14.174v-2.859l-7 1.945V19l-.004.154A3 3 0 1 1 11 16.174V11.26a2 2 0 0 1 1.465-1.927zM6 1.5c.505 0 .927.326 1.08.772l.027.091.067.229a3.51 3.51 0 0 0 2.463 2.3 1.143 1.143 0 0 1 0 2.214 3.51 3.51 0 0 0-2.53 2.53c-.125.492-.569.864-1.107.864s-.982-.372-1.106-.863a3.51 3.51 0 0 0-2.53-2.53 1.14 1.14 0 0 1-.86-1.007L1.5 6l.004-.1c.042-.493.398-.89.86-1.007a3.51 3.51 0 0 0 2.529-2.53A1.144 1.144 0 0 1 6 1.5"/></svg>
