<svg xmlns="http://www.w3.org/2000/svg" fill="none" viewBox="0 0 24 24"><path fill="currentColor" d="M10.5 7.58A11 11 0 0 0 9.179 10h2.642c-.14-.358-.295-.691-.453-1h2.206q.2.475.37 1H15.5v2h-1.103c.064.48.103.98.103 1.5s-.039 1.02-.103 1.5h2.427A6.5 6.5 0 0 0 17 13.5c0-.34-.03-.674-.08-1h2.02q.058.492.06 1A8.5 8.5 0 1 1 10.5 5zM5.024 17a6.5 6.5 0 0 0 3.202 2.59l-.094-.156A12.8 12.8 0 0 1 7.057 17zm8.92 0c-.302.94-.69 1.76-1.076 2.434l-.095.156A6.5 6.5 0 0 0 15.976 17zm-4.765 0a11 11 0 0 0 1.321 2.42A11 11 0 0 0 11.821 17zm-5.003-5a6.5 6.5 0 0 0 0 3h2.428c-.065-.48-.104-.98-.104-1.5s.039-1.02.104-1.5zm4.448 0a9.2 9.2 0 0 0 0 3h3.752a9.2 9.2 0 0 0 0-3zM18 1.5c.505 0 .927.326 1.08.772l.027.091.067.229a3.51 3.51 0 0 0 2.463 2.3 1.143 1.143 0 0 1 0 2.214 3.51 3.51 0 0 0-2.53 2.53 1.142 1.142 0 0 1-2.213 0 3.51 3.51 0 0 0-2.53-2.53 1.14 1.14 0 0 1-.86-1.006L13.5 6l.004-.1c.042-.493.398-.89.86-1.007a3.51 3.51 0 0 0 2.529-2.53A1.144 1.144 0 0 1 18 1.5M8.226 7.41A6.52 6.52 0 0 0 5.024 10h2.033c.301-.94.69-1.76 1.075-2.434q.046-.08.094-.157"/></svg>
