<svg xmlns="http://www.w3.org/2000/svg" fill="none" viewBox="0 0 24 24"><path fill="currentColor" d="M10.5 5q.286 0 .565.019l-.13 1.996a6.5 6.5 0 0 0-6.15 9.584 1 1 0 0 1 .095.702l-.546 2.364 2.365-.545.09-.016c.21-.03.425.01.612.112.92.5 1.975.784 3.099.784a6.5 6.5 0 0 0 6.37-7.8l.98-.2.98-.2a8.5 8.5 0 0 1-12.036 9.35l-3.57.825a1 1 0 0 1-1.199-1.2l.825-3.57A8.5 8.5 0 0 1 10.5 5m8-4c.505 0 .927.326 1.08.772l.027.091.067.229a3.51 3.51 0 0 0 2.463 2.3 1.143 1.143 0 0 1 0 2.214 3.51 3.51 0 0 0-2.53 2.53A1.14 1.14 0 0 1 18.5 10c-.538 0-.982-.372-1.106-.863a3.51 3.51 0 0 0-2.53-2.53 1.14 1.14 0 0 1-.86-1.007L14 5.5l.004-.1c.042-.493.398-.89.86-1.007a3.51 3.51 0 0 0 2.529-2.53A1.144 1.144 0 0 1 18.5 1"/></svg>
