<svg xmlns="http://www.w3.org/2000/svg" fill="none" viewBox="0 0 24 24"><path fill="currentColor" d="M1.287 2.713a1.007 1.007 0 0 1 1.425 0L8.629 8.63l1.467 1.466h-.001l3.197 3.197h.001l2.008 2.008-.002-.001 5.988 5.988a1.008 1.008 0 0 1-1.425 1.425L17 19.85v.368a2 2 0 0 1-2.485 1.94L12 21.53l-2.515.63A2 2 0 0 1 7 20.218v-1.1a2 2 0 0 1 1.105-1.79L9 16.882v-1.646l-4.581.983A2 2 0 0 1 2 14.263v-.683a2 2 0 0 1 1.008-1.736l3.807-2.178-5.528-5.528a1.01 1.01 0 0 1 0-1.425m9.698 11.123Q11 13.917 11 14v3.5a1 1 0 0 1-.553.895L9 19.118v1.1l2.758-.688.12-.022q.183-.022.364.022l2.758.69v-1.1l-1.447-.724A1 1 0 0 1 13 17.5v-1.65zM12 2a3 3 0 0 1 3 3v3.419l5.992 3.425A2 2 0 0 1 22 13.58v.683a2 2 0 0 1-2.419 1.956l-.653-.14-2.603-2.603 3.675.787v-.683l-6.496-3.712A1 1 0 0 1 13 9V5a1 1 0 1 0-2 0v3.15l-2-2V5a3 3 0 0 1 3-3M4 13.58v.683l5.79-1.24a1 1 0 0 1 .374-.008l-1.883-1.883z"/></svg>
