<svg xmlns="http://www.w3.org/2000/svg" fill="none" viewBox="0 0 24 24"><path fill="currentColor" d="M11.433 3.428a1 1 0 0 1 1.732 1l-.178.307 1.959 1.13a4 4 0 0 0 4.204-.125l.538-.356.099-.057a1 1 0 0 1 1.39.546l-.937.346.938-.345v.001l.001.002.002.006.005.014q.007.016.015.042l.042.136c.033.113.076.273.118.471.084.397.169.958.18 1.639.023 1.368-.249 3.222-1.397 5.21-1.149 1.99-2.62 3.154-3.815 3.818a8.6 8.6 0 0 1-1.51.663 6 6 0 0 1-.606.164l-.043.01-.015.002h-.005l-.004.002-.17-.985.169.984a1 1 0 0 1-1.168-1.045l.04-.643a4 4 0 0 0-1.994-3.704L9.064 11.53l-4.418 7.654a1 1 0 0 1-1.732-1l4.419-7.654h-.001A2 2 0 0 1 6.6 7.798l1.923-3.33a2 2 0 0 1 2.55-.827l.182.094zm-3.101 5.37.858.495.009.005.008.005 2.816 1.626a6 6 0 0 1 2.98 4.718q.17-.082.355-.183c.933-.518 2.114-1.442 3.054-3.068.939-1.627 1.147-3.111 1.13-4.178a7 7 0 0 0-.02-.4 6 6 0 0 1-5.576-.22l-3.69-2.13z"/></svg>
