<svg xmlns="http://www.w3.org/2000/svg" fill="none" viewBox="0 0 24 24"><path fill="currentColor" d="M12 4a7 7 0 0 1 7 7v.028A4.5 4.5 0 0 1 18.5 20h-12A5.5 5.5 0 0 1 5.251 9.143 7 7 0 0 1 12 4m0 2a5 5 0 0 0-4.933 4.182 1 1 0 0 1-.894.834A3.5 3.5 0 0 0 6.5 18h12a2.5 2.5 0 0 0 0-5H18a1 1 0 0 1-1-1v-1a5 5 0 0 0-5-5m-3.5 6a.75.75 0 0 1 .75.75v1h1a.75.75 0 0 1 0 1.5h-1v1a.75.75 0 0 1-1.5 0v-1h-1a.751.751 0 0 1 0-1.5h1v-1A.75.75 0 0 1 8.5 12m8 2.5q.5 0 .875.375t.375.875c0 .5-.125.625-.375.875Q17 17 16.5 17a1.2 1.2 0 0 1-.875-.375q-.375-.375-.375-.875c0-.5.125-.625.375-.875a1.2 1.2 0 0 1 .875-.375M14 12q.5 0 .875.375t.375.875c0 .5-.125.625-.375.875Q14.5 14.5 14 14.5a1.2 1.2 0 0 1-.875-.375q-.375-.375-.375-.875c0-.5.125-.625.375-.875A1.2 1.2 0 0 1 14 12"/></svg>
