<svg xmlns="http://www.w3.org/2000/svg" fill="none" viewBox="0 0 24 24"><path fill="currentColor" d="M11.586 2a2 2 0 0 1 2.828 0l6.293 6.293a1 1 0 0 1 0 1.414l-10 10A1 1 0 0 1 10 20H2a1 1 0 0 1-1-1v-2.235c0-1.17.678-2.194 1.67-2.713 1.537-.804 2.352-1.464 2.922-2.403.6-.99.99-2.386 1.424-4.825l.038-.147a1 1 0 0 1 .239-.384zm-2.66 5.488a30 30 0 0 1-.62 2.758L10 11.94A.75.75 0 0 1 8.94 13l-1.187-1.186a8 8 0 0 1-.451.87 7 7 0 0 1-.656.902l.854.854a.75.75 0 0 1-1.06 1.06l-.888-.888c-.564.434-1.21.823-1.955 1.212a1.08 1.08 0 0 0-.597.94V18h6.586l9-9L13 3.414zm12.16 3.012a1 1 0 0 1 1.414 1.414L19.914 14.5a1 1 0 0 1-1.414-1.414z"/></svg>
