<svg xmlns="http://www.w3.org/2000/svg" fill="none" viewBox="0 0 24 24"><path fill="currentColor" d="M11.028 4.396a2 2 0 0 1 1.944 0l8.487 4.715.436.218A2 2 0 0 1 23 11.12V16a1 1 0 0 1-2 0v-4.856l-2 1.11V17a1 1 0 0 1-.105.447L18 17l.894.448v.001l-.002.003-.003.006-.008.015-.023.043-.077.132a5 5 0 0 1-.286.42 6.8 6.8 0 0 1-1.183 1.213c-1.102.882-2.82 1.719-5.312 1.72s-4.21-.838-5.312-1.72a6.8 6.8 0 0 1-1.183-1.213 5 5 0 0 1-.363-.552l-.023-.043-.008-.015-.003-.006-.002-.003c.004-.003.063-.034.894-.449l-.895.447A1 1 0 0 1 5 17v-4.745l-1.7-.943a1.5 1.5 0 0 1 0-2.623zm1.944 11.209a2 2 0 0 1-1.944 0L7 13.366v3.35q.043.068.104.153c.17.225.44.536.834.85C8.71 18.337 9.993 19 12 19s3.29-.663 4.063-1.281c.392-.314.664-.625.833-.85.042-.056.075-.11.104-.153v-3.35zM5.06 10 12 13.857 18.941 10 12 6.144z"/></svg>
