<svg xmlns="http://www.w3.org/2000/svg" fill="none" viewBox="0 0 24 24"><path fill="currentColor" d="M12 2c5.523 0 10 4.477 10 10s-4.477 10-10 10S2 17.523 2 12 6.477 2 12 2m0 2c-1.67 0-3.22.512-4.502 1.387.502.569.94 1.195 1.304 1.869l.072-.04a1 1 0 1 1 .991 1.736l-.29.166a10 10 0 0 1 0 5.764l.29.166a1.001 1.001 0 0 1-.991 1.737l-.072-.042c-.364.674-.802 1.3-1.304 1.87C8.781 19.486 10.33 20 12 20s3.22-.513 4.502-1.388a10 10 0 0 1-1.304-1.868l-.071.041a1 1 0 0 1-.992-1.737l.29-.166a10 10 0 0 1 0-5.765l-.29-.165a1 1 0 0 1 .992-1.736l.07.04c.364-.674.803-1.3 1.305-1.87A7.96 7.96 0 0 0 12 4M6 6.71A7.97 7.97 0 0 0 4 12c0 2.028.756 3.878 2 5.288a8 8 0 0 0 1.065-1.536l-.286-.163a1 1 0 0 1 .992-1.736l.01.004a8 8 0 0 0-.001-3.714l-.009.005a1 1 0 0 1-.992-1.737l.286-.164A8 8 0 0 0 6 6.711m12 0a8 8 0 0 0-1.066 1.536l.287.164a1 1 0 0 1-.992 1.737l-.01-.006a8 8 0 0 0 0 3.715l.01-.004a1 1 0 1 1 .992 1.736l-.287.163A8 8 0 0 0 18 17.288c1.244-1.41 2-3.26 2-5.288a7.97 7.97 0 0 0-2-5.29"/></svg>
