<svg xmlns="http://www.w3.org/2000/svg" fill="none" viewBox="0 0 24 24"><path fill="currentColor" d="M13.927 2.749a19.3 19.3 0 0 1 5.664.147c.727.13 1.3.665 1.483 1.37l.031.144.071.435c.172 1.134.354 3.063.076 5.229-.317 2.478-1.245 5.335-3.544 7.634s-5.155 3.226-7.633 3.544a19.3 19.3 0 0 1-5.665-.148 1.86 1.86 0 0 1-1.513-1.513 19.3 19.3 0 0 1-.147-5.664c.317-2.478 1.244-5.335 3.543-7.634s5.156-3.227 7.634-3.544m5.457 5.6c-.95 1.842-2.422 4.102-4.677 6.357s-4.515 3.73-6.357 4.679c.47-.016.964-.052 1.47-.117 2.2-.281 4.585-1.086 6.473-2.974 1.889-1.889 2.694-4.275 2.976-6.474.065-.507.1-1 .115-1.47m-.915-2.82c-1.807.7-4.78 2.195-7.762 5.176-2.98 2.98-4.474 5.954-5.174 7.762 1.807-.702 4.78-2.196 7.76-5.176 2.981-2.981 4.475-5.955 5.176-7.762m-2.821-.915c-.47.016-.961.052-1.467.117-2.2.282-4.584 1.087-6.472 2.976S5.015 11.98 4.733 14.18a16 16 0 0 0-.117 1.465c.949-1.841 2.424-4.1 4.677-6.353 2.254-2.254 4.513-3.728 6.355-4.677"/></svg>
