<svg xmlns="http://www.w3.org/2000/svg" fill="none" viewBox="0 0 24 24"><path fill="currentColor" d="M14.897 1.054a1 1 0 0 1 .199 1.99 8.96 8.96 0 0 0-4.946 2.117c4.608-1.729 9.874-.169 12.779 3.875a1.001 1.001 0 0 1-1.625 1.167 8.96 8.96 0 0 0-4.305-3.224c3.8 3.127 5.081 8.465 3.032 13.002a1 1 0 0 1-1.822-.823c.777-1.72.966-3.58.639-5.337a11.005 11.005 0 0 1-9.744 9.125 1 1 0 0 1-.199-1.99 8.96 8.96 0 0 0 4.942-2.116c-4.607 1.726-9.87.166-12.775-3.876a1 1 0 0 1 1.625-1.166A8.96 8.96 0 0 0 7 17.02C3.201 13.894 1.92 8.555 3.97 4.018a1 1 0 0 1 1.822.824 8.96 8.96 0 0 0-.64 5.338c.808-4.853 4.791-8.632 9.745-9.126M12 7a5 5 0 1 0 0 10 5 5 0 0 0 0-10m0 3a2 2 0 1 1 0 4 2 2 0 0 1 0-4"/></svg>
