<svg xmlns="http://www.w3.org/2000/svg" fill="none" viewBox="0 0 24 24"><path fill="currentColor" d="M8.75 11q.183.001.354.065l5.96 2.26A3 3 0 0 1 16.995 16H19a3 3 0 0 1 3 3v.25a1 1 0 0 1-.694.952l-7 2.25a1 1 0 0 1-.572.012l-6.82-1.882A2 2 0 0 1 5 22H3a2 2 0 0 1-2-2v-7a2 2 0 0 1 2-2zM7 18.532l.016.004 6.962 1.92 5.916-1.901A1 1 0 0 0 19 18h-5.75q-.15 0-.294-.044l-2.25-.692a1 1 0 0 1 .588-1.912L13.4 16h1.59a1 1 0 0 0-.636-.805L8.568 13H7zM3 20h2v-7H3zM19.51 2.233q.763 0 1.373.427.608.427.914 1.128.305.701.152 1.447-.152.747-.67 1.265l-3.56 3.56a1 1 0 0 1-1.414 0l-3.56-3.56a2.7 2.7 0 0 1-.685-1.295 2.3 2.3 0 0 1 .136-1.448q.306-.7.93-1.112a2.47 2.47 0 0 1 1.387-.412q.762 0 1.356.473t1.143.99q.517-.517 1.128-.99a2.18 2.18 0 0 1 1.37-.473"/></svg>
