<svg xmlns="http://www.w3.org/2000/svg" fill="none" stroke-width="1.5" viewBox="0 0 24 24"><g stroke="currentColor"><path stroke-linejoin="round" d="M16.6 12.12c-.909 1.536-2.205 3.198-3.798 4.792-4.207 4.207-8.896 6.338-10.474 4.76-1.578-1.577.554-6.267 4.76-10.474 1.29-1.289 2.624-2.383 3.9-3.235q.514-.344 1.012-.632"/><path stroke-linecap="round" stroke-linejoin="round" d="M7.088 16.912c4.207 4.207 8.896 6.338 10.474 4.76 1.578-1.577-.554-6.267-4.76-10.474C8.593 6.991 3.904 4.86 2.326 6.438c-1.578 1.577.554 6.266 4.76 10.473Z"/><path d="M14 5.5c2 0 4.5-2.5 4.5-4.5 0 2 2.5 4.5 4.5 4.5-2 0-4.5 2.5-4.5 4.5 0-2-2.5-4.5-4.5-4.5Z"/></g></svg>
