<svg xmlns="http://www.w3.org/2000/svg" fill="none" stroke-width="1.5" viewBox="0 0 24 24"><g stroke="currentColor"><path stroke-linecap="square" d="M8.856 4.927a3.144 3.144 0 1 0 6.288 0 3.144 3.144 0 1 0-6.288 0m10.218 3.929a3.144 3.144 0 1 0 0 6.288 3.144 3.144 0 1 0 0-6.288M8.856 19.073a3.144 3.144 0 1 0 6.288 0 3.144 3.144 0 1 0-6.288 0M4.927 8.856a3.144 3.144 0 1 0 0 6.288 3.144 3.144 0 1 0 0-6.288"/><path d="M4.554 11.627H5.3v.746h-.746zm7.073-7.073h.746V5.3h-.746zm7.074 7.073h.746v.746h-.746zm-7.074 7.074h.746v.746h-.746z"/></g></svg>
