<svg xmlns="http://www.w3.org/2000/svg" fill="none" stroke-width="1.5" viewBox="0 0 24 24"><g stroke="currentColor"><path d="M2 10h20v12H2z"/><path d="M2 13a3.333 3.333 0 0 0 6.667 0 3.333 3.333 0 0 0 6.666 0A3.333 3.333 0 0 0 22 13"/><path stroke-linecap="round" d="M5.755 6.768c.969 0 1.755-.786 1.755-1.755L5.755 2.5 4 5.013c0 .97.786 1.755 1.755 1.755Zm6.245 0c.969 0 1.755-.786 1.755-1.755L12 2.5l-1.755 2.513c0 .97.786 1.755 1.755 1.755Zm6.255 0c.969 0 1.755-.786 1.755-1.755L18.255 2.5 16.5 5.013c0 .97.786 1.755 1.755 1.755Z"/></g></svg>
