<svg xmlns="http://www.w3.org/2000/svg" fill="none" stroke-width="1.5" viewBox="0 0 24 24"><g stroke="currentColor"><path stroke-linecap="square" d="M18.123 7.08a1.911 1.911 0 1 0 3.8-.408 1.911 1.911 0 1 0-3.8.408"/><path d="M18.154 14.337a3.707 3.707 0 0 1 3.707 3.707v3.347H1.873v-2.087a8 8 0 0 1 8-8h1.957"/><path stroke-linecap="square" d="m10.198 13.496 1.235-1.615c1.392-1.902 3.833-2.482 5.454-1.296 1.62 1.185 1.806 3.688.415 5.59l-1.097 1.558m2.643-9.378-1.756 2.298"/><path d="M6.161 6.608a2 2 0 1 1 0-4m4.264 4a2 2 0 0 1 0-4"/></g></svg>
