<svg xmlns="http://www.w3.org/2000/svg" fill="none" stroke-width="1.5" viewBox="0 0 24 24"><g stroke="currentColor"><path d="M16 15.54a15 15 0 0 1 6 3.28L19.5 22 15 19.5zm0 0a15 15 0 0 0-4-.54c-1.385 0-2.727.188-4 .54m0 0a15 15 0 0 0-6 3.28L4.5 22 9 19.5zM2 14.5v-4h2.252c.189-.734.48-1.427.856-2.064L3.515 6.843l2.828-2.828 1.593 1.593A8 8 0 0 1 10 4.752V2.5h4v2.252c.734.189 1.427.48 2.064.856l1.593-1.593 2.828 2.828-1.593 1.593c.377.637.667 1.33.856 2.064H22v4"/><path d="M15 12.5a3 3 0 1 0-6 0"/></g></svg>
