<svg xmlns="http://www.w3.org/2000/svg" fill="none" stroke-width="1.5" viewBox="0 0 24 24"><g stroke="currentColor"><path d="M19 5V2h-4v3h-3v4h3v3h4V9h3V5zM4.018 14.36A15.2 15.2 0 0 1 2.07 7.709l4.07-.489 1.433 5.017zm0 0a15.2 15.2 0 0 0 2.48 3.253c.993.992 2.089 1.82 3.254 2.48m0 0a15.2 15.2 0 0 0 6.65 1.949l.488-4.071-5.017-1.433z"/><path d="M4.018 14.36A15.2 15.2 0 0 1 2.07 7.709l4.07-.489 1.433 5.017zm0 0a15.2 15.2 0 0 0 2.48 3.253c.993.992 2.089 1.82 3.254 2.48m0 0a15.2 15.2 0 0 0 6.65 1.949l.488-4.071-5.017-1.433z"/></g></svg>
