<svg xmlns="http://www.w3.org/2000/svg" fill="none" stroke-width="1.5" viewBox="0 0 24 24"><g stroke="currentColor"><path d="M12.006 2.518 5.732 8.792l-3.68-3.68"/><path d="M8.574 1.983h3.967V5.95m7.659 8.41a15.2 15.2 0 0 0 1.949-6.651l-4.071-.488-1.434 5.017zm0 0a15.2 15.2 0 0 1-2.48 3.253 15.2 15.2 0 0 1-3.254 2.48m0 0a15.2 15.2 0 0 1-6.65 1.949l-.488-4.071 5.016-1.433z"/><path d="M20.2 14.36a15.2 15.2 0 0 0 1.949-6.651l-4.071-.488-1.434 5.017zm0 0a15.2 15.2 0 0 1-2.48 3.253 15.2 15.2 0 0 1-3.254 2.48m0 0a15.2 15.2 0 0 1-6.65 1.949l-.488-4.071 5.016-1.433z"/></g></svg>
