<svg xmlns="http://www.w3.org/2000/svg" fill="none" stroke-width="1.5" viewBox="0 0 24 24"><path stroke="currentColor" d="M20.267 18.026A9.99 9.99 0 0 1 12.286 22a9.98 9.98 0 0 1-7.982-3.974m0-12.052A9.98 9.98 0 0 1 12.286 2c3.26 0 6.155 1.56 7.981 3.974m-3.366 3.774h-3.357v5.035h3.357m-3.357-2.727h2.937m5.804-2.308h-3.356v5.035h3.356m-3.356-2.727h2.937m-19.58 3.477V9.748h3.356m-3.356 2.308h2.937m2.447 3.477v-2.848m0 0V9.748h2.623c.405 0 .734.329.734.734v1.469a.734.734 0 0 1-.734.734zm2.098.001 1.705 2.626"/></svg>
