<svg xmlns="http://www.w3.org/2000/svg" fill="none" viewBox="0 0 24 24"><path fill="currentColor" d="M19.5 14a3.5 3.5 0 0 0 3.5 3.5v2l-.175.004a3.5 3.5 0 0 0-3.32 3.316L19.5 23h-2a3.5 3.5 0 0 0-3.32-3.495L14 19.5v-2l.18-.005A3.5 3.5 0 0 0 17.5 14zM9 2c1.734 0 3.346.233 4.559.637.6.2 1.16.462 1.589.8.417.329.852.85.852 1.563v8c0 .714-.435 1.234-.852 1.564-.43.337-.988.599-1.59.8C12.347 15.766 10.735 16 9 16s-3.346-.233-4.559-.637c-.6-.2-1.16-.461-1.588-.8C2.435 14.235 2 13.714 2 13V5c0-.714.435-1.234.853-1.563.428-.338.987-.6 1.588-.8C5.654 2.233 7.266 2 9 2m4.559 9.363C12.346 11.767 10.734 12 9 12s-3.346-.233-4.559-.637A8 8 0 0 1 4 11.201v1.71a1 1 0 0 0 .09.082c.18.14.499.311.983.473.96.32 2.348.534 3.927.534s2.968-.215 3.927-.534c.484-.162.804-.332.982-.473a1 1 0 0 0 .091-.082v-1.71a8 8 0 0 1-.441.162m0-4C12.346 7.767 10.734 8 9 8s-3.346-.233-4.559-.637A8 8 0 0 1 4 7.201v1.71a1 1 0 0 0 .09.082c.18.14.499.311.983.473.96.32 2.348.534 3.927.534s2.968-.215 3.927-.534c.484-.162.804-.332.982-.473A1 1 0 0 0 14 8.91V7.201a8 8 0 0 1-.441.162M9 4c-1.58 0-2.968.215-3.927.534-.476.159-.792.327-.972.466.18.14.496.307.972.466C6.033 5.786 7.421 6 9 6s2.968-.215 3.927-.534c.475-.159.791-.327.971-.466-.18-.139-.496-.307-.971-.466C11.967 4.214 10.579 4 9 4"/></svg>
