<svg xmlns="http://www.w3.org/2000/svg" fill="none" viewBox="0 0 24 24"><path fill="currentColor" d="m8.629 8.63 1.467 1.466h-.001L13 13l2.3 2.3h-.001l6.7 6.7-1.425 1.425L17 19.85v2.93l-1.242-.311L12 21.53l-3.758.94L7 22.78v-4.9l2-1v-1.645l-5.79 1.241-1.21.26V12.42l.504-.288 4.311-2.466-6.24-6.241L1.998 2zM11 18.118l-2 1v1.102l2.758-.69.242-.061.242.061 2.758.69v-1.102l-2-1v-2.267l-2-2zM12 2a3 3 0 0 1 3 3v3.419l6.496 3.713.504.288v4.317l-1.21-.26-1.862-.399-2.603-2.602 3.675.787v-.683l-6.496-3.712L13 9.58V5a1 1 0 1 0-2 0v3.15l-2-2V5a3 3 0 0 1 3-3M4 13.58v.683l5.79-1.24.314-.069-1.823-1.822z"/></svg>
