<svg xmlns="http://www.w3.org/2000/svg" fill="none" viewBox="0 0 24 24"><path fill="currentColor" d="m13.657 3.574-.67 1.16 1.958 1.132a4 4 0 0 0 4.204-.126l.538-.356 1.054-.695.436 1.184-.938.346c.893-.328.936-.344.939-.344v.002l.003.006.005.014.014.042q.017.051.042.136c.034.113.076.273.118.471.085.397.17.958.181 1.64.023 1.367-.25 3.22-1.397 5.21-1.15 1.99-2.62 3.153-3.816 3.817a8.7 8.7 0 0 1-1.51.663 6 6 0 0 1-.605.164l-.043.01-.016.002h-.005l-.003.001-.171-.984.17.984-1.245.216.077-1.26.039-.644a4 4 0 0 0-1.993-3.704l-1.96-1.131-4.906 8.499-1.731-1 4.906-8.5-1.732-1 3.922-6.794 1.733 1 .67-1.161zM8.331 8.798l3.692 2.131a6 6 0 0 1 2.98 4.718q.17-.082.354-.183c.933-.517 2.115-1.441 3.054-3.068.94-1.627 1.148-3.111 1.13-4.178a7 7 0 0 0-.019-.4 6 6 0 0 1-5.577-.22l-3.69-2.132z"/></svg>
