<svg xmlns="http://www.w3.org/2000/svg" fill="none" viewBox="0 0 24 24"><path fill="currentColor" d="M5.63 10a2 2 0 0 1 1.302.481L9.869 13H22v5a4 4 0 0 1-4 4H6a4 4 0 0 1-4-4v-5h1.5v-1a2 2 0 0 1 2-2zM4 18a2 2 0 0 0 2 2h12a2 2 0 0 0 2-2v-3H4zM5.5 5a2 2 0 1 1 0 4 2 2 0 0 1 0-4m5.62-2.696a2.43 2.43 0 0 0 .587 2.489A4.43 4.43 0 0 1 12.873 9h-2.094l.102-.304a2.43 2.43 0 0 0-.588-2.489A4.43 4.43 0 0 1 9.127 2h2.094zm4 0a2.43 2.43 0 0 0 .587 2.489A4.43 4.43 0 0 1 16.873 9h-2.094l.102-.304a2.43 2.43 0 0 0-.588-2.489A4.43 4.43 0 0 1 13.127 2h2.094zm4 0a2.43 2.43 0 0 0 .587 2.489A4.43 4.43 0 0 1 20.873 9h-2.094l.102-.304a2.43 2.43 0 0 0-.588-2.489A4.43 4.43 0 0 1 17.127 2h2.094z"/></svg>
