<svg xmlns="http://www.w3.org/2000/svg" fill="none" viewBox="0 0 24 24"><path fill="currentColor" d="m8.008 1.602 3.925 3.926.707.707-1.717 1.716 1.284 1.284 1.14-1.14a5.4 5.4 0 0 1-.17-1.104l-.007-.266a5.416 5.416 0 0 1 5.416-5.416l.325.01a5.4 5.4 0 0 1 2.107.567l1.236.622-3.235 3.236.547.547 2.258-2.256.978-.979.623 1.235a5.417 5.417 0 0 1-4.56 7.843l-.28.007a5.4 5.4 0 0 1-1.371-.179l-1.14 1.14 5.428 5.428.707.708-3.867 3.867-.708-.707-5.428-5.428-5.426 5.428-.707.707-3.867-3.867.707-.707 5.426-5.429-1.283-1.283-1.718 1.718-.707-.707L.705 8.905l-.707-.708L7.3.895zm10.578 1.707a3.416 3.416 0 0 0-3.416 3.416l.004.168a3.4 3.4 0 0 0 .241 1.104l.246.613-.467.467-10.16 10.16 1.038 1.039 10.161-10.16.467-.467.613.246c.394.158.823.246 1.273.246l.176-.005a3.416 3.416 0 0 0 3.24-3.41L22 6.685l-1.726 1.728-.707.707-3.377-3.377.707-.707 1.726-1.727zM13.62 15.555l4.72 4.72 1.04-1.038-4.72-4.72zm-5.15-5.15 1.283 1.283 1.039-1.04-1.283-1.282zM2.826 8.197l2.512 2.512 4.474-4.474L7.3 3.723z"/></svg>
