<svg xmlns="http://www.w3.org/2000/svg" fill="none" viewBox="0 0 24 24"><path fill="currentColor" d="M15.615 2A3.385 3.385 0 0 1 19 5.385V5.5c0 .537-.12 1.045-.337 1.5H22v6h-1v9H3v-9H2V7h3.337A3.5 3.5 0 0 1 5 5.5v-.115a3.385 3.385 0 0 1 6.528-1.257L12 5.307l.472-1.18A3.39 3.39 0 0 1 15.615 2M13 20h6v-7h-6zm-8 0h6v-7H5zm8-9h7V9h-7zm-9 0h7V9H4zm4.385-7C7.62 4 7 4.62 7 5.385V5.5A1.5 1.5 0 0 0 8.5 7h2.023L9.67 4.871A1.39 1.39 0 0 0 8.385 4m7.23 0c-.566 0-1.076.345-1.286.871L13.477 7H15.5A1.5 1.5 0 0 0 17 5.5v-.115C17 4.62 16.38 4 15.615 4"/></svg>
