<svg xmlns="http://www.w3.org/2000/svg" fill="none" viewBox="0 0 24 24"><path fill="currentColor" d="m12.485 4.126 8.974 4.985 1.541.77v.086l.06.033-.06.032V17h-2v-5.857l-2 1.11v4.983l-.105.211L18 17l.894.448v.001l-.002.003-.003.006-.008.015-.023.043-.077.132a5 5 0 0 1-.286.42 6.8 6.8 0 0 1-1.183 1.213C16.21 20.163 14.492 21 12 21s-4.21-.837-5.312-1.719a6.8 6.8 0 0 1-1.183-1.213 5 5 0 0 1-.363-.552l-.023-.043-.008-.015-.003-.006-.002-.003c.004-.003.059-.031.894-.449l-.895.447-.105-.21v-4.983l-2.485-1.38L.94 10l1.575-.874 9-5 .485-.27zm0 11.748-.485.27-.485-.27L7 13.365v3.35q.043.069.104.154c.17.225.44.536.834.85C8.71 18.337 9.993 19 12 19s3.29-.663 4.063-1.281a4.8 4.8 0 0 0 .833-.85c.042-.056.075-.11.104-.153v-3.35zM5.06 10 12 13.855 18.941 10 12 6.144z"/></svg>
