<svg xmlns="http://www.w3.org/2000/svg" fill="none" viewBox="0 0 24 24"><path fill="currentColor" d="M15.327 2.626a19.7 19.7 0 0 1 3.476.148 17 17 0 0 1 1.325.23l.08.018.023.005.007.002h.004l-.168.675.17-.674.581.145.146.582L20 4c.931-.232.97-.24.97-.24l.002.003.002.007q.001.01.005.023l.018.08q.023.103.06.289c.05.246.11.6.169 1.037a19.7 19.7 0 0 1 .148 3.475c-.131 2.755-.923 6.29-3.667 9.035-2.744 2.743-6.279 3.534-9.034 3.666a19.7 19.7 0 0 1-3.476-.148 17 17 0 0 1-1.325-.23l-.08-.017-.022-.006-.008-.002h-.003L4 20l-.242.97-.582-.146-.146-.582L4 20l-.97.242v-.004l-.003-.007-.006-.024-.018-.08-.06-.288c-.05-.246-.11-.6-.169-1.036a19.7 19.7 0 0 1-.147-3.475c.131-2.756.922-6.29 3.666-9.036 2.744-2.744 6.279-3.534 9.034-3.666m4.056 5.73c-.95 1.841-2.424 4.098-4.676 6.35-2.252 2.253-4.51 3.727-6.35 4.676q.11-.002.221-.007c2.495-.119 5.46-.827 7.715-3.082s2.964-5.22 3.083-7.715zm-.915-2.826q-.527.202-1.17.5c-1.787.834-4.187 2.27-6.591 4.675s-3.84 4.804-4.675 6.591c-.2.428-.365.821-.5 1.17.349-.135.743-.299 1.171-.499 1.787-.834 4.186-2.271 6.59-4.676 2.404-2.404 3.841-4.803 4.676-6.59.2-.428.363-.822.499-1.171m-3.045-.908c-2.495.12-5.46.83-7.715 3.084-2.255 2.256-2.965 5.22-3.084 7.715l-.008.221c.95-1.84 2.425-4.098 4.677-6.35 2.252-2.253 4.509-3.728 6.35-4.677z"/></svg>
