<svg xmlns="http://www.w3.org/2000/svg" fill="none" viewBox="0 0 24 24"><path fill="currentColor" d="m9.104 11.065 7.25 2.75.646.245V16h5v3.979l-.694.223-7 2.25-.284.091-.288-.08L7 20.606V22H1V11h7.934zM7 18.531l.016.005 6.962 1.92L20 18.52V18h-6.9l-.144-.044-2.25-.692-.956-.294.588-1.912.956.294L13.4 16H15v-.56L8.568 13H7zM3 20h2v-7H3zM19.51 2.233q.763 0 1.373.427.608.427.914 1.128.305.701.152 1.447-.152.747-.67 1.265l-4.267 4.267L12.745 6.5a2.7 2.7 0 0 1-.685-1.295 2.3 2.3 0 0 1 .136-1.448q.306-.7.93-1.112a2.47 2.47 0 0 1 1.387-.412q.762 0 1.356.473t1.143.99q.517-.517 1.128-.99a2.18 2.18 0 0 1 1.37-.473"/></svg>
