<svg xmlns="http://www.w3.org/2000/svg" fill="none" viewBox="0 0 24 24"><path fill="currentColor" fill-rule="evenodd" d="m15.488 17.255 6.628 6.629 1.768-1.768-6.971-6.97 4.182 1.045 1.367.341.176-1.398.395-3.132.108-.855-.76-.405-6.893-3.674v-2.83a3.488 3.488 0 1 0-6.976 0v2.507L1.884.116.116 1.884l6.3 6.3L7.61 9.379l5.744 5.744zM1.619 10.742l2.953-1.574 1.848 1.848-2.865 1.527.111.88 4.129-1.032 3.217 3.218v1.464l-.419.373-2.077 1.848.181.564 2.696-1.498.607-.337.607.337 2.604 1.447 2.07 2.07-.063.195-.466 1.451-1.331-.74-3.421-1.9-3.42 1.9-1.332.74-.466-1.45-.895-2.79-.248-.776.608-.54 2.265-2.016v-1.162L2.905 16.19l-1.367.342-.176-1.398-.395-3.132-.108-.855z" clip-rule="evenodd"/></svg>
