<svg xmlns="http://www.w3.org/2000/svg" fill="none" viewBox="0 0 24 24"><path fill="currentColor" fill-rule="evenodd" d="M14.884 1.884 13.25 3.518v.772a7.25 7.25 0 0 1 10 6.71c0 1.551-.46 3.067-1.32 4.358l-4.89 7.335-.612.919-.987-.494L12 21.398l-3.441 1.72-.987.494-.612-.918-4.89-7.336A7.86 7.86 0 0 1 .75 11a7.25 7.25 0 0 1 10-6.71V2.482l.366-.366 2-2zM3.25 11a4.75 4.75 0 0 1 7.916-3.54l.834.745.834-.746A4.75 4.75 0 0 1 20.75 11a5.36 5.36 0 0 1-.9 2.972l-4.278 6.418-3.013-1.507-.559-.28-.559.28-3.013 1.507-4.279-6.418A5.36 5.36 0 0 1 3.25 11" clip-rule="evenodd"/></svg>
