<svg xmlns="http://www.w3.org/2000/svg" fill="none" viewBox="0 0 24 24"><path fill="currentColor" fill-rule="evenodd" d="M1.25 0H0v20.5h9V18H2.5V6.25h19v2.538l2.5 2.946V0zm13.158 13.826-1.627-1.302-1.562 1.952 2.281 1.825v.449H11v2.5h2.5v.45l-2.28 1.824 1.56 1.952 1.707-1.365 2.566 1.283.447.224.447-.224 2.566-1.283 1.706 1.365 1.562-1.952-2.281-1.825v-.449H24v-2.5h-2.5v-.45l2.28-1.824-1.56-1.952-1.628 1.302a5 5 0 0 0-.395-.22C19.575 13.294 18.673 13 17.5 13s-2.075.294-2.697.606q-.222.111-.395.22" clip-rule="evenodd"/></svg>
