<svg xmlns="http://www.w3.org/2000/svg" fill="none" viewBox="0 0 24 24"><path fill="currentColor" fill-rule="evenodd" d="M3.515 3.515A12 12 0 0 1 23.78 9.719a10 10 0 0 0-3.818-2.9A9.5 9.5 0 0 0 12 2.5a9.5 9.5 0 0 0-8.382 13.97l.193.364-.06.407-.52 3.535 3.57-.509.145-.02A10 10 0 0 0 9.72 23.78a12 12 0 0 1-2.954-.983l-4.839.69-1.657.236.244-1.656.707-4.797A12 12 0 0 1 3.515 3.515m6.828 6.828a8 8 0 0 1 12.87 9.118l.458 3.073.198 1.33-1.33-.192-3.101-.448a7.999 7.999 0 0 1-9.095-12.88" clip-rule="evenodd"/></svg>
