<svg xmlns="http://www.w3.org/2000/svg" fill="none" viewBox="0 0 24 24"><path fill="currentColor" fill-rule="evenodd" d="M9.387.27 7.914.002v3.034L2.999 6.968l-.789.631.452.904 1.615 3.23.449.897.972-.243 2.254-.563L6.317 18H4.794l-.307.805-1.336 3.507-.645 1.695h18.988l-.645-1.695-1.336-3.507-.307-.805h-1.145L16.594 7.237l-.003-.019-.003-.018c-.308-1.848-1.09-3.421-2.35-4.623C12.984 1.38 11.33.624 9.388.27M15.538 18 14.12 7.594c-.232-1.374-.788-2.428-1.606-3.208-.545-.52-1.24-.949-2.1-1.263v1.115l-.468.375L5.35 8.29l.715 1.43 3.334-.834 2.053-.513.1-.025.607 2.425-1.437.36L8.903 18z" clip-rule="evenodd"/></svg>
