<svg xmlns="http://www.w3.org/2000/svg" fill="none" viewBox="0 0 24 24"><path fill="currentColor" fill-rule="evenodd" d="M5.25 3.75a1.25 1.25 0 1 1 2.5 0 1.25 1.25 0 0 1-2.5 0M6.5 0a3.75 3.75 0 1 0 0 7.5 3.75 3.75 0 0 0 0-7.5m13.959 15.597c.35.055.658.128.915.2a7 7 0 0 1 .816.291l.057.026.02.01.007.004.003.001h.002v.001l-.555 1.12.556-1.12.583.29.097.645.825 5.5L24 24h-9.583l.215-1.435.826-5.5.096-.645.583-.29.557 1.12-.556-1.12h.002l.003-.002.008-.004.02-.01a4 4 0 0 1 .242-.104 7 7 0 0 1 .63-.212 8 8 0 0 1 .916-.2V2.75h2.5zM17.32 21.5l.498-3.323a5.5 5.5 0 0 1 1.39-.177 5.5 5.5 0 0 1 1.39.177l.5 3.323zM12.6 10.2l-.6.8zl-.002-.001-.004-.003-.01-.007-.028-.02-.093-.064a6 6 0 0 0-.327-.203 9 9 0 0 0-1.201-.58C9.896 8.907 8.395 8.5 6.5 8.5s-3.396.406-4.434.822a9 9 0 0 0-1.2.579 6 6 0 0 0-.42.266l-.03.02-.01.008-.003.003H.401v.001S.4 10.2 1 11l-.6-.8-.4.3v8h2V24h9v-5.5h2v-8z" clip-rule="evenodd"/></svg>
