<svg xmlns="http://www.w3.org/2000/svg" fill="none" viewBox="0 0 24 24"><path fill="currentColor" fill-rule="evenodd" d="M12.003 0C10.886 0 9.786.156 8.73.455l-.909.258v2.151q-.868.4-1.638.947l-1.046-.604-.818-.472-.678.658a12 12 0 0 0-1.998 2.55l-.003.007-.058.1-.004.006a12 12 0 0 0-1.21 3.006l-.231.916.818.472 1.046.604a10 10 0 0 0 0 1.892l-1.046.604-.818.472.231.916a12 12 0 0 0 1.21 3.005l.003.006.06.103.003.006a12 12 0 0 0 1.997 2.549l.678.658.818-.472 1.046-.604q.77.548 1.638.947v2.151l.91.258a12 12 0 0 0 6.545 0l.909-.258v-2.151a10 10 0 0 0 1.638-.947l1.046.604.818.472.678-.658.123-.122a12 12 0 0 0 3.15-5.547l.231-.916-.818-.472-1.047-.605a10 10 0 0 0 0-1.89l1.047-.605.818-.472-.231-.916a12 12 0 0 0-3.15-5.547l-.123-.122-.678-.658-.818.472-1.046.604a10 10 0 0 0-1.638-.947V.713l-.91-.258A12 12 0 0 0 12.004 0M10.32 3.705V2.65a9.5 9.5 0 0 1 3.364 0v1.939l.833.295c.882.311 1.69.783 2.388 1.38l.672.575.766-.442.915-.528a9.5 9.5 0 0 1 1.682 2.913l-.914.527-.765.442.16.868a7.6 7.6 0 0 1 0 2.762l-.16.868.765.441.914.528a9.5 9.5 0 0 1-1.682 2.913l-.915-.528-.766-.442-.672.575a7.5 7.5 0 0 1-2.388 1.38l-.833.295v1.939a9.5 9.5 0 0 1-3.364 0v-1.939l-.833-.295a7.5 7.5 0 0 1-2.388-1.38l-.672-.575-.766.442-.916.528a9.5 9.5 0 0 1-.942-1.333l-.056-.096a9.5 9.5 0 0 1-.683-1.483l.914-.528.765-.442-.16-.868a7.6 7.6 0 0 1 0-2.762l.16-.868-.765-.442-.914-.528q.277-.771.684-1.484l.054-.094q.412-.706.943-1.335l.916.53.766.441.672-.575a7.5 7.5 0 0 1 2.388-1.38l.833-.295zM15.501 12a3.5 3.5 0 1 1-7 0 3.5 3.5 0 0 1 7 0" clip-rule="evenodd"/></svg>
