<svg xmlns="http://www.w3.org/2000/svg" fill="none" viewBox="0 0 24 24"><path fill="currentColor" fill-rule="evenodd" d="M20.232 7.166 17.45 9.947l1.768 1.768 3.666-3.666.884-.883-.884-.884-5.165-5.166-.884-.884-.884.884-3.666 3.666 1.768 1.768 2.782-2.782zM1.5 3.25H.25v20.5h20.5V15h-2.5v6.25H2.75V5.75H9v-2.5zm14.284 3.198-4.332 4.332 1.768 1.768 4.332-4.332zm-3.73 2.101-2.782 2.782 3.397 3.397 2.782-2.781 1.768 1.767-3.666 3.666-.884.884-.884-.884-5.165-5.165-.884-.884.884-.884 3.666-3.666z" clip-rule="evenodd"/></svg>
