<svg xmlns="http://www.w3.org/2000/svg" fill="none" viewBox="0 0 24 24"><path fill="currentColor" fill-rule="evenodd" d="M11 .75a9.75 9.75 0 0 0-9.75 9.75 9.74 9.74 0 0 0 4 7.875V23h2.5v-5.98l-.587-.367A7.25 7.25 0 0 1 11 3.25a7.49 7.49 0 0 1 6.987 4.799l2.193 5.701h-1.93v4h-4V23h2.5v-2.75h4v-4h3.07l-.653-1.699-2.846-7.4A9.99 9.99 0 0 0 11 .75m2.08 6.02-.595-1.27h-2.22L9.67 6.772l-.663.382-1.398-.12L6.5 8.955l.804 1.151v.764L6.5 12.02l1.11 1.923 1.399-.12.662.381.594 1.272h2.22l.595-1.27.663-.384 1.397.121 1.11-1.922-.803-1.15v-.767l.804-1.149-1.11-1.923-1.398.12zm-2.703 4.647v-2h2v2z" clip-rule="evenodd"/></svg>
