<svg xmlns="http://www.w3.org/2000/svg" fill="none" viewBox="0 0 24 24"><path fill="currentColor" fill-rule="evenodd" d="M10 .75H8.75v2.587a9 9 0 0 0-.577.24l-.946-.946-.884-.884-.884.884-2.828 2.828-.884.884.884.884.946.946a9 9 0 0 0-.24.577H.75v6.5h.501a18.2 18.2 0 0 1 4.04-2.227l-.07-.273H3.25v-1.5h1.97l.242-.938c.16-.619.404-1.203.722-1.74l.493-.834-.686-.686-.709-.709 1.061-1.06.709.709.685.685.835-.493a6.7 6.7 0 0 1 1.74-.721l.938-.242V3.25h1.5v1.971l.938.242a6.7 6.7 0 0 1 1.74.72l.834.494.686-.685.709-.71 1.06 1.061-.709.71-.685.685.493.834a6.7 6.7 0 0 1 .721 1.74l.242.938h1.97v1.5h-1.97l-.07.273a18.2 18.2 0 0 1 4.04 2.227h.5v-6.5h-2.587a9 9 0 0 0-.239-.577l.946-.946.884-.884-.884-.884-2.828-2.828-.884-.884-.884.884-.946.946a9 9 0 0 0-.577-.24V.75zM16.25 12q0 .124-.007.247a18 18 0 0 0-2.501-.415 1.75 1.75 0 0 0-3.484 0q-1.277.122-2.501.415A4.25 4.25 0 1 1 16.25 12m-6.725 4.472.687 2.722.235.932-.84.467-4.5 2.5-.931.517-.659-.838-2.5-3.18-.725-.922.874-.782a16.2 16.2 0 0 1 6.501-3.554A16.3 16.3 0 0 1 12 13.75c1.499 0 2.952.203 4.332.584a16.2 16.2 0 0 1 6.501 3.554l.874.782-.724.922-2.5 3.18-.659.838-.931-.517-4.5-2.5-.84-.467.235-.932.687-2.722a13.8 13.8 0 0 0-4.95 0" clip-rule="evenodd"/></svg>
