<svg xmlns="http://www.w3.org/2000/svg" fill="none" viewBox="0 0 24 24"><path fill="currentColor" fill-rule="evenodd" d="m6.95.232.884.884L12 5.283l4.166-4.167.884-.884.884.884 4.95 4.95.884.884-.884.884L18.718 12l4.166 4.167.884.883-.884.884-4.95 4.95-.884.884-.884-.884L12 18.718l-4.166 4.166-.884.884-.884-.884-4.95-4.95-.884-.884.884-.884L5.282 12 1.116 7.834.232 6.95l.884-.884 4.95-4.95zm10.1 3.536-4.166 4.166-.884.884-.884-.884L6.95 3.768 3.768 6.95l4.166 4.166.884.884-.884.884-4.166 4.166 3.182 3.182 4.166-4.166.884-.884.884.884 4.166 4.166 3.182-3.182-4.166-4.166-.884-.884.884-.884 4.166-4.166z" clip-rule="evenodd"/></svg>
