<svg xmlns="http://www.w3.org/2000/svg" fill="none" viewBox="0 0 24 24"><path fill="currentColor" fill-rule="evenodd" d="M.001 8.73A6.73 6.73 0 0 1 11.49 3.971l.51.511.512-.51A6.73 6.73 0 0 1 24.001 8.73v.15a6.88 6.88 0 0 1-2.073 4.92L20.5 15.197a5.8 5.8 0 0 0-.761-2.751l.443-.433A4.38 4.38 0 0 0 21.5 8.88v-.149a4.23 4.23 0 0 0-7.22-2.991l-1.395 1.395-.884.884-.884-.884L9.722 5.74a4.23 4.23 0 0 0-7.221 2.99v.15a4.38 4.38 0 0 0 1.32 3.132l.442.433a5.8 5.8 0 0 0-.76 2.752L2.072 13.8A6.88 6.88 0 0 1 .001 8.879zm5.5 6.598a3.828 3.828 0 0 1 6.5-2.742 3.828 3.828 0 0 1 5.379 5.45l-4.672 4.671-.707.707-.707-.707-4.672-4.672a3.83 3.83 0 0 1-1.121-2.707" clip-rule="evenodd"/></svg>
