<svg xmlns="http://www.w3.org/2000/svg" fill="none" viewBox="0 0 24 24"><path fill="currentColor" fill-rule="evenodd" d="M20.75 0v3.25H24v4h-3.25v3.25h-4V7.25H13.5v-4h3.25V0zM7.86 5.255l-.293-1.024-1.058.126-4.579.549-1.164.14.065 1.17c.154 2.78.938 5.534 2.353 8.028a18.4 18.4 0 0 0 2.993 3.926 18.4 18.4 0 0 0 3.926 2.993 18.3 18.3 0 0 0 8.028 2.353l1.17.065.14-1.164.549-4.579.126-1.058-1.024-.293-5.642-1.612-.925-.264-.492.826-1.736 2.908a16 16 0 0 1-2.352-1.942 16 16 0 0 1-1.942-2.353l2.907-1.736.826-.492-.264-.924zm9.244 15.658a15.8 15.8 0 0 1-4.63-1.338l1.213-2.032 3.694 1.056zM6.804 10.66l-2.032 1.213a15.8 15.8 0 0 1-1.337-4.63l2.313-.277z" clip-rule="evenodd"/></svg>
