<svg xmlns="http://www.w3.org/2000/svg" fill="none" viewBox="0 0 24 24"><path fill="currentColor" fill-rule="evenodd" d="M8.745 0h10.852L18.12 1.994l-2.544 3.435h6.14L19.857 7.51l-3.355 3.758a7.5 7.5 0 0 0-3.305 1.928 7.5 7.5 0 0 0-2.106 4.134l-2.543 2.85-.373.417H3.28l1.032-1.857 2.99-5.38H.086l1.25-1.93L8.377.57zm1.36 2.5-5.419 8.36h6.863l-1.031 1.856-2.212 3.98 7.827-8.767h-5.52l1.477-1.995L14.634 2.5zM24 18.5a5.48 5.48 0 0 1-1.61 3.89A5.5 5.5 0 1 1 24 18.5m-6.5 0v-3h2v2.434l2.015 1.209-1.03 1.715-2.5-1.5-.485-.292z" clip-rule="evenodd"/></svg>
