<svg xmlns="http://www.w3.org/2000/svg" fill="none" viewBox="0 0 24 24"><path fill="currentColor" fill-rule="evenodd" d="M9.002 2.5a2.25 2.25 0 1 0 0 4.5 2.25 2.25 0 0 0 0-4.5m-4.75 2.25a4.75 4.75 0 1 1 9.5 0 4.75 4.75 0 0 1-9.5 0M11.5 19.998V16.75h5v-3.486c-.308-.17-.676-.356-1.106-.54-1.447-.62-3.58-1.224-6.394-1.224s-4.947.604-6.394 1.224a11 11 0 0 0-1.647.863 7 7 0 0 0-.59.423l-.012.01-.005.004-.001.001H.35c0 .001-.001.001.65.76l-.651-.758-.35.299v5.672zM20 16l4 4-4 4h-1.5v-2.75h-5v-2.5h5V16z" clip-rule="evenodd"/></svg>
