<svg xmlns="http://www.w3.org/2000/svg" fill="none" viewBox="0 0 24 24"><path fill="currentColor" fill-rule="evenodd" d="M9.553 0A9.553 9.553 0 0 0 0 9.553a9.56 9.56 0 0 0 5.718 8.751v-2.831a7.06 7.06 0 0 1-3.108-4.67h2.205l.915 2.515 2.321-.933-.575-1.582h4.513l3.87-1.556 3.197 1.285q.049-.483.05-.98A9.553 9.553 0 0 0 9.552 0M6.708 3.097A7.06 7.06 0 0 0 2.61 8.303h2.205zm9.787 5.206a7.06 7.06 0 0 0-4.098-5.206l1.893 5.206zm-9.02 0L9.554 2.59l2.077 5.712zm8.384 3.1.466.187 6.891 2.769.784.315v1.881l-.784.315-2.34.94v3.046l.001.795-.72.337-3.769 1.764-.53.248-.53-.248-3.763-1.764-.718-.337-.001-.793-.006-3.048-.622-.25v2.46h-2.5v-5.346l.784-.315 6.891-2.77zm-2.517 7.412.002 1.246 2.515 1.178 2.518-1.178v-1.246l-2.052.824-.466.187-.466-.187z" clip-rule="evenodd"/></svg>
