<svg xmlns="http://www.w3.org/2000/svg" fill="none" viewBox="0 0 24 24"><path fill="currentColor" fill-rule="evenodd" d="M13.385 2.077 13 1.917l-.385.16-10 4.168L2 6.5v9.318L.304 17.464 0 17.758v1.983l.304.295 2.25 2.182.696.675.696-.675 2.25-2.182.304-.295v-1.983l-.304-.294L4.5 15.819V9.541l1.251.521.01 4.824.001.757.672.35 5.99 3.116.576.3.577-.3 6-3.116.673-.35v-5.581l3.135-1.307L24 8.5v-2l-.615-.256zM8.259 14.124l-.006-3.02 4.362 1.819.385.16.385-.16 4.364-1.82v3.021l-4.748 2.467z" clip-rule="evenodd"/></svg>
