<svg xmlns="http://www.w3.org/2000/svg" fill="none" viewBox="0 0 24 24"><path fill="currentColor" fill-rule="evenodd" d="M17.5-.003h6v6l-1 1-2.116-2.116-2.656 2.658a6.5 6.5 0 0 0-2.065-1.47l2.953-2.955L16.5.997zM8.509 6.01l.714.7a6.5 6.5 0 0 1 2.472-1.078l-2.32-2.274-.884-.866-.875.875-7.5 7.5 1.768 1.768zM20.65 20.028l-.65.759zh-.002l-.002-.002-.004-.004-.01-.009-.034-.027-.108-.084a7 7 0 0 0-.386-.267 10 10 0 0 0-1.456-.763c-1.276-.547-3.155-1.078-5.628-1.078s-4.352.53-5.628 1.078a10 10 0 0 0-1.456.763 7 7 0 0 0-.527.378l-.011.01-.005.003-.001.001-.001.001.65.76-.651-.76-.35.3v3.635H21v-3.635zM11 12a2 2 0 1 1 4 0 2 2 0 0 1-4 0m2-4.5a4.5 4.5 0 1 0 0 9 4.5 4.5 0 0 0 0-9" clip-rule="evenodd"/></svg>
