<svg xmlns="http://www.w3.org/2000/svg" fill="none" viewBox="0 0 24 24"><path fill="currentColor" fill-rule="evenodd" d="M12 0A12 12 0 0 0 1.22 17.272l-.707 4.796-.244 1.656 1.657-.237 4.839-.69A12 12 0 0 0 24 12 12 12 0 0 0 12 0M5.282 5.282A9.5 9.5 0 1 1 7.562 20.4l-.359-.19-.402.057-3.57.51.52-3.536.06-.407-.193-.363A9.5 9.5 0 0 1 5.282 5.282M12 7.25A2.25 2.25 0 0 0 9.75 9.5v.5h-2.5v-.5a4.75 4.75 0 0 1 9.5 0v1.075l-.436.374-3.064 2.626v.925h-2.5v-2.075l.437-.374 3.062-2.625A2.25 2.25 0 0 0 12 7.25M10.75 19v-2.5h2.5V19z" clip-rule="evenodd"/></svg>
