<svg xmlns="http://www.w3.org/2000/svg" fill="none" viewBox="0 0 24 24"><path fill="currentColor" fill-rule="evenodd" d="M1.25 0H0v16.5h8.657l-1.302-1.302L11.25 14H2.5V5.374l7.143 3.969.607.337.607-.337L18 5.374v2.53l2.5 4.285V0zm9 6.82L2.5 2.515V2.5H18v.015zm7.25 4.195.864 1.481 1.378 2.363 2.552.785 1.588.489-1.175 1.174-1.646 1.647.57 2.85.381 1.908-1.773-.8-2.739-1.236-2.739 1.236-1.773.8.381-1.908.57-2.85-1.646-1.647-1.174-1.174 1.587-.489 2.552-.785 1.378-2.363z" clip-rule="evenodd"/></svg>
