<svg xmlns="http://www.w3.org/2000/svg" fill="none" viewBox="0 0 24 24"><path fill="currentColor" fill-rule="evenodd" d="M4.778 5.683a7.752 7.752 0 0 1 14.915 1.875 6.252 6.252 0 0 1-1.846 12.191l.02-.019a6.43 6.43 0 0 0 1.678-2.937 3.751 3.751 0 0 0-1.231-7.001L17.24 9.63l.009-1.086v-.045A5.25 5.25 0 0 0 6.957 7.035l-.199.686-.692.177a4.753 4.753 0 0 0-2.122 8.013 6.4 6.4 0 0 0-.688 2.64A7.252 7.252 0 0 1 4.779 5.682m3.538 11.769 1.068-1.068-1.768-1.768-1.068 1.068a4.432 4.432 0 0 0 6.268 6.268l1.068-1.068-1.768-1.768-1.068 1.068a1.932 1.932 0 1 1-2.732-2.732m5.002-4.202c-.512 0-1.004.204-1.366.566l-1.068 1.068-1.768-1.768 1.068-1.068a4.432 4.432 0 1 1 6.268 6.268l-1.068 1.068-1.768-1.768 1.068-1.068a1.932 1.932 0 0 0-1.366-3.298m-.702.866-4 4 1.768 1.768 4-4z" clip-rule="evenodd"/></svg>
