<svg xmlns="http://www.w3.org/2000/svg" fill="none" viewBox="0 0 24 24"><path fill="currentColor" fill-rule="evenodd" d="m1.36 9.997 1.553-.466-2.794 5.936L0 15.72v3.696l.25.334 1-.75-1 .75.001.001.002.002.003.005.008.01.023.03.075.091a7.2 7.2 0 0 0 1.215 1.121c.826.601 2.079 1.24 3.673 1.24s2.847-.639 3.673-1.24a7.2 7.2 0 0 0 1.215-1.12l.075-.092.023-.03.008-.01.003-.005.002-.002s.001-.001-.999-.751l1 .75.25-.334V15.72l-.119-.253-3.372-7.165 9.705-2.911-3.095 6.576-.119.253v3.696l.25.334 1-.75-1 .75.001.001.002.002.003.005.008.01.023.03.075.091a7.2 7.2 0 0 0 1.215 1.121c.826.601 2.079 1.24 3.673 1.24s2.847-.639 3.673-1.24a7.2 7.2 0 0 0 1.215-1.12l.075-.092.023-.03.008-.01.003-.005.002-.002s.001-.001-.999-.751l1 .75.25-.334V12.22l-.119-.252-3.599-7.648 3.077-.923-.718-2.395L13.25 3.82V2h-2.5v2.57L.64 7.602zm17.39-3.062-2.736 5.815h5.472zm-13.5 3.5 2.736 5.815H2.514z" clip-rule="evenodd"/></svg>
