<svg xmlns="http://www.w3.org/2000/svg" fill="none" viewBox="0 0 24 24"><path fill="currentColor" fill-rule="evenodd" d="M7.059.882 5.856.281l-.512 1.243-3.5 8.5-.51 1.239 1.27.423L7.1 13.184l-1.66 2.654-.729 1.166 1.23.614 3 1.5.757.379.632-.563 3.96-3.52 5.315 1.772 1.645.548v-4.56a6.25 6.25 0 0 0-5.132-6.15l-5.992-1.09-.386-3.089-.083-.664-.598-.299zM4.666 9.738 7.144 3.72l.199.1.417 3.335.113.91.903.165 6.895 1.254a3.75 3.75 0 0 1 3.079 3.69v1.092l-4.355-1.452-.685-.228-.54.48-3.868 3.438-1.013-.507 1.771-2.834.841-1.347-1.506-.502zM0 23.75h24v-3.5H0z" clip-rule="evenodd"/></svg>
