<svg xmlns="http://www.w3.org/2000/svg" fill="none" viewBox="0 0 24 24"><path fill="currentColor" fill-rule="evenodd" d="M12.68 1.145 10.845.174v5.752L7.057 8.45 5.033 9.8l2.275.86 2.58.976-9.626 9.626 2.475 2.474 9.626-9.625.976 2.58.86 2.275 1.35-2.024 2.525-3.788h5.752l-.971-1.835-1.944-3.672 1.082-4.114.546-2.073-2.073.546-4.114 1.082zm.665 5.45V4.326l2.268 1.201.432.228.471-.124 2.514-.661-.661 2.514-.124.471.228.432 1.2 2.268h-2.937l-.371.557-1.548 2.321-.994-2.63-.2-.527-.527-.199-2.63-.995 2.322-1.547.557-.371z" clip-rule="evenodd"/></svg>
