<svg xmlns="http://www.w3.org/2000/svg" fill="none" viewBox="0 0 24 24"><path fill="currentColor" fill-rule="evenodd" d="M7.945 4.267a5.739 5.739 0 0 1 8.115 8.115l-.766.766-1.538-1.538.773-.772a3.592 3.592 0 1 0-5.08 0l1.656 1.656 3.532 3.532.007-.006 2.812 2.811-1.531 1.531-2.812-2.812.002-.001-3.533-3.532-.001.001-1.636-1.636a5.74 5.74 0 0 1 0-8.115m.771 12.419-2.172 2.172 1.52 1.52 2.172-2.172zm9.112-14.187a8.238 8.238 0 1 0-11.651 11.65l.77.77-3.054 3.055-.884.884.884.884L7.18 23.03l.883.883.884-.883 3.054-3.055 3.039 3.039.884.884.884-.884 3.298-3.299.884-.884-.884-.884-3.038-3.038.759-.76a8.24 8.24 0 0 0 0-11.65m-6.612 5.026A1.092 1.092 0 1 1 12.76 9.07l-.772.772-.773-.772a1.09 1.09 0 0 1 0-1.545" clip-rule="evenodd"/></svg>
