<svg xmlns="http://www.w3.org/2000/svg" fill="none" viewBox="0 0 24 24"><path fill="currentColor" fill-rule="evenodd" d="M23.5.5H18l-1 1 1.866 1.866-3.226 3.227-3.38-2.586-1.52 1.986 4.25 3.25.87.665.774-.774 4-4L22.5 7l1-1zM7.86 4.925 7.566 3.9l-1.058.127-4.579.548-1.164.14.065 1.17a18.3 18.3 0 0 0 2.353 8.029 18.4 18.4 0 0 0 2.993 3.926 18.4 18.4 0 0 0 3.926 2.993 18.3 18.3 0 0 0 8.028 2.353l1.17.065.14-1.164.549-4.58.126-1.057-1.024-.293-5.642-1.612-.925-.264-.492.825-1.736 2.908a16 16 0 0 1-2.352-1.942 16 16 0 0 1-1.943-2.353l2.908-1.735.825-.493-.264-.924zm9.244 15.657a15.8 15.8 0 0 1-4.63-1.338l1.213-2.031 3.694 1.055zM6.804 10.33l-2.032 1.212a15.8 15.8 0 0 1-1.338-4.629l2.314-.277z" clip-rule="evenodd"/></svg>
