<svg xmlns="http://www.w3.org/2000/svg" fill="none" viewBox="0 0 24 24"><path fill="currentColor" fill-rule="evenodd" d="m.116 1.884 22 22 1.768-1.768L19 17.232V12.25h1.75A3.25 3.25 0 0 0 24 9V6.134l-.811-.304L20 4.634V.75h-2.268l-.366.366-6.634 6.634H9.518L1.884.116zM0 7V4.596l2.507 2.507a.75.75 0 0 0 .64.64l2.507 2.507H4.5v9.5h1.725l.8-3.995.2-1.005h2.929l4.526 4.526.095.474h.379l2.5 2.5h-4.929l-.2-1.005-.8-3.995h-2.45l-.8 3.995-.2 1.005H2V10.001a3.25 3.25 0 0 1-2-3" clip-rule="evenodd"/></svg>
