<svg xmlns="http://www.w3.org/2000/svg" fill="none" viewBox="0 0 24 24"><path fill="currentColor" fill-rule="evenodd" d="M5.25 3.75a1.25 1.25 0 1 1 2.5 0 1.25 1.25 0 0 1-2.5 0M6.5 0a3.75 3.75 0 1 0 0 7.5 3.75 3.75 0 0 0 0-7.5m6.1 10.2-.599.799.522-.696zm-12.2 0s0 .002.075.1l.488.65zm0 0 .001-.001.002-.001.004-.003.01-.007.028-.02q.035-.026.093-.064.117-.08.327-.203c.28-.163.683-.372 1.201-.58C3.104 8.907 4.605 8.5 6.5 8.5s3.396.406 4.434.822c.518.207.921.416 1.2.579a6 6 0 0 1 .42.266l.03.02.01.008.003.003.003.002.4.3v4h-2V24H2v-5.5H0v-8zM13 16.5h2.25V16a3.25 3.25 0 0 1 6.5 0v.5H24V24H13zm6.25 0V16a.75.75 0 0 0-1.5 0v.5zM15.5 19v2.5h6V19z" clip-rule="evenodd"/></svg>
