<svg xmlns="http://www.w3.org/2000/svg" fill="none" viewBox="0 0 24 24"><path fill="currentColor" fill-rule="evenodd" d="M13.25.5V3h-2.5V.5zM7 6.75H4.5v2.5H7zm12.5 0H17v2.5h2.5zm-9.25-1H9v9.516l-1.722-.574c-2.104-.702-4.277.865-4.277 3.083v.743l.366.366 5 5 1.768-1.768-4.592-4.591a.75.75 0 0 1 .945-.462l3.367 1.123 1.646.548V8.25h.75A.75.75 0 0 1 13 9v5.242l.651.355 4.849 2.645V24H21v-8.242l-.652-.355-4.848-2.645V9a3.25 3.25 0 0 0-3.25-3.25zm4.402-2.17 1.768-1.767 1.768 1.767-1.768 1.768zm-8.839 0 1.768 1.768L9.35 3.58 7.581 1.813z" clip-rule="evenodd"/></svg>
