<svg xmlns="http://www.w3.org/2000/svg" fill="none" viewBox="0 0 24 24"><path fill="currentColor" fill-rule="evenodd" d="M.75.75h16v4.5h-3.293v7.193a5.25 5.25 0 0 0-4.975 1.808L6.505 16.63 9 19.75H.75zm17.207 16.225V9.75h.999l1.755 7.693-1.334 4.743 2.406.677 1.42-5.05.086-.306-.07-.31-2.048-8.975-.221-.972h-5.493v7.956l-1.683-.596a3.25 3.25 0 0 0-3.754.92l-.283.34-.651.784.636.796 4.432 5.54 1.952-1.56-3.653-4.569a.75.75 0 0 1 .366.06l.041.018.043.015 3.387 1.2 1.667.59z" clip-rule="evenodd"/></svg>
