<svg xmlns="http://www.w3.org/2000/svg" fill="none" viewBox="0 0 24 24"><path fill="currentColor" fill-rule="evenodd" d="M9.779 3.146a8.186 8.186 0 0 1 11.574 0 8.18 8.18 0 0 1 0 11.57l-8.172 8.168-1.768-1.768 8.172-8.168a5.68 5.68 0 0 0 0-8.034 5.686 5.686 0 0 0-8.039 0L3.738 12.72a3.37 3.37 0 0 0 0 4.767 3.374 3.374 0 0 0 4.77 0l7.809-7.806a1.06 1.06 0 1 0-1.502-1.499l-7.809 7.806-1.767-1.769 7.809-7.805a3.56 3.56 0 0 1 5.036 0 3.56 3.56 0 0 1 0 5.036l-7.809 7.805a5.874 5.874 0 0 1-8.305 0 5.87 5.87 0 0 1 0-8.303z" clip-rule="evenodd"/></svg>
