<svg xmlns="http://www.w3.org/2000/svg" fill="none" viewBox="0 0 24 24"><path fill="currentColor" fill-rule="evenodd" d="M12.136 1.163a3.19 3.19 0 0 0 .57 3.735l-1.768 1.768A5.69 5.69 0 0 1 9.923 0zM8.554 6.557A7.63 7.63 0 0 1 7.5.84L5.053.324a10.13 10.13 0 0 0 1.402 7.593zM.472 5.232h2.5v-2.5h-2.5zm.671 6.553a3.19 3.19 0 0 1 3.71.583L6.621 10.6A5.69 5.69 0 0 0 0 9.562zm16.496 8.37 1.456.771 1.831-1.832-3.287-6.21zm-4.992-9.64-4.575 4.576 4.575 2.422zm3.861-5.109-.791-1.496-1.197 1.197-9.413 9.413-1.196 1.196 1.495.792 13.335 7.06.816.432.653-.653 3.137-3.138.653-.653-.432-.815z" clip-rule="evenodd"/></svg>
