<svg xmlns="http://www.w3.org/2000/svg" fill="none" viewBox="0 0 24 24"><path fill="currentColor" fill-rule="evenodd" d="M12.836 1.07 12 .319l-.836.753-10 9-.414.372V23.25h22.5V10.443l-.414-.372zM3.25 20.75v-9.193L12 3.682l8.75 7.875v9.193zm8.126-11.874A1.376 1.376 0 1 1 10 7.5c.76 0 1.376.616 1.376 1.376m-2.628 2.998a1.374 1.374 0 1 1-2.749 0 1.374 1.374 0 0 1 2.749 0M12 10.586l.707.707 3 3 .293.293V15a4 4 0 0 1-8 0v-.414l.293-.293 3-3zm3.376-1.71A1.376 1.376 0 1 1 14 7.5c.76 0 1.376.616 1.376 1.376m2.622 2.998a1.374 1.374 0 1 1-2.749 0 1.374 1.374 0 0 1 2.749 0" clip-rule="evenodd"/></svg>
