<svg xmlns="http://www.w3.org/2000/svg" fill="none" viewBox="0 0 24 24"><path fill="currentColor" fill-rule="evenodd" d="M20.75 12.5a9.25 9.25 0 0 0-9.25-9.25V.75c6.49 0 11.75 5.26 11.75 11.75zm-5.028 0A4.22 4.22 0 0 0 11.5 8.278v-2.5a6.72 6.72 0 0 1 6.722 6.722zM7.859 5.255l-.292-1.024-1.058.126-4.579.549-1.164.14.065 1.17c.154 2.78.938 5.534 2.353 8.028a18.4 18.4 0 0 0 2.993 3.926 18.4 18.4 0 0 0 3.926 2.993 18.3 18.3 0 0 0 8.028 2.353l1.17.065.14-1.164.549-4.579.126-1.058-1.024-.293-5.642-1.612-.925-.264-.492.826-1.736 2.908a16 16 0 0 1-2.352-1.942 16 16 0 0 1-1.943-2.353l2.908-1.736.825-.492-.264-.924zm9.245 15.658a15.8 15.8 0 0 1-4.63-1.338l1.213-2.032L17.38 18.6zM6.804 10.66l-2.032 1.212a15.8 15.8 0 0 1-1.338-4.629l2.314-.277z" clip-rule="evenodd"/></svg>
