<svg xmlns="http://www.w3.org/2000/svg" fill="none" viewBox="0 0 24 24"><path fill="currentColor" fill-rule="evenodd" d="M6.224 4.457A9.46 9.46 0 0 1 12 2.5a9.5 9.5 0 0 1 9.5 9.5c0 2.173-.73 4.175-1.957 5.776l-3.778-3.778A11.9 11.9 0 0 0 18.4 7.162l.065-1.171-1.164-.14-2.857-.342-1.058-.127-.293 1.025-1.006 3.52-.087.305zM4.457 6.224A9.46 9.46 0 0 0 2.5 12a9.5 9.5 0 0 0 9.5 9.5c2.173 0 4.175-.73 5.776-1.957zM12 0C5.373 0 0 5.373 0 12s5.373 12 12 12 12-5.373 12-12S18.627 0 12 0m1.986 12.218-.188-.187.227.135zm-5.954.41-1.625.465-1.025.293.127 1.058.342 2.857.14 1.164 1.17-.065a11.9 11.9 0 0 0 5.15-1.492zm1.955 2.624-.297-.497-1.572.45.067.562a9.4 9.4 0 0 0 1.802-.515" clip-rule="evenodd"/></svg>
