<svg xmlns="http://www.w3.org/2000/svg" fill="none" viewBox="0 0 24 24"><path fill="currentColor" fill-rule="evenodd" d="M21.25 0v2.386l-2.5 2.5V2.5H5.25v2.386l-2.5-2.5V0H20zm-2.5 21.5v-2.386l2.5 2.5V24H2.75v-2.386l2.5-2.5V21.5zM10 19.75h4v-2.5h-4zM21 9l2.116-2.116-1.768-1.768-3 3-.883.884.883.884L20.465 12l-2.117 2.116-.883.884.883.884 3 3 1.768-1.768L21 15l2.116-2.116L24 12l-.884-.884zM.884 6.884 3 9 .884 11.116 0 12l.884.884L3 15 .884 17.116l1.768 1.768 3-3L6.536 15l-.884-.884L3.536 12l2.116-2.116L6.536 9l-.884-.884-3-3z" clip-rule="evenodd"/></svg>
