<svg xmlns="http://www.w3.org/2000/svg" fill="none" viewBox="0 0 24 24"><path fill="currentColor" fill-rule="evenodd" d="M12.183 0H1.75v24h18.5V13.998h-2.5V21.5H4.25v-19h6.49zM13 19.75H9v-2.5h4zM16.828.02h-.637l-.27.577-.46.987-.117.067-1.085-.093-.634-.055-.318.551-1.11 1.923-.318.55.364.523.624.893v.134l-.624.893-.364.522.318.55 1.11 1.923.319.551.634-.055 1.085-.093.116.067.46.986.27.577h3.493l.27-.576.46-.986.12-.069 1.083.094.634.056.318-.552 1.11-1.922.318-.551-.364-.522-.623-.892v-.137l.623-.891.365-.522-.318-.551-1.11-1.923-.318-.55-.634.054-1.084.093-.12-.069-.46-.985-.27-.576zm-.138 7.17v-2.5h2.5v2.5z" clip-rule="evenodd"/></svg>
