<svg xmlns="http://www.w3.org/2000/svg" fill="none" viewBox="0 0 24 24"><path fill="currentColor" fill-rule="evenodd" d="M3 0H1.75v15h2.5V2.5h15.5V15h2.5V0zm.294 16.75h17.412l-.514 1.626-1.5 4.75-.276.874H5.584l-.276-.874-1.5-4.75zm14.153-4.144.553.276V15H6v-2.118l.553-.276.002-.002.003-.001.01-.005.025-.012.087-.04a8 8 0 0 1 .308-.13c.263-.106.639-.242 1.112-.378.946-.27 2.29-.538 3.9-.538s2.954.268 3.9.539c.473.135.85.271 1.112.376a8 8 0 0 1 .395.17l.026.013.009.005.003.001zM10.75 7a1.25 1.25 0 1 1 2.5 0 1.25 1.25 0 0 1-2.5 0M12 3.25a3.75 3.75 0 1 0 0 7.5 3.75 3.75 0 0 0 0-7.5" clip-rule="evenodd"/></svg>
