<svg xmlns="http://www.w3.org/2000/svg" fill="none" viewBox="0 0 24 24"><path fill="currentColor" fill-rule="evenodd" d="M14.932 12.53h-.721l-.361-.624-1.466-2.536-.362-.625.362-.626 3.909-6.762.625-1.081L18 .9a11.98 11.98 0 0 1 6 10.38v1.25zm-.022-3.785.743 1.285h5.765a9.48 9.48 0 0 0-3.627-6.27zM0 12.53h9.79l.36-.624 1.467-2.536.361-.625-.361-.626-3.91-6.762L7.083.276 6 .9a11.98 11.98 0 0 0-6 10.38zm2.583-2.5a9.48 9.48 0 0 1 3.626-6.27l2.882 4.985-.744 1.285zm3.418 11.631a12.01 12.01 0 0 0 11.999 0l1.084-.625-.626-1.083-3.91-6.762-.36-.625H9.814l-.362.625-3.909 6.762-.626 1.083zm2.374-1.612 2.88-4.983h1.49l2.88 4.983a9.5 9.5 0 0 1-7.25 0" clip-rule="evenodd"/></svg>
