<svg xmlns="http://www.w3.org/2000/svg" fill="none" viewBox="0 0 24 24"><path fill="currentColor" fill-rule="evenodd" d="M8.985 1h8.131l1.192 2.368.818-.354 1.748.972-2.848 5.126-6.205-1.128.358-1.968.694-.3L11.404 3h-1.39l-1.57 2.2 1.57.943-1.029 1.714L5.557 5.8zm14.639 12.951L20.86 9.117l-3.376 2.025 1.03 1.716 1.623-.975 1.238 2.166-.67 1.451h-3.374v-.945l-1.664-1.11-3.37 5.055 3.37 5.055 1.664-1.11V21.5h2.808zm-13.933.704L6.998 9.209.936 9.6l.128 1.996.819.473L.479 14.5l4.796 6.792 5.567.025-.066-3.937-2 .034.032 1.894-2.494-.011-.922-1.306 1.687-2.922.819.472z" clip-rule="evenodd"/></svg>
