<svg xmlns="http://www.w3.org/2000/svg" fill="none" viewBox="0 0 24 24"><path fill="currentColor" fill-rule="evenodd" d="M13.08 1.87 12 .019 10.92 1.87 7.841 7.149 2.132 8.905l-1.984.61 1.468 1.469 3.802 3.802-1.294 6.469-.477 2.384 2.217-1L12 19.871l1.056.477L14.404 19l-3.116-3.116 4.596-4.596 3.098 3.098 3.402-3.402 1.468-1.468-1.984-.61-5.71-1.757zm9.036 12.246L19 17.232l-3.116-3.116-1.768 1.768L17.232 19l-3.116 3.116 1.768 1.768L19 20.768l3.116 3.116 1.768-1.768L20.768 19l3.116-3.116z" clip-rule="evenodd"/></svg>
