<svg xmlns="http://www.w3.org/2000/svg" fill="none" viewBox="0 0 24 24"><path fill="currentColor" fill-rule="evenodd" d="M1.217 2.471C2.167 1.521 3.23.708 4.375.047l1.25 2.165a12.8 12.8 0 0 0-3.643 3.155L.018 3.821q.555-.707 1.199-1.35M12 2a11 11 0 0 0-8.612 17.844l-2.272 2.272 1.768 1.768 2.272-2.272a11 11 0 0 0 13.688 0l2.272 2.272 1.768-1.768-2.272-2.272A11 11 0 0 0 12 2M5.99 6.99a8.5 8.5 0 1 1 12.02 12.02A8.5 8.5 0 0 1 5.99 6.99m9.126 1.126L12 11.232 8.884 8.116 7.116 9.884 10.232 13l-3.116 3.116 1.768 1.768L12 14.768l3.116 3.116 1.768-1.768L13.768 13l3.116-3.116zm7.667-5.645A15.2 15.2 0 0 0 19.626.047l-1.25 2.165a12.8 12.8 0 0 1 3.643 3.155l1.964-1.546q-.555-.707-1.199-1.35" clip-rule="evenodd"/></svg>
