<svg xmlns="http://www.w3.org/2000/svg" fill="none" viewBox="0 0 24 24"><path fill="currentColor" fill-rule="evenodd" d="M10.75 2.582a9.5 9.5 0 0 0-6.281 3.627l1.66.958-1.25 2.166-1.662-.96A9.5 9.5 0 0 0 2.5 12c0 4.823 3.594 8.807 8.25 9.419V19.5h2.5v1.919a9.5 9.5 0 0 0 6.281-3.627l-1.66-.96 1.25-2.164 1.662.96A9.5 9.5 0 0 0 21.5 12c0-4.823-3.594-8.807-8.25-9.418V4.5h-2.5zM12 0C5.373 0 0 5.373 0 12s5.373 12 12 12 12-5.373 12-12S18.627 0 12 0M9.21 9.21l8.371-2.791-2.79 8.372-8.372 2.79z" clip-rule="evenodd"/></svg>
