<svg xmlns="http://www.w3.org/2000/svg" fill="none" viewBox="0 0 24 24"><path fill="currentColor" fill-rule="evenodd" d="M.25 1.25h23.5v19h-2.5V23h-3.5v-2.75H6.25V23h-3.5v-2.75H.25zm2.5 2.5v14h18.5v-14zm2 10v-6h2.5v6zm8.5-3a1.75 1.75 0 1 1 3.5 0 1.75 1.75 0 0 1-3.5 0m.5-5.5v1.437c-.62.19-1.18.519-1.643.95l-1.245-.72-1.25 2.166 1.244.718a4.3 4.3 0 0 0 0 1.898l-1.244.719 1.25 2.165 1.245-.72c.464.431 1.023.76 1.643.95v1.437h2.5v-1.437c.62-.19 1.18-.519 1.643-.95l1.245.72 1.25-2.166-1.244-.718a4.3 4.3 0 0 0 0-1.898l1.244-.718-1.25-2.166-1.245.72a4.25 4.25 0 0 0-1.643-.95V5.25z" clip-rule="evenodd"/></svg>
