<svg xmlns="http://www.w3.org/2000/svg" fill="none" viewBox="0 0 24 24"><path fill="currentColor" fill-rule="evenodd" d="M15.75.232v1.769l-.002 3.638.752.75.75-.75V.232l1.667.59a7.25 7.25 0 0 1 1.333 13.04v9.388h-7.5v-9.388A7.248 7.248 0 0 1 14.083.822zm4 3.96v2.483l-.366.366-2 2-.883.883-.884-.883-2.002-2-.367-.366v-.519l.001-1.962-.108.104a4.75 4.75 0 0 0 1.38 7.677l.73.334v8.44h2.5v-8.44l.728-.334a4.75 4.75 0 0 0 2.771-4.318 4.75 4.75 0 0 0-1.5-3.464M3.25 9.018 1.118 6.884l-.5-.5.171-.687 1-4L2.026.75h4.952l.237.947 1 4 .171.687-.5.5L5.75 9.018v3.958H8V23.25H1V12.976h2.25zm.136-3.4.592-2.367h1.048l.591 2.366-1.116 1.116z" clip-rule="evenodd"/></svg>
