<svg xmlns="http://www.w3.org/2000/svg" fill="none" viewBox="0 0 24 24"><path fill="currentColor" fill-rule="evenodd" d="M13.25 3h4.504l.207.725 1.722 6.025h3.567v4.768l-.366.366-3.001 3.001-1.768-1.767 2.635-2.636V12.25H3.248v1.232l2.635 2.636-1.768 1.767-3.001-3.001-.366-.366V9.75h3.568l1.721-6.025L6.246 3h4.504V0h2.5zM.75 19v.5A3.75 3.75 0 0 0 7 22.295c.663.594 1.54.955 2.5.955s1.837-.361 2.5-.955c.663.594 1.54.955 2.5.955s1.837-.361 2.5-.955a3.75 3.75 0 0 0 6.25-2.795V19h-2.5v.5a1.25 1.25 0 1 1-2.5 0V19h-2.5v.5a1.25 1.25 0 1 1-2.5 0V19h-2.5v.5a1.25 1.25 0 1 1-2.5 0V19h-2.5v.5a1.25 1.25 0 1 1-2.5 0V19z" clip-rule="evenodd"/></svg>
