<svg xmlns="http://www.w3.org/2000/svg" fill="none" viewBox="0 0 24 24"><path fill="currentColor" fill-rule="evenodd" d="m18.384.186 3 3 .884.884-.884.884-3 3-5.134 5.134v6l-.366.366-3.5 3.5-.884.884-.884-.884-6-6-.884-.884.884-.884 3.5-3.5.366-.366h6l4.25-4.25-2.116-2.116 1.768-1.768L17.5 5.302l1.232-1.232-2.116-2.116zM1.923 5.109C2.988 3.943 4.43 3.249 6 3.249s3.012.694 4.078 1.86l1.845-1.687C10.429 1.788 8.336.75 6 .75S1.571 1.788.078 3.422zm2.5 2.734c.426-.466.984-.726 1.577-.726s1.152.26 1.578.726l1.845-1.687C8.569 5.222 7.36 4.617 6 4.617s-2.569.605-3.422 1.54zm-.155 8.227 2.25-2.25h4.232v4.232l-2.25 2.25z" clip-rule="evenodd"/></svg>
