<svg xmlns="http://www.w3.org/2000/svg" fill="none" viewBox="0 0 24 24"><path fill="currentColor" fill-rule="evenodd" d="M2.5 12a9.5 9.5 0 1 1 19 0 9.5 9.5 0 0 1-19 0M12 0C5.373 0 0 5.373 0 12s5.373 12 12 12 12-5.373 12-12S18.627 0 12 0m-.616 6.884L10.018 8.25l1.366 1.366-1.768 1.768-1.366-1.366-1.366 1.366-1.768-1.768L6.482 8.25 5.116 6.884l1.768-1.768L8.25 6.482l1.366-1.366zM8 16a4 4 0 1 1 8 0 4 4 0 0 1-8 0m9.116-10.884L15.75 6.482l-1.366-1.366-1.768 1.768 1.366 1.366-1.366 1.366 1.768 1.768 1.366-1.366 1.366 1.366 1.768-1.768-1.366-1.366 1.366-1.366z" clip-rule="evenodd"/></svg>
