<svg xmlns="http://www.w3.org/2000/svg" fill="none" viewBox="0 0 24 24"><path fill="currentColor" fill-rule="evenodd" d="m8.116 1.884 2.634 2.634v4.318l-.073.073L8.25 6.482V4h-2.5v1.75H4v2.5h2.482l2.427 2.427-.073.073H4.518L1.884 8.116.116 9.884 2.232 12 .116 14.116l1.768 1.768 2.634-2.634h4.318l.073.073-2.427 2.427H4v2.5h1.75V20h2.5v-2.482l2.427-2.427.073.073v4.318l-2.634 2.634 1.768 1.768L12 21.768l2.116 2.116 1.768-1.768-2.634-2.634v-4.318l.073-.073 2.427 2.427V20h2.5v-1.75H20v-2.5h-2.482l-2.427-2.427.073-.073h4.318l2.634 2.634 1.768-1.768L21.768 12l2.116-2.116-1.768-1.768-2.634 2.634h-4.318l-.073-.073 2.427-2.427H20v-2.5h-1.75V4h-2.5v2.482L13.323 8.91l-.073-.073V4.518l2.634-2.634L14.116.116 12 2.232 9.884.116z" clip-rule="evenodd"/></svg>
