<svg xmlns="http://www.w3.org/2000/svg" fill="none" viewBox="0 0 24 24"><path fill="currentColor" fill-rule="evenodd" d="m12 20.768-.884-.884-7-7L3.232 12 1.116 9.884.232 9l.884-.884 3-3 .366-.366h6l3.634-3.634.366-.366h8.768v8.768l-.366.366-3.634 3.634v6l-.366.366-3 3-.884.884-.884-.884zm0-3.536L6.768 12l5.116-5.116 2.134-2.134 1.5-1.5h5.232v5.232zM1.116 21.116l4.5-4.5 1.768 1.768-4.5 4.5zm7.5-1.5-2 2 1.768 1.768 2-2zm-8-4 2-2 1.768 1.768-2 2zM15.632 6.6 13.6 8.632l1.768 1.768L17.4 8.368z" clip-rule="evenodd"/></svg>
