<svg xmlns="http://www.w3.org/2000/svg" fill="none" viewBox="0 0 24 24"><path fill="currentColor" fill-rule="evenodd" d="M12.884 1.03 12 .146l-.884.884-2.72 2.72H3.75v4.646l-2.72 2.72L.146 12l.884.884 2.72 2.72v4.646h4.646l2.72 2.72.884.884.884-.884 2.72-2.72h4.646v-4.646l2.72-2.72.884-.884-.884-.884-2.72-2.72V3.75h-4.646zM9.798 5.884 12 3.682l2.202 2.202.366.366h3.182v3.182l.366.366L20.318 12l-2.202 2.202-.366.366v3.182h-3.182l-.366.366L12 20.318l-2.202-2.202-.366-.366H6.25v-3.182l-.366-.366L3.682 12l2.202-2.202.366-.366V6.25h3.182zM12 16a4 4 0 1 0 0-8 4 4 0 0 0 0 8" clip-rule="evenodd"/></svg>
