<svg xmlns="http://www.w3.org/2000/svg" fill="none" viewBox="0 0 24 24"><path fill="currentColor" fill-rule="evenodd" d="m17.884.116-1.768 1.768L18.232 4 16.25 5.982l-2.866-2.866-.884-.884L10.884.616 9.116 2.384 10.732 4l-8.116 8.116-.366.366v7.5L.116 22.116l1.768 1.768 2.134-2.134h7.5l.366-.366L20 13.268l1.616 1.616 1.768-1.768-1.616-1.616-.884-.884-2.866-2.866L20 5.768l2.116 2.116 1.768-1.768zm.348 11.384-7.75 7.75H4.75v-5.732l.75-.75 2.616 2.616 1.768-1.768L7.268 11 9 9.268l2.616 2.616 1.768-1.768L10.768 7.5 12.5 5.768z" clip-rule="evenodd"/></svg>
