<svg xmlns="http://www.w3.org/2000/svg" fill="none" viewBox="0 0 24 24"><path fill="currentColor" fill-rule="evenodd" d="M.751 22v-9h2.5v7.75h7.75v2.5H.751zm20-18.75h-7.75V.75h10.25V11h-2.5zm-7.16 9.634-.706-.707zl.884-.884-.884-.884-.707-.707L12 9.525l-.884.884-.707.707-.884.884.884.884.707.707.884.884.884-.884.398-.398.215-.215.001-.001.002-.002.001-.001.001-.002h.002v-.002l.002-.001.001-.002h.002l.001-.002.001-.002h.002v-.002l.002-.001.001-.001.001-.002h.002v-.002l.002-.001.001-.001.001-.002h.002v-.002l.002-.001.001-.001.001-.001.001-.002h.001l.002-.002.002-.002v-.001l.002-.001v-.001l.002-.001.001-.001.001-.001.001-.001.001-.001.001-.001.001-.001.001-.001.001-.001.001-.001.001-.001v-.001l.002-.001v-.001h.002v-.002h.002v-.002h.001l.001-.001.001-.001v-.001l.002-.001.001-.002h.001l.001-.001v-.001h.002v-.002h.001v-.001h.002v-.001l.001-.001v-.001h.001l.001-.001v-.001h.002v-.002h.001l.001-.001.001-.001v-.001h.001l.001-.001.001-.001.001-.001.001-.001.001-.001.001-.001v-.001h.001l.001-.001v-.001h.001v-.001h.001l.001-.001v-.001h.001z" clip-rule="evenodd"/></svg>
