<svg xmlns="http://www.w3.org/2000/svg" fill="none" viewBox="0 0 24 24"><path fill="currentColor" fill-rule="evenodd" d="M1.25 1.75H0v8.305l.833.294a1.751 1.751 0 0 1 0 3.302L0 13.945v8.305h24v-8.305l-.833-.294a1.751 1.751 0 0 1 0-3.302l.833-.294V1.75zM2.5 8.394V4.25h19v4.144c-1.2.75-2 2.084-2 3.606s.8 2.856 2 3.606v4.144h-19v-4.144c1.2-.75 2-2.084 2-3.606s-.8-2.855-2-3.606M12 6.015l.864 1.481 1.246 2.136 2.091.523 1.602.4-1.097 1.234-1.359 1.529.352 2.457.26 1.82-1.67-.77L12 15.768l-2.289 1.057-1.669.77.26-1.82.351-2.457-1.358-1.529-1.097-1.234 1.601-.4 2.092-.523 1.246-2.136z" clip-rule="evenodd"/></svg>
