<svg xmlns="http://www.w3.org/2000/svg" fill="none" viewBox="0 0 24 24"><path fill="currentColor" fill-rule="evenodd" d="M10.75 4V0h2.5v4zM0 13.25h4v-2.5H0zm20 0h4v-2.5h-4zM10.75 20v4h2.5v-4zm4.168-15.553 2-3.464 2.165 1.25-2 3.464zm-8 13.856-2 3.464 2.165 1.25 2-3.464zM18.302 6.917l3.464-2 1.25 2.166-3.464 2zm-13.856 8-3.464 2 1.25 2.165 3.464-2zm15.106 0 3.464 2-1.25 2.165-3.464-2zm-13.856-8-3.464-2-1.25 2.166 3.464 2zm11.386 11.386 2 3.464-2.165 1.25-2-3.464zm-8-13.856-2-3.464-2.166 1.25 2 3.464z" clip-rule="evenodd"/></svg>
