<svg xmlns="http://www.w3.org/2000/svg" fill="none" viewBox="0 0 24 24"><path fill="currentColor" fill-rule="evenodd" d="M10.75 3.5V1h2.5v2.5zM2.63 5.399 4.4 7.166 6.166 5.4 4.4 3.63zM12 7.25a5.75 5.75 0 0 0-5.05 8.501l2.797-2.796 2.475 2.474L9.48 18.17A5.75 5.75 0 1 0 12 7.25M3.75 13a8.25 8.25 0 1 1 16.5 0 8.25 8.25 0 0 1-16.5 0M2.5 14.25H0v-2.5h2.5zm21.5 0h-2.5v-2.5H24zm-6.166 6.352 1.768 1.767 1.767-1.767-1.767-1.768zM19.602 3.63l-1.768 1.768 1.768 1.767L21.369 5.4zM2.63 20.6l1.768-1.767 1.768 1.768-1.768 1.767z" clip-rule="evenodd"/></svg>
