<svg xmlns="http://www.w3.org/2000/svg" fill="none" viewBox="0 0 24 24"><path fill="currentColor" fill-rule="evenodd" d="M6.25.75h11.5V6.5a5.75 5.75 0 0 1-11.5 0zm2.5 2.5V6.5a3.25 3.25 0 0 0 6.5 0V3.25zM1.5 18l-.65-.76.003-.002.005-.005.013-.011a4 4 0 0 1 .193-.15 9 9 0 0 1 .551-.382c.48-.309 1.186-.71 2.116-1.11C5.595 14.783 8.353 14 12 14s6.406.782 8.269 1.58c.93.4 1.636.801 2.116 1.11a9 9 0 0 1 .7.497l.044.035.013.012.005.004.002.001.001.001-.65.76.65-.76.35.3v5.96H.5v-5.96l.35-.3z" clip-rule="evenodd"/></svg>
