<svg xmlns="http://www.w3.org/2000/svg" fill="none" viewBox="0 0 24 24"><path fill="currentColor" fill-rule="evenodd" d="M4 0h14.268l.366.366 5 5 .366.366V24H12.393a11.7 11.7 0 0 0 2.242-2.5H21.5V6.768L17.232 2.5H6.5v8.515c-.896.054-1.73.25-2.5.556zm3 13c-2.408 0-4.137 1.36-5.21 2.594a10.8 10.8 0 0 0-1.509 2.274 7 7 0 0 0-.101.217l-.007.015-.002.006v.002H.17l.92.392-.92-.39-.166.39.165.39.921-.39-.92.391v.001l.001.002.002.005.007.016a5 5 0 0 0 .101.217 10.8 10.8 0 0 0 1.509 2.274C2.863 22.64 4.592 24 7 24s4.137-1.36 5.21-2.594a10.8 10.8 0 0 0 1.509-2.274 7 7 0 0 0 .101-.217l.007-.016.002-.005v-.002h.001l-.92-.392.92.39.166-.39-.165-.39-.921.39.92-.391v-.001l-.001-.002-.002-.006-.007-.015a4 4 0 0 0-.101-.217 10.8 10.8 0 0 0-1.509-2.274C11.137 14.36 9.408 13 7 13m1.25 6.75h-2.5v-2.5h2.5z" clip-rule="evenodd"/></svg>
