<svg xmlns="http://www.w3.org/2000/svg" fill="none" viewBox="0 0 24 24"><path fill="currentColor" fill-rule="evenodd" d="M6 0h12v5.631A8.73 8.73 0 0 1 20.75 12 8.73 8.73 0 0 1 18 18.369V24H6v-5.63A8.73 8.73 0 0 1 3.25 12 8.73 8.73 0 0 1 6 5.631zm6 5.75A6.253 6.253 0 0 1 18.25 12 6.25 6.25 0 1 1 12 5.75m-.61 1.478h-1l.002 1.002.003 1.784-1.18-.833-1.153 1.634 1.705 1.203-1.705 1.203 1.153 1.634 1.187-.837.003 1.794.002.998h2.533l.29-.282 1.829-1.771.866-.84-.985-.695-1.705-1.204 1.705-1.203.986-.696-.867-.84-1.829-1.77-.29-.281zm1.41 6.932-.4-.282.002.667zm-.407-4.676.001.68.405-.287z" clip-rule="evenodd"/></svg>
