<svg xmlns="http://www.w3.org/2000/svg" fill="none" viewBox="0 0 24 24"><path fill="currentColor" fill-rule="evenodd" d="M6 0h12v5.631A8.73 8.73 0 0 1 20.75 12c0 1.965-.649 3.78-1.742 5.24l4.876 4.876-1.768 1.768-22-22L1.884.116 6 4.232zm12.25 12c0 1.274-.38 2.459-1.035 3.447L8.553 6.786A6.2 6.2 0 0 1 11.98 5.75H12q.534 0 1.043.087A6.25 6.25 0 0 1 18.25 12m-15 0c0-1.223.251-2.389.706-3.448l1.97 1.97a6.25 6.25 0 0 0 7.22 7.624 6 6 0 0 0 .332-.071L18 22.596V24H6v-5.63A8.73 8.73 0 0 1 3.25 12" clip-rule="evenodd"/></svg>
