<svg xmlns="http://www.w3.org/2000/svg" fill="none" viewBox="0 0 24 24"><path fill="currentColor" fill-rule="evenodd" d="M21.917 2.083A7.1 7.1 0 0 0 16.887 0v2.5A4.614 4.614 0 0 1 21.5 7.113H24a7.1 7.1 0 0 0-2.083-5.03M12.024.291l.625 1.085 2.882 5.002q.264-.247.59-.437l1.715-.992 1.084-.627.625 1.085 2.476 4.297c2.53 4.393 1.03 10.012-3.357 12.55l-.857.496-1.252-2.164.857-.496a6.7 6.7 0 0 0 2.443-9.138l-1.85-3.212-.632.365a.737.737 0 0 0-.268 1.004v.001l1.485 2.578.623 1.081-1.08.625-.858.496a1.73 1.73 0 0 0-.63 2.361l.495.86-2.166 1.247-.495-.859a4.23 4.23 0 0 1 1.326-5.637l-.866-1.504-3.83-6.649-.632.365a.737.737 0 0 0-.268 1.005l3.466 6.016-2.166 1.248-3.466-6.016-1.355-2.352-.631.365a.737.737 0 0 0-.268 1.005l4.456 7.734-2.166 1.248-3.831-6.649-.631.365a.737.737 0 0 0-.268 1.005l7.102 12.328-2.166 1.248-7.102-12.328A3.237 3.237 0 0 1 2.365 5.88l.85-.492a3.24 3.24 0 0 1 1.59-3.21l1.715-.993L7.604.557l.625 1.085.406.705q.264-.247.59-.437L10.94.918zm-9.94 21.626A7.1 7.1 0 0 1 0 16.887h2.5A4.614 4.614 0 0 0 7.114 21.5V24a7.1 7.1 0 0 1-5.03-2.083" clip-rule="evenodd"/></svg>
