<svg xmlns="http://www.w3.org/2000/svg" fill="none" viewBox="0 0 14 14"><g stroke-linecap="round" stroke-linejoin="round"><path stroke="var(--sl-c-000cfe,#000cfe)" d="m2.125 8.986-1.625 0m13 0-1.625 0m-9.75-3.972-1.625 0m13 0-1.625 0M5.014 2.125l0-1.625m0 13 0-1.625m3.972-9.75 0-1.625m0 13 0-1.625"></path><path stroke="var(--sl-c-c71dff,#c71dff)" d="M10.792 2.125H3.208c-.598 0-1.083.485-1.083 1.083v7.584c0 .598.485 1.083 1.083 1.083h7.584c.598 0 1.083-.485 1.083-1.083V3.208c0-.598-.485-1.083-1.083-1.083"></path><path stroke="var(--sl-c-000cfe,#000cfe)" d="M4.707 7.25c-.276-.048-.276-.452 0-.5a2.52 2.52 0 0 0 2.016-1.963l.016-.078c.06-.278.45-.28.511-.002l.02.09a2.53 2.53 0 0 0 2.022 1.951c.277.05.277.455 0 .504a2.53 2.53 0 0 0-2.021 1.95l-.02.091c-.063.277-.452.276-.512-.002l-.016-.078a2.52 2.52 0 0 0-2.016-1.962"></path></g></svg>
