<svg xmlns="http://www.w3.org/2000/svg" fill="none" viewBox="0 0 14 14"><g stroke-linecap="round" stroke-linejoin="round"><path stroke="var(--sl-c-c71dff,#c71dff)" d="M2.356 9.312a3 3 0 0 1-.764-.49 3.19 3.19 0 0 1 1.891-5.588.23.23 0 0 0 .21-.128A3.87 3.87 0 0 1 5.302 1.09a3.88 3.88 0 0 1 4.837.585 3.87 3.87 0 0 1 1.079 2.343.25.25 0 0 0 .173.2c.652.153 1.225.54 1.61 1.086a2.726 2.726 0 0 1-1.292 4.134"></path><path stroke="var(--sl-c-000cfe,#000cfe)" d="M4.134 10.688c-.345-.06-.345-.565 0-.626a3.15 3.15 0 0 0 2.52-2.454l.02-.096c.075-.348.561-.35.64-.003l.024.113a3.17 3.17 0 0 0 2.527 2.438c.347.061.347.568 0 .63a3.17 3.17 0 0 0-2.527 2.439l-.025.112a.326.326 0 0 1-.639-.003l-.02-.096a3.15 3.15 0 0 0-2.52-2.454"></path></g></svg>
