<svg xmlns="http://www.w3.org/2000/svg" fill="none" viewBox="0 0 14 14"><g stroke-linecap="round" stroke-linejoin="round"><path stroke="var(--sl-c-c71dff,#c71dff)" d="m7.004 13.24-3 .26.26-3 6.24-6.2a1 1 0 0 1 1.43 0l1.27 1.28a1 1 0 0 1 0 1.42z"></path><path stroke="var(--sl-c-000cfe,#000cfe)" d="M.76 3.938c-.346-.06-.346-.565 0-.626A3.15 3.15 0 0 0 3.277.858L3.3.762c.075-.348.561-.35.64-.003l.024.113A3.17 3.17 0 0 0 6.49 3.31c.347.061.347.568 0 .63a3.17 3.17 0 0 0-2.527 2.438l-.025.113a.326.326 0 0 1-.639-.003l-.02-.096a3.15 3.15 0 0 0-2.52-2.454"></path></g></svg>
