<svg xmlns="http://www.w3.org/2000/svg" fill="none" viewBox="0 0 14 14"><g stroke-linecap="round" stroke-linejoin="round"><path stroke="var(--sl-c-c71dff,#c71dff)" d="m3.694 7.512 4.06-1.128M2.097 13.5a1.597 1.597 0 1 0 0-3.193 1.597 1.597 0 0 0 0 3.193m7.185-1.597a1.597 1.597 0 1 0 0-3.193 1.597 1.597 0 0 0 0 3.193"></path><path stroke="var(--sl-c-c71dff,#c71dff)" d="M3.694 11.903V5.42a.4.4 0 0 1 .295-.383l1.26-.361m5.63 5.631 0-1.408"></path><path stroke="var(--sl-c-000cfe,#000cfe)" d="M7.51 3.938c-.346-.06-.346-.565 0-.626A3.15 3.15 0 0 0 10.027.858l.021-.096a.326.326 0 0 1 .64-.003l.024.113A3.17 3.17 0 0 0 13.24 3.31c.348.061.348.568 0 .63a3.17 3.17 0 0 0-2.526 2.438l-.025.113a.326.326 0 0 1-.639-.003l-.02-.096a3.15 3.15 0 0 0-2.52-2.454"></path></g></svg>
