<svg xmlns="http://www.w3.org/2000/svg" fill="none" viewBox="0 0 14 14"><g stroke-linecap="round" stroke-linejoin="round"><path stroke="var(--sl-c-000cfe,#000cfe)" d="M4.07 7.063v2.31m1.156-1.155-2.311 0"></path><path stroke="var(--sl-c-c71dff,#c71dff)" d="m5.325 4.587-1.417 0A3 3 0 0 0 .926 7.255l-.412 3.71a2.283 2.283 0 0 0 4.311 1.273l.36-.719h2.97l.36.719a2.283 2.283 0 0 0 4.31-1.273l-.411-3.71"></path><path stroke="var(--sl-c-000cfe,#000cfe)" d="M7.51 3.938c-.346-.06-.346-.565 0-.626A3.15 3.15 0 0 0 10.027.858l.021-.096a.326.326 0 0 1 .64-.003l.024.113A3.17 3.17 0 0 0 13.24 3.31c.348.061.348.568 0 .63a3.17 3.17 0 0 0-2.526 2.438l-.025.113a.326.326 0 0 1-.639-.003l-.02-.096a3.15 3.15 0 0 0-2.52-2.454"></path></g></svg>
