<svg xmlns="http://www.w3.org/2000/svg" fill="none" viewBox="0 0 14 14"><g stroke-linecap="round" stroke-linejoin="round"><path stroke="var(--sl-c-c71dff,#c71dff)" d="M5.524 1H1.476A.476.476 0 0 0 1 1.476v4.048c0 .263.213.476.476.476h4.048A.476.476 0 0 0 6 5.524V1.476A.476.476 0 0 0 5.524 1m0 7H1.476A.476.476 0 0 0 1 8.476v4.048c0 .263.213.476.476.476h4.048A.476.476 0 0 0 6 12.524V8.476A.476.476 0 0 0 5.524 8m7 0H8.476A.476.476 0 0 0 8 8.476v4.048c0 .263.213.476.476.476h4.048a.476.476 0 0 0 .476-.476V8.476A.476.476 0 0 0 12.524 8"></path><path stroke="var(--sl-c-000cfe,#000cfe)" d="M8.093 3.763c-.29-.051-.29-.475 0-.526a2.65 2.65 0 0 0 2.116-2.061l.017-.081c.063-.292.472-.294.537-.003l.021.095a2.66 2.66 0 0 0 2.122 2.048c.292.052.292.478 0 .53a2.66 2.66 0 0 0-2.122 2.048l-.021.095c-.065.29-.474.289-.537-.003l-.017-.081a2.65 2.65 0 0 0-2.116-2.06"></path></g></svg>
