<svg xmlns="http://www.w3.org/2000/svg" fill="none" viewBox="0 0 14 14"><g stroke-linecap="round" stroke-linejoin="round"><path stroke="var(--sl-c-000cfe,#000cfe)" d="M2.694 8.157A3.5 3.5 0 0 1 5.5 6.75c.818 0 1.57.28 2.165.75M5.5 5.25a1.5 1.5 0 1 0 0-3 1.5 1.5 0 0 0 0 3m2.01 5.438c-.346-.06-.346-.565 0-.626a3.15 3.15 0 0 0 2.519-2.454l.02-.096a.326.326 0 0 1 .64-.003l.024.113a3.17 3.17 0 0 0 2.526 2.438c.348.061.348.568 0 .63a3.17 3.17 0 0 0-2.526 2.439l-.025.112a.326.326 0 0 1-.639-.003l-.02-.096a3.15 3.15 0 0 0-2.52-2.454"></path><path stroke="var(--sl-c-c71dff,#c71dff)" d="M5 10.5H1.5a1 1 0 0 1-1-1v-8a1 1 0 0 1 1-1h8a1 1 0 0 1 1 1v3"></path></g></svg>
