<svg xmlns="http://www.w3.org/2000/svg" fill="none" viewBox="0 0 14 14"><g stroke-linecap="round" stroke-linejoin="round"><path stroke="var(--sl-c-000cfe,#000cfe)" d="M.5 7.5h6.923m-.923-6a10.36 10.36 0 0 0-2.308 6 10.36 10.36 0 0 0 2.308 6 10.36 10.36 0 0 0 2.142-4.615"></path><path stroke="var(--sl-c-c71dff,#c71dff)" d="M12.5 7.5a6 6 0 1 1-6-6"></path><path stroke="var(--sl-c-000cfe,#000cfe)" d="M7.51 3.938c-.346-.06-.346-.565 0-.626A3.15 3.15 0 0 0 10.027.858l.021-.096a.326.326 0 0 1 .64-.003l.024.113A3.17 3.17 0 0 0 13.24 3.31c.348.061.348.568 0 .63a3.17 3.17 0 0 0-2.526 2.438l-.025.113a.326.326 0 0 1-.639-.003l-.02-.096a3.15 3.15 0 0 0-2.52-2.454"></path></g></svg>
