<svg xmlns="http://www.w3.org/2000/svg" fill="none" viewBox="0 0 14 14"><g stroke-linecap="round" stroke-linejoin="round"><path stroke="var(--sl-c-c71dff,#c71dff)" d="M12.479 3.5A6.5 6.5 0 0 0 .5 7m1.022 3.5A6.5 6.5 0 0 0 13.5 7"></path><path stroke="var(--sl-c-c71dff,#c71dff)" d="M12.5 1v2.5H10M1.5 13v-2.5H4"></path><path stroke="var(--sl-c-000cfe,#000cfe)" d="M4.134 7.313c-.345-.06-.345-.565 0-.626a3.15 3.15 0 0 0 2.52-2.454l.02-.096c.075-.348.561-.35.64-.003l.024.113a3.17 3.17 0 0 0 2.527 2.438c.347.062.347.569 0 .63a3.17 3.17 0 0 0-2.527 2.438l-.025.113a.326.326 0 0 1-.639-.003l-.02-.096a3.15 3.15 0 0 0-2.52-2.454"></path></g></svg>
