<svg xmlns="http://www.w3.org/2000/svg" fill="none" viewBox="0 0 14 14"><g stroke-linecap="round" stroke-linejoin="round"><path stroke="var(--sl-c-c71dff,#c71dff)" d="M5.594 2.609h-.438a.84.84 0 0 0-.779.536l-.36.93-1.24.703-.989-.15a.84.84 0 0 0-.837.41l-.335.587a.84.84 0 0 0 .067.946l.628.78v1.407l-.612.78a.84.84 0 0 0-.067.946l.335.586a.84.84 0 0 0 .838.41l.989-.15 1.223.704.36.93a.84.84 0 0 0 .78.536h.703a.84.84 0 0 0 .78-.536l.36-.93 1.223-.704.988.15a.84.84 0 0 0 .838-.41l.335-.586a.84.84 0 0 0-.067-.947l-.628-.779v-.407"></path><path stroke="var(--sl-c-000cfe,#000cfe)" d="M3.824 8.054a1.676 1.676 0 1 0 3.352 0 1.676 1.676 0 0 0-3.352 0M7.51 3.938c-.346-.06-.346-.565 0-.626A3.15 3.15 0 0 0 10.027.858l.021-.096a.326.326 0 0 1 .64-.003l.024.113A3.17 3.17 0 0 0 13.24 3.31c.348.061.348.568 0 .63a3.17 3.17 0 0 0-2.526 2.438l-.025.113a.326.326 0 0 1-.639-.003l-.02-.096a3.15 3.15 0 0 0-2.52-2.454"></path></g></svg>
