<svg xmlns="http://www.w3.org/2000/svg" fill="none" viewBox="0 0 14 14"><g stroke-linecap="round" stroke-linejoin="round"><path stroke="var(--sl-c-c71dff,#c71dff)" d="M5.283 4.955q-.61.513-1.214 1.114C1.226 8.913-.215 12.082.852 13.15c1.066 1.066 4.235-.375 7.079-3.218q.51-.511.957-1.03"></path><path stroke="var(--sl-c-c71dff,#c71dff)" d="M5.134 3.777C3.247 2.554 1.571 2.132.852 2.852c-1.067 1.066.374 4.235 3.217 7.079s6.013 4.284 7.08 3.217c.748-.748.26-2.534-1.08-4.516"></path><path stroke="var(--sl-c-000cfe,#000cfe)" d="M5.5 8a.5.5 0 1 0 1 0 .5.5 0 0 0-1 0m2.01-4.062c-.346-.06-.346-.565 0-.626A3.15 3.15 0 0 0 10.027.858l.021-.096a.326.326 0 0 1 .64-.003l.024.113A3.17 3.17 0 0 0 13.24 3.31c.348.061.348.568 0 .63a3.17 3.17 0 0 0-2.526 2.438l-.025.113a.326.326 0 0 1-.639-.003l-.02-.096a3.15 3.15 0 0 0-2.52-2.454"></path></g></svg>
