<svg xmlns="http://www.w3.org/2000/svg" fill="none" viewBox="0 0 14 14"><g stroke-linecap="round" stroke-linejoin="round"><path stroke="var(--sl-c-000cfe,#000cfe)" d="M3 13.5h4m.51-9.562c-.346-.06-.346-.565 0-.626A3.15 3.15 0 0 0 10.027.858l.021-.096a.326.326 0 0 1 .64-.003l.024.113A3.17 3.17 0 0 0 13.24 3.31c.348.061.348.568 0 .63a3.17 3.17 0 0 0-2.526 2.438l-.025.113a.326.326 0 0 1-.639-.003l-.02-.096a3.15 3.15 0 0 0-2.52-2.454"></path><path stroke="var(--sl-c-c71dff,#c71dff)" d="M7.209 1.08a4.5 4.5 0 1 0-4.21 7.951v1.5a.5.5 0 0 0 .5.5h3a.5.5 0 0 0 .5-.5v-1.5A4.5 4.5 0 0 0 8.5 7.833"></path></g></svg>
