<svg xmlns="http://www.w3.org/2000/svg" fill="none" viewBox="0 0 14 14"><g stroke-linecap="round" stroke-linejoin="round"><path stroke="var(--sl-c-000cfe,#000cfe)" d="m10.74 10.74 2.76 2.76"></path><path stroke="var(--sl-c-c71dff,#c71dff)" d="M6.5 12.5a6 6 0 1 0 0-12 6 6 0 0 0 0 12"></path><path stroke="var(--sl-c-000cfe,#000cfe)" d="M3.52 6.826c-.36-.064-.36-.588 0-.652a3.28 3.28 0 0 0 2.62-2.551l.021-.1c.078-.362.584-.364.665-.004l.026.117a3.29 3.29 0 0 0 2.627 2.536c.361.064.361.592 0 .656a3.29 3.29 0 0 0-2.627 2.536l-.026.117c-.081.36-.587.358-.665-.003l-.021-.1a3.28 3.28 0 0 0-2.62-2.552"></path></g></svg>
