<svg xmlns="http://www.w3.org/2000/svg" fill="none" viewBox="0 0 14 14"><g stroke-linecap="round" stroke-linejoin="round"><path stroke="var(--sl-c-000cfe,#000cfe)" d="m2.246 7.686-.413 1.928q.314-.113.667-.114h5q.353.002.667.114l-.413-1.928A1.5 1.5 0 0 0 6.287 6.5H3.713a1.5 1.5 0 0 0-1.467 1.186M8 12.5v1m-6-1v1"></path><path stroke="var(--sl-c-c71dff,#c71dff)" d="M1.5 12.5h7a1 1 0 0 0 1-1 2 2 0 0 0-2-2h-5a2 2 0 0 0-2 2 1 1 0 0 0 1 1"></path><path stroke="var(--sl-c-000cfe,#000cfe)" d="M7.51 3.938c-.346-.06-.346-.565 0-.626A3.15 3.15 0 0 0 10.027.858l.021-.096a.326.326 0 0 1 .64-.003l.024.113A3.17 3.17 0 0 0 13.24 3.31c.348.061.348.568 0 .63a3.17 3.17 0 0 0-2.526 2.438l-.025.113a.326.326 0 0 1-.639-.003l-.02-.096a3.15 3.15 0 0 0-2.52-2.454"></path></g></svg>
