<svg xmlns="http://www.w3.org/2000/svg" fill="none" viewBox="0 0 14 14"><path stroke="var(--sl-c-c71dff,#c71dff)" stroke-linecap="round" stroke-linejoin="round" d="M10.808.942 8.25 3.5 4.131 1.539a2 2 0 0 0-2.11.244l-.947.757a.5.5 0 0 0 .065.825L5.75 6l-2 2-1.438-.221A1.573 1.573 0 0 0 .5 9.334c0 .384.278.712.657.776l2.343.39.39 2.343a.79.79 0 0 0 .776.657c.964 0 1.702-.86 1.555-1.812L6 10.25l2-2 2.635 4.611a.5.5 0 0 0 .825.064l.757-.947a2 2 0 0 0 .244-2.109L10.5 5.75l2.558-2.558a1.51 1.51 0 0 0 0-2.134l-.116-.116a1.51 1.51 0 0 0-2.134 0"></path></svg>
