<svg xmlns="http://www.w3.org/2000/svg" fill="none" viewBox="0 0 14 14"><g stroke-linecap="round" stroke-linejoin="round"><path stroke="var(--sl-c-c71dff,#c71dff)" d="M12 1H2a1 1 0 0 0-1 1v2.675A8.775 8.775 0 0 0 7 13a8.775 8.775 0 0 0 6-8.325V2a1 1 0 0 0-1-1"></path><path stroke="var(--sl-c-000cfe,#000cfe)" d="m3.417 4.772.751-.256a.255.255 0 0 1 .331.135l.548.85 3.006-1.503a1.87 1.87 0 0 1 2.674.946.51.51 0 0 1-.338.64L8.627 6.1l-.195.06-.676 1.98a.27.27 0 0 1-.18.187l-1.086.4a.278.278 0 0 1-.36-.316l.488-1.604-.128.037-1.916.624a.503.503 0 0 1-.638-.308l-.677-2.08a.255.255 0 0 1 .158-.308"></path></g></svg>
