<svg xmlns="http://www.w3.org/2000/svg" fill="none" viewBox="0 0 14 14"><g stroke-linecap="round" stroke-linejoin="round"><path stroke="var(--sl-c-c71dff,#c71dff)" d="M12.479 3.5A6.5 6.5 0 0 0 .5 7m1.022 3.5A6.5 6.5 0 0 0 13.5 7"></path><path stroke="var(--sl-c-c71dff,#c71dff)" d="M12.5 1v2.5H10M1.5 13v-2.5H4"></path><path stroke="var(--sl-c-000cfe,#000cfe)" d="m3.417 6.026.751-.256a.255.255 0 0 1 .331.136l.548.849 3.006-1.503a1.87 1.87 0 0 1 2.674.947.51.51 0 0 1-.338.638l-1.762.518-.195.06-.676 1.98a.27.27 0 0 1-.18.188l-1.086.399a.278.278 0 0 1-.36-.316l.488-1.604-.128.037-1.916.624a.503.503 0 0 1-.638-.308l-.677-2.081a.255.255 0 0 1 .158-.308"></path></g></svg>
