<svg xmlns="http://www.w3.org/2000/svg" fill="none" viewBox="0 0 14 14"><g stroke-linecap="round" stroke-linejoin="round"><path stroke="var(--sl-c-c71dff,#c71dff)" d="M13 6c0 3.59-2.5 7-6 7S1 9.59 1 6s2.41-5 6-5 6 1.41 6 5"></path><path stroke="var(--sl-c-000cfe,#000cfe)" d="M3.068 5.068a3.05 3.05 0 0 0 .48 2.385 3.05 3.05 0 0 0 2.384.479 3.05 3.05 0 0 0-.48-2.385 3.05 3.05 0 0 0-2.384-.479m7.864 0a3.05 3.05 0 0 1-.479 2.385 3.05 3.05 0 0 1-2.385.479 3.05 3.05 0 0 1 .48-2.385 3.05 3.05 0 0 1 2.384-.479"></path></g></svg>
