<svg xmlns="http://www.w3.org/2000/svg" fill="none" viewBox="0 0 14 14"><g stroke-linecap="round" stroke-linejoin="round"><path stroke="var(--sl-c-000cfe,#000cfe)" d="m10.25 5.205 0 3.59m-1.197-3.59 2.394 0m-4.397 0v3.59h1.595m-6.092 0L3.655 5.49a.415.415 0 0 1 .394-.284v0c.179 0 .338.114.394.284l1.102 3.306M2.952 7.598h2.194"></path><path stroke="var(--sl-c-c71dff,#c71dff)" d="M12.077 1H1.923A.923.923 0 0 0 1 1.923v10.154c0 .51.413.923.923.923h10.154c.51 0 .923-.413.923-.923V1.923A.923.923 0 0 0 12.077 1"></path></g></svg>
