<svg xmlns="http://www.w3.org/2000/svg" fill="none" viewBox="0 0 14 14"><g stroke-linecap="round" stroke-linejoin="round"><path stroke="var(--sl-c-c71dff,#c71dff)" d="M8.4 6.385c0 1.083-1.098 1.961-2.452 1.961s-2.451-.878-2.451-1.961 1.097-1.961 2.451-1.961h2.451"></path><path stroke="var(--sl-c-c71dff,#c71dff)" d="M3.497 2.461C3.497 1.378 4.594.5 5.948.5s2.451.878 2.451 1.961v4.162c.086.417.435 1.293 1.15 1.465"></path><path stroke="var(--sl-c-000cfe,#000cfe)" d="M.5 10.54c1.176 1.065 3.696 2.066 6.835 1.913s5.363-1.386 6.083-1.983"></path><path stroke="var(--sl-c-000cfe,#000cfe)" d="M10.55 9.953c1.22-.439 2.877.342 2.877.342s-.082 1.831-1.04 2.705"></path></g></svg>
