<svg xmlns="http://www.w3.org/2000/svg" fill="none" viewBox="0 0 14 14"><g stroke-linecap="round" stroke-linejoin="round"><path stroke="var(--sl-c-000cfe,#000cfe)" d="M3.5 5.537h3M5 4v3m8.5 0-1.224-2.447A1 1 0 0 0 11.382 4H9.5"></path><path stroke="var(--sl-c-c71dff,#c71dff)" d="M2 11h-.5a1 1 0 0 1-1-1V2.5a1 1 0 0 1 1-1h7a1 1 0 0 1 1 1V7h4v3a1 1 0 0 1-1 1h-1M5 11h3.5m1-4v2.583"></path><path stroke="var(--sl-c-000cfe,#000cfe)" d="M9.999 12.5a1.501 1.501 0 1 1 0-3.002 1.501 1.501 0 0 1 0 3.002m-6.5 0a1.501 1.501 0 1 1 0-3.002 1.501 1.501 0 0 1 0 3.002"></path></g></svg>
