<svg xmlns="http://www.w3.org/2000/svg" fill="none" viewBox="0 0 14 14"><g stroke-linecap="round" stroke-linejoin="round"><path stroke="var(--sl-c-c71dff,#c71dff)" d="M5.09 1H1.91a.91.91 0 0 0-.91.91v3.18c0 .503.407.91.91.91h3.18A.91.91 0 0 0 6 5.09V1.91A.91.91 0 0 0 5.09 1m7 7H8.91a.91.91 0 0 0-.91.91v3.18c0 .503.407.91.91.91h3.18a.91.91 0 0 0 .91-.91V8.91a.91.91 0 0 0-.91-.91m-7 0H1.91a.91.91 0 0 0-.91.91v3.18c0 .503.407.91.91.91h3.18a.91.91 0 0 0 .91-.91V8.91A.91.91 0 0 0 5.09 8"></path><path stroke="var(--sl-c-000cfe,#000cfe)" d="m10.5 6 0-5M8 3.5h5"></path></g></svg>
