<svg xmlns="http://www.w3.org/2000/svg" fill="none" viewBox="0 0 14 14"><g stroke-linecap="round" stroke-linejoin="round"><path stroke="var(--sl-c-c71dff,#c71dff)" d="M10.214 7.426a2.51 2.51 0 0 1 1.756-2.39 2.935 2.935 0 0 0-4.258-1.01 1.01 1.01 0 0 1-1.009 0 3.12 3.12 0 0 0-4.45 1.221 5.18 5.18 0 0 0-.544 3.39 7.3 7.3 0 0 0 1.957 4.248c.363.344.836.585 1.335.612.498.028.991-.16 1.39-.46a1.33 1.33 0 0 1 1.583 0 2.08 2.08 0 0 0 2.684-.061 6.64 6.64 0 0 0 1.715-3.027 2.5 2.5 0 0 1-2.159-2.523"></path><path stroke="var(--sl-c-000cfe,#000cfe)" d="M8.184 1.998 9.682.5"></path></g></svg>
