<svg xmlns="http://www.w3.org/2000/svg" fill="none" viewBox="0 0 14 14"><g stroke-linecap="round" stroke-linejoin="round"><path stroke="var(--sl-c-c71dff,#c71dff)" d="m6.863 7.596 0 3.08"></path><path stroke="var(--sl-c-000cfe,#000cfe)" d="M3.375 5.912c-.35-.082-1.142-.62-1.261-1.67m.039 4.716c-.356.291-.639.95-.73 1.48m10.151-1.48c.355.291.639.95.73 1.48"></path><path stroke="var(--sl-c-c71dff,#c71dff)" d="M12.92 5.935a4.6 4.6 0 0 1 .29 1.606c0 1.031-.357 2.266-.923 2.898q.01.117.01.237c0 1.56-1.218 2.824-2.72 2.824s-2.722-1.264-2.722-2.824c0 1.56-1.218 2.824-2.72 2.824s-2.721-1.264-2.721-2.824q0-.12.01-.237C.856 9.807.5 8.572.5 7.54c0-1.404.663-2.77 1.615-3.306a3 3 0 0 1-.014-.267c0-1.363 1.064-2.468 2.377-2.468a2.32 2.32 0 0 1 1.56.605"></path><path stroke="var(--sl-c-000cfe,#000cfe)" d="M7.51 3.938c-.346-.06-.346-.565 0-.626A3.15 3.15 0 0 0 10.027.858l.021-.096a.326.326 0 0 1 .64-.003l.024.113A3.17 3.17 0 0 0 13.24 3.31c.348.061.348.568 0 .63a3.17 3.17 0 0 0-2.526 2.438l-.025.113a.326.326 0 0 1-.639-.003l-.02-.096a3.15 3.15 0 0 0-2.52-2.454"></path></g></svg>
