<svg xmlns="http://www.w3.org/2000/svg" fill="none" viewBox="0 0 14 14"><g stroke-linecap="round" stroke-linejoin="round"><path stroke="var(--sl-c-000cfe,#000cfe)" d="M10.92.63v4.9M9.287 1.855h.408c.676 0 1.225-.548 1.225-1.225h0m1.633 4.9H9.287m.903 5.482h.643a1.393 1.393 0 0 0 0-2.787l-.643 0a1.393 1.393 0 0 0 0 2.787"></path><path stroke="var(--sl-c-000cfe,#000cfe)" d="M12.227 9.51v2.573c0 .71-.576 1.286-1.287 1.286h-.857c-.56 0-1.037-.357-1.213-.857"></path><path stroke="var(--sl-c-c71dff,#c71dff)" d="m6.347 10.92-2.45 2.45-2.45-2.45M3.897.63v12.74"></path></g></svg>
