<svg xmlns="http://www.w3.org/2000/svg" fill="none" viewBox="0 0 14 14"><g stroke-linecap="round" stroke-linejoin="round"><path stroke="var(--sl-c-000cfe,#000cfe)" d="M3.75 13H1V9a1 1 0 0 1 1-1h1.75m6.5 0H12a1 1 0 0 1 1 1v4h-2.75m-6.5-5.75h6.5"></path><path stroke="var(--sl-c-c71dff,#c71dff)" d="M7 6.25v2"></path><path stroke="var(--sl-c-000cfe,#000cfe)" d="M5 3.5V3a2 2 0 1 1 4 0v.5"></path><path stroke="var(--sl-c-c71dff,#c71dff)" d="M5.75 3.5h2.5a2 2 0 0 1 2 2V13h-6.5V5.5a2 2 0 0 1 2-2"></path></g></svg>
