<svg xmlns="http://www.w3.org/2000/svg" fill="none" viewBox="0 0 14 14"><g stroke-linecap="round" stroke-linejoin="round"><path stroke="var(--sl-c-000cfe,#000cfe)" d="M9.588 7.499a1.495 1.495 0 0 1 0 2.117 1.5 1.5 0 0 1-2.12 0 1.495 1.495 0 0 1 0-2.117 1.5 1.5 0 0 1 2.12 0M5.422 4.16c.44.44.44 1.152 0 1.592a1.13 1.13 0 0 1-1.594 0 1.124 1.124 0 0 1 0-1.591c.44-.44 1.154-.44 1.594 0m-.691 4.55a.25.25 0 1 1 0-.5m.002.5a.25.25 0 1 0 0-.5M2.224 2.57l-.8-.652m.099 2.794L.5 4.566m1.325 3.166-.995.276m2.241 2.222-.867.561m2.69 1.009-.486.909m2.843-.239-.036 1.03m2.921-1.55.496.904m2.471-2.624-.869-.56M13.5 6.959l-1.023.145m-.592-2.867-.704.754M8.99 3.257l-.45.928M6.699 1.127l-.56.867M3.683.5l.143 1.021"></path><path stroke="var(--sl-c-c71dff,#c71dff)" d="M9.042 4.288c5.004.155 4.713 7.972-1.087 8.188-6.89.257-8.02-9.622-4.596-10.815C6.78.47 6.717 4.127 9.042 4.288"></path></g></svg>
