<svg xmlns="http://www.w3.org/2000/svg" fill="none" viewBox="0 0 14 14"><g stroke-linecap="round" stroke-linejoin="round"><path stroke="var(--sl-c-c71dff,#c71dff)" d="M7 13.5c3.208 0 5.5-1.238 5.5-3.994 0-2.995-1.375-4.992-4.125-6.49l1.082-1.518a.7.7 0 0 0 .009-.661.64.64 0 0 0-.22-.245A.57.57 0 0 0 8.943.5H5.057a.57.57 0 0 0-.303.092.64.64 0 0 0-.22.245.7.7 0 0 0 .01.661l1.081 1.528C2.875 4.534 1.5 6.531 1.5 9.526 1.5 12.262 3.792 13.5 7 13.5"></path><path stroke="var(--sl-c-000cfe,#000cfe)" d="M8.383 6.806a1.08 1.08 0 0 0-1.022-.723h-.838a.967.967 0 0 0-.207 1.912l1.277.28a1.084 1.084 0 0 1-.232 2.142H6.64c-.472 0-.873-.302-1.022-.722M7 6.083V5m0 6.5v-1.083"></path></g></svg>
