<svg xmlns="http://www.w3.org/2000/svg" fill="none" viewBox="0 0 14 14"><g stroke-linecap="round" stroke-linejoin="round"><path stroke="var(--sl-c-000cfe,#000cfe)" d="M2.385 5.555v5.076m3.076-5.076v5.076m3.078-5.076v5.076m3.077-5.076v5.076"></path><path stroke="var(--sl-c-c71dff,#c71dff)" d="M12.456 5.554H1.545c-.517 0-.739-.57-.332-.842l5.455-3.62a.65.65 0 0 1 .665 0l5.455 3.62c.406.272.185.842-.332.842m.083 5.077H1.462a.47.47 0 0 0-.462.474v1.421c0 .262.207.474.462.474h11.077a.47.47 0 0 0 .461-.474v-1.42a.47.47 0 0 0-.461-.475"></path></g></svg>
