<svg xmlns="http://www.w3.org/2000/svg" fill="none" viewBox="0 0 14 14"><g stroke-linecap="round" stroke-linejoin="round"><path stroke="var(--sl-c-000cfe,#000cfe)" d="M1 12.832a1.75 1.75 0 0 0 2.5-1.582 1.75 1.75 0 1 0 3.5 0 1.75 1.75 0 1 0 3.5 0 1.75 1.75 0 0 0 2.5 1.582M6.5 8.009c.06-2.26.75-4.32 2.25-5.06m-2.99-1.9a2.58 2.58 0 0 1 3 1.9"></path><path stroke="var(--sl-c-000cfe,#000cfe)" d="M12.41 3.319a2.78 2.78 0 0 0-3.66-.37"></path><path stroke="var(--sl-c-000cfe,#000cfe)" d="M5.08 4.019a3 3 0 0 1 3.67-1.07 2.55 2.55 0 0 1 1.89 3"></path><path stroke="var(--sl-c-c71dff,#c71dff)" d="M1.52 9.959a5.49 5.49 0 0 1 7.88-.622"></path></g></svg>
