<svg xmlns="http://www.w3.org/2000/svg" fill="none" viewBox="0 0 14 14"><g stroke-linecap="round" stroke-linejoin="round"><path stroke="var(--sl-c-c71dff,#c71dff)" d="M10 1.5H1.5c-.552 0-1 .435-1 .971V9.03c0 .536.448.971 1 .971H10c.552 0 1-.435 1-.971V2.47c0-.536-.448-.971-1-.971"></path><path stroke="var(--sl-c-000cfe,#000cfe)" d="M2.525 6a.25.25 0 0 1 0-.5m0 .5a.25.25 0 0 0 0-.5m6.45.5a.25.25 0 0 1 0-.5m0 .5a.25.25 0 0 0 0-.5M5.75 7a1.25 1.25 0 1 0 0-2.5 1.25 1.25 0 0 0 0 2.5M3.5 12.5h9a1 1 0 0 0 1-1V5"></path></g></svg>
