<svg xmlns="http://www.w3.org/2000/svg" fill="none" viewBox="0 0 14 14"><g stroke-linecap="round" stroke-linejoin="round"><path stroke="var(--sl-c-c71dff,#c71dff)" d="M1.5 8.484C1.5 3.765 7 .5 7 .5s5.5 3.265 5.5 7.984c0 3.05-2.786 5.016-5.5 5.016s-5.5-1.966-5.5-5.016"></path><path stroke="var(--sl-c-000cfe,#000cfe)" d="M6.306 5.5a.427.427 0 0 0-.427.427V7.13l-1.202 0a.427.427 0 0 0-.427.427v1.388c0 .236.191.427.427.427H5.88v1.202c0 .236.19.427.427.427h1.388a.427.427 0 0 0 .427-.427V9.37h1.202a.427.427 0 0 0 .427-.427V7.556a.427.427 0 0 0-.427-.427l-1.202 0V5.927a.427.427 0 0 0-.427-.427z"></path></g></svg>
