<svg xmlns="http://www.w3.org/2000/svg" fill="none" viewBox="0 0 14 14"><g stroke-linecap="round" stroke-linejoin="round"><path stroke="var(--sl-c-000cfe,#000cfe)" d="M9.333 5.068C9.333 3.754 7 .5 7 .5S4.667 3.754 4.667 5.068c0 .645.245 1.264.683 1.72A2.3 2.3 0 0 0 7 7.5c.619 0 1.212-.256 1.65-.712a2.5 2.5 0 0 0 .683-1.72"></path><path stroke="var(--sl-c-c71dff,#c71dff)" d="m12 13.5.914-.914a2 2 0 0 0 .586-1.414V6.333a.833.833 0 0 0-.833-.833c-.92 0-1.667.746-1.667 1.667v2.397"></path><path stroke="var(--sl-c-c71dff,#c71dff)" d="M8 13.5v-1.586a1 1 0 0 1 .293-.707L9.75 9.75a1.06 1.06 0 0 1 1.5 1.5l-.75.75M2 13.5l-.914-.914A2 2 0 0 1 .5 11.172V6.333c0-.46.373-.833.833-.833C2.253 5.5 3 6.246 3 7.167v2.397"></path><path stroke="var(--sl-c-c71dff,#c71dff)" d="M6 13.5v-1.586a1 1 0 0 0-.293-.707L4.25 9.75a1.06 1.06 0 0 0-1.5 1.5l.75.75"></path></g></svg>
