<svg xmlns="http://www.w3.org/2000/svg" fill="none" viewBox="0 0 14 14"><g stroke-linecap="round" stroke-linejoin="round"><path stroke="var(--sl-c-000cfe,#000cfe)" d="M9 6.572c0-1.127-2-3.916-2-3.916s-2 2.79-2 3.916c0 .553.21 1.083.586 1.474.375.39.884.61 1.414.61s1.04-.22 1.414-.61A2.13 2.13 0 0 0 9 6.572M7 12v1.5"></path><path stroke="var(--sl-c-c71dff,#c71dff)" d="M1.5 7.338V2.5a2 2 0 0 1 2-2h7a2 2 0 0 1 2 2v4.838a3 3 0 0 1-2.051 2.846L9.5 10.5v.5a1 1 0 0 1-1 1h-3a1 1 0 0 1-1-1v-.5l-.949-.316A3 3 0 0 1 1.5 7.338"></path></g></svg>
