<svg xmlns="http://www.w3.org/2000/svg" fill="none" viewBox="0 0 14 14"><g stroke-linecap="round" stroke-linejoin="round"><path stroke="var(--sl-c-c71dff,#c71dff)" d="M5.238 4.944V2.91"></path><path stroke="var(--sl-c-000cfe,#000cfe)" d="m13 13 0-1.427A2.573 2.573 0 0 0 10.427 9h-.538V6.556a1.111 1.111 0 1 0-2.222 0l0 3.333-.086.014a1.5 1.5 0 0 0-.906 2.44l.547.657"></path><path stroke="var(--sl-c-c71dff,#c71dff)" d="M5.238 9.135c-.31 0-.654-.257-.787-.385a6.04 6.04 0 0 0-2.87-1.198A.65.65 0 0 1 1 6.9V1.652a.652.652 0 0 1 .743-.646A6.06 6.06 0 0 1 5.238 2.91a6.06 6.06 0 0 1 3.494-1.904.652.652 0 0 1 .743.646v1.8m-4.24 5.683c.178 0 .368-.085.523-.182"></path></g></svg>
