<svg xmlns="http://www.w3.org/2000/svg" fill="none" viewBox="0 0 14 14"><g stroke-linecap="round" stroke-linejoin="round"><path stroke="var(--sl-c-c71dff,#c71dff)" d="M6.5 8.94c-2.04 1.506-3.262 2.039-5.083 2.026-.52-.004-.917-.445-.917-.964V3.978c0-.527.41-.972.938-.965C3.27 3.035 4.52 3.57 6.5 5.06m1 3.88c2.04 1.506 3.262 2.039 5.083 2.026.52-.004.917-.445.917-.964V3.978c0-.527-.41-.972-.938-.965-1.832.022-3.081.557-5.062 2.047"></path><path stroke="var(--sl-c-000cfe,#000cfe)" d="M7 9a2 2 0 1 0 0-4 2 2 0 0 0 0 4"></path></g></svg>
