<svg xmlns="http://www.w3.org/2000/svg" fill="none" viewBox="0 0 14 14"><g stroke-linecap="round" stroke-linejoin="round"><path stroke="var(--sl-c-c71dff,#c71dff)" d="M7 13.5a6.5 6.5 0 1 0 0-13 6.5 6.5 0 0 0 0 13"></path><path stroke="var(--sl-c-000cfe,#000cfe)" d="M5.5 4.5c-.39 0-1.083.304-1.133 1.148-.03.497-.198 1.017-.643 1.24L3.5 7l.224.112c.445.223.613.743.643 1.24.05.844.743 1.148 1.133 1.148m3-5c.39 0 1.083.304 1.133 1.148.03.497.198 1.017.643 1.24L10.5 7l-.224.112c-.445.223-.613.743-.643 1.24A1.174 1.174 0 0 1 8.5 9.5"></path></g></svg>
