<svg xmlns="http://www.w3.org/2000/svg" fill="none" viewBox="0 0 14 14"><g stroke-linecap="round" stroke-linejoin="round"><path stroke="var(--sl-c-000cfe,#000cfe)" d="M10.496 5.695c.35-.08 1.142-.599 1.261-1.611M3.503 5.695c-.35-.08-1.141-.599-1.26-1.611M9.03 8.14C7.602 7.98 7.037 6.472 7 5.86M4.97 8.14C6.397 7.98 6.963 6.472 7 5.86m4.71 2.374c.356.281.64.917.731 1.427M2.29 8.234c-.356.281-.64.917-.731 1.427"></path><path stroke="var(--sl-c-c71dff,#c71dff)" d="M9.38 1.5A2.38 2.38 0 0 0 7 3.88l0 5.896a2.724 2.724 0 1 0 5.448 0v-.13c.654-.73 1.052-1.407 1.052-2.464 0-1.397-.678-2.344-1.74-3.09V3.88A2.38 2.38 0 0 0 9.38 1.5m-4.76 0A2.38 2.38 0 0 1 7 3.88l0 5.896a2.724 2.724 0 0 1-5.448 0v-.13C.898 8.916.5 8.239.5 7.182c0-1.397.678-2.344 1.74-3.09V3.88A2.38 2.38 0 0 1 4.62 1.5"></path></g></svg>
