<svg xmlns="http://www.w3.org/2000/svg" fill="none" viewBox="0 0 14 14"><g stroke-linecap="round" stroke-linejoin="round"><path stroke="var(--sl-c-000cfe,#000cfe)" d="M1.375 1.75a.375.375 0 1 1 0-.75m0 .75a.375.375 0 1 0 0-.75m4.5.75a.375.375 0 1 1 0-.75m0 .75a.375.375 0 1 0 0-.75m6.75.75a.375.375 0 0 1 0-.75m0 .75a.375.375 0 0 0 0-.75m0 3.75a.375.375 0 0 1 0-.75m0 .75a.375.375 0 0 0 0-.75m-2.75.75a.375.375 0 1 1 0-.75m0 .75a.375.375 0 0 0 0-.75m-8.5.75a.375.375 0 1 1 0-.75m0 .75a.375.375 0 1 0 0-.75"></path><path stroke="var(--sl-c-c71dff,#c71dff)" d="m12.046 13.5.163-1.615A2.573 2.573 0 0 0 9.6 9.054l-2.351.043 0-3.847A1.25 1.25 0 0 0 6 4v0c-.69 0-1.25.56-1.25 1.25l0 6.25-1.221-1.221a1.1 1.1 0 0 0-1.558 0v0a1.1 1.1 0 0 0-.057 1.495L3.393 13.5"></path><path stroke="var(--sl-c-000cfe,#000cfe)" d="M1.375 7.75a.375.375 0 1 1 0-.75m0 .75a.375.375 0 1 0 0-.75"></path></g></svg>
