<svg xmlns="http://www.w3.org/2000/svg" fill="none" viewBox="0 0 14 14"><g stroke-linecap="round" stroke-linejoin="round"><path stroke="var(--sl-c-000cfe,#000cfe)" d="M10 3V1.5a1 1 0 0 0-1-1H5a1 1 0 0 0-1 1V3m4.383 3.806a1.08 1.08 0 0 0-1.022-.723h-.838a.967.967 0 0 0-.207 1.912l1.277.28a1.084 1.084 0 0 1-.232 2.142H6.64c-.472 0-.873-.302-1.022-.723M7 6.083V5m0 6.5v-1.083"></path><path stroke="var(--sl-c-c71dff,#c71dff)" d="M12.5 3h-11a1 1 0 0 0-1 1v8.5a1 1 0 0 0 1 1h11a1 1 0 0 0 1-1V4a1 1 0 0 0-1-1"></path></g></svg>
