<svg xmlns="http://www.w3.org/2000/svg" fill="none" viewBox="0 0 14 14"><g stroke-linecap="round" stroke-linejoin="round"><path stroke="var(--sl-c-000cfe,#000cfe)" d="M3.55 7.175c1.9-1.9 5-1.9 6.9 0M5.355 8.708c.859-.859 2.33-.859 3.19 0M6.95 11.047a.25.25 0 0 1 0-.5m0 .5a.25.25 0 0 0 0-.5"></path><path stroke="var(--sl-c-c71dff,#c71dff)" d="M12.077 1H1.923A.923.923 0 0 0 1 1.923v10.154c0 .51.413.923.923.923h10.154c.51 0 .923-.413.923-.923V1.923A.923.923 0 0 0 12.077 1"></path><path stroke="var(--sl-c-000cfe,#000cfe)" d="M13 3.5H1V1.923c0-.51.413-.923.923-.923h10.154c.51 0 .923.413.923.923z"></path></g></svg>
