<svg xmlns="http://www.w3.org/2000/svg" fill="none" viewBox="0 0 14 14"><g stroke-linecap="round" stroke-linejoin="round"><path stroke="var(--sl-c-c71dff,#c71dff)" d="M12.077 1H1.923A.923.923 0 0 0 1 1.923v10.154c0 .51.413.923.923.923h10.154c.51 0 .923-.413.923-.923V1.923A.923.923 0 0 0 12.077 1"></path><path stroke="var(--sl-c-000cfe,#000cfe)" d="M4.75 10.5v-2a.5.5 0 0 1 .5-.5h3.5a.5.5 0 0 1 .5.5v2a.5.5 0 0 1-.5.5h-3.5a.5.5 0 0 1-.5-.5M5.5 8V7A1.5 1.5 0 0 1 7 5.5v0A1.5 1.5 0 0 1 8.5 7v1M13 3.5H1V1.923c0-.51.413-.923.923-.923h10.154c.51 0 .923.413.923.923z"></path></g></svg>
