<svg xmlns="http://www.w3.org/2000/svg" fill="none" viewBox="0 0 14 14"><g stroke-linecap="round" stroke-linejoin="round"><path stroke="var(--sl-c-c71dff,#c71dff)" d="M7.5 7.5h-6a1 1 0 0 0-1 1v4a1 1 0 0 0 1 1h6a1 1 0 0 0 1-1v-4a1 1 0 0 0-1-1"></path><path stroke="var(--sl-c-c71dff,#c71dff)" d="M3 5.25V1.5a1 1 0 0 1 1-1h8.5a1 1 0 0 1 1 1v8a1 1 0 0 1-1 1h-1.75"></path><path stroke="var(--sl-c-000cfe,#000cfe)" d="M13.5 3.5H3v-2a1 1 0 0 1 1-1h8.5a1 1 0 0 1 1 1zm-5 6.5h-8V8.5a1 1 0 0 1 1-1h6a1 1 0 0 1 1 1z"></path></g></svg>
