<svg xmlns="http://www.w3.org/2000/svg" fill="none" viewBox="0 0 14 14"><g stroke-linecap="round" stroke-linejoin="round"><path stroke="var(--sl-c-c71dff,#c71dff)" d="M12.077 1H1.923A.923.923 0 0 0 1 1.923v10.154c0 .51.413.923.923.923h10.154c.51 0 .923-.413.923-.923V1.923A.923.923 0 0 0 12.077 1"></path><path stroke="var(--sl-c-000cfe,#000cfe)" d="M6.546 5.599 4.729 10.9M9.27 5.599 7.455 10.9m2.725-3.936H4.274m5.451 2.725H3.821M13 3.5H1V1.923c0-.51.413-.923.923-.923h10.154c.51 0 .923.413.923.923z"></path></g></svg>
