<svg xmlns="http://www.w3.org/2000/svg" fill="none" viewBox="0 0 14 14"><g stroke-linecap="round" stroke-linejoin="round"><path stroke="var(--sl-c-000cfe,#000cfe)" d="M9 7V5a2 2 0 1 0-4 0v2a2 2 0 1 0 4 0M3.5 6H5m4 0h1.5M5 5.5h4m-.187-1.312L10 3M8.813 7.813 10 9M5.188 7.813 4 9m1.188-4.812L4 3"></path><path stroke="var(--sl-c-c71dff,#c71dff)" d="M7.36 13.433a1 1 0 0 1-.72 0v0a9.6 9.6 0 0 1-4.455-3.539A9.7 9.7 0 0 1 .5 4.442V1.506c0-.267.105-.523.293-.711A1 1 0 0 1 1.5.5h11a1.004 1.004 0 0 1 1 1.005v2.937a9.7 9.7 0 0 1-1.685 5.452 9.6 9.6 0 0 1-4.455 3.539"></path></g></svg>
