<svg xmlns="http://www.w3.org/2000/svg" fill="none" viewBox="0 0 14 14"><g stroke-linecap="round" stroke-linejoin="round"><path stroke="var(--sl-c-000cfe,#000cfe)" d="M3.5 11.5V13m7-1.5V13M2 5.5H.5m13 0H12M11 1H3a1 1 0 0 0-1 1v8.5a1 1 0 0 0 1 1h8a1 1 0 0 0 1-1V2a1 1 0 0 0-1-1"></path><path stroke="var(--sl-c-c71dff,#c71dff)" d="M12 7.5H2v3a1 1 0 0 0 1 1h8a1 1 0 0 0 1-1z"></path><path stroke="var(--sl-c-000cfe,#000cfe)" d="M4.5 9.75a.25.25 0 0 1 0-.5m0 .5a.25.25 0 0 0 0-.5m5 .5a.25.25 0 0 1 0-.5m0 .5a.25.25 0 0 0 0-.5"></path></g></svg>
