<svg xmlns="http://www.w3.org/2000/svg" fill="none" viewBox="0 0 14 14"><g stroke-linecap="round" stroke-linejoin="round"><path stroke="var(--sl-c-c71dff,#c71dff)" d="M12.5 12.5a1 1 0 0 1-1 1h-9a1 1 0 0 1-1-1v-11a1 1 0 0 1 1-1h5.586a1 1 0 0 1 .707.293l3.414 3.414a1 1 0 0 1 .293.707z"></path><path stroke="var(--sl-c-000cfe,#000cfe)" d="M3.5 5.94a2.2 2.2 0 0 1 .746-.834c.306-.2.652-.304 1.003-.304s.697.104 1.003.304c.307.199.563.486.746.834"></path><path stroke="var(--sl-c-000cfe,#000cfe)" d="M4.098 3.65a1.15 1.15 0 1 0 2.3 0 1.15 1.15 0 0 0-2.3 0M3.5 8.5h7m-7 2.5h4"></path></g></svg>
