<svg xmlns="http://www.w3.org/2000/svg" fill="none" viewBox="0 0 14 14"><g stroke-linecap="round" stroke-linejoin="round"><path stroke="var(--sl-c-000cfe,#000cfe)" d="m11.29 9.778 2.21-1.626"></path><path stroke="var(--sl-c-c71dff,#c71dff)" d="m11.29 9.785-3.13 2.318a1.95 1.95 0 0 1-2.24.083L.5 8.713m0-6.728 2.22 1.266 1.978-.363a2.17 2.17 0 0 1 1.868.552l.282.3m.987 2.536 3.454 3.502"></path><path stroke="var(--sl-c-000cfe,#000cfe)" d="m13.5 1.5-2.737 1.567-2.28.107a3 3 0 0 0-1.856.758L5.073 5.317a1.225 1.225 0 0 0 1.562 1.885l1.2-.92c.83.782 2.005.383 2.442-.255"></path></g></svg>
