<svg xmlns="http://www.w3.org/2000/svg" fill="none" viewBox="0 0 14 14"><g stroke-linecap="round" stroke-linejoin="round"><path stroke="var(--sl-c-c71dff,#c71dff)" d="M11.7 5.233A4.7 4.7 0 1 0 4.91 9.41v1.317a.52.52 0 0 0 .523.522h3.134a.52.52 0 0 0 .522-.522V9.41A4.68 4.68 0 0 0 11.7 5.233"></path><path stroke="var(--sl-c-000cfe,#000cfe)" d="M5 13.5h4m-.724-9.271a1 1 0 0 0-.943-.667H6.56a.893.893 0 0 0-.19 1.765l1.178.257a1 1 0 0 1-.214 1.978h-.666a1 1 0 0 1-.943-.667M7 3.562v-1m0 6v-1"></path></g></svg>
