<svg xmlns="http://www.w3.org/2000/svg" fill="none" viewBox="0 0 14 14"><g stroke-linecap="round" stroke-linejoin="round"><path stroke="var(--sl-c-000cfe,#000cfe)" d="M1.5 5.5h11m-8.25 3a.25.25 0 0 1 0-.5m0 .5a.25.25 0 0 0 0-.5M7 8.5A.25.25 0 0 1 7 8m0 .5A.25.25 0 0 0 7 8m2.75.5a.25.25 0 0 1 0-.5m0 .5a.25.25 0 0 0 0-.5m-5.5 3a.25.25 0 1 1 0-.5m0 .5a.25.25 0 1 0 0-.5M7 11a.25.25 0 1 1 0-.5m0 .5a.25.25 0 1 0 0-.5m2.75.5a.25.25 0 1 1 0-.5m0 .5a.25.25 0 1 0 0-.5M10 3H9"></path><path stroke="var(--sl-c-c71dff,#c71dff)" d="M11.5.5h-9a1 1 0 0 0-1 1v11a1 1 0 0 0 1 1h9a1 1 0 0 0 1-1v-11a1 1 0 0 0-1-1"></path></g></svg>
