<svg xmlns="http://www.w3.org/2000/svg" fill="none" viewBox="0 0 14 14"><g stroke-linecap="round" stroke-linejoin="round"><path stroke="var(--sl-c-000cfe,#000cfe)" d="m7.21 5.379.708 1.423a.22.22 0 0 0 .18.132l1.572.238a.239.239 0 0 1 .131.411l-1.16 1.103a.23.23 0 0 0 0 .214l.223 1.562a.238.238 0 0 1-.354.255l-1.398-.74a.28.28 0 0 0-.23 0l-1.4.74a.24.24 0 0 1-.353-.255L5.392 8.9a.23.23 0 0 0-.04-.214l-1.16-1.11a.239.239 0 0 1 .131-.404l1.571-.23a.22.22 0 0 0 .181-.132l.707-1.423a.239.239 0 0 1 .428-.008"></path><path stroke="var(--sl-c-c71dff,#c71dff)" d="M2 2.5a1 1 0 0 0-1 1V12a1 1 0 0 0 1 1h10a1 1 0 0 0 1-1V3.5a1 1 0 0 0-1-1z"></path><path stroke="var(--sl-c-000cfe,#000cfe)" d="M3.5 1v3m7-3v3"></path></g></svg>
