<svg xmlns="http://www.w3.org/2000/svg" fill="none" viewBox="0 0 14 14"><g stroke-linecap="round" stroke-linejoin="round"><path stroke="var(--sl-c-c71dff,#c71dff)" d="M7.47 13.07a2.7 2.7 0 0 0 3.37-.36l.38-.38a.91.91 0 0 0 0-1.28l-1.6-1.59a.9.9 0 0 0-1.27 0v0a.91.91 0 0 1-1.28 0L4.52 6.91a.91.91 0 0 1 0-1.28v0a.9.9 0 0 0 0-1.27l-1.54-1.6a.91.91 0 0 0-1.28 0l-.38.38a2.7 2.7 0 0 0-.41 3.37 24.2 24.2 0 0 0 6.56 6.56"></path><path stroke="var(--sl-c-000cfe,#000cfe)" d="M12.907 3.167h-2.155a.215.215 0 0 1-.162-.357L12.55.57a.204.204 0 0 1 .357.134zm0 0h.593m-.593 0v.889m-4.057 0H6.48v-.505c0-.353.21-.673.533-.815l1.319-.577A.866.866 0 0 0 7.985.5h-.616a.89.89 0 0 0-.838.593"></path></g></svg>
