<svg xmlns="http://www.w3.org/2000/svg" fill="none" viewBox="0 0 14 14"><g stroke-linecap="round" stroke-linejoin="round"><path stroke="var(--sl-c-c71dff,#c71dff)" d="M5.761 8.69a1.06 1.06 0 0 1-1.484 0 1.05 1.05 0 0 0-1.474 0L.926 10.549a1.06 1.06 0 0 0 0 1.484l.442.433a3.135 3.135 0 0 0 3.931.432 28 28 0 0 0 2.647-2.021m1.521-1.41a28.4 28.4 0 0 0 3.459-4.177 3.135 3.135 0 0 0-.432-3.931L12.06.916a1.06 1.06 0 0 0-1.484 0L8.71 2.784a1.05 1.05 0 0 0 0 1.474 1.04 1.04 0 0 1 0 1.484L7.226 7.226"></path><path stroke="var(--sl-c-000cfe,#000cfe)" d="m.5.5 13 13"></path></g></svg>
