<svg xmlns="http://www.w3.org/2000/svg" fill="none" viewBox="0 0 14 14"><g stroke-linecap="round" stroke-linejoin="round"><path stroke="var(--sl-c-c71dff,#c71dff)" d="m1.923 13 10.154 0c.51 0 .923-.413.923-.923l0-10.154A.923.923 0 0 0 12.077 1L1.923 1A.923.923 0 0 0 1 1.923l0 10.154c0 .51.413.923.923.923"></path><path stroke="var(--sl-c-000cfe,#000cfe)" d="M10.5 6.5a1 1 0 0 0-1-1H9L8 4H6L5 5.5h-.5a1 1 0 0 0-1 1V9a1 1 0 0 0 1 1h5a1 1 0 0 0 1-1z"></path><path stroke="var(--sl-c-000cfe,#000cfe)" d="M7 7.875a.375.375 0 1 1 0-.75m0 .75a.375.375 0 1 0 0-.75"></path></g></svg>
