<svg xmlns="http://www.w3.org/2000/svg" fill="none" viewBox="0 0 14 14"><g stroke-linecap="round" stroke-linejoin="round"><path stroke="var(--sl-c-000cfe,#000cfe)" d="M6 3.5v-2M2 7l1.24-2.894a1 1 0 0 1 .92-.606h3.68a1 1 0 0 1 .92.606L10 7"></path><path stroke="var(--sl-c-c71dff,#c71dff)" d="M8.998 11 5 11"></path><path stroke="var(--sl-c-000cfe,#000cfe)" d="M2 7h8"></path><path stroke="var(--sl-c-c71dff,#c71dff)" d="M2 11h-.5a1 1 0 0 1-1-1V8a1 1 0 0 1 1-1h11a1 1 0 0 1 1 1v2a1 1 0 0 1-1 1H12"></path><path stroke="var(--sl-c-000cfe,#000cfe)" d="M10.499 12.5a1.501 1.501 0 1 1 0-3.002 1.501 1.501 0 0 1 0 3.002m-7 0a1.501 1.501 0 1 1 0-3.002 1.501 1.501 0 0 1 0 3.002"></path></g></svg>
