<svg xmlns="http://www.w3.org/2000/svg" fill="none" viewBox="0 0 14 14"><g stroke-linecap="round" stroke-linejoin="round"><path stroke="var(--sl-c-000cfe,#000cfe)" d="M5 7.25a.25.25 0 1 1 0-.5m0 .5a.25.25 0 0 0 0-.5m4 .5a.25.25 0 0 1 0-.5m0 .5a.25.25 0 0 0 0-.5"></path><path stroke="var(--sl-c-c71dff,#c71dff)" d="M4.5 12.71A4 4 0 0 0 6 13h2a4 4 0 0 0 1.5-.29M2 7.5V1l4.153 2.556M12 7.5V1L7.86 3.556"></path><path stroke="var(--sl-c-c71dff,#c71dff)" d="M4.019 4.5c.732-.614 1.796-1 2.981-1s2.25.386 2.982 1"></path><path stroke="var(--sl-c-000cfe,#000cfe)" d="M1 9.5h3M4 11l-2.5 1.5m8.5-3h3M10 11l2.5 1.5m-4.75-3h-1.5L7 10z"></path></g></svg>
