<svg xmlns="http://www.w3.org/2000/svg" fill="none" viewBox="0 0 14 14"><g stroke-linecap="round" stroke-linejoin="round"><path stroke="var(--sl-c-000cfe,#000cfe)" d="M10.283 10.824h1.306v.87c0 .721-.585 1.306-1.306 1.306h-.87a1.306 1.306 0 0 1-1.306-1.306V9.083c0-.722.585-1.306 1.306-1.306h.87c.569 0 1.053.363 1.232.87m-5.842-.87-2.827 0-.435 2.61.319-.16a2.6 2.6 0 0 1 1.167-.275h.689c.72 0 1.305.584 1.305 1.305l0 .435c0 .72-.585 1.305-1.305 1.305h-.87a1.31 1.31 0 0 1-1.231-.87"></path><path stroke="var(--sl-c-c71dff,#c71dff)" d="M9.527 4.893c-.773-.547-1.632-.852-2.511-.892-.877.043-1.734.349-2.505.896M2.098 2.876A7.9 7.9 0 0 1 7.003 1a7.9 7.9 0 0 1 4.9 1.876"></path></g></svg>
