<svg xmlns="http://www.w3.org/2000/svg" fill="none" viewBox="0 0 14 14"><g stroke-linecap="round" stroke-linejoin="round"><path stroke="var(--sl-c-000cfe,#000cfe)" d="M10.405 10.824h1.306v.87c0 .721-.585 1.306-1.306 1.306h-.87a1.306 1.306 0 0 1-1.306-1.306V9.083c0-.722.585-1.306 1.306-1.306h.87c.569 0 1.053.363 1.232.87M5.77 11.694H2.606a.316.316 0 0 1-.238-.524l2.879-3.29a.3.3 0 0 1 .525.196zm0 0h.871m-.87 0V13"></path><path stroke="var(--sl-c-c71dff,#c71dff)" d="M9.527 4.893c-.773-.547-1.632-.852-2.511-.892-.877.043-1.734.349-2.505.896M2.098 2.876A7.9 7.9 0 0 1 7.003 1a7.9 7.9 0 0 1 4.9 1.876"></path></g></svg>
