<svg xmlns="http://www.w3.org/2000/svg" fill="none" viewBox="0 0 14 14"><g stroke-linecap="round" stroke-linejoin="round"><path stroke="var(--sl-c-c71dff,#c71dff)" d="M9.725 1.5H11.5a1 1 0 0 1 1 1v10a1 1 0 0 1-1 1h-9a1 1 0 0 1-1-1v-10a1 1 0 0 1 1-1h1.775"></path><path stroke="var(--sl-c-000cfe,#000cfe)" d="M6.306 5.5a.427.427 0 0 0-.427.427V7.13l-1.202 0a.427.427 0 0 0-.427.427v1.388c0 .236.191.427.427.427H5.88v1.202c0 .236.19.427.427.427h1.388a.427.427 0 0 0 .427-.427V9.37h1.202a.427.427 0 0 0 .427-.427V7.556a.427.427 0 0 0-.427-.427l-1.202 0V5.927a.427.427 0 0 0-.427-.427zM8.5 3h-3a1.25 1.25 0 1 1 0-2.5h3a1.25 1.25 0 1 1 0 2.5"></path></g></svg>
