<svg xmlns="http://www.w3.org/2000/svg" fill="none" viewBox="0 0 14 14"><g stroke-linecap="round" stroke-linejoin="round"><path stroke="var(--sl-c-c71dff,#c71dff)" d="M8.761 7.307c.433-.312.692-.795.692-1.482 0-1.94-2.454-3.048-2.454-3.048S4.546 3.885 4.546 5.825c0 .687.259 1.17.691 1.482-.45 1.268-1.104 3.142-1.125 3.407h5.774c-.02-.265-.674-2.14-1.125-3.407"></path><path stroke="var(--sl-c-c71dff,#c71dff)" d="M5.861 1.639a1.139 1.139 0 1 0 2.277 0 1.139 1.139 0 0 0-2.277 0M7.389 5.47 8.732 4.1"></path><path stroke="var(--sl-c-000cfe,#000cfe)" d="M2.272 11.35c.136-.38.518-.636.949-.636l7.558 0c.43 0 .813.256.949.635L12.5 13.5h-11z"></path></g></svg>
