<svg xmlns="http://www.w3.org/2000/svg" fill="none" viewBox="0 0 14 14"><g stroke-linecap="round" stroke-linejoin="round"><path stroke="var(--sl-c-c71dff,#c71dff)" d="M3.572 10.714c.158-.84 1.306-1.803 2.117-2.446 1.945-1.54 1.765-2.858 1.447-3.215L5.204 6.17a1.24 1.24 0 0 1-1.456-.156v0a1.24 1.24 0 0 1-.237-1.541l1.472-2.527L4.42.66c.93-.334 3.501-.157 4.518.643 1.27 1 2.894 2.518 1.553 9.411"></path><path stroke="var(--sl-c-c71dff,#c71dff)" d="M7.773 3.971a1.9 1.9 0 0 1-.631 1.03"></path><path stroke="var(--sl-c-000cfe,#000cfe)" d="M2.272 11.35c.136-.38.518-.636.949-.636l7.558 0c.43 0 .813.256.949.635L12.5 13.5h-11z"></path></g></svg>
