<svg xmlns="http://www.w3.org/2000/svg" fill="none" viewBox="0 0 14 14"><g stroke-linecap="round" stroke-linejoin="round"><path stroke="var(--sl-c-c71dff,#c71dff)" d="m10.643 8.429 1.653 1.102a1.58 1.58 0 0 1 .241 2.432L12.5 12c-.32.32-.754.5-1.207.5H3.56A2.56 2.56 0 0 1 1 9.94v-.404A3.536 3.536 0 0 1 4.536 6h1.253a4 4 0 0 1 1.534.306"></path><path stroke="var(--sl-c-000cfe,#000cfe)" d="m10.5 6 2-2"></path><path stroke="var(--sl-c-c71dff,#c71dff)" d="m10.643 8.429.13-.216a1.811 1.811 0 0 0-2.486-2.485l-1.362.817A2.208 2.208 0 0 0 8 10.646"></path><path stroke="var(--sl-c-000cfe,#000cfe)" d="m12 3.5 1 1M2.813 4.25c1.083-1.354-1.084-1.396 0-2.75m2.754 2.75c1.084-1.354-1.083-1.396 0-2.75"></path></g></svg>
