<svg xmlns="http://www.w3.org/2000/svg" fill="none" viewBox="0 0 14 14"><g stroke-linecap="round" stroke-linejoin="round"><path stroke="var(--sl-c-000cfe,#000cfe)" d="M4.579 6.126v2.786M3.186 7.519h2.786"></path><path stroke="var(--sl-c-c71dff,#c71dff)" d="M.5 7a4.646 4.646 0 0 0 4.643 4.65h4.643A3.717 3.717 0 0 0 13.5 7.93a3.717 3.717 0 0 0-4.57-3.62 4.64 4.64 0 0 0-3.787-1.96A4.646 4.646 0 0 0 .5 7"></path><path stroke="var(--sl-c-000cfe,#000cfe)" d="M8.88 7.853a.125.125 0 0 1 0-.25m0 .25a.125.125 0 0 0 0-.25m2.639.25a.125.125 0 0 1 0-.25m0 .25a.125.125 0 1 0 0-.25m-1.294-1.047a.125.125 0 0 1 0-.25m0 .25a.125.125 0 0 0 0-.25m0 2.888a.125.125 0 0 1 0-.25m0 .25a.125.125 0 0 0 0-.25"></path></g></svg>
