<svg xmlns="http://www.w3.org/2000/svg" fill="none" viewBox="0 0 14 14"><g stroke-linecap="round" stroke-linejoin="round"><path stroke="var(--sl-c-c71dff,#c71dff)" d="M12.324 9.135q.14-.098.269-.213a2.736 2.736 0 0 0-1.201-4.698.25.25 0 0 1-.174-.2 3.875 3.875 0 0 0-7.523-.912.23.23 0 0 1-.21.127 3.2 3.2 0 0 0-1.722 5.739"></path><path stroke="var(--sl-c-000cfe,#000cfe)" d="M6 10.292a1.167 1.167 0 1 1-2.333 0 1.167 1.167 0 0 1 2.333 0m4.333-2.042A1.167 1.167 0 1 1 8 8.25a1.167 1.167 0 0 1 2.333 0m0 4.083a1.167 1.167 0 1 0-2.333 0 1.167 1.167 0 0 0 2.333 0M8.158 8.838l-2.325.866m2.325 2.041-2.325-.865"></path></g></svg>
