<svg xmlns="http://www.w3.org/2000/svg" fill="none" viewBox="0 0 14 14"><g stroke-linecap="round" stroke-linejoin="round"><path stroke="var(--sl-c-c71dff,#c71dff)" d="m5.66 1.14-.43 1.11-1.48.84-1.18-.18a1 1 0 0 0-1 .49l-.4.7a1 1 0 0 0 .08 1.13l.75.93v1.68l-.73.93a1 1 0 0 0-.08 1.13l.4.7a1 1 0 0 0 1 .49l1.18-.18 1.46.84.43 1.11a1 1 0 0 0 .93.64h.84a1 1 0 0 0 .93-.64l.43-1.11 1.46-.84 1.18.18a1 1 0 0 0 1-.49l.4-.7a1 1 0 0 0-.08-1.13L12 7.84V6.16l.73-.93a1 1 0 0 0 .08-1.13l-.4-.7a1 1 0 0 0-1-.49l-1.18.18-1.46-.84-.43-1.11A1 1 0 0 0 7.41.5h-.82a1 1 0 0 0-.93.64"></path><path stroke="var(--sl-c-000cfe,#000cfe)" d="M5.337 8.111A2 2 0 1 1 8.663 5.89a2 2 0 0 1-3.326 2.22"></path></g></svg>
