<svg xmlns="http://www.w3.org/2000/svg" fill="none" viewBox="0 0 14 14"><g stroke-linecap="round" stroke-linejoin="round"><path stroke="var(--sl-c-000cfe,#000cfe)" d="M9.75 8a3.75 3.75 0 1 0 0-7.5 3.75 3.75 0 0 0 0 7.5m0-2.75v-2"></path><path stroke="var(--sl-c-c71dff,#c71dff)" d="m.5 11 2.444 2.036a2 2 0 0 0 1.28.464l6.443 0c.46 0 .833-.373.833-.833 0-.92-.746-1.667-1.667-1.667H5.354"></path><path stroke="var(--sl-c-c71dff,#c71dff)" d="m3.5 10 .75.75a1.06 1.06 0 0 0 1.5-1.5L4.586 8.086A2 2 0 0 0 3.172 7.5H.5"></path></g></svg>
