<svg xmlns="http://www.w3.org/2000/svg" fill="none" viewBox="0 0 14 14"><g stroke-linecap="round" stroke-linejoin="round"><path stroke="var(--sl-c-c71dff,#c71dff)" d="M.5 13.5a3.7 3.7 0 0 1 .477-1.773 3.71 3.71 0 0 1 3.195-1.868 3.71 3.71 0 0 1 3.195 1.868 3.7 3.7 0 0 1 .477 1.773"></path><path stroke="var(--sl-c-000cfe,#000cfe)" d="M9.115 1.32V.5m2.845 1.882.58-.58m-6.226.58-.58-.58m5.416 3.194a2.055 2.055 0 0 0-2.078-2.042 2.057 2.057 0 0 0-1.99 2.126 2.07 2.07 0 0 0 1.125 1.73v1a.227.227 0 0 0 .227.221h1.36a.227.227 0 0 0 .228-.22V6.792a2.07 2.07 0 0 0 1.128-1.797m-6.42.001.821 0m7.129 0 .82 0"></path><path stroke="var(--sl-c-c71dff,#c71dff)" d="M2.788 5.013a1.86 1.86 0 1 0 3.17 1.759"></path></g></svg>
