<svg xmlns="http://www.w3.org/2000/svg" fill="none" viewBox="0 0 14 14"><g stroke-linecap="round" stroke-linejoin="round"><path stroke="var(--sl-c-000cfe,#000cfe)" d="M5.501 11.999 9.5 8H12a1 1 0 0 1 1 1v3a1 1 0 0 1-1 1H3.5c.818 0 1.545-.393 2.001-1.001"></path><path stroke="var(--sl-c-000cfe,#000cfe)" d="M6 10.5v-6l2.793-2.793a1 1 0 0 1 1.414 0l2.086 2.086a1 1 0 0 1 0 1.414L5.5 11.999c.313-.418.499-.937.499-1.5"></path><path stroke="var(--sl-c-c71dff,#c71dff)" d="M5 1H2a1 1 0 0 0-1 1v8.5a2.5 2.5 0 0 0 5 0V2a1 1 0 0 0-1-1M1 5h5M1 8.5h5"></path></g></svg>
