<svg xmlns="http://www.w3.org/2000/svg" fill="none" viewBox="0 0 14 14"><g stroke-linecap="round" stroke-linejoin="round"><path stroke="var(--sl-c-c71dff,#c71dff)" d="M12.416 1.584a3.49 3.49 0 0 0-4.96 0L2.902 6.137a2.98 2.98 0 0 0-.526 3.502L.838 11.177a.99.99 0 0 0 0 1.399l.586.585a.99.99 0 0 0 1.398 0l1.538-1.537a2.98 2.98 0 0 0 3.502-.526l4.554-4.554a3.49 3.49 0 0 0 0-4.96"></path><path stroke="var(--sl-c-000cfe,#000cfe)" d="M11.28.819c.425.177.812.437 1.136.765a3.49 3.49 0 0 1 0 4.96l-1.448 1.448-4.96-4.96 1.448-1.448A3.49 3.49 0 0 1 11.28.819m-6.761.725 7.937 7.937"></path></g></svg>
