<svg xmlns="http://www.w3.org/2000/svg" fill="none" viewBox="0 0 14 14"><g stroke-linecap="round" stroke-linejoin="round"><path stroke="var(--sl-c-c71dff,#c71dff)" d="M4.5 13a4 4 0 1 0 0-8 4 4 0 0 0 0 8"></path><path stroke="var(--sl-c-c71dff,#c71dff)" d="M9.5 13a4 4 0 1 0 0-8 4 4 0 0 0 0 8"></path><path stroke="var(--sl-c-000cfe,#000cfe)" d="M7 5.877A4 4 0 0 0 5.5 9c0 1.263.586 2.39 1.5 3.123A4 4 0 0 0 8.5 9c0-1.263-.586-2.39-1.5-3.123"></path><path stroke="var(--sl-c-c71dff,#c71dff)" d="M7 9a4 4 0 1 0 0-8 4 4 0 0 0 0 8"></path><path stroke="var(--sl-c-000cfe,#000cfe)" d="M10.99 5.287a4 4 0 0 1-5.48 3.426 4 4 0 0 1 5.48-3.426"></path><path stroke="var(--sl-c-000cfe,#000cfe)" d="M8.49 8.713a4 4 0 0 1-5.48-3.427 4 4 0 0 1 5.48 3.427"></path></g></svg>
