<svg xmlns="http://www.w3.org/2000/svg" fill="none" viewBox="0 0 14 14"><g stroke-linecap="round" stroke-linejoin="round"><path stroke="var(--sl-c-000cfe,#000cfe)" d="M.63 5.53v3.92c0 .541.439.98.98.98h5.88a.98.98 0 0 0 .98-.98V5.53a.98.98 0 0 0-.98-.98H1.61a.98.98 0 0 0-.98.98m2.45 6.86h2.94m-1.47 0v-1.96"></path><g stroke="var(--sl-c-000cfe,#000cfe)"><path d="M11.533 3.693a.123.123 0 0 1 0-.245"></path><path d="M11.532 3.693a.123.123 0 0 0 0-.245"></path></g><path stroke="var(--sl-c-c71dff,#c71dff)" d="M13.37 6.02V2.1a.49.49 0 0 0-.49-.49h-4.9a.49.49 0 0 0-.49.49v.49m1.47 9.8h3.92c.27 0 .49-.22.49-.49V6.02h-2.94"></path></g></svg>
