<svg xmlns="http://www.w3.org/2000/svg" fill="none" viewBox="0 0 14 14"><g stroke-linecap="round" stroke-linejoin="round"><path stroke="var(--sl-c-000cfe,#000cfe)" d="M4.65 7v2.31m1.156-1.154-2.311 0M7 5.024V4.012a1 1 0 0 1 1-1h1.466a1 1 0 0 0 1-1V1m-.5 6.495a.248.248 0 1 1 0-.495m0 .495a.248.248 0 0 0 0-.495M8.233 8.733a.248.248 0 0 1 .496 0m-.496 0a.248.248 0 0 0 .496 0"></path><path stroke="var(--sl-c-c71dff,#c71dff)" d="m1.374 7.68-.359 2.962C.864 11.898 1.89 13 3.211 13c.843 0 1.613-.46 1.984-1.184l.358-.7h2.894l.358.7C9.177 12.54 9.946 13 10.79 13c1.321 0 2.347-1.102 2.195-2.358l-.358-2.963c-.183-1.513-1.522-2.655-3.114-2.655H4.488c-1.592 0-2.931 1.142-3.114 2.655"></path></g></svg>
