<svg xmlns="http://www.w3.org/2000/svg" fill="none" viewBox="0 0 14 14"><g stroke-linecap="round" stroke-linejoin="round"><path stroke="var(--sl-c-000cfe,#000cfe)" d="M7.504 7.986a1.7 1.7 0 0 0 1.957-.461l.246-.247a.533.533 0 0 0 .096-.732l-.796-.795a.533.533 0 0 0-.732.095.533.533 0 0 1-.732.095L6.271 4.67a.533.533 0 0 1 .095-.732.533.533 0 0 0 .096-.732l-.796-.796a.533.533 0 0 0-.732.096l-.246.246a1.71 1.71 0 0 0-.462 1.957 9.55 9.55 0 0 0 3.278 3.278M11.5 10.5v3"></path><path stroke="var(--sl-c-c71dff,#c71dff)" d="M12.5 13.5H3a1.5 1.5 0 1 1 0-3h8.5a1 1 0 0 0 1-1v-8a1 1 0 0 0-1-1H3a1.5 1.5 0 0 0-1.5 1.46v10"></path></g></svg>
