<svg xmlns="http://www.w3.org/2000/svg" fill="none" viewBox="0 0 14 14"><g stroke-linecap="round" stroke-linejoin="round"><path stroke="var(--sl-c-000cfe,#000cfe)" d="M3.784 1.804C4.186 1.536 5.392 1 7 1s2.814.536 3.216.804M5.392 3.469c.268-.134.965-.402 1.608-.402s1.34.268 1.608.402M4.65 7.25v2.31m1.156-1.154-2.311 0"></path><path stroke="var(--sl-c-c71dff,#c71dff)" d="m1.374 7.93-.359 2.712C.864 11.898 1.89 13 3.211 13c.843 0 1.613-.46 1.984-1.184l.358-.7h2.894l.358.7C9.177 12.54 9.946 13 10.79 13c1.321 0 2.347-1.102 2.195-2.358l-.358-2.713c-.183-1.513-1.522-2.655-3.114-2.655H4.488c-1.592 0-2.931 1.142-3.114 2.655"></path><path stroke="var(--sl-c-000cfe,#000cfe)" d="M9.966 7.745a.248.248 0 1 1 0-.495m0 .495a.248.248 0 0 0 0-.495M8.233 8.983a.248.248 0 0 1 .496 0m-.496 0a.248.248 0 0 0 .496 0"></path></g></svg>
