<svg xmlns="http://www.w3.org/2000/svg" fill="none" viewBox="0 0 14 14"><g stroke-linecap="round" stroke-linejoin="round"><path stroke="var(--sl-c-000cfe,#000cfe)" d="M4.4 5.02v2.31m1.156-1.155-2.311 0"></path><path stroke="var(--sl-c-c71dff,#c71dff)" d="m.963 4.98-.45 4.242c-.141 1.328.91 2.485 2.258 2.485.898 0 1.712-.524 2.076-1.337l.4-.894h3.505l.4.894a2.27 2.27 0 0 0 2.077 1.337c1.348 0 2.4-1.157 2.258-2.485l-.45-4.243a3.02 3.02 0 0 0-3.012-2.686h-6.05c-1.55 0-2.85 1.16-3.012 2.686"></path><path stroke="var(--sl-c-000cfe,#000cfe)" d="M10.466 5.514a.248.248 0 0 1 0-.495m0 .495a.248.248 0 0 0 0-.495M8.733 6.752a.248.248 0 0 1 .496 0m-.496 0a.248.248 0 0 0 .496 0"></path></g></svg>
