<svg xmlns="http://www.w3.org/2000/svg" fill="none" viewBox="0 0 14 14"><g stroke-linecap="round" stroke-linejoin="round"><path stroke="var(--sl-c-c71dff,#c71dff)" d="M8.5 8.25h3m-3 2.5h3"></path><path stroke="var(--sl-c-000cfe,#000cfe)" d="M13.5 12.5v-6a1 1 0 0 0-1-1h-5a1 1 0 0 0-1 1v6a1 1 0 0 0 1 1h5a1 1 0 0 0 1-1"></path><path stroke="var(--sl-c-c71dff,#c71dff)" d="M2.5 1.5h-1a1 1 0 0 0-1 1v7a1 1 0 0 0 1 1h3m2-9h1a1 1 0 0 1 1 1v1"></path><path stroke="var(--sl-c-000cfe,#000cfe)" d="M5.5 2.5h-2a1 1 0 0 1 0-2h2a1 1 0 0 1 0 2"></path></g></svg>
