<svg xmlns="http://www.w3.org/2000/svg" fill="none" viewBox="0 0 14 14"><g stroke-linecap="round" stroke-linejoin="round"><path stroke="var(--sl-c-000cfe,#000cfe)" d="M7 9.563a1.25 1.25 0 1 0 0-2.5 1.25 1.25 0 0 0 0 2.5M1.594 4.5H1A.5.5 0 0 1 .5 4V1A.5.5 0 0 1 1 .5h12a.5.5 0 0 1 .5.5v3a.5.5 0 0 1-.5.5h-.594M7 5.335a.125.125 0 0 1 0-.25m0 .25a.125.125 0 1 0 0-.25m0 6.51a.125.125 0 0 1 0-.25m0 .25a.125.125 0 0 0 0-.25"></path><path stroke="var(--sl-c-c71dff,#c71dff)" d="M9.962 3.125H4.038c-.297 0-.538.224-.538.5V13c0 .276.241.5.538.5h5.924c.297 0 .538-.224.538-.5V3.625c0-.276-.241-.5-.538-.5"></path></g></svg>
