<svg xmlns="http://www.w3.org/2000/svg" fill="none" viewBox="0 0 14 14"><g stroke-linecap="round" stroke-linejoin="round"><path stroke="var(--sl-c-000cfe,#000cfe)" d="M7 2.833v2.25m1.75 5.271s-.55.584-1.75.584-1.75-.584-1.75-.584m-.208-2.208a.25.25 0 0 1 0-.5m0 .5a.25.25 0 0 0 0-.5m3.916.5a.25.25 0 0 1 0-.5m0 .5a.25.25 0 0 0 0-.5"></path><path stroke="var(--sl-c-c71dff,#c71dff)" d="M8.166 1.667a1.167 1.167 0 1 1-2.333 0 1.167 1.167 0 0 1 2.333 0M1.5 11.5V7.083a2 2 0 0 1 2-2h7a2 2 0 0 1 2 2V11.5a2 2 0 0 1-2 2h-7a2 2 0 0 1-2-2"></path></g></svg>
