<svg xmlns="http://www.w3.org/2000/svg" fill="none" viewBox="0 0 14 14"><g stroke-linecap="round" stroke-linejoin="round"><path stroke="var(--sl-c-000cfe,#000cfe)" d="m7 4.5 0-1.86m0 0A1.07 1.07 0 1 0 7 .5a1.07 1.07 0 0 0 0 2.14M12.5 10h-.95a1 1 0 0 0-.834.446l-.3.452a1 1 0 0 1-.833.447H4.416a1 1 0 0 1-.833-.447l-.3-.452A1 1 0 0 0 2.45 10H1.5M5 8.054a.25.25 0 0 1 0-.5m0 .5a.25.25 0 0 0 0-.5m4 .5a.25.25 0 0 1 0-.5m0 .5a.25.25 0 0 0 0-.5"></path><path stroke="var(--sl-c-c71dff,#c71dff)" d="M1.5 12.5V10a5.5 5.5 0 1 1 11 0v2.5a1 1 0 0 1-1 1h-9a1 1 0 0 1-1-1"></path></g></svg>
