<svg xmlns="http://www.w3.org/2000/svg" fill="none" viewBox="0 0 14 14"><g stroke-linecap="round" stroke-linejoin="round"><path stroke="var(--sl-c-c71dff,#c71dff)" d="M3.5 1S6 1 6 3.5v0S6 6 3.5 6h0S1 6 1 3.5v0S1 1 3.5 1"></path><path stroke="var(--sl-c-000cfe,#000cfe)" d="M10.5 1S13 1 13 3.5v0S13 6 10.5 6h0S8 6 8 3.5v0S8 1 10.5 1m-7 7S6 8 6 10.5v0S6 13 3.5 13h0S1 13 1 10.5v0S1 8 3.5 8"></path><path stroke="var(--sl-c-c71dff,#c71dff)" d="M10.5 8S13 8 13 10.5v0s0 2.5-2.5 2.5h0S8 13 8 10.5v0S8 8 10.5 8"></path></g></svg>
