<svg xmlns="http://www.w3.org/2000/svg" fill="none" viewBox="0 0 14 14"><g stroke-linecap="round" stroke-linejoin="round"><path stroke="var(--sl-c-c71dff,#c71dff)" d="M12.5 6h-4a.5.5 0 0 0-.5.5v6a.5.5 0 0 0 .5.5h4a.5.5 0 0 0 .5-.5v-6a.5.5 0 0 0-.5-.5"></path><path stroke="var(--sl-c-000cfe,#000cfe)" d="M12.5 1h-4a.5.5 0 0 0-.5.5v2.01a.5.5 0 0 0 .5.5h4a.5.5 0 0 0 .5-.5V1.5a.5.5 0 0 0-.5-.5"></path><path stroke="var(--sl-c-c71dff,#c71dff)" d="M5.5 1h-4a.5.5 0 0 0-.5.5v6a.5.5 0 0 0 .5.5h4a.5.5 0 0 0 .5-.5v-6a.5.5 0 0 0-.5-.5"></path><path stroke="var(--sl-c-000cfe,#000cfe)" d="M5.5 9.99h-4a.5.5 0 0 0-.5.5v2.01a.5.5 0 0 0 .5.5h4a.5.5 0 0 0 .5-.5v-2.01a.5.5 0 0 0-.5-.5"></path></g></svg>
