<svg xmlns="http://www.w3.org/2000/svg" fill="none" viewBox="0 0 14 14"><g stroke-linecap="round" stroke-linejoin="round"><path stroke="var(--sl-c-c71dff,#c71dff)" d="M.5 2.62v6.76c0 1.097 2.163 2 4.935 2.109M11.5 5V2.62"></path><path stroke="var(--sl-c-c71dff,#c71dff)" d="M.5 6c0 1.086 2.118 1.981 4.849 2.105"></path><path stroke="var(--sl-c-000cfe,#000cfe)" d="M6 4.74c3.038 0 5.5-.95 5.5-2.12S9.038.5 6 .5.5 1.45.5 2.62 2.962 4.74 6 4.74m3.61 3.105.216-.558a.5.5 0 0 1 .468-.322h.412a.5.5 0 0 1 .468.322l.216.558.734.422.593-.09a.5.5 0 0 1 .503.246l.2.352a.5.5 0 0 1-.04.568l-.367.467v.845l.377.467a.5.5 0 0 1 .04.568l-.2.352a.5.5 0 0 1-.503.246l-.593-.09-.734.422-.216.558a.5.5 0 0 1-.468.322h-.422a.5.5 0 0 1-.468-.322l-.216-.558-.734-.422-.593.09a.5.5 0 0 1-.503-.246l-.2-.352a.5.5 0 0 1 .04-.568l.367-.467V9.81l-.377-.467a.5.5 0 0 1-.04-.568l.2-.352a.5.5 0 0 1 .503-.246l.593.09z"></path><path stroke="var(--sl-c-000cfe,#000cfe)" d="M10 10.232a.5.5 0 1 0 1 0 .5.5 0 1 0-1 0"></path></g></svg>
