<svg xmlns="http://www.w3.org/2000/svg" fill="none" viewBox="0 0 14 14"><g stroke-linecap="round" stroke-linejoin="round"><path stroke="var(--sl-c-c71dff,#c71dff)" d="M.5 2.62v6.76c0 1.17 2.462 2.12 5.5 2.12q.188 0 .373-.005M11.5 5V2.62"></path><path stroke="var(--sl-c-c71dff,#c71dff)" d="M.5 6C.5 7.17 2.962 8.12 6 8.12q.716 0 1.377-.067"></path><path stroke="var(--sl-c-000cfe,#000cfe)" d="M6 4.74c3.038 0 5.5-.95 5.5-2.12S9.038.5 6 .5.5 1.45.5 2.62 2.962 4.74 6 4.74M8.5 13v-2.5A.5.5 0 0 1 9 10h4a.5.5 0 0 1 .5.5V13a.5.5 0 0 1-.5.5H9a.5.5 0 0 1-.5-.5m.75-3V8.75a1.75 1.75 0 1 1 3.5 0V10"></path></g></svg>
