<svg xmlns="http://www.w3.org/2000/svg" fill="none" viewBox="0 0 14 14"><g stroke-linecap="round" stroke-linejoin="round"><path stroke="var(--sl-c-c71dff,#c71dff)" d="M12 1H2a1 1 0 0 0-1 1v4a1 1 0 0 0 1 1h10a1 1 0 0 0 1-1V2a1 1 0 0 0-1-1"></path><path stroke="var(--sl-c-000cfe,#000cfe)" d="M3.5 4.5a.5.5 0 1 0 0-1 .5.5 0 0 0 0 1m4-.5H11"></path><path stroke="var(--sl-c-c71dff,#c71dff)" d="M2 7a1 1 0 0 0-1 1v4a1 1 0 0 0 1 1h10a1 1 0 0 0 1-1V8a1 1 0 0 0-1-1"></path><path stroke="var(--sl-c-000cfe,#000cfe)" d="M3.5 10.5a.5.5 0 1 0 0-1 .5.5 0 0 0 0 1m4-.5H11"></path></g></svg>
