<svg xmlns="http://www.w3.org/2000/svg" fill="none" viewBox="0 0 14 14"><g stroke-linecap="round" stroke-linejoin="round"><path stroke="var(--sl-c-c71dff,#c71dff)" d="M.5 2.62v6.76c0 .983 1.737 1.81 4.093 2.05M11.5 6.75V2.62"></path><path stroke="var(--sl-c-c71dff,#c71dff)" d="M6 8.12C2.962 8.12.5 7.17.5 6"></path><path stroke="var(--sl-c-000cfe,#000cfe)" d="M6 4.74c3.038 0 5.5-.95 5.5-2.12S9.038.5 6 .5.5 1.45.5 2.62 2.962 4.74 6 4.74m4 3.76a2.5 2.5 0 0 1 2.5 2.5v1.5m-2.5 1A2.5 2.5 0 0 1 7.5 11V9.5"></path><path stroke="var(--sl-c-000cfe,#000cfe)" d="m6.5 10.5 1-1 1 1m3 1 1 1 1-1"></path></g></svg>
