<svg xmlns="http://www.w3.org/2000/svg" fill="none" viewBox="0 0 14 14"><g stroke-linecap="round" stroke-linejoin="round"><path stroke="var(--sl-c-000cfe,#000cfe)" d="M3.25 8.375a.25.25 0 0 1 0-.5m0 .5a.25.25 0 0 0 0-.5m0-4.25a.25.25 0 0 1 0-.5m0 .5a.25.25 0 0 0 0-.5M7 10.5V13m-5 0h10M7.5 3.375H11m-3.5 4.75H11"></path><path stroke="var(--sl-c-c71dff,#c71dff)" d="M12 1H2a1 1 0 0 0-1 1v2.75a1 1 0 0 0 1 1h10a1 1 0 0 0 1-1V2a1 1 0 0 0-1-1M2 5.75a1 1 0 0 0-1 1V9.5a1 1 0 0 0 1 1h10a1 1 0 0 0 1-1V6.75a1 1 0 0 0-1-1"></path></g></svg>
