<svg xmlns="http://www.w3.org/2000/svg" fill="none" viewBox="0 0 14 14"><g stroke-linecap="round" stroke-linejoin="round"><path stroke="var(--sl-c-000cfe,#000cfe)" d="M10.92 8.47v4.9M9.287 9.695h.408c.677 0 1.225-.549 1.225-1.226h0m1.633 4.901H9.287m.903-9.953.643 0a1.393 1.393 0 0 0 0-2.786l-.643 0a1.393 1.393 0 1 0 0 2.786"></path><path stroke="var(--sl-c-000cfe,#000cfe)" d="M12.227 1.917v2.572c0 .71-.576 1.287-1.287 1.287h-.857c-.56 0-1.037-.358-1.213-.858"></path><path stroke="var(--sl-c-c71dff,#c71dff)" d="m6.347 10.92-2.45 2.45-2.45-2.45M3.897.63v12.74"></path></g></svg>
