<svg xmlns="http://www.w3.org/2000/svg" fill="none" viewBox="0 0 14 14"><g stroke-linecap="round" stroke-linejoin="round"><path stroke="var(--sl-c-000cfe,#000cfe)" d="m6 11-1 2.5M8 11l1 2.5m-5 0h6M10.272.653l.836 1.682a.26.26 0 0 0 .214.155l1.857.282a.282.282 0 0 1 .155.486l-1.37 1.303a.27.27 0 0 0 0 .252l.262 1.847a.282.282 0 0 1-.418.302l-1.652-.875a.33.33 0 0 0-.272 0l-1.653.875a.282.282 0 0 1-.418-.302l.311-1.847a.27.27 0 0 0-.048-.252l-1.37-1.312a.282.282 0 0 1 .155-.477L8.717 2.5a.26.26 0 0 0 .214-.155L9.767.663a.282.282 0 0 1 .505-.01"></path><path stroke="var(--sl-c-c71dff,#c71dff)" d="M4.722 2 1 2a.5.5 0 0 0-.5.5v8a.5.5 0 0 0 .5.5h12a.5.5 0 0 0 .5-.5V8.384"></path></g></svg>
