<svg xmlns="http://www.w3.org/2000/svg" fill="none" viewBox="0 0 14 14"><g stroke-linecap="round" stroke-linejoin="round"><path stroke="var(--sl-c-000cfe,#000cfe)" d="m6 11-1 2.5M8 11l1 2.5m-5 0h6m3.434-11.055a1.17 1.17 0 0 0-1.1-.778h-.904a1.041 1.041 0 0 0-.222 2.059l1.375.3a1.167 1.167 0 0 1-.25 2.308h-.778c-.508 0-.94-.325-1.1-.778m1.49-3.889V.5m0 7V6.333"></path><path stroke="var(--sl-c-c71dff,#c71dff)" d="M8.222 2 1 2a.5.5 0 0 0-.5.5v8a.5.5 0 0 0 .5.5h12a.5.5 0 0 0 .5-.5V8.884"></path></g></svg>
