<svg xmlns="http://www.w3.org/2000/svg" fill="none" viewBox="0 0 14 14"><g stroke-linecap="round" stroke-linejoin="round"><path stroke="var(--sl-c-000cfe,#000cfe)" d="m6 11-1 2.5M8 11l1 2.5m-5 0h6m.852-8.798.103.308a1.306 1.306 0 0 0 2.537-.558l-.202-1.816A2.4 2.4 0 0 0 10.904.5H7.991c-1.223 0-2.25.92-2.386 2.136l-.202 1.816a1.306 1.306 0 0 0 2.538.558l.102-.308c.12-.358.455-.6.833-.6h1.143c.378 0 .714.242.833.6"></path><path stroke="var(--sl-c-c71dff,#c71dff)" d="M3.472 2 1 2a.5.5 0 0 0-.5.5v8a.5.5 0 0 0 .5.5h12a.5.5 0 0 0 .5-.5V7.884"></path></g></svg>
