<svg xmlns="http://www.w3.org/2000/svg" fill="none" viewBox="0 0 14 14"><g stroke-linecap="round" stroke-linejoin="round"><path stroke="var(--sl-c-000cfe,#000cfe)" d="M6 10.5 5 13m3-2.5L9 13m-5 0h6M4.557 6.821c.476.485 1.317.929 2.443.929s1.967-.444 2.443-.929M5.25 4.25a.25.25 0 0 1 0-.5m0 .5a.25.25 0 0 0 0-.5m3.5.5a.25.25 0 0 1 0-.5m0 .5a.25.25 0 1 0 0-.5"></path><path stroke="var(--sl-c-c71dff,#c71dff)" d="M13 1H1a.5.5 0 0 0-.5.5V10a.5.5 0 0 0 .5.5h12a.5.5 0 0 0 .5-.5V1.5A.5.5 0 0 0 13 1"></path></g></svg>
