<svg xmlns="http://www.w3.org/2000/svg" fill="none" viewBox="0 0 14 14"><g stroke-linecap="round" stroke-linejoin="round"><path stroke="var(--sl-c-c71dff,#c71dff)" d="M.5 5.425v3.15M.5.5v3.15m0 6.7v3.15M7.63.5v3.15M10.008.5v3.15M2.973 5.425v3.15m.017-6.901a1.174 1.174 0 1 1 2.35 0v.783a1.174 1.174 0 0 1-2.35 0zM5.269 6.6a1.174 1.174 0 0 1 2.348 0v.782a1.174 1.174 0 1 1-2.348 0zM2.99 11.543a1.174 1.174 0 0 1 2.35 0v.783a1.174 1.174 0 1 1-2.35 0z"></path><path stroke="var(--sl-c-000cfe,#000cfe)" d="M8.5 13v-2.5A.5.5 0 0 1 9 10h4a.5.5 0 0 1 .5.5V13a.5.5 0 0 1-.5.5H9a.5.5 0 0 1-.5-.5m.75-3V8.75a1.75 1.75 0 1 1 3.5 0V10"></path></g></svg>
