<svg xmlns="http://www.w3.org/2000/svg" fill="none" viewBox="0 0 14 14"><g stroke-linecap="round" stroke-linejoin="round"><path stroke="var(--sl-c-000cfe,#000cfe)" d="M7 5.417V.5m0 13 0-4.917M8.583 7 13.5 7M.5 7h4.917M8.12 5.88l3.476-3.476m-9.192 9.192L5.88 8.12m2.24 0 3.476 3.476M2.404 2.404 5.88 5.88"></path><path stroke="var(--sl-c-c71dff,#c71dff)" d="M.5 7a6.5 6.5 0 1 0 13 0 6.5 6.5 0 1 0-13 0"></path><path stroke="var(--sl-c-c71dff,#c71dff)" d="M5.417 7a1.583 1.583 0 1 0 3.166 0 1.583 1.583 0 1 0-3.166 0"></path></g></svg>
