<svg xmlns="http://www.w3.org/2000/svg" fill="none" viewBox="0 0 14 14"><g stroke-linecap="round" stroke-linejoin="round"><path stroke="var(--sl-c-000cfe,#000cfe)" d="M6.48 1.5 4.04 5.304 7 12.5m.55-11 2.43 3.804L7 12.5M.52 5.31h12.96"></path><path stroke="var(--sl-c-c71dff,#c71dff)" d="M10.638 1.5H3.362a1.07 1.07 0 0 0-.85.462L.692 4.494a1.06 1.06 0 0 0 .06 1.297l5.458 6.32a1 1 0 0 0 1.23.287 1 1 0 0 0 .35-.287l5.457-6.32a1.06 1.06 0 0 0 .06-1.297l-1.819-2.532a1.07 1.07 0 0 0-.85-.462"></path></g></svg>
