<svg xmlns="http://www.w3.org/2000/svg" fill="none" viewBox="0 0 14 14"><g stroke-linecap="round"><path stroke="var(--sl-c-000cfe,#000cfe)" d="M11 9a.25.25 0 1 1 0-.5m0 .5a.25.25 0 1 0 0-.5M8.5 11a.25.25 0 1 1 0-.5m0 .5a.25.25 0 1 0 0-.5m-5.25-7a.25.25 0 0 1 0-.5m0 .5a.25.25 0 0 0 0-.5"></path><path stroke="var(--sl-c-c71dff,#c71dff)" stroke-linejoin="round" d="M12.5 6H7a1 1 0 0 0-1 1v5.5a1 1 0 0 0 1 1h5.5a1 1 0 0 0 1-1V7a1 1 0 0 0-1-1M8 4V1.5a1 1 0 0 0-1-1H1.5a1 1 0 0 0-1 1V7a1 1 0 0 0 1 1H4"></path></g></svg>
