<svg xmlns="http://www.w3.org/2000/svg" fill="none" viewBox="0 0 14 14"><g stroke-linecap="round" stroke-linejoin="round"><path stroke="var(--sl-c-c71dff,#c71dff)" d="M12.5 8.484C12.5 3.402 7.864 1.05 5.68.5c.817 1.978.773 3.443-.282 5.247-.17.292-.586.321-.816.07L3.241 4.343c-3.51 3.61-1.49 9.418 4.068 9.148 4.253-.254 5.191-3.46 5.191-5.007"></path><path stroke="var(--sl-c-000cfe,#000cfe)" d="M5.347 10.924 8.63 7.64m-2.886.478a.25.25 0 0 1 0-.5m0 .5a.25.25 0 1 0 0-.5m2.659 3.329a.25.25 0 0 1 0-.5m0 .5a.25.25 0 0 0 0-.5"></path></g></svg>
