<svg xmlns="http://www.w3.org/2000/svg" fill="none" viewBox="0 0 14 14"><g stroke-linecap="round" stroke-linejoin="round"><path stroke="var(--sl-c-000cfe,#000cfe)" d="M4.112 6.423a.5.5 0 1 0 1 0 .5.5 0 1 0-1 0m4.5 0a.5.5 0 1 0 1 0 .5.5 0 1 0-1 0"></path><path stroke="var(--sl-c-c71dff,#c71dff)" d="M3.75 9.09c.283.282.877.565 1.633.743a7.1 7.1 0 0 0 3.234 0c.756-.178 1.35-.46 1.633-.744"></path><path stroke="var(--sl-c-c71dff,#c71dff)" d="M4.801 2.191c-1.904.128-2.444.398-2.444.398C1.43 3.982.5 7.418.5 10.018c.31.464 1.393 1.486 3.25 1.857l1.633-2.042a7.1 7.1 0 0 0 3.234 0l1.633 2.042c1.857-.371 2.94-1.393 3.25-1.857 0-2.6-.929-6.036-1.857-7.429 0 0-.54-.27-2.444-.398L9 3.25H5z"></path></g></svg>
