<svg xmlns="http://www.w3.org/2000/svg" fill="none" viewBox="0 0 14 14"><g stroke-linecap="round" stroke-linejoin="round"><path stroke="var(--sl-c-000cfe,#000cfe)" d="m4.94 4.93 4.13 4.13"></path><path stroke="var(--sl-c-c71dff,#c71dff)" d="M10.1 3.9a4.65 4.65 0 0 0 3.4.1"></path><path stroke="var(--sl-c-c71dff,#c71dff)" d="M6.6 10.37a4.8 4.8 0 0 0 2.47-1.31 4.73 4.73 0 0 0 1-5.16A4.65 4.65 0 0 1 10 .5M.5 10a4.6 4.6 0 0 1 3.4.11"></path><path stroke="var(--sl-c-c71dff,#c71dff)" d="M4 13.5a4.68 4.68 0 0 0-.1-3.41 4.74 4.74 0 0 1 1-5.16 4.8 4.8 0 0 1 2.46-1.3"></path></g></svg>
