<svg xmlns="http://www.w3.org/2000/svg" fill="none" viewBox="0 0 14 14"><g stroke-linecap="round" stroke-linejoin="round"><path stroke="var(--sl-c-000cfe,#000cfe)" d="M1 1h4m4 0h4M3 1v3m8-3v3"></path><path stroke="var(--sl-c-c71dff,#c71dff)" d="M3.5 7h7"></path><path stroke="var(--sl-c-000cfe,#000cfe)" d="M4 8.65A4.48 4.48 0 0 0 2.5 12v1h1M10 8.65A4.48 4.48 0 0 1 11.5 12v1h-1"></path><path stroke="var(--sl-c-c71dff,#c71dff)" d="M13 4H1v1a2 2 0 0 0 2 2h.5a3 3 0 0 0 3 3h1a3 3 0 0 0 3-3h.5a2 2 0 0 0 2-2z"></path></g></svg>
