<svg xmlns="http://www.w3.org/2000/svg" fill="none" viewBox="0 0 14 14"><g stroke-linecap="round" stroke-linejoin="round"><path stroke="var(--sl-c-c71dff,#c71dff)" d="M1 3.677C1.312 2.785 2.542 1 4.96 1c3.022 0 4.756 2.568 4.227 4.972-.46 2.084-1.76 2.81-2.334 3.308-.43.373-.71.831-.887 1.332C5.53 11.852 4.61 13 3.295 13A2.295 2.295 0 0 1 1 10.705v-.04"></path><path stroke="var(--sl-c-000cfe,#000cfe)" d="M13 8.906A4.097 4.097 0 0 1 8.9 13m1.858-4.172a1.856 1.856 0 0 1-1.857 1.855M2.798 4.974c.181-.446.827-1.318 1.962-1.233 1.134.085 2.109 1.233 1.707 2.298-.402 1.066-.933.736-1.415 1.452-.483.717-.303 2.155-1.378 2.37-.67.133-1.02-.25-1.02-.25"></path></g></svg>
