<svg xmlns="http://www.w3.org/2000/svg" fill="none" viewBox="0 0 14 14"><g stroke-linecap="round" stroke-linejoin="round"><path stroke="var(--sl-c-000cfe,#000cfe)" d="M13.077 8.115h-1.48a1.48 1.48 0 0 1-1.482-1.48v-1.27a1.48 1.48 0 0 0-1.48-1.48 1.48 1.48 0 0 1-1.481-1.481V.559M1.677 7.09l1.06.29a.34.34 0 0 1 .24.32V9l4.4.52a2.48 2.48 0 0 1 2.31 3 .66.66 0 0 1-.83.47l-2.65-.71-.23-.02-1.33 1.15a.39.39 0 0 1-.34.08l-1.2-.33a.36.36 0 0 1-.17-.61l.83-.88-.17-.05-2.59-.7a.67.67 0 0 1-.49-.8l.76-2.81a.34.34 0 0 1 .4-.22"></path><path stroke="var(--sl-c-c71dff,#c71dff)" d="M2.608 4.91A5.502 5.502 0 0 1 13.5 6a5.5 5.5 0 0 1-1.867 4.13"></path></g></svg>
