<svg xmlns="http://www.w3.org/2000/svg" fill="none" viewBox="0 0 14 14"><g stroke-linecap="round" stroke-linejoin="round"><path stroke="var(--sl-c-c71dff,#c71dff)" d="M7.47 13.07a2.7 2.7 0 0 0 3.37-.36l.38-.38a.91.91 0 0 0 0-1.28l-1.6-1.59a.9.9 0 0 0-1.27 0v0a.91.91 0 0 1-1.28 0L4.52 6.91a.91.91 0 0 1 0-1.28v0a.9.9 0 0 0 0-1.27l-1.54-1.6a.91.91 0 0 0-1.28 0l-.38.38a2.7 2.7 0 0 0-.41 3.37 24.2 24.2 0 0 0 6.56 6.56"></path><path stroke="var(--sl-c-000cfe,#000cfe)" d="M10.056.5a.427.427 0 0 0-.427.427V2.13l-1.202 0A.427.427 0 0 0 8 2.556v1.388c0 .236.191.427.427.427H9.63v1.202c0 .236.19.427.427.427h1.388a.427.427 0 0 0 .427-.427V4.37h1.202a.427.427 0 0 0 .427-.427V2.556a.427.427 0 0 0-.427-.427l-1.202 0V.927A.427.427 0 0 0 11.444.5z"></path></g></svg>
