<svg xmlns="http://www.w3.org/2000/svg" fill="none" viewBox="0 0 14 14"><g stroke-linecap="round" stroke-linejoin="round"><path stroke="var(--sl-c-c71dff,#c71dff)" d="M11.91 6.536c.59 1.434 1.106 3.29 1.09 4.31-.022 1.373-.857 2.154-1.714 2.154-.778-.368-1.715-2.155-2.571-2.155h-3.43c-.856 0-1.793 1.787-2.571 2.155-.857 0-1.692-.78-1.714-2.155-.016-1.018.5-2.875 1.09-4.31"></path><path stroke="var(--sl-c-000cfe,#000cfe)" d="M3.285 1.929v2.285a.93.93 0 0 0 .929.929h5.571a.93.93 0 0 0 .929-.929V1.93l-1.857.928L6.999 1 5.142 2.857zM3.5 8.25a1 1 0 1 0 2 0 1 1 0 1 0-2 0m5 0a1 1 0 1 0 2 0 1 1 0 1 0-2 0"></path></g></svg>
