<svg xmlns="http://www.w3.org/2000/svg" fill="none" viewBox="0 0 14 14"><path stroke="var(--sl-c-c71dff,#c71dff)" stroke-linecap="round" stroke-linejoin="round" d="M1 12V2a1 1 0 0 1 1-1h10a1 1 0 0 1 1 1v10a1 1 0 0 1-1 1H9V9.01h.71a.61.61 0 0 0 .61-.61v-.77a.61.61 0 0 0-.61-.61h-.67v-.69c0-.84.38-.84.76-.84h.49a.55.55 0 0 0 .43-.18.58.58 0 0 0 .18-.43v-.74a.62.62 0 0 0-.6-.64c-1.066 0-2.154-.113-2.945.748-.727.791-.595 1.783-.595 2.772h-.64a.61.61 0 0 0-.62.61v.77a.61.61 0 0 0 .62.61h.64V13H2a1 1 0 0 1-1-1"></path></svg>
