<svg xmlns="http://www.w3.org/2000/svg" fill="none" viewBox="0 0 14 14"><g stroke-linecap="round" stroke-linejoin="round"><path stroke="var(--sl-c-c71dff,#c71dff)" d="M2.357 2.59A2.09 2.09 0 0 1 4.447.5H7v4.178H4.446a2.09 2.09 0 0 1-2.09-2.089"></path><path stroke="var(--sl-c-000cfe,#000cfe)" d="M11.643 2.59A2.09 2.09 0 0 0 9.553.5H7v4.178h2.554a2.09 2.09 0 0 0 2.09-2.089"></path><path stroke="var(--sl-c-c71dff,#c71dff)" d="M2.357 11.41a2.09 2.09 0 0 1 2.09-2.088H7v1.857A2.32 2.32 0 0 1 4.678 13.5h-.232a2.09 2.09 0 0 1-2.09-2.09"></path><path stroke="var(--sl-c-000cfe,#000cfe)" d="M2.357 7a2.32 2.32 0 0 1 2.321-2.322H7v4.643H4.678A2.32 2.32 0 0 1 2.357 7"></path><path stroke="var(--sl-c-c71dff,#c71dff)" d="M11.642 7A2.321 2.321 0 1 0 7 7a2.321 2.321 0 0 0 4.642 0"></path></g></svg>
