<svg xmlns="http://www.w3.org/2000/svg" fill="none" viewBox="0 0 14 14"><g stroke-linecap="round" stroke-linejoin="round"><path stroke="var(--sl-c-000cfe,#000cfe)" d="M10.5 5.5V12a1.5 1.5 0 0 0 1.5 1.5v0a1.5 1.5 0 0 0 1.5-1.5v-.316m-8-8.239a.25.25 0 0 1 0-.5m0 .5a.25.25 0 0 0 0-.5m0 5.11a.25.25 0 0 1 0-.5m0 .5a.25.25 0 0 0 0-.5M3.195 5.75a.25.25 0 0 1 0-.5m0 .5a.25.25 0 0 0 0-.5m4.61.5a.25.25 0 0 1 0-.5m0 .5a.25.25 0 0 0 0-.5"></path><path stroke="var(--sl-c-c71dff,#c71dff)" d="M.5 5.5a5 5 0 1 0 10 0 5 5 0 1 0-10 0"></path></g></svg>
