<svg xmlns="http://www.w3.org/2000/svg" fill="none" viewBox="0 0 14 14"><g stroke-linecap="round" stroke-linejoin="round"><path stroke="var(--sl-c-c71dff,#c71dff)" d="M7 13.5A5.5 5.5 0 0 0 12.5 8V6c0-1.33-.472-2.55-1.257-3.5M1.5 6.5V8a5.5 5.5 0 0 0 3.206 5M9.294 1A5.502 5.502 0 0 0 1.76 4.324"></path><path stroke="var(--sl-c-000cfe,#000cfe)" d="M4.17 5c-.11.313-.17.65-.17 1v2a3 3 0 0 0 5 2.236M6.387 3.063Q6.684 3 7 3a3 3 0 0 1 3 3v1.5"></path><path stroke="var(--sl-c-c71dff,#c71dff)" d="M7 6v2"></path></g></svg>
