<svg xmlns="http://www.w3.org/2000/svg" fill="none" viewBox="0 0 14 14"><g stroke-linecap="round"><path stroke="var(--sl-c-000cfe,#000cfe)" stroke-linejoin="round" d="M6.379 7.621.5 13.5"></path><path stroke="var(--sl-c-c71dff,#c71dff)" stroke-linejoin="round" d="m8.708 2.213 3.09 3.09-2.994 3.938a.5.5 0 0 1-.752.05L4.72 5.96a.5.5 0 0 1 .05-.751z"></path><path stroke="var(--sl-c-c71dff,#c71dff)" stroke-linejoin="round" d="M8.29 1.795a.7.7 0 0 1-.17-.262.54.54 0 0 1-.028-.282.4.4 0 0 1 .11-.232q.092-.091.232-.11l4.357-.407a.56.56 0 0 1 .263.041.73.73 0 0 1 .403.403.56.56 0 0 1 .04.263l-.394 4.369a.4.4 0 0 1-.11.231.4.4 0 0 1-.232.11.54.54 0 0 1-.274-.024.7.7 0 0 1-.259-.16z"></path><path stroke="var(--sl-c-000cfe,#000cfe)" stroke-linejoin="round" d="m8.4 10.976-.45.451M5.6 13.5l.45-.451m2.35.451-.45-.451"></path><path stroke="var(--sl-c-000cfe,#000cfe)" d="M6.293 11.458a2.17 2.17 0 0 1-.793-2.96"></path></g></svg>
