<svg xmlns="http://www.w3.org/2000/svg" fill="none" viewBox="0 0 14 14"><g stroke-linecap="round" stroke-linejoin="round"><path stroke="var(--sl-c-c71dff,#c71dff)" d="M6.412 4.538a.27.27 0 0 0-.277 0 .18.18 0 0 0-.041.235c.85 1.47 1.029 3.473-.131 4.578A3.8 3.8 0 0 1 4.927 7.97a2.69 2.69 0 0 0-1.38 2.416 3.245 3.245 0 0 0 3.452 3.107c2.223 0 3.376-1.38 3.452-3.107.09-2.071-1.381-4.619-4.04-5.848"></path><path stroke="var(--sl-c-000cfe,#000cfe)" d="M.5 4.5a4 4 0 0 1 4-4m9 4a4 4 0 0 0-4-4M3 4.5A1.5 1.5 0 0 1 4.5 3M11 4.5A1.5 1.5 0 0 0 9.5 3"></path></g></svg>
