<svg xmlns="http://www.w3.org/2000/svg" fill="none" viewBox="0 0 14 14"><g stroke-linecap="round" stroke-linejoin="round"><path stroke="var(--sl-c-000cfe,#000cfe)" d="M6 6.5h2M6 9h2m-4.5 1.121-2.17-2.17A2.83 2.83 0 0 1 .5 5.948v-.624A1.5 1.5 0 0 1 2.96 4.17l.54.45m7 5.501 2.17-2.17c.532-.532.83-1.252.83-2.003v-.624a1.5 1.5 0 0 0-2.46-1.153l-.54.45"></path><path stroke="var(--sl-c-c71dff,#c71dff)" d="M7 11.621c2.5 0 3.5-1.498 3.5-1.498v-5.49C9 4.633 8.25 2.379 7 2.379S5.031 4.633 3.5 4.633v5.49s1 1.498 3.5 1.498"></path></g></svg>
