<svg xmlns="http://www.w3.org/2000/svg" fill="none" viewBox="0 0 14 14"><g stroke-linecap="round" stroke-linejoin="round"><path stroke="var(--sl-c-000cfe,#000cfe)" d="M7 7.5a.5.5 0 1 0 0-1 .5.5 0 0 0 0 1m-4 0a.5.5 0 1 0 0-1 .5.5 0 0 0 0 1m8 0a.5.5 0 1 0 0-1 .5.5 0 0 0 0 1m-4 4a.5.5 0 1 0 0-1 .5.5 0 0 0 0 1m0-8a.5.5 0 1 0 0-1 .5.5 0 0 0 0 1"></path><path stroke="var(--sl-c-c71dff,#c71dff)" d="M10.5 1.5h2a1 1 0 0 1 1 1v2m-13 0v-2a1 1 0 0 1 1-1h2m7 11h2a1 1 0 0 0 1-1v-2m-13 0v2a1 1 0 0 0 1 1h2"></path></g></svg>
