<svg xmlns="http://www.w3.org/2000/svg" fill="none" viewBox="0 0 14 14"><g stroke-linecap="round" stroke-linejoin="round"><path stroke="var(--sl-c-000cfe,#000cfe)" d="M8.5 11.5H11a2 2 0 0 0 2-2v-.125c0-1.036-.84-1.875-1.875-1.875v0a.625.625 0 0 1-.625-.625V4L13 1.5"></path><path stroke="var(--sl-c-000cfe,#000cfe)" d="M10.5 5.5h1.75V2.25"></path><path stroke="var(--sl-c-c71dff,#c71dff)" d="M1 3.5V12a1 1 0 0 0 1 1h5.5a1 1 0 0 0 1-1V3.5a2 2 0 0 0-2-2H3a2 2 0 0 0-2 2"></path><path stroke="var(--sl-c-000cfe,#000cfe)" d="M8.5 4.5H1v3h7.5zM3 9.75v1"></path></g></svg>
