<svg xmlns="http://www.w3.org/2000/svg" fill="none" viewBox="0 0 14 14"><g stroke-linecap="round" stroke-linejoin="round"><path stroke="var(--sl-c-000cfe,#000cfe)" d="M7 3.792C7 2.954 6.023 1 4.557 1c-2.384 0-1.516 2.792-.374 2.792m2.817 0C7 2.954 7.977 1 9.443 1c2.384 0 1.516 2.792.374 2.792M7 13l0-6"></path><path stroke="var(--sl-c-c71dff,#c71dff)" d="M12.276 12V6.892H1.724V12a1 1 0 0 0 1 1h8.552a1 1 0 0 0 1-1M13 4.792v1.1a1 1 0 0 1-1 1H2a1 1 0 0 1-1-1v-1.1a1 1 0 0 1 1-1h10a1 1 0 0 1 1 1"></path></g></svg>
