<svg xmlns="http://www.w3.org/2000/svg" fill="none" viewBox="0 0 14 14"><g stroke-linecap="round" stroke-linejoin="round"><path stroke="var(--sl-c-000cfe,#000cfe)" d="M13.5 2.5h-7v5h7zm-3.5 0v5M8.5.5l1.5 2 1.5-2"></path><path stroke="var(--sl-c-c71dff,#c71dff)" d="m.5 11 2.444 2.036a2 2 0 0 0 1.28.464l6.443 0c.46 0 .833-.374.833-.834 0-.92-.746-1.667-1.667-1.667H5.354"></path><path stroke="var(--sl-c-c71dff,#c71dff)" d="m3.5 10 .75.75a1.06 1.06 0 0 0 1.5-1.5L4.586 8.085A2 2 0 0 0 3.172 7.5H.5"></path></g></svg>
