<svg xmlns="http://www.w3.org/2000/svg" fill="none" viewBox="0 0 14 14"><g stroke-linecap="round" stroke-linejoin="round"><path stroke="var(--sl-c-000cfe,#000cfe)" d="m9.47 8.178 4.03 1.745-4.03 1.746-4.03-1.746z"></path><path stroke="var(--sl-c-000cfe,#000cfe)" d="m7.269 10.72.004 1.9s.665.88 2.197.88c1.531 0 2.2-.88 2.2-.88l0-1.9m-6.23 2.275V9.924"></path><path stroke="var(--sl-c-c71dff,#c71dff)" d="M11.466 6.618a5.5 5.5 0 1 0-8.282 4.108M.5 6l11 0"></path><path stroke="var(--sl-c-c71dff,#c71dff)" d="M8.056 6.7q.044-.345.062-.694A9.5 9.5 0 0 0 6 .5a9.5 9.5 0 0 0-2.118 5.506c.042.808.187 1.602.427 2.365"></path></g></svg>
