<svg xmlns="http://www.w3.org/2000/svg" fill="none" viewBox="0 0 14 14"><g stroke-linecap="round" stroke-linejoin="round"><path stroke="var(--sl-c-000cfe,#000cfe)" d="M9.785 7.392V2.736M4.214 7.392V2.736M.5 4.983 7 9.146l6.5-4.163"></path><path stroke="var(--sl-c-c71dff,#c71dff)" d="M.5 3.746v7.436c0 .51.416.925.929.925h2.785V7.362L7 9.146l2.785-1.784v4.745h2.786a.927.927 0 0 0 .928-.925l0-7.436c0-1.085-.892-1.851-1.858-1.853-.337 0-.683.092-1.003.297L7 4.52 3.36 2.19C2.203 1.448.701 2.178.52 3.479a2 2 0 0 0-.019.267"></path></g></svg>
