<svg xmlns="http://www.w3.org/2000/svg" fill="none" viewBox="0 0 14 14"><path stroke="var(--sl-c-c71dff,#c71dff)" stroke-linecap="round" stroke-linejoin="round" d="M11.363 5.825H7.87a.51.51 0 0 0-.51.52v1.412a.51.51 0 0 0 .51.51h2.291a2.753 2.753 0 0 1-3.002 2.792c-2.241 0-3.322-1.902-3.322-4.063S5 2.934 7.16 2.934a4.07 4.07 0 0 1 2.642.86.49.49 0 0 0 .72-.22l.63-1.44a.51.51 0 0 0-.15-.631 7.07 7.07 0 0 0-3.802-1c-3.642-.01-6.123 2.82-6.123 6.493 0 3.672 2.491 6.504 6.083 6.504s5.764-2.562 5.764-6.004c0-1.1-.44-1.67-1.561-1.67"></path></svg>
