<svg xmlns="http://www.w3.org/2000/svg" fill="none" viewBox="0 0 14 14"><g stroke-linecap="round" stroke-linejoin="round"><path stroke="var(--sl-c-c71dff,#c71dff)" d="m1 9.51 2.392-2.554m2.787-.191 1.534 1.43m2.02-.427 1.106-3.038"></path><path stroke="var(--sl-c-000cfe,#000cfe)" d="M4.717 4.254a1.676 1.676 0 1 1 0 3.352 1.676 1.676 0 0 1 0-3.352m6.607-2.802a1.676 1.676 0 1 1 0 3.352 1.676 1.676 0 0 1 0-3.352m-2.33 6.154a1.676 1.676 0 1 1 0 3.352 1.676 1.676 0 0 1 0-3.352"></path><path stroke="var(--sl-c-000cfe,#000cfe)" d="M1 1v12h12"></path></g></svg>
