<svg xmlns="http://www.w3.org/2000/svg" fill="none" viewBox="0 0 14 14"><g stroke-linecap="round" stroke-linejoin="round"><path stroke="var(--sl-c-c71dff,#c71dff)" d="M5.875 3.173a1.125 1.125 0 1 0 2.25 0 1.125 1.125 0 1 0-2.25 0M4.708 6.922v-.155a2.5 2.5 0 0 1 4.584 0v.155"></path><path stroke="var(--sl-c-000cfe,#000cfe)" d="M11.782.5H2.218a.72.72 0 0 0-.718.718v4.987c0 .397.322.718.718.718h9.564a.72.72 0 0 0 .718-.718V1.218A.72.72 0 0 0 11.782.5"></path><path stroke="var(--sl-c-c71dff,#c71dff)" d="M2.542 9.75a1.25 1.25 0 1 0 2.5 0 1.25 1.25 0 1 0-2.5 0m6.416 0a1.25 1.25 0 1 0 2.5 0 1.25 1.25 0 1 0-2.5 0M1.5 13.5a2.5 2.5 0 0 1 4.584 0m1.832 0a2.5 2.5 0 0 1 4.584 0"></path></g></svg>
