<svg xmlns="http://www.w3.org/2000/svg" fill="none" viewBox="0 0 14 14"><g stroke-linecap="round" stroke-linejoin="round"><path stroke="var(--sl-c-000cfe,#000cfe)" d="M7 7.125 7 12.5M4.375 9.875 7 12.5l2.625-2.625"></path><path stroke="var(--sl-c-c71dff,#c71dff)" d="M11.452 1.928a2.585 2.585 0 0 1 2.043 2.547l.005.511a.88.88 0 0 1-.868.868l-2.182-.01a.867.867 0 0 1-.86-.86.876.876 0 0 0-.867-.867l-3.445.003a.86.86 0 0 0-.868.868.87.87 0 0 1-.862.862l-2.182.001A.876.876 0 0 1 .5 4.985l.006-.511a2.594 2.594 0 0 1 2.046-2.551 23.5 23.5 0 0 1 8.9.005"></path></g></svg>
