<svg xmlns="http://www.w3.org/2000/svg" fill="none" viewBox="0 0 14 14"><g stroke-linecap="round" stroke-linejoin="round"><path stroke="var(--sl-c-000cfe,#000cfe)" d="M3.5 4.5v5m5-2h-2a3 3 0 0 1-3-3"></path><path stroke="var(--sl-c-c71dff,#c71dff)" d="M1.5 4V1A.5.5 0 0 1 2 .5h3a.5.5 0 0 1 .5.5v3a.5.5 0 0 1-.5.5H2a.5.5 0 0 1-.5-.5m0 9v-3a.5.5 0 0 1 .5-.5h3a.5.5 0 0 1 .5.5v3a.5.5 0 0 1-.5.5H2a.5.5 0 0 1-.5-.5m7-4V6a.5.5 0 0 1 .5-.5h3a.5.5 0 0 1 .5.5v3a.5.5 0 0 1-.5.5H9a.5.5 0 0 1-.5-.5"></path></g></svg>
