<svg xmlns="http://www.w3.org/2000/svg" fill="none" viewBox="0 0 14 14"><g stroke-linecap="round" stroke-linejoin="round"><path stroke="var(--sl-c-000cfe,#000cfe)" d="M7 2.5h3.5a1 1 0 0 1 1 1V9M3 9V5"></path><path stroke="var(--sl-c-000cfe,#000cfe)" d="m9 .5-2 2 2 2"></path><path stroke="var(--sl-c-c71dff,#c71dff)" d="M1 4.5v-3a.5.5 0 0 1 .5-.5h3a.5.5 0 0 1 .5.5v3a.5.5 0 0 1-.5.5h-3a.5.5 0 0 1-.5-.5m0 8v-3a.5.5 0 0 1 .5-.5h3a.5.5 0 0 1 .5.5v3a.5.5 0 0 1-.5.5h-3a.5.5 0 0 1-.5-.5m8.5 0v-3A.5.5 0 0 1 10 9h3a.5.5 0 0 1 .5.5v3a.5.5 0 0 1-.5.5h-3a.5.5 0 0 1-.5-.5"></path></g></svg>
