<svg xmlns="http://www.w3.org/2000/svg" fill="none" viewBox="0 0 14 14"><g stroke-linecap="round" stroke-linejoin="round"><path stroke="var(--sl-c-000cfe,#000cfe)" d="m2.788 9.5.924-3m2.262-.34 2.052 1.68m3.186-3.34-.924 3"></path><path stroke="var(--sl-c-c71dff,#c71dff)" d="M.5 12.5V10a.5.5 0 0 1 .5-.5h2.5a.5.5 0 0 1 .5.5v2.5a.5.5 0 0 1-.5.5H1a.5.5 0 0 1-.5-.5m2-6.5V3.5A.5.5 0 0 1 3 3h2.5a.5.5 0 0 1 .5.5V6a.5.5 0 0 1-.5.5H3a.5.5 0 0 1-.5-.5M8 10.5V8a.5.5 0 0 1 .5-.5H11a.5.5 0 0 1 .5.5v2.5a.5.5 0 0 1-.5.5H8.5a.5.5 0 0 1-.5-.5M10 4V1.5a.5.5 0 0 1 .5-.5H13a.5.5 0 0 1 .5.5V4a.5.5 0 0 1-.5.5h-2.5A.5.5 0 0 1 10 4"></path></g></svg>
