<svg xmlns="http://www.w3.org/2000/svg" fill="none" viewBox="0 0 14 14"><g stroke-linecap="round" stroke-linejoin="round"><path stroke="var(--sl-c-000cfe,#000cfe)" d="M7 6v4m-5 0V9a1 1 0 0 1 1-1h8a1 1 0 0 1 1 1v1"></path><path stroke="var(--sl-c-c71dff,#c71dff)" d="M4.25 5.5v-4a.5.5 0 0 1 .5-.5h4.5a.5.5 0 0 1 .5.5v4a.5.5 0 0 1-.5.5h-4.5a.5.5 0 0 1-.5-.5m-3.75 7v-2A.5.5 0 0 1 1 10h2a.5.5 0 0 1 .5.5v2a.5.5 0 0 1-.5.5H1a.5.5 0 0 1-.5-.5m5 0v-2A.5.5 0 0 1 6 10h2a.5.5 0 0 1 .5.5v2a.5.5 0 0 1-.5.5H6a.5.5 0 0 1-.5-.5m5 0v-2a.5.5 0 0 1 .5-.5h2a.5.5 0 0 1 .5.5v2a.5.5 0 0 1-.5.5h-2a.5.5 0 0 1-.5-.5"></path></g></svg>
