<svg xmlns="http://www.w3.org/2000/svg" fill="none" viewBox="0 0 14 14"><g stroke-linecap="round" stroke-linejoin="round"><path stroke="var(--sl-c-000cfe,#000cfe)" d="M9 6.5H5a1.5 1.5 0 1 1 0-3h4a1.5 1.5 0 1 1 0 3m-8.5 7L2 12m11.5 1.5L12 12"></path><path stroke="var(--sl-c-c71dff,#c71dff)" d="M7 8.5a4 4 0 0 0-3.58 2.215C4.322 11.794 5.53 12.5 7 12.5s2.677-.706 3.58-1.785A4 4 0 0 0 7 8.5"></path><path stroke="var(--sl-c-c71dff,#c71dff)" d="M1.5 5C1.5 1.5 4.5.5 7 .5s5.5 1 5.5 4.5-2 7.5-5.5 7.5-5.5-4-5.5-7.5"></path></g></svg>
