<svg xmlns="http://www.w3.org/2000/svg" fill="none" viewBox="0 0 14 14"><g stroke-linecap="round" stroke-linejoin="round"><path stroke="var(--sl-c-c71dff,#c71dff)" d="M1 9.182a3.818 3.818 0 1 0 3.818-3.818m-2.29-3.769a2.903 2.903 0 0 1 4.006 4.15"></path><path stroke="var(--sl-c-000cfe,#000cfe)" d="M13 3.366a2.447 2.447 0 0 1-3.46 0"></path><path stroke="var(--sl-c-c71dff,#c71dff)" d="M11.852 11.538a3.246 3.246 0 0 0-2.25-5.284c-.618-.052-1.464.093-1.873.457"></path><path stroke="var(--sl-c-000cfe,#000cfe)" d="M11.27 1.5a.25.25 0 1 1 0-.5m0 .5a.25.25 0 1 0 0-.5"></path></g></svg>
