<svg xmlns="http://www.w3.org/2000/svg" fill="none" viewBox="0 0 14 14"><g stroke-linecap="round" stroke-linejoin="round"><path stroke="var(--sl-c-000cfe,#000cfe)" d="m7 5.07 0 4.32"></path><path stroke="var(--sl-c-c71dff,#c71dff)" d="M6.16 1.298 4.25 4.25l-2.804.467a1 1 0 0 0-.612 1.617L3 9l-.638 3.19a1 1 0 0 0 1.352 1.124L7 12l3.628 1.32a1 1 0 0 0 1.3-1.228L11 9l2.166-2.666a1 1 0 0 0-.612-1.617L9.75 4.25 7.84 1.298a1 1 0 0 0-1.68 0"></path><path stroke="var(--sl-c-000cfe,#000cfe)" d="m5.56 6.15.36 0A1.08 1.08 0 0 0 7 5.07v0m1.44 4.32H5.56"></path></g></svg>
