<svg xmlns="http://www.w3.org/2000/svg" fill="none" viewBox="0 0 14 14"><g stroke-linecap="round" stroke-linejoin="round"><path stroke="var(--sl-c-000cfe,#000cfe)" d="m.5 2 6 4 6-4"></path><path stroke="var(--sl-c-c71dff,#c71dff)" d="M6.5 9.5h-5a1 1 0 0 1-1-1v-7a1 1 0 0 1 1-1h10a1 1 0 0 1 1 1V5"></path><path stroke="var(--sl-c-000cfe,#000cfe)" d="M9.25 10V8.75C9.25 7.784 10.034 7 11 7v0c.967 0 1.75.784 1.75 1.75V10M8.5 13v-2.5A.5.5 0 0 1 9 10h4a.5.5 0 0 1 .5.5V13a.5.5 0 0 1-.5.5H9a.5.5 0 0 1-.5-.5"></path></g></svg>
