<svg xmlns="http://www.w3.org/2000/svg" fill="none" viewBox="0 0 14 14"><g stroke-linecap="round" stroke-linejoin="round"><path stroke="var(--sl-c-000cfe,#000cfe)" d="m.5 2 6 4 6-4m-2.243 4.97.86 1.73a.27.27 0 0 0 .22.16l1.91.29a.29.29 0 0 1 .16.5l-1.41 1.34a.28.28 0 0 0 0 .26l.27 1.9a.29.29 0 0 1-.43.31l-1.7-.9a.34.34 0 0 0-.28 0l-1.7.9a.29.29 0 0 1-.43-.31l.32-1.9a.28.28 0 0 0-.05-.26l-1.41-1.35a.29.29 0 0 1 .16-.49l1.91-.28a.27.27 0 0 0 .22-.16l.86-1.73a.29.29 0 0 1 .52-.01"></path><path stroke="var(--sl-c-c71dff,#c71dff)" d="M4 9.5H1.5a1 1 0 0 1-1-1v-7a1 1 0 0 1 1-1h10a1 1 0 0 1 1 1V6"></path></g></svg>
