<svg xmlns="http://www.w3.org/2000/svg" fill="none" viewBox="0 0 14 14"><g stroke-linecap="round" stroke-linejoin="round"><path stroke="var(--sl-c-000cfe,#000cfe)" d="M1.499 10.749a2.25 2.25 0 1 0 4.5 0 2.25 2.25 0 1 0-4.5 0m6.502 0a2.25 2.25 0 1 0 4.5 0 2.25 2.25 0 1 0-4.5 0"></path><path stroke="var(--sl-c-c71dff,#c71dff)" d="M3.36 1.836A1 1 0 0 1 4.348 1h5.306a1 1 0 0 1 .986.836L11.5 6.5h-9z"></path><path stroke="var(--sl-c-000cfe,#000cfe)" d="M5.998 10.75s0-1.001 1-1.001 1.001 1 1.001 1"></path><path stroke="var(--sl-c-c71dff,#c71dff)" d="M1 6.5h12"></path></g></svg>
