<svg xmlns="http://www.w3.org/2000/svg" fill="none" viewBox="0 0 14 14"><g stroke-linecap="round" stroke-linejoin="round"><path stroke="var(--sl-c-c71dff,#c71dff)" d="M6.53 13.07a2.7 2.7 0 0 1-3.37-.36l-.38-.38a.91.91 0 0 1 0-1.28l1.6-1.59a.9.9 0 0 1 1.27 0v0a.91.91 0 0 0 1.28 0l2.55-2.55a.91.91 0 0 0 0-1.28v0a.9.9 0 0 1 0-1.27l1.54-1.6a.91.91 0 0 1 1.28 0l.38.38a2.7 2.7 0 0 1 .41 3.37 24.2 24.2 0 0 1-6.56 6.56"></path><path stroke="var(--sl-c-000cfe,#000cfe)" d="m2 5.5 3.5 0 0-3.5m0 3.5-5-5"></path></g></svg>
