<svg xmlns="http://www.w3.org/2000/svg" fill="none" viewBox="0 0 14 14"><g stroke-linecap="round" stroke-linejoin="round"><path stroke="var(--sl-c-000cfe,#000cfe)" d="M9.117.5c-.3 0-.544.243-.544.544v1.529l-1.53 0c-.3 0-.543.243-.543.544v1.767c0 .3.243.543.544.543h1.529v1.53c0 .3.243.543.543.543h1.768c.3 0 .543-.243.543-.544V5.427h1.53c.3 0 .543-.243.543-.543V3.117c0-.3-.243-.544-.544-.544l-1.529 0v-1.53c0-.3-.243-.543-.543-.543z"></path><path stroke="var(--sl-c-c71dff,#c71dff)" d="m.5 11 2.444 2.036a2 2 0 0 0 1.28.464l6.443 0c.46 0 .833-.373.833-.833 0-.92-.746-1.667-1.667-1.667H5.354"></path><path stroke="var(--sl-c-c71dff,#c71dff)" d="m3.5 10 .75.75a1.06 1.06 0 0 0 1.5-1.5L4.586 8.086A2 2 0 0 0 3.172 7.5H.5"></path></g></svg>
