<svg xmlns="http://www.w3.org/2000/svg" fill="none" viewBox="0 0 14 14"><g stroke-linecap="round" stroke-linejoin="round"><path stroke="var(--sl-c-c71dff,#c71dff)" d="m13 13 0-1.927A2.573 2.573 0 0 0 10.427 8.5H9.5V5.75a1.25 1.25 0 0 0-2.5 0V9.5l-.049.008c-1.307.218-1.884 1.772-1.036 2.79L6.5 13"></path><path stroke="var(--sl-c-000cfe,#000cfe)" d="M4.48 3.222a1.33 1.33 0 0 0-1.258-.889H2.19a1.19 1.19 0 0 0-.254 2.353l1.571.344a1.334 1.334 0 0 1-.285 2.637h-.889c-.58 0-1.074-.371-1.257-.89m1.702-4.444V1m0 8V7.667"></path></g></svg>
