<svg xmlns="http://www.w3.org/2000/svg" fill="none" viewBox="0 0 14 14"><g stroke-linecap="round" stroke-linejoin="round"><path stroke="var(--sl-c-c71dff,#c71dff)" d="M8.414 8.414a2 2 0 1 0-2.828-2.828"></path><path stroke="var(--sl-c-c71dff,#c71dff)" d="M3.408 3.408C4.45 2.613 5.68 2 7 2c2.795 0 5.19 2.75 6.242 4.163.166.23.258.528.258.837s-.092.608-.258.838c-.556.745-1.485 1.864-2.65 2.754M1.708 5c-.382.426-.703.831-.95 1.163C.592 6.393.5 6.69.5 7s.092.608.258.838C1.81 9.25 4.205 12 7 12a4.7 4.7 0 0 0 1.465-.243"></path><path stroke="var(--sl-c-000cfe,#000cfe)" d="m.5.5 13 13"></path></g></svg>
