<svg xmlns="http://www.w3.org/2000/svg" fill="none" viewBox="0 0 14 14"><g stroke-linecap="round" stroke-linejoin="round"><path stroke="var(--sl-c-000cfe,#000cfe)" d="M6 9.688 3.25 3.5.5 9.688"></path><path stroke="var(--sl-c-c71dff,#c71dff)" d="M6 9.688H.5c0 .745.29 1.46.805 1.988a2.72 2.72 0 0 0 1.945.824 2.72 2.72 0 0 0 1.945-.824A2.85 2.85 0 0 0 6 9.687"></path><path stroke="var(--sl-c-000cfe,#000cfe)" d="M13.5 9.688 10.75 3.5 8 9.688m5.5 0H8"></path><path stroke="var(--sl-c-c71dff,#c71dff)" d="M1.5 3.5h11M7 3.5v-2m6.5 8.188H8c0 .745.29 1.46.805 1.988a2.72 2.72 0 0 0 1.945.824 2.72 2.72 0 0 0 1.945-.824 2.85 2.85 0 0 0 .805-1.989"></path></g></svg>
