<svg xmlns="http://www.w3.org/2000/svg" fill="none" viewBox="0 0 14 14"><g stroke-linecap="round" stroke-linejoin="round"><path stroke="var(--sl-c-c71dff,#c71dff)" d="M7 2.828V.5"></path><path stroke="var(--sl-c-000cfe,#000cfe)" d="M6 10.688 3.25 4.5.5 10.688"></path><path stroke="var(--sl-c-c71dff,#c71dff)" d="M6 10.688H.5c0 .745.29 1.46.805 1.988a2.72 2.72 0 0 0 1.945.824 2.72 2.72 0 0 0 1.945-.824A2.85 2.85 0 0 0 6 10.687"></path><path stroke="var(--sl-c-000cfe,#000cfe)" d="M13.5 7.368 10.75 1.18 8 7.368"></path><path stroke="var(--sl-c-c71dff,#c71dff)" d="M13.5 7.367H8c0 .746.29 1.462.805 1.99a2.72 2.72 0 0 0 1.945.823 2.72 2.72 0 0 0 1.945-.824 2.85 2.85 0 0 0 .805-1.989m-12-2.109L12.14.555"></path></g></svg>
