<svg xmlns="http://www.w3.org/2000/svg" fill="none" viewBox="0 0 14 14"><g stroke-linecap="round" stroke-linejoin="round"><path stroke="var(--sl-c-c71dff,#c71dff)" d="M12 8.75v.75H2v-5a1 1 0 0 1 1-1h1.25"></path><path stroke="var(--sl-c-000cfe,#000cfe)" d="M13.5 3a1 1 0 0 0-1-1H12L11 .5H9L8 2h-.5a1 1 0 0 0-1 1v2.5a1 1 0 0 0 1 1h5a1 1 0 0 0 1-1z"></path><path stroke="var(--sl-c-000cfe,#000cfe)" d="M10 4.375a.375.375 0 1 1 0-.75m0 .75a.375.375 0 1 0 0-.75M.585 12.33 2 9.5h10l1.415 2.83a.808.808 0 0 1-.724 1.17H1.309a.81.81 0 0 1-.724-1.17"></path></g></svg>
