<svg xmlns="http://www.w3.org/2000/svg" fill="none" viewBox="0 0 14 14"><g stroke-linecap="round" stroke-linejoin="round"><path stroke="var(--sl-c-000cfe,#000cfe)" d="M7.435 7.4a1.02 1.02 0 0 1-.87 0l-5.28-2.64a.54.54 0 0 1-.208-.206.6.6 0 0 1 0-.587.54.54 0 0 1 .208-.207l5.28-2.66a1.02 1.02 0 0 1 .87 0l5.28 2.64a.54.54 0 0 1 .208.207.6.6 0 0 1 0 .587.54.54 0 0 1-.208.206z"></path><path stroke="var(--sl-c-c71dff,#c71dff)" d="m13 7.35-5.6 2.81a1 1 0 0 1-.83 0L1 7.35"></path><path stroke="var(--sl-c-c71dff,#c71dff)" d="m13 10.1-5.6 2.81a1 1 0 0 1-.83 0L1 10.1"></path></g></svg>
