<svg xmlns="http://www.w3.org/2000/svg" fill="none" viewBox="0 0 14 14"><g stroke-linecap="round" stroke-linejoin="round"><path stroke="var(--sl-c-000cfe,#000cfe)" d="M8 3.645A3.5 3.5 0 0 0 3.535 6.5"></path><path stroke="var(--sl-c-c71dff,#c71dff)" d="M11.033 11.033c1.87-1.87 2.094-4.26 1.533-6.124a1.34 1.34 0 0 1 .116-1.016c.448-.839.46-1.707-.203-2.37-.664-.664-1.533-.651-2.372-.203a1.34 1.34 0 0 1-1.016.117c-1.864-.56-4.251-.336-6.12 1.534C1.102 4.839.877 7.225 1.437 9.089c.101.338.049.704-.118 1.016-.449.839-.461 1.709.202 2.372s1.531.651 2.37.204a1.34 1.34 0 0 1 1.016-.116c1.865.563 4.255.339 6.126-1.532"></path></g></svg>
