<svg xmlns="http://www.w3.org/2000/svg" fill="none" viewBox="0 0 14 14"><g stroke-linecap="round" stroke-linejoin="round"><path stroke="var(--sl-c-c71dff,#c71dff)" d="m3.46 5.645 2.507-4.028A1.08 1.08 0 0 1 6.9 1.1a1.1 1.1 0 0 1 1.14 1.091V5.08h4.356a1.14 1.14 0 0 1 1.091 1.31l-.793 5.119a1.13 1.13 0 0 1-1.121.992H5.064c-.31.001-.615-.07-.892-.208l-.715-.357"></path><path stroke="var(--sl-c-000cfe,#000cfe)" d="M.996 11.905H3.46v-6.26H.996A.496.496 0 0 0 .5 6.14v5.268a.496.496 0 0 0 .496.496"></path></g></svg>
