<svg xmlns="http://www.w3.org/2000/svg" fill="none" viewBox="0 0 14 14"><g stroke-linecap="round" stroke-linejoin="round"><path stroke="var(--sl-c-c71dff,#c71dff)" d="M10.5 1.522A6.5 6.5 0 0 1 13.5 7a6.48 6.48 0 0 1-1.904 4.596M7 13.5c1.02 0 1.986-.235 2.845-.654M7 .5a6.48 6.48 0 0 0-4.596 1.904M3.5 12.478A6.5 6.5 0 0 1 .5 7c0-1.02.235-1.986.654-2.846"></path><path stroke="var(--sl-c-c71dff,#c71dff)" d="m13 1.5-2.5 0 0 2.5M1 12.5l2.5 0 0-2.5"></path><path stroke="var(--sl-c-000cfe,#000cfe)" d="m.5.5 13 13"></path></g></svg>
