<svg xmlns="http://www.w3.org/2000/svg" fill="none" viewBox="0 0 14 14"><g stroke-linecap="round" stroke-linejoin="round"><path stroke="var(--sl-c-c71dff,#c71dff)" d="m11 13.5 2-2-2-2M6.5 2h4.125A2.375 2.375 0 0 1 13 4.375v0a2.375 2.375 0 0 1-2.375 2.375H9.5m-3 0H3.375A2.375 2.375 0 0 0 1 9.125v0A2.375 2.375 0 0 0 3.375 11.5H3.5M1 2h2.5m3 9.5H13"></path><path stroke="var(--sl-c-000cfe,#000cfe)" d="M3.5 2a1.5 1.5 0 1 0 3 0 1.5 1.5 0 1 0-3 0m0 9.5a1.5 1.5 0 1 0 3 0 1.5 1.5 0 1 0-3 0m3-4.75a1.5 1.5 0 1 0 3 0 1.5 1.5 0 1 0-3 0"></path></g></svg>
