<svg xmlns="http://www.w3.org/2000/svg" fill="none" viewBox="0 0 14 14"><path stroke="var(--sl-c-c71dff,#c71dff)" stroke-linecap="round" stroke-linejoin="round" d="M1.139 5.45c0-.763.485-.644 1.158-.644s1.148-.119 1.148.643v7.424c0 .772-.485.614-1.148.614s-1.158.158-1.158-.614zm2.073-2.756c.24-.248.374-.581.371-.927A1.317 1.317 0 0 0 2.297.5 1.326 1.326 0 0 0 1 1.767a1.346 1.346 0 0 0 1.297 1.326c.345-.007.674-.15.915-.4M5.425 5.45c0-.426.158-.585.406-.634.247-.05 1.098 0 1.395 0s.416.485.406.85a2.48 2.48 0 0 1 2.217-.989 2.97 2.97 0 0 1 3.148 3.098v5.068c0 .772-.475.614-1.148.614s-1.148.158-1.148-.614v-3.96A1.425 1.425 0 0 0 9.196 7.34a1.435 1.435 0 0 0-1.465 1.574v3.959c0 .772-.485.614-1.158.614s-1.148.158-1.148-.614z"></path></svg>
