<svg xmlns="http://www.w3.org/2000/svg" fill="none" viewBox="0 0 14 14"><g stroke-linecap="round" stroke-linejoin="round"><path stroke="var(--sl-c-000cfe,#000cfe)" d="m8.245 4.114 3.27-3.285a1.15 1.15 0 0 1 .498-.293.9.9 0 0 1 .53.009.72.72 0 0 1 .386.305.82.82 0 0 1 .113.502l-.175 2.022c-.01.122-.044.246-.1.363a1.2 1.2 0 0 1-.225.322l-2.198 2.167"></path><path stroke="var(--sl-c-c71dff,#c71dff)" d="M1.247 9.66a1.016 1.016 0 0 0 0 1.429l2.104 2.117a1.004 1.004 0 0 0 1.42 0l3.734-3.758-3.523-3.545zm4.146-3.344 2.52-2.537 2.77 2.783-2.55 2.511"></path></g></svg>
