<svg xmlns="http://www.w3.org/2000/svg" fill="none" viewBox="0 0 14 14"><g stroke-linecap="round" stroke-linejoin="round"><path stroke="var(--sl-c-000cfe,#000cfe)" d="M13.5 5.315c0 .24-.195.435-.435.435h-5.27a.435.435 0 0 1-.434-.435V.935A.435.435 0 0 1 7.796.5H9.65a.435.435 0 0 1 .435.33l.122.79h2.858a.435.435 0 0 1 .435.434zM6 11l-1 2.5M8 11l1 2.5m-5 0h6"></path><path stroke="var(--sl-c-c71dff,#c71dff)" d="M5.222 2 1 2a.5.5 0 0 0-.5.5v8a.5.5 0 0 0 .5.5h12a.5.5 0 0 0 .5-.5V7.884"></path></g></svg>
