<svg xmlns="http://www.w3.org/2000/svg" fill="none" viewBox="0 0 14 14"><g stroke-linecap="round" stroke-linejoin="round"><path stroke="var(--sl-c-c71dff,#c71dff)" d="M10.524 10.524C11.588 9.248 12.5 7.667 12.5 6a5.5 5.5 0 0 0-9.857-3.357M9 12.102a18 18 0 0 1-1.545 1.255A.8.8 0 0 1 7 13.5v0a.77.77 0 0 1-.453-.142C5.582 12.665 1.5 9.528 1.5 6q.002-.65.144-1.255"></path><path stroke="var(--sl-c-c71dff,#c71dff)" d="M5.05 5.05a2 2 0 1 1 2.4 2.4"></path><path stroke="var(--sl-c-000cfe,#000cfe)" d="m.503.502 12.995 12.996"></path></g></svg>
