<svg xmlns="http://www.w3.org/2000/svg" fill="none" viewBox="0 0 14 14"><g stroke-linecap="round" stroke-linejoin="round"><path stroke="var(--sl-c-000cfe,#000cfe)" d="M11.5 10h.5l1.5 3.5H.5L2 10h.5"></path><path stroke="var(--sl-c-c71dff,#c71dff)" d="M11.5 5c0 3.03-3.184 5.31-4.04 5.868A.84.84 0 0 1 7 11v0a.84.84 0 0 1-.46-.132C5.684 10.31 2.5 8.03 2.5 5a4.5 4.5 0 0 1 9 0"></path><path stroke="var(--sl-c-c71dff,#c71dff)" d="M5.25 4.75a1.75 1.75 0 1 0 3.5 0 1.75 1.75 0 1 0-3.5 0"></path></g></svg>
