<svg xmlns="http://www.w3.org/2000/svg" fill="none" viewBox="0 0 14 14"><g stroke-linecap="round" stroke-linejoin="round"><path stroke="var(--sl-c-000cfe,#000cfe)" d="M4.75 9.25v-2a.5.5 0 0 1 .5-.5h3.5a.5.5 0 0 1 .5.5v2a.5.5 0 0 1-.5.5h-3.5a.5.5 0 0 1-.5-.5m.75-2.5v-1A1.5 1.5 0 0 1 7 4.25v0a1.5 1.5 0 0 1 1.5 1.5v1"></path><path stroke="var(--sl-c-c71dff,#c71dff)" d="M13.002 4.5A6.502 6.502 0 0 0 .5 7a6.5 6.5 0 0 0 12.826 1.5"></path><path stroke="var(--sl-c-c71dff,#c71dff)" d="M13.5 2v2.5H11"></path></g></svg>
