<svg xmlns="http://www.w3.org/2000/svg" fill="none" viewBox="0 0 14 14"><g stroke-linecap="round" stroke-linejoin="round"><path stroke="var(--sl-c-c71dff,#c71dff)" d="M7.081 6.918.5 13.5"></path><path stroke="var(--sl-c-000cfe,#000cfe)" d="m12.69 1.844-.84 2.48a.41.41 0 0 0 0 .37l1.57 2.1a.4.4 0 0 1-.33.64h-2.62a.43.43 0 0 0-.33.17l-1.46 2.1a.4.4 0 0 1-.71-.11l-.78-2.5a.38.38 0 0 0-.26-.26l-2.5-.78a.4.4 0 0 1-.11-.71l2.14-1.51a.43.43 0 0 0 .17-.33V.884a.4.4 0 0 1 .6-.33l2.1 1.57a.41.41 0 0 0 .37.05l2.48-.84a.4.4 0 0 1 .51.51"></path></g></svg>
