<svg xmlns="http://www.w3.org/2000/svg" fill="none" viewBox="0 0 14 14"><g stroke-linecap="round" stroke-linejoin="round"><path stroke="var(--sl-c-000cfe,#000cfe)" d="M3.5 10.5V6.743c0-.134.109-.243.243-.243v0c.096 0 .182.056.221.143l.754 1.675A.31.31 0 0 0 5 8.5v0a.31.31 0 0 0 .282-.182l.754-1.675a.24.24 0 0 1 .221-.143v0c.134 0 .243.109.243.243V10.5m3-4v4m-1-1 1 1 1-1"></path><path stroke="var(--sl-c-c71dff,#c71dff)" d="M12.5 12.5a1 1 0 0 1-1 1h-9a1 1 0 0 1-1-1v-11a1 1 0 0 1 1-1H9L12.5 4z"></path></g></svg>
