<svg xmlns="http://www.w3.org/2000/svg" fill="none" viewBox="0 0 14 14"><g stroke-linecap="round" stroke-linejoin="round"><path stroke="var(--sl-c-000cfe,#000cfe)" d="m10.74 10.74 2.76 2.76"></path><path stroke="var(--sl-c-c71dff,#c71dff)" d="M6.5 12.5a6 6 0 1 0 0-12 6 6 0 0 0 0 12"></path><path stroke="var(--sl-c-000cfe,#000cfe)" d="M5.556 3.25a.427.427 0 0 0-.427.427V5.13H3.677a.427.427 0 0 0-.427.427v1.888c0 .236.191.427.427.427H5.13v1.452c0 .236.19.427.427.427h1.888a.427.427 0 0 0 .427-.427V7.87h1.452a.427.427 0 0 0 .427-.427V5.556a.427.427 0 0 0-.427-.427l-1.452 0V3.677a.427.427 0 0 0-.427-.427z"></path></g></svg>
