<svg xmlns="http://www.w3.org/2000/svg" fill="none" viewBox="0 0 14 14"><g stroke-linecap="round" stroke-linejoin="round"><path stroke="var(--sl-c-000cfe,#000cfe)" d="M6.306 5.156a.427.427 0 0 0-.427.427v1.202l-1.202 0a.427.427 0 0 0-.427.427V8.6c0 .236.191.428.427.428H5.88v1.201c0 .236.19.427.427.427h1.388a.427.427 0 0 0 .427-.427V9.028h1.202A.427.427 0 0 0 9.75 8.6V7.212a.427.427 0 0 0-.427-.427l-1.202 0V5.583a.427.427 0 0 0-.427-.427z"></path><path stroke="var(--sl-c-c71dff,#c71dff)" d="M12.5 12.5a1 1 0 0 1-1 1h-9a1 1 0 0 1-1-1v-11a1 1 0 0 1 1-1H9L12.5 4z"></path></g></svg>
