<svg xmlns="http://www.w3.org/2000/svg" fill="none" viewBox="0 0 14 14"><g stroke-linecap="round" stroke-linejoin="round"><path stroke="var(--sl-c-000cfe,#000cfe)" d="M13.5 3a1 1 0 0 0-1-1H12L11 .5H9L8 2h-.5a1 1 0 0 0-1 1v2.5a1 1 0 0 0 1 1h5a1 1 0 0 0 1-1z"></path><path stroke="var(--sl-c-000cfe,#000cfe)" d="M10 4.375a.375.375 0 1 1 0-.75m0 .75a.375.375 0 0 0 0-.75"></path><path stroke="var(--sl-c-c71dff,#c71dff)" d="M6 .5H1.5a1 1 0 0 0-1 1v11a1 1 0 0 0 1 1h7a1 1 0 0 0 1-1V8.75"></path><path stroke="var(--sl-c-000cfe,#000cfe)" d="M4.5 11h1"></path></g></svg>
