<svg xmlns="http://www.w3.org/2000/svg" fill="none" viewBox="0 0 14 14"><path stroke="var(--sl-c-c71dff,#c71dff)" stroke-linecap="round" stroke-linejoin="round" d="M9.9 1.211c-.36.351-.573.824-.598 1.325L7.478.723a.67.67 0 0 0-.996 0L5.007 2.258c.21.101.402.236.568.398a2.052 2.052 0 0 1-2.899 2.9 2.2 2.2 0 0 1-.399-.569L.723 6.522a.67.67 0 0 0 0 .996l1.813 1.784A2.043 2.043 0 1 0 4.7 11.464l1.823 1.813a.67.67 0 0 0 .996 0l1.475-1.534a2.2 2.2 0 0 1-.568-.4 2.057 2.057 0 1 1 3.317-2.33l1.535-1.535a.67.67 0 0 0 0-.996l-1.813-1.783a2 2 0 0 0 1.325-.598 2.043 2.043 0 1 0-2.89-2.89"></path></svg>
