<svg xmlns="http://www.w3.org/2000/svg" fill="none" viewBox="0 0 14 14"><g stroke-linecap="round" stroke-linejoin="round"><path stroke="var(--sl-c-c71dff,#c71dff)" d="M5.25 8.25H1a.5.5 0 0 0-.5.5V13a.5.5 0 0 0 .5.5h4.25a.5.5 0 0 0 .5-.5V8.75a.5.5 0 0 0-.5-.5m7.75 0H8.75a.5.5 0 0 0-.5.5V13a.5.5 0 0 0 .5.5H13a.5.5 0 0 0 .5-.5V8.75a.5.5 0 0 0-.5-.5"></path><path stroke="var(--sl-c-000cfe,#000cfe)" d="M9.13.5H4.88a.5.5 0 0 0-.5.5v4.25a.5.5 0 0 0 .5.5h4.25a.5.5 0 0 0 .5-.5V1a.5.5 0 0 0-.5-.5"></path></g></svg>
