<svg xmlns="http://www.w3.org/2000/svg" fill="none" viewBox="0 0 14 14"><g stroke-linecap="round" stroke-linejoin="round"><path stroke="var(--sl-c-c71dff,#c71dff)" d="M13 7v5a1 1 0 0 1-1 1H7M7 1H2a1 1 0 0 0-1 1v5"></path><path stroke="var(--sl-c-000cfe,#000cfe)" d="M7 1v1.968a1.385 1.385 0 1 0 0 2.064v3.936a1.385 1.385 0 1 1 0 2.064V13M7 1l5 0a1 1 0 0 1 1 1l0 5M1 7l0 5a1 1 0 0 0 1 1l5 0"></path><path stroke="var(--sl-c-c71dff,#c71dff)" d="m13 7-.957 0c-.39 0-.658-.533-.658-.923v0a1.385 1.385 0 1 0-2.77 0v0c0 .39-.267.923-.658.923H6.043c-.39 0-.658.533-.658.923v0a1.385 1.385 0 0 1-2.77 0v0c0-.39-.267-.923-.658-.923L1 7"></path></g></svg>
