<svg xmlns="http://www.w3.org/2000/svg" fill="none" viewBox="0 0 14 14"><g stroke-linecap="round" stroke-linejoin="round"><path stroke="var(--sl-c-c71dff,#c71dff)" d="M9.385 9.378a1.846 1.846 0 1 1 1.257 1.242"></path><path stroke="var(--sl-c-c71dff,#c71dff)" d="M13 8.811V1.466a.48.48 0 0 0-.182-.37.46.46 0 0 0-.4-.08l-7.384 2.08a.47.47 0 0 0-.342.45l0 1.135m0 6.473V7.897M13 3.769 5.781 5.774M2.846 13a1.846 1.846 0 1 0 0-3.692 1.846 1.846 0 0 0 0 3.692"></path><path stroke="var(--sl-c-000cfe,#000cfe)" d="m.5.5 13 13"></path></g></svg>
