<svg xmlns="http://www.w3.org/2000/svg" fill="none" viewBox="0 0 14 14"><g stroke-linecap="round" stroke-linejoin="round"><path stroke="var(--sl-c-c71dff,#c71dff)" d="M13.5 3.381v7.81c0 .347-.132.68-.366.925a1.22 1.22 0 0 1-.884.384m0 0c-.331 0-.65-.138-.884-.384a1.34 1.34 0 0 1-.366-.925V2.024a.54.54 0 0 0-.146-.37.5.5 0 0 0-.354-.154H1a.5.5 0 0 0-.354.153.54.54 0 0 0-.146.37v9.43c0 .277.105.544.293.74a.98.98 0 0 0 .707.307z"></path><path stroke="var(--sl-c-000cfe,#000cfe)" d="M8 4.25H3.5v2.5H8zm-4.5 5.5H8"></path></g></svg>
