<svg xmlns="http://www.w3.org/2000/svg" fill="none" viewBox="0 0 14 14"><g stroke-linecap="round" stroke-linejoin="round"><path stroke="var(--sl-c-c71dff,#c71dff)" d="M6.04 1H4a3 3 0 0 0-3 3v6a3 3 0 0 0 3 3h2.04z"></path><path stroke="var(--sl-c-c71dff,#c71dff)" d="M2.497 4.479a1.023 1.023 0 1 0 2.046 0 1.023 1.023 0 1 0-2.046 0"></path><path stroke="var(--sl-c-000cfe,#000cfe)" d="M9.457 9.52a1.023 1.023 0 1 0 2.046 0 1.023 1.023 0 1 0-2.046 0"></path><path stroke="var(--sl-c-000cfe,#000cfe)" d="M7.96 13H10a3 3 0 0 0 3-3V4a3 3 0 0 0-3-3H7.96z"></path></g></svg>
