<svg xmlns="http://www.w3.org/2000/svg" fill="none" viewBox="0 0 14 14"><g stroke-linecap="round" stroke-linejoin="round"><path stroke="var(--sl-c-000cfe,#000cfe)" d="M10 2v1.5m0 2.25a.25.25 0 0 1 0-.5m0 .5a.25.25 0 1 0 0-.5"></path><path stroke="var(--sl-c-000cfe,#000cfe)" d="M9.97.5a3.53 3.53 0 0 0-3.529 3.53c.003.478.099.952.283 1.394L6 7.118l1.888-.238A3.53 3.53 0 1 0 9.971.5M4.5 11h1"></path><path stroke="var(--sl-c-c71dff,#c71dff)" d="M5.75.5H1.5a1 1 0 0 0-1 1v11a1 1 0 0 0 1 1h7a1 1 0 0 0 1-1v-3"></path></g></svg>
