<svg xmlns="http://www.w3.org/2000/svg" fill="none" viewBox="0 0 14 14"><g stroke-linecap="round" stroke-linejoin="round"><path stroke="var(--sl-c-c71dff,#c71dff)" d="M5 5.5a2.5 2.5 0 1 0 0-5 2.5 2.5 0 0 0 0 5m1.019 2.116A4.5 4.5 0 0 0 .5 12v.5h5.281"></path><path stroke="var(--sl-c-000cfe,#000cfe)" d="M9.306 7a.427.427 0 0 0-.427.427V8.88H7.427A.427.427 0 0 0 7 9.306v1.888c0 .236.191.427.427.427H8.88v1.452c0 .236.19.427.427.427h1.888a.427.427 0 0 0 .427-.427V11.62h1.452a.427.427 0 0 0 .427-.427V9.306a.427.427 0 0 0-.427-.427l-1.452 0V7.427A.427.427 0 0 0 11.194 7z"></path></g></svg>
