<svg xmlns="http://www.w3.org/2000/svg" fill="none" viewBox="0 0 14 14"><g stroke-linecap="round" stroke-linejoin="round"><path stroke="var(--sl-c-c71dff,#c71dff)" d="M13 9a2 2 0 1 1-4 0v-.121c0-.563.224-1.103.621-1.5L10 7c.64-.64 1-1.509 1-2.414v-.05A3.536 3.536 0 0 0 7.464 1h-.928A3.536 3.536 0 0 0 3 4.536v.05C3 5.49 3.36 6.36 4 7l.379.379c.398.398.621.937.621 1.5V9a2 2 0 1 1-4 0"></path><path stroke="var(--sl-c-c71dff,#c71dff)" d="M1.5 12.5c.32.32.754.5 1.207.5h.283a3.27 3.27 0 0 0 3.26-3m6.25 2.5c-.32.32-.754.5-1.207.5h-.283a3.27 3.27 0 0 1-3.26-3"></path><path stroke="var(--sl-c-000cfe,#000cfe)" d="M5.25 5.5a.25.25 0 0 1 0-.5m0 .5a.25.25 0 0 0 0-.5m3.5.5a.25.25 0 0 1 0-.5m0 .5a.25.25 0 0 0 0-.5"></path></g></svg>
