<svg xmlns="http://www.w3.org/2000/svg" fill="none" viewBox="0 0 14 14"><g stroke-linecap="round" stroke-linejoin="round"><path stroke="var(--sl-c-c71dff,#c71dff)" d="M4 4A1.75 1.75 0 1 0 4 .5 1.75 1.75 0 0 0 4 4"></path><path stroke="var(--sl-c-c71dff,#c71dff)" d="M5.5 13.5h-3L2 9.25H.5V7.5A3.5 3.5 0 0 1 7.465 7"></path><path stroke="var(--sl-c-000cfe,#000cfe)" d="M7.323 9.97c0-.487.396-.882.883-.882h4.412c.487 0 .882.395.882.883v2.647a.88.88 0 0 1-.882.882H8.206a.88.88 0 0 1-.883-.882zm1.881-.882v-.9a1 1 0 0 1 1-1h.413a1 1 0 0 1 1 1v.9"></path></g></svg>
