<svg xmlns="http://www.w3.org/2000/svg" fill="none" viewBox="0 0 14 14"><g stroke-linecap="round" stroke-linejoin="round"><path stroke="var(--sl-c-c71dff,#c71dff)" d="M5 5.5a2.5 2.5 0 1 0 0-5 2.5 2.5 0 0 0 0 5"></path><path stroke="var(--sl-c-000cfe,#000cfe)" d="m11.213 12.463.089.265a1.128 1.128 0 0 0 2.191-.481l-.174-1.569a2.074 2.074 0 0 0-2.061-1.845H8.742a2.074 2.074 0 0 0-2.06 1.845l-.175 1.569a1.128 1.128 0 0 0 2.191.481l.089-.265a.76.76 0 0 1 .72-.519h.987c.326 0 .616.21.72.519"></path><path stroke="var(--sl-c-c71dff,#c71dff)" d="M6.121 7.64A4.5 4.5 0 0 0 .5 12v.5h3.938"></path></g></svg>
