<svg xmlns="http://www.w3.org/2000/svg" fill="none" viewBox="0 0 14 14"><g stroke-linecap="round" stroke-linejoin="round"><path stroke="var(--sl-c-000cfe,#000cfe)" d="M10.75 6a2.75 2.75 0 1 0 0-5.5 2.75 2.75 0 0 0 0 5.5M6.5 1.337a3.5 3.5 0 0 0-4.919 3.917M11.5 2.5l-.75.75"></path><path stroke="var(--sl-c-c71dff,#c71dff)" d="M2.75 13.5.815 10.792a1.15 1.15 0 0 1 .123-1.48v0a1.15 1.15 0 0 1 1.624 0L3.75 10.5l0-6.25C3.75 3.56 4.31 3 5 3v0c.69 0 1.25.56 1.25 1.25l0 3.847 2.38-.044a2.573 2.573 0 0 1 2.61 2.806L11 13.5"></path></g></svg>
