<svg xmlns="http://www.w3.org/2000/svg" fill="none" viewBox="0 0 14 14"><g stroke-linecap="round" stroke-linejoin="round"><path stroke="var(--sl-c-000cfe,#000cfe)" d="M6 10.5 5 13m3-2.5L9 13m-5 0h6M6.306 3a.427.427 0 0 0-.427.427V4.63l-1.202 0a.427.427 0 0 0-.427.427v1.388c0 .236.191.427.427.427H5.88v1.202c0 .236.19.427.427.427h1.388a.427.427 0 0 0 .427-.427V6.87h1.202a.427.427 0 0 0 .427-.427V5.056a.427.427 0 0 0-.427-.427l-1.202 0V3.427A.427.427 0 0 0 7.694 3z"></path><path stroke="var(--sl-c-c71dff,#c71dff)" d="M1.5 1h11c.3 0 .5.2.5.5V10c0 .3-.2.5-.5.5h-11c-.3 0-.5-.2-.5-.5V1.5c0-.3.2-.5.5-.5"></path></g></svg>
