<svg xmlns="http://www.w3.org/2000/svg" fill="none" viewBox="0 0 14 14"><g stroke-linecap="round" stroke-linejoin="round"><path stroke="var(--sl-c-000cfe,#000cfe)" d="M6.306 5.5a.427.427 0 0 0-.427.427V7.13l-1.202 0a.427.427 0 0 0-.427.427v1.388c0 .236.191.427.427.427H5.88v1.202c0 .236.19.427.427.427h1.388a.427.427 0 0 0 .427-.427V9.37h1.202a.427.427 0 0 0 .427-.427V7.556a.427.427 0 0 0-.427-.427l-1.202 0V5.927a.427.427 0 0 0-.427-.427z"></path><path stroke="var(--sl-c-c71dff,#c71dff)" d="M12.077 1H1.923A.923.923 0 0 0 1 1.923v10.154c0 .51.413.923.923.923h10.154c.51 0 .923-.413.923-.923V1.923A.923.923 0 0 0 12.077 1"></path><path stroke="var(--sl-c-000cfe,#000cfe)" d="M13 3.5H1V1.923c0-.51.413-.923.923-.923h10.154c.51 0 .923.413.923.923z"></path></g></svg>
