<svg xmlns="http://www.w3.org/2000/svg" fill="none" viewBox="0 0 14 14"><g stroke-linecap="round" stroke-linejoin="round"><path stroke="var(--sl-c-c71dff,#c71dff)" d="M12.5 6.9 6.1.5.7 7.7A1 1 0 0 0 .79 9L4 12.21a1 1 0 0 0 1.29.09z"></path><path stroke="var(--sl-c-000cfe,#000cfe)" d="M11.304 13.067c-.387-.448-.262-1.118-.037-1.666.162-.395.366-.76.608-1.176A.42.42 0 0 1 12.25 10a.4.4 0 0 1 .367.225c.247.417.454.783.617 1.18.225.545.35 1.212-.035 1.66q-.03.034-.065.069a1.25 1.25 0 0 1-1.83-.067"></path></g></svg>
