<svg xmlns="http://www.w3.org/2000/svg" fill="none" viewBox="0 0 14 14"><g stroke-linecap="round" stroke-linejoin="round"><path stroke="var(--sl-c-000cfe,#000cfe)" d="M11.5 8.5h-9l-.76 3.8a1 1 0 0 0 .21.83 1 1 0 0 0 .77.37h8.56a1 1 0 0 0 .77-.37 1 1 0 0 0 .21-.83z"></path><path stroke="var(--sl-c-c71dff,#c71dff)" d="M11.5 5.5a1 1 0 0 1 1 1v2h-11v-2a1 1 0 0 1 1-1H4a1 1 0 0 0 1-1v-2a2 2 0 1 1 4 0v2a1 1 0 0 0 1 1z"></path><path stroke="var(--sl-c-000cfe,#000cfe)" d="M8.5 13.5V11"></path></g></svg>
