<svg xmlns="http://www.w3.org/2000/svg" fill="none" viewBox="0 0 14 14"><g stroke-linecap="round" stroke-linejoin="round"><path stroke="var(--sl-c-000cfe,#000cfe)" d="M7.268 11.601h1M6.985 8V5.145M4.208 8 2.68 5.145M9.762 8l1.528-2.855"></path><path stroke="var(--sl-c-c71dff,#c71dff)" d="M9.577 8H4.423a.923.923 0 0 0-.923.923v3.654c0 .51.413.923.923.923h5.154c.51 0 .923-.413.923-.923V8.923A.923.923 0 0 0 9.577 8m2.72-2.855H1.703A1.203 1.203 0 0 1 .5 3.942c0-.261.082-.517.25-.717C2.288 1.405 4.587.501 6.96.5c2.353 0 4.748.91 6.289 2.726a1.1 1.1 0 0 1 .251.716c0 .664-.539 1.203-1.203 1.203"></path></g></svg>
