<svg xmlns="http://www.w3.org/2000/svg" fill="none" viewBox="0 0 14 14"><g stroke-linecap="round" stroke-linejoin="round"><path stroke="var(--sl-c-c71dff,#c71dff)" d="m2.127 13.43 6.68-2.49a1.25 1.25 0 0 0 .48-2.05L5.097 4.7a1.26 1.26 0 0 0-2.06.53l-2.48 6.68a1.22 1.22 0 0 0 1.57 1.52"></path><path stroke="var(--sl-c-000cfe,#000cfe)" d="M11.95 7.13a2.06 2.06 0 0 0-1.46-.21m-.613-2.415a2.1 2.1 0 0 0 .33-1.45M7.37.5a4.72 4.72 0 0 1-.13 3.28M13 3.75a.5.5 0 1 1 0-1 .5.5 0 0 1 0 1"></path></g></svg>
