<svg xmlns="http://www.w3.org/2000/svg" fill="none" viewBox="0 0 14 14"><g stroke-linecap="round" stroke-linejoin="round"><path stroke="var(--sl-c-000cfe,#000cfe)" d="M2.75 5a.25.25 0 0 1 0-.5m0 .5a.25.25 0 0 0 0-.5m8.5.5a.25.25 0 1 1 0-.5m0 .5a.25.25 0 1 0 0-.5m-3.186-.861a.83.83 0 0 0-.786-.556h-.645a.744.744 0 0 0-.16 1.47l.983.216a.834.834 0 0 1-.178 1.648h-.556a.83.83 0 0 1-.786-.556M7 13v-2m2.5 1v-2m-5 2v-2"></path><path stroke="var(--sl-c-c71dff,#c71dff)" d="M12 8.5H2a1 1 0 0 1-1-1V2a1 1 0 0 1 1-1h10a1 1 0 0 1 1 1v5.5a1 1 0 0 1-1 1"></path></g></svg>
