<svg xmlns="http://www.w3.org/2000/svg" fill="none" viewBox="0 0 14 14"><g stroke="var(--sl-c-c71dff,#c71dff)" stroke-linecap="round" stroke-linejoin="round"><path d="M10.21 13.5c1.464-1.429 1.563-3.26 1.743-4.356.31-1.89-1.743-2.666-4.015-3.106l.292-4.223a1.14 1.14 0 0 0-2.269-.21l-.473 3.984-1.043-3.788A1.307 1.307 0 0 0 2.893.882a1.21 1.21 0 0 0-.894 1.497l1.45 5.44"></path><path d="M3.886 13.5C1.909 12.712 1.6 10.71 1.69 9.313c.056-.879.854-1.491 1.735-1.491l3.192 0a1.043 1.043 0 0 1 .243 2.057l-1.807.434c.57-.094 1.87.48 1.917 1.734"></path></g></svg>
