<svg xmlns="http://www.w3.org/2000/svg" fill="none" viewBox="0 0 14 14"><g stroke-linecap="round" stroke-linejoin="round"><path stroke="var(--sl-c-000cfe,#000cfe)" d="M1.5 8.5c.552 0 1-.672 1-1.5s-.448-1.5-1-1.5-1 .672-1 1.5.448 1.5 1 1.5m3.25-4c.552 0 1-.672 1-1.5s-.448-1.5-1-1.5-1 .672-1 1.5.448 1.5 1 1.5m4.5 0c.552 0 1-.672 1-1.5s-.448-1.5-1-1.5-1 .672-1 1.5.448 1.5 1 1.5m3.25 4c.552 0 1-.672 1-1.5s-.448-1.5-1-1.5-1 .672-1 1.5.448 1.5 1 1.5"></path><path stroke="var(--sl-c-c71dff,#c71dff)" d="M10.5 10.318c0 1.506-1.89 2.182-3.5 2.182s-3.5-.676-3.5-2.182S4.667 6.5 7 6.5s3.5 2.313 3.5 3.818"></path></g></svg>
