<svg xmlns="http://www.w3.org/2000/svg" fill="none" viewBox="0 0 14 14"><g stroke-linecap="round" stroke-linejoin="round"><path stroke="var(--sl-c-c71dff,#c71dff)" d="M.5 7a6.5 6.5 0 1 0 13 0 6.5 6.5 0 1 0-13 0"></path><path stroke="var(--sl-c-000cfe,#000cfe)" d="M2.528 7.664c.287-.139.995-.312 1.536.105.54.417.554 1.145.493 1.458-.06.312-.047 1.04.494 1.457.54.417 1.249.244 1.535.105M8.833 6.5A1.667 1.667 0 1 0 7.32 4.137a1.25 1.25 0 1 0 .385 1.922 1.66 1.66 0 0 0 1.13.441M8.25 9a.25.25 0 1 1 0-.5m0 .5a.25.25 0 1 0 0-.5m-5-3a.25.25 0 1 1 0-.5m0 .5a.25.25 0 1 0 0-.5m7 5a.25.25 0 0 1 0-.5m0 .5a.25.25 0 0 0 0-.5"></path></g></svg>
