<svg xmlns="http://www.w3.org/2000/svg" fill="none" viewBox="0 0 14 14"><g stroke-linecap="round" stroke-linejoin="round"><path stroke="var(--sl-c-000cfe,#000cfe)" d="m6.59 5.313 3.423-4.19a1.35 1.35 0 1 1 2.269 1.462l-1.274 2.728M5.251 9.282H8.75M7 7.534v3.497"></path><path stroke="var(--sl-c-c71dff,#c71dff)" d="m1.72 8.79-.214-2.403a.966.966 0 0 1 .96-1.074h9.068a.966.966 0 0 1 .96 1.074L12.28 8.79a3.86 3.86 0 0 1-1.898 2.908c.164.295.278.623.33.973A.722.722 0 0 1 10 13.5H4a.722.722 0 0 1-.714-.829 2.9 2.9 0 0 1 .33-.973A3.86 3.86 0 0 1 1.72 8.79"></path></g></svg>
