<svg xmlns="http://www.w3.org/2000/svg" fill="none" viewBox="0 0 14 14"><g stroke-linecap="round" stroke-linejoin="round"><path stroke="var(--sl-c-000cfe,#000cfe)" d="M.5 2.763c.262.707.76 1.241 1.27 1.62m4.98.519-1.854 0m4.938 1.502a.25.25 0 1 1 0-.5m0 .5a.25.25 0 0 0 0-.5"></path><path stroke="var(--sl-c-c71dff,#c71dff)" d="M10.378 1.896v1.822c.997.532 1.528 1.335 1.528 2.64l1.594.896V9c-.719.844-1.917 1.517-3.122 1.915V12a.5.5 0 0 1-.5.5H8.225a.5.5 0 0 1-.5-.5v-1.085H4.446V12a.5.5 0 0 1-.5.5H2.114a.49.49 0 0 1-.458-.31C.9 10.205.309 7.212 1.234 5.302 1.905 3.915 3 2.313 7.544 3.039c.5-1.229 1.811-1.56 2.499-1.538.206.006.335.189.335.395"></path></g></svg>
