<svg xmlns="http://www.w3.org/2000/svg" fill="none" viewBox="0 0 14 14"><g stroke-linecap="round" stroke-linejoin="round"><path stroke="var(--sl-c-000cfe,#000cfe)" d="M4.607 8.375a1.227 1.227 0 1 0 0-2.455 1.227 1.227 0 0 0 0 2.455"></path><path stroke="var(--sl-c-000cfe,#000cfe)" d="M8.37 5.193a2.73 2.73 0 0 0-2.545-1.818v3.773"></path><path stroke="var(--sl-c-c71dff,#c71dff)" d="M9.821 1H1.93a.93.93 0 0 0-.93.929V9.82a.93.93 0 0 0 .929.929H9.82a.93.93 0 0 0 .929-.929V1.93A.93.93 0 0 0 9.821 1"></path><path stroke="var(--sl-c-000cfe,#000cfe)" d="M13 3.5V12a1 1 0 0 1-1 1H3.5"></path></g></svg>
