<svg xmlns="http://www.w3.org/2000/svg" fill="none" viewBox="0 0 14 14"><g stroke-linecap="round" stroke-linejoin="round"><path stroke="var(--sl-c-c71dff,#c71dff)" d="M5.5 1h-4a.5.5 0 0 0-.5.5v4a.5.5 0 0 0 .5.5h4a.5.5 0 0 0 .5-.5v-4a.5.5 0 0 0-.5-.5m7 0h-4a.5.5 0 0 0-.5.5v4a.5.5 0 0 0 .5.5h4a.5.5 0 0 0 .5-.5v-4a.5.5 0 0 0-.5-.5m0 7h-4a.5.5 0 0 0-.5.5v4a.5.5 0 0 0 .5.5h4a.5.5 0 0 0 .5-.5v-4a.5.5 0 0 0-.5-.5m-7 0h-4a.5.5 0 0 0-.5.5v4a.5.5 0 0 0 .5.5h4a.5.5 0 0 0 .5-.5v-4a.5.5 0 0 0-.5-.5"></path><path stroke="var(--sl-c-000cfe,#000cfe)" d="M6 4H1v1.5a.5.5 0 0 0 .5.5h4a.5.5 0 0 0 .5-.5zm7 0H8v1.5a.5.5 0 0 0 .5.5h4a.5.5 0 0 0 .5-.5zm-7 7H1v1.5a.5.5 0 0 0 .5.5h4a.5.5 0 0 0 .5-.5zm7 0H8v1.5a.5.5 0 0 0 .5.5h4a.5.5 0 0 0 .5-.5z"></path></g></svg>
