<svg xmlns="http://www.w3.org/2000/svg" fill="none" viewBox="0 0 14 14"><g stroke-linecap="round" stroke-linejoin="round"><path stroke="var(--sl-c-000cfe,#000cfe)" d="M1.445 3.643h11.118M1.445 10.357l11.118 0M3.448 5.855v1.062m0 0L2.74 7.98m.708-1.063.709 1.063m-.709-1.063-1.062-.354m1.062.354 1.063-.354m2.449-.708v1.062m0 0L6.252 7.98m.708-1.063.71 1.063m-.71-1.063-1.062-.354m1.062.354 1.063-.354m2.449-.708v1.062m0 0L9.764 7.98m.708-1.063.709 1.063m-.709-1.063L9.41 6.563m1.062.354 1.063-.354"></path><path stroke="var(--sl-c-c71dff,#c71dff)" d="M.5 7a6.5 6.5 0 1 0 13 0 6.5 6.5 0 1 0-13 0"></path></g></svg>
