<svg xmlns="http://www.w3.org/2000/svg" fill="none" viewBox="0 0 14 14"><g stroke-linecap="round" stroke-linejoin="round"><path stroke="var(--sl-c-000cfe,#000cfe)" d="M4.375 5.25a.125.125 0 1 1 0-.25m0 .25a.125.125 0 1 0 0-.25m5.5.25a.125.125 0 1 1 0-.25m0 .25a.125.125 0 1 0 0-.25M4 8.5a3 2.5 0 1 0 6 0 3 2.5 0 1 0-6 0"></path><path stroke="var(--sl-c-c71dff,#c71dff)" d="M7 13c3.314 0 6-2.462 6-5.5 0-.851-.211-1.657-.588-2.377L12 1 9.221 2.39A6.5 6.5 0 0 0 7 2a6.4 6.4 0 0 0-2.221.39L2 1l-.412 4.123A5.1 5.1 0 0 0 1 7.5C1 10.538 3.686 13 7 13"></path><path stroke="var(--sl-c-000cfe,#000cfe)" d="M6 8.25v.5m2-.5v.5"></path></g></svg>
