<svg xmlns="http://www.w3.org/2000/svg" fill="none" viewBox="0 0 14 14"><g stroke-linecap="round" stroke-linejoin="round"><path stroke="var(--sl-c-000cfe,#000cfe)" d="M8.218.996v2.838a.27.27 0 0 1-.093.2.34.34 0 0 1-.225.084H5.99a.34.34 0 0 1-.224-.083.27.27 0 0 1-.093-.2V.995"></path><path stroke="var(--sl-c-c71dff,#c71dff)" d="M3.735 10.938a.25.25 0 1 1 0-.5m0 .5a.25.25 0 1 0 0-.5m3.265.5a.25.25 0 1 1 0-.5m0 .5a.25.25 0 1 0 0-.5m3.265.5a.25.25 0 1 1 0-.5m0 .5a.25.25 0 1 0 0-.5m.18-9.442h-7c-.351 0-.636.254-.636.568v6.243c0 .314.285.568.636.568h7c.351 0 .636-.254.636-.568V1.564c0-.314-.285-.568-.636-.568"></path><path stroke="var(--sl-c-000cfe,#000cfe)" d="M3.313 8.375h7.374a2.312 2.312 0 1 1 0 4.625H3.314a2.312 2.312 0 1 1 0-4.625"></path></g></svg>
