<svg xmlns="http://www.w3.org/2000/svg" fill="none" viewBox="0 0 14 14"><g stroke-linecap="round" stroke-linejoin="round"><path stroke="var(--sl-c-c71dff,#c71dff)" d="M11.5 1H3a2 2 0 0 0-2 2v10l2.25-1.5L5.5 13l2.25-1.5L10 13V2.5A1.5 1.5 0 0 1 11.5 1m0 0A1.5 1.5 0 0 1 13 2.5V5h-3"></path><path stroke="var(--sl-c-000cfe,#000cfe)" d="M6.938 5.118a1.08 1.08 0 0 0-1.021-.722h-.839a.967.967 0 0 0-.207 1.912l1.277.279a1.084 1.084 0 0 1-.231 2.142h-.723c-.471 0-.873-.301-1.021-.722m1.383-3.611V3.313m0 6.5V8.729"></path></g></svg>
