<svg xmlns="http://www.w3.org/2000/svg" fill="none" viewBox="0 0 14 14"><g stroke-linecap="round" stroke-linejoin="round"><path stroke="var(--sl-c-000cfe,#000cfe)" d="M7 11.5v2m0-13a3 3 0 0 0-2.926 2.334A10 10 0 0 1 7 4.147a10 10 0 0 1 2.926-1.313A3 3 0 0 0 7 .5"></path><path stroke="var(--sl-c-c71dff,#c71dff)" d="M1.5 6V2.5c4.54 0 8.375 3.026 9.595 7.172A5.5 5.5 0 0 1 1.5 6"></path><path stroke="var(--sl-c-c71dff,#c71dff)" d="M12.5 6V2.5A9.95 9.95 0 0 0 7 4.147a10.02 10.02 0 0 1 4.095 5.525A5.48 5.48 0 0 0 12.5 6"></path></g></svg>
