<svg xmlns="http://www.w3.org/2000/svg" fill="none" viewBox="0 0 14 14"><g stroke-linecap="round" stroke-linejoin="round"><path stroke="var(--sl-c-000cfe,#000cfe)" d="M8.702 5.138a1.33 1.33 0 0 0-1.258-.889H6.412a1.19 1.19 0 0 0-.254 2.353l1.571.344a1.334 1.334 0 0 1-.285 2.637h-.888a1.33 1.33 0 0 1-1.258-.89M7 4.25V2.915m0 8.001V9.582"></path><path stroke="var(--sl-c-c71dff,#c71dff)" d="M10 1h2a1 1 0 0 1 1 1v2M1 4V2a1 1 0 0 1 1-1h2m6 12h2a1 1 0 0 0 1-1v-2M1 10v2a1 1 0 0 0 1 1h2"></path></g></svg>
