<svg xmlns="http://www.w3.org/2000/svg" fill="none" viewBox="0 0 14 14"><g stroke-linecap="round" stroke-linejoin="round"><path stroke="var(--sl-c-000cfe,#000cfe)" d="M11.5 7H1m0-3h10.5m-7 0v3M8 4v3"></path><path stroke="var(--sl-c-c71dff,#c71dff)" d="M2 11.5a1 1 0 0 1-1-1V3a1 1 0 0 1 1-1h8.5a1 1 0 0 1 1 1v4h.5a1 1 0 0 1 1 1v2.5a1 1 0 0 1-1 1h-.5m-6.5 0h3.5"></path><path stroke="var(--sl-c-000cfe,#000cfe)" d="M9.999 13a1.501 1.501 0 1 1 0-3.002 1.501 1.501 0 0 1 0 3.002m-6.5 0a1.501 1.501 0 1 1 0-3.002 1.501 1.501 0 0 1 0 3.002"></path></g></svg>
