<svg xmlns="http://www.w3.org/2000/svg" fill="none" viewBox="0 0 14 14"><g stroke-linecap="round" stroke-linejoin="round"><path stroke="var(--sl-c-000cfe,#000cfe)" d="M9.479 10.472v.993a.99.99 0 0 1-.993.992H5.51a.99.99 0 0 1-.992-.992v-.993"></path><path stroke="var(--sl-c-c71dff,#c71dff)" d="M4.795 2.884a2.48 2.48 0 0 0-3.543 3.122q-.188.24-.344.466c-.568.822-.2 1.884.673 2.369l2.937 1.631h5.007l2.9-1.628c.869-.488 1.233-1.545.668-2.365a10 10 0 0 0-.348-.473 2.48 2.48 0 0 0-3.543-3.122 2.48 2.48 0 0 0-4.408 0m3.692 3.124.719-3.13m3.596 2.991L9.975 7.992M5.51 6.008l-.718-3.13M1.195 5.869l2.827 2.123"></path></g></svg>
