<svg xmlns="http://www.w3.org/2000/svg" fill="none" viewBox="0 0 14 14"><g stroke-linecap="round" stroke-linejoin="round"><path stroke="var(--sl-c-000cfe,#000cfe)" d="M4.5 8v2.5M7 8v2.5M9.5 8v2.5m-.02-8.46a2.79 2.79 0 0 1 2.3 2.46l.11 1M4.52 2.06a2.79 2.79 0 0 0-2.3 2.44l-.11 1"></path><path stroke="var(--sl-c-000cfe,#000cfe)" d="M9.5 2.25A1.25 1.25 0 0 1 8.25 3.5h-2.5a1.25 1.25 0 0 1 0-2.5h2.5A1.25 1.25 0 0 1 9.5 2.25"></path><path stroke="var(--sl-c-c71dff,#c71dff)" d="M12.067 5.5H1.952a.9.9 0 0 0-.392.086.95.95 0 0 0-.323.251 1.02 1.02 0 0 0-.229.793l.689 5.5c.03.242.142.464.316.624s.397.248.627.246h8.72a.9.9 0 0 0 .627-.246c.174-.16.286-.382.316-.624l.689-5.5a1.1 1.1 0 0 0-.032-.418 1 1 0 0 0-.19-.367.95.95 0 0 0-.317-.252.9.9 0 0 0-.386-.093"></path></g></svg>
