<svg xmlns="http://www.w3.org/2000/svg" fill="none" viewBox="0 0 14 14"><g stroke-linecap="round" stroke-linejoin="round"><path stroke="var(--sl-c-000cfe,#000cfe)" d="M9 1.5 11 5M3 5l2-3.5"></path><path stroke="var(--sl-c-c71dff,#c71dff)" d="M12.529 5H1.471a.9.9 0 0 0-.415.09.96.96 0 0 0-.336.27 1.05 1.05 0 0 0-.201.84l1.047 5.5c.044.23.164.435.338.581a.92.92 0 0 0 .614.219h8.962a.92.92 0 0 0 .614-.219c.174-.146.294-.352.338-.581l1.048-5.5a1.05 1.05 0 0 0-.202-.84.96.96 0 0 0-.336-.27.9.9 0 0 0-.415-.09"></path></g></svg>
