<svg xmlns="http://www.w3.org/2000/svg" fill="none" viewBox="0 0 14 14"><g stroke-linecap="round" stroke-linejoin="round"><path stroke="var(--sl-c-c71dff,#c71dff)" d="M12 1H2a1 1 0 0 0-1 1v10a1 1 0 0 0 1 1h10a1 1 0 0 0 1-1V2a1 1 0 0 0-1-1"></path><path stroke="var(--sl-c-000cfe,#000cfe)" d="M6.056 3.75a.427.427 0 0 0-.427.427V5.63H4.177a.427.427 0 0 0-.427.427v1.888c0 .236.191.427.427.427H5.63v1.452c0 .236.19.427.427.427h1.888a.427.427 0 0 0 .427-.427V8.37h1.452a.427.427 0 0 0 .427-.427V6.056a.427.427 0 0 0-.427-.427l-1.452 0V4.177a.427.427 0 0 0-.427-.427z"></path></g></svg>
