<svg xmlns="http://www.w3.org/2000/svg" fill="none" viewBox="0 0 14 14"><g stroke-linecap="round" stroke-linejoin="round"><path stroke="var(--sl-c-c71dff,#c71dff)" d="M7 2.5A1.5 1.5 0 0 1 8.5 1v0A1.5 1.5 0 0 1 10 2.5v3A1.5 1.5 0 0 1 8.5 7v0A1.5 1.5 0 0 1 7 5.5zM2.5 7A1.5 1.5 0 0 1 1 5.5v0A1.5 1.5 0 0 1 2.5 4l3 0A1.5 1.5 0 0 1 7 5.5v0A1.5 1.5 0 0 1 5.5 7zM7 11.5A1.5 1.5 0 0 1 5.5 13v0A1.5 1.5 0 0 1 4 11.5l0-3A1.5 1.5 0 0 1 5.5 7v0A1.5 1.5 0 0 1 7 8.5zM11.5 7A1.5 1.5 0 0 1 13 8.5v0a1.5 1.5 0 0 1-1.5 1.5l-3 0A1.5 1.5 0 0 1 7 8.5v0A1.5 1.5 0 0 1 8.5 7z"></path><path stroke="var(--sl-c-000cfe,#000cfe)" d="M4 2.5A1.5 1.5 0 0 1 5.5 1v0A1.5 1.5 0 0 1 7 2.5V4H5.5A1.5 1.5 0 0 1 4 2.5M11.5 4A1.5 1.5 0 0 1 13 5.5v0A1.5 1.5 0 0 1 11.5 7L10 7l0-1.5A1.5 1.5 0 0 1 11.5 4M10 11.5A1.5 1.5 0 0 1 8.5 13v0A1.5 1.5 0 0 1 7 11.5L7 10l1.5 0a1.5 1.5 0 0 1 1.5 1.5M2.5 10A1.5 1.5 0 0 1 1 8.5v0A1.5 1.5 0 0 1 2.5 7L4 7l0 1.5A1.5 1.5 0 0 1 2.5 10"></path></g></svg>
