<svg xmlns="http://www.w3.org/2000/svg" fill="none" viewBox="0 0 14 14"><g stroke-linecap="round" stroke-linejoin="round"><path stroke="var(--sl-c-c71dff,#c71dff)" d="M13.5 7a6.5 6.5 0 1 1-13 0m5-6.326a6.5 6.5 0 0 1 3 0"></path><path stroke="var(--sl-c-000cfe,#000cfe)" d="M3.25 2.657C2.163 1.323 1.015 2.27 1 3.292c0 1.521 1.82 2.77 2.25 2.77S5.5 4.813 5.5 3.292c-.015-1.021-1.163-1.97-2.25-.635m7.5 0c1.087-1.334 2.235-.386 2.25.635 0 1.521-1.82 2.77-2.25 2.77S8.5 4.813 8.5 3.292c.015-1.021 1.163-1.97 2.25-.635M3.645 8a3.502 3.502 0 0 0 6.71 0"></path></g></svg>
