<svg xmlns="http://www.w3.org/2000/svg" fill="none" viewBox="0 0 14 14"><g stroke-linecap="round" stroke-linejoin="round"><path stroke="var(--sl-c-000cfe,#000cfe)" d="M7 11c.828 0 1.5-.783 1.5-1.75S7.828 7.5 7 7.5s-1.5.784-1.5 1.75S6.172 11 7 11"></path><path stroke="var(--sl-c-c71dff,#c71dff)" d="M7 13.5a6.5 6.5 0 1 0 0-13 6.5 6.5 0 0 0 0 13"></path><path stroke="var(--sl-c-000cfe,#000cfe)" d="M4.25 6a.25.25 0 0 1 0-.5m0 .5a.25.25 0 0 0 0-.5m5.5.5a.25.25 0 0 1 0-.5m0 .5a.25.25 0 0 0 0-.5M5.346 3.484c.31.254.992.417 1.654.417s1.344-.163 1.655-.417"></path></g></svg>
