<svg xmlns="http://www.w3.org/2000/svg" fill="none" viewBox="0 0 14 14"><g stroke-linecap="round" stroke-linejoin="round"><path stroke="var(--sl-c-000cfe,#000cfe)" d="M4.75 5.5a.25.25 0 0 1 0-.5m0 .5a.25.25 0 0 0 0-.5m4.5.5a.25.25 0 0 1 0-.5m0 .5a.25.25 0 0 0 0-.5"></path><path stroke="var(--sl-c-c71dff,#c71dff)" d="M7 13.5a6.5 6.5 0 1 0 0-13 6.5 6.5 0 0 0 0 13"></path><path stroke="var(--sl-c-000cfe,#000cfe)" d="M4.899 9.194c.235-.325.987-.975 2.114-.975 1.128 0 1.88.65 2.115.975"></path><path stroke="var(--sl-c-000cfe,#000cfe)" d="M4.08 8.185c.773.336 1.01 1.242.702 2.084M9.92 8.185c-.773.336-1.01 1.242-.702 2.084"></path></g></svg>
