<svg xmlns="http://www.w3.org/2000/svg" fill="none" viewBox="0 0 14 14"><g stroke-linecap="round" stroke-linejoin="round"><path stroke="var(--sl-c-000cfe,#000cfe)" d="M.749 3.746c-.332-.058-.332-.534 0-.592C1.998 2.937 2.92 1.965 3.187.747c.072-.328.539-.33.614-.003.278 1.22 1.193 2.19 2.449 2.409.333.058.333.537 0 .595-1.256.218-2.171 1.19-2.45 2.408-.074.327-.54.325-.613-.002C2.921 4.935 1.998 3.964.75 3.746m.884 3.431v2.269M.5 8.312h2.268"></path><path stroke="var(--sl-c-c71dff,#c71dff)" d="M4.404 13.5a1.654 1.654 0 1 0 0-3.308 1.654 1.654 0 0 0 0 3.308m7.442-2.067a1.654 1.654 0 1 0 0-3.308 1.654 1.654 0 0 0 0 3.308M6.058 7.298 13.5 5.231"></path><path stroke="var(--sl-c-c71dff,#c71dff)" d="M13.5 9.748v-6.58a.43.43 0 0 0-.163-.332.41.41 0 0 0-.358-.072L8.523 4.02m-2.465 7.826v-5.69"></path></g></svg>
