<svg xmlns="http://www.w3.org/2000/svg" fill="none" viewBox="0 0 14 14"><path stroke="var(--sl-c-c71dff,#c71dff)" stroke-linecap="round" stroke-linejoin="round" d="M3.375 4.998c-.197-.558-.812-.958-1.437-.958C1.174 4.04.5 4.66.5 5.423c0 .595.405 1.114.982 1.258l.812.203c.636.159 1.081.73 1.081 1.384v.084c0 .794-.644 1.438-1.437 1.438-.626 0-1.24-.4-1.438-.959m13-3.833c-.197-.558-.811-.958-1.437-.958-.764 0-1.438.62-1.438 1.383 0 .595.405 1.114.983 1.258l.812.203c.635.159 1.08.73 1.08 1.384v.084c0 .794-.643 1.438-1.437 1.438-.626 0-1.24-.4-1.438-.959M5.563 5.563v2.875a1.437 1.437 0 1 0 2.875 0V5.562a1.437 1.437 0 1 0-2.876 0"></path></svg>
