<svg xmlns="http://www.w3.org/2000/svg" fill="none" viewBox="0 0 14 14"><g stroke-linecap="round" stroke-linejoin="round"><path stroke="var(--sl-c-c71dff,#c71dff)" d="M11.5.5h-9a1 1 0 0 0-1 1v11a1 1 0 0 0 1 1h9a1 1 0 0 0 1-1v-11a1 1 0 0 0-1-1"></path><path stroke="var(--sl-c-000cfe,#000cfe)" d="M7 11.5a3 3 0 1 0 0-6 3 3 0 0 0 0 6"></path><path stroke="var(--sl-c-c71dff,#c71dff)" d="M7 8.75a.25.25 0 0 1 0-.5m0 .5a.25.25 0 0 0 0-.5"></path><path stroke="var(--sl-c-000cfe,#000cfe)" d="M7 3.276a.25.25 0 0 1 0-.5m0 .5a.25.25 0 0 0 0-.5"></path></g></svg>
