<svg xmlns="http://www.w3.org/2000/svg" fill="none" viewBox="0 0 14 14"><g stroke-linecap="round" stroke-linejoin="round"><path stroke="var(--sl-c-000cfe,#000cfe)" d="M7 10.5a3.5 3.5 0 1 0 0-7 3.5 3.5 0 0 0 0 7"></path><path stroke="var(--sl-c-c71dff,#c71dff)" d="M7 7.5a.5.5 0 1 0 0-1 .5.5 0 0 0 0 1"></path><path stroke="var(--sl-c-c71dff,#c71dff)" d="M12.118 10.133A5.97 5.97 0 0 0 13 7a5.97 5.97 0 0 0-.882-3.133 1.5 1.5 0 1 0-1.985-1.985A5.97 5.97 0 0 0 7 1a5.97 5.97 0 0 0-3.133.882 1.5 1.5 0 1 0-1.985 1.985A5.97 5.97 0 0 0 1 7c0 1.148.323 2.221.882 3.133a1.5 1.5 0 1 0 1.985 1.985A5.97 5.97 0 0 0 7 13a5.97 5.97 0 0 0 3.133-.882 1.5 1.5 0 1 0 1.985-1.985"></path></g></svg>
