<svg xmlns="http://www.w3.org/2000/svg" fill="none" viewBox="0 0 14 14"><g stroke-linecap="round" stroke-linejoin="round"><path stroke="var(--sl-c-000cfe,#000cfe)" d="M8.104 5.805C7.336 7.033 7 8.468 7 10c0-.948-.68-2.536-1.506-3.217"></path><path stroke="var(--sl-c-000cfe,#000cfe)" d="M11.586 5.967a2.54 2.54 0 0 1-3.582-3.581c.992-.982 4.495-.883 4.495-.883s.079 3.472-.913 4.464"></path><path stroke="var(--sl-c-c71dff,#c71dff)" d="M.5 12.5C1.167 11.667 3.4 10 7 10s5.833 1.667 6.5 2.5"></path><path stroke="var(--sl-c-000cfe,#000cfe)" d="M2.611 7.079a1.984 1.984 0 1 0 2.45-3.115C4.209 3.289 1.5 3.686 1.5 3.686s.248 2.718 1.111 3.393"></path></g></svg>
