<svg xmlns="http://www.w3.org/2000/svg" fill="none" viewBox="0 0 14 14"><g stroke-linecap="round" stroke-linejoin="round"><path stroke="var(--sl-c-c71dff,#c71dff)" d="M.5 10.75h13m-2.75 2.75 2.75-2.75L10.75 8"></path><path stroke="var(--sl-c-000cfe,#000cfe)" d="M2.2 4.767 2.2.5c0 .59-.478 1.067-1.067 1.067l-.355 0m2.844 3.2H.778m7.644 0H5.578v-.606c0-.424.25-.808.639-.977L7.8 2.49A1.04 1.04 0 0 0 7.383.5h-.739c-.464 0-.86.297-1.006.711m6.545 1.245c.59 0 1.067.477 1.067 1.066l0 .178c0 .59-.478 1.067-1.067 1.067l-.71 0c-.465 0-.86-.297-1.007-.711m.154-2.845A.98.98 0 0 1 11.561.5l.533 0a.978.978 0 1 1 0 1.956l-.088 0"></path></g></svg>
