<svg xmlns="http://www.w3.org/2000/svg" fill="none" viewBox="0 0 14 14"><g stroke-linecap="round" stroke-linejoin="round"><path stroke="var(--sl-c-000cfe,#000cfe)" d="M2 10v1.5m0-8v-3M7.5 11v2.5m0-6V4"></path><path stroke="var(--sl-c-c71dff,#c71dff)" d="M2.5 3.5h-1a1 1 0 0 0-1 1V9a1 1 0 0 0 1 1h1a1 1 0 0 0 1-1V4.5a1 1 0 0 0-1-1m5.5 4H7a1 1 0 0 0-1 1V10a1 1 0 0 0 1 1h1a1 1 0 0 0 1-1V8.5a1 1 0 0 0-1-1m5.438-5.194a1.08 1.08 0 0 0-1.021-.723h-.839a.967.967 0 0 0-.206 1.912l1.276.28a1.084 1.084 0 0 1-.231 2.142h-.723c-.471 0-.872-.302-1.021-.723m1.383-3.611V.5m0 6.5V5.917"></path></g></svg>
