<svg xmlns="http://www.w3.org/2000/svg" fill="none" viewBox="0 0 14 14"><g stroke-linecap="round" stroke-linejoin="round"><path stroke="var(--sl-c-000cfe,#000cfe)" d="m1 4 1.116-2.42A1 1 0 0 1 3.024 1h7.952a1 1 0 0 1 .907.58L13 4zm0 0h4v1a2 2 0 0 1-2 2v0a2 2 0 0 1-2-2zm4 0h4v1a2 2 0 0 1-2 2v0a2 2 0 0 1-2-2zm4 0h4v1a2 2 0 0 1-2 2v0a2 2 0 0 1-2-2zm-4 7.031a2 2 0 0 1 2-2v0a2 2 0 0 1 2 2V13H5z"></path><path stroke="var(--sl-c-c71dff,#c71dff)" d="M1.5 8.5v4a.5.5 0 0 0 .5.5h10a.5.5 0 0 0 .5-.5v-4"></path></g></svg>
