<svg xmlns="http://www.w3.org/2000/svg" fill="none" viewBox="0 0 14 14"><g stroke-linecap="round" stroke-linejoin="round"><path stroke="var(--sl-c-000cfe,#000cfe)" d="m6 11-1 2.5M8 11l1 2.5m-5 0h6M1.5 3.25l1.001-2.17A1 1 0 0 1 3.41.5h7.182a1 1 0 0 1 .908.58l1 2.17zm0 0h3.667v.667A1.834 1.834 0 0 1 3.333 5.75v0A1.833 1.833 0 0 1 1.5 3.917zm3.667 0h3.666v.667c0 1.012-.82 1.833-1.833 1.833v0a1.833 1.833 0 0 1-1.833-1.833z"></path><path stroke="var(--sl-c-000cfe,#000cfe)" d="M8.833 3.25H12.5v.667c0 1.012-.82 1.833-1.833 1.833v0a1.833 1.833 0 0 1-1.834-1.833z"></path><path stroke="var(--sl-c-c71dff,#c71dff)" d="M12.088 7.5v2.469a1 1 0 0 1-1 1H2.911a1 1 0 0 1-1-1V7.5"></path></g></svg>
