<svg xmlns="http://www.w3.org/2000/svg" fill="none" viewBox="0 0 14 14"><g stroke-linecap="round" stroke-linejoin="round"><path stroke="var(--sl-c-000cfe,#000cfe)" d="M4.5.5A2.5 2.5 0 0 1 7 3v0m0 0A2.5 2.5 0 0 1 9.5.5v0M4.5 7a.25.25 0 0 1 0-.5m0 .5a.25.25 0 0 0 0-.5M5.75 10a.25.25 0 0 1 0-.5m0 .5a.25.25 0 0 0 0-.5m2.5.5a.25.25 0 0 1 0-.5m0 .5a.25.25 0 0 0 0-.5M7 7a.25.25 0 0 1 0-.5M7 7a.25.25 0 0 0 0-.5m2.5.5a.25.25 0 0 1 0-.5m0 .5a.25.25 0 0 0 0-.5"></path><path stroke="var(--sl-c-c71dff,#c71dff)" d="M12 7.5c0 3-2.515 6-5 6s-5-3-5-6S3.5 3 7 3s5 2 5 4.5"></path></g></svg>
