<svg xmlns="http://www.w3.org/2000/svg" fill="none" viewBox="0 0 14 14"><g stroke-linecap="round" stroke-linejoin="round"><path stroke="var(--sl-c-000cfe,#000cfe)" d="M8.49 5.444a1.17 1.17 0 0 0-1.101-.777h-.903a1.041 1.041 0 0 0-.223 2.058l1.375.301a1.167 1.167 0 0 1-.25 2.307h-.777c-.508 0-.94-.324-1.1-.777M7 4.667V3.5m0 7V9.333"></path><path stroke="var(--sl-c-c71dff,#c71dff)" d="M13.5 7A6.5 6.5 0 0 1 .998 9.5M.5 7a6.5 6.5 0 0 1 12.502-2.5"></path><path stroke="var(--sl-c-c71dff,#c71dff)" d="M13.5 2.5v2h-2m-11 7v-2h2"></path></g></svg>
