<svg xmlns="http://www.w3.org/2000/svg" fill="none" viewBox="0 0 14 14"><g stroke-linecap="round" stroke-linejoin="round"><path stroke="var(--sl-c-c71dff,#c71dff)" d="m1.283 3.658 1.265-.407a.425.425 0 0 1 .471.157l.868 1.376 4.765-2.373a2.99 2.99 0 0 1 4.312 1.524.813.813 0 0 1-.536 1.015L8.984 6.068l-.59 2.022a.42.42 0 0 1-.287.295l-1.422.462a.443.443 0 0 1-.61-.499l.296-1.44-.203.064-3.056.988a.794.794 0 0 1-1.025-.48L1.016 4.156a.406.406 0 0 1 .267-.498"></path><path stroke="var(--sl-c-000cfe,#000cfe)" d="M1 13h12"></path></g></svg>
