<svg xmlns="http://www.w3.org/2000/svg" fill="none" viewBox="0 0 14 14"><g stroke-linecap="round" stroke-linejoin="round"><path stroke="var(--sl-c-000cfe,#000cfe)" d="M4.5 10h5l1 2.5h-7zm-2-4c0-.69.56-1.25 1.25-1.25h6.5a1.25 1.25 0 1 1 0 2.5h-6.5C3.06 7.25 2.5 6.69 2.5 6"></path><path stroke="var(--sl-c-000cfe,#000cfe)" d="M4.833 4.75a1.5 1.5 0 0 1 0 2.5m4.334-2.5a1.5 1.5 0 0 0 0 2.5"></path><path stroke="var(--sl-c-c71dff,#c71dff)" d="M.5 2.5a1 1 0 0 1 1-1h11a1 1 0 0 1 1 1v9a1 1 0 0 1-1 1h-11a1 1 0 0 1-1-1z"></path></g></svg>
