<svg xmlns="http://www.w3.org/2000/svg" fill="none" viewBox="0 0 14 14"><g stroke-linecap="round" stroke-linejoin="round"><path stroke="var(--sl-c-c71dff,#c71dff)" d="M4.5 2.75h5m.293 1.457L4.207 9.793M4.5 11.25H13m-2 2 2-2-2-2"></path><path stroke="var(--sl-c-000cfe,#000cfe)" d="M12 1h-1.5a1 1 0 0 0-1 1v1.5a1 1 0 0 0 1 1H12a1 1 0 0 0 1-1V2a1 1 0 0 0-1-1M1 12v-1.5a1 1 0 0 1 1-1h1.5a1 1 0 0 1 1 1V12a1 1 0 0 1-1 1H2a1 1 0 0 1-1-1m0-8.5V2a1 1 0 0 1 1-1h1.5a1 1 0 0 1 1 1v1.5a1 1 0 0 1-1 1H2a1 1 0 0 1-1-1"></path></g></svg>
