<svg xmlns="http://www.w3.org/2000/svg" fill="none" viewBox="0 0 14 14"><g stroke-linecap="round" stroke-linejoin="round"><path stroke="var(--sl-c-c71dff,#c71dff)" d="M11.5 5.25V4L8 .5H1.5a1 1 0 0 0-1 1v11a1 1 0 0 0 1 1h3"></path><path stroke="var(--sl-c-000cfe,#000cfe)" d="M13.425 12.61a.62.62 0 0 1-.202.81.55.55 0 0 1-.288.08h-5.87a.55.55 0 0 1-.49-.3.62.62 0 0 1 0-.59l2.95-5.32a.54.54 0 0 1 1 0zm-3.42-1.969v-1"></path><path stroke="var(--sl-c-000cfe,#000cfe)" d="M10 12.125a.125.125 0 1 1 0-.25m0 .25a.125.125 0 1 0 0-.25"></path></g></svg>
