<svg xmlns="http://www.w3.org/2000/svg" fill="none" viewBox="0 0 14 14"><g stroke-linecap="round" stroke-linejoin="round"><path stroke="var(--sl-c-000cfe,#000cfe)" d="M9.11 1.5v1.89m0 2.54v2.14m0 2.54v1.89"></path><path stroke="var(--sl-c-c71dff,#c71dff)" d="M.5 11.325c0 .649.477 1.175 1.067 1.175h10.866c.59 0 1.067-.526 1.067-1.175V9.163C12.636 8.904 12 8.034 12 7s.636-1.904 1.5-2.163V2.675c0-.649-.478-1.175-1.067-1.175H1.567C.977 1.5.5 2.026.5 2.675v2.158C1.373 5.084 2.017 5.959 2.017 7S1.373 8.916.5 9.167z"></path></g></svg>
