<svg xmlns="http://www.w3.org/2000/svg" fill="none" viewBox="0 0 14 14"><g stroke-linecap="round" stroke-linejoin="round"><path stroke="var(--sl-c-000cfe,#000cfe)" d="M1 12.832a1.75 1.75 0 0 0 2.5-1.582 1.75 1.75 0 1 0 3.5 0 1.75 1.75 0 1 0 3.5 0 1.75 1.75 0 0 0 2.5 1.582"></path><path stroke="var(--sl-c-c71dff,#c71dff)" d="M1 9.332A1.75 1.75 0 0 0 3.5 7.75c0 .967.784 1.75 1.75 1.75C7.5 9.5 8.5 7.995 8.5 6.496 8.5 4.497 7 3 4.501 3.998 4.5 3 6 1 8.499 1 12 1 12.995 3.998 12.995 3.998"></path></g></svg>
