<svg xmlns="http://www.w3.org/2000/svg" fill="none" viewBox="0 0 14 14"><g stroke-linecap="round" stroke-linejoin="round"><path stroke="var(--sl-c-c71dff,#c71dff)" d="M1.045 4.158c.35-3.39 3.152-3.717 5.06-2.54.6.37 1.19.37 1.79 0 1.908-1.177 4.71-.85 5.06 2.54.351 3.402-1.448 7-2.412 8.379-.219.313-.573.463-.94.463-.602 0-1.139-.402-1.343-1.004l-.353-1.042a.958.958 0 0 0-1.814 0l-.353 1.042C5.536 12.598 4.999 13 4.397 13c-.367 0-.721-.15-.94-.463C2.493 11.159.694 7.56 1.045 4.158"></path><path stroke="var(--sl-c-000cfe,#000cfe)" d="M8.473 4.559c-1.21.441-1.86.432-2.946 0"></path></g></svg>
