<svg xmlns="http://www.w3.org/2000/svg" fill="none" viewBox="0 0 14 14"><g stroke-linecap="round" stroke-linejoin="round"><path stroke="var(--sl-c-c71dff,#c71dff)" d="M7.5 8.26H9a2 2 0 0 1 2 2v1.25a1 1 0 0 1-1 1h-.75M7.5 9.25V7a1 1 0 0 0-1-1h-5a1 1 0 0 0-1 1v4.5a1 1 0 0 0 1 1h.75m2.445 0h2.098"></path><path stroke="var(--sl-c-000cfe,#000cfe)" d="M11.674 7.074A3.5 3.5 0 1 0 6.52 3.63M3.469 13.5a1.25 1.25 0 1 1 0-2.5 1.25 1.25 0 0 1 0 2.5m4.551 0a1.25 1.25 0 1 1 0-2.5 1.25 1.25 0 0 1 0 2.5M10 4l1-1"></path></g></svg>
