<svg xmlns="http://www.w3.org/2000/svg" fill="none" viewBox="0 0 14 14"><g stroke-linecap="round" stroke-linejoin="round"><path stroke="var(--sl-c-000cfe,#000cfe)" d="M11.5 3.25h-1a1 1 0 0 0 0 2h1z"></path><path stroke="var(--sl-c-c71dff,#c71dff)" d="M2 11H.5V9a2 2 0 0 1 2-2h2a2 2 0 0 1 2 2v.5A1.5 1.5 0 0 0 8 11m1 0H5m7.05 0h.51c.562 0 1.03-.452.925-.994C13.147 8.278 11.913 7 10.01 7H9.5M8 1.5h1.5v8.379"></path><path stroke="var(--sl-c-000cfe,#000cfe)" d="M10.499 12.5a1.501 1.501 0 1 1 0-3.002 1.501 1.501 0 0 1 0 3.002m-7 0a1.501 1.501 0 1 1 0-3.002 1.501 1.501 0 0 1 0 3.002M1.5 7H4a1 1 0 0 0 1-1V3.5a1 1 0 0 0-1-1H1.5a1 1 0 0 0-1 1V6a1 1 0 0 0 1 1"></path></g></svg>
