<svg xmlns="http://www.w3.org/2000/svg" fill="none" viewBox="0 0 14 14"><g stroke-linecap="round" stroke-linejoin="round"><path stroke="var(--sl-c-000cfe,#000cfe)" d="M1.75.5.5 1.75 1.75 3M.5 1.75h3M12.25.5l1.25 1.25L12.25 3m1.25-1.25h-3"></path><path stroke="var(--sl-c-c71dff,#c71dff)" d="m3 13.5-.528-.793a1.715 1.715 0 0 1 1.145-2.643L4 10l0-4.242a1.25 1.25 0 0 1 1.242-1.25v0A1.25 1.25 0 0 1 6.5 5.758L6.5 9"></path><path stroke="var(--sl-c-c71dff,#c71dff)" d="m6.5 9 0-4.75C6.5 3.56 7.06 3 7.75 3v0C8.44 3 9 3.56 9 4.25L9 9l.5 0a2 2 0 0 1 2 2l0 2.5"></path></g></svg>
