<svg xmlns="http://www.w3.org/2000/svg" fill="none" viewBox="0 0 14 14"><g stroke-linecap="round" stroke-linejoin="round"><path stroke="var(--sl-c-000cfe,#000cfe)" d="M2.263 5.53A2.94 2.94 0 0 1 5.162 2.1a3.675 3.675 0 0 1 6.574 2.76"></path><path stroke="var(--sl-c-c71dff,#c71dff)" d="m3.448 13.37-.518-.777a1.68 1.68 0 0 1 1.122-2.59l.376-.063V5.782c0-.673.543-1.22 1.217-1.225h0a1.225 1.225 0 0 1 1.232 1.225V8.96m.001 0V4.305c0-.676.548-1.225 1.225-1.225h0c.676 0 1.225.548 1.225 1.225V8.96h.49a1.96 1.96 0 0 1 1.96 1.96v2.45"></path></g></svg>
