<svg xmlns="http://www.w3.org/2000/svg" fill="none" viewBox="0 0 14 14"><g stroke-linecap="round" stroke-linejoin="round"><path stroke="var(--sl-c-000cfe,#000cfe)" d="M9.5 6.5h2m-2 2h2M3.042 7.25a1.25 1.25 0 1 0 2.5 0 1.25 1.25 0 1 0-2.5 0M4.292 10a2.5 2.5 0 0 0-2.5 2.5h5a2.5 2.5 0 0 0-2.5-2.5"></path><path stroke="var(--sl-c-c71dff,#c71dff)" d="M.5 3.858C.5 3.384.884 3 1.358 3h11.284c.474 0 .858.384.858.858v7.784a.86.86 0 0 1-.858.858H1.358a.86.86 0 0 1-.858-.858z"></path><path stroke="var(--sl-c-000cfe,#000cfe)" d="M7 1.5v3"></path></g></svg>
