<svg xmlns="http://www.w3.org/2000/svg" fill="none" viewBox="0 0 14 14"><g stroke-linecap="round" stroke-linejoin="round"><path stroke="var(--sl-c-000cfe,#000cfe)" d="M3 5.5a2 2 0 1 0 4 0 2 2 0 1 0-4 0m6 1a1.5 1.5 0 1 0 3 0 1.5 1.5 0 1 0-3 0m1.5 3a3 3 0 0 0-2.454 1.274 3.5 3.5 0 0 1 .35 2.575 6.5 6.5 0 0 0 4.183-3.012A3 3 0 0 0 10.5 9.5"></path><path stroke="var(--sl-c-000cfe,#000cfe)" d="M7 13.5a6.49 6.49 0 0 1-5.148-2.531 3.5 3.5 0 0 1 6.544 2.38Q7.72 13.5 7 13.5"></path><path stroke="var(--sl-c-c71dff,#c71dff)" d="M7 13.5a6.5 6.5 0 1 1 0-13 6.5 6.5 0 0 1 0 13"></path></g></svg>
