<svg xmlns="http://www.w3.org/2000/svg" fill="none" viewBox="0 0 14 14"><g stroke-linecap="round" stroke-linejoin="round"><path stroke="var(--sl-c-000cfe,#000cfe)" d="M3.283 5.076c.464-.31 1.857-.929 3.714-.929s3.25.619 3.715.929M4.63 7.063c.395-.197 1.42-.592 2.367-.592s1.973.395 2.367.592M6.222 9.079c.13-.065.465-.194.775-.194s.646.13.776.194"></path><path stroke="var(--sl-c-c71dff,#c71dff)" d="M12 1H2a1 1 0 0 0-1 1v2.874a8.5 8.5 0 0 0 5.812 8.063L7 13l.188-.063A8.5 8.5 0 0 0 13 4.874V2a1 1 0 0 0-1-1"></path></g></svg>
