<svg xmlns="http://www.w3.org/2000/svg" fill="none" viewBox="0 0 14 14"><g stroke-linecap="round" stroke-linejoin="round"><path stroke="var(--sl-c-000cfe,#000cfe)" d="m5.606 5.607-4.543 0"></path><path stroke="var(--sl-c-c71dff,#c71dff)" d="M3.66 13v-2.002A5.36 5.36 0 0 1 1 6.358C1 3.397 3.383 1 6.322 1c1.778 0 3.368.932 4.334 2.281M8.982 13v-1.72h1.774c.49 0 .887-.398.887-.887V8.175"></path><path stroke="var(--sl-c-000cfe,#000cfe)" d="M5.607 5.607a2.32 2.32 0 0 1 2.321-2.321H12a1 1 0 0 1 1 1v2.643a1 1 0 0 1-1 1H7.928a2.32 2.32 0 0 1-2.321-2.322m3.714-2.321v4.643"></path></g></svg>
