<svg xmlns="http://www.w3.org/2000/svg" fill="none" viewBox="0 0 14 14"><g stroke-linecap="round" stroke-linejoin="round"><path stroke="var(--sl-c-c71dff,#c71dff)" d="M13 11.608a6.05 6.05 0 0 0-1.757-4.264A6 6 0 0 0 7 5.578a6 6 0 0 0-4.243 1.766A6.05 6.05 0 0 0 1 11.608 1.393 1.393 0 0 0 2.385 13h9.23A1.39 1.39 0 0 0 13 11.608"></path><path stroke="var(--sl-c-000cfe,#000cfe)" d="M8.92 1a1.92 1.92 0 1 1-3.84 0"></path><path stroke="var(--sl-c-000cfe,#000cfe)" d="M1 5.454c1.592-1.618 3.75-2.526 6-2.526s4.408.908 6 2.526"></path></g></svg>
