<svg xmlns="http://www.w3.org/2000/svg" fill="none" viewBox="0 0 14 14"><g stroke-linecap="round" stroke-linejoin="round"><path stroke="var(--sl-c-000cfe,#000cfe)" d="M7.25 9.501h2.999s.25 0 .25.25v2.999s0 .25-.25.25H7.25S7 13 7 12.75V9.751s0-.25.25-.25m-1.75-3.5h2.999s.25 0 .25.25V9.25s0 .25-.25.25H5.5s-.25 0-.25-.25V6.251s0-.25.25-.25m-1.749 3.5H6.75s.25 0 .25.25v2.999s0 .25-.25.25H3.751s-.25 0-.25-.25V9.751s0-.25.25-.25"></path><path stroke="var(--sl-c-c71dff,#c71dff)" d="M1 6.94V12a1 1 0 0 0 1 1h10a1 1 0 0 0 1-1V6.94a1 1 0 0 0-.324-.737L7 1 1.324 6.203A1 1 0 0 0 1 6.94"></path></g></svg>
