<svg xmlns="http://www.w3.org/2000/svg" fill="none" viewBox="0 0 14 14"><g stroke-linecap="round" stroke-linejoin="round"><path stroke="var(--sl-c-c71dff,#c71dff)" d="M9.543 12.707a1 1 0 0 1-.707.293H5.164a1 1 0 0 1-.707-.293L1.293 9.543A1 1 0 0 1 1 8.836V5.164a1 1 0 0 1 .293-.707l3.164-3.164A1 1 0 0 1 5.164 1h3.672a1 1 0 0 1 .707.293l3.164 3.164a1 1 0 0 1 .293.707v3.672a1 1 0 0 1-.293.707z"></path><path stroke="var(--sl-c-000cfe,#000cfe)" d="M7 4v3.25M7 10a.25.25 0 0 1 0-.5m0 .5a.25.25 0 0 0 0-.5"></path></g></svg>
