<svg xmlns="http://www.w3.org/2000/svg" fill="none" viewBox="0 0 14 14"><g stroke-linecap="round" stroke-linejoin="round"><path stroke="var(--sl-c-000cfe,#000cfe)" d="M13.5 3.938a2.86 2.86 0 0 0-.546-1.508M4.644.5a2.86 2.86 0 0 0-1.227 1.033"></path><path stroke="var(--sl-c-c71dff,#c71dff)" d="m3.216 12.1-.346-.394A6 6 0 0 1 1.758 9.85l-.687-1.835a1.113 1.113 0 0 1 2.062-.837l.58 1.325c.435.117 1.433.57 1.942 1.453"></path><path stroke="var(--sl-c-c71dff,#c71dff)" d="M3.714 8.505 5.17 3.067a1.126 1.126 0 0 1 2.175.583m0 0L6.47 6.913m.875-3.263.35-1.305a1.126 1.126 0 1 1 2.174.583l-.583 2.175m0 0L8.53 7.93m.757-2.827a1.126 1.126 0 1 1 2.175.583l-1.708 6.377a2 2 0 0 1-.932 1.214l-.386.223"></path></g></svg>
