<svg xmlns="http://www.w3.org/2000/svg" fill="none" viewBox="0 0 14 14"><g stroke-linecap="round" stroke-linejoin="round"><path stroke="var(--sl-c-c71dff,#c71dff)" d="M7 12.5a6 6 0 1 0 0-12 6 6 0 0 0 0 12"></path><path stroke="var(--sl-c-c71dff,#c71dff)" d="M10.07 11.68a7.4 7.4 0 0 1 2.48 1.82m-11.1 0a7.4 7.4 0 0 1 2.48-1.82"></path><path stroke="var(--sl-c-000cfe,#000cfe)" d="M7 9.5a3 3 0 1 0 0-6 3 3 0 0 0 0 6"></path><path stroke="var(--sl-c-000cfe,#000cfe)" d="M7 7a.5.5 0 1 0 0-1 .5.5 0 0 0 0 1"></path></g></svg>
