<svg xmlns="http://www.w3.org/2000/svg" fill="none" viewBox="0 0 14 14"><g stroke-linecap="round" stroke-linejoin="round"><path stroke="var(--sl-c-c71dff,#c71dff)" d="M6.998.5C3.458.501.5 3.463.5 7c0 1.275.38 2.535 1.088 3.6l-1.09 2.9 3.65-.66c.892.436 1.87.654 2.85.655 3.543.002 6.504-2.955 6.504-6.495 0-3.535-2.962-6.502-6.504-6.5"></path><path stroke="var(--sl-c-000cfe,#000cfe)" d="M7.356 9.863c.9.577 1.84.133 2.48-.357.411-.315.398-.912.043-1.29l-.781-.831c-.282.281-.831.42-1.213.305-.82-.25-1.164-.677-1.443-1.112-.32-.499.042-1.244.323-1.526l-.862-.787c-.328-.3-.827-.35-1.12-.014-.62.714-1.014 1.824-.563 2.526.797 1.241 1.895 2.289 3.136 3.086"></path></g></svg>
