<svg xmlns="http://www.w3.org/2000/svg" fill="none" viewBox="0 0 14 14"><g stroke-linecap="round" stroke-linejoin="round"><path stroke="var(--sl-c-c71dff,#c71dff)" d="M12 9.5a1 1 0 0 1 1 1l0 1.5a1 1 0 0 1-1 1L2 13a1 1 0 0 1-1-1l0-1.5a1 1 0 0 1 1-1z"></path><path stroke="var(--sl-c-000cfe,#000cfe)" d="M7.068 1a1 1 0 0 1 1 1l0 4.5a1 1 0 0 1-1 1L2 7.5a1 1 0 0 1-1-1L1 2a1 1 0 0 1 1-1z"></path><path stroke="var(--sl-c-c71dff,#c71dff)" d="M12.5 1a.5.5 0 0 1 .5.5l0 1.25a.5.5 0 0 1-.5.5l-1.969 0a.5.5 0 0 1-.5-.5l0-1.25a.5.5 0 0 1 .5-.5zm0 4.25a.5.5 0 0 1 .5.5L13 7a.5.5 0 0 1-.5.5l-1.969 0a.5.5 0 0 1-.5-.5l0-1.25a.5.5 0 0 1 .5-.5z"></path></g></svg>
