<svg xmlns="http://www.w3.org/2000/svg" fill="none" viewBox="0 0 14 14"><g stroke-linecap="round" stroke-linejoin="round"><path stroke="var(--sl-c-c71dff,#c71dff)" d="M7 13.25a1.31 1.31 0 1 0 0-2.62 1.31 1.31 0 0 0 0 2.62M4.53 9a3.5 3.5 0 0 1 1.143-.78M2.36 7.31a6.7 6.7 0 0 1 1.257-.986m1.933-.781s.592-.165 1.455-.165A6.55 6.55 0 0 1 11.65 7.31M3.482 3.457A9.19 9.19 0 0 1 13.5 5.45m-13 0c.36-.36.732-.657 1.176-.99"></path><path stroke="var(--sl-c-000cfe,#000cfe)" d="m.5.5 13 13"></path></g></svg>
