<svg xmlns="http://www.w3.org/2000/svg" fill="none" viewBox="0 0 14 14"><g stroke-linecap="round" stroke-linejoin="round"><path stroke="var(--sl-c-000cfe,#000cfe)" d="M7 7.137a1.5 1.5 0 1 0 0-3 1.5 1.5 0 0 0 0 3"></path><path stroke="var(--sl-c-c71dff,#c71dff)" d="M5.006 2.243a3.93 3.93 0 0 0-1.942 3.394c0 1.446.78 2.71 1.943 3.394m3.988-6.788a3.93 3.93 0 0 1 1.941 3.394c0 1.446-.78 2.71-1.943 3.394M3.005.5A6.5 6.5 0 0 0 .5 5.636c0 2.087.98 3.945 2.505 5.136M10.995.5A6.5 6.5 0 0 1 13.5 5.636c0 2.087-.98 3.945-2.505 5.136"></path><path stroke="var(--sl-c-000cfe,#000cfe)" d="M7 7.137V13.5"></path></g></svg>
