<svg xmlns="http://www.w3.org/2000/svg" fill="none" viewBox="0 0 14 14"><g stroke-linecap="round" stroke-linejoin="round"><path stroke="var(--sl-c-000cfe,#000cfe)" d="M7 7.5a.5.5 0 1 0 0-1 .5.5 0 0 0 0 1"></path><path stroke="var(--sl-c-c71dff,#c71dff)" d="M3.534 1.5A6.5 6.5 0 0 0 .5 6.998 6.5 6.5 0 0 0 3.54 12.5m6.926-11A6.5 6.5 0 0 1 13.5 6.998a6.5 6.5 0 0 1-3.04 5.502"></path><path stroke="var(--sl-c-c71dff,#c71dff)" d="M5.43 3.782a3.58 3.58 0 0 0-.003 6.435M8.57 3.782a3.58 3.58 0 0 1 .003 6.435"></path></g></svg>
