<svg xmlns="http://www.w3.org/2000/svg" fill="none" viewBox="0 0 14 14"><g stroke-linecap="round" stroke-linejoin="round"><path stroke="var(--sl-c-c71dff,#c71dff)" d="M.5 3.5a10.3 10.3 0 0 1 4-1c2 0 3 1.5 5 1.5a10.3 10.3 0 0 0 4-1l-2-1"></path><path stroke="var(--sl-c-000cfe,#000cfe)" d="M.5 7.5a10.3 10.3 0 0 1 4-1c2 0 3 1.5 5 1.5a10.3 10.3 0 0 0 4-1l-2-1"></path><path stroke="var(--sl-c-c71dff,#c71dff)" d="M.5 11.5a10.3 10.3 0 0 1 4-1c2 0 3 1.5 5 1.5a10.3 10.3 0 0 0 4-1l-2-1"></path></g></svg>
