<svg xmlns="http://www.w3.org/2000/svg" fill="none" viewBox="0 0 14 14"><g stroke-linecap="round" stroke-linejoin="round"><path stroke="var(--sl-c-000cfe,#000cfe)" d="M4.053 9.24c-.3 1.295-.553 2.82-.553 4.26h7c0-1.44-.254-2.965-.553-4.26"></path><path stroke="var(--sl-c-c71dff,#c71dff)" d="m5.29.5 1.197 3.29a1.5 1.5 0 0 0-.897.897L2.3 3.489A5.01 5.01 0 0 1 5.29.5m3.42 0L7.514 3.79c.416.151.746.481.897.897l3.29-1.198A5.01 5.01 0 0 0 8.71.5M6.487 6.61 5.289 9.9A5.01 5.01 0 0 1 2.3 6.91l3.29-1.197c.151.415.481.745.897.897m1.026 0L8.711 9.9A5.01 5.01 0 0 0 11.7 6.91L8.41 5.713a1.5 1.5 0 0 1-.897.897"></path><path stroke="var(--sl-c-000cfe,#000cfe)" d="M5.5 5.2a1.5 1.5 0 1 0 3 0 1.5 1.5 0 1 0-3 0"></path></g></svg>
