<svg xmlns="http://www.w3.org/2000/svg" fill="none" viewBox="0 0 14 14"><path fill="currentColor" fill-rule="evenodd" d="M.159 1.212A.75.75 0 0 1 1.34.289c1.377 1.763 2.55 3.198 3.69 4.477.015-1.3.123-2.357.374-3.111.137-.412.323-.753.579-.993.261-.245.583-.373.956-.373.374 0 .695.128.957.373.255.24.442.581.579.993.26.783.367 1.893.375 3.262.85.24 2.014.74 2.995 1.328.529.317 1.015.666 1.373 1.024.348.348.618.747.618 1.163a.87.87 0 0 1-.32.686c-.191.161-.445.261-.718.324-.544.126-1.25.123-1.931.07-.393-.03-.785-.077-1.144-.13a112 112 0 0 0 3.991 3.28.75.75 0 1 1-.93 1.177C6.99 9.257 4.594 6.893.16 1.212m1.875 5.033q.232-.14.473-.27c2.321 2.687 4.4 4.648 7.538 7.21a.86.86 0 0 1-.619.494c-.282.065-.604.022-.91-.062-.555-.152-1.151-.465-1.576-.733-.424.268-1.02.581-1.575.733-.306.084-.628.127-.91.062a.87.87 0 0 1-.66-.598c-.207-.62.103-1.3.479-1.842.355-.51.818-.969 1.17-1.263v-.819a20 20 0 0 1-2.43.356c-.682.052-1.388.054-1.933-.071-.272-.063-.526-.163-.717-.324a.87.87 0 0 1-.32-.686c0-.416.27-.815.618-1.163.358-.358.844-.707 1.372-1.024" clip-rule="evenodd"/></svg>
