<svg xmlns="http://www.w3.org/2000/svg" fill="none" viewBox="0 0 14 14"><path fill="currentColor" fill-rule="evenodd" d="M0 1.072c0 .414.336.75.75.75h12.5a.75.75 0 0 0 0-1.5H.75a.75.75 0 0 0-.75.75M1.25 6.75c0-.936.063-1.897.147-2.538a1.48 1.48 0 0 1 1.202-1.285 6 6 0 0 1 1.151-.105c.453 0 .837.044 1.15.105.65.127 1.118.632 1.203 1.285.084.64.147 1.602.147 2.538s-.063 1.897-.147 2.538a1.48 1.48 0 0 1-1.202 1.285 6 6 0 0 1-1.151.106 6 6 0 0 1-1.15-.106 1.48 1.48 0 0 1-1.203-1.285A21 21 0 0 1 1.25 6.75m6.664-2.524c-.092.846-.164 2.333-.164 4.024 0 1.692.072 3.178.164 4.024.071.654.527 1.17 1.185 1.3.314.06.698.105 1.151.105s.837-.044 1.15-.106a1.456 1.456 0 0 0 1.186-1.3c.092-.845.164-2.331.164-4.023s-.072-3.178-.164-4.024A1.456 1.456 0 0 0 11.4 2.927a6 6 0 0 0-1.151-.105 6 6 0 0 0-1.15.105 1.456 1.456 0 0 0-1.186 1.3" clip-rule="evenodd"/></svg>
