<svg xmlns="http://www.w3.org/2000/svg" fill="none" viewBox="0 0 14 14"><path fill="currentColor" fill-rule="evenodd" d="m4.745 2.212.879 1.994c-1.133.186-2.084.634-2.803 1.35-.975.97-1.456 2.365-1.456 4.061 0 .843.118 1.537.381 2.095.27.57.677.972 1.197 1.243.508.263 1.107.395 1.758.465.652.07 1.394.08 2.2.08.805 0 1.546-.01 2.199-.08.65-.07 1.25-.202 1.757-.465a2.62 2.62 0 0 0 1.197-1.243c.263-.558.382-1.252.382-2.095 0-1.67-.466-3.047-1.412-4.016-.685-.702-1.588-1.154-2.663-1.362l.012-.024.882-2.003c.072-.164.142-.389.127-.624a.82.82 0 0 0-.473-.71l-.212.453.212-.453c-.246-.115-.56-.187-.874-.232A7.5 7.5 0 0 0 7 .578c-.354 0-.712.022-1.035.068-.314.045-.628.117-.874.232a.82.82 0 0 0-.473.71c-.015.235.055.46.127.624" clip-rule="evenodd"/></svg>
