<svg xmlns="http://www.w3.org/2000/svg" fill="none" viewBox="0 0 14 14"><path fill="currentColor" fill-rule="evenodd" d="M3.909 1.53a4.372 4.372 0 0 1 7.463 3.092c0 .543.088 1.062.23 1.613q.054.168.117.316c.057.133.172.248.392.39.086.054.174.105.274.162l.093.054c.134.077.283.167.426.273.518.383.708.973.682 1.505-.025.517-.257 1.057-.69 1.383a1 1 0 0 1-.087.06 2 2 0 0 1-.226.125 5 5 0 0 1-.928.318c-.87.22-2.311.429-4.655.429s-3.785-.209-4.655-.429a5 5 0 0 1-.928-.318 2 2 0 0 1-.293-.17l-.02-.015C.671 9.992.44 9.452.414 8.935c-.026-.532.164-1.122.682-1.505l.297.401-.297-.401a5 5 0 0 1 .426-.273l.093-.054c.1-.057.188-.108.274-.163.22-.14.335-.256.391-.389.203-.476.348-1.104.348-1.93 0-1.159.461-2.27 1.28-3.09m1.93 10.455a.5.5 0 0 0-.602.71 2 2 0 0 0 3.526 0 .5.5 0 0 0-.601-.71c-.254.086-.628.152-1.162.152s-.908-.066-1.162-.152" clip-rule="evenodd"/></svg>
