<svg xmlns="http://www.w3.org/2000/svg" fill="none" viewBox="0 0 14 14"><path fill="currentColor" fill-rule="evenodd" d="M3.003 2.237V.915a.75.75 0 1 1 1.5 0V2.09c1.08-.08 1.991-.105 2.497-.105s1.413.026 2.49.104V.915a.75.75 0 1 1 1.5 0v1.32a3.23 3.23 0 0 1 2.533 2.352c.074.284-.16.538-.453.538H.93c-.294 0-.527-.254-.453-.538a3.23 3.23 0 0 1 2.526-2.35M.276 6.85a.495.495 0 0 1 .496-.474h12.456c.266 0 .486.208.496.474.019.453.026.825.026 1.062 0 .496-.031 1.58-.133 2.772a3.23 3.23 0 0 1-2.905 2.941 40 40 0 0 1-3.712.21 40 40 0 0 1-3.712-.21 3.23 3.23 0 0 1-2.905-2.942A36 36 0 0 1 .25 7.911c0-.237.007-.609.026-1.062" clip-rule="evenodd"/></svg>
