<svg xmlns="http://www.w3.org/2000/svg" fill="none" viewBox="0 0 14 14"><path fill="currentColor" fill-rule="evenodd" d="m7 .612.27-.42a.5.5 0 0 0-.54 0zm0 0-.27-.42h-.002l-.002.002-.008.005-.024.016-.087.06a7.4 7.4 0 0 0-1.182 1.067c-.64.721-1.327 1.805-1.327 3.146 0 .705.328 1.361.879 1.831.548.469 1.276.721 2.023.721s1.475-.252 2.023-.72c.551-.471.88-1.127.88-1.832 0-1.341-.689-2.425-1.328-3.145A7.4 7.4 0 0 0 7.306.215L7.282.2 7.274.194 7.272.192h-.001zM6 13.888c0-2.016 0-3.876-.749-5.51a.87.87 0 0 0-.802-.49.95.95 0 0 0-.949.95v1.218a.395.395 0 0 1-.644.306 1.58 1.58 0 0 1-.582-1.224V5.525a1.137 1.137 0 1 0-2.274 0v4.724c0 .515.176 1.016.497 1.419l1.774 2.22zm2.749-5.51C8 10.012 8 11.872 8 13.888h3.73l1.773-2.22c.321-.403.497-.903.497-1.42V5.525a1.137 1.137 0 0 0-2.274 0v3.613c0 .475-.214.924-.582 1.224a.395.395 0 0 1-.644-.306V8.837a.95.95 0 0 0-.95-.95.87.87 0 0 0-.801.49" clip-rule="evenodd"/></svg>
