<svg xmlns="http://www.w3.org/2000/svg" fill="none" viewBox="0 0 14 14"><path fill="currentColor" fill-rule="evenodd" d="M3.174 1.254a.75.75 0 0 1 .668-.095c1.505.508 2.737 1.413 3.757 2.637a1.22 1.22 0 0 1-.137 1.702 38 38 0 0 1-1.874 1.536c.802.6 1.462 1.139 1.837 1.451.514.43.602 1.205.155 1.734-1.064 1.261-2.286 2.199-3.768 2.63a.75.75 0 0 1-.96-.696c-.037-1.2-.063-2.245-.078-3.231-.558.31-1.121.578-1.66.76a.75.75 0 1 1-.482-1.42c.651-.221 1.388-.611 2.128-1.076v-.294C2.02 6.421 1.269 6 .59 5.721a.75.75 0 1 1 .567-1.388 13 13 0 0 1 1.617.812c.015-.997.04-2.065.078-3.298a.75.75 0 0 1 .322-.593M4.31 6.12l-.046-.031c.007-.96.026-1.96.056-3.096a7 7 0 0 1 1.948 1.556A36 36 0 0 1 4.31 6.12m.005 1.84-.051.035c.007.953.026 1.933.056 3.04.682-.359 1.319-.883 1.932-1.572A42 42 0 0 0 4.315 7.96m5.159-3.602a.75.75 0 0 1 1.017.3 5.3 5.3 0 0 1 .64 2.381 5.3 5.3 0 0 1-.637 2.335.75.75 0 0 1-1.318-.716 3.8 3.8 0 0 0 .455-1.644 3.8 3.8 0 0 0-.457-1.639.75.75 0 0 1 .3-1.017m2.733-1.752a.75.75 0 0 0-1.144.97 5.56 5.56 0 0 1 1.318 3.427 5.55 5.55 0 0 1-1.317 3.422.75.75 0 0 0 1.143.97 7.05 7.05 0 0 0 1.674-4.412 7.06 7.06 0 0 0-1.674-4.377" clip-rule="evenodd"/></svg>
