<svg xmlns="http://www.w3.org/2000/svg" fill="none" viewBox="0 0 14 14"><path fill="currentColor" fill-rule="evenodd" d="M2.379 1.328A1.747 1.747 0 0 1 4.467.258l3.701.992a1.75 1.75 0 0 1 1.273 1.97c-.215 1.311-.448 2.63-.768 3.933-.46 1.869-2.17 3.14-4.074 2.92l-.486 1.812 1.65.443a.75.75 0 1 1-.388 1.449l-4.75-1.273a.75.75 0 0 1 .39-1.449l1.65.442.485-1.813C1.39 8.924.546 6.967 1.08 5.119c.373-1.289.83-2.548 1.299-3.79m1.886 7.148-.008-.002-.003-.001h-.003l-.002-.001-.004-.001-.007-.002-.047-.013-.181-.053c-1.064-.317-1.7-1.334-1.574-2.441h4.973q-.091.418-.193.832c-.314 1.276-1.503 2.03-2.72 1.738l-.184-.045zM9.4 10.072c-.358.042-.709.03-1.046-.027a5.2 5.2 0 0 0 1.134-1.508l.016-.004.183-.045.047-.012.008-.002.003-.001h.002l.003-.001.004-.001.007-.002.047-.013.181-.053c1.2-.356 1.854-1.604 1.488-2.867a31 31 0 0 0-.203-.675h-.846q.13-.725.246-1.438A3 3 0 0 0 9.217.343l.316-.085a1.747 1.747 0 0 1 2.088 1.07c.469 1.243.925 2.502 1.298 3.791.535 1.848-.31 3.804-2.07 4.565l.487 1.813 1.65-.442a.75.75 0 1 1 .388 1.45l-4.749 1.272a.75.75 0 0 1-.388-1.45l1.65-.441z" clip-rule="evenodd"/></svg>
