<svg xmlns="http://www.w3.org/2000/svg" fill="none" viewBox="0 0 14 14"><path fill="currentColor" fill-rule="evenodd" d="M5.107 2.423a4.29 4.29 0 0 1 5.267.627 4.13 4.13 0 0 1 1.156 2.32 3.13 3.13 0 0 1 1.647 1.17 3.04 3.04 0 0 1-.469 4.069c-1.303 1.148-3.522 1.627-5.633 1.598-2.114-.03-4.315-.571-5.599-1.671A3.5 3.5 0 0 1 .258 8.12a3.47 3.47 0 0 1 .357-1.784 1 1 0 0 0 .045-.08c.119-.253.401-.577.821-.84.413-.258.91-.427 1.42-.427s1.006.17 1.419.427c.42.263.702.587.821.84a.625.625 0 0 0 1.132-.53c-.245-.523-.72-1.013-1.29-1.37a4.1 4.1 0 0 0-1.276-.526 4.2 4.2 0 0 1 1.4-1.408" clip-rule="evenodd"/></svg>
