<svg xmlns="http://www.w3.org/2000/svg" fill="none" viewBox="0 0 14 14"><path fill="currentColor" fill-rule="evenodd" d="M6.609.25h.784a1.46 1.46 0 0 1 1.358.928l.359.912 1.09.629.966-.147a1.46 1.46 0 0 1 1.484.715l.391.676a1.46 1.46 0 0 1-.123 1.643l-.61.763v1.262l.606.763a1.46 1.46 0 0 1 .123 1.643l-.39.676a1.46 1.46 0 0 1-1.484.715l-.967-.147-1.091.63-.357.91a1.46 1.46 0 0 1-1.358.929h-.783a1.46 1.46 0 0 1-1.358-.929l-.357-.91-1.091-.63-.967.147a1.46 1.46 0 0 1-1.484-.714l-.39-.677a1.46 1.46 0 0 1 .123-1.643l.61-.763V6.369l-.61-.763a1.46 1.46 0 0 1-.124-1.643l.39-.676a1.46 1.46 0 0 1 1.485-.715l.964.147 1.094-.634.359-.907A1.46 1.46 0 0 1 6.609.25M8.996 7c0 1.277-.719 1.996-1.996 1.996S5.004 8.277 5.004 7 5.723 5.004 7 5.004 8.996 5.723 8.996 7" clip-rule="evenodd"/></svg>
