<svg xmlns="http://www.w3.org/2000/svg" fill="none" viewBox="0 0 14 14"><path fill="currentColor" fill-rule="evenodd" d="M2.757.454a45.4 45.4 0 0 1 8.484 0 1.52 1.52 0 0 1 1.377 1.413c.18 2.707.22 5.29.123 7.94-.002.057-.06.096-.116.079a2.6 2.6 0 0 0-.563-.104 66 66 0 0 0-9.636 0 2.5 2.5 0 0 0-.772.182c-.177.073-.392-.042-.4-.234a76 76 0 0 1 .127-7.863c.05-.744.63-1.345 1.376-1.413M6.21 2.409c-.354-.3-.88-.254-1.15.122a8 8 0 0 1-.265.352c-.48.602-.48 1.473.003 2.072.357.442.73.889 1.15 1.307.418.419.864.793 1.307 1.15.599.483 1.47.483 2.071.002a8 8 0 0 1 .37-.278.76.76 0 0 0 .132-1.11 12 12 0 0 0-.498-.553.74.74 0 0 0-1.016-.045q-.067.057-.147.131a.246.246 0 0 1-.298.03A3.8 3.8 0 0 1 6.621 4.34a.246.246 0 0 1 .03-.298l.133-.149a.73.73 0 0 0-.048-1.012 15 15 0 0 0-.526-.472m6.05 8.672c.13.04.148.2.063.306a1.46 1.46 0 0 0-.333.916c0 .336.121.65.33.912.084.106.065.267-.064.306q-.134.04-.282.052c-3.244.23-6.215.23-9.46 0-.531-.038-.948-.385-.986-.817l-.037-.455.037-.456c.038-.432.455-.779.987-.816a65 65 0 0 1 9.459 0q.15.011.286.052" clip-rule="evenodd"/></svg>
