<svg xmlns="http://www.w3.org/2000/svg" fill="none" viewBox="0 0 14 14"><path fill="currentColor" fill-rule="evenodd" d="M9.16.314a49 49 0 0 0-7.551 0 1.476 1.476 0 0 0-1.362 1.36 48.6 48.6 0 0 0 0 7.524 1.476 1.476 0 0 0 1.362 1.36.465.465 0 0 0 .497-.48 50 50 0 0 1 .126-5.37 2.726 2.726 0 0 1 2.513-2.514 50 50 0 0 1 5.397-.125.37.37 0 0 0 .38-.394A1.476 1.476 0 0 0 9.16.314M4.84 3.441a49 49 0 0 1 7.551 0 1.476 1.476 0 0 1 1.362 1.36 48.6 48.6 0 0 1 0 7.524 1.476 1.476 0 0 1-1.362 1.36 49 49 0 0 1-7.551 0 1.476 1.476 0 0 1-1.362-1.36 48.6 48.6 0 0 1 0-7.523A1.476 1.476 0 0 1 4.84 3.44Zm1.667 5.747a.625.625 0 0 1 0-1.25H7.99V6.455a.625.625 0 0 1 1.25 0v1.483h1.484a.625.625 0 1 1 0 1.25H9.24v1.483a.625.625 0 0 1-1.25 0V9.188z" clip-rule="evenodd"/></svg>
