<svg xmlns="http://www.w3.org/2000/svg" fill="none" viewBox="0 0 14 14"><path fill="currentColor" fill-rule="evenodd" d="M5.64.763c.35-.35.833-.5 1.36-.5s1.01.15 1.36.5.499.832.499 1.36-.15 1.008-.5 1.358c-.174.175-.38.299-.61.38v.955c1.03.006 2.094.037 3.033.201a2.045 2.045 0 0 1 1.64 1.592c.167.776.167 1.422.167 2.597v.087c0 1.176 0 1.822-.168 2.598a2.045 2.045 0 0 1-1.639 1.591c-1.161.204-2.513.204-3.755.204h-.054c-1.242 0-2.594 0-3.755-.204a2.045 2.045 0 0 1-1.64-1.591c-.167-.776-.167-1.422-.167-2.598v-.087c0-1.175 0-1.821.168-2.597a2.045 2.045 0 0 1 1.639-1.592c.939-.164 2.003-.195 3.032-.201v-.955a1.6 1.6 0 0 1-.61-.38c-.35-.35-.5-.832-.5-1.359s.15-1.009.5-1.359m-.66 6.171c.344 0 .624.28.624.625v.603a.625.625 0 0 1-1.25 0v-.603c0-.345.28-.625.625-.625m4.666.625a.625.625 0 1 0-1.25 0v.603a.625.625 0 0 0 1.25 0zM5.58 10.163a.625.625 0 0 0-1.09.61l.547-.3c-.548.3-.547.301-.547.301v.002l.003.003.003.007.011.019.033.052c.027.04.064.095.114.157.098.123.244.283.445.44.41.321 1.033.624 1.9.624s1.49-.303 1.9-.624a2.7 2.7 0 0 0 .56-.597l.032-.052.01-.019.005-.007.001-.003.001-.001-.546-.303.547.302a.625.625 0 0 0-1.09-.611l-.007.01-.047.064a1.4 1.4 0 0 1-.237.234c-.217.17-.574.357-1.129.357s-.912-.187-1.129-.357a1.4 1.4 0 0 1-.284-.299z" clip-rule="evenodd"/></svg>
