<svg xmlns="http://www.w3.org/2000/svg" fill="none" viewBox="0 0 14 14"><path fill="currentColor" fill-rule="evenodd" d="M2.377 2.797a59 59 0 0 1 7.222.062c.392.027.769.168 1.09.419.448.348 1.224.98 1.894 1.665.333.342.653.71.892 1.07.229.347.431.758.431 1.17 0 .414-.202.824-.431 1.17a7.6 7.6 0 0 1-.892 1.071 20 20 0 0 1-1.893 1.665 2 2 0 0 1-1.09.42 59 59 0 0 1-7.223.06C1.237 11.51.39 10.526.237 9.384c-.092-.7-.174-1.439-.174-2.2 0-.76.082-1.499.175-2.199.152-1.142 1-2.127 2.139-2.187m3.922 2.619a.75.75 0 0 1 0 1.06l-.707.708.707.707a.75.75 0 1 1-1.06 1.06l-.708-.707-.707.707a.75.75 0 0 1-1.06-1.06l.706-.707-.707-.708a.75.75 0 0 1 1.061-1.06l.707.707.707-.707a.75.75 0 0 1 1.061 0" clip-rule="evenodd"/></svg>
