<svg xmlns="http://www.w3.org/2000/svg" fill="none" viewBox="0 0 14 14"><path fill="currentColor" fill-rule="evenodd" d="M3.959.226a20.7 20.7 0 0 1 6.09 0 2.86 2.86 0 0 1 2.422 2.577c.217 2.444.288 4.856.088 7.326l-.001.068a.76.76 0 0 1-.477.664c-.392.154-.56.38-.56.708s.168.555.56.71a.76.76 0 0 1 .077 1.377c-.31.164-.665.26-1.03.273a100 100 0 0 1-7.55 0c-.655-.025-1.212-.298-1.597-.757-.376-.449-.546-1.024-.546-1.603l.001-.076c-.17-2.906-.157-5.78.101-8.69A2.86 2.86 0 0 1 3.96.226M2.936 11.525v.044c0 .287.083.496.19.624.097.116.25.211.507.221 2.196.083 4.367.092 6.557.03a2.2 2.2 0 0 1-.168-.875c0-.328.061-.619.168-.874a99 99 0 0 0-6.557.03.8.8 0 0 0-.3.064.6.6 0 0 0-.196.144c-.105.119-.19.312-.2.58zm7.875-7.747a.5.5 0 0 0-.444-.27H8.052a.5.5 0 0 0 0 1H9.4L7.499 7.19a.5.5 0 0 0 .408.79h2.605a.5.5 0 0 0 0-1H8.874l1.9-2.684a.5.5 0 0 0 .037-.52m-6.22-.085.368-1.102.367 1.102zm1.223-1.698.677 2.03.007.021.382 1.147a.5.5 0 0 1-.949.316l-.271-.816H4.258l-.272.816a.5.5 0 1 1-.948-.316l.382-1.147.007-.022.677-2.03a.901.901 0 0 1 1.71 0" clip-rule="evenodd"/></svg>
