<svg xmlns="http://www.w3.org/2000/svg" fill="none" viewBox="0 0 14 14"><path fill="currentColor" fill-rule="evenodd" d="M3.25 1.882a.067.067 0 0 0-.075-.066l-.096.012a1.51 1.51 0 0 0-1.33 1.385 60.6 60.6 0 0 0 0 8.679 1.48 1.48 0 0 0 1.35 1.37c2.676.224 5.126.224 7.801 0a1.48 1.48 0 0 0 1.35-1.37 60.6 60.6 0 0 0 0-8.679 1.51 1.51 0 0 0-1.329-1.385l-.096-.012a.067.067 0 0 0-.074.066 2.563 2.563 0 0 1-2.563 2.563H5.812a2.56 2.56 0 0 1-2.563-2.563m1.276-.264A1.31 1.31 0 0 1 5.812.57h2.376a1.313 1.313 0 0 1 0 2.625H5.812a1.312 1.312 0 0 1-1.286-1.577" clip-rule="evenodd"/></svg>
