<svg xmlns="http://www.w3.org/2000/svg" fill="none" viewBox="0 0 14 14"><path fill="currentColor" fill-rule="evenodd" d="M3.708.87A50 50 0 0 1 7.326.75c.452 0 .875.004 1.281.013a2.38 2.38 0 0 1 1.402.49c1.196.924 1.929 1.704 2.832 2.935.293.399.452.877.464 1.366a67 67 0 0 1-.106 5.811 2.42 2.42 0 0 1-2.254 2.265c-.596.041-1.181.072-1.799.092-.326.01-.507-.377-.324-.646a4 4 0 0 0 .332-.589c.093-.208.235-.582.235-1.049s-.142-.84-.235-1.049a4 4 0 0 0-.332-.588 7.4 7.4 0 0 0-.67-.827 13 13 0 0 0-.82-.814l-.017-.016-.006-.005-.003-.003a2 2 0 0 0-1.333-.51H2.595a2 2 0 0 0-.534.074c-.322.089-.735-.116-.735-.45 0-1.41.044-2.786.128-4.115A2.42 2.42 0 0 1 3.708.87M2.095 9.068a.75.75 0 1 1 1 1.118l-.002.002-.01.009-.04.037a11 11 0 0 0-.604.602 5 5 0 0 0-.418.51l-.059.092q.024.04.059.092c.103.152.252.33.418.51a11 11 0 0 0 .604.603l.04.037.01.009.002.002a.75.75 0 1 1-1 1.117h-.002l-.004-.004-.013-.013a9 9 0 0 1-.22-.206c-.14-.134-.33-.32-.52-.528a6 6 0 0 1-.556-.684 2.6 2.6 0 0 1-.225-.395 1.3 1.3 0 0 1-.126-.54c0-.217.067-.407.126-.54.063-.14.144-.275.225-.394.163-.24.367-.48.555-.684a12 12 0 0 1 .74-.734l.014-.013.004-.003zm3.318.059a.75.75 0 0 1 1.06-.06c.48.432.95.901 1.315 1.437.081.12.162.254.225.395.059.132.126.322.126.54 0 .217-.067.407-.126.54-.181.405-.483.754-.78 1.078q-.36.39-.755.747l-.004.003v.002a.75.75 0 0 1-1.002-1.118l.003-.002q.341-.309.654-.648c.172-.187.347-.382.476-.603a3.6 3.6 0 0 0-.476-.602 11 11 0 0 0-.654-.648.76.76 0 0 1-.062-1.061" clip-rule="evenodd"/></svg>
