<svg xmlns="http://www.w3.org/2000/svg" fill="none" viewBox="0 0 14 14"><path fill="currentColor" fill-rule="evenodd" d="M5.51.875a.75.75 0 0 0-.75-.75 4.75 4.75 0 0 0-4.75 4.75.75.75 0 0 0 1.5 0 3.25 3.25 0 0 1 3.25-3.25.75.75 0 0 0 .75-.75M9.24.13a.75.75 0 1 0 0 1.5 3.25 3.25 0 0 1 3.25 3.25.75.75 0 0 0 1.5 0A4.75 4.75 0 0 0 9.24.129m0 2.5a.75.75 0 1 0 0 1.5.75.75 0 0 1 .75.75.75.75 0 1 0 1.5 0 2.25 2.25 0 0 0-2.25-2.25m-4.48-.004a.75.75 0 1 1 0 1.5.75.75 0 0 0-.75.75.75.75 0 1 1-1.5 0 2.25 2.25 0 0 1 2.25-2.25m1.43 1a.54.54 0 0 0-.305.095.445.445 0 0 0-.105.578c.556.963.828 2.135.663 3.14-.067.412-.35.615-.654.636-.309.023-.656-.144-.83-.539a.25.25 0 0 0-.35-.117 3.16 3.16 0 0 0-1.626 2.845v.003c.042 1.025.394 1.933 1.074 2.585.68.653 1.664 1.024 2.919 1.024 1.259 0 2.24-.393 2.919-1.054.677-.66 1.03-1.566 1.074-2.554.102-2.357-1.56-5.202-4.514-6.573a.54.54 0 0 0-.265-.07" clip-rule="evenodd"/></svg>
