<svg xmlns="http://www.w3.org/2000/svg" fill="none" viewBox="0 0 14 14"><path fill="currentColor" fill-rule="evenodd" d="M12.456 1.882c.808.593 1.368 1.468 1.51 2.637.208 1.706-.682 3.147-2.023 4.059-1.336.908-3.167 1.34-5.058 1.096a1 1 0 0 1-.127-.027 2.658 2.658 0 0 1-2.196-3.708 5.2 5.2 0 0 0-1.665.724c-.999.679-1.502 1.62-1.378 2.637.091.751.428 1.257.908 1.609.502.368 1.2.594 2.018.676 1.654.165 3.534-.286 4.585-.917a.75.75 0 0 1 .772 1.286c-1.35.81-3.556 1.318-5.506 1.124-.984-.099-1.968-.382-2.755-.96C.73 11.526.17 10.652.03 9.482c-.208-1.706.682-3.147 2.024-4.059 1.335-.908 3.166-1.34 5.057-1.096a1 1 0 0 1 .126.027 2.658 2.658 0 0 1 2.2 3.707 5.2 5.2 0 0 0 1.662-.723c.999-.679 1.502-1.62 1.378-2.637-.091-.751-.428-1.257-.909-1.609-.501-.368-1.199-.594-2.017-.676-1.654-.165-3.534.286-4.585.917a.75.75 0 0 1-.772-1.286C5.544 1.236 7.75.728 9.7.922c.984.099 1.968.382 2.756.96M5.842 7a1.158 1.158 0 1 1 2.315 0 1.158 1.158 0 0 1-2.315 0" clip-rule="evenodd"/></svg>
