<svg xmlns="http://www.w3.org/2000/svg" fill="none" viewBox="0 0 14 14"><path fill="currentColor" fill-rule="evenodd" d="M7 .25c-1.523 0-3.013.08-4.44.23A2.326 2.326 0 0 0 .485 2.452a23.4 23.4 0 0 0-.01 6.54c.159 1.141 1.116 1.952 2.217 2.055l.218.02.225.02v2.164a.5.5 0 0 0 .704.456c1.405-.63 2.255-1.242 3.28-2.39a43 43 0 0 0 4.256-.234 2.386 2.386 0 0 0 2.131-2.033 23 23 0 0 0 .244-3.266c0-1.13-.087-2.238-.239-3.301a2.354 2.354 0 0 0-2.101-2A43 43 0 0 0 7 .25m.171 3.167a.888.888 0 0 0-1.044.857.625.625 0 0 1-1.25 0c0-1.325 1.239-2.341 2.538-2.083.83.165 1.503.84 1.668 1.668.083.417.035.813-.146 1.169-.175.344-.452.607-.757.81-.276.185-.425.294-.512.384a.4.4 0 0 0-.042.052.625.625 0 0 1-1.25-.003c0-.39.171-.686.391-.915.197-.204.464-.386.719-.557.188-.126.288-.241.337-.338a.52.52 0 0 0 .034-.358.9.9 0 0 0-.686-.686m.454 5.143a.625.625 0 1 0-1.25 0v.275a.625.625 0 1 0 1.25 0z" clip-rule="evenodd"/></svg>
