<svg xmlns="http://www.w3.org/2000/svg" fill="none" viewBox="0 0 14 14"><path fill="currentColor" fill-rule="evenodd" d="M11.1.36a27.4 27.4 0 0 0-8.2 0l-.48.073a2.848 2.848 0 0 0 0 5.631l.479.073.112-.742-.112.742c2.718.412 5.482.412 8.2 0l.479-.073a2.848 2.848 0 0 0 0-5.631zm.05 1.54a1.35 1.35 0 1 1 0 2.698 1.35 1.35 0 0 1 0-2.698M2.9 13.64c2.718.412 5.482.412 8.2 0l.479-.073a2.848 2.848 0 0 0 0-5.631l-.478-.073a27.4 27.4 0 0 0-8.201 0l-.479.073a2.848 2.848 0 0 0 0 5.631zm-.05-4.238a1.35 1.35 0 1 1 0 2.698 1.35 1.35 0 0 1 0-2.698" clip-rule="evenodd"/></svg>
