<svg xmlns="http://www.w3.org/2000/svg" fill="none" viewBox="0 0 14 14"><path fill="currentColor" fill-rule="evenodd" d="M.554.497a.875.875 0 0 0 0 1.237l2.513 2.512a5 5 0 0 1-.378.188.94.94 0 0 0-.554.729.87.87 0 0 0 .515.918c.45.202.993.257 1.498.215a3.55 3.55 0 0 0 1.514-.464.7.7 0 0 0 .243-.243 3.55 3.55 0 0 0 .464-1.514c.041-.505-.014-1.048-.215-1.498a.87.87 0 0 0-.918-.514.94.94 0 0 0-.73.554 5 5 0 0 1-.198.396L1.792.497a.875.875 0 0 0-1.238 0m9.807 3.806c.722-.627 1.782-.517 2.348.254.09.123.201.27.348.453a2.98 2.98 0 0 1-.005 3.706 29 29 0 0 1-4.395 4.395 2.98 2.98 0 0 1-3.706.004 13 13 0 0 0-.494-.377 1.533 1.533 0 0 1-.269-2.266c.293-.34.604-.669.91-.991.397-.418 1.076-.463 1.512-.087.05.043.205.192.352.333l.241.23c1.23-.732 1.977-1.487 2.695-2.695l-.23-.241c-.142-.149-.293-.306-.336-.356a1.1 1.1 0 0 1 .09-1.507c.307-.288.62-.578.94-.855" clip-rule="evenodd"/></svg>
