<svg xmlns="http://www.w3.org/2000/svg" fill="none" viewBox="0 0 14 14"><path fill="currentColor" fill-rule="evenodd" d="M.314 1a.75.75 0 0 1 .75-.75h11.872a.75.75 0 0 1 0 1.5H1.064A.75.75 0 0 1 .314 1m5.023 4a.75.75 0 0 1 .75-.75h6.849a.75.75 0 0 1 0 1.5h-6.85a.75.75 0 0 1-.75-.75m.75 3.25a.75.75 0 0 0 0 1.5h6.849a.75.75 0 0 0 0-1.5zM.314 13a.75.75 0 0 1 .75-.75h11.872a.75.75 0 0 1 0 1.5H1.063a.75.75 0 0 1-.75-.75m3.16-6.442a.75.75 0 0 1 0 .364c-.14.565-.477 1.09-.86 1.472-.361.36-.9.731-1.502.731a.75.75 0 0 1-.728-.932L.748 6.74.384 5.287a.75.75 0 0 1 .728-.932c.602 0 1.14.37 1.501.73.384.384.72.908.862 1.473" clip-rule="evenodd"/></svg>
