<svg xmlns="http://www.w3.org/2000/svg" fill="none" viewBox="0 0 14 14"><path fill="currentColor" fill-rule="evenodd" d="M9.114 1.787q.3.018.602.042c.57.045 1.041.516 1.094 1.131.115 1.33.229 2.67.229 4.04s-.114 2.71-.229 4.04c-.053.615-.524 1.086-1.094 1.13-1.85.146-3.582.146-5.432 0-.57-.044-1.041-.515-1.094-1.13-.115-1.33-.23-2.67-.23-4.04s.115-2.71.23-4.04c.053-.615.524-1.086 1.094-1.131q.303-.024.601-.042c.038.424.074.844.104 1.233.038.477.402.87.88.908.768.061 1.494.061 2.262 0 .478-.038.842-.43.88-.908.03-.389.066-.81.103-1.233m.72-1.453a35.4 35.4 0 0 0-5.668 0C2.82.439 1.807 1.532 1.696 2.832 1.581 4.152 1.46 5.556 1.46 7s.12 2.848.234 4.168c.112 1.3 1.124 2.393 2.471 2.498 1.929.152 3.74.152 5.668 0 1.347-.105 2.359-1.198 2.47-2.498.114-1.32.235-2.724.235-4.168s-.12-2.848-.234-4.168c-.111-1.3-1.124-2.393-2.47-2.498" clip-rule="evenodd"/></svg>
