<svg xmlns="http://www.w3.org/2000/svg" fill="none" viewBox="0 0 14 14"><path fill="currentColor" fill-rule="evenodd" d="M10.777 1.929C8.676 1.655 7.4 1.75 5.43 1.897l-.365.028a.75.75 0 1 0 .111 1.496l.345-.026c1.974-.148 3.115-.233 5.06.021.666.087 1.138.437 1.283 1.004l.125.89H8.834c-1.746.002-3.711.039-5.368 1.234A9.2 9.2 0 0 0 .678 9.777c-.596 1.154.322 2.31 1.423 2.373l.291.017c3.318.193 5.438.316 9.234.093.437-.025.852-.216 1.163-.44.3-.216.631-.556.754-.99.422-1.486.461-3.214.076-4.702l-.003-.033-.27-1.92-.013-.067c-.316-1.358-1.448-2.034-2.556-2.179" clip-rule="evenodd"/></svg>
