<svg xmlns="http://www.w3.org/2000/svg" fill="none" viewBox="0 0 14 14"><path fill="currentColor" fill-rule="evenodd" d="M7.75 2.898a.75.75 0 1 0-1.5 0V4H1.44a.75.75 0 0 0 0 1.5h.95L.59 8.995a.8.8 0 0 0-.072.215c-.182 1.041.048 1.927.734 2.521.633.55 1.516.721 2.369.721.849 0 1.71-.17 2.303-.752.628-.615.773-1.5.6-2.49a.8.8 0 0 0-.06-.191l-1.66-3.518h4.538L7.54 8.995a.8.8 0 0 0-.072.215c-.182 1.041.048 1.927.734 2.521.633.55 1.516.721 2.369.721.849 0 1.71-.17 2.303-.752.628-.615.773-1.5.6-2.49a.8.8 0 0 0-.06-.191l-1.66-3.518h.806a.75.75 0 0 0 0-1.5H7.75zM3.59 6.446 4.956 9.34H2.1zm8.316 2.893-1.365-2.893-1.49 2.893z" clip-rule="evenodd"/></svg>
