<svg xmlns="http://www.w3.org/2000/svg" fill="none" viewBox="0 0 14 14"><path fill="currentColor" fill-rule="evenodd" d="m3.652.616-.326.257zc.24.306.42.664.519 1.062.398.1.756.279 1.062.52.51.4.51 1.165 0 1.566-.306.24-.664.419-1.062.519-.1.398-.279.756-.519 1.062a.994.994 0 0 1-1.567 0 2.8 2.8 0 0 1-.519-1.062 2.8 2.8 0 0 1-1.062-.52.994.994 0 0 1 0-1.566 2.8 2.8 0 0 1 1.062-.519c.1-.398.279-.756.52-1.062a.994.994 0 0 1 1.566 0m6.965 1.325a1.34 1.34 0 0 0-2.113 0 4.46 4.46 0 0 0-.864 1.881 4.46 4.46 0 0 0-1.88.864 1.34 1.34 0 0 0 0 2.113c.533.42 1.167.72 1.88.864a4.45 4.45 0 0 0 .864 1.88c.541.69 1.572.69 2.113 0a4.45 4.45 0 0 0 .864-1.88 4.46 4.46 0 0 0 1.88-.864 1.34 1.34 0 0 0 0-2.113 4.46 4.46 0 0 0-1.88-.864 4.46 4.46 0 0 0-.864-1.88M4.658 7.014a1.182 1.182 0 0 0-1.864 0c-.338.43-.584.94-.709 1.508a3.7 3.7 0 0 0-1.507.708 1.182 1.182 0 0 0 0 1.865c.43.338.938.583 1.508.708.124.569.37 1.078.708 1.508a1.182 1.182 0 0 0 1.864 0c.338-.43.584-.939.708-1.508a3.7 3.7 0 0 0 1.508-.708 1.182 1.182 0 0 0 0-1.865 3.7 3.7 0 0 0-1.508-.708 3.7 3.7 0 0 0-.708-1.508" clip-rule="evenodd"/></svg>
