<svg xmlns="http://www.w3.org/2000/svg" fill="none" viewBox="0 0 14 14"><g fill="currentColor"><path fill-rule="evenodd" d="M1.965 1.884c1.58-.2 3.278-.262 5.034-.262 1.757 0 3.456.062 5.036.262.086.01.153.073.172.151.216.895.292 1.586.292 3.361 0 1.424-.137 2.155-.281 2.922l-.067.36c-.027.151-.134.23-.22.24-1.553.185-3.216.252-4.93.252s-3.379-.067-4.932-.252c-.086-.01-.193-.089-.22-.24l-.067-.36a13.6 13.6 0 0 1-.281-2.922c0-1.775.076-2.466.292-3.36a.2.2 0 0 1 .172-.152M6.999.122c-1.786 0-3.554.062-5.223.274A1.7 1.7 0 0 0 .335 1.683C.079 2.741.001 3.566.001 5.396c0 1.566.159 2.411.307 3.199l.064.349c.132.733.714 1.367 1.52 1.463.992.118 2.02.19 3.067.228l-.407 1.743H3.259a.75.75 0 0 0 0 1.5h7.484a.75.75 0 0 0 0-1.5H9.45l-.407-1.743a38 38 0 0 0 3.066-.228c.805-.096 1.387-.73 1.519-1.463q.03-.175.064-.349c.148-.788.307-1.633.307-3.199 0-1.83-.078-2.655-.334-3.713A1.7 1.7 0 0 0 12.224.396C10.553.184 8.784.122 6.998.122Z" clip-rule="evenodd"/><path d="M6.45 8.123c-.358-.037-.617-.348-.628-.71a46 46 0 0 1-.02-.822 67 67 0 0 1-.833-.02c-.36-.012-.671-.27-.71-.63a5.3 5.3 0 0 1 0-1.113c.038-.359.35-.617.71-.629q.42-.012.832-.02.008-.409.021-.824c.011-.36.27-.672.629-.71a5.3 5.3 0 0 1 1.113 0c.36.038.618.35.629.71q.013.415.02.824.405.008.817.02c.36.012.672.27.71.63.039.374.039.738 0 1.112-.038.36-.35.618-.71.63q-.412.012-.816.02-.008.408-.021.823c-.011.36-.27.672-.629.71a5.3 5.3 0 0 1-1.113 0Z"/></g></svg>
