<svg xmlns="http://www.w3.org/2000/svg" fill="none" viewBox="0 0 14 14"><path fill="currentColor" fill-rule="evenodd" d="M9.995 11.258c.407.067.828.148 1.227.231 1.256.262 2.491-.677 2.491-1.992V4.503c0-1.315-1.235-2.254-2.491-1.992-.399.083-.82.164-1.227.23zm-1.25-8.36c-1.32.117-2.17.117-3.49 0v8.204c1.32-.117 2.17-.117 3.49 0zM2.78 2.511c.398.083.82.164 1.226.23v8.517c-.407.067-.828.148-1.226.231-1.257.262-2.492-.677-2.492-1.992V4.503c0-1.315 1.235-2.254 2.492-1.992" clip-rule="evenodd"/></svg>
