<svg xmlns="http://www.w3.org/2000/svg" fill="none" viewBox="0 0 14 14"><path fill="currentColor" fill-rule="evenodd" d="M2.712.158C3.457.075 4.25 0 5.065 0s1.608.075 2.353.158a2.91 2.91 0 0 1 2.563 2.57c.08.742.15 1.528.15 2.337s-.07 1.595-.15 2.336a2.91 2.91 0 0 1-2.563 2.572c-.745.083-1.537.157-2.353.157s-1.608-.074-2.353-.157A2.91 2.91 0 0 1 .15 7.4 22 22 0 0 1 0 5.065c0-.81.07-1.595.15-2.336A2.91 2.91 0 0 1 2.711.158m8.663 4.502a.75.75 0 0 0 .278 1.023c.208.12.384.29.51.493a.75.75 0 0 0 1.277-.786 2.94 2.94 0 0 0-1.042-1.009.75.75 0 0 0-1.023.28m.278 7.517a.75.75 0 0 0 .745 1.302 2.94 2.94 0 0 0 1.042-1.009.75.75 0 1 0-1.278-.786c-.125.204-.3.374-.509.493m-1.987.302a14 14 0 0 1-1.472 0 .75.75 0 1 0-.08 1.498 15 15 0 0 0 1.633 0 .75.75 0 0 0-.08-1.498m2.813-2.813a14 14 0 0 0 0-1.472.75.75 0 1 1 1.498-.08 15 15 0 0 1 0 1.633.75.75 0 0 1-1.498-.08M6.517 13.2a.75.75 0 0 0-.279-1.023 1.44 1.44 0 0 1-.508-.493.75.75 0 1 0-1.278.786 2.94 2.94 0 0 0 1.042 1.01.75.75 0 0 0 1.023-.28" clip-rule="evenodd"/></svg>
