<svg xmlns="http://www.w3.org/2000/svg" fill="none" viewBox="0 0 14 14"><path fill="currentColor" fill-rule="evenodd" d="M12.732 1.955a.85.85 0 0 0 .343-.788.79.79 0 0 0-.614-.681c-.852-.194-1.68-.048-2.458.41a.56.56 0 0 0-.23.265c-.348.833-.38 1.674-.07 2.49a.79.79 0 0 0 .758.516.85.85 0 0 0 .733-.448q.083-.154.188-.328c.658.863 1.025 2.056 1.025 3.61 0 1.436-.318 2.56-.87 3.391-.545.822-1.354 1.412-2.447 1.73a.75.75 0 1 0 .42 1.44c1.4-.408 2.518-1.196 3.278-2.34.754-1.137 1.119-2.57 1.119-4.222 0-1.944-.51-3.577-1.53-4.767q.186-.157.355-.278M5.347.966a.75.75 0 0 1-.495.938c-1.061.329-1.85.919-2.382 1.738-.538.827-.847 1.94-.847 3.358 0 1.54.36 2.727 1.008 3.589a7 7 0 0 0 .2-.318.85.85 0 0 1 .75-.418.79.79 0 0 1 .738.544c.276.829.211 1.667-.169 2.486a.56.56 0 0 1-.24.255c-.796.427-1.629.541-2.472.314a.79.79 0 0 1-.587-.705.85.85 0 0 1 .374-.773 7 7 0 0 0 .374-.27C.615 10.517.123 8.908.123 7c0-1.63.355-3.047 1.09-4.176C1.951 1.687 3.041.894 4.408.471a.75.75 0 0 1 .938.495m2.145 2.971c-.582-.498-1.472-.554-2.099-.021-.54.46-1.017.936-1.477 1.477-.532.626-.477 1.517.022 2.098.797.93 1.642 1.775 2.571 2.572.582.498 1.472.554 2.099.021.54-.46 1.017-.936 1.477-1.477.532-.626.477-1.517-.022-2.098a23.5 23.5 0 0 0-2.571-2.572M6.365 5.06a.08.08 0 0 1 .06-.02.15.15 0 0 1 .09.037 22 22 0 0 1 2.41 2.41.15.15 0 0 1 .036.09.08.08 0 0 1-.019.06c-.408.48-.826.898-1.306 1.305a.08.08 0 0 1-.059.02.15.15 0 0 1-.091-.037 22 22 0 0 1-2.41-2.41.15.15 0 0 1-.036-.09q0-.04.02-.06c.407-.48.825-.898 1.305-1.305" clip-rule="evenodd"/></svg>
