<svg xmlns="http://www.w3.org/2000/svg" fill="none" viewBox="0 0 14 14"><path fill="currentColor" fill-rule="evenodd" d="M7.008 2.122a4.98 4.98 0 0 0-3.293 1.139 4.98 4.98 0 0 0-1.728 2.88.75.75 0 1 1-1.47-.294A6.48 6.48 0 0 1 2.76 2.103 6.48 6.48 0 0 1 7.043.623a.75.75 0 0 1-.035 1.499M5.694 5.615a1.8 1.8 0 0 1 1.185-.41.75.75 0 1 0 .035-1.5 3.3 3.3 0 0 0-2.173.752 3.3 3.3 0 0 0-1.139 1.9.75.75 0 0 0 1.471.294 1.8 1.8 0 0 1 .621-1.036m4.592-1.157a1.533 1.533 0 0 1 2.272.246c.082.112.182.242.31.403a2.824 2.824 0 0 1-.005 3.516c-.605.75-1.24 1.508-1.95 2.218s-1.468 1.345-2.219 1.951a2.825 2.825 0 0 1-3.515.005 13 13 0 0 0-.443-.34c-.722-.527-.845-1.516-.26-2.193.267-.308.549-.607.827-.9a1.07 1.07 0 0 1 1.459-.074c.109.094.24.21.444.401 1.168-.694 1.875-1.41 2.556-2.556-.193-.207-.31-.339-.404-.45a1.06 1.06 0 0 1 .077-1.452c.279-.26.562-.523.85-.775" clip-rule="evenodd"/></svg>
