<svg xmlns="http://www.w3.org/2000/svg" fill="none" viewBox="0 0 14 14"><path fill="currentColor" fill-rule="evenodd" d="M10.323 1.72c-2.499-.267-4.16-.26-6.672.004a.21.21 0 0 0-.192.17c-.131.883-.137 1.543.013 2.455 2.701-.298 4.344-.296 7.039-.002a9 9 0 0 0 .008-2.444.215.215 0 0 0-.196-.183m1.657 2.956c.151-1.07.154-1.884.029-2.949A1.715 1.715 0 0 0 10.483.228C7.874-.05 6.108-.043 3.493.233a1.71 1.71 0 0 0-1.518 1.442 8.8 8.8 0 0 0 .031 3.006 2.7 2.7 0 0 0-1.166.932C.379 6.27.25 7.083.25 7.877v1.407a2.5 2.5 0 0 0 1.332 2.211q-.03.277-.05.543c-.066.966.687 1.732 1.592 1.793 2.891.196 4.86.195 7.752 0 .904-.061 1.658-.827 1.591-1.793a13 13 0 0 0-.049-.543 2.5 2.5 0 0 0 1.332-2.21V7.876c0-.795-.134-1.61-.596-2.266a2.7 2.7 0 0 0-1.174-.935m-7.646 4.96c1.95-.229 3.343-.236 5.335 0 .556.066.811.246.89.429.223.51.356 1.278.412 2.077.005.077-.057.183-.196.192-2.824.191-4.726.192-7.55 0-.139-.01-.201-.115-.196-.192.055-.797.188-1.564.41-2.075.08-.183.336-.364.895-.43" clip-rule="evenodd"/></svg>
