<svg xmlns="http://www.w3.org/2000/svg" fill="none" viewBox="0 0 14 14"><path fill="currentColor" fill-rule="evenodd" d="M2.456 1.987C3.596.848 5.238.281 7.25.281s3.654.567 4.793 1.706 1.707 2.782 1.707 4.794-.568 3.654-1.707 4.793-2.781 1.707-4.793 1.707c-1.107 0-2.101-.171-2.963-.516l-2.648.882a1 1 0 0 1-1.256-1.29l.919-2.525C.932 8.949.75 7.925.75 6.78c0-2.012.567-3.655 1.706-4.794Zm1.907 5.059c0-.289.08-.426.145-.492.066-.066.203-.145.492-.145.29 0 .427.079.493.145.065.066.145.203.145.492s-.08.426-.145.492c-.066.066-.204.146-.493.146q-.07 0-.13-.007l-.019-.002-.012-.002h-.003a.5.5 0 0 1-.328-.134c-.066-.067-.145-.204-.145-.493m.335 1.87c-.406-.049-.782-.202-1.074-.494-.363-.363-.511-.857-.511-1.376s.148-1.013.511-1.376c.363-.364.857-.511 1.376-.511.52 0 1.013.147 1.376.51.364.364.512.858.512 1.377 0 .298-.049.587-.159.848.187.013.367.02.528.02.168 0 .355-.008.55-.021a2.2 2.2 0 0 1-.158-.847c0-.519.148-1.013.511-1.376.364-.364.857-.511 1.376-.511.52 0 1.013.147 1.377.51.363.364.51.858.51 1.377 0 .52-.147 1.013-.51 1.376-.31.309-.712.462-1.145.501a25 25 0 0 1-.803.111c-.511.063-1.173.13-1.708.13s-1.197-.067-1.708-.13a28 28 0 0 1-.842-.117l-.01-.001Zm4.98-1.244.082-.008a.5.5 0 0 0 .269-.126c.066-.066.145-.203.145-.492s-.08-.426-.145-.492c-.066-.066-.204-.145-.493-.145s-.426.079-.492.145-.145.203-.145.492.08.426.145.492c.066.066.203.146.492.146q.045 0 .086-.003l.04-.006.012-.002h.003Z" clip-rule="evenodd"/></svg>
