<svg xmlns="http://www.w3.org/2000/svg" fill="none" viewBox="0 0 14 14"><path fill="currentColor" fill-rule="evenodd" d="M6.269 12.307c1.475 0 2.702-.32 3.654-.93l1.997 1.997a1 1 0 0 0 1.414-1.414l-1.997-1.997c.61-.952.929-2.179.929-3.653 0-3.839-2.16-5.997-5.997-5.997C2.43.313.27 2.47.27 6.31s2.16 5.997 5.998 5.997m3.36-8.703a2.66 2.66 0 0 0-1.338-.351c-.404 0-.943.093-1.308.458a.715.715 0 0 0 .138 1.12l.344.206c-.14.125-.287.254-.431.38a28 28 0 0 1-.868.73 2.6 2.6 0 0 0-.252-.4c-.138-.173-.382-.399-.758-.43-.41-.033-.775.196-.998.36-.257.19-.51.439-.73.675-.225.24-.432.487-.595.684l-.095.115-.114.138-.092.107-.008.008a.625.625 0 1 0 .885.883c.074-.074.192-.217.31-.36l.077-.094c.16-.193.348-.416.545-.628.2-.215.394-.4.56-.522q.057-.042.096-.066.04.067.104.19l.007.015c.06.113.172.322.333.475.096.091.235.19.423.234a.9.9 0 0 0 .545-.05c.117-.049.236-.132.316-.19.096-.068.207-.155.325-.25.237-.192.521-.435.805-.682l.519-.457.273.455a.715.715 0 0 0 1.119.137c.365-.365.459-.903.459-1.308 0-.436-.106-.928-.351-1.337a.7.7 0 0 0-.246-.245" clip-rule="evenodd"/></svg>
