<svg xmlns="http://www.w3.org/2000/svg" fill="none" viewBox="0 0 14 14"><path fill="currentColor" fill-rule="evenodd" d="M5.818.889a1.467 1.467 0 0 1 2.364 0 2.41 2.41 0 0 0 2.3.951 1.473 1.473 0 0 1 1.678 1.677 2.41 2.41 0 0 0 .951 2.3 1.467 1.467 0 0 1 0 2.365 2.41 2.41 0 0 0-.95 2.3 1.474 1.474 0 0 1-1.678 1.678 2.41 2.41 0 0 0-2.3.951 1.467 1.467 0 0 1-2.365 0 2.41 2.41 0 0 0-2.3-.951 1.473 1.473 0 0 1-1.678-1.677 2.41 2.41 0 0 0-.95-2.3 1.467 1.467 0 0 1 0-2.365 2.41 2.41 0 0 0 .95-2.3A1.473 1.473 0 0 1 3.518 1.84a2.41 2.41 0 0 0 2.3-.951M10.041 7c0 1.946-1.095 3.04-3.04 3.04C5.053 10.04 3.96 8.947 3.96 7S5.054 3.96 7 3.96 10.04 5.053 10.04 7" clip-rule="evenodd"/></svg>
