<svg xmlns="http://www.w3.org/2000/svg" fill="none" viewBox="0 0 14 14"><path fill="currentColor" fill-rule="evenodd" d="M.631 1.13a9.04 9.04 0 0 1 8.57.104.5.5 0 0 1 .258.443l-.002.204a.523.523 0 0 1-.602.501 10.3 10.3 0 0 0-3.957.216A1.75 1.75 0 0 0 3.631 3.87L3 6.39v.002a7.5 7.5 0 0 0-.225 1.673c-.01.444-.517.719-.816.39A6.25 6.25 0 0 1 .334 4.167l.03-2.6a.5.5 0 0 1 .267-.438m8.994 2.674a9.04 9.04 0 0 0-4.42.006.5.5 0 0 0-.361.363l-.63 2.522h-.001a6.25 6.25 0 0 0 1.98 6.262 2.46 2.46 0 0 0 2.166.551h.002a6.26 6.26 0 0 0 4.676-4.609v-.001l.63-2.512a.5.5 0 0 0-.148-.49 9.04 9.04 0 0 0-3.894-2.092M6.98 7.91a.24.24 0 0 1 .116.078.625.625 0 1 0 1.036-.698 1.5 1.5 0 0 0-.718-.552 1.6 1.6 0 0 0-.768-.087.625.625 0 0 0 .193 1.235h.012l.035.002q.044.004.094.022m3.141.81a.5.5 0 0 0-.223.023.625.625 0 0 1-.51-1.141c.284-.127.586-.148.831-.128.246.019.494.083.693.182a.625.625 0 1 1-.56 1.118.7.7 0 0 0-.23-.054" clip-rule="evenodd"/></svg>
