<svg xmlns="http://www.w3.org/2000/svg" fill="none" viewBox="0 0 14 14"><path fill="currentColor" fill-rule="evenodd" d="M2.214 1.894A2.34 2.34 0 0 0 .157 3.957 36 36 0 0 0 0 7.007c0 .831.072 2.254.157 3.049a2.34 2.34 0 0 0 2.057 2.062c.245.028.49.053.715.075.576.056 1.104-.33 1.171-.906.06-.506.086-1.022.09-1.528.002-.315-.257-.565-.571-.589a14 14 0 0 1-.61-.06c-.137-.535-.206-1.323-.207-2.1 0-.775.07-1.573.207-2.108q.354-.042.688-.066a.516.516 0 0 0 .493-.504 14 14 0 0 0-.107-1.746c-.064-.494-.518-.827-1.014-.78a54 54 0 0 0-.855.088m9.81 0a2.34 2.34 0 0 0-2.057 2.063 36 36 0 0 0-.157 3.05c0 .831.072 2.254.157 3.049a2.34 2.34 0 0 0 2.057 2.062c.245.028.49.053.715.075.576.056 1.104-.33 1.171-.906.06-.506.086-1.022.09-1.528.002-.315-.257-.565-.571-.589a14 14 0 0 1-.61-.06c-.137-.535-.206-1.323-.207-2.1.001-.775.07-1.573.207-2.108q.354-.042.688-.066A.516.516 0 0 0 14 4.332a14 14 0 0 0-.107-1.746c-.064-.494-.518-.827-1.014-.78-.261.025-.558.055-.855.088M9.015 7.182a.75.75 0 0 0 0-.364 2.74 2.74 0 0 0-.72-1.234C8 5.29 7.537 4.962 7 4.962a.75.75 0 0 0-.727.932l.085.34H5.245a.75.75 0 1 0 0 1.5h1.12l-.092.372A.75.75 0 0 0 7 9.037c.537 0 1-.326 1.295-.622.318-.318.601-.755.72-1.233" clip-rule="evenodd"/></svg>
