<svg xmlns="http://www.w3.org/2000/svg" fill="none" viewBox="0 0 14 14"><path fill="currentColor" fill-rule="evenodd" d="M5.991.255a.87.87 0 0 0-.502.16.75.75 0 0 0-.178.973c.805 1.395 1.121 3.115.699 4.443-.088.279-.294.407-.515.42a.72.72 0 0 1-.656-.373 5 5 0 0 1-.26-.506.5.5 0 0 0-.7-.235 4.23 4.23 0 0 0-2.175 3.806v.007c.054 1.35.52 2.56 1.43 3.434.913.875 2.22 1.361 3.864 1.361 1.651 0 2.957-.515 3.865-1.4.905-.883 1.372-2.09 1.43-3.393.134-3.1-2.042-6.805-5.881-8.59a.9.9 0 0 0-.42-.107" clip-rule="evenodd"/></svg>
