<svg xmlns="http://www.w3.org/2000/svg" fill="none" viewBox="0 0 14 14"><path fill="currentColor" fill-rule="evenodd" d="M5.591.194C6.031.097 6.507 0 7 0c.492 0 .969.097 1.408.194.565.124.99.612 1.033 1.19.01.14.02.29.03.471-.744-.298-1.58-.437-2.471-.437-.89 0-1.727.14-2.472.437.01-.18.02-.33.03-.47A1.325 1.325 0 0 1 5.592.193ZM11.332 7c0 2.773-1.56 4.332-4.332 4.332S2.668 9.772 2.668 7 4.228 2.668 7 2.668c2.773 0 4.332 1.56 4.332 4.332m-6.77 5.614c-.009-.143-.019-.294-.028-.467.743.297 1.578.435 2.466.435s1.723-.138 2.467-.435c-.01.173-.02.325-.03.468a1.32 1.32 0 0 1-1.028 1.192C7.969 13.903 7.493 14 7 14s-.97-.097-1.409-.193a1.32 1.32 0 0 1-1.028-1.193Zm.104-6.124C4.68 5.43 5.872 4.447 7 5.83c1.128-1.383 2.319-.4 2.334.66 0 1.578-1.888 2.874-2.334 2.874S4.666 8.068 4.666 6.49" clip-rule="evenodd"/></svg>
