<svg xmlns="http://www.w3.org/2000/svg" fill="none" viewBox="0 0 14 14"><path fill="currentColor" fill-rule="evenodd" d="M1.71.606a.75.75 0 0 1 1.145.97 5.56 5.56 0 0 0-1.318 3.427 5.55 5.55 0 0 0 1.317 3.421.75.75 0 0 1-1.143.971A7.05 7.05 0 0 1 .037 4.983 7.06 7.06 0 0 1 1.71.606m10.58 0a.75.75 0 0 0-1.145.97 5.56 5.56 0 0 1 1.318 3.427 5.55 5.55 0 0 1-1.317 3.421.75.75 0 0 0 1.143.971 7.05 7.05 0 0 0 1.674-4.412A7.06 7.06 0 0 0 12.289.606m-1.637 2.106a.75.75 0 0 0-1.295.757c.28.478.437 1.006.463 1.545a3.4 3.4 0 0 1-.461 1.55.75.75 0 1 0 1.296.754 4.9 4.9 0 0 0 .665-2.335 4.9 4.9 0 0 0-.668-2.27m-6.28-.27a.75.75 0 0 0-1.027.27 4.9 4.9 0 0 0-.667 2.329c.03.8.258 1.58.665 2.277a.75.75 0 0 0 1.296-.755 3.4 3.4 0 0 1-.46-1.55 3.4 3.4 0 0 1 .462-1.544.75.75 0 0 0-.27-1.026M7.75 6.592c.613-.229.947-.772.947-1.575 0-1.087-.611-1.698-1.697-1.698s-1.698.611-1.698 1.698c0 .803.334 1.347.948 1.575v6.41a.75.75 0 0 0 1.5 0z" clip-rule="evenodd"/></svg>
