<svg xmlns="http://www.w3.org/2000/svg" fill="none" stroke="currentColor" stroke-linecap="round" stroke-linejoin="round" stroke-width="2" viewBox="0 0 24 24"><path d="M5.586 11.504H3.447A2.14 2.14 0 0 1 1.31 9.366V4.02c0-1.18.957-2.138 2.138-2.138h17.106c1.18 0 2.138.957 2.138 2.138v5.346c0 1.18-.957 2.138-2.138 2.138h-2.139M5.586 7.228h12.829"/><path d="M18.735 17.598c1.422 1.487.701 3.955-1.297 4.444a2.67 2.67 0 0 1-2.081-.35 2.7 2.7 0 0 1-1.219-2.138v-8.05m-7.911 3.849c-1.175 1.152-.663 3.145.923 3.586a2.138 2.138 0 0 0 2.712-2.09v-5.345"/></svg>
