<svg xmlns="http://www.w3.org/2000/svg" fill="none" stroke="currentColor" stroke-linecap="round" stroke-linejoin="round" stroke-width="2" viewBox="0 0 24 24"><path d="M9.862 17.88c-5.346-3.207-7.484-7.484-7.484-9.622 0-1.646 1.782-2.675 3.207-1.852a2.14 2.14 0 0 1 1.07 1.852c0 2.673-5.346 2.673-5.346 6.415 0 1.817 1.39 3.207 3.207 3.207 2.994 0 5.346-2.352 5.346-5.345M22.69 17.88c-5.345-3.207-7.483-7.484-7.483-9.622 0-1.646 1.782-2.675 3.207-1.852a2.14 2.14 0 0 1 1.07 1.852c0 2.673-5.346 2.673-5.346 6.415 0 1.817 1.39 3.207 3.207 3.207 2.994 0 5.346-2.352 5.346-5.345"/></svg>
