<svg xmlns="http://www.w3.org/2000/svg" fill="none" stroke="currentColor" stroke-linecap="round" stroke-linejoin="round" stroke-width="2" viewBox="0 0 24 24"><path d="M6.655 9.327h-1.07A4.276 4.276 0 0 1 1.31 5.051c0-.59.479-1.07 1.07-1.07h4.275"/><path d="M6.655 3.982c0-.59.478-1.07 1.069-1.07h13.898c.59 0 1.069.48 1.069 1.07a7.483 7.483 0 0 1-7.484 7.483H7.724a1.07 1.07 0 0 1-1.07-1.069Zm2.138 7.484v5.345m6.414-5.345v5.345M4.516 20.018a3.207 3.207 0 0 1 3.208-3.207h8.552a3.207 3.207 0 0 1 3.208 3.207c0 .59-.479 1.07-1.07 1.07H5.586a1.07 1.07 0 0 1-1.069-1.07"/></svg>
