<svg xmlns="http://www.w3.org/2000/svg" fill="none" stroke="currentColor" stroke-linecap="round" stroke-linejoin="round" stroke-width="2" viewBox="0 0 24 24"><path d="M20.232 9.06V5.532A2.35 2.35 0 0 0 17.88 3.18H6.12a2.35 2.35 0 0 0-2.352 2.352V9.06"/><path d="M1.416 17.292a2.35 2.35 0 0 0 2.352 2.352h16.464a2.35 2.35 0 0 0 2.352-2.352v-5.88c0-1.81-1.96-2.942-3.528-2.037a2.35 2.35 0 0 0-1.176 2.037v2.352H6.12v-2.352c0-1.81-1.96-2.942-3.528-2.037a2.35 2.35 0 0 0-1.176 2.037Zm2.352 2.352v2.352m16.464-2.352v2.352"/></svg>
