<svg xmlns="http://www.w3.org/2000/svg" fill="none" stroke="currentColor" stroke-linecap="round" stroke-linejoin="round" stroke-width="2" viewBox="0 0 24 24"><path d="M10.824 12a1.177 1.177 0 1 0 2.353 0 1.177 1.177 0 0 0-2.354 0"/><path d="M21.648 21.648c2.4-2.389.023-8.66-5.295-14.001-5.341-5.318-11.612-7.695-14-5.295-2.4 2.389-.024 8.66 5.294 14.001 5.341 5.318 11.612 7.695 14 5.294"/><path d="M16.353 16.353c5.318-5.341 7.695-11.612 5.295-14-2.389-2.4-8.66-.024-14.001 5.294-5.318 5.341-7.695 11.612-5.294 14 2.388 2.4 8.659.024 14-5.294"/></svg>
