<svg xmlns="http://www.w3.org/2000/svg" fill="none" stroke="currentColor" stroke-linecap="round" stroke-linejoin="round" stroke-width="2" viewBox="0 0 24 24"><path d="M12 5a3 3 0 1 0-5.997.142 4 4 0 0 0-2.526 5.77 4 4 0 0 0 .556 6.588 4 4 0 0 0 7.636 2.106 3 3 0 0 0 .164-.546c.028-.13.306-.13.335 0a3 3 0 0 0 .163.546 4 4 0 0 0 7.636-2.106 4 4 0 0 0 .556-6.588 4 4 0 0 0-2.526-5.77A3 3 0 1 0 12 5"/><path d="M17.599 6.5a3 3 0 0 0 .399-1.375m-11.995 0A3 3 0 0 0 6.401 6.5m-2.924 4.396a4 4 0 0 1 .585-.396m15.876 0a4 4 0 0 1 .585.396M6 18a4 4 0 0 1-1.967-.516m15.934 0A4 4 0 0 1 18 18m-9-6a3 3 0 1 0 6 0 3 3 0 1 0-6 0m6.7-1.6-.9.4m-5.6 2.4-.9.4m5.3 2.1-.4-.9m-2.4-5.6-.4-.9m5.3 5.2-.9-.4m-5.6-2.2-.9-.4m2.2 5.2.4-.9m2.2-5.6.4-.9"/></svg>
