<svg xmlns="http://www.w3.org/2000/svg" fill="none" stroke="currentColor" stroke-linecap="round" stroke-linejoin="round" stroke-width="2" viewBox="0 0 24 24"><path d="M22 5V2l-5.89 5.89m-2.51 8a3 3 0 1 0 6 0 3 3 0 1 0-6 0M5.11 7.4a3 3 0 1 0 6 0 3 3 0 1 0-6 0"/><path d="M9.35 11.65a3 3 0 1 0 6 0 3 3 0 1 0-6 0"/><path d="M10.91 5.85a3 3 0 1 0 6 0 3 3 0 1 0-6 0"/><path d="M15.15 10.09a3 3 0 1 0 6 0 3 3 0 1 0-6 0M3.56 13.2a3 3 0 1 0 6 0 3 3 0 1 0-6 0"/><path d="M7.8 17.44a3 3 0 1 0 6 0 3 3 0 1 0-6 0"/><path d="M2 19a3 3 0 1 0 6 0 3 3 0 1 0-6 0"/></svg>
