<svg xmlns="http://www.w3.org/2000/svg" fill="none" stroke="currentColor" stroke-linecap="round" stroke-linejoin="round" stroke-width="2" viewBox="0 0 24 24"><path d="M14.5 2S16 2 16 3.5v5s0 1.5-1.5 1.5h0S13 10 13 8.5v-5S13 2 14.5 2M19 8.5V10h1.5A1.5 1.5 0 1 0 19 8.5M9.5 14s1.5 0 1.5 1.5v5S11 22 9.5 22h0S8 22 8 20.5v-5S8 14 9.5 14M5 15.5V14H3.5A1.5 1.5 0 1 0 5 15.5M15.5 13h5s1.5 0 1.5 1.5v0s0 1.5-1.5 1.5h-5S14 16 14 14.5v0s0-1.5 1.5-1.5m0 6H14v1.5a1.5 1.5 0 1 0 1.5-1.5M3.5 8h5S10 8 10 9.5v0S10 11 8.5 11h-5S2 11 2 9.5v0S2 8 3.5 8m5-3H10V3.5A1.5 1.5 0 1 0 8.5 5"/></svg>
