<svg xmlns="http://www.w3.org/2000/svg" fill="none" stroke="currentColor" stroke-linecap="round" stroke-linejoin="round" stroke-width="2" viewBox="0 0 24 24"><path d="M5 3h14s2 0 2 2v14s0 2-2 2H5s-2 0-2-2V5s0-2 2-2"/><path fill="currentColor" d="M7 7.5a.5.5 0 1 0 1 0 .5.5 0 1 0-1 0"/><path d="m7.9 7.9 2.7 2.7"/><path fill="currentColor" d="M16 7.5a.5.5 0 1 0 1 0 .5.5 0 1 0-1 0"/><path d="m13.4 10.6 2.7-2.7"/><path fill="currentColor" d="M7 16.5a.5.5 0 1 0 1 0 .5.5 0 1 0-1 0"/><path d="m7.9 16.1 2.7-2.7"/><path fill="currentColor" d="M16 16.5a.5.5 0 1 0 1 0 .5.5 0 1 0-1 0"/><path d="m13.4 13.4 2.7 2.7M10 12a2 2 0 1 0 4 0 2 2 0 1 0-4 0"/></svg>
