<svg xmlns="http://www.w3.org/2000/svg" fill="none" viewBox="0 0 14 14"><path fill="currentColor" fill-rule="evenodd" d="M7 0C5.152 0 3.413.361 2.122 1.24.803 2.14 0 3.548 0 5.5c0 1.92.783 4.023 2.021 5.65C3.256 12.77 5.011 14 7 14s3.744-1.23 4.979-2.85C13.217 9.522 14 7.42 14 5.5c0-1.953-.803-3.361-2.122-4.26C10.587.362 8.848 0 7 0M2.52 4.169a3.26 3.26 0 0 1 2.552.512.3.3 0 0 1 .062.062 3.26 3.26 0 0 1 .512 2.551.25.25 0 0 1-.192.192 3.26 3.26 0 0 1-2.55-.512.3.3 0 0 1-.063-.063 3.26 3.26 0 0 1-.512-2.55.25.25 0 0 1 .192-.192m7.63-.01a3.3 3.3 0 0 1 1.33.01.25.25 0 0 1 .191.192 3.26 3.26 0 0 1-.512 2.55.3.3 0 0 1-.062.063 3.26 3.26 0 0 1-2.551.512.25.25 0 0 1-.192-.192 3.26 3.26 0 0 1 .512-2.55.3.3 0 0 1 .062-.063 3.3 3.3 0 0 1 1.222-.521" clip-rule="evenodd"/></svg>
