<svg xmlns="http://www.w3.org/2000/svg" fill="none" viewBox="0 0 14 14"><path fill="currentColor" fill-rule="evenodd" d="M4 5.543 4 4.25l-1 0a1 1 0 0 0-1 1l0 3.5a1 1 0 0 0 1 1l1 0a1 1 0 1 1 0 2l-1 0a3 3 0 0 1-3-3l0-3.5a3 3 0 0 1 3-3l1 0L4 .957a.5.5 0 0 1 .854-.353l2.292 2.292a.5.5 0 0 1 0 .708L4.854 5.896A.5.5 0 0 1 4 5.543m6 6.207 0 1.293a.5.5 0 0 1-.854.354l-2.292-2.293a.5.5 0 0 1 0-.708l2.292-2.292a.5.5 0 0 1 .854.353l0 1.293 1 0a1 1 0 0 0 1-1l0-3.5a1 1 0 0 0-1-1l-1 0a1 1 0 1 1 0-2l1 0a3 3 0 0 1 3 3l0 3.5a3 3 0 0 1-3 3z" clip-rule="evenodd"></path></svg>
