<svg xmlns="http://www.w3.org/2000/svg" fill="none" viewBox="0 0 14 14"><path fill="currentColor" fill-rule="evenodd" d="M7.961 1.5H6.038a.75.75 0 1 1 0-1.5h1.923a.75.75 0 1 1 0 1.5M5.288 13.25a.75.75 0 0 1 .75-.75l1.923 0a.75.75 0 0 1 0 1.5H6.038a.75.75 0 0 1-.75-.75m5.643-11.674a.75.75 0 1 1 .397-1.447 3.64 3.64 0 0 1 2.508 2.424.75.75 0 1 1-1.432.446 2.14 2.14 0 0 0-1.472-1.423m-7.862 0A.75.75 0 0 0 2.672.129 3.64 3.64 0 0 0 .164 2.553a.75.75 0 1 0 1.432.446 2.14 2.14 0 0 1 1.473-1.423m-1.57 4.462a.75.75 0 0 0-1.5 0l0 1.924a.75.75 0 0 0 1.5 0zm11.751-.75a.75.75 0 0 0-.75.75l0 1.924a.75.75 0 0 0 1.5 0l0-1.924a.75.75 0 0 0-.75-.75M1.596 11.001a.75.75 0 0 0-1.432.446 3.64 3.64 0 0 0 2.508 2.424.75.75 0 1 0 .397-1.447 2.14 2.14 0 0 1-1.473-1.423m11.747-.493a.75.75 0 0 0-.939.493 2.14 2.14 0 0 1-1.472 1.423.75.75 0 0 0 .396 1.447 3.64 3.64 0 0 0 2.508-2.424.75.75 0 0 0-.493-.939M7.75 10a.75.75 0 0 1-1.5 0V6.5H5a.5.5 0 0 1-.354-.854l2-2a.5.5 0 0 1 .708 0l2 2A.5.5 0 0 1 9 6.5H7.75z" clip-rule="evenodd"></path></svg>
