<svg xmlns="http://www.w3.org/2000/svg" fill="none" viewBox="0 0 14 14"><path fill="currentColor" fill-rule="evenodd" d="M7.985 4.146a.63.63 0 0 1 .515-.271H11a.625.625 0 1 1 0 1.25H9.41l1.166 3.031a2.876 2.876 0 1 1-2.2 1.669l-.885 1.062a.62.62 0 0 1-.429.235l-1.2.15A2.875 2.875 0 1 1 3.694 8.21l.547-1.094-.595-.991H3a.625.625 0 1 1 0-1.25h2.5a.625.625 0 1 1 0 1.25h-.396l.38.635.009.013 1.59 2.65L8.89 7.257l-.973-2.532a.63.63 0 0 1 .068-.578m2.432 7.078-.539-1.4a1.625 1.625 0 1 0 1.167-.448l.538 1.4a.625.625 0 0 1-1.166.448M9.404 8.591l.005.014-.038.026zm-4.4-.204-.44.88-.483.968 1.074-.134.815-.102zm-.438 3.047-1.488.186a.625.625 0 0 1-.637-.9l.67-1.341A1.623 1.623 0 0 0 1.375 11a1.625 1.625 0 0 0 3.19.434" clip-rule="evenodd"/></svg>
