<svg xmlns="http://www.w3.org/2000/svg" fill="none" viewBox="0 0 14 14"><path fill="currentColor" fill-rule="evenodd" d="M1.54 12.255V3.334l3.277 0v4.144c0 .414.336.75.75.75h4.25a.75.75 0 0 0 .365 0h2.278v4.027a.205.205 0 0 1-.206.205H1.745a.205.205 0 0 1-.205-.206m9.21-5.527h2.46a.75.75 0 0 1 .75.75v4.777a1.705 1.705 0 0 1-1.705 1.705H1.745A1.705 1.705 0 0 1 .04 12.254V1.745A1.705 1.705 0 0 1 1.745.04h3.822a.75.75 0 0 1 .75.75v1.044l2.933 0V.79a.75.75 0 0 1 1.5 0v1.044l2.46 0a.75.75 0 0 1 0 1.5l-2.46 0zm-1.5 0V3.334l-2.933 0v3.394z" clip-rule="evenodd"></path></svg>
