<svg xmlns="http://www.w3.org/2000/svg" fill="none" viewBox="0 0 14 14"><path fill="currentColor" fill-rule="evenodd" d="M4.5 1a1 1 0 0 0-2 0v1h-1A1.5 1.5 0 0 0 0 3.5v9A1.5 1.5 0 0 0 1.5 14h11a1.5 1.5 0 0 0 1.5-1.5v-9A1.5 1.5 0 0 0 12.5 2h-1V1a1 1 0 1 0-2 0v1h-5zm2.489 4.125a.5.5 0 0 1 .454.27l.002.004.744 1.498.003 0 1.65.25a.5.5 0 0 1 .273.862l-1.16 1.103a.3.3 0 0 1 .018.063l.232 1.636a.5.5 0 0 1-.739.529l-1.456-.77a.04.04 0 0 0-.028 0l-1.456.77a.5.5 0 0 1-.738-.533l.276-1.638.006-.026-1.195-1.144-.005-.005a.5.5 0 0 1 .277-.846l.003 0 1.653-.243.001-.002.743-1.493a.5.5 0 0 1 .442-.285" clip-rule="evenodd"></path></svg>
