<svg xmlns="http://www.w3.org/2000/svg" fill="none" viewBox="0 0 14 14"><path fill="currentColor" d="M13.949 10.799c.002-.044 0-.083 0-.108l0-.02-.002-.03V3.406l0-.017a1.4 1.4 0 0 0-.026-.34 1.004 1.004 0 0 0-1.166-.74c-.11.022-.218.07-.26.088l-.014.006a14.07 14.07 0 0 1-10.996-.014l-.008-.003c-.033-.014-.108-.047-.19-.067-.55-.133-1.155.228-1.229.84-.008.07-.007.147-.007.176l0 .01 0 7.24 0 .015c-.001.05-.004.182.02.3.115.57.69.87 1.207.722.086-.025.202-.078.23-.09l.007-.004a14.07 14.07 0 0 1 10.984.056c.002 0 .098.045.154.066.588.214 1.265-.176 1.296-.851"></path></svg>
