<svg xmlns="http://www.w3.org/2000/svg" fill="none" viewBox="0 0 14 14"><path fill="currentColor" d="M10.827.051c-.044-.002-.084 0-.108 0l-.02 0-.031.002h-7.29l-.016 0a1.4 1.4 0 0 0-.342.026 1.004 1.004 0 0 0-.657 1.427l.006.013a13.98 13.98 0 0 1-.014 10.995l-.004.009c-.014.033-.047.108-.066.19-.135.55.229 1.155.845 1.229.071.008.149.007.178.007l.01 0h7.293l.016 0c.05.001.183.004.302-.02a.955.955 0 0 0 .727-1.207 2 2 0 0 0-.091-.23l-.003-.007A13.97 13.97 0 0 1 11.618 1.5c.001-.002.046-.098.066-.154a.96.96 0 0 0-.857-1.295"></path></svg>
