<svg xmlns="http://www.w3.org/2000/svg" fill="none" viewBox="0 0 14 14"><path fill="currentColor" fill-rule="evenodd" d="M10.563 1.065a.75.75 0 1 0-1.407-.52 5.18 5.18 0 0 0 .078 3.79l0 .001a3.76 3.76 0 0 1-.318 3.51L6.138 5.068c.409-.264.866-.45 1.348-.543A.75.75 0 1 0 7.2 3.052a5.3 5.3 0 0 0-2.73 1.442l-.006.006a5.27 5.27 0 0 0-1.473 4.396 5.1 5.1 0 0 0-2.441.258.75.75 0 1 0 .509 1.41 3.63 3.63 0 0 1 2.41-.02 3.7 3.7 0 0 1-.035 2.398.75.75 0 0 0 1.412.505 5.2 5.2 0 0 0-.11-3.794 3.77 3.77 0 0 1 .334-3.53l2.787 2.786c-.417.276-.887.47-1.383.567a.75.75 0 0 0 .287 1.472 5.33 5.33 0 0 0 2.74-1.453l.004-.004a5.26 5.26 0 0 0 1.476-4.388c.824.114 1.67.03 2.466-.256a.75.75 0 1 0-.507-1.412 3.68 3.68 0 0 1-2.434.02 3.68 3.68 0 0 1 .056-2.39" clip-rule="evenodd"></path></svg>
