<svg xmlns="http://www.w3.org/2000/svg" fill="none" viewBox="0 0 14 14"><path fill="currentColor" fill-rule="evenodd" d="M10.026 2c.434 0 .865.072 1.276.215a1 1 0 0 0 .656-1.89A5.9 5.9 0 0 0 9.954.001a6.77 6.77 0 0 0-5.951 4.19H2a1 1 0 1 0 0 2h1.52q-.035.402-.02.81a7 7 0 0 0 .02.808H2a1 1 0 1 0 0 2h2.003A6.77 6.77 0 0 0 9.996 14a6 6 0 0 0 2.4-.492 1 1 0 0 0-.793-1.836 4 4 0 0 1-1.579.328 4.77 4.77 0 0 1-3.776-2.19H8a1 1 0 1 0 0-2H5.53a5 5 0 0 1-.03-.768l0-.082q-.017-.388.03-.768H8a1 1 0 0 0 0-2H6.248A4.77 4.77 0 0 1 10.025 2" clip-rule="evenodd"></path></svg>
