<svg xmlns="http://www.w3.org/2000/svg" fill="none" viewBox="0 0 14 14"><path fill="currentColor" fill-rule="evenodd" d="m1.176 6.08 2.294-.614.01-.045.768-3.315 1.368-.367-.003.014L4.837 5.1l2.873-.77.003-.012L8.51.964 9.882.597l-.003.01-.797 3.355L12.97 2.92 12.441.946a1 1 0 0 0-1.225-.707L1.354 2.882a1 1 0 0 0-.707 1.224zm.001 0h12.21v6.715a1 1 0 0 1-1 1H2.178a1 1 0 0 1-1-1zm2.174 5.004c0-.345.28-.625.625-.625h1.365a.625.625 0 0 1 0 1.25H3.976a.625.625 0 0 1-.625-.625" clip-rule="evenodd"></path></svg>
