<svg xmlns="http://www.w3.org/2000/svg" fill="none" viewBox="0 0 14 14"><path fill="currentColor" fill-rule="evenodd" d="M12.556 2.35c.749.514 1.317 1.278 1.317 2.3 0 1.498-.899 2.76-2.148 3.615-1.253.858-2.932 1.365-4.712 1.365l-.001 0-.011 0a2.63 2.63 0 0 1-2.538-3.323 6 6 0 0 0-1.315.666c-.984.673-1.495 1.525-1.495 2.377 0 .389.195.74.666 1.064.486.333 1.204.585 2.052.722.84.135 1.753.15 2.588.047.846-.103 1.554-.318 2.018-.596a.75.75 0 0 1 .772 1.286c-.71.427-1.647.682-2.608.8a11 11 0 0 1-3.009-.056c-.972-.157-1.929-.463-2.662-.967-.75-.514-1.317-1.279-1.317-2.3 0-1.498.899-2.76 2.148-3.615 1.247-.854 2.916-1.36 4.686-1.365l.014 0 .005 0 .007 0 .014 0a2.63 2.63 0 0 1 2.509 3.333c.5-.18.952-.409 1.342-.676.984-.673 1.495-1.525 1.495-2.377 0-.389-.195-.74-.666-1.064-.485-.333-1.204-.585-2.052-.722a9.5 9.5 0 0 0-2.588-.047c-.845.103-1.554.317-2.018.596a.75.75 0 0 1-.772-1.286c.71-.427 1.647-.682 2.609-.8a11 11 0 0 1 3.008.056c.973.157 1.929.463 2.662.967M6.993 5.87l.011 0a1.13 1.13 0 1 1-.011 0" clip-rule="evenodd"></path></svg>
