<svg xmlns="http://www.w3.org/2000/svg" fill="none" viewBox="0 0 14 14"><path fill="currentColor" d="M4.657.626a.75.75 0 1 0-.804 1.267l.958.607H1.5C.778 2.5 0 2.989 0 3.806v1.416c0 .762.677 1.24 1.354 1.3l-.017.005h5.038V3.884h1.25v2.643h5.038l-.018-.006C13.324 6.461 14 5.984 14 5.222V3.806c0-.817-.778-1.306-1.5-1.306H9.189l.958-.607A.75.75 0 0 0 9.344.626L7 2.112zM13 7.777H7.625l0 6.223 3.875 0a1.5 1.5 0 0 0 1.5-1.5zm-6.625 0H1V12.5A1.5 1.5 0 0 0 2.5 14l3.875 0z"></path><path stroke="currentColor" stroke-linecap="round" stroke-linejoin="round" stroke-width="1.25" d="m9.197 3.38-4.5 0"></path></svg>
