<svg xmlns="http://www.w3.org/2000/svg" fill="none" viewBox="0 0 14 14"><path fill="currentColor" fill-rule="evenodd" d="M0 5.368A6.01 6.01 0 0 1 5.58 0a.6.6 0 0 0-.093.093 10.13 10.13 0 0 0-2.209 5.275zM3.652 8.91q0 .066.005.131v2.496A6.01 6.01 0 0 1 0 6.618h3.278c.073.66.21 1.31.41 1.939a2 2 0 0 0-.036.352m.885-2.29h1.75l-1.58.684-.051.023a9 9 0 0 1-.12-.708m7.41-1.25H8.665A10.13 10.13 0 0 0 6.457.092.6.6 0 0 0 6.363 0a6.01 6.01 0 0 1 5.584 5.368m-7.41 0h2.87a8.9 8.9 0 0 0-1.435-3.831 8.9 8.9 0 0 0-1.435 3.83M9.65 6.71a.55.55 0 0 0-.434 0L5.242 8.432a.6.6 0 0 0-.116.068.68.68 0 0 0-.349.596v3.028a.682.682 0 0 0 1.365 0v-2.3l3.074 1.331c.139.06.296.06.434 0l3.974-1.721a.546.546 0 0 0 0-1.002zm-2.933 4.51 2.024.877a1.74 1.74 0 0 0 1.383 0l2.024-.877v1.358c0 .12-.038.236-.11.33l-.435-.33.434.331-.001.002-.002.002-.004.006-.013.015-.037.043q-.045.053-.127.132c-.11.105-.27.238-.483.369-.431.264-1.072.514-1.937.514-.866 0-1.506-.25-1.936-.515a3 3 0 0 1-.61-.5l-.037-.044-.012-.015-.004-.006-.002-.002v-.002h-.001l.435-.33-.435.33a.55.55 0 0 1-.11-.329z" clip-rule="evenodd"/></svg>
