<svg xmlns="http://www.w3.org/2000/svg" fill="none" viewBox="0 0 14 14"><path fill="currentColor" fill-rule="evenodd" d="M8.058 1.248h-2.08A1.39 1.39 0 0 0 4.59 2.362l0 .004-.733 3.75a.5.5 0 0 0 .491.596h5.357a.5.5 0 0 0 .49-.598l-.75-3.75 0-.002a1.39 1.39 0 0 0-1.387-1.114m-3.795 6.85h-2.08A1.39 1.39 0 0 0 .796 9.214l-.001.004-.732 3.75a.5.5 0 0 0 .49.596h5.358a.5.5 0 0 0 .49-.598l-.75-3.75 0-.002A1.39 1.39 0 0 0 4.263 8.1m5.51 0h2.08a1.39 1.39 0 0 1 1.387 1.115l0 .002.75 3.75a.5.5 0 0 1-.49.598H8.143a.5.5 0 0 1-.49-.596l.731-3.75.001-.004a1.39 1.39 0 0 1 1.387-1.114" clip-rule="evenodd"></path></svg>
