<svg xmlns="http://www.w3.org/2000/svg" fill="none" viewBox="0 0 14 14"><path fill="currentColor" fill-rule="evenodd" d="M1.75 1.25a.75.75 0 0 0-1.5 0v11.5a.75.75 0 0 0 1.5 0V7.27H6v5.48a.75.75 0 0 0 1.5 0V1.25a.75.75 0 0 0-1.5 0v4.52H1.75zm9.812 5.445-.663 0c-.901 0-1.658.605-1.892 1.43a.75.75 0 1 0 1.444.408.47.47 0 0 1 .448-.338l.663 0a.466.466 0 0 1 0 .931h-.332a.75.75 0 1 0 0 1.5h.332l.11 0c.319 0 .577.259.577.577l0 .22a.576.576 0 0 1-.577.577l-.884 0a.58.58 0 0 1-.543-.384.75.75 0 1 0-1.415.5 2.08 2.08 0 0 0 1.958 1.384l.884 0c1.147 0 2.077-.93 2.077-2.076v-.221a2.07 2.07 0 0 0-.568-1.427 1.966 1.966 0 0 0-1.619-3.081" clip-rule="evenodd"></path></svg>
