<svg xmlns="http://www.w3.org/2000/svg" fill="none" viewBox="0 0 14 14"><path fill="currentColor" fill-rule="evenodd" d="m7.672 2.743-.965.964a1 1 0 0 1-1.414-1.414l.964-.965a4.536 4.536 0 0 1 6.415 6.415l-.965.964a1 1 0 1 1-1.414-1.414l.964-.965a2.536 2.536 0 0 0-3.585-3.585m-3.965 2.55a1 1 0 0 1 0 1.414l-.964.965a2.536 2.536 0 0 0 3.585 3.585l.965-.964a1 1 0 0 1 1.414 1.414l-.964.964a4.536 4.536 0 0 1-6.415-6.414l.965-.964a1 1 0 0 1 1.414 0m5.5.914a1 1 0 0 0-1.414-1.414l-3 3a1 1 0 0 0 1.414 1.414z" clip-rule="evenodd"></path></svg>
