<svg xmlns="http://www.w3.org/2000/svg" fill="none" viewBox="0 0 14 14"><path fill="currentColor" fill-rule="evenodd" d="M7 0c2.622 0 4.806 2.184 4.806 4.805 0 .856-.294 1.7-.705 2.464-.413.768-.959 1.484-1.501 2.094a16 16 0 0 1-1.521 1.49 9 9 0 0 1-.546.433 3 3 0 0 1-.195.13 1 1 0 0 1-.174.083.54.54 0 0 1-.405-.03 1 1 0 0 1-.098-.053 3 3 0 0 1-.196-.133 9 9 0 0 1-.545-.435A16 16 0 0 1 4.4 9.352c-.542-.612-1.088-1.33-1.5-2.095-.411-.762-.706-1.603-.706-2.452C2.194 2.184 4.378 0 7 0m0 6.24a1.435 1.435 0 1 1 0-2.87 1.435 1.435 0 0 1 0 2.87m3.1 3.916q.276-.31.55-.65h1.343c.2 0 .38.12.46.303l1.497 3.495a.5.5 0 0 1-.46.697H.51a.5.5 0 0 1-.46-.697l1.498-3.495a.5.5 0 0 1 .46-.303h1.355q.266.33.537.636c.662.746 1.33 1.376 1.85 1.821.26.223.487.402.661.528q.13.095.232.157.049.03.11.06.03.014.079.03a.55.55 0 0 0 .414-.03q.06-.029.11-.059.101-.061.231-.155c.174-.126.4-.304.661-.525.52-.442 1.19-1.069 1.851-1.813" clip-rule="evenodd"></path></svg>
