<svg xmlns="http://www.w3.org/2000/svg" fill="none" viewBox="0 0 14 14"><path fill="currentColor" fill-rule="evenodd" d="M5.183.25a1.5 1.5 0 0 1 1.492 1.14l.215.86h5.61a1.5 1.5 0 0 1 1.5 1.5v8.5a1.5 1.5 0 0 1-1.5 1.5h-11a1.5 1.5 0 0 1-1.5-1.5V1.75A1.5 1.5 0 0 1 1.5.25zM9.48 4.48a1 1 0 0 0-.438.015l-.005.002-3.472.963a.97.97 0 0 0-.712.927l0 .005 0 2.357a1.535 1.535 0 1 0 1.501 1.535l0-.007 0-3.286 2.407-.669 0 1.303-.034 0A1.536 1.536 0 1 0 10.26 9.11l-.001-3.683 0-.004a.966.966 0 0 0-.78-.943" clip-rule="evenodd"></path></svg>
