<svg xmlns="http://www.w3.org/2000/svg" fill="none" viewBox="0 0 14 14"><path fill="currentColor" fill-rule="evenodd" d="M1.14 1.519c0-.837.678-1.516 1.515-1.516h4.79c.838 0 1.516.679 1.516 1.516l0 3.488a3.228 3.228 0 0 0-.711 4.828 4.55 4.55 0 0 0-2.1 3.835q0 .17.034.33H1.64l-.048-.002H.766a.75.75 0 0 1 0-1.5h.374l0-6.876 4.347 0a.625.625 0 1 0 0-1.25l-4.347 0 0-1.35 2.96 0a.625.625 0 0 0 0-1.25l-2.96 0zm11.54 6.21a1.98 1.98 0 1 1-3.96 0 1.98 1.98 0 0 1 3.96 0m-1.98 2.64a3.3 3.3 0 0 0-3.3 3.3.33.33 0 0 0 .33.331h5.94a.33.33 0 0 0 .33-.33 3.3 3.3 0 0 0-3.3-3.3Z" clip-rule="evenodd"></path></svg>
