<svg xmlns="http://www.w3.org/2000/svg" fill="none" viewBox="0 0 14 14"><path fill="currentColor" fill-rule="evenodd" d="M7 .05a.75.75 0 0 0-.75.75l0 2.174-1.11 2.11a.5.5 0 0 0-.058.234l0 2.736h3.79l0-2.736a.5.5 0 0 0-.058-.233L7.75 3.063l0-1.512h.621a.75.75 0 0 0 0-1.5zm2.667 9.254H4.286v4.56l0 .025h1.812V12.5a.902.902 0 1 1 1.804 0v1.39h1.765l0-.026zM11.4 13.89h-.485l0-.026V6.645a.5.5 0 0 1 .041-.141l.999-2.199a.5.5 0 0 1 .91 0l.999 2.199a.5.5 0 0 1 .045.207v6.678a.5.5 0 0 1-.5.5h-1.998zm-8.364 0-.001-.026V6.65a.5.5 0 0 0-.041-.145l-.999-2.199a.5.5 0 0 0-.91 0L.087 6.504a.5.5 0 0 0-.045.207v6.678a.5.5 0 0 0 .5.5H2.54l.011 0z" clip-rule="evenodd"></path></svg>
