<svg xmlns="http://www.w3.org/2000/svg" fill="none" viewBox="0 0 14 14"><path fill="currentColor" fill-rule="evenodd" d="M6.876.201a.75.75 0 0 1 .463.955 3.46 3.46 0 0 0 .107 2.54.75.75 0 0 1-1.372.607A4.96 4.96 0 0 1 5.921.665.75.75 0 0 1 6.876.2M4.523 2.883a.75.75 0 0 0-1.486-.206 2.85 2.85 0 0 0 .448 1.968.75.75 0 1 0 1.25-.83 1.35 1.35 0 0 1-.212-.932m5.885 1.407a1.68 1.68 0 0 0-1.564.4l-.012.012-3.911 3.911-.005.005a1.667 1.667 0 0 0 .636 2.732l6.232 2.323.007.003a1.639 1.639 0 0 0 2.102-2.064L11.58 5.385a1.68 1.68 0 0 0-1.173-1.095M3.279 7.91a1.3 1.3 0 0 0-.928.133.75.75 0 1 1-.731-1.31 2.8 2.8 0 0 1 1.991-.286.75.75 0 0 1-.332 1.463M1.065 3.5a1 1 0 1 0 0 2 1 1 0 0 0 0-2" clip-rule="evenodd"></path></svg>
