<svg xmlns="http://www.w3.org/2000/svg" fill="none" viewBox="0 0 14 14"><path fill="currentColor" fill-rule="evenodd" d="M.25 7a6.75 6.75 0 1 1 13.5 0A6.75 6.75 0 0 1 .25 7m10.369-3.088a.625.625 0 0 0-.707-.53L10 4l-.088-.619-.003 0-.009.002-.035.005-.134.019a440 440 0 0 0-2.003.29c-1.13.165-2.39.356-2.801.44-.924.191-1.403.967-1.531 1.454a.625.625 0 1 0 1.208.318.8.8 0 0 1 .185-.316.7.7 0 0 1 .39-.23q.074-.016.19-.037c-.01.556-.04 1.225-.121 1.89-.127 1.028-.364 1.915-.742 2.4a.625.625 0 1 0 .988.767c.603-.777.866-1.968.994-3.015.1-.815.127-1.625.135-2.243.394-.06.827-.124 1.252-.187v4.536c0 .205.065.485.262.725.218.266.552.426.963.426.79 0 1.282-.56 1.443-.842a.625.625 0 0 0-1.086-.619l-.01.014-.028.035a.6.6 0 0 1-.091.082.4.4 0 0 1-.203.079V4.756l.782-.112.134-.019.035-.004.009-.002.002 0L10 4l.087.619a.625.625 0 0 0 .532-.707" clip-rule="evenodd"></path></svg>
