<svg xmlns="http://www.w3.org/2000/svg" fill="none" viewBox="0 0 14 14"><path fill="currentColor" fill-rule="evenodd" d="M5.738.114a7 7 0 0 1 2.524 0 .75.75 0 0 1-.27 1.475 5.5 5.5 0 0 0-1.985 0A.75.75 0 1 1 5.738.114M4.066 1.429a.75.75 0 0 1-.19 1.044 5.5 5.5 0 0 0-1.403 1.403.75.75 0 1 1-1.234-.853 7 7 0 0 1 1.784-1.784.75.75 0 0 1 1.043.19m5.868 0a.75.75 0 0 1 1.043-.19 7 7 0 0 1 1.784 1.784.75.75 0 0 1-1.234.853 5.5 5.5 0 0 0-1.403-1.403.75.75 0 0 1-.19-1.044M.986 5.135a.75.75 0 0 1 .603.872 5.5 5.5 0 0 0 0 1.986.75.75 0 1 1-1.475.269 7 7 0 0 1 0-2.524.75.75 0 0 1 .872-.603m12.028 0a.75.75 0 0 1 .873.603 7 7 0 0 1 0 2.524.75.75 0 0 1-1.476-.27 5.5 5.5 0 0 0 0-1.985.75.75 0 0 1 .603-.872M1.43 9.934a.75.75 0 0 1 1.044.19 5.5 5.5 0 0 0 1.403 1.403.75.75 0 1 1-.853 1.234 7 7 0 0 1-1.784-1.784.75.75 0 0 1 .19-1.043m11.142 0a.75.75 0 0 1 .19 1.043 7 7 0 0 1-1.784 1.784.75.75 0 0 1-.853-1.234 5.5 5.5 0 0 0 1.403-1.403.75.75 0 0 1 1.044-.19m-7.436 3.08a.75.75 0 0 1 .872-.603 5.5 5.5 0 0 0 1.986 0 .75.75 0 1 1 .269 1.475 7 7 0 0 1-2.524 0 .75.75 0 0 1-.603-.872" clip-rule="evenodd"></path></svg>
