<svg xmlns="http://www.w3.org/2000/svg" fill="none" viewBox="0 0 14 14"><path fill="currentColor" fill-rule="evenodd" d="M.75 1.5h1.396l.379 1.44.01.034.968 4.845.012.078.42 2.1 0 .003a1.25 1.25 0 0 0 1.225 1h6.09a.75.75 0 0 0 0-1.5H5.365l-.25-1.25H12.1l.01 0h.001c.035 0 .135.003.227-.012a1.01 1.01 0 0 0 .756-.589c.054-.124.081-.281.09-.333l.003-.014.791-3.862.002-.01A1 1 0 0 0 13 2.25l-.002 0-9.105 0L3.56.975A1.25 1.25 0 0 0 2.34 0H.75a.75.75 0 1 0 0 1.5m10.88 11.3a1.149 1.149 0 1 0-2.298 0 1.149 1.149 0 0 0 2.297 0Zm-6.15-1.148a1.149 1.149 0 1 1 0 2.297 1.149 1.149 0 0 1 0-2.297" clip-rule="evenodd"></path></svg>
