<svg xmlns="http://www.w3.org/2000/svg" fill="none" viewBox="0 0 14 14"><path fill="currentColor" fill-rule="evenodd" d="M2.615.406v.786h-.002a.625.625 0 1 0 0 1.25h.62l.007 0 .008 0h.618a.625.625 0 0 0 0-1.25h-.001V.406h2.51v.786h-.002a.625.625 0 1 0 0 1.25h.62l.007 0 .008 0h.619a.625.625 0 1 0 0-1.25h-.002V.406h2.51v.786h-.001a.625.625 0 0 0 0 1.25h1.253a.625.625 0 1 0 0-1.25h-.002V.406h1.695a.5.5 0 0 1 .5.5v8.336a.5.5 0 0 1-.5.5h-2.184v3.5a.75.75 0 0 1-1.5 0v-3.5H4.604l0 3.5a.75.75 0 0 1-1.5 0l0-3.5H.92a.5.5 0 0 1-.5-.5V.906a.5.5 0 0 1 .5-.5zm6.265 5.71a.625.625 0 0 0 0 1.25l2.507 0a.625.625 0 1 0 0-1.25z" clip-rule="evenodd"></path></svg>
