<svg xmlns="http://www.w3.org/2000/svg" fill="none" viewBox="0 0 14 14"><path fill="currentColor" fill-rule="evenodd" d="m7.004.03-.006 0A6.97 6.97 0 1 0 9.7 13.434a.75.75 0 0 0-.577-1.385A5.47 5.47 0 1 1 7 1.53a5.56 5.56 0 0 1 4.76 2.75l.006.009c1.199 1.98.61 3.514-.095 4.199-.39.379-.71.417-.807.394-.025-.005-.05-.015-.085-.07-.044-.072-.11-.24-.11-.567V7l0-.007A3.62 3.62 0 1 0 9.528 9.64c.24.368.59.61.998.704.798.184 1.615-.222 2.19-.78 1.224-1.188 1.88-3.493.336-6.047A7.06 7.06 0 0 0 7.004.03m.009 4.85a2.12 2.12 0 1 1 .07 4.24 2.12 2.12 0 0 1-.07-4.24" clip-rule="evenodd"></path></svg>
