<svg xmlns="http://www.w3.org/2000/svg" fill="none" viewBox="0 0 14 14"><path fill="currentColor" fill-rule="evenodd" d="M0 7a7 7 0 1 1 14 0A7 7 0 0 1 0 7m10.875-2.5a.625.625 0 0 0-.75-1l-2 1.5a.625.625 0 0 0 .095 1.059l2 1a.625.625 0 0 0 .56-1.118l-1.096-.548zM3 3.625a.625.625 0 0 1 .875-.125l2 1.5a.625.625 0 0 1-.095 1.059l-2 1a.625.625 0 1 1-.56-1.118l1.096-.548L3.125 4.5A.625.625 0 0 1 3 3.625m2.037 6.695a.625.625 0 0 1-1.074-.64L4.5 10l-.537-.32.002-.003.004-.006.014-.024a9 9 0 0 1 .246-.386c.162-.246.392-.577.656-.91.262-.33.573-.682.9-.958.302-.253.73-.54 1.215-.54.484 0 .913.287 1.215.54.327.276.638.627.9.958a13 13 0 0 1 .902 1.296l.014.024.004.006.001.002 0 .001.001 0L9.5 10l.537-.32a.625.625 0 0 1-1.074.64l0-.001-.003-.004-.011-.019a10 10 0 0 0-.22-.346c-.15-.227-.358-.526-.594-.823-.238-.3-.49-.579-.725-.777a1.6 1.6 0 0 0-.297-.206A.4.4 0 0 0 7 8.103a.4.4 0 0 0-.113.041q-.12.06-.297.206a5.5 5.5 0 0 0-.725.777 12 12 0 0 0-.814 1.17l-.011.018-.002.004" clip-rule="evenodd"></path></svg>
