<svg xmlns="http://www.w3.org/2000/svg" fill="none" viewBox="0 0 14 14"><path fill="currentColor" fill-rule="evenodd" d="m11.561.76.533 0a1.728 1.728 0 0 1 1.486 2.611c.262.315.42.72.42 1.162v.178a1.817 1.817 0 0 1-1.817 1.816l-.71 0a1.82 1.82 0 0 1-1.714-1.21.75.75 0 1 1 1.414-.5.32.32 0 0 0 .3.21l.71 0a.317.317 0 0 0 .317-.316v-.178a.317.317 0 0 0-.317-.317l-.035 0-.054 0-.088 0a.75.75 0 0 1 0-1.5l.088 0a.228.228 0 0 0 0-.456l-.533 0a.23.23 0 0 0-.22.166.75.75 0 1 1-1.443-.408A1.73 1.73 0 0 1 11.561.76m-8.67.46a.75.75 0 0 0-1.441.29.317.317 0 0 1-.317.317H.778a.75.75 0 0 0 0 1.5h.355q.162 0 .317-.027l0 1.727H.778a.75.75 0 0 0 0 1.5h1.42l.002 0 .002 0h1.42a.75.75 0 1 0 0-1.5H2.95l0-3.516a.8.8 0 0 0-.058-.29M6.645.76c-.792 0-1.464.507-1.713 1.212a.75.75 0 0 0 1.415.5.32.32 0 0 1 .298-.211h.74a.29.29 0 0 1 .115.553l-1.583.693A1.82 1.82 0 0 0 4.828 5.17v.606c0 .415.335.75.75.75h2.844a.75.75 0 0 0 0-1.5h-2.06a.32.32 0 0 1 .155-.146L8.1 4.19A1.79 1.79 0 0 0 7.383.76zm4.134 7.41a.75.75 0 0 1 .817.163l2.185 2.185a.75.75 0 0 1 0 1.06l-2.185 2.186a.75.75 0 0 1-1.28-.53v-1.186l-9.315 0a1 1 0 1 1 0-2l9.315 0V8.863a.75.75 0 0 1 .463-.693" clip-rule="evenodd"></path></svg>
