<svg xmlns="http://www.w3.org/2000/svg" fill="none" viewBox="0 0 14 14"><path fill="currentColor" fill-rule="evenodd" d="M11.59 1.934a3.49 3.49 0 0 0-2.921.276l-4.95 2.465-.82-1.298-.009-.013a.71.71 0 0 0-.787-.263l-.002.001-1.369.44a.69.69 0 0 0-.455.847l.003.008 1.16 3.6.002.006a1.11 1.11 0 0 0 1.427.673L5.987 7.67l-.234 1.14a.73.73 0 0 0 .992.826l1.527-.496a.7.7 0 0 0 .477-.492l.602-2.06.214-.07 3.388-1.099a1.13 1.13 0 0 0 .739-1.426 3.49 3.49 0 0 0-2.103-2.058m1.4 10.054a1 1 0 1 1 0 2H1.006a1 1 0 1 1 0-2z" clip-rule="evenodd"></path></svg>
