<svg xmlns="http://www.w3.org/2000/svg" fill="none" viewBox="0 0 14 14"><path fill="currentColor" fill-rule="evenodd" d="M.5 2.5a2.5 2.5 0 1 1 5 0 2.5 2.5 0 0 1-5 0M11 0a2.5 2.5 0 1 0 0 5 2.5 2.5 0 0 0 0-5M9.114 7.358C9.497 6.642 10.098 6 11 6s1.503.642 1.886 1.358c.389.725.634 1.661.794 2.554.16.901.24 1.797.28 2.464a24 24 0 0 1 .04 1.04l0 .061 0 .017 0 .004 0 .001-.5.001h.5a.5.5 0 0 1-.5.5h-5a.5.5 0 0 1-.5-.5h.5l-.5 0 0-.002 0-.004 0-.017 0-.062.005-.228a24 24 0 0 1 .315-3.275c.16-.893.405-1.829.794-2.554M0 6.5A.5.5 0 0 1 .5 6h5a.5.5 0 0 1 .5.5h-.5l.5 0 0 .002 0 .004 0 .017 0 .062-.005.229a24 24 0 0 1-.035.81c-.04.667-.12 1.563-.28 2.464-.16.893-.405 1.829-.794 2.554C4.503 13.358 3.902 14 3 14s-1.503-.642-1.886-1.358C.725 11.917.48 10.981.32 10.088.16 9.187.08 8.29.04 7.623A24 24 0 0 1 0 6.585l0-.062 0-.017 0-.004zl.5 0z" clip-rule="evenodd"></path></svg>
