<svg xmlns="http://www.w3.org/2000/svg" fill="none" viewBox="0 0 14 14"><path fill="currentColor" fill-rule="evenodd" d="M1.5 0A1.5 1.5 0 0 0 0 1.5l0 11A1.5 1.5 0 0 0 1.5 14l11 0a1.5 1.5 0 0 0 1.5-1.5l0-11A1.5 1.5 0 0 0 12.5 0zm2.375 5.885 0 5.115a.625.625 0 1 0 1.25 0l0-5.115a1.75 1.75 0 1 0-1.25 0M11.25 7.75a1.75 1.75 0 0 1-1.125 1.635l0 1.615a.625.625 0 1 1-1.25 0l0-1.615a1.75 1.75 0 0 1 0-3.27l0-3.115a.625.625 0 1 1 1.25 0l0 3.115A1.75 1.75 0 0 1 11.25 7.75" clip-rule="evenodd"></path></svg>
