<svg xmlns="http://www.w3.org/2000/svg" fill="none" viewBox="0 0 14 14"><path fill="currentColor" fill-rule="evenodd" d="M.5 6.52a6.5 6.5 0 1 1 10.954 4.734 8.2 8.2 0 0 1 1.653 1.401.75.75 0 1 1-1.114 1.005 6.7 6.7 0 0 0-1.864-1.441c-.928.51-1.995.801-3.129.801s-2.2-.29-3.129-.801a6.7 6.7 0 0 0-1.864 1.441.75.75 0 0 1-1.114-1.005 8.2 8.2 0 0 1 1.653-1.4A6.48 6.48 0 0 1 .5 6.52M7 3.27a3.25 3.25 0 1 0 0 6.5 3.25 3.25 0 0 0 0-6.5m0 2.25a1 1 0 1 0 0 2 1 1 0 0 0 0-2" clip-rule="evenodd"></path></svg>
