<svg xmlns="http://www.w3.org/2000/svg" fill="none" viewBox="0 0 14 14"><path fill="currentColor" fill-rule="evenodd" d="M.219.219a.75.75 0 0 0 0 1.06l.178.179q.027.022.051.046l12.328 12.328a.75.75 0 0 0 1.005-1.112L7.289 6.228a5.42 5.42 0 0 1 3.56 1.592.75.75 0 0 0 1.065-1.057 6.92 6.92 0 0 0-6.02-1.955l-.021.004-.819-.818a7.91 7.91 0 0 1 7.54 2.075.75.75 0 0 0 1.061-1.06 9.41 9.41 0 0 0-9.802-2.217L1.28.22a.75.75 0 0 0-1.061 0m4.695 7.518 1.11 1.11a2.5 2.5 0 0 0-.814.56.75.75 0 1 1-1.075-1.046q.353-.362.78-.624m-1.81-1.81 1.084 1.084 0 .001-.001 0-.001 0-.014.01-.063.038a5.6 5.6 0 0 0-.95.76.75.75 0 0 1-1.063-1.057 7 7 0 0 1 1.008-.836m-1.77-1.77 1.07 1.07a9 9 0 0 0-.999.842.75.75 0 1 1-1.06-1.06c.317-.319.64-.585.989-.852m6.976 7.782a1.31 1.31 0 1 1-2.62 0 1.31 1.31 0 0 1 2.62 0" clip-rule="evenodd"></path></svg>
