<svg xmlns="http://www.w3.org/2000/svg" fill="none" viewBox="0 0 14 14"><path fill="currentColor" fill-rule="evenodd" d="M11.673.834a.75.75 0 0 0-1.085.796l.168.946q-.676.14-1.369.173c-.747-.004-1.315-.287-2.041-.665l-.04-.02c-.703-.366-1.564-.814-2.71-.814l-.034 0A10.4 10.4 0 0 0 .416 2.328a.75.75 0 1 0 .668 1.343 8.9 8.9 0 0 1 3.529-.921c.747.004 1.315.287 2.041.665l.04.02c.703.366 1.564.815 2.71.815l.034-.001a10.3 10.3 0 0 0 4.146-1.078.75.75 0 0 0 .338-1.005.75.75 0 0 0-.334-.336zM4.562 5.751l.034-.001c1.146 0 2.007.448 2.71.814l.04.02c.726.378 1.294.662 2.041.666q.707-.034 1.398-.18l-.192-.916a.75.75 0 0 1 1.08-.82l1.915.996a.747.747 0 0 1 .36.943.75.75 0 0 1-.364.399 10.5 10.5 0 0 1-1.705.668 10.3 10.3 0 0 1-2.475.41c-1.146 0-2.007-.448-2.71-.814l-.04-.02c-.726-.378-1.294-.662-2.041-.666a8.9 8.9 0 0 0-3.53.922.75.75 0 1 1-.667-1.344 10.4 10.4 0 0 1 4.146-1.077m0 4.5.034 0c1.146 0 2.007.448 2.71.814l.04.02c.726.378 1.294.661 2.041.665a9 9 0 0 0 1.402-.18l-.195-.912a.75.75 0 0 1 1.079-.823l1.915.996a.747.747 0 0 1 .36.942.75.75 0 0 1-.364.4 10.4 10.4 0 0 1-4.18 1.078c-1.146 0-2.007-.449-2.71-.815l-.04-.02c-.726-.378-1.294-.661-2.041-.665a8.9 8.9 0 0 0-3.53.921.75.75 0 1 1-.667-1.343 10.4 10.4 0 0 1 4.146-1.078" clip-rule="evenodd"></path></svg>
