<svg xmlns="http://www.w3.org/2000/svg" fill="none" viewBox="0 0 14 14"><path fill="currentColor" fill-rule="evenodd" d="m3.784 1.505 6.432 0c.019 0 .034.015.034.034V5.47a.034.034 0 0 1-.034.034l-6.432 0a.034.034 0 0 1-.034-.034V1.539c0-.02.015-.034.034-.034m6.432-1.5-6.432 0C2.937.005 2.25.69 2.25 1.539V5.47c0 .847.687 1.534 1.534 1.534l2.465 0 0 1.016H2.202A1.86 1.86 0 0 0 .344 9.879v3.366a.75.75 0 0 0 1.5 0v-2.517h10.312v2.518a.75.75 0 0 0 1.5 0V9.878a1.86 1.86 0 0 0-1.858-1.858h-4.05l0-1.016 2.468 0c.847 0 1.534-.687 1.534-1.534V1.539c0-.848-.687-1.534-1.534-1.534" clip-rule="evenodd"></path></svg>
