<svg xmlns="http://www.w3.org/2000/svg" fill="none" viewBox="0 0 14 14"><path fill="currentColor" fill-rule="evenodd" d="M1.217.024a1 1 0 0 0-.435 1.952H.78h.002l.02.005.102.027a6 6 0 0 1 1.618.747c.868.579 1.632 1.46 1.632 2.86a1 1 0 1 0 2 0c0-1.4.763-2.281 1.631-2.86a6 6 0 0 1 .523-.307v5.86H1a1 1 0 1 0 0 2h7.308v.846a2.846 2.846 0 1 0 2.85-2.846h-.85V1A1 1 0 0 0 9.09.024L9.308 1 9.09.024h-.003l-.006.002-.015.004a4 4 0 0 0-.211.055 8 8 0 0 0-2.178 1.006 6.1 6.1 0 0 0-1.523 1.427A6.1 6.1 0 0 0 3.632 1.09 8 8 0 0 0 1.242.03L1.226.026 1.221.025h-.002zL1 1zm9.09 11.136v-.014a.846.846 0 1 1 0 .014" clip-rule="evenodd"/></svg>
