<svg xmlns="http://www.w3.org/2000/svg" fill="none" viewBox="0 0 24 24"><path fill="currentColor" fill-rule="evenodd" d="M16.293 3.293C17.073 2.513 17.5 1.627 17.5 1h2c0 .627.427 1.512 1.207 2.293.781.78 1.666 1.207 2.293 1.207v2c-.627 0-1.512.427-2.293 1.207-.78.78-1.207 1.666-1.207 2.293h-2c0-.627-.426-1.512-1.207-2.293C15.513 6.927 14.628 6.5 14 6.5v-2c.628 0 1.513-.427 2.293-1.207m-9.3 2.445c.937.426 1.936 1.01 2.953 1.728q.244-.173.487-.335.539-.359 1.065-.665l1.005 1.73q-.438.253-.893.555a29 29 0 0 1 1.9 1.74 29 29 0 0 1 1.74 1.9q.262-.397.49-.78l1.721 1.018q-.416.703-.927 1.426c.718 1.017 1.302 2.016 1.728 2.953.46 1.011.759 2.001.812 2.894.054.891-.135 1.808-.804 2.478-.67.669-1.586.858-2.478.804s-1.882-.353-2.894-.812c-.937-.426-1.936-1.01-2.952-1.728-1.017.718-2.016 1.302-2.953 1.728-1.011.46-2.001.759-2.894.812-.892.054-1.809-.135-2.478-.804-.67-.67-.858-1.587-.804-2.478.053-.893.352-1.883.812-2.894.426-.937 1.01-1.936 1.728-2.953-.718-1.017-1.302-2.016-1.728-2.953-.46-1.011-.76-2.001-.813-2.894-.053-.892.135-1.809.805-2.478.669-.67 1.586-.858 2.477-.804.893.053 1.883.352 2.895.812m-.828 1.82c.662.302 1.375.702 2.116 1.193a29 29 0 0 0-1.899 1.74 29 29 0 0 0-1.741 1.9 15.5 15.5 0 0 1-1.192-2.116c-.402-.884-.603-1.626-.636-2.187-.034-.563.102-.824.222-.944s.38-.256.943-.222 1.303.235 2.187.637M3.45 17.836c.3-.661.7-1.374 1.191-2.115a29 29 0 0 0 1.74 1.899 29 29 0 0 0 1.9 1.74c-.74.491-1.454.891-2.116 1.192-.883.402-1.625.603-2.186.637-.563.034-.824-.103-.944-.222s-.256-.38-.222-.944c.034-.561.235-1.303.637-2.187m4.346-1.63a27 27 0 0 0 2.15 1.934 27 27 0 0 0 2.15-1.934 27 27 0 0 0 1.933-2.15 27 27 0 0 0-1.934-2.15 27 27 0 0 0-2.15-1.933 27 27 0 0 0-2.149 1.933 27 27 0 0 0-1.934 2.15 27 27 0 0 0 1.934 2.15m5.93 4.346c-.662-.3-1.375-.7-2.116-1.191a29 29 0 0 0 1.9-1.741 29 29 0 0 0 1.74-1.9c.49.742.89 1.455 1.191 2.116.402.884.603 1.625.637 2.187.034.563-.103.824-.222.943-.12.12-.38.256-.944.223-.561-.034-1.302-.235-2.186-.637" clip-rule="evenodd"/></svg>
