<svg xmlns="http://www.w3.org/2000/svg" fill="none" viewBox="0 0 24 24"><path fill="currentColor" fill-rule="evenodd" d="M23.14 2.627h-2.906V.877h-2v1.75h-3.656v7.5h9.312v-7.5zM16.776 5.24v2h1.5v-2zm3.416 2v-2h1.5v2zM6.065 7.045h-.78l-.19.758-1.377 5.508H.111v7.735H1.93v-.079a3.656 3.656 0 1 1 7.31.079h3.768v-.079a3.656 3.656 0 1 1 7.31.079h1.793V13.31h-3.607l-.167-.668-.243-.97-1.94.485.243.97.045.183H5.78l1.066-4.266h5.265v-2zm8.442 13.922a2.156 2.156 0 1 1 4.312 0 2.156 2.156 0 0 1-4.312 0m-8.922-2.156a2.156 2.156 0 1 0 0 4.312 2.156 2.156 0 0 0 0-4.312" clip-rule="evenodd"/></svg>
