<svg xmlns="http://www.w3.org/2000/svg" fill="none" viewBox="0 0 24 24"><path fill="currentColor" fill-rule="evenodd" d="M11.683 22.948 12 22l-.316.949.316.105.316-.105L12 22c.316.949.317.949.317.948h.004l.007-.003.026-.01a8 8 0 0 0 .399-.148 19 19 0 0 0 4.35-2.437C19.476 18.557 22 15.65 22 11.412 22 5.704 17.564 1 12 1 6.435 1 2 5.704 2 11.412c0 4.238 2.524 7.146 4.897 8.938a19 19 0 0 0 4.662 2.555l.087.03.026.01.007.002zm6.993-13.124a3.667 3.667 0 0 0-4.852 4.852 3.667 3.667 0 0 0 4.852-4.852M6.833 9.5c-.538 0-1.049.116-1.509.324a3.667 3.667 0 0 0 4.852 4.852A3.667 3.667 0 0 0 6.833 9.5" clip-rule="evenodd"/></svg>
