<svg xmlns="http://www.w3.org/2000/svg" fill="none" viewBox="0 0 24 24"><path fill="currentColor" fill-rule="evenodd" d="M13.486 4.726a3 3 0 0 0-.33.923c.957-.59 2.14-1.037 3.356-1.141.97-.084 1.978.049 2.914.519.939.471 1.774 1.267 2.414 2.459.78 1.45.793 3.148.429 4.817-.365 1.673-1.12 3.374-1.95 4.886a35 35 0 0 1-2.46 3.827 35 35 0 0 1-1.196 1.536l-.019.021-.004.006-.002.001-.38-.323.38.324-.276.322-4.237-2.548-4.238 2.548-.275-.322-.002-.002-.004-.006-.019-.021a14 14 0 0 1-.32-.393c-.216-.27-.52-.66-.875-1.143A35 35 0 0 1 3.93 17.19c-.83-1.512-1.585-3.213-1.95-4.886-.364-1.67-.351-3.366.429-4.817.64-1.192 1.475-1.988 2.414-2.46.936-.47 1.944-.602 2.914-.518 1.234.106 2.434.565 3.398 1.167v-.002a5 5 0 0 1 .601-1.918c.629-1.13 1.849-2.288 4.087-2.735l.393 1.96c-1.657.332-2.385 1.123-2.73 1.746Z" clip-rule="evenodd"/></svg>
