<svg xmlns="http://www.w3.org/2000/svg" fill="none" viewBox="0 0 24 24"><path fill="currentColor" fill-rule="evenodd" d="M12.75 22.975a10.98 10.98 0 0 0 7.977-4.278 7.121 7.121 0 0 1 0-13.394 10.98 10.98 0 0 0-7.977-4.278zm-1.5-21.95a10.98 10.98 0 0 0-7.979 4.28 7.121 7.121 0 0 1 0 13.39 10.98 10.98 0 0 0 7.979 4.28zM1 12c0-1.961.513-3.803 1.413-5.398a5.622 5.622 0 0 1 0 10.795A10.95 10.95 0 0 1 1 12m20.586 5.4A10.95 10.95 0 0 0 23 12a10.95 10.95 0 0 0-1.414-5.4 5.622 5.622 0 0 0 0 10.8" clip-rule="evenodd"/></svg>
