<svg xmlns="http://www.w3.org/2000/svg" fill="none" viewBox="0 0 24 24"><path fill="currentColor" fill-rule="evenodd" d="M11.669 3.254 8.707.293 7.293 1.707l1.853 1.854a15.2 15.2 0 0 0-3.974 1.468 10 10 0 0 0-.54.316l-.033.021-.01.007-.003.002-.002.001L5 6l-.364-.546-.052-.078-.334.223V8.25h15.5V5.6l-.334-.223-.002-.001-.003-.002-.01-.007-.032-.02-.116-.073c-.099-.06-.242-.144-.425-.244a15.2 15.2 0 0 0-3.974-1.468l1.853-1.854L15.293.293l-2.961 2.961a13 13 0 0 0-.664 0M19 6l.416-.624zM1.996 8.132 4.828 9.75h14.344l2.832-1.618.992 1.736-3.246 1.855V14H23v2h-3.25v2.277l3.246 1.855-.992 1.736-3.34-1.908L12 22.816 5.336 19.96l-3.34 1.908-.992-1.736 3.246-1.855V16H1v-2h3.25v-2.277L1.004 9.868z" clip-rule="evenodd"/></svg>
