<svg xmlns="http://www.w3.org/2000/svg" fill="none" viewBox="0 0 24 24"><path fill="currentColor" fill-rule="evenodd" d="M3 12a9 9 0 0 1 16.134-5.488l-1.31 1.311-.178.177.177.177.5.5.073.073h4.354V4.396l-.073-.073-.5-.5L22 3.646l-.177.177-1.265 1.266A10.98 10.98 0 0 0 12 1C5.925 1 1 5.925 1 12v1h2zm20 0v-1h-2v1a9 9 0 0 1-16.134 5.488l1.31-1.311.178-.177-.177-.177-.5-.5-.073-.073H1.25v4.354l.073.073.5.5.177.177.177-.177 1.265-1.266A10.98 10.98 0 0 0 12 23c6.075 0 11-4.925 11-11" clip-rule="evenodd"/><path fill="currentColor" fill-rule="evenodd" d="M9.726 7.25h4.548l.142.568.28 1.12h2.275v6.987H7.029V8.938h2.275l.28-1.12zm2.026 3.84h-1v2.496h2.496V11.09z" clip-rule="evenodd"/></svg>
