<svg xmlns="http://www.w3.org/2000/svg" fill="none" viewBox="0 0 24 24"><path fill="currentColor" fill-rule="evenodd" d="M6.192 3.733a1 1 0 1 0 0 2v2a3 3 0 0 1 0-6zm13.834.978a2.548 2.548 0 0 0-1.964 3.756l-1.316 1.722-.19.247c-1.412-.496-3.27.068-4.467 1.704l-.005.007-.005.006-1.414 1.85-.456.595-1.191-.911.455-.596 1.41-1.843q.22-.3.47-.57h-1.45a8.75 8.75 0 0 0-8.75 8.75v2.838h21.489v-4.097a4.46 4.46 0 0 0-2.658-4.079 6.26 6.26 0 0 1-1.17 2.962L17.56 18.83l-.432.613-1.226-.864.432-.613 1.256-1.784.007-.011c1.093-1.493 1.168-3.24.489-4.444l.248-.324 1.299-1.7a2.548 2.548 0 1 0 .392-4.994m-10.57.022a1 1 0 0 1 1-1v-2a3 3 0 1 0 0 6v-2a1 1 0 0 1-1-1" clip-rule="evenodd"/></svg>
