<svg xmlns="http://www.w3.org/2000/svg" fill="none" viewBox="0 0 24 24"><path fill="currentColor" fill-rule="evenodd" d="M6.5 1a2.75 2.75 0 1 0 0 5.5 2.75 2.75 0 0 0 0-5.5M4 19v4h5v-4h2.5L10 9.5S9 8 6.5 8 3 9.5 3 9.5L1.5 19zm16.669-3.688a4.8 4.8 0 0 0-1.169-.446V1.5h-2v13.366a4.75 4.75 0 0 0-1.99 1.01l-.015.014-.005.005-.003.002c0 .001-.001.002.513.547l-.514-.545-.18.17-1.203 6.68h8.794l-1.202-6.68-.18-.17v-.001l-.002-.001-.002-.002-.005-.005-.016-.014a3 3 0 0 0-.217-.178 5 5 0 0 0-.604-.386" clip-rule="evenodd"/></svg>
