<svg xmlns="http://www.w3.org/2000/svg" fill="none" viewBox="0 0 24 24"><g fill="currentColor"><path d="m9.583 19.502-.463-3.206C10.049 16.102 11.012 16 12 16s1.951.102 2.88.296l-.463 3.206 5.252 3.283 3.759-4.03-.761-.68a16 16 0 0 0-6.401-3.5C14.906 14.2 13.476 14 12 14s-2.907.2-4.266.575a16 16 0 0 0-6.4 3.5l-.761.68 3.758 4.03z"/><path fill-rule="evenodd" d="M9 1.5h6v2.512q.452.16.88.365l1.777-1.776L21.9 6.842 20.123 8.62q.204.428.365.88H23V14h-2.747a18 18 0 0 0-4.757-1.66 3.5 3.5 0 0 0-6.992 0A18 18 0 0 0 3.747 14H1V9.5h2.512a9 9 0 0 1 .365-.88L2.101 6.843l4.242-4.242L8.12 4.377A9 9 0 0 1 9 4.012z" clip-rule="evenodd"/></g></svg>
