<svg xmlns="http://www.w3.org/2000/svg" fill="none" viewBox="0 0 24 24"><path fill="currentColor" fill-rule="evenodd" d="M16.825 8.75a7.75 7.75 0 1 0-7.556 7.748l2.999-3 1.454 1.455a7.74 7.74 0 0 0 3.103-6.203m-9-4h.25v-1h2v1h.25a2 2 0 0 1 2 2v.5h-2v-.5h-2.5v.448l2.934.652a2 2 0 0 1 1.566 1.952v.948a2 2 0 0 1-2 2h-.25v1h-2v-1h-.25a2 2 0 0 1-2-2v-.5h2v.5h2.5v-.948L7.39 9.15a2 2 0 0 1-1.566-1.952V6.75a2 2 0 0 1 2-2Zm3.735 11.577-5.235 5.236 1.414 1.414 4.529-4.529 3.032 3.033.707.707.708-.707 3.347-3.348 2.23 2.23.708-.706V14h-5.657l-.707.707 2.012 2.012-2.64 2.64-3.033-3.032-.707-.707z" clip-rule="evenodd"/></svg>
