<svg xmlns="http://www.w3.org/2000/svg" fill="none" viewBox="0 0 24 24"><g fill="currentColor" fill-rule="evenodd" clip-rule="evenodd"><path d="m23.09 13.924-6.82-2.956-6.822 2.956v5.486h1.433v-3.503l5.389 2.335 6.82-2.956zm-11.136 3.983.006 2.49 4.309 2.02 4.316-2.02v-2.49l-4.039 1.69-.276.116-.277-.115-4.04-1.69Z"/><path d="M6.765 10.561h6.239l-.092.3-4.897 2.122v1.67zm4.116 6.948-.368 1.205a9 9 0 0 1-1.065.012v-4.802l2.914-1.262-1.049 3.433-.432-.187zm1.9.745a9 9 0 0 1-.693.207l.135-.44zm1.69-.79-1.835-.796 1.453-4.755 2.18-.944 2.257.977a8.9 8.9 0 0 1-4.054 5.517ZM12.088 1.227a8.9 8.9 0 0 1 6.66 7.9h-4.246zm.916 7.9L10.513.975a9 9 0 0 0-1.257 0L6.765 9.128zm-11.983 0a8.9 8.9 0 0 1 6.66-7.9l-2.414 7.9H1.02Zm6.66 9.333a8.9 8.9 0 0 1-6.66-7.9h4.246z"/></g></svg>
