<svg xmlns="http://www.w3.org/2000/svg" fill="none" viewBox="0 0 24 24"><path fill="currentColor" fill-rule="evenodd" d="M22 1H2v17.25h20zM2 23v-3.25h20V23zM7.315 8.08c.41-.575.975-1.137 1.504-1.416.258-.136.448-.174.573-.169.098.004.21.035.352.176.003 0 .011.003.014.057.006.086-.013.247-.102.504-.184.53-.549 1.158-.982 1.898l-.02.034c-.391.67-.855 1.464-1.075 2.182-.114.373-.197.827-.104 1.292.102.511.399.942.865 1.232 1.043.651 2.1.203 2.798-.264.71-.474 1.421-1.203 2.033-1.83l.015-.015c.663-.679 1.219-1.247 1.715-1.587.242-.166.398-.226.48-.241.04-.008.041-.004.043-.001l.001.001c.06.04.091.07.107.088a.1.1 0 0 1 .018.025q.002.002.006.024a.4.4 0 0 1-.001.099c-.025.246-.148.544-.36 1.058l-.037.088c-.195.472-.476 1.161-.464 1.877.013.835.409 1.582 1.254 2.142l1.104-1.668c-.34-.225-.357-.383-.359-.505-.004-.242.099-.563.314-1.083l.06-.144c.176-.42.421-1.005.478-1.566a2.2 2.2 0 0 0-.169-1.137 2.27 2.27 0 0 0-.847-.965c-1.034-.685-2.094-.198-2.76.259-.667.457-1.346 1.154-1.94 1.763l-.074.076c-.658.674-1.222 1.241-1.728 1.579-.246.164-.413.228-.512.246a.2.2 0 0 1-.079.002l.002-.02a1.3 1.3 0 0 1 .053-.24c.141-.46.475-1.048.91-1.792l.049-.083c.388-.663.844-1.444 1.096-2.169.251-.726.436-1.812-.392-2.635-.483-.479-1.061-.729-1.676-.755-.588-.025-1.134.156-1.592.397-.902.476-1.686 1.304-2.2 2.026z" clip-rule="evenodd"/></svg>
