<svg xmlns="http://www.w3.org/2000/svg" fill="none" viewBox="0 0 24 24"><path fill="currentColor" fill-rule="evenodd" d="M6.998 5a6.501 6.501 0 0 1 12.496 2.227 5.002 5.002 0 0 1-.76 9.72 5.288 5.288 0 0 0-7.98-6.895L5.79 15.016c-.458.458-.815.98-1.07 1.536A6.002 6.002 0 0 1 6.998 5m6.051 7.555a1.894 1.894 0 0 1 2.679 2.679l-.745.744-.707.707L15.69 18.1l.707-.707.745-.744a3.894 3.894 0 1 0-5.507-5.507l-.745.744-.707.707 1.414 1.414.707-.707zm1.068 3.025-.707.707-1.459 1.459-.707.707-1.414-1.415.707-.707 1.459-1.459.707-.707zm-5.1 1.007.707-.707-1.414-1.414-.707.707-.745.744a3.894 3.894 0 0 0 5.507 5.508l.745-.745.707-.707-1.414-1.414-.707.707-.745.744a1.894 1.894 0 1 1-2.679-2.678z" clip-rule="evenodd"/></svg>
