<svg xmlns="http://www.w3.org/2000/svg" fill="none" viewBox="0 0 24 24"><path fill="currentColor" fill-rule="evenodd" d="M14 5V2h-4v3H7v4h3v3h4V9h3V5zm5.532 8.826c.463.583.78 1.245.857 1.948.103.929-.22 1.83-.972 2.584l-.53-.53.53.53-.002.001-.005.005-.02.02-.074.074-.253.253-.657.657-1.06-1.061.656-.657.253-.252.074-.074.02-.02.005-.005.001-.002c.46-.46.592-.921.543-1.357-.051-.464-.32-.997-.845-1.522L14.03 18.44v4.559h5.002l4-4V8c-2 0-3.5 1-3.5 3v1.5zm-9.507 4.615-4.023-4.023c-.526.525-.794 1.058-.846 1.522-.048.436.083.897.543 1.357l.001.002.006.005.02.02.074.074.252.252.657.657-1.06 1.06-.657-.656-.253-.252-.074-.075-.02-.02-.005-.005-.002-.001.53-.53-.53.53c-.753-.753-1.076-1.655-.973-2.584.078-.703.395-1.365.857-1.948V11c0-2-1.5-3-3.5-3v11l4 4h5.002z" clip-rule="evenodd"/></svg>
