<svg xmlns="http://www.w3.org/2000/svg" fill="none" viewBox="0 0 24 24"><path fill="currentColor" fill-rule="evenodd" d="m2.287 8.958 2.032-.61-3.235 7.401-.084.192v2.892l.2.267.8-.6c-.8.6-.8.601-.799.601l.001.002.003.004.007.009.021.027.07.086q.089.107.248.276c.213.22.522.512.923.804.798.58 2 1.191 3.526 1.191s2.728-.61 3.526-1.191a7 7 0 0 0 1.17-1.08l.07-.086.022-.027.007-.01.003-.003.001-.002h.001l.2-.268v-2.892l-.084-.192-3.625-8.292 8.827-2.648-3.034 6.94-.084.192v2.892l.2.267.8-.6c-.8.6-.8.601-.799.601l.001.002.003.004.007.009.021.027.07.086q.089.107.248.276c.213.22.522.512.923.804.798.58 2 1.191 3.526 1.191s2.728-.61 3.526-1.191a7 7 0 0 0 1.17-1.08l.07-.086.022-.027.007-.01.003-.003.001-.002h.001l.2-.268v-2.892l-.084-.192-3.47-7.939 2.841-.852-.574-1.916L13 3.656V1.5h-2v2.756L1.713 7.042zM20.843 12 18 5.497 15.157 12zM22 14.5l.8.6zm-12 4 .8.6zM6 9.497 3.157 16h5.686z" clip-rule="evenodd"/></svg>
