<svg xmlns="http://www.w3.org/2000/svg" fill="none" viewBox="0 0 24 24"><path fill="currentColor" fill-rule="evenodd" d="M13 1.75v-1h-2v4.01a7.27 7.27 0 0 0-3.412 1.414L5.46 4.045l-.708-.707-1.414 1.414.707.708 2.129 2.128A7.27 7.27 0 0 0 4.76 11H.75v2h4.01a7.3 7.3 0 0 0 1.414 3.412l-2.129 2.129-.707.707 1.414 1.414.708-.707 2.128-2.129A7.27 7.27 0 0 0 11 19.24v4.01h2v-4.01a7.3 7.3 0 0 0 3.412-1.414l2.129 2.13.707.706 1.414-1.414-.707-.707-2.129-2.129A7.3 7.3 0 0 0 19.24 13h4.01v-2h-4.01a7.27 7.27 0 0 0-1.414-3.412l2.13-2.128.706-.708-1.414-1.414-.707.707-2.129 2.13A7.3 7.3 0 0 0 13 4.76zm2.767 6.51-.027-.026A5.3 5.3 0 0 0 12 6.692c-.828 0-1.612.19-2.31.528a6.308 6.308 0 0 0 7.09 7.09 5.3 5.3 0 0 0 .528-2.27v-.08a5.3 5.3 0 0 0-1.541-3.7" clip-rule="evenodd"/></svg>
