<svg xmlns="http://www.w3.org/2000/svg" fill="none" viewBox="0 0 24 24"><path fill="currentColor" fill-rule="evenodd" d="M21.326 7.813h1.14v7.615H21.25c-.887 4.321-5.04 7.51-9.82 7.51-5.142 0-9.474-3.691-9.893-8.494l-.003-.033v-2.063h2.335v-2H1.533V1.124l1.22.979.038.03.112.09a93 93 0 0 0 1.76 1.367c.984.747 2.082 1.546 2.78 1.958l8.119.055c.658-.41 1.71-1.212 2.663-1.969a104 104 0 0 0 1.721-1.399l.11-.09.037-.032.005.004-.005-.004 1.232-1.033zm-15.958 1.5v4.615h6.297v-1.58h3.005v1.58h6.297V9.312H14.67v1.035h-3.005V9.313zm3.285 7.364-.698-.717-1.433 1.396.698.716c.653.67 2.383 1.622 4.962 1.562l1-.023-.047-2-1 .024c-2.107.049-3.273-.743-3.482-.958" clip-rule="evenodd"/></svg>
