<svg xmlns="http://www.w3.org/2000/svg" fill="none" viewBox="0 0 24 24"><path fill="currentColor" fill-rule="evenodd" d="m7.5 4 .8.6-.001.001-.001.002-.001.002-.002.001.003-.004.032-.037q.047-.057.158-.17c.15-.15.38-.355.692-.563C9.8 3.42 10.734 3 12 3s2.2.42 2.82.832c.312.208.543.414.692.563a3 3 0 0 1 .19.207l.003.004-.002-.001-.001-.002v-.002H15.7L16.5 4l.8-.6-.001-.002-.001-.001-.004-.004-.008-.01-.097-.12a5 5 0 0 0-.263-.283 6.6 6.6 0 0 0-.996-.812A7 7 0 0 0 12 1c-1.734 0-3.05.58-3.93 1.168-.438.292-.77.586-.996.812a5 5 0 0 0-.36.402l-.008.01-.003.005-.002.001v.001S6.7 3.4 7.5 4M6 6H5v10.5a7 7 0 1 0 14 0V6zm4.5 8V9.5h3V14z" clip-rule="evenodd"/></svg>
