<svg xmlns="http://www.w3.org/2000/svg" fill="none" viewBox="0 0 24 24"><path fill="currentColor" fill-rule="evenodd" d="M13.932.998v5.657l-.707.707-2.126-2.126L6.836 9.5l-.707.707-.707-.707-3.68-3.68-.707-.707L2.45 3.698l.707.707L6.13 7.377l3.556-3.555-2.117-2.117.707-.707zm.03 16.741-1.443-2.416-6.575 1.879.7 5.848.937-.051a16.2 16.2 0 0 0 7.089-2.078 16.2 16.2 0 0 0 3.466-2.643 16.2 16.2 0 0 0 2.643-3.467 16.2 16.2 0 0 0 2.078-7.089l.052-.936-5.849-.701-1.878 6.576 2.416 1.441a14.3 14.3 0 0 1-3.637 3.637" clip-rule="evenodd"/></svg>
