<svg xmlns="http://www.w3.org/2000/svg" fill="none" viewBox="0 0 24 24"><path fill="currentColor" fill-rule="evenodd" d="M22.908 19.408V4.593l-.95.247-.033.008-.132.034a76 76 0 0 1-2.176.512c-.866.19-1.857.39-2.797.543v12.127c.94.152 1.93.352 2.797.542a76 76 0 0 1 2.176.512l.132.034.033.009.011.002zm-7.588-1.544h-.006c-2.585-.248-4.044-.248-6.629 0H8.68V6.136h.005c2.585.248 4.044.248 6.63 0h.005zm-8.14.2V5.937a53 53 0 0 1-2.797-.543 76 76 0 0 1-2.176-.512l-.132-.034-.034-.008-.01-.003-.94-.244v14.815l.94-.245.01-.002.034-.009.132-.034.493-.122a76 76 0 0 1 1.683-.39 53 53 0 0 1 2.797-.542" clip-rule="evenodd"/></svg>
