<svg xmlns="http://www.w3.org/2000/svg" fill="none" viewBox="0 0 24 24"><path fill="currentColor" fill-rule="evenodd" d="m23 10.555-11-9.9-11 9.9V23h22zM7.314 12.954l.558.5h.001l.002-.003.005-.006.018-.02a4 4 0 0 0 .224-.283 2.5 2.5 0 0 0 .195-.313 1.2 1.2 0 0 0 .146-.54 1.15 1.15 0 0 0-2.298 0c0 .242.097.445.145.54.061.118.134.228.195.313a4 4 0 0 0 .225.284l.017.02.005.005.002.002v.001h.001zm0 0-.559.5.559.623.558-.622zm5.127-.017-.441-.32-.441.32-3.033 2.206-.308.224v.658a3.782 3.782 0 0 0 7.564 0v-.658l-.309-.224zm-1.675-1.963-.558-.501-.558.5h-.001l-.002-.003-.006-.006-.017-.02a4 4 0 0 1-.224-.283 2.5 2.5 0 0 1-.195-.313 1.2 1.2 0 0 1-.146-.54 1.149 1.149 0 1 1 2.298 0 1.2 1.2 0 0 1-.145.54 3 3 0 0 1-.195.313 4 4 0 0 1-.225.284l-.017.02-.005.005-.002.002zm-.558-.501.558.5-.558.623-.558-.622zm6.478 2.48-.558.502-.001-.002-.002-.002-.005-.006-.018-.02a4 4 0 0 1-.224-.283 3 3 0 0 1-.195-.313 1.2 1.2 0 0 1-.146-.54 1.15 1.15 0 0 1 2.298 0 1.2 1.2 0 0 1-.145.54 2.5 2.5 0 0 1-.195.313 4 4 0 0 1-.225.284l-.017.02-.005.005-.002.002-.001.001zm0 0 .558.502-.558.622-.558-.622zm-3.453-1.98.559-.5zl.558.623.558-.622-.558-.501.558.5h.001l.002-.003.005-.006.018-.02a5 5 0 0 0 .224-.283c.061-.085.134-.194.195-.313a1.2 1.2 0 0 0 .146-.54 1.15 1.15 0 0 0-2.298 0c0 .242.097.445.145.54.061.118.134.228.195.313a4 4 0 0 0 .225.284l.017.02.005.005z" clip-rule="evenodd"/></svg>
