<svg xmlns="http://www.w3.org/2000/svg" fill="none" viewBox="0 0 24 24"><path fill="currentColor" fill-rule="evenodd" d="M18 4.5V3H6v1.5H4V1h16v3.5zm0 15V21H6v-1.5H4V23h16v-3.5zM14 17h-4v2h4zM3.587 9 1.293 6.707l1.414-1.414 3 3L6.414 9l-.707.707L3.414 12l2.293 2.293.707.707-.707.707-3 3-1.414-1.414L3.586 15l-2.293-2.293L.586 12l.707-.707zm19.121-2.293L20.414 9l2.293 2.293.707.707-.707.707L20.414 15l2.293 2.293-1.414 1.414-3-3-.707-.707.707-.707L20.586 12l-2.293-2.293L17.586 9l.707-.707 3-3z" clip-rule="evenodd"/></svg>
