<svg xmlns="http://www.w3.org/2000/svg" fill="none" viewBox="0 0 24 24"><path fill="currentColor" fill-rule="evenodd" d="M16.64 1H7.96L5.137 5.294l2.606 1.873L8.91 5.543 7.862 4.79 9.04 3h1.833l1.367 2.834-1.337.577.798 1.85 5.405 1.169 2.859-4.734-.798-1.85-1.4.604zm6.992 12.396-2.829-4.244-2.747 1.648 1.03 1.715 1.11-.667 1.171 1.756-.812 1.896H17.5V14h-2.015l-3.214 4.5 3.214 4.5H17.5v-1.5h2.66zm-14.196.823-2.29-5.033-5.505.533-1.007 1.745 1.3.75-1.33 2.303 5.262 7.034 4.634-.065V18h-2v1.514l-1.643.023-1.255-1.677 1.527-2.646 1.3.75z" clip-rule="evenodd"/></svg>
