<svg xmlns="http://www.w3.org/2000/svg" fill="none" viewBox="0 0 24 24"><path fill="currentColor" fill-rule="evenodd" d="M11 3.055a9 9 0 0 1 2 0V5.5h-2zm0-2.01a11 11 0 0 0-7.988 4.611A10.96 10.96 0 0 0 1 12c0 6.075 4.925 11 11 11 4.746 0 8.79-3.006 10.333-7.218a11 11 0 0 0 .61-4.907 11 11 0 0 0-.52-2.399C21.057 4.432 17.403 1.442 13 1.045a11 11 0 0 0-2 0m9.248 14.562-2.119-1.223-1 1.732 2.117 1.223a9 9 0 0 0 1.002-1.732M13 20.945V18.5h-2v2.445a9 9 0 0 0 2 0M3.752 8.393l2.119 1.223 1-1.732-2.117-1.222a9 9 0 0 0-1.002 1.73M16 8l-2 6-6 2 2-6z" clip-rule="evenodd"/></svg>
