<svg xmlns="http://www.w3.org/2000/svg" fill="none" viewBox="0 0 24 24"><path fill="currentColor" fill-rule="evenodd" d="m17.276 2.953.316-.948-1.898-.633-.316.949-2.594 7.782-.316.948 1.897.633.317-.949zm-5.87 2.12.707-.707L10.7 2.952l-.707.707-2.594 2.594-.707.707.707.708 2.594 2.594.707.707 1.414-1.415-.707-.707L9.519 6.96zM6.113 12.71A4.356 4.356 0 0 0 1 17v5h9.604L21 19.81V19a2.5 2.5 0 0 0-2.5-2.5h-.76q-.346 0-.684.072l-5.556 1.19v-.012H7v-1.5h4.5v-2.59zM19.36 2.952l.707.707 2.594 2.594.708.707-.708.708-2.594 2.593-.707.708-1.414-1.415.707-.707L20.54 6.96l-1.887-1.886-.707-.708z" clip-rule="evenodd"/></svg>
