<svg xmlns="http://www.w3.org/2000/svg" fill="none" viewBox="0 0 24 24"><g fill="currentColor" fill-rule="evenodd" clip-rule="evenodd"><path d="M20.06 2.94 19 1.879l-1.06 1.06-7.561 7.561h-5l-.44.44-3.5 3.5L.38 15.5l1.06 1.06 5 5 1.06 1.063 1.06-1.061 3.5-3.5.44-.44v-5l3.25-3.25 2.69 2.69 2.12-2.121-2.689-2.69L19 6.122l2.44 2.439 2.12-2.121zM4.622 15.5l2-2H9.5v2.879l-2 2z"/><path d="M10.96 4.787a6 6 0 0 0-8.485 0l-1.06 1.06L0 4.434l1.06-1.06a8 8 0 0 1 11.314 0l1.061 1.06-1.414 1.415zm-1.98 2.97a3.2 3.2 0 0 0-4.525 0l-.566.565-1.414-1.414.566-.565a5.2 5.2 0 0 1 7.354 0l.565.565-1.414 1.414z"/></g></svg>
