<svg xmlns="http://www.w3.org/2000/svg" fill="none" viewBox="0 0 24 24"><path fill="currentColor" fill-rule="evenodd" d="M1.25 12C1.25 6.063 6.063 1.25 12 1.25S22.75 6.063 22.75 12 17.937 22.75 12 22.75 1.25 17.937 1.25 12m7.884-5.548-.884.884-.884-.884-1.414 1.414.884.884-.884.884 1.414 1.414.884-.884.884.884 1.414-1.414-.884-.884.884-.884zM8.75 15a3.25 3.25 0 1 1 6.5 0 3.25 3.25 0 0 1-6.5 0m6.116-8.548.884.884.884-.884 1.414 1.414-.884.884.884.884-1.414 1.414-.884-.884-.884.884-1.414-1.414.884-.884-.884-.884z" clip-rule="evenodd"/></svg>
