<svg xmlns="http://www.w3.org/2000/svg" fill="none" viewBox="0 0 24 24"><path fill="currentColor" fill-rule="evenodd" d="M15.367 13.647a4.76 4.76 0 0 0 1.395-3.367V8.9L12 1.041 7.238 8.899v1.381a4.762 4.762 0 0 0 8.129 3.367M22 23H2v-2h20zM18.262 8.48v1.8a6.26 6.26 0 0 1-3.225 5.476 4.78 4.78 0 0 0 5.825-1.969l.715-1.177.008-9.217-4.87 2.536zM6.088 15.948a4.8 4.8 0 0 0 2.875-.192 6.26 6.26 0 0 1-3.225-5.476v-1.8l1.546-2.552-4.869-2.535.009 9.217.715 1.177a4.78 4.78 0 0 0 2.95 2.161" clip-rule="evenodd"/></svg>
