<svg xmlns="http://www.w3.org/2000/svg" fill="none" viewBox="0 0 24 24"><path fill="currentColor" fill-rule="evenodd" d="m19.086 1.025 3.889 3.89-2.415 2.414A9.7 9.7 0 0 1 21.75 12a9.7 9.7 0 0 1-1.19 4.671l2.415 2.415-3.89 3.89-2.414-2.416A9.7 9.7 0 0 1 12 21.75a9.7 9.7 0 0 1-4.671-1.19l-2.415 2.415-3.89-3.889 2.416-2.415a9.7 9.7 0 0 1-1.19-4.67 9.7 9.7 0 0 1 1.19-4.672L1.025 4.914l3.889-3.889L7.329 3.44a9.7 9.7 0 0 1 4.67-1.19 9.7 9.7 0 0 1 4.672 1.19zM6.25 12a5.75 5.75 0 1 1 11.5 0 5.75 5.75 0 0 1-11.5 0m7-1.25h-2.5v2.5h2.5z" clip-rule="evenodd"/></svg>
