<svg xmlns="http://www.w3.org/2000/svg" fill="none" viewBox="0 0 24 24"><path fill="currentColor" fill-rule="evenodd" d="m.293 1.707 22 22 1.414-1.414-3.076-3.076A11.2 11.2 0 0 0 23.25 12a11.22 11.22 0 0 0-3.679-8.321L21 2.249l-1-1h-4.5V5.75l1 1 1.301-1.301a8.73 8.73 0 0 1 2.949 6.55c0 2.057-.71 3.947-1.896 5.44L6.56 5.147A8.7 8.7 0 0 1 12 3.25V.75c-2.747 0-5.263.984-7.217 2.62L1.707.292zM3.25 12c0-1.513.384-2.936 1.06-4.177L2.483 5.997A11.2 11.2 0 0 0 .75 12a11.22 11.22 0 0 0 3.679 8.321l-1.43 1.429 1 1h4.5v-2.727H8.5V18.25l-1-1-1.301 1.301A8.73 8.73 0 0 1 3.25 12M12 20.75a8.7 8.7 0 0 0 4.177-1.06l1.826 1.826A11.2 11.2 0 0 1 12 23.25z" clip-rule="evenodd"/></svg>
