<svg xmlns="http://www.w3.org/2000/svg" fill="none" viewBox="0 0 24 24"><path fill="currentColor" fill-rule="evenodd" d="M6.25 1h11.5v3.754A9.2 9.2 0 0 0 12 2.75a9.2 9.2 0 0 0-5.75 2.004zm11.5 22v-3.754A9.2 9.2 0 0 1 12 21.25a9.2 9.2 0 0 1-5.75-2.004V23zm2-11a7.75 7.75 0 1 0-15.5 0 7.75 7.75 0 0 0 15.5 0m-8.32-4.533h-.752l.002.751.003 1.92-.896-.64-.871 1.22 1.77 1.266v.033l-1.77 1.265.871 1.22.902-.643.003 1.926.002.75h1.546l.196-.14 2.649-1.892.854-.61-.854-.611L13.29 12l1.795-1.281.854-.61-.854-.61-2.649-1.893-.196-.14zm1.928 6.425-1.17-.836.003 1.67zm-1.177-4.624.003 1.68 1.174-.84z" clip-rule="evenodd"/></svg>
