<svg xmlns="http://www.w3.org/2000/svg" fill="none" viewBox="0 0 24 24"><path fill="currentColor" fill-rule="evenodd" d="m18 19.414 4.293 4.293 1.414-1.414-5.789-5.789A7.75 7.75 0 0 0 6.996 5.582L1.707.293.293 1.707l5.354 5.354 8.36 8.36 2.432 2.433 1.075 1.074zM6.5.5H18v3.96a9.2 9.2 0 0 0-6-2.21c-2.06 0-3.963.673-5.5 1.812zm0 18.438V22.5H18v-.964l-1.794-1.795A9.2 9.2 0 0 1 12 20.751a9.2 9.2 0 0 1-5.5-1.813M4.25 11.5c0-1.094.227-2.135.636-3.079l10.193 10.193A7.75 7.75 0 0 1 4.25 11.5" clip-rule="evenodd"/></svg>
