<svg xmlns="http://www.w3.org/2000/svg" fill="none" viewBox="0 0 24 24"><path fill="currentColor" fill-rule="evenodd" d="M15.759 1.034a5.443 5.443 0 0 1 3.849 6.667l-1.932-.518a3.443 3.443 0 0 0-2.435-4.217zM4.593 22.966a5.443 5.443 0 0 1-3.849-6.667l1.932.517a3.443 3.443 0 0 0 2.435 4.218zM10.41 5.647l2.75 4.763-1.299.75-5-8.66-.866.5a2.5 2.5 0 0 0-.915 3.415l3.75 6.495-1.299.75-4-6.928-.866.5a2.5 2.5 0 0 0-.915 3.415L8.882 23h4.077c1.57 0 3.11-.413 4.47-1.198a8 8 0 0 0 3.994-6.648l.188-5.363-.675-.181a2.25 2.25 0 0 0-2.75 1.655l-.457 1.91-.079.33-.302.159-.806.423a2.25 2.25 0 0 0-.903 3.117l.439.76-1.3.75-.438-.76a3.75 3.75 0 0 1 1.505-5.195l.505-.265.377-1.577q.106-.434.297-.815l-4.833-8.37-.866.5a2.5 2.5 0 0 0-.915 3.415" clip-rule="evenodd"/></svg>
