<svg xmlns="http://www.w3.org/2000/svg" fill="none" viewBox="0 0 14 14"><path fill="currentColor" fill-rule="evenodd" d="M7 .125c-1.383 0-2.55.394-3.372 1.222-.82.827-1.21 2.002-1.21 3.392 0 .55-.08.862-.166 1.052-.082.182-.188.297-.342.439l-.063.057c-.148.133-.368.33-.532.597C1.107 7.22 1 7.63 1 8.167c0 .734.406 1.271.912 1.635.492.355 1.127.585 1.748.741 1.249.314 2.651.374 3.34.374s2.091-.06 3.34-.374c.621-.156 1.255-.386 1.748-.74.506-.365.912-.902.912-1.636 0-.538-.107-.947-.314-1.283a2.8 2.8 0 0 0-.533-.597l-.064-.057c-.153-.142-.259-.257-.341-.439-.086-.19-.166-.501-.166-1.052 0-1.39-.39-2.565-1.21-3.392C9.55.519 8.382.125 7 .125M3.668 4.739c0-1.163.323-1.983.848-2.512S5.85 1.375 7 1.375s1.96.324 2.484.852c.525.53.848 1.35.848 2.512 0 .667.097 1.167.277 1.566.184.408.432.658.633.844l.094.086c.149.135.222.202.285.305.059.095.129.263.129.627 0 .21-.099.41-.392.62-.307.222-.766.404-1.322.544-1.105.277-2.39.336-3.036.336s-1.931-.059-3.036-.336c-.556-.14-1.015-.323-1.322-.543-.293-.212-.392-.412-.392-.621 0-.364.07-.532.129-.627.063-.103.136-.17.284-.305l.095-.086c.2-.186.45-.436.633-.844.18-.399.277-.899.277-1.566m1.747 6.943a.625.625 0 0 0-.583.85c.166.429.45.777.842 1.012.386.23.84.331 1.326.331.485 0 .94-.1 1.325-.331.393-.235.677-.583.842-1.012a.625.625 0 0 0-.583-.85z" clip-rule="evenodd"/></svg>
