<svg xmlns="http://www.w3.org/2000/svg" fill="none" viewBox="0 0 14 14"><path fill="currentColor" fill-rule="evenodd" d="M1.65 4.043c-.206 2.052-.2 4.058.02 6.113a2.45 2.45 0 0 0 1.085 1.772 4.68 4.68 0 0 1 4.518-2.696l1.481-2.607a.75.75 0 1 1 1.304.74L8.8 9.583a4.7 4.7 0 0 1 2.446 2.346 2.45 2.45 0 0 0 1.085-1.772c.22-2.055.226-4.061.02-6.113zM10.308.436a29.5 29.5 0 0 0-6.616 0A3.71 3.71 0 0 0 .427 3.711a30.6 30.6 0 0 0 0 6.578 3.71 3.71 0 0 0 3.265 3.275 29.5 29.5 0 0 0 6.616 0 3.71 3.71 0 0 0 3.265-3.275c.236-2.21.236-4.368 0-6.578A3.71 3.71 0 0 0 10.308.436" clip-rule="evenodd"/></svg>
