<svg xmlns="http://www.w3.org/2000/svg" fill="none" viewBox="0 0 14 14"><path fill="currentColor" fill-rule="evenodd" d="M10.934 0a1.01 1.01 0 0 1 .94.642l.127.321.313.181.34-.052a1.01 1.01 0 0 1 1.027.495l.183.317c.102.176.148.379.133.581a1 1 0 0 1-.042.205 1 1 0 0 1-.053.133 2 2 0 0 1-.061.121 1 1 0 0 1-.069.108l-.044.056c-.03.039-.069.086-.105.13l-.058.072v.18l-.001.181.058.072.172.218a2 2 0 0 1 .107.197q.027.055.054.134c.016.049.035.12.042.204a1 1 0 0 1-.133.582l-.183.317a1.01 1.01 0 0 1-1.027.495l-.34-.052-.314.18-.126.322a1.01 1.01 0 0 1-.94.642h-.368a1.01 1.01 0 0 1-.94-.642l-.127-.321-.313-.181-.34.052a1.01 1.01 0 0 1-1.027-.495l-.183-.317a1 1 0 0 1-.133-.582 1 1 0 0 1 .042-.204q.026-.079.053-.134a2 2 0 0 1 .106-.196 1 1 0 0 1 .068-.089l.105-.13.059-.072v-.36l-.058-.072-.173-.219a2 2 0 0 1-.107-.197 1 1 0 0 1-.053-.133 1 1 0 0 1-.042-.205 1 1 0 0 1 .133-.581l.183-.317a1.01 1.01 0 0 1 1.027-.495l.34.052.314-.18.126-.322a1.01 1.01 0 0 1 .94-.642zm-.184 4.5c.645 0 1.008-.363 1.008-1.009s-.363-1.009-1.008-1.009c-.646 0-1.009.363-1.009 1.009S10.104 4.5 10.75 4.5m-4.315-.765a.625.625 0 0 1-.597.652q-.509.021-1.027.092a.22.22 0 0 0-.16.122l-.542 1.057a.63.63 0 0 1-.508.338l-.918.075-.131.01c-.564.047-1.005.465-1.083.968-.118.762-.219 1.509-.219 2.262s.101 1.5.219 2.262c.078.504.52.921 1.083.968l.028.002c1.263.105 2.497.207 3.73.207s2.468-.102 3.731-.207l.029-.002c.563-.047 1.005-.464 1.082-.968.118-.761.22-1.509.22-2.262q0-.324-.024-.65a.625.625 0 0 1 1.247-.085q.026.362.026.735c0 .857-.115 1.686-.233 2.453-.17 1.103-1.106 1.93-2.215 2.023l-.052.004c-1.247.103-2.525.21-3.81.21s-2.564-.107-3.81-.21l-.052-.004c-1.11-.092-2.045-.92-2.215-2.023C.115 10.997 0 10.168 0 9.311s.115-1.686.234-2.453c.17-1.103 1.105-1.93 2.214-2.022l.131-.011.577-.047.382-.747a1.47 1.47 0 0 1 1.104-.79 13 13 0 0 1 1.141-.103.625.625 0 0 1 .652.597m-.124 3.18c-.676 0-1.24.191-1.633.585-.394.394-.585.958-.585 1.634s.19 1.239.585 1.633.957.585 1.633.585 1.239-.191 1.633-.585.585-.958.585-1.633c0-.676-.19-1.24-.585-1.634s-.957-.585-1.633-.585" clip-rule="evenodd"/></svg>
