<svg xmlns="http://www.w3.org/2000/svg" fill="none" viewBox="0 0 14 14"><path fill="currentColor" fill-rule="evenodd" d="M7 0c-.627 0-1.09.388-1.4.772-.315.394-.556.89-.737 1.345a10 10 0 0 0-.202.56 1.15 1.15 0 0 0-.527-.302.99.99 0 0 0-1 .303q-.3.337-.502.756a3.7 3.7 0 0 0-.36 1.681v.008c.044 1.29.683 2.266 1.59 2.9.89.624 2.03.917 3.138.917s2.248-.293 3.138-.916c.906-.635 1.545-1.611 1.59-2.9v-.009a3.7 3.7 0 0 0-.36-1.681 3.3 3.3 0 0 0-.502-.756.99.99 0 0 0-1-.303 1.15 1.15 0 0 0-.527.303c-.06-.18-.127-.37-.203-.561-.18-.455-.422-.951-.737-1.345C8.09.388 7.626 0 6.999 0M5.118 4.667a.63.63 0 0 0 .43-.478l.001-.006.005-.025.022-.1a10.5 10.5 0 0 1 .449-1.48c.161-.406.348-.771.55-1.024.21-.261.354-.304.425-.304.07 0 .214.043.423.304.203.253.39.618.552 1.024a10 10 0 0 1 .47 1.58l.005.025.001.006a.626.626 0 0 0 1.054.324q.346-.344.609-.765.07.109.128.23c.16.33.244.714.236 1.106-.03.851-.436 1.48-1.057 1.916-.64.448-1.515.69-2.421.69-.907 0-1.782-.242-2.421-.69-.622-.435-1.027-1.065-1.057-1.916a2.44 2.44 0 0 1 .235-1.106q.06-.122.129-.23.262.422.608.765a.63.63 0 0 0 .624.154M1.005 9.61a.875.875 0 0 1 .972-.766C3.743 9.05 5.403 9.418 7 9.928a26.7 26.7 0 0 1 5.023-1.085.875.875 0 1 1 .205 1.738q-1.25.147-2.434.407 1.392.614 2.755 1.371a.875.875 0 1 1-.847 1.531c-1.547-.856-3.096-1.567-4.702-2.119-1.606.552-3.155 1.263-4.702 2.119a.875.875 0 1 1-.847-1.531 34 34 0 0 1 2.755-1.371q-1.184-.26-2.435-.407a.875.875 0 0 1-.766-.972" clip-rule="evenodd"/></svg>
