<svg xmlns="http://www.w3.org/2000/svg" fill="none" viewBox="0 0 14 14"><path fill="currentColor" fill-rule="evenodd" d="M4.66 4.053q.278-.494.713-.791c.464-.32 1.101-.512 1.936-.512 1.017 0 1.741.283 2.222.744.481.462.797 1.178.846 2.198a.625.625 0 0 0 .613.595c.636.012 1.051.204 1.311.483.265.283.449.741.449 1.437 0 .745-.224 1.271-.557 1.661-.342.402-.833.7-1.42.913-1.187.433-2.603.469-3.464.469-.855 0-2.43-.043-3.773-.532-.667-.243-1.237-.581-1.637-1.042-.39-.448-.649-1.046-.649-1.882 0-.933.251-1.572.639-1.976.374-.39.954-.64 1.795-.654l.039.001c.436 0 .866.151 1.227.386.367.239.614.533.717.762a.625.625 0 0 0 1.14-.513c-.223-.495-.656-.959-1.175-1.297a3.7 3.7 0 0 0-.973-.45M7.31 1.5c-1.024 0-1.926.236-2.647.733A3.65 3.65 0 0 0 3.338 3.93c-.945.073-1.756.404-2.35 1.022C.312 5.655 0 6.644 0 7.794c0 1.125.36 2.018.956 2.702.584.672 1.362 1.109 2.152 1.396 1.568.571 3.336.608 4.201.608.861 0 2.477-.028 3.893-.544.714-.26 1.417-.66 1.943-1.277.536-.63.855-1.448.855-2.472 0-.909-.243-1.71-.785-2.29-.427-.457-.991-.727-1.64-.83-.137-1.01-.523-1.866-1.178-2.495C9.625 1.852 8.558 1.5 7.309 1.5" clip-rule="evenodd"/></svg>
