<svg xmlns="http://www.w3.org/2000/svg" fill="none" viewBox="0 0 14 14"><path fill="currentColor" fill-rule="evenodd" d="M5.694.28C5.96.097 6.277 0 6.599 0h.803a1.61 1.61 0 0 1 1.496 1.018l.352.889 1.053.606.948-.144a1.615 1.615 0 0 1 1.634.785l.4.69a1.6 1.6 0 0 1-.136 1.806l-.599.748v1.204l.6.748a1.6 1.6 0 0 1 .135 1.806l-.4.69a1.61 1.61 0 0 1-1.634.784l-.948-.144-1.053.607-.352.888A1.605 1.605 0 0 1 7.402 14H6.6a1.61 1.61 0 0 1-1.496-1.019l-.353-.888-1.052-.607-.948.144a1.62 1.62 0 0 1-1.634-.784l-.4-.69A1.6 1.6 0 0 1 .851 8.35l.6-.748-.001-1.204-.599-.748a1.6 1.6 0 0 1-.136-1.806l.4-.69A1.61 1.61 0 0 1 2.75 2.37l.949.144 1.052-.606.353-.889c.118-.3.323-.557.59-.739m.906.97a.36.36 0 0 0-.333.226l-.001.002-.403 1.017v.001a.86.86 0 0 1-.364.422l-.004.002-1.296.748a.86.86 0 0 1-.544.103h-.007l-1.084-.166a.36.36 0 0 0-.366.175l-.4.691a.35.35 0 0 0 .03.397l.688.86a.85.85 0 0 1 .185.531v1.483c0 .193-.065.38-.185.531l-.688.86a.35.35 0 0 0-.03.397l.4.69a.36.36 0 0 0 .366.175l1.084-.164.007-.001a.86.86 0 0 1 .544.103l1.296.747.004.003a.86.86 0 0 1 .363.422v.001l.404 1.016.001.003a.355.355 0 0 0 .333.226h.802a.36.36 0 0 0 .333-.226v-.002l.404-1.017v-.001a.86.86 0 0 1 .363-.422l.004-.003 1.297-.747a.86.86 0 0 1 .544-.103h.007l1.084.166a.36.36 0 0 0 .365-.175l.401-.691a.35.35 0 0 0-.03-.398l-.688-.859a.85.85 0 0 1-.185-.531V6.261c0-.194.065-.381.185-.532l.688-.86a.35.35 0 0 0 .03-.397l-.4-.69a.36.36 0 0 0-.366-.176l-1.084.165-.007.001a.86.86 0 0 1-.544-.103L8.507 2.92l-.004-.002a.86.86 0 0 1-.363-.422v-.001l-.404-1.017-.001-.002a.355.355 0 0 0-.333-.226h-.401zM9.25 7c0 1.44-.81 2.25-2.25 2.25S4.75 8.44 4.75 7 5.56 4.75 7 4.75 9.25 5.56 9.25 7" clip-rule="evenodd"/></svg>
