<svg xmlns="http://www.w3.org/2000/svg" fill="none" viewBox="0 0 14 14"><path fill="currentColor" fill-rule="evenodd" d="M8.93.002a.625.625 0 0 1 .67.574c.05.626.26 1.502.737 2.728 1.443.554 2.4.746 3.036.745a.625.625 0 0 1 .002 1.25c-.658.001-1.472-.146-2.495-.476.29 1.001.383 1.856.296 2.606-.125 1.073-.61 1.864-1.262 2.513-.761.756-1.704 1.271-3.034 1.284a.625.625 0 1 1-.012-1.25c.643-.006 1.144-.166 1.577-.442l-4.37-4.345a2.7 2.7 0 0 0-.425 1.193c-.089.76.065 1.79.658 3.263.655 1.63.939 2.827.937 3.731a.625.625 0 1 1-1.25-.002c.001-.63-.19-1.58-.748-3.012-1.19-.457-2.053-.67-2.68-.728A.625.625 0 0 1 .682 8.39c.563.052 1.229.198 2.023.454-.292-1.002-.384-1.857-.297-2.607.125-1.073.61-1.864 1.263-2.512.799-.795 1.794-1.318 3.218-1.283a.625.625 0 1 1-.03 1.25c-.715-.018-1.258.146-1.72.44l4.37 4.345c.225-.345.372-.73.425-1.192.089-.76-.065-1.79-.658-3.264-.569-1.414-.855-2.5-.922-3.347A.625.625 0 0 1 8.93.002" clip-rule="evenodd"/></svg>
