<svg xmlns="http://www.w3.org/2000/svg" fill="none" viewBox="0 0 14 14"><path fill="currentColor" fill-rule="evenodd" d="M7 .5a3.22 3.22 0 0 0-3.174 2.627 3.3 3.3 0 0 0-.6-.056C1.45 3.071 0 4.496 0 6.267a3.19 3.19 0 0 0 1.607 2.766c-.17.39-.265.82-.265 1.27 0 1.773 1.45 3.197 3.225 3.197.97 0 1.841-.424 2.433-1.097A3.23 3.23 0 0 0 9.433 13.5c1.774 0 3.225-1.424 3.225-3.196 0-.452-.095-.882-.265-1.271A3.19 3.19 0 0 0 14 6.267c0-1.771-1.45-3.196-3.225-3.196q-.308.001-.6.056A3.22 3.22 0 0 0 7 .5M5.025 3.696c0-1.068.877-1.946 1.975-1.946s1.975.878 1.975 1.946q0 .11-.012.215a.625.625 0 0 0 .905.626c.271-.137.578-.216.907-.216 1.097 0 1.975.878 1.975 1.946a1.95 1.95 0 0 1-1.426 1.87.625.625 0 0 0-.322.985c.255.328.406.737.406 1.182 0 1.068-.878 1.946-1.975 1.946a1.975 1.975 0 0 1-1.85-1.26.625.625 0 0 0-1.167 0 1.98 1.98 0 0 1-1.849 1.26c-1.097 0-1.975-.878-1.975-1.946 0-.445.15-.854.406-1.182a.625.625 0 0 0-.322-.985 1.95 1.95 0 0 1-1.426-1.87c0-1.068.878-1.946 1.975-1.946.328 0 .636.079.907.216a.625.625 0 0 0 .905-.625 2 2 0 0 1-.012-.216m.533 2.108c.37-.368.88-.528 1.442-.528.563 0 1.073.16 1.442.528.37.369.53.879.53 1.44 0 .563-.16 1.073-.53 1.442-.37.368-.88.528-1.442.528-.563 0-1.073-.16-1.442-.528-.37-.37-.53-.879-.53-1.441s.16-1.072.53-1.44" clip-rule="evenodd"/></svg>
