<svg xmlns="http://www.w3.org/2000/svg" fill="none" viewBox="0 0 14 14"><path fill="currentColor" fill-rule="evenodd" d="M10.97 1.25H7.643l-.011.018-1.039 1.58 1.367 1.17a.75.75 0 0 1 .16.948l-.935 1.6a.75.75 0 0 1-1.295-.757l.618-1.058-1.392-1.192a.75.75 0 0 1-.14-.982L5.85 1.25H3.018c-.305-.002-.541.22-.569.45a44 44 0 0 0-.199 3.436c0 1.289.512 2.233 1.328 2.87.833.651 2.03 1.015 3.422 1.015s2.59-.364 3.423-1.015c.815-.637 1.327-1.581 1.327-2.87 0-.486-.07-2.208-.2-3.438-.028-.23-.264-.45-.569-.448zM10.972 0h.002c.852-.005 1.707.606 1.819 1.556v.007c.134 1.274.207 3.043.207 3.573 0 1.665-.682 2.976-1.808 3.855-.961.751-2.212 1.163-3.567 1.258v2.133c.392.041.79.111 1.118.178a18 18 0 0 1 .844.192l.053.014.015.004h.004v.001s.002 0-.158.593l.159-.593a.625.625 0 0 1-.323 1.208l-.003-.001-.011-.003-.046-.012-.177-.044a17 17 0 0 0-.604-.134c-.487-.098-1.05-.187-1.475-.19h-.042c-.426.003-.99.092-1.476.19a17 17 0 0 0-.781.178l-.046.012-.011.003h-.003a.625.625 0 0 1-.324-1.207l.162.604-.162-.604h.002l.004-.001.015-.004.053-.014.193-.048c.163-.04.39-.092.65-.144.33-.067.728-.137 1.12-.179V10.25c-1.355-.095-2.606-.507-3.567-1.258C1.683 8.111 1 6.801 1 5.136c0-.528.073-2.355.207-3.576v-.004C1.312.66 2.08.066 2.88.006L2.96 0h8.005z" clip-rule="evenodd"/></svg>
