<svg xmlns="http://www.w3.org/2000/svg" fill="none" viewBox="0 0 14 14"><path fill="currentColor" fill-rule="evenodd" d="M11.97 8.502c-1.328.892-3.153 1.32-5.044 1.08l-.03-.005c-.705-.017-1.337-.23-1.8-.69-.482-.48-.693-1.147-.693-1.888 0-.455.08-.882.253-1.255a5.5 5.5 0 0 0-1.928.79c-1.048.705-1.59 1.694-1.458 2.77.097.79.458 1.329.977 1.705.536.389 1.272.622 2.12.706 1.71.168 3.653-.29 4.75-.941a.625.625 0 1 1 .637 1.075c-1.343.797-3.556 1.302-5.51 1.11-.984-.098-1.957-.377-2.731-.938C.72 11.446.17 10.599.029 9.457c-.204-1.66.67-3.065 2.002-3.96 1.327-.892 3.152-1.32 5.043-1.079l.022.003c.7.02 1.327.232 1.786.69.483.48.694 1.147.694 1.888 0 .458-.08.887-.256 1.262a5.5 5.5 0 0 0 1.952-.796c1.048-.704 1.59-1.693 1.458-2.77-.097-.789-.458-1.328-.977-1.704-.536-.389-1.272-.622-2.12-.706-1.71-.169-3.653.29-4.75.941a.625.625 0 0 1-.637-1.075c1.343-.797 3.556-1.303 5.51-1.11.984.097 1.957.377 2.731.938.792.574 1.343 1.422 1.484 2.563.204 1.66-.67 3.065-2.001 3.96" clip-rule="evenodd"/></svg>
