<svg xmlns="http://www.w3.org/2000/svg" fill="none" viewBox="0 0 14 14"><path fill="currentColor" fill-rule="evenodd" d="M2.465 1.845a27 27 0 0 1 4.529 0c.611.05 1.093.555 1.123 1.19.099 2.15.118 4.25.057 6.38a.6.6 0 0 0-.014.132v.238l.001.06q-.032.954-.085 1.921a.33.33 0 0 1-.293.314 27.5 27.5 0 0 1-6.107 0 .33.33 0 0 1-.293-.314 86 86 0 0 1-.04-8.732 1.236 1.236 0 0 1 1.122-1.189m6.87 9.792-.01.198a1.58 1.58 0 0 1-1.409 1.488 28.8 28.8 0 0 1-6.374 0 1.58 1.58 0 0 1-1.408-1.488 87 87 0 0 1-.04-8.858C.15 1.737 1.101.703 2.362.599a28 28 0 0 1 4.733 0c1.26.104 2.212 1.139 2.27 2.378a87 87 0 0 1 .046 6.862c.027.432.373.764.902.764.323 0 .533-.132.708-.42.199-.325.333-.831.398-1.487.12-1.191-.007-2.621-.107-3.745v-.003l-.027-.309c-.074-.847.333-1.621.992-2.106L13.005 2a.625.625 0 0 1 .74 1.006l-.727.535c-.349.257-.519.627-.487.991l.028.317.02.235h.796a.625.625 0 1 1 0 1.25h-.7c.05.815.068 1.693-.01 2.487-.073.722-.231 1.45-.576 2.015-.369.604-.955 1.018-1.775 1.018-.346 0-.681-.076-.979-.216m-6.34-3.742a.75.75 0 0 1 .75.75v.886a.75.75 0 0 1-1.5 0v-.886a.75.75 0 0 1 .75-.75m3.937-5.302a26 26 0 0 0-4.406 0 .49.49 0 0 0-.435.476 86 86 0 0 0-.087 3.139.496.496 0 0 0 .483.5q1.11.031 2.242.032 1.133-.001 2.243-.032a.496.496 0 0 0 .483-.5 85 85 0 0 0-.088-3.14.49.49 0 0 0-.435-.475" clip-rule="evenodd"/></svg>
