<svg xmlns="http://www.w3.org/2000/svg" fill="none" viewBox="0 0 14 14"><path fill="currentColor" fill-rule="evenodd" d="M5.795 2.58c0-.47.13-.749.292-.91.162-.163.44-.293.911-.293.47 0 .75.13.911.292s.292.44.292.91-.13.748-.292.91-.44.292-.911.292c-.47 0-.75-.13-.911-.292s-.292-.44-.292-.91M6.998.126c-.7 0-1.335.199-1.795.658-.46.46-.658 1.094-.658 1.794s.198 1.335.658 1.794 1.095.658 1.795.658 1.335-.198 1.795-.658c.46-.459.658-1.094.658-1.794S9.253 1.244 8.793.785 7.698.127 6.998.127M7 6.783c-.514-.465-1.153-.936-1.842-1.198-.435-.165-.91-.254-1.396-.19-.493.066-.964.286-1.388.688-.724.687-.903 1.556-.746 2.417.153.837.621 1.677 1.2 2.417a10.4 10.4 0 0 0 2.02 1.946c.702.51 1.446.9 2.07 1.003a.5.5 0 0 0 .164 0c.625-.103 1.369-.494 2.07-1.003.714-.519 1.437-1.2 2.02-1.946.58-.74 1.047-1.58 1.2-2.417.158-.861-.021-1.73-.746-2.417-.423-.402-.895-.622-1.388-.688-.486-.064-.96.025-1.395.19-.69.262-1.328.733-1.843 1.198" clip-rule="evenodd"/></svg>
