<svg xmlns="http://www.w3.org/2000/svg" fill="none" viewBox="0 0 14 14"><path fill="currentColor" fill-rule="evenodd" d="M9.529 1.634c-.222.222-.383.589-.383 1.172s.161.95.383 1.172c.221.222.587.384 1.169.384.581 0 .947-.162 1.169-.384.221-.222.383-.589.383-1.172s-.162-.95-.383-1.172c-.222-.222-.588-.384-1.17-.384-.58 0-.947.162-1.168.384M8.644.75C9.164.23 9.886 0 10.698 0s1.535.23 2.053.75c.52.52.75 1.243.75 2.056s-.23 1.536-.75 2.055c-.518.52-1.241.75-2.053.75s-1.535-.23-2.054-.75a2.4 2.4 0 0 1-.498-.736l-.01.002c-.762.224-1.157.34-1.527.491-.304.124-.596.274-1.063.542.385.496.559 1.134.559 1.84 0 .71-.176 1.352-.566 1.85.458.26.754.411 1.062.537.378.154.783.274 1.542.497.12-.278.286-.53.501-.745.52-.52 1.242-.75 2.054-.75s1.535.23 2.053.75c.52.52.75 1.242.75 2.055s-.23 1.536-.75 2.056c-.518.52-1.241.75-2.053.75s-1.535-.23-2.054-.75-.748-1.243-.748-2.056v-.08l-.074-.022c-.763-.223-1.243-.364-1.693-.548-.5-.204-.955-.456-1.723-.907-.339.115-.71.17-1.104.17-.812 0-1.534-.232-2.053-.751C.73 8.536.5 7.813.5 7s.23-1.536.749-2.055 1.241-.75 2.053-.75c.4 0 .778.055 1.12.174l.043-.027c.747-.438 1.188-.684 1.672-.881.432-.176.892-.311 1.62-.525l.14-.04-.001-.09c0-.813.23-1.536.748-2.056m.502 10.444c0-.583.161-.95.383-1.172.221-.222.587-.384 1.169-.384.581 0 .947.162 1.169.384.221.222.383.589.383 1.172s-.162.95-.383 1.172c-.222.222-.588.384-1.17.384-.58 0-.947-.162-1.168-.384-.222-.222-.383-.589-.383-1.172" clip-rule="evenodd"/></svg>
