<svg xmlns="http://www.w3.org/2000/svg" fill="none" viewBox="0 0 14 14"><path fill="currentColor" fill-rule="evenodd" d="M13.998 5.292c.014-.318-.082-.63-.219-.91a4.3 4.3 0 0 0-.585-.864c-.471-.554-1.1-1.093-1.724-1.524-.617-.427-1.273-.778-1.804-.922-.252-.068-.564-.115-.845-.016a.8.8 0 0 0-.406.317.9.9 0 0 0-.134.487v1.16c-.69 0-1.38.013-2.088.04-.725.028-1.371.566-1.433 1.33v.006c-.148.01-.289.04-.41.072-.542.146-1.199.5-1.81.92-.619.426-1.245.96-1.716 1.513a4.3 4.3 0 0 0-.593.873c-.14.283-.243.609-.23.949-.016.339.088.662.227.94.147.296.357.586.592.857.471.542 1.098 1.069 1.717 1.49.612.416 1.27.765 1.81.912.254.069.59.125.902.02a.9.9 0 0 0 .471-.357 1 1 0 0 0 .158-.553v-.997c.634 0 1.269-.014 1.919-.039.77-.03 1.467-.6 1.534-1.425l.004-.05q.177-.023.334-.066c.53-.145 1.187-.493 1.805-.915.624-.426 1.253-.957 1.724-1.5.235-.273.44-.56.585-.85.136-.273.233-.582.215-.898m-9.37.692v-.296c-.343.104-.843.36-1.379.73-.552.38-1.09.843-1.474 1.294a3 3 0 0 0-.422.613c-.09.184-.106.299-.102.355a1 1 0 0 1 0 .1c-.004.043.006.147.095.325.086.173.226.375.418.596.384.441.922.899 1.476 1.275.538.366 1.041.622 1.388.726v-1.295a.625.625 0 0 1 .632-.625 48 48 0 0 0 2.489-.035c.207-.008.326-.151.337-.278a9.3 9.3 0 0 0 0-1.536c-.01-.127-.13-.27-.337-.278q-.755-.03-1.49-.036a1.64 1.64 0 0 1-1.63-1.635" clip-rule="evenodd"/></svg>
