<svg xmlns="http://www.w3.org/2000/svg" fill="none" viewBox="0 0 14 14"><path fill="currentColor" fill-rule="evenodd" d="M5.409.519C6.342.16 7.637.161 8.57.517c.777.296 1.595.614 2.357.98.764.366 1.43.762 2.05 1.136.408.247.773.647.772 1.189 0 .54-.367.94-.777 1.186-.62.372-1.286.762-2.045 1.127-.757.363-1.565.68-2.336.977-.933.359-2.229.358-3.163.002-.777-.296-1.595-.614-2.356-.98a24 24 0 0 1-2.05-1.136C.614 4.75.248 4.35.25 3.81c.001-.542.368-.941.777-1.187.62-.372 1.286-.762 2.046-1.127.756-.363 1.564-.68 2.336-.977m-4.06 8.813a.625.625 0 0 1 .169.846.7.7 0 0 0 .151.119c.616.372 1.238.74 1.945 1.08.709.34 1.482.641 2.26.938.648.247 1.626.247 2.27 0 .77-.297 1.536-.6 2.243-.938a24 24 0 0 0 1.943-1.072.7.7 0 0 0 .152-.118.625.625 0 0 1 1.03-.71c.223.31.308.698.176 1.084-.123.36-.401.628-.715.816-.62.372-1.286.762-2.045 1.127-.757.363-1.565.68-2.336.977-.933.358-2.229.358-3.163.002-.777-.296-1.595-.614-2.356-.98a24 24 0 0 1-2.05-1.137c-.31-.187-.585-.452-.708-.806a1.17 1.17 0 0 1 .164-1.077.625.625 0 0 1 .87-.151m0-3.065a.625.625 0 0 1 .169.847.6.6 0 0 0 .151.118c.616.373 1.238.74 1.945 1.08.709.34 1.482.641 2.26.938.648.247 1.626.247 2.27 0 .77-.297 1.536-.599 2.243-.938A24 24 0 0 0 12.33 7.24a.7.7 0 0 0 .152-.118.625.625 0 0 1 1.03-.71c.223.31.308.698.176 1.085-.123.36-.401.627-.715.815-.62.372-1.286.762-2.045 1.127-.757.363-1.565.68-2.336.977-.933.359-2.229.358-3.163.002-.777-.296-1.595-.613-2.356-.98a24 24 0 0 1-2.05-1.136c-.31-.187-.585-.452-.708-.807A1.17 1.17 0 0 1 .479 6.42a.625.625 0 0 1 .87-.152" clip-rule="evenodd"/></svg>
