<svg xmlns="http://www.w3.org/2000/svg" fill="none" viewBox="0 0 14 14"><path fill="currentColor" fill-rule="evenodd" d="M12.707 1.293C11.553.139 10.294-.198 8.99.106 7.754.394 6.545 1.242 5.376 2.272a.625.625 0 0 0 .826.938c1.139-1.004 2.153-1.673 3.071-1.887.85-.198 1.676-.02 2.55.854.868.867 1.048 1.686.859 2.526-.204.908-.856 1.91-1.841 3.037a.625.625 0 1 0 .941.823c1.013-1.159 1.843-2.359 2.12-3.585.29-1.294-.051-2.541-1.195-3.685M9.529 4.472a1 1 0 0 1 0 1.414L5.886 9.529a1 1 0 1 1-1.414-1.414l3.643-3.643a1 1 0 0 1 1.414 0m-6.43.906c.26.227.287.622.06.882-.985 1.126-1.637 2.13-1.841 3.037-.19.84-.009 1.659.859 2.526.874.875 1.7 1.052 2.55.854.918-.214 1.932-.883 3.07-1.887a.625.625 0 1 1 .827.938c-1.169 1.03-2.378 1.878-3.614 2.166-1.304.304-2.563-.033-3.717-1.187C.149 11.563-.193 10.317.098 9.022c.276-1.226 1.107-2.426 2.12-3.585a.625.625 0 0 1 .882-.059" clip-rule="evenodd"/></svg>
