<svg xmlns="http://www.w3.org/2000/svg" fill="none" viewBox="0 0 14 14"><path fill="currentColor" fill-rule="evenodd" d="M5.252 0C4.068 0 3.111.035 2.121.103A2.16 2.16 0 0 0 .11 2.123a57 57 0 0 0 0 7.122 2.16 2.16 0 0 0 2.01 2.02c.404.028.801.05 1.21.067l.026.428a2.286 2.286 0 0 0 2.127 2.137c.993.069 1.953.104 3.14.104s2.147-.035 3.14-.104a2.286 2.286 0 0 0 2.127-2.137 57 57 0 0 0 .103-4.516 3.74 3.74 0 0 0-.77-2.238 11.2 11.2 0 0 0-2.164-2.148 2.25 2.25 0 0 0-1.325-.464l-.126-.002A11 11 0 0 0 7.61.449 2.12 2.12 0 0 0 6.36.011 51 51 0 0 0 5.252 0m.317 3.733a43 43 0 0 1 3.054-.101c.383 0 .741.003 1.083.01a1 1 0 0 1 .59.205 10 10 0 0 1 1.94 1.925c.323.417.498.942.507 1.491a57 57 0 0 1-.1 4.418 1.036 1.036 0 0 1-.966.968 43 43 0 0 1-3.054.101c-1.158 0-2.09-.034-3.054-.1a1.036 1.036 0 0 1-.965-.97 56 56 0 0 1-.108-3.489c0-1.197.037-2.364.108-3.49.032-.518.444-.932.965-.968M9.373 6.21a.75.75 0 0 0-1.5 0v1.231h-1.23a.75.75 0 0 0 0 1.5h1.23v1.23a.75.75 0 0 0 1.5 0v-1.23h1.231a.75.75 0 0 0 0-1.5h-1.23z" clip-rule="evenodd"/></svg>
