<svg xmlns="http://www.w3.org/2000/svg" fill="none" viewBox="0 0 14 14"><path fill="currentColor" fill-rule="evenodd" d="M1.963.382a.994.994 0 0 1 1.567 0c.24.306.42.664.519 1.062.398.1.756.279 1.062.52.51.4.51 1.165 0 1.566a2.8 2.8 0 0 1-1.062.519A2.8 2.8 0 0 1 3.53 5.11a.994.994 0 0 1-1.567 0 2.8 2.8 0 0 1-.519-1.062A2.8 2.8 0 0 1 .382 3.53a.994.994 0 0 1 0-1.567c.306-.24.664-.419 1.062-.519.1-.398.279-.756.52-1.062M9.79 2.728a.198.198 0 0 0-.318 0 3.3 3.3 0 0 0-.677 1.658.625.625 0 0 1-.545.545 3.3 3.3 0 0 0-1.658.677.198.198 0 0 0 0 .318 3.3 3.3 0 0 0 1.658.676c.286.035.511.26.545.546a3.3 3.3 0 0 0 .677 1.658.198.198 0 0 0 .318 0 3.3 3.3 0 0 0 .676-1.658.625.625 0 0 1 .546-.546 3.3 3.3 0 0 0 1.658-.676.198.198 0 0 0 0-.318 3.3 3.3 0 0 0-1.658-.677.625.625 0 0 1-.546-.546 3.3 3.3 0 0 0-.676-1.657m.983-.772c.407.517.703 1.13.855 1.814a4.5 4.5 0 0 1 1.814.855c.744.584.744 1.7 0 2.284a4.5 4.5 0 0 1-1.814.855 4.5 4.5 0 0 1-.855 1.814c-.585.744-1.7.744-2.284 0a4.5 4.5 0 0 1-.855-1.814 4.5 4.5 0 0 1-1.814-.855 1.448 1.448 0 0 1 0-2.284 4.5 4.5 0 0 1 1.814-.855 4.5 4.5 0 0 1 .855-1.814 1.448 1.448 0 0 1 2.284 0M3.65 7.916l-.02.017a2.56 2.56 0 0 0-.525 1.29.625.625 0 0 1-.546.545 2.56 2.56 0 0 0-1.29.526l-.016.019a.04.04 0 0 0 0 .036l.016.02c.352.276.786.465 1.29.525.286.035.511.26.546.546.06.504.25.938.526 1.29q.011.014.019.016a.04.04 0 0 0 .036 0l.02-.016c.276-.352.464-.786.525-1.29a.625.625 0 0 1 .546-.546c.504-.06.938-.25 1.29-.525l.016-.02a.04.04 0 0 0 0-.036l-.017-.02a2.56 2.56 0 0 0-1.29-.525.625.625 0 0 1-.545-.546 2.56 2.56 0 0 0-.526-1.29l-.019-.016a.04.04 0 0 0-.036 0M2.649 7.16a1.294 1.294 0 0 1 2.04 0c.327.417.57.906.7 1.45a3.8 3.8 0 0 1 1.45.701 1.294 1.294 0 0 1 0 2.04 3.8 3.8 0 0 1-1.45.701 3.8 3.8 0 0 1-.7 1.45 1.294 1.294 0 0 1-2.04 0 3.8 3.8 0 0 1-.701-1.45 3.8 3.8 0 0 1-1.45-.7 1.294 1.294 0 0 1 0-2.041c.417-.327.905-.57 1.45-.7a3.8 3.8 0 0 1 .7-1.45" clip-rule="evenodd"/></svg>
