<svg xmlns="http://www.w3.org/2000/svg" fill="none" viewBox="0 0 14 14"><path fill="currentColor" fill-rule="evenodd" d="M11.79 1.5c-.315 0-.616.038-.999.12a.75.75 0 0 1-.315-1.466c.848-.182 1.443-.195 2.279-.079a1.04 1.04 0 0 1 .728 1.6 15 15 0 0 1-1.398 1.861c.288-.02.604-.072 1.006-.16a.75.75 0 0 1 .318 1.467c-.968.21-1.642.268-2.519.118-.897-.153-1.1-1.214-.549-1.765A12.5 12.5 0 0 0 11.79 1.5M5.774.98c-1.326 0-2.451.372-3.245 1.158-.794.787-1.17 1.905-1.17 3.223 0 .514-.077.8-.156.972-.075.164-.172.269-.318.402l-.06.053a2.7 2.7 0 0 0-.517.57C.104 7.682 0 8.075 0 8.589c0 .711.4 1.227.889 1.572.475.337 1.086.554 1.681.701 1.199.296 2.544.353 3.204.353s2.005-.057 3.204-.353c.595-.147 1.206-.364 1.681-.7.488-.346.89-.862.89-1.573 0-.43-.074-.78-.223-1.079a2.1 2.1 0 0 0-.505-.634.625.625 0 1 0-.84.925.9.9 0 0 1 .227.268c.042.085.09.233.09.52 0 .177-.083.355-.36.552-.29.205-.728.377-1.26.508-1.056.26-2.286.316-2.904.316S3.926 9.91 2.87 9.65c-.532-.131-.969-.303-1.26-.508-.277-.197-.36-.375-.36-.552 0-.336.065-.485.117-.567.058-.092.124-.152.266-.28q.041-.035.09-.081a2.4 2.4 0 0 0 .616-.806c.176-.383.27-.86.27-1.494 0-1.085.305-1.845.8-2.335s1.266-.795 2.365-.795a.625.625 0 1 0 0-1.25m1.575 2.996q.092-.02.177-.035a9 9 0 0 1-.711.783c-.498.497-.317 1.458.496 1.6.665.117 1.173.073 1.882-.08a.75.75 0 0 0-.32-1.467q-.06.014-.116.025c.211-.269.414-.557.636-.899a.944.944 0 0 0-.66-1.45 4.4 4.4 0 0 0-1.7.056.75.75 0 1 0 .316 1.467M4.25 11.863a.625.625 0 0 0-.582.853c.343.873 1.143 1.285 2.098 1.285s1.754-.412 2.097-1.285a.625.625 0 0 0-.582-.853z" clip-rule="evenodd"/></svg>
