<svg xmlns="http://www.w3.org/2000/svg" fill="none" viewBox="0 0 14 14"><path fill="currentColor" fill-rule="evenodd" d="M13.102.898C11.939-.265 10.015-.338 8.852.91a30 30 0 0 0-3.805 5.06 3.6 3.6 0 0 0-.849-.154c-.988-.058-2.009.298-2.883 1.172C.262 8.042.405 9.383.508 10.367l.002.018c.117 1.11.166 1.77-.327 2.263a.625.625 0 0 0 .272 1.043c2.06.584 4.544.435 6.27-1.291.875-.875 1.231-1.895 1.173-2.884a4 4 0 0 0-.042-.372 40 40 0 0 0 5.185-3.936c1.289-1.157 1.249-3.123.06-4.31M7.432 7.93a39 39 0 0 0 4.774-3.652c.716-.643.73-1.778.012-2.496-.706-.707-1.812-.705-2.45-.02a28.7 28.7 0 0 0-3.595 4.762 4.2 4.2 0 0 1 1.26 1.406" clip-rule="evenodd"/></svg>
