<svg xmlns="http://www.w3.org/2000/svg" fill="none" viewBox="0 0 14 14"><path fill="currentColor" fill-rule="evenodd" d="M5.518.292a26 26 0 0 0-3.475.035c-.807.06-1.398.717-1.481 1.48-.335 3.065-.45 6.161-.096 9.266a2.764 2.764 0 0 0 2.437 2.444 36 36 0 0 0 6.79.131m.349-1.282c-.355-.79-.82-1.698-1.38-2.543-.49-.742-1.081-1.479-1.768-2.04-.686-.561-1.545-1.009-2.542-1.009s-1.856.448-2.541 1.008q-.153.125-.3.261c-.05-2.028.07-4.062.294-6.1.025-.23.189-.358.33-.369 1.109-.082 1.936-.1 3.324-.034.136.007.26.097.308.233l.212.603a1.6 1.6 0 0 0 1.476 1.07l.586.012c1.283.027 2.111.044 3.25.144a1.246 1.246 0 0 1 1.134 1.172c.137 2.375.082 4.292-.13 6.157-.082.722-.63 1.263-1.268 1.336q-.493.056-.985.099m-.347 1.282q.736-.054 1.474-.14c1.254-.143 2.224-1.174 2.368-2.435.221-1.944.277-3.934.135-6.371A2.496 2.496 0 0 0 11.4 2.356c-1.182-.103-2.052-.121-3.333-.148l-.584-.013a.35.35 0 0 1-.325-.235l-.213-.603A1.6 1.6 0 0 0 5.518.292m2.73 4.651c.336-.335.796-.477 1.294-.477.499 0 .959.142 1.294.477s.477.795.477 1.294-.142.958-.477 1.293-.795.477-1.294.477c-.498 0-.958-.142-1.293-.477s-.477-.795-.477-1.293.142-.959.477-1.294" clip-rule="evenodd"/></svg>
