<svg xmlns="http://www.w3.org/2000/svg" fill="none" viewBox="0 0 14 14"><path fill="currentColor" fill-rule="evenodd" d="M1.413 1.651s.002 0 .31.543l-.254-.571.003-.002.009-.003.032-.014a20 20 0 0 1 .552-.233c.366-.15.872-.35 1.435-.55C4.592.432 6.008 0 7 0s2.408.432 3.5.82a33 33 0 0 1 1.987.784l.032.014.009.003.002.001-.252.572c.307-.544.308-.543.309-.543h.001l.003.003.007.003.013.009a1 1 0 0 1 .11.079q.089.07.201.199c.15.173.32.429.48.803.317.744.598 1.965.598 3.969 0 2.458-1.167 4.152-2.596 5.282-1.41 1.115-3.082 1.693-4.181 1.982a.6.6 0 0 1-.317 0c-1.097-.288-2.8-.865-4.24-1.977C1.206 10.876 0 9.182 0 6.716c0-2.004.281-3.225.599-3.97.16-.373.33-.63.479-.802a1.7 1.7 0 0 1 .28-.258l.03-.02.014-.009.007-.003.003-.002zm10.865.543.253-.571.054.027zm-10.556 0-.307-.544.054-.027zm.302.567.024-.027.076-.033a32 32 0 0 1 1.795-.703C5.03 1.603 6.253 1.25 7 1.25s1.97.353 3.081.748a32 32 0 0 1 1.795.703l.076.033.024.027c.056.065.16.208.275.476.231.541.499 1.581.499 3.479 0 1.999-.926 3.356-2.121 4.302-1.154.912-2.549 1.43-3.565 1.71-1.022-.281-2.45-.8-3.634-1.715-1.23-.949-2.18-2.306-2.18-4.297 0-1.898.268-2.938.498-3.479a1.8 1.8 0 0 1 .276-.476m4.33 1.125c.226-.064.492-.137.771-.137s.545.073.771.137a.785.785 0 0 1 .57.715l.016.366v.001l.023.527.527.023.367.016a.785.785 0 0 1 .715.57c.064.226.137.492.137.771 0 .28-.073.545-.137.771a.78.78 0 0 1-.715.57l-.365.016h-.001l-.528.023-.023.527-.016.367a.78.78 0 0 1-.57.715c-.226.064-.492.137-.771.137-.28 0-.545-.073-.771-.137a.78.78 0 0 1-.57-.715l-.04-.894-.526-.023h-.001l-.366-.016a.78.78 0 0 1-.715-.57C4.072 7.42 4 7.154 4 6.875c0-.28.073-.545.137-.771a.78.78 0 0 1 .715-.57l.367-.016.527-.023.023-.526v-.002l.016-.366a.78.78 0 0 1 .57-.715" clip-rule="evenodd"/></svg>
