<svg xmlns="http://www.w3.org/2000/svg" fill="none" viewBox="0 0 14 14"><path fill="currentColor" fill-rule="evenodd" d="M5.709 2.587c0-.517.14-.831.32-1.015.178-.182.477-.322.971-.322s.794.14.971.322c.18.184.32.498.32 1.015s-.14.83-.32 1.014c-.177.182-.477.322-.97.322s-.794-.14-.972-.322c-.18-.184-.32-.498-.32-1.014M7 0c-.732 0-1.39.213-1.865.698-.472.483-.676 1.15-.676 1.889 0 .738.204 1.405.676 1.888l.02.02c-1.138.665-1.852 1.926-1.608 3.332.077.446.16.887.247 1.28.223 1.006.598 2.293.886 3.234C4.988 13.348 5.948 14 7 14s2.012-.652 2.32-1.659c.288-.941.663-2.228.885-3.233.087-.394.17-.835.248-1.281.243-1.406-.47-2.666-1.608-3.331l.02-.021c.472-.483.677-1.15.677-1.888 0-.74-.205-1.406-.676-1.889C8.392.213 7.733 0 7 0" clip-rule="evenodd"/></svg>
