<svg xmlns="http://www.w3.org/2000/svg" fill="none" viewBox="0 0 14 14"><path fill="currentColor" fill-rule="evenodd" d="M6.375 3.709a.625.625 0 0 0 1.25 0v-.083a85 85 0 0 1 3.778.115c.655.035 1.178.54 1.23 1.179a32.7 32.7 0 0 1 0 5.533 1.29 1.29 0 0 1-1.23 1.179 84 84 0 0 1-3.308.11 3.1 3.1 0 0 0-.812-1.66c-.559-.579-1.348-.912-2.27-.912-.905 0-1.684.321-2.241.882-.38.382-.643.861-.78 1.397a1.28 1.28 0 0 1-.625-.996 32.7 32.7 0 0 1 0-5.533 1.29 1.29 0 0 1 1.23-1.179 84 84 0 0 1 3.778-.115zm0-1.333c-1.268.01-2.54.048-3.843.117a2.54 2.54 0 0 0-2.41 2.325 34 34 0 0 0 0 5.737 2.54 2.54 0 0 0 2.41 2.325c3.035.16 5.901.16 8.936 0a2.54 2.54 0 0 0 2.41-2.325 34 34 0 0 0 0-5.737 2.54 2.54 0 0 0-2.41-2.325 85 85 0 0 0-3.843-.117v-.75a.625.625 0 0 0-1.25 0zm1.87 3.058c0-.346.28-.625.625-.625h2.298a.625.625 0 1 1 0 1.25H8.87a.625.625 0 0 1-.625-.625m.625 1.383a.625.625 0 1 0 0 1.25h2.298a.625.625 0 1 0 0-1.25zm-4.76-.172c0-.372.102-.574.213-.685.111-.11.316-.213.69-.213s.58.103.69.213c.112.11.214.313.214.685s-.102.574-.213.684-.316.214-.69.214-.58-.103-.691-.214c-.11-.11-.214-.312-.214-.684m.903-2.148c-.603 0-1.163.17-1.572.578s-.582.967-.582 1.57.173 1.162.582 1.57c.409.407.969.578 1.572.578s1.164-.17 1.573-.578.581-.967.581-1.57-.172-1.162-.581-1.57c-.409-.407-.969-.578-1.573-.578" clip-rule="evenodd"/></svg>
