<svg xmlns="http://www.w3.org/2000/svg" fill="none" viewBox="0 0 14 14"><path fill="currentColor" fill-rule="evenodd" d="M7.633.201a1.11 1.11 0 0 0-1.262-.01c-.718.485-1.367.903-1.983 1.168-.61.262-1.129.348-1.6.24-.555-.128-1.366.143-1.475.95C1.17 3.62 1 5.916 1 7.447c0 2.41 1.265 4.059 2.606 5.082a8.4 8.4 0 0 0 1.953 1.108C6.126 13.864 6.66 14 7 14s.874-.136 1.44-.363a8.4 8.4 0 0 0 1.954-1.108C11.735 11.506 13 9.857 13 7.447c0-1.531-.169-3.827-.313-4.898-.108-.806-.92-1.078-1.474-.95-.48.109-1.013.022-1.628-.24C8.966 1.098 8.32.682 7.633.202M4.882 2.507c.711-.306 1.423-.764 2.112-1.228.672.468 1.382.925 2.102 1.231.741.315 1.546.492 2.366.313.134 1.06.288 3.199.288 4.624 0 1.912-.986 3.227-2.114 4.088a7.2 7.2 0 0 1-1.66.941c-.523.21-.879.274-.976.274s-.453-.064-.976-.274a7.2 7.2 0 0 1-1.66-.941c-1.128-.86-2.114-2.176-2.114-4.088 0-1.425.154-3.563.288-4.623.817.179 1.61 0 2.344-.317M4.53 6.576a3.484 3.484 0 0 1 4.94 0 .747.747 0 0 0 1.059 0 .753.753 0 0 0 0-1.063 4.98 4.98 0 0 0-7.058 0 .753.753 0 0 0 0 1.063.747.747 0 0 0 1.059 0m3.385 1.658a1.29 1.29 0 0 0-1.83 0 .747.747 0 0 1-1.058 0 .753.753 0 0 1 0-1.063 2.783 2.783 0 0 1 3.946 0 .753.753 0 0 1 0 1.063.747.747 0 0 1-1.058 0M8 9.544c0 .64-.36 1-1 1s-1-.36-1-1 .36-1 1-1 1 .36 1 1" clip-rule="evenodd"/></svg>
