<svg xmlns="http://www.w3.org/2000/svg" fill="none" stroke-width="1.5" viewBox="0 0 24 24"><path stroke="currentColor" stroke-linecap="round" stroke-linejoin="round" stroke-miterlimit="10" d="M14.45 7.55h-4.9M8 .75 6.008 9l2.937 2.742L10.5.75m5.5 0 1.969 8.18-2.914 2.726L13.5.75M12 23.25a3 3 0 1 0 0-6 3 3 0 0 0 0 6"/><path stroke="currentColor" stroke-linecap="round" stroke-linejoin="round" stroke-miterlimit="10" d="M9.504 18.582 6.05 20.75c-.9.5-2 .2-2.4-.7-.4-.7-.1-1.7.6-2.1l4.7-2.9v-3.3l-4.6-4.3c-.8-.7-.9-1.9-.2-2.7.7-.9 2-1 2.8-.2l.12.06m7.282 13.78 3.598 2.26c.8.5 1.9.2 2.4-.7.4-.8.1-1.7-.6-2.1l-4.7-2.9v-3.3l4.6-4.3c.8-.7.8-1.9.2-2.7-.7-.9-2-.9-2.8-.2l-.136.09"/></svg>
