<svg xmlns="http://www.w3.org/2000/svg" fill="none" stroke-width="1.5" viewBox="0 0 24 24"><path stroke="currentColor" stroke-linecap="round" stroke-linejoin="round" d="M.75.75v22.5h22.5"/><path stroke="currentColor" stroke-linecap="round" stroke-linejoin="round" d="M14.15 17.358a5.5 5.5 0 0 0 1.487 1.623l.713.519m-12.6 0 .713-.519A5.39 5.39 0 0 0 6.7 14.939l.4-6.979a2.92 2.92 0 0 1 2.95-2.71h.137"/><path stroke="currentColor" stroke-linecap="round" stroke-linejoin="round" d="m9.15 19.5.713-.519a5.39 5.39 0 0 0 2.237-4.042l.4-6.979a2.92 2.92 0 0 1 2.95-2.71 2.92 2.92 0 0 1 2.955 2.71l.4 6.979a5.39 5.39 0 0 0 2.232 4.042l.713.519"/></svg>
