<svg xmlns="http://www.w3.org/2000/svg" fill="none" stroke-width="1.5" viewBox="0 0 24 24"><path stroke="currentColor" stroke-linecap="round" stroke-linejoin="round" d="M2.251.75H21.75s1.5 0 1.5 1.5v19.5s0 1.5-1.5 1.5H2.251s-1.5 0-1.5-1.5V2.25s0-1.5 1.5-1.5m-1.5 7.5h22.498M.751 15.75h22.498"/><path stroke="currentColor" stroke-linecap="round" stroke-linejoin="round" d="M15 18.75a.75.75 0 0 1-.75.75h-4.5a.75.75 0 0 1-.75-.75m6-7.5a.75.75 0 0 1-.75.75h-4.5a.75.75 0 0 1-.75-.75m6-7.5a.75.75 0 0 1-.75.75h-4.5A.75.75 0 0 1 9 3.75"/></svg>
