<svg xmlns="http://www.w3.org/2000/svg" fill="none" stroke-width="1.5" viewBox="0 0 24 24"><path stroke="currentColor" stroke-linecap="round" stroke-linejoin="round" d="m11.75 7.222-7.1 4.517a.752.752 0 0 1-1.15-.633V6.545a1.5 1.5 0 0 1 .7-1.265L10.945.985a1.5 1.5 0 0 1 1.61 0l6.75 4.3A1.5 1.5 0 0 1 20 6.545v4.561a.75.75 0 0 1-1.153.633zm0 11.394-7.1 4.517A.752.752 0 0 1 3.5 22.5v-4.56a1.5 1.5 0 0 1 .7-1.266l6.75-4.295a1.5 1.5 0 0 1 1.61 0l6.75 4.3A1.5 1.5 0 0 1 20 17.94v4.56a.75.75 0 0 1-1.153.633z"/></svg>
