<svg xmlns="http://www.w3.org/2000/svg" fill="none" stroke-width="1.5" viewBox="0 0 24 24"><path stroke="currentColor" stroke-linecap="round" stroke-linejoin="round" d="M8.616 8.611a2.62 2.62 0 1 0 5.24 0 2.62 2.62 0 0 0-5.24 0M.755 7.26 19.47.75"/><path stroke="currentColor" stroke-linecap="round" stroke-linejoin="round" d="m2.772 9.826.987 2.468a5.98 5.98 0 0 0 7.534 3.432l.3-.106.957 2.236-1.851 3.086a1.498 1.498 0 1 0 2.567 1.541l1.89-3.15 1.287-.215a1.5 1.5 0 0 1 1.666.998l.69 2.066a1.498 1.498 0 1 0 2.838-.949l-.687-2.062a4.46 4.46 0 0 0-5-3.011l-.808.134-.718-1.673 7.786-2.73a1.496 1.496 0 1 0-.991-2.826L10.306 12.9a2.994 2.994 0 0 1-3.766-1.717l-.832-2.08"/></svg>
