<svg xmlns="http://www.w3.org/2000/svg" fill="none" stroke-width="1.5" viewBox="0 0 24 24"><path stroke="currentColor" stroke-linecap="round" stroke-linejoin="round" d="M14.25 11.25V.75l4.5 3.75-4.5 3"/><path stroke="currentColor" stroke-linecap="round" stroke-linejoin="round" d="M11.25 3.75h-.75a9.75 9.75 0 0 0 0 19.5h12.75m0-19.5H21"/><path stroke="currentColor" stroke-linecap="round" stroke-linejoin="round" d="M23.25 11.25H10.5a2.25 2.25 0 0 0 0 4.5h12.75M20.786 7.5H18.75m-10.106.3a6.1 6.1 0 0 0-2.436 1.512M4.68 12.066a5.85 5.85 0 0 0 0 2.868m1.528 2.754A6.1 6.1 0 0 0 8.644 19.2m3.158.3H14.7m3.188 0h2.898"/></svg>
