<svg xmlns="http://www.w3.org/2000/svg" fill="none" stroke-width="1.5" viewBox="0 0 24 24"><path stroke="currentColor" stroke-linecap="round" stroke-linejoin="round" d="M1.5 23.25v-21A1.5 1.5 0 0 1 3 .75h10.629a1.5 1.5 0 0 1 1.06.439l5.872 5.872A1.5 1.5 0 0 1 21 8.121v4.629"/><path stroke="currentColor" stroke-linecap="round" stroke-linejoin="round" d="M21 8.25h-6a1.5 1.5 0 0 1-1.5-1.5v-6M9 23.25v-7.5L6.75 19.5 4.5 15.75v7.5m7.5 0v-7.5m0 0h.75a2.25 2.25 0 0 1 0 4.5H12m6-3a1.5 1.5 0 0 1 1.5-1.5l1.135.005a1.873 1.873 0 0 1-.008 3.745 1.873 1.873 0 0 1 .008 3.745H19.5a1.5 1.5 0 0 1-1.5-1.5"/></svg>
