<svg xmlns="http://www.w3.org/2000/svg" fill="none" stroke-width="1.5" viewBox="0 0 24 24"><path stroke="currentColor" stroke-linecap="round" stroke-linejoin="round" d="M15 18.75h-3.75v3.75"/><path stroke="currentColor" stroke-linecap="round" stroke-linejoin="round" d="M22.667 19.483a5.572 5.572 0 0 1-10.74-.733m7.573-3h3.75V12"/><path stroke="currentColor" stroke-linecap="round" stroke-linejoin="round" d="M11.833 15.017a5.572 5.572 0 0 1 10.74.733"/><path stroke="currentColor" stroke-linecap="round" stroke-linejoin="round" d="M8.25 20.25h-6a1.5 1.5 0 0 1-1.5-1.5V2.25a1.5 1.5 0 0 1 1.5-1.5h10.629a1.5 1.5 0 0 1 1.06.439l2.872 2.872a1.5 1.5 0 0 1 .439 1.06V8.25"/><path stroke="currentColor" stroke-linecap="round" stroke-linejoin="round" d="M3.75 12.75c0 .398.237.78.659 1.06s.994.44 1.591.44 1.169-.158 1.591-.44c.422-.28.659-.662.659-1.06s-.237-.78-.659-1.06-.994-.44-1.591-.44-1.169.158-1.591.44c-.422.28-.659.662-.659 1.06"/><path stroke="currentColor" stroke-linecap="round" stroke-linejoin="round" d="m8.25 12.75-.295-5.929 1.062-.113A2.69 2.69 0 0 1 11.6 7.99"/></svg>
