<svg xmlns="http://www.w3.org/2000/svg" fill="none" stroke-width="1.5" viewBox="0 0 24 24"><path stroke="currentColor" stroke-linecap="round" stroke-linejoin="round" d="M4.807 13.042.75 18l3.75.75 1.5 4.5 3.944-6.258m9.249-3.95L23.25 18l-3.75.75-1.5 4.5-3.944-6.258"/><path stroke="currentColor" stroke-linecap="round" stroke-linejoin="round" d="M3.75 9a8.25 8.25 0 1 0 16.5 0 8.25 8.25 0 0 0-16.5 0"/><path stroke="currentColor" stroke-linecap="round" stroke-linejoin="round" d="m12.531 4.292 1.248 2.458h2.127a.582.582 0 0 1 .419 1l-1.953 1.918 1.082 2.485a.588.588 0 0 1-.839.737L12 11.419l-2.615 1.47a.59.59 0 0 1-.839-.736l1.082-2.485-1.953-1.922a.582.582 0 0 1 .419-1h2.127l1.249-2.454a.6.6 0 0 1 1.061 0"/></svg>
