<svg xmlns="http://www.w3.org/2000/svg" fill="none" stroke-width="1.5" viewBox="0 0 24 24"><path stroke="currentColor" stroke-linecap="round" stroke-linejoin="round" d="M16.706 17.25a2.4 2.4 0 0 0-2.353-4.075 2.4 2.4 0 0 0-4.7 0A2.4 2.4 0 0 0 7.3 17.25a2.4 2.4 0 0 0 2.353 4.075 2.4 2.4 0 0 0 4.705 0 2.4 2.4 0 0 0 2.353-4.075z"/><path stroke="currentColor" d="M12 17.625a.375.375 0 0 1 0-.75m0 .75a.375.375 0 0 0 0-.75"/><path stroke="currentColor" stroke-linecap="round" stroke-linejoin="round" d="m12.84 11.4 3.782-2.7a1.5 1.5 0 0 0 .628-1.221V2.25a1.5 1.5 0 0 0-1.5-1.5h-7.5a1.5 1.5 0 0 0-1.5 1.5v5.228A1.5 1.5 0 0 0 7.378 8.7l3.785 2.7M12 .75v10.5"/></svg>
