<svg xmlns="http://www.w3.org/2000/svg" fill="none" stroke-width="1.5" viewBox="0 0 24 24"><path stroke="currentColor" stroke-linecap="round" stroke-linejoin="round" d="M11.683 16.445a7.3 7.3 0 0 1 4.136-2.07 7.3 7.3 0 0 0 4.138-2.066l2.852-2.852a1.46 1.46 0 0 0 0-2.069L16.6 1.179a1.46 1.46 0 0 0-2.069 0l-2.848 2.847A7.3 7.3 0 0 0 9.6 8.271a6.68 6.68 0 0 1-1.9 3.878l-5.994 5.994a3.036 3.036 0 0 0-.43 3.874 2.93 2.93 0 0 0 4.459.376zm-7.501 3.361.518-.518"/><path stroke="currentColor" stroke-linecap="round" stroke-linejoin="round" d="m16.257 4.971 2.758 2.758a.976.976 0 0 1 0 1.38l-1.556 1.556a1.95 1.95 0 0 1-2.756 0l-1.38-1.38a1.95 1.95 0 0 1 .002-2.757l1.555-1.556a.976.976 0 0 1 1.377 0"/></svg>
