<svg xmlns="http://www.w3.org/2000/svg" fill="none" stroke-width="1.5" viewBox="0 0 24 24"><path stroke="currentColor" stroke-linecap="round" stroke-linejoin="round" d="M.75 18a4.5 4.5 0 1 0 9 0 4.5 4.5 0 0 0-9 0"/><path stroke="currentColor" stroke-linecap="round" stroke-linejoin="round" d="M9.75 18V4.125a2.625 2.625 0 0 0-5.156-.7L.911 16.805M14.25 18a4.501 4.501 0 0 0 8.658 1.722 4.501 4.501 0 0 0-8.316-3.444A4.5 4.5 0 0 0 14.25 18"/><path stroke="currentColor" stroke-linecap="round" stroke-linejoin="round" d="M14.25 18V4.125a2.625 2.625 0 0 1 5.156-.7l3.683 13.377"/><path stroke="currentColor" stroke-linecap="round" stroke-linejoin="round" d="M9.75 9h4.5v3h-4.5z"/></svg>
