<svg xmlns="http://www.w3.org/2000/svg" fill="none" stroke-width="1.5" viewBox="0 0 24 24"><path stroke="currentColor" stroke-linecap="round" stroke-linejoin="round" d="M15.607 15.827c0 1.783-.758 3.492-2.108 4.753-1.35 1.26-3.18 1.969-5.09 1.969-1.908 0-3.739-.708-5.089-1.969-1.35-1.26-2.108-2.97-2.108-4.753 0-5.712 6.165-12.433 7.198-12.433s7.197 6.721 7.197 12.433m2.211-.817c1.411 0 2.765-.523 3.763-1.455s1.558-2.196 1.558-3.514c0-4.223-4.557-9.192-5.321-9.192-.469 0-2.366 1.872-3.763 4.294"/><path stroke="currentColor" stroke-linecap="round" d="M5.553 15.01h5.713M8.41 12.154v5.713m8.022-9.126h3.47"/></svg>
