<svg xmlns="http://www.w3.org/2000/svg" fill="none" stroke-width="1.5" viewBox="0 0 24 24"><path stroke="currentColor" stroke-linecap="round" stroke-linejoin="round" d="M14.75 8.25h-13a1 1 0 0 0-1 1v13a1 1 0 0 0 1 1h13a1 1 0 0 0 1-1v-13a1 1 0 0 0-1-1"/><path stroke="currentColor" stroke-linecap="round" stroke-linejoin="round" d="M18.75 15.75h3a1.5 1.5 0 0 0 1.5-1.5v-12a1.5 1.5 0 0 0-1.5-1.5h-12a1.5 1.5 0 0 0-1.5 1.5v3"/><path stroke="currentColor" d="M4.125 13.5a.375.375 0 0 1 0-.75m0 .75a.375.375 0 0 0 0-.75m4.125.75a.375.375 0 0 1 0-.75m0 .75a.375.375 0 0 0 0-.75m4.125.75a.375.375 0 0 1 0-.75m0 .75a.375.375 0 0 0 0-.75m0-7.5a.375.375 0 0 1 0-.75m0 .75a.375.375 0 0 0 0-.75m6.75.75a.375.375 0 0 1 0-.75m0 .75a.375.375 0 0 0 0-.75m0 7.5a.375.375 0 0 1 0-.75m0 .75a.375.375 0 0 0 0-.75m-15 7.5a.375.375 0 0 1 0-.75m0 .75a.375.375 0 0 0 0-.75m4.125.75a.375.375 0 0 1 0-.75m0 .75a.375.375 0 0 0 0-.75m4.125.75a.375.375 0 0 1 0-.75m0 .75a.375.375 0 0 0 0-.75"/></svg>
