<svg xmlns="http://www.w3.org/2000/svg" fill="none" stroke-width="1.5" viewBox="0 0 24 24"><path stroke="currentColor" stroke-linecap="round" stroke-linejoin="round" d="M15.75 8.625C14.363 5.989 12.361 5.25 9.857 5.25A5.98 5.98 0 0 0 3.75 10.5L1.691 8.641a.52.52 0 0 0-.847.05.56.56 0 0 0-.093.318v5.981a.56.56 0 0 0 .349.527.52.52 0 0 0 .592-.159L3.75 13.5a5.98 5.98 0 0 0 6.107 5.25 6.22 6.22 0 0 0 5.893-3.375L11.464 12zM21 14.25a2.25 2.25 0 1 0 0-4.5 2.25 2.25 0 0 0 0 4.5M18.75 12l-1.5-1.5m0 3 1.5-1.5"/><path stroke="currentColor" d="M9.375 9a.375.375 0 1 1 0-.75m0 .75a.375.375 0 1 0 0-.75"/></svg>
