<svg xmlns="http://www.w3.org/2000/svg" fill="none" stroke-width="1.5" viewBox="0 0 24 24"><path stroke="currentColor" stroke-linecap="round" stroke-linejoin="round" d="m2.26 16.61 2.27 1.32a2.46 2.46 0 0 0 2.71-.41 2.44 2.44 0 0 1 3.15-.14 2.61 2.61 0 0 0 3.22 0 2.44 2.44 0 0 1 3.15.14 2.46 2.46 0 0 0 2.71.41l2.27-1.32M2.26 7.39l2.27-1.32a2.46 2.46 0 0 1 2.71.41 2.43 2.43 0 0 0 3.15.13 2.64 2.64 0 0 1 3.22 0 2.43 2.43 0 0 0 3.15-.13 2.46 2.46 0 0 1 2.71-.41l2.27 1.32M9.75 12a2.25 2.25 0 1 0 4.5 0 2.25 2.25 0 0 0-4.5 0"/><path stroke="currentColor" stroke-linecap="round" stroke-linejoin="round" d="M18.28 12c2.12-1.17 3.47-2.92 3.47-4.88C21.75 3.6 17.38.75 12 .75S2.25 3.6 2.25 7.12c0 2 1.35 3.71 3.47 4.88-2.12 1.17-3.47 2.92-3.47 4.87 0 3.53 4.37 6.38 9.75 6.38s9.75-2.85 9.75-6.38c0-1.95-1.35-3.7-3.47-4.87"/></svg>
