<svg xmlns="http://www.w3.org/2000/svg" fill="none" stroke-width="1.5" viewBox="0 0 24 24"><path stroke="currentColor" stroke-linecap="round" stroke-linejoin="round" d="M22.63 14.786 15 22.416l-3.75.75.75-3.75 7.63-7.63a2.116 2.116 0 0 1 2.992 0l.008.008a2.113 2.113 0 0 1 0 2.992M9 17.25H2.25a1.5 1.5 0 0 1-1.5-1.5V3.765a1.5 1.5 0 0 1 1.5-1.5h13.5a1.5 1.5 0 0 1 1.5 1.5V8.25"/><path stroke="currentColor" stroke-linejoin="round" d="M.75 6.75h16.5"/><path stroke="currentColor" stroke-linecap="round" stroke-linejoin="round" d="M5.243 3.75v-3m7.5 3v-3"/></svg>
