<svg xmlns="http://www.w3.org/2000/svg" fill="none" stroke-width="1.5" viewBox="0 0 24 24"><path stroke="currentColor" stroke-linecap="round" stroke-linejoin="round" d="M15.15 3 14.1.75H9.9L8.85 3H6.3a1.05 1.05 0 0 0-1.05 1.05v6.9A1.05 1.05 0 0 0 6.3 12h11.4a1.05 1.05 0 0 0 1.05-1.05v-6.9A1.05 1.05 0 0 0 17.7 3zm2.1 20.25L12 14.85l-5.25 8.4M12 12v11.25"/><path stroke="currentColor" stroke-linecap="round" stroke-linejoin="round" d="M9.75 7.125a2.25 2.25 0 1 0 4.5 0 2.25 2.25 0 0 0-4.5 0"/></svg>
