<svg xmlns="http://www.w3.org/2000/svg" fill="none" stroke-width="1.5" viewBox="0 0 24 24"><path stroke="currentColor" stroke-linecap="round" stroke-linejoin="round" d="m2.993 6.881 1.741-3.88a2.24 2.24 0 0 1 2.1-1.454h8.841a2.24 2.24 0 0 1 2.1 1.454l1.742 3.882M1.549 13.294v1.692a1.493 1.493 0 1 0 2.986 0v-1.493"/><path stroke="currentColor" stroke-linecap="round" stroke-linejoin="round" d="M21.307 8.267a2.99 2.99 0 0 0-2.588-1.493H3.785A2.986 2.986 0 0 0 .8 9.76V12a1.493 1.493 0 0 0 1.493 1.493h5.973"/><path stroke="currentColor" stroke-linecap="round" stroke-linejoin="round" d="M17.227 22.452a5.973 5.973 0 1 0 0-11.945 5.973 5.973 0 0 0 0 11.945"/><path stroke="currentColor" stroke-linecap="round" stroke-linejoin="round" d="m19.89 14.743-2.893 3.856a.748.748 0 0 1-1.126.08l-1.493-1.493"/><path stroke="currentColor" d="M4.162 10.507a.373.373 0 1 1 0-.747m0 .747a.373.373 0 1 0 0-.747"/></svg>
