<svg xmlns="http://www.w3.org/2000/svg" fill="none" stroke-width="1.5" viewBox="0 0 24 24"><path stroke="currentColor" stroke-linecap="round" stroke-linejoin="round" d="m22.651 2.55-2.4-1.8-.15 2.7-2.55.9-.15 2.7-2.617.9-.533 3.3h-4.5l-.534-3.3-2.617-.9-.151-2.7-2.549-.9L3.75.751l-2.4 1.8a1.5 1.5 0 0 0-.3 2.1l7.2 9.6h7.5l7.2-9.6a1.5 1.5 0 0 0-.299-2.101"/><path stroke="currentColor" stroke-linecap="round" stroke-linejoin="round" d="m15.751 14.249 3.194 6.262a1.07 1.07 0 0 1-.466 1.439l-2.32 1.182a1.07 1.07 0 0 1-1.441-.472L12 17.249 9.284 22.66a1.07 1.07 0 0 1-1.442.472L5.523 21.95a1.07 1.07 0 0 1-.467-1.439l3.195-6.262"/></svg>
