<svg xmlns="http://www.w3.org/2000/svg" fill="none" stroke-width="1.5" viewBox="0 0 24 24"><path stroke="currentColor" stroke-linecap="round" stroke-linejoin="round" d="M21.75 18.5a1.5 1.5 0 0 0 1.5-1.5v-4.5c0-.48-.19-.94-.53-1.279l-2.47-2.47H3.75l-2.47 2.47c-.34.34-.53.8-.53 1.279V17a1.5 1.5 0 0 0 1.5 1.5zm-18-9.749 1.723-4.6a2.165 2.165 0 0 1 2.027-1.4h9a2.17 2.17 0 0 1 2.027 1.4l1.723 4.6zm0 0-1.5-1.5H.75m19.5 1.5 1.5-1.5h1.5M2.25 18.5V20a1.5 1.5 0 0 0 3 0v-1.5zm19.5 0V20a1.5 1.5 0 1 1-3 0v-1.5z"/><path stroke="currentColor" stroke-linecap="round" stroke-linejoin="round" d="M8.35 15.5a1.5 1.5 0 0 1-1.288-.729l-1.375-2.293A1.5 1.5 0 0 0 4.4 11.75H.913m22.174 0H19.6a1.5 1.5 0 0 0-1.286.728l-1.376 2.294a1.5 1.5 0 0 1-1.286.728M.75 14.75h3m16.5 0h3m-13.125-1.125a1.875 1.875 0 1 0 3.751 0 1.875 1.875 0 0 0-3.751 0"/></svg>
