<svg xmlns="http://www.w3.org/2000/svg" fill="none" stroke-width="1.5" viewBox="0 0 24 24"><path stroke="currentColor" stroke-linecap="round" stroke-linejoin="round" d="M23.25 8.25a2 2 0 0 0-2-2 .5.5 0 0 0-.5.5v1.5h-3v-2a.5.5 0 0 0-.5-.5h-1.5l-1.5-2h-6.5l-1.5 1.5h-2a.5.5 0 0 0-.5.5v7a.5.5 0 0 0 .5.5h2l2 3.5H11m.75-13v-3m3.5 0h-7m-7.5 4.5v8m0-4h3"/><path stroke="currentColor" stroke-linecap="round" stroke-linejoin="round" d="M21.985 11.674a.277.277 0 0 0-.235-.424h-5.5a.66.66 0 0 0-.637.481l-1.588 5.557a.755.755 0 0 0 .725.962h2l-1.5 5 7.772-7.315a.4.4 0 0 0-.272-.685h-3z"/></svg>
