<svg xmlns="http://www.w3.org/2000/svg" fill="none" stroke-width="1.5" viewBox="0 0 24 24"><path stroke="currentColor" stroke-linecap="round" stroke-linejoin="round" d="M15.93 9.1a1.9 1.9 0 0 0-2.751 0L12 10.314 10.821 9.1a1.9 1.9 0 0 0-2.751 0 2.06 2.06 0 0 0 0 2.845l3.511 3.631a.58.58 0 0 0 .838 0l3.511-3.636a2.06 2.06 0 0 0 0-2.84"/><path stroke="currentColor" stroke-linecap="round" stroke-linejoin="round" d="M20 .75H4a1 1 0 0 0-1 1v20.5a1 1 0 0 0 1 1h16a1 1 0 0 0 1-1V1.75a1 1 0 0 0-1-1"/><path stroke="currentColor" d="M6 4.125a.375.375 0 1 1 0-.75m0 .75a.375.375 0 1 0 0-.75m12 17.25a.375.375 0 0 1 0-.75m0 .75a.375.375 0 0 0 0-.75"/></svg>
