<svg xmlns="http://www.w3.org/2000/svg" fill="none" stroke-width="1.5" viewBox="0 0 24 24"><path stroke="currentColor" stroke-linecap="round" stroke-linejoin="round" d="M7.892 11.594a2.22 2.22 0 0 0 1.858.875c1.139 0 2.063-.693 2.063-1.547s-.924-1.547-2.063-1.547-2.062-.693-2.062-1.548S8.611 6.28 9.75 6.28a2.22 2.22 0 0 1 1.858.875M9.75 12.469V13.5m0-8.25v1.03"/><path stroke="currentColor" stroke-linecap="round" stroke-linejoin="round" d="M.75 9.812a9.062 9.062 0 1 0 18.124 0 9.062 9.062 0 0 0-18.124 0m15.47 6.408 7.03 7.03"/></svg>
