<svg xmlns="http://www.w3.org/2000/svg" fill="none" stroke-width="1.5" viewBox="0 0 24 24"><path stroke="currentColor" stroke-linecap="round" stroke-linejoin="round" d="M9.75 15.937c0 .932 1.007 1.688 2.25 1.688s2.25-.756 2.25-1.688S13.243 14.25 12 14.25s-2.25-.756-2.25-1.688 1.007-1.687 2.25-1.687 2.25.755 2.25 1.687M12 9.75v1.125m0 6.75v1.125"/><path stroke="currentColor" stroke-linecap="round" stroke-linejoin="round" d="M3 6.75h18s1.5 0 1.5 1.5v12s0 1.5-1.5 1.5H3s-1.5 0-1.5-1.5v-12s0-1.5 1.5-1.5m12.342-3.475a1.5 1.5 0 0 0-1.423-1.025h-3.838a1.5 1.5 0 0 0-1.423 1.025L7.5 6.75h9z"/></svg>
