<svg xmlns="http://www.w3.org/2000/svg" fill="none" stroke-width="1.5" viewBox="0 0 24 24"><path stroke="currentColor" stroke-linecap="round" stroke-linejoin="round" d="M15.093 12.343a2.43 2.43 0 0 0 2.031.956c1.244 0 2.254-.757 2.254-1.691s-1.01-1.69-2.254-1.69-2.255-.758-2.255-1.692 1.01-1.691 2.255-1.691a2.43 2.43 0 0 1 2.031.956M17.124 13.3v1.126m0-9.018v1.127"/><path stroke="currentColor" stroke-linecap="round" stroke-linejoin="round" d="M20.354 2.25H3.646A2.646 2.646 0 0 0 1 4.896v10.708a2.646 2.646 0 0 0 2.646 2.646h16.708A2.646 2.646 0 0 0 23 15.604V4.896a2.646 2.646 0 0 0-2.646-2.646M12 18.25v3.5m-5 0h10M4.622 6.689h6.012m-6.012 3.826h6.012m-6.012 3.826h3.006"/></svg>
