<svg xmlns="http://www.w3.org/2000/svg" fill="none" stroke-width="1.5" viewBox="0 0 24 24"><path stroke="currentColor" stroke-linecap="round" stroke-linejoin="round" d="m5.57 13.939-4.175 3.066a1.49 1.49 0 0 0-.19 2.276l3.486 3.485a1.487 1.487 0 0 0 2.316-.15l3.106-4.174m8.307-8.358 4.184-3.065a1.488 1.488 0 0 0 .19-2.277L19.31 1.217a1.488 1.488 0 0 0-2.316.19L13.927 5.58M12.39 15.736l4.852 7.51.999-4.994 4.993-.998-7.51-4.853"/><path stroke="currentColor" stroke-linecap="round" stroke-linejoin="round" d="M8.255 12.012a3.745 3.745 0 1 0 7.49 0 3.745 3.745 0 0 0-7.49 0"/></svg>
