<svg xmlns="http://www.w3.org/2000/svg" fill="none" stroke-width="1.5" viewBox="0 0 24 24"><path stroke="currentColor" stroke-linecap="round" stroke-linejoin="round" d="m5.98 11.25 4.227-4.977A4.5 4.5 0 0 1 14.026 5l1.484.212L19.753.97a.75.75 0 0 1 1.06 0l1.061 1.06a.75.75 0 0 1 0 1.061l-4.243 4.243.212 1.484a6.9 6.9 0 0 1-.13 2.432m.449-8.689 2.121 2.121"/><path stroke="currentColor" stroke-linecap="round" stroke-linejoin="round" d="m20.2 13.465.378-1.335a.75.75 0 0 0-.738-.88H3.469a.75.75 0 0 0-.739.88l.378 1.335m2.548.927-3.75 4.358m15.625-4.358 3.75 4.358m-16.365.35.826 2.915a1.5 1.5 0 0 0 1.477 1.235h8.875a1.5 1.5 0 0 0 1.477-1.239L18.4 19.1"/></svg>
