<svg xmlns="http://www.w3.org/2000/svg" fill="none" stroke-width="1.5" viewBox="0 0 24 24"><path stroke="currentColor" stroke-linecap="round" stroke-linejoin="round" d="m15.333 15.916-8.748 4.17.595 1.25a1.385 1.385 0 0 0 1.846.654l6.249-2.979a1.38 1.38 0 0 0 .654-1.845zM14.05 5.2a1.73 1.73 0 0 0-2.024 1.38L11.7 8.292l-1.61-3.377a5.03 5.03 0 0 0-6.34-2.643 4.846 4.846 0 0 0-2.527 6.565l5.362 11.249 8.748-4.17-.922-1.935a1.4 1.4 0 0 1-.11-.855l1.125-5.9A1.73 1.73 0 0 0 14.05 5.2"/><path stroke="currentColor" stroke-linecap="round" stroke-linejoin="round" d="m13.653 19.784.713 1.5a1.385 1.385 0 0 0 1.846.654l6.249-2.979a1.383 1.383 0 0 0 .654-1.845l-.6-1.25"/><path stroke="currentColor" stroke-linecap="round" stroke-linejoin="round" d="m19.109 17.49 3.41-1.626-.919-1.935a1.4 1.4 0 0 1-.11-.855l1.125-5.9a1.73 1.73 0 0 0-2.68-1.779 1.73 1.73 0 0 0-.72 1.13l-.329 1.715-1.61-3.377a5.1 5.1 0 0 0-5.624-2.872"/></svg>
