<svg xmlns="http://www.w3.org/2000/svg" fill="none" stroke-width="1.5" viewBox="0 0 24 24"><path stroke="currentColor" d="M17.25 21a.375.375 0 0 1 0-.75m0 .75a.375.375 0 0 0 0-.75"/><path stroke="currentColor" stroke-linecap="round" stroke-linejoin="round" d="M17.25 18v-3m5.813 5.683a1.774 1.774 0 0 1-1.587 2.567h-8.452a1.773 1.773 0 0 1-1.586-2.567l4.225-8.452a1.774 1.774 0 0 1 3.174 0z"/><path stroke="currentColor" stroke-linecap="round" stroke-linejoin="round" d="M22.825 12.853a4.868 4.868 0 0 0-7.213-5.992 7.496 7.496 0 1 0-7.357 8.88h2.249"/></svg>
