<svg xmlns="http://www.w3.org/2000/svg" fill="none" stroke-width="1.5" viewBox="0 0 24 24"><path stroke="currentColor" stroke-linecap="round" stroke-linejoin="round" d="M14 16v5.75a1.5 1.5 0 0 1-1.5 1.5H3a1.5 1.5 0 0 1-1.5-1.5V4A1.5 1.5 0 0 1 3 2.5h4.25M22.5 6.074a7.67 7.67 0 0 1-6 7.5 7.67 7.67 0 0 1-6-7.5v-3.25q6-4.147 12 0z"/><path stroke="currentColor" stroke-linecap="round" stroke-linejoin="round" d="m19.477 4.268-2.905 3.874a.752.752 0 0 1-1.131.08l-1.5-1.5"/><path stroke="currentColor" d="M7.75 19.875a.375.375 0 0 1 0-.75m0 .75a.375.375 0 0 0 0-.75"/></svg>
