<svg xmlns="http://www.w3.org/2000/svg" fill="none" stroke-width="1.5" viewBox="0 0 24 24"><path stroke="currentColor" stroke-linecap="round" stroke-linejoin="round" d="M5.5 12a6.5 6.5 0 1 0 13 0 6.5 6.5 0 0 0-13 0"/><path stroke="currentColor" stroke-linecap="round" stroke-linejoin="round" d="M12 5.5q4.875 6.5 0 13m0-13q-4.875 6.5 0 13M5.5 12h13M11.25 1.5a.75.75 0 1 0 1.5 0 .75.75 0 0 0-1.5 0m7.425 3.075a.75.75 0 1 0 1.5 0 .75.75 0 0 0-1.5 0M21.75 12a.75.75 0 1 0 1.5 0 .75.75 0 0 0-1.5 0m-3.075 7.425a.75.75 0 1 0 1.5 0 .75.75 0 0 0-1.5 0M11.25 22.5a.75.75 0 1 0 1.5 0 .75.75 0 0 0-1.5 0m-7.425-3.075a.75.75 0 1 0 1.5 0 .75.75 0 0 0-1.5 0M.75 12a.75.75 0 1 0 1.5 0 .75.75 0 0 0-1.5 0m3.075-7.425a.75.75 0 1 0 1.5 0 .75.75 0 0 0-1.5 0"/></svg>
