<svg xmlns="http://www.w3.org/2000/svg" fill="none" stroke-width="1.5" viewBox="0 0 24 24"><path stroke="currentColor" stroke-linecap="round" stroke-linejoin="round" d="M8.25 3.75h-5.5a2 2 0 0 0-2 2V16.5a2 2 0 0 0 2 2h15a2 2 0 0 0 2-2v-2m-14 8.75h9m-6-4.75-1.5 4.75h6l-1.5-4.75z"/><path stroke="currentColor" stroke-linecap="round" stroke-linejoin="round" d="M11.435 6.129a5.38 5.38 0 1 0 10.759 0 5.38 5.38 0 0 0-10.759 0m9.182 3.803 2.633 2.818m-11.205.05A2.538 2.538 0 0 1 7.712 11V9.74a2.54 2.54 0 0 1 1.269-2.2M7.936 8.694l-2.128-2.13m2.647 6.238-2.013 2.013m1.27-3.807H5.173m6.872 1.794 2.013 2.013"/></svg>
