<svg xmlns="http://www.w3.org/2000/svg" fill="none" stroke-width="1.5" viewBox="0 0 24 24"><path stroke="currentColor" stroke-linecap="round" stroke-linejoin="round" d="M.75 14.25v9m0-1.5h16.5a3 3 0 0 0-3-3H10.5a3 3 0 0 0-3-3H.75m6 3h3.75m5.37-17.02a1.14 1.14 0 0 0 1.68 0l.54-.61a1.13 1.13 0 0 1 1.28-.28 1.11 1.11 0 0 1 .69 1.1v.81a1.2 1.2 0 0 0 .33.86 1.2 1.2 0 0 0 .86.33h.81a1.11 1.11 0 0 1 1.1.69 1.13 1.13 0 0 1-.28 1.28l-.61.54a1.14 1.14 0 0 0 0 1.68l.61.54a1.13 1.13 0 0 1 .28 1.28 1.11 1.11 0 0 1-1.1.69h-.81a1.13 1.13 0 0 0-1.19 1.19v.81a1.11 1.11 0 0 1-.69 1.1 1.13 1.13 0 0 1-1.28-.28l-.54-.61a1.14 1.14 0 0 0-1.68 0l-.54.61a1.13 1.13 0 0 1-1.28.28 1.11 1.11 0 0 1-.69-1.1v-.81a1.13 1.13 0 0 0-1.19-1.19h-.81a1.11 1.11 0 0 1-1.1-.69 1.13 1.13 0 0 1 .28-1.28l.61-.54a1.14 1.14 0 0 0 0-1.68l-.61-.54a1.13 1.13 0 0 1-.28-1.28 1.11 1.11 0 0 1 1.1-.69h.81a1.2 1.2 0 0 0 .86-.33 1.2 1.2 0 0 0 .33-.86v-.81a1.11 1.11 0 0 1 .69-1.1 1.13 1.13 0 0 1 1.28.28z"/><path stroke="currentColor" stroke-linecap="round" stroke-linejoin="round" d="M14.96 7.25a1.75 1.75 0 1 0 3.5 0 1.75 1.75 0 0 0-3.5 0"/></svg>
