<svg xmlns="http://www.w3.org/2000/svg" fill="none" stroke-width="1.5" viewBox="0 0 24 24"><path stroke="currentColor" stroke-linecap="round" stroke-linejoin="round" d="M7 3.5a1.875 1.875 0 1 0 3.75 0A1.875 1.875 0 0 0 7 3.5m6 0a1.875 1.875 0 1 0 3.75 0 1.875 1.875 0 0 0-3.75 0M.75 9.625A2.25 2.25 0 0 1 3 7.375h18a2.25 2.25 0 0 1 2.25 2.25"/><path stroke="currentColor" stroke-linecap="round" stroke-linejoin="round" d="M17.2 22.375H6.8a4.5 4.5 0 0 1-4.31-5.793l2.76-9.207h13.5l2.762 9.207a4.5 4.5 0 0 1-4.312 5.793"/></svg>
