<svg xmlns="http://www.w3.org/2000/svg" fill="none" stroke-width="1.5" viewBox="0 0 24 24"><path stroke="currentColor" stroke-linecap="round" stroke-linejoin="round" d="M.75 12a11.25 11.25 0 1 0 22.5 0 11.25 11.25 0 0 0-22.5 0"/><path stroke="currentColor" stroke-linecap="round" stroke-linejoin="round" d="M8.25 12a3.75 3.75 0 1 0 7.5 0 3.75 3.75 0 0 0-7.5 0m5.2 3.46 2.897 6.916M8.54 13.45l-6.916 2.897m8.927-7.806L7.653 1.624m7.807 8.926 6.916-2.897M10.579 15.47l-2.842 6.94m.792-11.83-6.94-2.843m11.832.792 2.842-6.94m-.792 11.832 6.94 2.842"/></svg>
