<svg xmlns="http://www.w3.org/2000/svg" fill="none" stroke-width="1.5" viewBox="0 0 24 24"><path stroke="currentColor" stroke-linecap="round" stroke-linejoin="round" d="M17.25 23.25H3.75a1.5 1.5 0 0 1-1.5-1.5V5.25"/><path stroke="currentColor" stroke-linecap="round" stroke-linejoin="round" d="M20.25 20.25H6.75a1.5 1.5 0 0 1-1.5-1.5V2.25"/><path stroke="currentColor" stroke-linecap="round" stroke-linejoin="round" d="M21.75 15.75a1.5 1.5 0 0 1-1.5 1.5H9.75a1.5 1.5 0 0 1-1.5-1.5V2.25a1.5 1.5 0 0 1 1.5-1.5h7.629a1.5 1.5 0 0 1 1.06.439l2.872 2.872a1.5 1.5 0 0 1 .439 1.06z"/></svg>
