<svg xmlns="http://www.w3.org/2000/svg" fill="none" stroke-width="1.5" viewBox="0 0 24 24"><path stroke="currentColor" stroke-linecap="round" stroke-linejoin="round" d="M7.117 7.5v-3m3 3v-3m-6 6h-3m3 6h-3m3-3h-3m9 9v-3m9-3h-3m-9 6v-3m6 3v-3m3-6V18a1.5 1.5 0 0 1-1.5 1.5h-9a1.5 1.5 0 0 1-1.5-1.5V9a1.5 1.5 0 0 1 1.5-1.5h6"/><path stroke="currentColor" stroke-linecap="round" stroke-linejoin="round" d="M7.117 10.5h6v6h-6zm7.55-7.888a1.5 1.5 0 1 1 1.45 1.888 1.5 1.5 0 1 1-1.446 1.9M19.867 3a1.5 1.5 0 0 1 3 0c0 .485-.164.957-.467 1.336L19.867 7.5h3"/></svg>
