<svg xmlns="http://www.w3.org/2000/svg" fill="none" stroke-width="1.5" viewBox="0 0 24 24"><path stroke="currentColor" stroke-linecap="round" stroke-linejoin="round" d="M12 23.25c6.213 0 11.25-5.037 11.25-11.25S18.213.75 12 .75.75 5.787.75 12 5.787 23.25 12 23.25"/><path stroke="currentColor" stroke-linecap="round" stroke-linejoin="round" d="M16.648 7.352a.75.75 0 0 0-.768-.181L9.348 9.348 7.171 15.88a.75.75 0 0 0 .949.949l6.532-2.177 2.177-6.532a.75.75 0 0 0-.181-.768M12 .75V3m7.955 1.045-1.591 1.59M23.25 12H21m-1.045 7.955-1.591-1.591M12 23.25V21m-7.955-1.045 1.591-1.591M.75 12H3m1.045-7.955 1.591 1.59"/><path stroke="currentColor" d="M12 12.375a.375.375 0 0 1 0-.75m0 .75a.375.375 0 0 0 0-.75"/></svg>
