<svg xmlns="http://www.w3.org/2000/svg" fill="none" stroke-width="1.5" viewBox="0 0 24 24"><path stroke="currentColor" stroke-linecap="round" stroke-linejoin="round" d="M23.204 6.103a1.5 1.5 0 0 1-2.122 0L17.9 2.921A1.5 1.5 0 0 1 17.9.8m-.175 10.676c-1.405 1.405-6.47 1.166-6.47 1.166s-.24-5.064 1.167-6.47a3.677 3.677 0 0 1 5.2.106 3.68 3.68 0 0 1 .103 5.198"/><path stroke="currentColor" d="M14.995 9.332a.375.375 0 0 1 0-.75m0 .75a.375.375 0 0 0 0-.75"/><path stroke="currentColor" stroke-linecap="round" stroke-linejoin="round" d="M8.5 14.25H6a2.25 2.25 0 0 0 0 4.5h14.5a2.25 2.25 0 0 1 0 4.5H.75"/></svg>
