<svg xmlns="http://www.w3.org/2000/svg" fill="none" stroke-width="1.5" viewBox="0 0 24 24"><path stroke="currentColor" stroke-linecap="round" stroke-linejoin="round" d="M2.25 3.75h19.5s1.5 0 1.5 1.5v13.5s0 1.5-1.5 1.5H2.25s-1.5 0-1.5-1.5V5.25s0-1.5 1.5-1.5M9.75 15V9"/><path stroke="currentColor" stroke-linecap="round" stroke-linejoin="round" d="M3.75 9v2.037A7.5 7.5 0 0 0 5.25 15a7.5 7.5 0 0 0 1.5-3.963V9m7.65 0h-1.2a1.2 1.2 0 0 0-1.2 1.2c0 1.8 2.4 1.8 2.4 3.6a1.2 1.2 0 0 1-1.2 1.2H12m5.25-2.25h3m0 2.25v-4.5a1.5 1.5 0 1 0-3 0V15"/></svg>
