<svg xmlns="http://www.w3.org/2000/svg" fill="none" stroke-width="1.5" viewBox="0 0 24 24"><path stroke="currentColor" stroke-linecap="round" stroke-linejoin="round" d="M15.41 3.192v.979m.003 5.872-.004.978m2.447-5.382a1.47 1.47 0 0 1-1.468 1.468H13.94V4.17h2.447a1.47 1.47 0 0 1 1.468 1.468m.001 2.937a1.47 1.47 0 0 1-1.468 1.468H13.94V7.107h2.447a1.47 1.47 0 0 1 1.468 1.468"/><path stroke="currentColor" stroke-linejoin="round" d="M15.556 13.713a6.361 6.361 0 1 0-5.765-3.67l-1.82 3.914 4.405-1.096a6.33 6.33 0 0 0 3.18.851Z"/><path stroke="currentColor" stroke-linecap="round" stroke-linejoin="round" d="M14.577 16.16v4.176a2.674 2.674 0 0 1-2.675 2.673H4.757a2.674 2.674 0 0 1-2.674-2.673V5.133a2.675 2.675 0 0 1 2.674-2.675h2.97M2.083 18.606h12.494"/></svg>
