<svg xmlns="http://www.w3.org/2000/svg" fill="none" stroke-width="1.5" viewBox="0 0 24 24"><path stroke="currentColor" stroke-linecap="round" stroke-linejoin="round" d="M18.75 3.75h-2.033a1.342 1.342 0 0 0-.5 2.587l2.064.826a1.342 1.342 0 0 1-.5 2.587h-.531m0-6V3"/><path stroke="currentColor" stroke-linecap="round" stroke-linejoin="round" d="M18.03 12.7a6.001 6.001 0 1 0-6.73-6.742m4.45 9.792a7.5 7.5 0 0 0-7.5-7.5m-6 3a7.5 7.5 0 1 0 12.5 8.25"/><path stroke="currentColor" stroke-linecap="round" stroke-linejoin="round" d="M6.75 18.75v-6H9a1.5 1.5 0 1 1 0 3 1.5 1.5 0 1 1 0 3zm0-3H9m-.75-3v-1.5m0 7.5v1.5M.75 4.5 3 8.25 6.75 6"/><path stroke="currentColor" stroke-linecap="round" stroke-linejoin="round" d="M8.189.9a6.75 6.75 0 0 0-4.417 6.886M23.25 19.5 21 15.75 17.25 18"/><path stroke="currentColor" stroke-linecap="round" stroke-linejoin="round" d="M15.811 23.1a6.75 6.75 0 0 0 4.417-6.884"/></svg>
