<svg xmlns="http://www.w3.org/2000/svg" fill="none" stroke-width="1.5" viewBox="0 0 24 24"><path stroke="currentColor" stroke-linecap="round" stroke-linejoin="round" d="M1.88.75h.75a.76.76 0 0 1 .75.75v5.25m-1.5 0h3m6-1.5a1.5 1.5 0 1 1-3 0v-3a1.5 1.5 0 0 1 3 0zm2.99-4.5h.75a.75.75 0 0 1 .75.75v5.25m-1.5 0h3m6-1.5a1.5 1.5 0 1 1-3 0v-3a1.5 1.5 0 1 1 3 0zM15.37 9a1.5 1.5 0 0 1 1.5 1.5V12m3-3h.75a.75.75 0 0 1 .75.75V15m-1.5 0h3m0 6.75a1.5 1.5 0 1 1-3 0v-3a1.5 1.5 0 1 1 3 0zM6.38 16.5h2.5m-1-3v-.75m0 6.75v.75m1-6.75a1.39 1.39 0 0 1 1.25 1.5 1.39 1.39 0 0 1-1.25 1.5 1.39 1.39 0 0 1 1.25 1.5 1.39 1.39 0 0 1-1.25 1.5h-2.5v-6z"/><path stroke="currentColor" stroke-linecap="round" stroke-linejoin="round" d="M1.13 16.5a6.75 6.75 0 1 0 13.5 0 6.75 6.75 0 0 0-13.5 0m14.24 5.25v1.5m-1.5 0h3"/></svg>
