<svg xmlns="http://www.w3.org/2000/svg" fill="none" stroke-width="1.5" viewBox="0 0 24 24"><path stroke="currentColor" stroke-linecap="round" stroke-linejoin="round" d="M2.25.75h19.5s1.5 0 1.5 1.5v19.5s0 1.5-1.5 1.5H2.25s-1.5 0-1.5-1.5V2.25s0-1.5 1.5-1.5"/><path stroke="currentColor" stroke-linecap="round" stroke-linejoin="round" d="M7.488 10.5a3 3 0 0 0-3 3V15a3 3 0 0 0 3 3m6-7.5h-1.5a1.5 1.5 0 0 0-1.5 1.5c0 2.25 3 2.25 3 4.5a1.5 1.5 0 0 1-1.5 1.5h-1.5m9-7.5h-1.5a1.5 1.5 0 0 0-1.5 1.5c0 2.25 3 2.25 3 4.5a1.5 1.5 0 0 1-1.5 1.5h-1.5"/></svg>
