<svg xmlns="http://www.w3.org/2000/svg" fill="none" stroke-width="1.5" viewBox="0 0 24 24"><path stroke="currentColor" stroke-linecap="round" stroke-linejoin="round" d="M.75 5.251c0 1.193 1.185 2.338 3.295 3.182S9.016 9.751 12 9.751s5.845-.474 7.955-1.318 3.295-1.989 3.295-3.182c0-1.194-1.185-2.338-3.295-3.182S14.984.751 12 .751s-5.845.474-7.955 1.318S.75 4.058.75 5.251"/><path stroke="currentColor" stroke-linecap="round" stroke-linejoin="round" d="M.75 5.251v6c0 1.957 3.124 3.623 7.487 4.242"/><path stroke="currentColor" stroke-linecap="round" stroke-linejoin="round" d="M.75 11.251v6c0 2.169 3.837 3.98 8.945 4.4m1.554-3.65a2.25 2.25 0 1 0 4.5 0 2.25 2.25 0 0 0-4.5 0m7.5 3a2.25 2.25 0 1 0 4.5 0 2.25 2.25 0 0 0-4.5 0m0-7.5a2.25 2.25 0 1 0 4.5 0 2.25 2.25 0 0 0-4.5 0m-3.326 3.345 3.65-2.19m-3.486 4.18 3.324 1.33"/></svg>
