<svg xmlns="http://www.w3.org/2000/svg" fill="none" stroke-width="1.5" viewBox="0 0 24 24"><path stroke="currentColor" stroke-linecap="round" stroke-linejoin="round" d="M12 15.751v7.5m-7.5 0h15"/><path stroke="currentColor" d="M1.125 23.25a.375.375 0 0 1 0-.75m0 .75a.375.375 0 0 0 0-.75m21.75.75a.375.375 0 0 1 0-.75m0 .75a.375.375 0 0 0 0-.75"/><path stroke="currentColor" stroke-linecap="round" stroke-linejoin="round" d="M12 6.751c3.728 0 6.75-1.343 6.75-3s-3.022-3-6.75-3-6.75 1.343-6.75 3 3.022 3 6.75 3"/><path stroke="currentColor" stroke-linecap="round" stroke-linejoin="round" d="M5.25 3.751v4.5c0 1.657 3.022 3 6.75 3s6.75-1.343 6.75-3v-4.5"/><path stroke="currentColor" stroke-linecap="round" stroke-linejoin="round" d="M5.25 8.251v4.5c0 1.657 3.022 3 6.75 3s6.75-1.343 6.75-3v-4.5"/></svg>
