<svg xmlns="http://www.w3.org/2000/svg" fill="none" stroke-width="1.5" viewBox="0 0 24 24"><path stroke="currentColor" stroke-linecap="round" stroke-linejoin="round" d="M22.455 21.75a1.5 1.5 0 0 1-1.5 1.5h-18a1.5 1.5 0 0 1-1.5-1.5V2.25a1.5 1.5 0 0 1 1.5-1.5h15A1.5 1.5 0 0 1 19 1.176l3 2.883a1.5 1.5 0 0 1 .453 1.073z"/><path stroke="currentColor" stroke-linecap="round" stroke-linejoin="round" d="M5.955 7.5v11.25h12"/><path stroke="currentColor" stroke-linecap="round" stroke-linejoin="round" d="m5.955 15.75 3.362-3.138a1.97 1.97 0 0 1 2.651 0l.726.678a1.96 1.96 0 0 0 1.555.5 1.89 1.89 0 0 0 1.379-.836L17.2 10.5"/></svg>
