<svg xmlns="http://www.w3.org/2000/svg" fill="none" stroke-width="1.5" viewBox="0 0 24 24"><path stroke="currentColor" stroke-linecap="round" stroke-linejoin="round" d="M7.5 14.25h9s.5 0 .5.5v8s0 .5-.5.5h-9s-.5 0-.5-.5v-8s0-.5.5-.5M4.25.75v3.93a2 2 0 0 0 1.42 1.89l1.6.43m.67 3-2.89.65a2 2 0 0 0-1.46 2.45L4 14.51m7.25-7.01a.75.75 0 1 0 1.5 0 .75.75 0 0 0-1.5 0"/><path stroke="currentColor" stroke-linecap="round" stroke-linejoin="round" d="M7.25 7.5a4.75 4.75 0 1 0 9.5 0 4.75 4.75 0 0 0-9.5 0M14 14.25v4.5h-4v-4.5M.75.76h7"/><path stroke="currentColor" stroke-linecap="round" stroke-linejoin="round" d="M19.75.75v3.93a2 2 0 0 1-1.42 1.89l-1.6.43m-.67 3 2.89.65a2 2 0 0 1 1.46 2.45L20 14.51M23.25.76h-7"/></svg>
