<svg xmlns="http://www.w3.org/2000/svg" fill="none" stroke-width="1.5" viewBox="0 0 24 24"><path stroke="currentColor" stroke-linecap="round" stroke-linejoin="round" d="M.75 7.5a6 6 0 1 0 12 0 6 6 0 0 0-12 0"/><path stroke="currentColor" stroke-linecap="round" stroke-linejoin="round" d="M4.098 7.5H6.75V4.848M14.25 12h1.5a1.5 1.5 0 0 1 1.5 1.5v5.288M7.5 21h-.75a1.5 1.5 0 0 1-1.5-1.5v-3m12-3h3a3 3 0 0 1 3 3v3a1.5 1.5 0 0 1-1.5 1.5h-2.288"/><path stroke="currentColor" stroke-linecap="round" stroke-linejoin="round" d="M15.75 20.625a1.875 1.875 0 1 0 3.75 0 1.875 1.875 0 0 0-3.75 0m-8.25 0a1.875 1.875 0 1 0 3.75 0 1.875 1.875 0 0 0-3.75 0m8.288.375H11.25m12-4.5h-3"/></svg>
