<svg xmlns="http://www.w3.org/2000/svg" fill="none" stroke-width="1.5" viewBox="0 0 24 24"><path stroke="currentColor" stroke-linecap="round" stroke-linejoin="round" d="M21.298 6.995a5.554 5.554 0 0 0-5.364-5.723 5.2 5.2 0 0 0-3.935 1.857 5.19 5.19 0 0 0-3.933-1.857 5.55 5.55 0 0 0-5.363 5.723 11.9 11.9 0 0 0 2.168 6.113 1.46 1.46 0 0 1 .16 1.41 12.2 12.2 0 0 0-.897 4.634v1.788a1.788 1.788 0 0 0 3.575 0 4.443 4.443 0 0 1 4.061-4.642 4.308 4.308 0 0 1 4.521 4.642 1.788 1.788 0 0 0 3.576 0v-1.793a12.1 12.1 0 0 0-1.013-4.907 1.46 1.46 0 0 1 .112-1.48 10.84 10.84 0 0 0 2.331-5.765"/><path stroke="currentColor" stroke-linecap="round" stroke-linejoin="round" d="M19.266 12.364h-4.55V8.401H9.218v3.963H4.375"/></svg>
