<svg xmlns="http://www.w3.org/2000/svg" fill="none" stroke-width="1.5" viewBox="0 0 24 24"><path stroke="currentColor" stroke-linecap="round" stroke-linejoin="round" d="M3 .75h18v6H3zm16.872 9.498A4.2 4.2 0 0 1 18 6.75H6a4.2 4.2 0 0 1-1.872 3.5l-.624.416a4.5 4.5 0 0 0-2 3.744v5.84a3 3 0 0 0 3 3h15a3 3 0 0 0 3-3v-5.842a4.5 4.5 0 0 0-2-3.744zM7.5.75v6m9-6v6m-4.5-6v6"/><path stroke="currentColor" stroke-linecap="round" stroke-linejoin="round" d="M14.25 16.5A2.025 2.025 0 0 1 12 18.75a2.025 2.025 0 0 1-2.25-2.25c0-1.657 2.25-3.75 2.25-3.75s2.25 2.093 2.25 3.75"/></svg>
