<svg xmlns="http://www.w3.org/2000/svg" fill="none" stroke-width="1.5" viewBox="0 0 24 24"><path stroke="currentColor" stroke-linecap="round" stroke-linejoin="round" d="M.75 3a2.25 2.25 0 1 0 4.5 0 2.25 2.25 0 0 0-4.5 0m9 0a2.25 2.25 0 1 0 4.5 0 2.25 2.25 0 0 0-4.5 0m9 0a2.25 2.25 0 1 0 4.5 0 2.25 2.25 0 0 0-4.5 0m-18 9a2.25 2.25 0 1 0 4.499 0A2.25 2.25 0 0 0 .75 12m9 0a2.25 2.25 0 1 0 4.5 0 2.25 2.25 0 0 0-4.5 0m9 0a2.25 2.25 0 1 0 4.5 0 2.25 2.25 0 0 0-4.5 0m-9 9a2.25 2.25 0 1 0 4.5 0 2.25 2.25 0 0 0-4.5 0"/></svg>
