<svg xmlns="http://www.w3.org/2000/svg" fill="none" stroke-width="1.5" viewBox="0 0 24 24"><path stroke="currentColor" stroke-linecap="round" stroke-linejoin="round" d="m6.75 22.5-1.9-3.327A2.263 2.263 0 0 1 8.7 16.8l1.8 2.7V8.25a2.25 2.25 0 0 1 4.5 0v8.25h3.379a4.33 4.33 0 0 1 4.121 4.347V22.5"/><path stroke="currentColor" d="M1.875 2.25a.375.375 0 1 1 0-.75m0 .75a.375.375 0 1 0 0-.75m5.25.75a.375.375 0 1 1 0-.75m0 .75a.375.375 0 1 0 0-.75m-5.25 6a.375.375 0 1 1 0-.75m0 .75a.375.375 0 1 0 0-.75m5.25.75a.375.375 0 1 1 0-.75m0 .75a.375.375 0 1 0 0-.75m-5.25 6a.375.375 0 0 1 0-.75m0 .75a.375.375 0 0 0 0-.75m5.25.75a.375.375 0 0 1 0-.75m0 .75a.375.375 0 0 0 0-.75m5.25-9.75a.375.375 0 0 1 0-.75m0 .75a.375.375 0 0 0 0-.75"/></svg>
