<svg xmlns="http://www.w3.org/2000/svg" fill="none" stroke-width="1.5" viewBox="0 0 24 24"><path stroke="currentColor" stroke-linecap="round" stroke-linejoin="round" d="m17.25 8.25-.774-3.04a.95.95 0 0 0-.926-.71h-2.118a1.432 1.432 0 0 1-2.864 0H8.45a.95.95 0 0 0-.926.71L6.75 8.25H9V12h6V8.25zm-9.75 15h9M.75 15h22.5"/><path stroke="currentColor" stroke-linecap="round" stroke-linejoin="round" d="M2.25.75h19.5s1.5 0 1.5 1.5v15s0 1.5-1.5 1.5H2.25s-1.5 0-1.5-1.5v-15s0-1.5 1.5-1.5M12 23.25v-4.5"/></svg>
