<svg xmlns="http://www.w3.org/2000/svg" fill="none" stroke-width="1.5" viewBox="0 0 24 24"><path stroke="currentColor" stroke-linecap="round" stroke-linejoin="round" d="M18.637 8.789 22.8 18.93a1.5 1.5 0 0 1-2.776 1.138l-2.467-6.02a5.255 5.255 0 0 1-5.958 1.285l-2.787-6.8a5.24 5.24 0 0 1 2.6-2.761 5.446 5.446 0 0 1 7.225 3.016"/><path stroke="currentColor" d="M13.307 10.875a.375.375 0 0 1 0-.75m0 .75a.375.375 0 0 0 0-.75"/><path stroke="currentColor" stroke-linecap="round" stroke-linejoin="round" d="M12.411 2.259A7 7 0 0 0 9.537.922a7.225 7.225 0 0 0-8.165 4.115 7.216 7.216 0 0 0 2.416 8.816 4.1 4.1 0 0 1 1.833 3.892 4.9 4.9 0 0 0 .05 1.666 4.82 4.82 0 0 0 5.054 3.827 4.824 4.824 0 0 0 4.48-4.486"/><path stroke="currentColor" stroke-linecap="round" stroke-linejoin="round" d="M7.98 3.76a4.216 4.216 0 0 0-2.457 7.65"/></svg>
