<svg xmlns="http://www.w3.org/2000/svg" fill="none" stroke-width="1.5" viewBox="0 0 24 24"><path stroke="currentColor" stroke-linecap="round" stroke-linejoin="round" d="M9.65 23a11.25 11.25 0 1 1 13.5-12.48"/><path stroke="currentColor" stroke-linecap="round" stroke-linejoin="round" d="m5 20.8 1-5.05h1.08a1.48 1.48 0 0 0 1.18-.58 1.44 1.44 0 0 0 .27-1.28l-.75-3a1.49 1.49 0 0 0-1.45-1.14H1m20-4.5h-4.08a1.49 1.49 0 0 0-1.45 1.14L15 8.23m3.75 6.02h-2a1.34 1.34 0 0 0-.5 2.59l2.06.82a1.34 1.34 0 0 1-.5 2.59h-2m1.44-6v-.75m0 7.5v-.75"/><path stroke="currentColor" stroke-linecap="round" stroke-linejoin="round" d="M11.25 17.25a6 6 0 1 0 12 0 6 6 0 0 0-12 0"/></svg>
