<svg xmlns="http://www.w3.org/2000/svg" fill="none" stroke-width="1.5" viewBox="0 0 24 24"><path stroke="currentColor" stroke-linecap="round" stroke-linejoin="round" d="m.985 14.54 1.059-1.058s.53-.53 1.06 0l7.414 7.414s.53.53 0 1.06l-1.06 1.059s-.53.53-1.059 0L.985 15.6s-.53-.53 0-1.06M13.483 2.045l1.059-1.06s.53-.53 1.059 0L23.015 8.4s.53.53 0 1.06l-1.059 1.058s-.53.53-1.06 0l-7.414-7.414s-.53-.53 0-1.06"/><path stroke="currentColor" stroke-linecap="round" stroke-linejoin="round" d="m3.632 14.012 10.38-10.38 6.355 6.356-10.38 10.38z"/><path stroke="currentColor" stroke-linecap="round" stroke-linejoin="round" d="m17.19 6.81-2.6 2.6-.529 2.648H9.825l-.53 2.647L6.81 17.19"/></svg>
