<svg xmlns="http://www.w3.org/2000/svg" fill="none" stroke-width="1.5" viewBox="0 0 24 24"><path stroke="currentColor" stroke-linecap="round" stroke-linejoin="round" d="M3.179 15.362 4.214 4.49h4.75l.872 9.149M.75 23.24h22.5V11.6a1.11 1.11 0 0 0-1.387-1.073L1.5 15.8a1 1 0 0 0-.749.969zM8.005.879A6.9 6.9 0 0 1 11 1.5C18.429 4.672 21.5.76 21.5.76"/><path stroke="currentColor" stroke-linecap="round" stroke-linejoin="round" d="M19.75 23.241h-5v-4.5a1 1 0 0 1 1-1h3a1 1 0 0 1 1 1zm-8.5-4.001h-1.5m-3.5 0h-1.5"/></svg>
