<svg xmlns="http://www.w3.org/2000/svg" fill="none" stroke-width="1.5" viewBox="0 0 24 24"><path stroke="currentColor" stroke-linecap="round" stroke-linejoin="round" d="m9.25 18.876-6.512-4.682m3.002-2.673 5.143 3.813M.751 11.751a2.5 2.5 0 1 0 5 0 2.5 2.5 0 0 0-5 0m4.886-.746 5.611-5.465m-.856-3.962L1.257 10.25m8.492-7a2.5 2.5 0 1 0 5 0 2.5 2.5 0 0 0-5 0m6.545 4.132-2.3-2.35m1.756 3.719a2 2 0 1 0 4 0 2 2 0 0 0-4 0"/><path stroke="currentColor" stroke-linecap="round" stroke-linejoin="round" d="M19.7 8.3a3 3 0 0 1 3.55 2.951m-3 3A3 3 0 0 1 17.3 10.7M1 23.251h22m-13.75 0V18a3 3 0 0 1 6 0v5.25"/></svg>
