<svg xmlns="http://www.w3.org/2000/svg" fill="none" stroke-width="1.5" viewBox="0 0 24 24"><path stroke="currentColor" stroke-linecap="round" stroke-linejoin="round" d="M13.34 1.76a1.49 1.49 0 0 0-2.68 0L1.09 20.9a1.5 1.5 0 0 0 1.34 2.17h19.14a1.5 1.5 0 0 0 1.34-2.17z"/><path stroke="currentColor" stroke-linecap="round" stroke-linejoin="round" d="M13.25 12.32a1.5 1.5 0 1 0 0-3 1.5 1.5 0 0 0 0 3"/><path stroke="currentColor" d="M7.316 15.745a.375.375 0 0 1 0-.75m0 .75a.375.375 0 0 0 0-.75"/><path stroke="currentColor" stroke-linecap="round" stroke-linejoin="round" d="M8.75 12.32 9.8 13.9a1.5 1.5 0 0 0 1.25.67H14a1.5 1.5 0 0 1 1.25.67l1.05 1.58"/><path stroke="currentColor" stroke-linecap="round" stroke-linejoin="round" d="m12.5 14.57-1.21 3.62a1.49 1.49 0 0 0 .37 1.54l.84.84"/><path stroke="currentColor" stroke-linecap="round" stroke-linejoin="round" d="m8 19.82.41-1.22a1.5 1.5 0 0 1 1.42-1h1.67"/></svg>
