<svg xmlns="http://www.w3.org/2000/svg" fill="none" stroke-width="1.5" viewBox="0 0 24 24"><path stroke="currentColor" stroke-linecap="round" stroke-linejoin="round" d="M2.731 18.33h18.538m-12.53-3.486L7.057 2.307a.754.754 0 0 1 .669-.84l2.309-.29a.77.77 0 0 1 .869.647L12.728 15.4M3.267 9.331l-.808-3.495a.745.745 0 0 1 .48-.875L7.2 3.4m7.443 11.5 1.691-12.593a.75.75 0 0 0-.669-.84l-2.308-.29a.77.77 0 0 0-.87.647L11.7 7.717m8.425 1.613.807-3.494a.745.745 0 0 0-.48-.875L16.188 3.4"/><path stroke="currentColor" stroke-linecap="round" stroke-linejoin="round" d="M23.07 9.626a.83.83 0 0 0-.638-.3H19.4a.765.765 0 0 0-.765.635 6.71 6.71 0 0 1-6.871 5.5 6.71 6.71 0 0 1-6.87-5.5.77.77 0 0 0-.766-.635h-2.56a.83.83 0 0 0-.638.3.77.77 0 0 0-.16.667l2.908 11.918a.81.81 0 0 0 .8.619h15.046a.81.81 0 0 0 .8-.619l2.909-11.918a.78.78 0 0 0-.163-.667"/></svg>
