<svg xmlns="http://www.w3.org/2000/svg" fill="none" stroke-width="1.5" viewBox="0 0 24 24"><path stroke="currentColor" stroke-linecap="round" stroke-linejoin="round" d="m22.63 14.871-7.631 7.627-3.75.75.75-3.75 7.63-7.631a2.115 2.115 0 0 1 2.992 0l.009.009a2.115 2.115 0 0 1 0 2.995M8.249 20.252h-6a1.5 1.5 0 0 1-1.5-1.5v-16.5a1.5 1.5 0 0 1 1.5-1.5h10.629a1.5 1.5 0 0 1 1.06.439l2.874 2.871a1.5 1.5 0 0 1 .439 1.061v3.129"/><path stroke="currentColor" stroke-linecap="round" stroke-linejoin="round" d="m8.999 6.002 2.25 2.25-2.25 2.25m-3-4.5-2.25 2.25 2.25 2.25"/></svg>
