<svg xmlns="http://www.w3.org/2000/svg" fill="none" stroke-width="1.5" viewBox="0 0 24 24"><path stroke="currentColor" stroke-linecap="round" stroke-linejoin="round" d="M18.73 12a1.96 1.96 0 1 0 3.92 0 1.96 1.96 0 0 0-3.92 0m-9.78 0a1.47 1.47 0 1 0 2.94 0 1.47 1.47 0 0 0-2.94 0M6 12.75a.751.751 0 1 1 .02 0m-3.92 0a.75.75 0 1 1 0-1.5.75.75 0 0 1 0 1.5m6.85 4.14a1.47 1.47 0 1 0 2.94 0 1.47 1.47 0 0 0-2.94 0M6 17.64a.75.75 0 1 1 0-1.5.75.75 0 0 1 0 1.5M8.95 7.11a1.47 1.47 0 1 0 2.94 0 1.47 1.47 0 0 0-2.94 0M13.84 12a1.47 1.47 0 1 0 2.94 0 1.47 1.47 0 0 0-2.94 0m0 4.89a1.47 1.47 0 1 0 2.94 0 1.47 1.47 0 0 0-2.94 0m0-9.78a1.47 1.47 0 1 0 2.94 0 1.47 1.47 0 0 0-2.94 0M8.95 2.22a1.47 1.47 0 1 0 2.94 0 1.47 1.47 0 0 0-2.94 0m0 19.56a1.47 1.47 0 1 0 2.94 0 1.47 1.47 0 0 0-2.94 0M6 7.86a.75.75 0 1 1 0-1.5.75.75 0 0 1 0 1.5"/></svg>
