<svg xmlns="http://www.w3.org/2000/svg" fill="none" stroke-width="1.5" viewBox="0 0 24 24"><path stroke="currentColor" stroke-linecap="round" stroke-linejoin="round" d="m9.143 17.248 4.404.527.665-4.447M.75 9.748v-7.5a1.5 1.5 0 0 1 1.5-1.5h19.5a1.5 1.5 0 0 1 1.5 1.5v7.5m-22.5 3h4.5m12 0h6m-22.5 4.5v-1.5m22.5 1.5v-1.5m-18 7.5h1.5m4.5 0h1.5m4.5 0h1.5m-16.5 0a1.5 1.5 0 0 1-1.5-1.5m22.5 0a1.5 1.5 0 0 1-1.5 1.5"/><path stroke="currentColor" stroke-linecap="round" stroke-linejoin="round" d="M15 5.633A6.75 6.75 0 0 0 10.5 12a7.2 7.2 0 0 0 3.047 5.777"/></svg>
