<svg xmlns="http://www.w3.org/2000/svg" fill="none" stroke-width="1.5" viewBox="0 0 24 24"><path stroke="currentColor" stroke-linecap="round" stroke-linejoin="round" d="M12.831 6.333a2 2 0 0 1-1.663 0C6.1 4.018 2.5 6.608 2.5 13.25a9.76 9.76 0 0 0 9.5 10 9.76 9.76 0 0 0 9.5-10 10.35 10.35 0 0 0-1.286-5.535m-4.79-1.639c.186.185.434.305.73.352.295.048.634.021.995-.077a4.3 4.3 0 0 0 1.11-.497c.37-.229.729-.514 1.054-.839s.61-.683.84-1.055.397-.748.496-1.11c.098-.36.125-.699.078-.994a1.3 1.3 0 0 0-.353-.73 1.3 1.3 0 0 0-.73-.353 2.4 2.4 0 0 0-.995.078 4.3 4.3 0 0 0-1.11.496c-.371.23-.73.515-1.054.84s-.61.683-.84 1.054c-.23.372-.398.749-.496 1.11-.099.36-.125.7-.078.995s.167.544.353.73M12 6.514V2.25"/><path stroke="currentColor" stroke-linecap="round" stroke-linejoin="round" d="M12 6.514a8.72 8.72 0 0 0-3.5 7.236 14.03 14.03 0 0 0 3.5 9.5"/></svg>
