<svg xmlns="http://www.w3.org/2000/svg" fill="none" stroke-width="1.5" viewBox="0 0 24 24"><path stroke="currentColor" stroke-linecap="round" stroke-linejoin="round" d="M11.25 6.749H12a.75.75 0 0 1 .75.75v5.25m-1.5 0h3m-9.533.401L.75 18l3.75.75 1.5 4.5 3.99-6.332m9.293-3.768L23.25 18l-3.75.75-1.5 4.5-3.99-6.332"/><path stroke="currentColor" stroke-linecap="round" stroke-linejoin="round" d="M12.471.915 14.318 2.4l2.369-.118a.75.75 0 0 1 .761.553l.62 2.289 1.986 1.3a.75.75 0 0 1 .29.895L19.5 9.536l.844 2.216a.75.75 0 0 1-.29.895l-1.986 1.3-.62 2.29a.75.75 0 0 1-.761.553l-2.369-.118-1.847 1.488a.75.75 0 0 1-.942 0l-1.847-1.491-2.369.118a.75.75 0 0 1-.761-.553l-.62-2.29-1.986-1.3a.75.75 0 0 1-.29-.895L4.5 9.536l-.844-2.217a.75.75 0 0 1 .29-.895l1.986-1.3.62-2.29a.75.75 0 0 1 .761-.552l2.369.118L11.529.915a.75.75 0 0 1 .942 0"/></svg>
