<svg xmlns="http://www.w3.org/2000/svg" fill="none" stroke-width="1.5" viewBox="0 0 24 24"><path stroke="currentColor" stroke-linecap="round" stroke-linejoin="round" d="m11.382 23.023-3.715-3.03a1.605 1.605 0 0 1 1.72-2.69l1.152.577v-6.615a1.47 1.47 0 0 1 2.94 0v4.41l1.953.327a2.94 2.94 0 0 1 2.457 2.9v4.123"/><path stroke="currentColor" stroke-linecap="round" stroke-linejoin="round" d="M19.484 14.436c3.58-5.76-.42-13.237-7.2-13.456C7.308.819 3.186 4.813 3.19 9.793c0 1.838.58 3.628 1.656 5.118"/><path stroke="currentColor" stroke-linecap="round" stroke-linejoin="round" d="M16.223 12.733c2.272-3.244.18-7.73-3.765-8.077s-6.786 3.71-5.113 7.299q.191.409.45.778"/></svg>
