<svg xmlns="http://www.w3.org/2000/svg" fill="none" stroke-width="1.5" viewBox="0 0 24 24"><path stroke="currentColor" stroke-linecap="round" stroke-linejoin="round" d="M12 17.25a8.25 8.25 0 1 0 0-16.5 8.25 8.25 0 0 0 0 16.5m-6 1.267a11.25 11.25 0 0 0 12 0m-6 1.733v3"/><path stroke="currentColor" d="M13.5 11.625a.375.375 0 0 1 0-.75m0 .75a.375.375 0 0 0 0-.75m-1.5 3.75a.375.375 0 0 1 0-.75m0 .75a.375.375 0 0 0 0-.75m3.75 0a.375.375 0 0 1 0-.75m0 .75a.375.375 0 0 0 0-.75m1.5-2.25a.375.375 0 0 1 0-.75m0 .75a.375.375 0 0 0 0-.75"/></svg>
