<svg xmlns="http://www.w3.org/2000/svg" fill="none" stroke-width="1.5" viewBox="0 0 24 24"><path stroke="currentColor" stroke-linecap="round" stroke-linejoin="round" stroke-miterlimit="10" d="M11.953 8.35c3.642 0 6.594-1.701 6.594-3.8S15.595.75 11.953.75C8.312.75 5.36 2.451 5.36 4.55s2.952 3.8 6.594 3.8"/><path stroke="currentColor" stroke-linecap="round" stroke-linejoin="round" stroke-miterlimit="10" d="m18.55 4.55 2.7 14c.2 1.2-.1 2.4-.9 3.3s-1.9 1.4-3.1 1.4H6.75c-1.2 0-2.3-.5-3.1-1.4s-1.1-2.1-.9-3.3l2.6-14m-1.95 11h17.2"/><path stroke="currentColor" stroke-linecap="round" stroke-linejoin="round" stroke-miterlimit="10" d="M9.688 4.925a.375.375 0 1 1 0-.75m0 .75a.375.375 0 1 0 0-.75m4.625.75a.375.375 0 0 1 0-.75m0 .75a.375.375 0 0 0 0-.75"/></svg>
