<svg xmlns="http://www.w3.org/2000/svg" fill="none" stroke-width="1.5" viewBox="0 0 24 24"><path stroke="currentColor" stroke-linecap="round" stroke-linejoin="round" d="M23.225 10.762h-5.2a6 6 0 1 1-12 0H.775"/><path stroke="currentColor" stroke-linecap="round" stroke-linejoin="round" d="M8.275 10.012a3.75 3.75 0 0 0 7.5 0c0-2.655-2.937-3.548-2.053-7.877a.75.75 0 0 0-1.208-.735 12.3 12.3 0 0 0-4.239 8.612"/><path stroke="currentColor" d="M1.525 22.387a.375.375 0 0 1 0-.75m0 .75a.375.375 0 0 0 0-.75m6.75.75a.375.375 0 0 1 0-.75m0 .75a.375.375 0 0 0 0-.75m7.5.75a.375.375 0 0 1 0-.75m0 .75a.375.375 0 0 0 0-.75m6.75.75a.375.375 0 0 1 0-.75m0 .75a.375.375 0 0 0 0-.75m0-6.75a.375.375 0 0 1 0-.75m0 .75a.375.375 0 0 0 0-.75m-3 4.5a.375.375 0 0 1 0-.75m0 .75a.375.375 0 0 0 0-.75m-15 .75a.375.375 0 0 1 0-.75m0 .75a.375.375 0 0 0 0-.75m-3-3a.375.375 0 0 1 0-.75m0 .75a.375.375 0 0 0 0-.75"/></svg>
