<svg xmlns="http://www.w3.org/2000/svg" fill="none" stroke-width="1.5" viewBox="0 0 24 24"><path stroke="currentColor" stroke-linecap="round" stroke-linejoin="round" d="m8.999 7.501 3 3 3-3m-3 3V.751m-3 18h-3.75"/><path stroke="currentColor" d="M15.374 19.126a.375.375 0 0 1 0-.75m0 .75a.375.375 0 0 0 0-.75m3.75.75a.375.375 0 0 1 0-.75m0 .75a.375.375 0 0 0 0-.75"/><path stroke="currentColor" stroke-linecap="round" stroke-linejoin="round" d="M18.749 23.251h-13.5a4.5 4.5 0 0 1 0-9h13.5a4.5 4.5 0 1 1 0 9"/></svg>
