<svg xmlns="http://www.w3.org/2000/svg" fill="none" stroke-width="1.5" viewBox="0 0 24 24"><path stroke="currentColor" stroke-linecap="round" stroke-linejoin="round" d="M13.083 9.951A2.05 2.05 0 0 1 11.035 12H8.303V7.903h2.732a2.05 2.05 0 0 1 2.048 2.048m0 4.098a2.05 2.05 0 0 1-2.048 2.048H8.303V12h2.732a2.05 2.05 0 0 1 2.048 2.049M1 7.903v8.194m4.78-8.194v8.194M1 12h4.78m13.123 4.097a4.097 4.097 0 1 0 0-8.194 4.097 4.097 0 0 0 0 8.194"/><path stroke="currentColor" stroke-linecap="round" stroke-linejoin="round" d="M18.903 14a2 2 0 1 0 0-4 2 2 0 0 0 0 4"/></svg>
