<svg xmlns="http://www.w3.org/2000/svg" fill="none" stroke-width="1.5" viewBox="0 0 24 24"><path stroke="currentColor" stroke-linecap="round" stroke-linejoin="round" stroke-miterlimit="10" d="M5.053 8.922a6.98 6.98 0 0 1 7.011-7.002c5.606 0 9.178 7.36 5.327 11.559-.223.333-.556.556-.778.778-1.112.89-1.779 2.334-1.779 3.779 0 2.667-2.223 4.89-4.89 4.89a4.87 4.87 0 0 1-3.302-1.307"/><path stroke="currentColor" stroke-linecap="round" stroke-linejoin="round" stroke-miterlimit="10" d="M8.776 8.922c0-1.817 1.413-3.23 3.23-3.23.614 0 1.181.173 1.664.468"/><path stroke="currentColor" stroke-linecap="round" stroke-linejoin="round" d="m1.074 22.927 10.502-10.503m11.35-11.35-4.748 4.748"/></svg>
