<svg xmlns="http://www.w3.org/2000/svg" fill="none" stroke-width="1.5" viewBox="0 0 24 24"><path stroke="currentColor" stroke-linecap="round" stroke-linejoin="round" d="M3 23.25a2.25 2.25 0 1 0 0-4.5 2.25 2.25 0 0 0 0 4.5m1.68-3.75L6.75 18M3 5.25a2.25 2.25 0 1 0 0-4.5 2.25 2.25 0 0 0 0 4.5m1.68-.75L6.75 6M21 23.25a2.25 2.25 0 1 0 0-4.5 2.25 2.25 0 0 0 0 4.5m-1.68-3.75L17.25 18M21 5.25a2.25 2.25 0 1 0 0-4.5 2.25 2.25 0 0 0 0 4.5m-1.68-.75L17.25 6"/><path stroke="currentColor" d="M11.944 19.005a.375.375 0 0 1 0-.75m0 .75a.375.375 0 0 0 0-.75"/><path stroke="currentColor" stroke-linecap="round" stroke-linejoin="round" d="M9 10.75a3 3 0 1 1 4 2.83A1.5 1.5 0 0 0 12 15v.64"/></svg>
