<svg xmlns="http://www.w3.org/2000/svg" fill="none" stroke-width="1.5" viewBox="0 0 24 24"><path stroke="currentColor" stroke-linecap="round" stroke-linejoin="round" d="M1.5.75v22.5M6 6.75H1.5M6 17.25H1.5m17.25-7.5H16.5V7.5a.75.75 0 0 0-.75-.75h-3a.75.75 0 0 0-.75.75v2.25H9.75a.75.75 0 0 0-.75.75v3a.75.75 0 0 0 .75.75H12v2.25a.75.75 0 0 0 .75.75h3a.75.75 0 0 0 .75-.75v-2.25h2.25a.75.75 0 0 0 .75-.75v-3a.75.75 0 0 0-.75-.75"/><path stroke="currentColor" stroke-linecap="round" stroke-linejoin="round" d="M7 3.75h14.5s1 0 1 1v14.5s0 1-1 1H7s-1 0-1-1V4.75s0-1 1-1"/></svg>
