<svg xmlns="http://www.w3.org/2000/svg" fill="none" stroke-width="1.5" viewBox="0 0 24 24"><path stroke="currentColor" stroke-linecap="round" stroke-linejoin="round" d="M9.749 9.75a2.25 2.25 0 1 0 4.499 0 2.25 2.25 0 0 0-4.499 0m6 6a4.05 4.05 0 0 0-3.75-3 4.05 4.05 0 0 0-3.75 3m1.875-13.125a1.875 1.875 0 1 0 3.75 0 1.875 1.875 0 0 0-3.75 0M19.499 12a1.875 1.875 0 1 0 3.75 0 1.875 1.875 0 0 0-3.75 0m-9.375 9.375a1.875 1.875 0 1 0 3.75 0 1.875 1.875 0 0 0-3.75 0M.749 12a1.875 1.875 0 1 0 3.75 0 1.875 1.875 0 0 0-3.75 0M16.5 4.2a9.04 9.04 0 0 1 3.3 3.3m0 9a9.04 9.04 0 0 1-3.3 3.3m-9 0a9.04 9.04 0 0 1-3.3-3.3m0-9a9.04 9.04 0 0 1 3.3-3.3"/></svg>
