<svg xmlns="http://www.w3.org/2000/svg" fill="none" stroke-width="1.5" viewBox="0 0 24 24"><path stroke="currentColor" stroke-linecap="round" stroke-linejoin="round" d="M23.25 23.25a6.72 6.72 0 0 0-6.34-4.5 6.72 6.72 0 0 0-6.34 4.5M13.35 11a6.85 6.85 0 0 0 4.93 2.09 6.9 6.9 0 0 0 2.72-.52"/><path stroke="currentColor" stroke-linecap="round" stroke-linejoin="round" d="M12.79 13.12a4.12 4.12 0 1 0 8.24 0 4.12 4.12 0 0 0-8.24 0m3.99 5.63v4.5"/><path stroke="currentColor" stroke-linecap="round" stroke-linejoin="round" d="M5.74 21.35A11.25 11.25 0 1 1 22.89 9.18"/><path stroke="currentColor" stroke-linecap="round" stroke-linejoin="round" d="M8 19.4a26.1 26.1 0 0 1-.9-11.84 16.1 16.1 0 0 1 2.19-6.48M.77 11.25h8.98M2.48 6h19.04M1.69 16.5h8.06m4.96-15.42A14.3 14.3 0 0 1 16.63 6"/></svg>
