<svg xmlns="http://www.w3.org/2000/svg" fill="none" stroke-width="1.5" viewBox="0 0 24 24"><path stroke="currentColor" stroke-linecap="round" stroke-linejoin="round" d="M14.249 20.25h-1a.51.51 0 0 1-.5-.519V3.518a.51.51 0 0 1 .5-.518h1m-3.75 9h2.25m4.5-9a2.25 2.25 0 1 0 4.5 0 2.25 2.25 0 0 0-4.5 0m6 6A4.05 4.05 0 0 0 19.5 6a4.05 4.05 0 0 0-3.75 3zm-6 8.25a2.249 2.249 0 1 0 4.498 0 2.249 2.249 0 0 0-4.498 0m6 6a4.05 4.05 0 0 0-3.75-3 4.05 4.05 0 0 0-3.75 3zM2.249 9a3 3 0 1 0 6 0 3 3 0 0 0-6 0m-1.5 9a4.5 4.5 0 1 1 9 0z"/></svg>
