<svg xmlns="http://www.w3.org/2000/svg" fill="none" stroke-width="1.5" viewBox="0 0 24 24"><path stroke="currentColor" stroke-linecap="round" stroke-linejoin="round" d="M9.67 4.5 11.92 6l2.25-1.5M11.92 15V3M9.67 13.5l2.25-1.5 2.25 1.5m2.25-6.75L14.92 9l1.5 2.25M5.92 9h12M7.42 6.75 8.92 9l-1.5 2.25M.75 21a5.51 5.51 0 0 0 4.5-1.5 4.55 4.55 0 0 0 6.75 0 4.55 4.55 0 0 0 6.75 0 5.51 5.51 0 0 0 4.5 1.5M7.5 15.6a5 5 0 0 1-2.25-1.35 5.51 5.51 0 0 1-4.5 1.5m22.5 0a5.51 5.51 0 0 1-4.5-1.5 5 5 0 0 1-2.25 1.35"/></svg>
