<svg xmlns="http://www.w3.org/2000/svg" fill="none" stroke-width="1.5" viewBox="0 0 24 24"><path stroke="currentColor" stroke-linecap="round" stroke-linejoin="round" d="m17.94 11.678 1.542 3.32h3A.735.735 0 0 1 23 16.281l-2.6 2.563 1.442 3.313a.786.786 0 0 1-1.12.982l-3.488-1.958-3.487 1.961a.787.787 0 0 1-1.12-.982l1.444-3.313-2.6-2.563a.734.734 0 0 1 .51-1.286h3l1.545-3.323a.8.8 0 0 1 1.415.003"/><path stroke="currentColor" stroke-linecap="round" stroke-linejoin="round" d="M8.25 20.25h-6a1.5 1.5 0 0 1-1.5-1.5V2.25a1.5 1.5 0 0 1 1.5-1.5h10.629a1.5 1.5 0 0 1 1.06.439l2.872 2.872a1.5 1.5 0 0 1 .439 1.06V8.25"/><path stroke="currentColor" d="M5.25 6.375a.375.375 0 1 1 0-.75m0 .75a.375.375 0 1 0 0-.75"/><path stroke="currentColor" stroke-linecap="round" stroke-linejoin="round" d="M12.646 10.483 11.25 8.25a.75.75 0 0 0-1.238-.014l-2 2.85L6.78 10.1a.75.75 0 0 0-1.093.169l-1.937 3.98h4.5"/></svg>
