<svg xmlns="http://www.w3.org/2000/svg" fill="none" stroke-width="1.5" viewBox="0 0 24 24"><path stroke="currentColor" stroke-linecap="round" stroke-linejoin="round" d="M3.5 12S6.9 7 12 7s8.5 5 8.5 5-3.4 5-8.5 5-8.5-5-8.5-5"/><path stroke="currentColor" stroke-linecap="round" stroke-linejoin="round" d="M12 10s2 0 2 2c0 0 0 2-2 2 0 0-2 0-2-2 0 0 0-2 2-2M.75 4.5V2.25a1.5 1.5 0 0 1 1.5-1.5H4.5M23.25 4.5V2.25a1.5 1.5 0 0 0-1.5-1.5H19.5M.75 19.5v2.25a1.5 1.5 0 0 0 1.5 1.5H4.5m18.75-3.75v2.25a1.5 1.5 0 0 1-1.5 1.5H19.5"/></svg>
