<svg xmlns="http://www.w3.org/2000/svg" fill="none" stroke-width="1.5" viewBox="0 0 24 24"><path stroke="currentColor" stroke-linecap="round" stroke-linejoin="round" d="M4.5 1.497h15s3 0 3 3v15s0 3-3 3h-15s-3 0-3-3v-15s0-3 3-3"/><path stroke="currentColor" stroke-linecap="round" stroke-linejoin="round" d="M6.75 14.997h10.5s.75 0 .75.75v1.5s0 .75-.75.75H6.75s-.75 0-.75-.75v-1.5s0-.75.75-.75m4.72-8.47-4.83 4.83a.375.375 0 0 0 .265.64H17.1a.375.375 0 0 0 .265-.64l-4.83-4.83a.75.75 0 0 0-1.065 0"/></svg>
