<svg xmlns="http://www.w3.org/2000/svg" fill="none" stroke-width="1.5" viewBox="0 0 24 24"><path stroke="currentColor" stroke-linecap="round" stroke-linejoin="round" d="m10.9 15.225-7.385 7.382a1.5 1.5 0 1 1-2.122-2.122L8.775 13.1"/><path stroke="currentColor" stroke-linecap="round" stroke-linejoin="round" d="m22.607 7.757-3.182-3.182-3.182-3.182a1.5 1.5 0 0 0-2.122 0l-3.244 3.244a8.8 8.8 0 0 0-2.144 8.424l1.1 1.1 1.1 1.1a8.8 8.8 0 0 0 8.424-2.144l3.244-3.244a1.5 1.5 0 0 0 .006-2.116M4.575 17.303l2.122 2.122m8.485-14.85L11.47 8.288m5.833-1.591-3.712 3.712m5.834-1.591-3.713 3.712"/></svg>
