<svg xmlns="http://www.w3.org/2000/svg" fill="none" stroke-width="1.5" viewBox="0 0 24 24"><path stroke="currentColor" stroke-linecap="round" stroke-linejoin="round" d="M1.81 21.66a1.6 1.6 0 0 0 1.6 1.6h11.87a1.6 1.6 0 0 0 1.19-.54 1.53 1.53 0 0 0 .39-1.24A15.15 15.15 0 0 0 3.59 8.21a1.57 1.57 0 0 0-1.24.39 1.6 1.6 0 0 0-.54 1.19zM5 16.88l3.19-3.19m0 6.38 3.19-3.19m5.31-15.1-.91-.85a.76.76 0 0 0-1.06.07l-4.29 4.78 2 1.85 4.29-4.79a.75.75 0 0 0-.03-1.06"/><path stroke="currentColor" stroke-linecap="round" stroke-linejoin="round" d="m7.4 9.17 3-3.39 3 2.71a1 1 0 0 1 .16 1.21s-.83 1-1.87 2.11m10.25-4.45L21 6.52a.76.76 0 0 0-1 .05l-4.28 4.79 2 1.85L22 8.42a.76.76 0 0 0-.06-1.06"/><path stroke="currentColor" stroke-linecap="round" stroke-linejoin="round" d="m13.58 13.71 2.1-2.35 3 2.72a.93.93 0 0 1 .15 1.21l-2.71 3.05"/></svg>
