<svg xmlns="http://www.w3.org/2000/svg" fill="none" stroke-width="1.5" viewBox="0 0 24 24"><path stroke="currentColor" stroke-linecap="round" stroke-linejoin="round" d="M6.75 8.25h-1.5a1.5 1.5 0 0 0-1.5 1.5v6a1.5 1.5 0 0 0 1.5 1.5h13.5a1.5 1.5 0 0 0 1.5-1.5v-6a1.5 1.5 0 0 0-1.5-1.5h-1.5m2.999 15H3.751a1.5 1.5 0 0 1-1.4-2.026l.953-3a1.5 1.5 0 0 1 1.4-.974h14.42a1.5 1.5 0 0 1 1.4.974l1.125 3a1.5 1.5 0 0 1-1.4 2.026m-9.748-3h3m-1.5-19.5V13.5"/><path stroke="currentColor" stroke-linecap="round" stroke-linejoin="round" d="m15.001 10.5-3 3-3-3"/></svg>
