<svg xmlns="http://www.w3.org/2000/svg" fill="none" stroke-width="1.5" viewBox="0 0 24 24"><path stroke="currentColor" stroke-linecap="round" stroke-linejoin="round" d="M22.91 6.953 12.7 1.672a1.54 1.54 0 0 0-1.416 0L1.076 6.953a.615.615 0 0 0 0 1.094l10.209 5.281a1.54 1.54 0 0 0 1.416 0L22.91 8.047a.616.616 0 0 0 0-1.094"/><path stroke="currentColor" stroke-linecap="round" stroke-linejoin="round" d="m.758 12.75 10.527 5.078a1.54 1.54 0 0 0 1.416 0l10.557-5.078"/><path stroke="currentColor" stroke-linecap="round" stroke-linejoin="round" d="m.758 17.25 10.527 5.078a1.54 1.54 0 0 0 1.416 0l10.557-5.078"/></svg>
