<svg xmlns="http://www.w3.org/2000/svg" fill="none" stroke-width="1.5" viewBox="0 0 24 24"><path stroke="currentColor" stroke-linecap="round" stroke-linejoin="round" d="M22.25.75H1.75a1 1 0 0 0-1 1v20.5a1 1 0 0 0 1 1h20.5a1 1 0 0 0 1-1V1.75a1 1 0 0 0-1-1"/><path stroke="currentColor" stroke-linecap="round" stroke-linejoin="round" d="M4.5 23.25V10.5a.75.75 0 0 1 .75-.75h10.5a.75.75 0 0 1 .75.75v12.75m-6-13.5v13.5"/><path stroke="currentColor" d="M19.875 14.25a.375.375 0 0 1 0-.75m0 .75a.375.375 0 0 0 0-.75m0 4.5a.375.375 0 0 1 0-.75m0 .75a.375.375 0 0 0 0-.75"/><path stroke="currentColor" stroke-linecap="round" stroke-linejoin="round" d="M7.5 6h6"/></svg>
