<svg xmlns="http://www.w3.org/2000/svg" fill="none" stroke-width="1.5" viewBox="0 0 24 24"><path stroke="currentColor" stroke-linecap="round" stroke-linejoin="round" d="M6.75 13.55v-4.9h.7A3.5 3.5 0 0 0 11 5.15a1.4 1.4 0 0 1 1.4-1.4 1.9 1.9 0 0 1 1.9 1.9v.9c0 .41.27.7.9.7a2.1 2.1 0 0 1 2.09 2.31L17 11.73a2.8 2.8 0 0 1-2.78 2.52h-2.9a9.3 9.3 0 0 1-2.46-.59 3 3 0 0 0-.77-.11z"/><path stroke="currentColor" stroke-linecap="round" stroke-linejoin="round" d="M21.75 18.75h-10.5l-6 4.5v-4.5h-3a1.5 1.5 0 0 1-1.5-1.5v-15a1.5 1.5 0 0 1 1.5-1.5h19.5a1.5 1.5 0 0 1 1.5 1.5v15a1.5 1.5 0 0 1-1.5 1.5"/></svg>
