<svg xmlns="http://www.w3.org/2000/svg" fill="none" stroke-width="1.5" viewBox="0 0 24 24"><path stroke="currentColor" stroke-linecap="round" stroke-linejoin="round" d="M12.82 14.51 15.36 12l1.76.47a1.56 1.56 0 0 0 1.51-.47 1.58 1.58 0 0 0 .37-1.49l-.47-1.75.82-.76 1.76.47A1.56 1.56 0 0 0 22.62 8 1.58 1.58 0 0 0 23 6.52l-.47-1.75a2.355 2.355 0 1 0-3.33-3.33l-9.71 9.74a6.29 6.29 0 1 0 3.33 3.33"/><path stroke="currentColor" stroke-linecap="round" stroke-linejoin="round" d="M4.26 17.84a1.9 1.9 0 1 0 3.8 0 1.9 1.9 0 0 0-3.8 0"/></svg>
