<svg xmlns="http://www.w3.org/2000/svg" fill="none" stroke-width="1.5" viewBox="0 0 24 24"><path stroke="currentColor" stroke-linecap="round" stroke-linejoin="round" d="m12 21.844-9.588-10a5.672 5.672 0 0 1 3.102-9.613 5.67 5.67 0 0 1 4.92 1.588L12 5.384l1.566-1.565a5.673 5.673 0 0 1 8.023 8.022z"/><path stroke="currentColor" stroke-linecap="round" stroke-linejoin="round" d="m12 5.384 2.937 2.9a.75.75 0 0 1-.249 1.23L9.8 11.473a.751.751 0 0 0-.057 1.368l3.925 1.959a.75.75 0 0 1 .376.908L12 21.844"/></svg>
