<svg xmlns="http://www.w3.org/2000/svg" fill="none" stroke-width="1.5" viewBox="0 0 24 24"><path stroke="currentColor" stroke-linecap="round" stroke-linejoin="round" d="M.75 23.25V.75m0 19.543 3.154-.97a9.6 9.6 0 0 1 7.864 1 9.6 9.6 0 0 0 7.679 1.056l2.987-.853a1.126 1.126 0 0 0 .816-1.082V3.637a1.126 1.126 0 0 0-1.434-1.082l-2.369.677a9.62 9.62 0 0 1-7.679-1.056 9.6 9.6 0 0 0-7.864-1L.75 2.145"/><path stroke="currentColor" stroke-linecap="round" stroke-linejoin="round" d="m12 15.375-3.835-4A2.268 2.268 0 0 1 9.406 7.53a2.27 2.27 0 0 1 1.968.635l.626.626.626-.626a2.268 2.268 0 1 1 3.21 3.209z"/></svg>
