<svg xmlns="http://www.w3.org/2000/svg" fill="none" stroke-width="1.5" viewBox="0 0 24 24"><path stroke="currentColor" stroke-linecap="round" stroke-linejoin="round" d="M6.751 18.75a9.75 9.75 0 1 1 10.5 0"/><path stroke="currentColor" stroke-linecap="round" stroke-linejoin="round" d="M22.5 18.75h-6.314a.74.74 0 0 0-.632.346c-.271.443-.788 1.154-1.3 1.154H9.75c-.516 0-1.033-.711-1.3-1.154a.74.74 0 0 0-.632-.346H1.5a.75.75 0 0 0-.75.75v.75a3 3 0 0 0 3 3h16.5a3 3 0 0 0 3-3v-.75a.75.75 0 0 0-.75-.75M5.25 10.5a6.75 6.75 0 1 0 13.5 0 6.75 6.75 0 0 0-13.5 0"/></svg>
