<svg xmlns="http://www.w3.org/2000/svg" fill="none" stroke-width="1.5" viewBox="0 0 24 24"><path stroke="currentColor" stroke-linecap="round" stroke-linejoin="round" d="m8.53 11.112 5.806 5.807a.5.5 0 0 1 0 .708l-5.088 5.089a1 1 0 0 1-1.417 0l-5.098-5.1a1 1 0 0 1 0-1.416l5.088-5.088a.5.5 0 0 1 .708 0"/><path stroke="currentColor" stroke-linecap="round" stroke-linejoin="round" d="m13.594 7.495 4.357 4.357a.5.5 0 0 1 0 .708l-3.987 3.987-5.065-5.065 3.987-3.987a.5.5 0 0 1 .708 0"/><path stroke="currentColor" stroke-linecap="round" stroke-linejoin="round" d="m21.26 7.803-3.68 3.68-3.617-3.618 6.724-6.724a.512.512 0 0 1 .874.361v5.58c-.002.27-.11.53-.3.72"/></svg>
