<svg xmlns="http://www.w3.org/2000/svg" fill="none" stroke-width="1.5" viewBox="0 0 24 24"><path stroke="currentColor" stroke-linecap="round" stroke-linejoin="round" d="M19.5 3.75H21a1.5 1.5 0 0 1 1.5 1.5v16.5a1.5 1.5 0 0 1-1.5 1.5h-7.5m-3 0v-6h-3v-4.5h3v-6h3v-6"/><path stroke="currentColor" stroke-linecap="round" stroke-linejoin="round" d="m10.5 3.718 3-2.968 3 2.968M15 15.75v4.5M6.75 3.75H3a1.5 1.5 0 0 0-1.5 1.5v16.5a1.5 1.5 0 0 0 1.5 1.5h4.5v-3h-3V18M18 23.25v-9h1.5m3-3H15v1.5"/><path stroke="currentColor" stroke-linecap="round" stroke-linejoin="round" d="M4.5 7.5v2.25h2.25M18 11.25v-3"/></svg>
