<svg xmlns="http://www.w3.org/2000/svg" fill="none" stroke-width="1.5" viewBox="0 0 24 24"><path stroke="currentColor" stroke-linecap="round" stroke-linejoin="round" d="M14.422 3.75a1.5 1.5 0 0 1 0-3h6a1.5 1.5 0 0 1 0 3zm3 17.25a2.249 2.249 0 1 0 4.498 0 2.249 2.249 0 0 0-4.498 0M5.939 22.318a.75.75 0 0 1-.728.932H2.633a.75.75 0 0 1-.728-.932l.375-1.5a.75.75 0 0 1 .728-.568h1.828a.75.75 0 0 1 .728.568z"/><path stroke="currentColor" stroke-linecap="round" stroke-linejoin="round" d="M3.922 20.25 6.3 6.01a4.5 4.5 0 0 1 4.439-3.76h2.188"/><path stroke="currentColor" stroke-linecap="round" stroke-linejoin="round" d="M5.172 12.75h9.987a3 3 0 0 1 2.885 2.176l.948 3.93"/></svg>
