<svg xmlns="http://www.w3.org/2000/svg" fill="none" stroke-width="1.5" viewBox="0 0 24 24"><path stroke="currentColor" stroke-linecap="round" stroke-linejoin="round" d="M4.5 23.25v-1.5a1.5 1.5 0 0 1 1.5-1.5c.75 0 .75 3 7.5 3s9-6 9-9C22.5 7.5 18 3.75 12 3.75a1.5 1.5 0 0 1-1.5-1.5V.75"/><path stroke="currentColor" stroke-linecap="round" stroke-linejoin="round" d="M1.5 23.25v-1.5a4.505 4.505 0 0 1 4.5-4.5c1.5 0 6.144-5.633 4.737-10.682"/><path stroke="currentColor" stroke-linecap="round" stroke-linejoin="round" d="M12 6.75a4.505 4.505 0 0 1-4.5-4.5V.75m6 19.5c1.5 0 4.5-.75 4.5-3S15.75 15 15 15s-4.5 2.25-4.5 3.75 1.5 1.5 3 1.5"/></svg>
