<svg xmlns="http://www.w3.org/2000/svg" fill="none" stroke-width="1.5" viewBox="0 0 24 24"><path stroke="currentColor" stroke-linecap="round" stroke-linejoin="round" d="M21.75 18.75h-10.5l-6 4.5v-4.5h-3a1.5 1.5 0 0 1-1.5-1.5v-15a1.5 1.5 0 0 1 1.5-1.5h19.5a1.5 1.5 0 0 1 1.5 1.5v15a1.5 1.5 0 0 1-1.5 1.5"/><path stroke="currentColor" stroke-linecap="round" stroke-linejoin="round" d="M9.75 6.75a3 3 0 0 1 5.753-1.192c.218.505.294 1.06.218 1.605a3 3 0 0 1-1.971 2.416 1.5 1.5 0 0 0-1 1.414v.257"/><path stroke="currentColor" d="M12.75 15a.375.375 0 0 1 0-.75m0 .75a.375.375 0 0 0 0-.75"/></svg>
