<svg xmlns="http://www.w3.org/2000/svg" fill="none" stroke-width="1.5" viewBox="0 0 24 24"><path stroke="currentColor" stroke-linecap="round" stroke-linejoin="round" d="M20.692 18.995a2.44 2.44 0 0 0 .44-4.85q.056-.263.05-.53a2.94 2.94 0 0 0-2.93-2.94 2.9 2.9 0 0 0-2.25 1.06 3.43 3.43 0 0 0-6.56 1.39q-.24-.015-.48 0a2.938 2.938 0 0 0-2.87 4.1 2.94 2.94 0 0 0 2.87 1.77z"/><path stroke="currentColor" stroke-linecap="round" stroke-linejoin="round" d="M17.502 7.914a4.4 4.4 0 0 0-8.34.17 3.15 3.15 0 0 0-1.92-.64 3.18 3.18 0 0 0-3.18 3.17 3.5 3.5 0 0 0 .1.8 2.8 2.8 0 0 0-.59-.06 2.94 2.94 0 0 0 0 5.87"/></svg>
