<svg xmlns="http://www.w3.org/2000/svg" fill="none" stroke-width="1.5" viewBox="0 0 24 24"><path stroke="currentColor" stroke-linecap="round" stroke-linejoin="round" d="M15.12 12h8.13m-8.13-5h8.13M4 9l5 6m0-6-5 6M15.13 2.25V17h8.12"/><path stroke="currentColor" stroke-linecap="round" stroke-linejoin="round" d="M7 18v3a1 1 0 0 0 1 1h14.25a1 1 0 0 0 1-1V3a1 1 0 0 0-1-1H8a1 1 0 0 0-1 1v3"/><path stroke="currentColor" stroke-linecap="round" stroke-linejoin="round" d="M1.75 6h10s1 0 1 1v10s0 1-1 1h-10s-1 0-1-1V7s0-1 1-1"/></svg>
