<svg xmlns="http://www.w3.org/2000/svg" fill="none" stroke-width="1.5" viewBox="0 0 24 24"><path stroke="currentColor" stroke-linecap="round" stroke-linejoin="round" d="M3.75 11.25h16.5"/><path stroke="currentColor" d="M12 19.5a.375.375 0 0 1 0-.75m0 .75a.375.375 0 0 0 0-.75m-4.125.75a.375.375 0 0 1 0-.75m0 .75a.375.375 0 0 0 0-.75m8.25.75a.375.375 0 0 1 0-.75m0 .75a.375.375 0 0 0 0-.75m-4.125-3a.375.375 0 0 1 0-.75m0 .75a.375.375 0 0 0 0-.75m-4.125.75a.375.375 0 0 1 0-.75m0 .75a.375.375 0 0 0 0-.75m8.25.75a.375.375 0 0 1 0-.75m0 .75a.375.375 0 0 0 0-.75"/><path stroke="currentColor" stroke-linecap="round" stroke-linejoin="round" d="M18.75.75H5.25a1.5 1.5 0 0 0-1.5 1.5v19.5a1.5 1.5 0 0 0 1.5 1.5h13.5a1.5 1.5 0 0 0 1.5-1.5V2.25a1.5 1.5 0 0 0-1.5-1.5"/></svg>
