<svg xmlns="http://www.w3.org/2000/svg" fill="none" stroke-width="1.5" viewBox="0 0 24 24"><path stroke="currentColor" stroke-linecap="round" stroke-linejoin="round" d="M7.5 21.277h9m-4.5-4.5v4.5m11.25-5.449a1.5 1.5 0 0 1-1.669 1.493 84.6 84.6 0 0 0-19.16 0A1.5 1.5 0 0 1 .75 15.83V4.223a1.5 1.5 0 0 1 1.671-1.49 84.7 84.7 0 0 0 19.158 0 1.5 1.5 0 0 1 1.671 1.49zM7.5 21.277h9m-4.5-4.5v4.5"/><path stroke="currentColor" stroke-linecap="round" stroke-linejoin="round" d="M23.25 15.828a1.5 1.5 0 0 1-1.669 1.493 84.6 84.6 0 0 0-19.16 0A1.5 1.5 0 0 1 .75 15.83V4.223a1.5 1.5 0 0 1 1.671-1.49 84.7 84.7 0 0 0 19.158 0 1.5 1.5 0 0 1 1.671 1.49z"/></svg>
