<svg xmlns="http://www.w3.org/2000/svg" fill="none" stroke-width="1.5" viewBox="0 0 24 24"><path stroke="currentColor" stroke-linecap="round" stroke-linejoin="round" d="M19.68 6.66a1.06 1.06 0 0 1-1.51-.06L16.6 5a1.12 1.12 0 0 1-.06-1.55c.15-.204.36-.358.6-.44l4.77-1.46a1 1 0 0 1 1 .29A1 1 0 0 1 23 3.26zM11 10.53A3 3 0 0 1 10.23 8a6.2 6.2 0 0 1 .71-2 1.18 1.18 0 0 0-.557-1.645 1.11 1.11 0 0 0-1.243.255A6.6 6.6 0 0 0 7.28 8c-.21 1.05-1 2.48-2 2.49a4.56 4.56 0 0 0-4.53 4.77 6.12 6.12 0 0 0 1.8 4.28l1.08 1.12a5.84 5.84 0 0 0 4.18 1.84 4.56 4.56 0 0 0 4.64-4.6c0-1.11 1.2-1.8 2.23-1.76a4 4 0 0 0 3.25-1.26 1.12 1.12 0 0 0-.71-1.88c-3.24-.27-3.93-.16-4.8-1.06zm-2.48 2.26 2.07 2.12m1.3-3.49 5.49-5.63"/><path stroke="currentColor" stroke-linecap="round" stroke-linejoin="round" d="M4.92 17.06a1.56 1.56 0 0 0 .433 1.075 1.446 1.446 0 0 0 2.093 0 1.5 1.5 0 0 0 .321-.493 1.56 1.56 0 0 0 0-1.164 1.5 1.5 0 0 0-.32-.493 1.45 1.45 0 0 0-2.093 0 1.56 1.56 0 0 0-.433 1.075"/></svg>
