<svg xmlns="http://www.w3.org/2000/svg" fill="none" stroke-width="1.5" viewBox="0 0 24 24"><path stroke="currentColor" stroke-linecap="round" stroke-linejoin="round" d="M12.18 10.1a1.7 1.7 0 1 1 2.4-2.4c.17.167.303.368.39.59a.46.46 0 0 0 .32.27.43.43 0 0 0 .39-.11L17 7.12a.85.85 0 0 0 0-1.21l-1.4-1.39a1.67 1.67 0 0 0 .77-.44 1.71 1.71 0 1 0-2.86-1.65L12.09 1a.85.85 0 0 0-1.21 0L9.65 2.22a.41.41 0 0 0-.12.35.43.43 0 0 0 .19.32q.151.089.27.22a1.701 1.701 0 1 1-2.4 2.4 3 3 0 0 1-.22-.27.42.42 0 0 0-.32-.19.39.39 0 0 0-.34.12L5.48 6.4a.85.85 0 0 0 0 1.21l4.9 4.9a.85.85 0 0 0 1.21 0l1.33-1.32a.44.44 0 0 0-.16-.71 1.7 1.7 0 0 1-.58-.38M3.75 23.25l-2-2.52a4.55 4.55 0 0 1-1-2.81v-5.17a1.5 1.5 0 0 1 3 0v3.94"/><path stroke="currentColor" stroke-linecap="round" stroke-linejoin="round" d="M8.25 23.25v-3.14a4.43 4.43 0 0 0-.76-2.49L6.35 15.9a1.41 1.41 0 0 0-2-.44 1.39 1.39 0 0 0-.47 1.79l1.37 2.25m15 3.75 2-2.52a4.5 4.5 0 0 0 1-2.81v-5.17a1.5 1.5 0 1 0-3 0v3.88"/><path stroke="currentColor" stroke-linecap="round" stroke-linejoin="round" d="M15.75 23.25v-3.14a4.43 4.43 0 0 1 .76-2.49l1.14-1.72a1.4 1.4 0 0 1 2-.44 1.39 1.39 0 0 1 .48 1.79l-1.38 2.25"/></svg>
