<svg xmlns="http://www.w3.org/2000/svg" fill="none" stroke-width="1.5" viewBox="0 0 24 24"><path stroke="currentColor" stroke-linecap="round" stroke-linejoin="round" d="M3.75 12.87h-1.5a1.5 1.5 0 0 1-1.5-1.5v-9a1.5 1.5 0 0 1 1.5-1.5h19.5a1.5 1.5 0 0 1 1.5 1.5v9a1.5 1.5 0 0 1-1.5 1.5h-1.5"/><path stroke="currentColor" stroke-linecap="round" stroke-linejoin="round" d="M9.5 6.71a2.5 2.5 0 1 0 5 0 2.5 2.5 0 0 0-5 0M.75 8.12 8 .87m15.25 7.25L16 .87m1.75 16.51a5.75 5.75 0 0 1-11.5 0v-5.75h4v5.75a1.75 1.75 0 1 0 3.5 0v-5.75h4zm-11.5-2.25h4m3.5 0h4"/></svg>
