<svg xmlns="http://www.w3.org/2000/svg" fill="none" stroke-width="1.5" viewBox="0 0 24 24"><path stroke="currentColor" stroke-linecap="round" stroke-linejoin="round" d="m8.25 20.25.75-4.5m-3 4.5h2.25m-7.5-8.5h9m-.75 4H3.75a3 3 0 0 1-3-3v-9a3 3 0 0 1 3-3h16.5a3 3 0 0 1 3 3v4.5M15 18.75h-3.75v3.75"/><path stroke="currentColor" stroke-linecap="round" stroke-linejoin="round" d="M22.67 19.48a5.571 5.571 0 0 1-10.74-.73m7.57-3h3.75V12"/><path stroke="currentColor" stroke-linecap="round" stroke-linejoin="round" d="M11.83 15a5.57 5.57 0 0 1 10.74.73"/></svg>
