<svg xmlns="http://www.w3.org/2000/svg" fill="none" stroke-width="1.5" viewBox="0 0 24 24"><path stroke="currentColor" stroke-linecap="round" stroke-linejoin="round" d="m8.25 20.25.75-4.5m-3 4.5h2.25m-7.5-8.5h12m-2.25 4H3.75a3 3 0 0 1-3-3v-9a3 3 0 0 1 3-3h16.5a3 3 0 0 1 3 3v9"/><path stroke="currentColor" d="M17.175 21.005a.375.375 0 0 1 0-.75m0 .75a.375.375 0 0 0 0-.75"/><path stroke="currentColor" stroke-linecap="round" stroke-linejoin="round" d="M17.241 18v-3m5.809 5.68a1.78 1.78 0 0 1-.06 1.73 1.8 1.8 0 0 1-1.51.84h-8.49a1.8 1.8 0 0 1-1.51-.84 1.78 1.78 0 0 1-.07-1.73l4.22-8.45a1.78 1.78 0 0 1 3.18 0z"/></svg>
