<svg xmlns="http://www.w3.org/2000/svg" fill="none" stroke-width="1.5" viewBox="0 0 24 24"><path stroke="currentColor" stroke-linecap="round" stroke-linejoin="round" d="M2.25 12.751h9s1.5 0 1.5 1.5v4.5s0 1.5-1.5 1.5h-9s-1.5 0-1.5-1.5v-4.5s0-1.5 1.5-1.5m4.5 7.5v3m-2.25 0H9m3.75-22.5h9s1.5 0 1.5 1.5v4.5s0 1.5-1.5 1.5h-9s-1.5 0-1.5-1.5v-4.5s0-1.5 1.5-1.5m4.5 7.5v3m-2.25 0h4.5m-11.25-7.5a3 3 0 0 0-3 3v3"/><path stroke="currentColor" stroke-linecap="round" stroke-linejoin="round" d="m3 7.501 2.25 2.25 2.25-2.25"/></svg>
