<svg xmlns="http://www.w3.org/2000/svg" fill="none" stroke-width="1.5" viewBox="0 0 24 24"><path stroke="currentColor" stroke-linecap="round" stroke-linejoin="round" d="M9.5 9.645A6.1 6.1 0 0 0 6.75 9a6 6 0 0 0-6 5.25M3.375 4.125a3.375 3.375 0 1 0 6.75 0 3.375 3.375 0 0 0-6.75 0m10.5-.75a2.625 2.625 0 1 0 5.25 0 2.625 2.625 0 0 0-5.25 0m5.948 4.875a4.447 4.447 0 0 0-6.66 0m8.587 12h-3l-4.5 3v-3h-1.5a1.5 1.5 0 0 1-1.5-1.5v-6a1.5 1.5 0 0 1 1.5-1.5h9a1.5 1.5 0 0 1 1.5 1.5v6a1.5 1.5 0 0 1-1.5 1.5m-7.5-6h6m-6 3h6"/></svg>
