<svg xmlns="http://www.w3.org/2000/svg" fill="none" stroke-width="1.5" viewBox="0 0 24 24"><path stroke="currentColor" stroke-linecap="round" stroke-linejoin="round" d="M1.802 3.18c0 1.697 8.575 2.758 15.435 1.91 3.183-.394 5.145-1.122 5.145-1.91 0-1.697-8.575-2.758-15.435-1.91-3.184.394-5.145 1.122-5.145 1.91M19.9 8.3c-1.162.97-5.804 1.6-10.494 1.372m9.765 3.291a8.9 8.9 0 0 1-3.655 1.126"/><path stroke="currentColor" stroke-linecap="round" stroke-linejoin="round" d="M1.802 3.18s-2.02 4.669 7.35 10.29c7.35 4.41 5.145 9.555 5.145 9.555s5.88-2.205 5.145-7.35c-1.444-10.109 2.94-7.35 2.94-12.495"/></svg>
