<svg xmlns="http://www.w3.org/2000/svg" fill="none" stroke-width="1.5" viewBox="0 0 24 24"><path stroke="currentColor" stroke-linecap="round" stroke-linejoin="round" d="M23.25 23.252a12.55 12.55 0 0 1-7.967-7.96 1.5 1.5 0 0 0-1.428-1.04h-3.71a1.5 1.5 0 0 0-1.428 1.04 12.55 12.55 0 0 1-7.967 7.96M9.124 9.051c.238.672.4 1.369.485 2.076m5.264-2.076a9.7 9.7 0 0 0-.485 2.07"/><path stroke="currentColor" stroke-linecap="round" stroke-linejoin="round" d="M17.25 9.752H21a2.25 2.25 0 0 0 0-4.5 2.986 2.986 0 0 0-4.808-2.38 5.2 5.2 0 0 0-8.384 0A2.986 2.986 0 0 0 3 5.252a2.25 2.25 0 0 0 0 4.5h3m6-1.501v3"/></svg>
