<svg xmlns="http://www.w3.org/2000/svg" fill="none" stroke-width="1.5" viewBox="0 0 24 24"><path stroke="currentColor" stroke-linecap="round" stroke-linejoin="round" d="M9.75 16.5a6.75 6.75 0 1 0 13.5 0 6.75 6.75 0 0 0-13.5 0m.384 2.25h12.732m-12.732-4.5h12.732"/><path stroke="currentColor" stroke-linecap="round" stroke-linejoin="round" d="M15.044 9.908a21.86 21.86 0 0 0 .51 13.276m2.402-13.276c.529 1.902.796 3.868.794 5.842a21.7 21.7 0 0 1-1.3 7.434"/><path stroke="currentColor" stroke-linecap="round" stroke-linejoin="round" d="M21.75 7.5V2.366A1.62 1.62 0 0 0 20.135.75H2.357A1.61 1.61 0 0 0 .75 2.357v15.528A1.62 1.62 0 0 0 2.365 19.5H6.75m-6-14.25h21m-15-4.5v4.5m4.5-4.5v4.5"/></svg>
