<svg xmlns="http://www.w3.org/2000/svg" fill="none" stroke-width="1.5" viewBox="0 0 24 24"><path stroke="currentColor" stroke-linecap="round" stroke-linejoin="round" d="M.766 16.487a6.75 6.75 0 1 0 13.5 0 6.75 6.75 0 0 0-13.5 0m.384 2.25h12.731m-12.731-4.5h12.731"/><path stroke="currentColor" stroke-linecap="round" stroke-linejoin="round" d="M6.059 9.894a21.9 21.9 0 0 0 .51 13.277M8.972 9.894a21.8 21.8 0 0 1 .794 5.843 21.7 21.7 0 0 1-1.3 7.434m3.705-17.184A5.96 5.96 0 0 1 18 11.817M13.92.75a9.75 9.75 0 0 1 9.33 9.288"/></svg>
