<svg xmlns="http://www.w3.org/2000/svg" fill="none" stroke-width="1.5" viewBox="0 0 24 24"><path stroke="currentColor" stroke-linecap="round" stroke-linejoin="round" d="M17.931 23.25H6.069l-1.542-6.969a1.14 1.14 0 0 1 .166-.885.88.88 0 0 1 .72-.4h13.174a.88.88 0 0 1 .72.4 1.14 1.14 0 0 1 .166.885zm-17.181 0h22.5"/><path stroke="currentColor" stroke-linecap="round" stroke-linejoin="round" d="M10.5 18.75a1.5 1.5 0 1 0 3 0 1.5 1.5 0 0 0-3 0M8.445 2.78a6.85 6.85 0 0 0 4.93 2.095c.933 0 1.856-.19 2.713-.558"/><path stroke="currentColor" stroke-linecap="round" stroke-linejoin="round" d="M7.875 4.875a4.125 4.125 0 1 0 8.25 0 4.125 4.125 0 0 0-8.25 0M17 12.75a6.675 6.675 0 0 0-10 0"/></svg>
