<svg xmlns="http://www.w3.org/2000/svg" fill="none" stroke-width="1.5" viewBox="0 0 24 24"><path stroke="currentColor" stroke-linecap="round" stroke-linejoin="round" d="m13.05 19.14-3.72.53.53-3.67 9.55-9.54a2.25 2.25 0 0 1 3.18 3.18zM5.5.75h7s.75 0 .75.75V4s0 .75-.75.75h-7s-.75 0-.75-.75V1.5s0-.75.75-.75m7.75 2h2.5a1.5 1.5 0 0 1 1.5 1.5"/><path stroke="currentColor" stroke-linecap="round" stroke-linejoin="round" d="M17.25 18.75v3a1.5 1.5 0 0 1-1.5 1.5H2.25a1.5 1.5 0 0 1-1.5-1.5V4.25a1.5 1.5 0 0 1 1.5-1.5h2.5m.5 6h7m-7 4.5h2.5"/></svg>
