<svg xmlns="http://www.w3.org/2000/svg" fill="none" stroke-width="1.5" viewBox="0 0 24 24"><path stroke="currentColor" stroke-linecap="round" stroke-linejoin="round" d="M23.25.75v22.5M7.633 7.455c.556.218 1.153.261 1.662.12.508-.14.886-.453 1.05-.87.163-.416.1-.902-.178-1.351-.277-.45-.745-.824-1.3-1.042-.556-.218-1.153-.262-1.662-.121-.508.14-.886.453-1.05.87-.163.417-.1.903.178 1.352.277.449.745.824 1.3 1.042m6.021-.75c.081.207.216.39.396.539s.402.262.654.331c.252.07.528.095.813.074.285-.02.573-.087.849-.195.275-.108.53-.255.754-.434s.409-.385.546-.607c.137-.223.223-.456.254-.688a1.33 1.33 0 0 0-.077-.664 1.33 1.33 0 0 0-.395-.539 1.75 1.75 0 0 0-.655-.331 2.4 2.4 0 0 0-.813-.074c-.285.02-.573.087-.848.195a3 3 0 0 0-.755.434 2.4 2.4 0 0 0-.545.607 1.75 1.75 0 0 0-.254.688c-.03.232-.005.458.076.664"/><path stroke="currentColor" stroke-linecap="round" stroke-linejoin="round" d="M19.717 1.945a2.62 2.62 0 0 1-2.6-.312 3.78 3.78 0 0 0-4.712.173L12 2.154l-.407-.348a3.78 3.78 0 0 0-4.712-.173 2.62 2.62 0 0 1-2.6.312L.75.75a30 30 0 0 0 .182 3.835A7.355 7.355 0 0 0 12 9.892a7.355 7.355 0 0 0 11.067-5.307c.144-1.273.205-2.554.183-3.835z"/></svg>
