<svg xmlns="http://www.w3.org/2000/svg" fill="none" stroke-width="1.5" viewBox="0 0 24 24"><path stroke="currentColor" stroke-linecap="round" stroke-linejoin="round" d="M17.031.75c1.437 2.873-2.9 3.881-.75 6.75M12.531.75c1.437 2.873-2.9 3.881-.75 6.75M8.031.75c1.437 2.873-2.9 3.881-.75 6.75M.75 12.75c0 .796 1.185 1.559 3.295 2.121s4.971.879 7.955.879 5.845-.316 7.955-.879 3.295-1.325 3.295-2.121-1.185-1.559-3.295-2.121S14.984 9.75 12 9.75s-5.845.316-7.955.879S.75 11.954.75 12.75"/><path stroke="currentColor" stroke-linecap="round" stroke-linejoin="round" d="M23.25 12.75c0 5.8-5.037 10.5-11.25 10.5S.75 18.549.75 12.75"/></svg>
