<svg xmlns="http://www.w3.org/2000/svg" fill="none" stroke-width="1.5" viewBox="0 0 24 24"><path stroke="currentColor" stroke-linecap="round" stroke-linejoin="round" d="m8.492 11.265-1.06 4.243 4.242-1.061 6.364-6.364L14.856 4.9zm13.259-6.894 1.06 1.06a1.5 1.5 0 0 1 0 2.122l-3.311 3.31m-1.462-2.78 3.713-3.712a1.5 1.5 0 0 0 0-2.121L20.69 1.189a1.5 1.5 0 0 0-2.121 0l-3.713 3.71"/><path stroke="currentColor" stroke-linecap="round" stroke-linejoin="round" d="M18.75 14.25v7.5a1.5 1.5 0 0 1-1.5 1.5h-15a1.5 1.5 0 0 1-1.5-1.5v-15a1.5 1.5 0 0 1 1.5-1.5h7.5"/></svg>
