<svg xmlns="http://www.w3.org/2000/svg" fill="none" stroke-width="1.5" viewBox="0 0 24 24"><path stroke="currentColor" stroke-linecap="round" stroke-linejoin="round" d="M21.75 11.25 14.4 3.9a1.49 1.49 0 0 0-1.93-.16l-3.3 2.35A1.5 1.5 0 0 1 7.36 6L.75.75"/><path stroke="currentColor" stroke-linecap="round" stroke-linejoin="round" d="M15.75 11.25h6v-6m-20.25 14H9s.75 0 .75.75v2.5s0 .75-.75.75H1.5s-.75 0-.75-.75V20s0-.75.75-.75m12 0H21s.75 0 .75.75v2.5s0 .75-.75.75h-7.5s-.75 0-.75-.75V20s0-.75.75-.75m1.5-4h7.5s.75 0 .75.75v2.5s0 .75-.75.75H15s-.75 0-.75-.75V16s0-.75.75-.75m-12 0h7.5s.75 0 .75.75v2.5s0 .75-.75.75H3s-.75 0-.75-.75V16s0-.75.75-.75m-1.5-4H9s.75 0 .75.75v2.5s0 .75-.75.75H1.5s-.75 0-.75-.75V12s0-.75.75-.75"/></svg>
