<svg xmlns="http://www.w3.org/2000/svg" fill="none" stroke-width="1.5" viewBox="0 0 24 24"><path stroke="currentColor" stroke-linecap="round" stroke-linejoin="round" d="m23.25 20.985-1.49-2.235V13.5c0-2-3.8-4.14-5.25-5.25m1.93 6.543-3.648-2.923a1.303 1.303 0 0 0-1.843 1.843l3.533 3.987v2.5c0 1.181 1.688 3.045 1.688 3.045"/><path stroke="currentColor" stroke-linecap="round" stroke-linejoin="round" d="M13.51 21.75H2.134A1.375 1.375 0 0 1 .76 20.375V2.124A1.374 1.374 0 0 1 2.134.75h13a1.375 1.375 0 0 1 1.376 1.374v11.123"/><path stroke="currentColor" stroke-linecap="round" stroke-linejoin="round" d="M9.76 3.75h3v3m0-3-9 8.25m1.49 3.75v3m3-5.25v5.25"/></svg>
