<svg xmlns="http://www.w3.org/2000/svg" fill="none" stroke-width="1.5" viewBox="0 0 24 24"><path stroke="currentColor" stroke-linecap="round" stroke-linejoin="round" d="M.75.75h22.5v22.5H.75z"/><path stroke="currentColor" stroke-linecap="round" stroke-linejoin="round" d="m.75 10.532 2.1-1.94a7.91 7.91 0 0 1 9.285-1.055 7.906 7.906 0 0 0 9.515-1.274l1.6-1.6M.75 18.358l2.1-1.941a7.91 7.91 0 0 1 9.285-1.054 7.906 7.906 0 0 0 9.512-1.274l1.6-1.6"/><path stroke="currentColor" stroke-linecap="round" stroke-linejoin="round" d="M3.808.751A15.6 15.6 0 0 1 8.576 12a15.6 15.6 0 0 1-4.77 11.25M12.612.751a15.654 15.654 0 0 1 0 22.5"/></svg>
