<svg xmlns="http://www.w3.org/2000/svg" fill="none" stroke-width="1.5" viewBox="0 0 24 24"><path stroke="currentColor" stroke-linecap="round" stroke-linejoin="round" d="M12 22.887c6.012 0 10.887-4.874 10.887-10.887S18.012 1.113 12 1.113 1.113 5.987 1.113 12 5.987 22.887 12 22.887"/><path stroke="currentColor" stroke-linecap="round" stroke-linejoin="round" d="M6.43 15.815a1.686 1.686 0 1 0 0-3.373 1.686 1.686 0 0 0 0 3.373m11.358-7.758a3.035 3.035 0 0 1-5.821 1.206 2.18 2.18 0 1 1 .872-3.562 3.035 3.035 0 0 1 4.95 2.356"/><path stroke="currentColor" stroke-linecap="round" d="M15.46 17.458c.273-2.51 3.08-1.508 2.96-4.127"/><path stroke="currentColor" stroke-linecap="round" stroke-linejoin="round" d="M12 15.005a.296.296 0 1 1 0-.591m0 .591a.296.296 0 1 0 0-.591M5.778 7.373a.296.296 0 0 1 0-.591m0 .591a.296.296 0 0 0 0-.591m7.358 12.793a.296.296 0 0 1 0-.592m0 .592a.296.296 0 0 0 0-.592"/></svg>
