<svg xmlns="http://www.w3.org/2000/svg" fill="none" stroke-width="1.5" viewBox="0 0 24 24"><path stroke="currentColor" stroke-linecap="round" stroke-linejoin="round" d="M6.5 5.5h11s1 0 1 1v11s0 1-1 1h-11s-1 0-1-1v-11s0-1 1-1"/><path stroke="currentColor" stroke-linecap="round" stroke-linejoin="round" d="M20.25.75a2.99 2.99 0 0 0-2.576 1.485 1.989 1.989 0 0 0-3.8-.16 1.989 1.989 0 0 0-3.75 0 1.99 1.99 0 0 0-3.8.16 2.99 2.99 0 1 0-4.091 4.09 1.99 1.99 0 0 0-.16 3.8 1.989 1.989 0 0 0 0 3.75 1.99 1.99 0 0 0 .16 3.8 2.99 2.99 0 1 0 4.091 4.09 1.989 1.989 0 0 0 3.8.16 1.99 1.99 0 0 0 3.75 0 1.99 1.99 0 0 0 3.8-.16 2.992 2.992 0 0 0 5.55-1.89 3 3 0 0 0-1.459-2.2 1.99 1.99 0 0 0 .16-3.8 1.99 1.99 0 0 0 0-3.75 1.99 1.99 0 0 0-.16-3.8A2.991 2.991 0 0 0 20.25.75"/></svg>
