<svg xmlns="http://www.w3.org/2000/svg" fill="none" stroke-width="1.5" viewBox="0 0 24 24"><path stroke="currentColor" stroke-linecap="round" stroke-linejoin="round" d="M2.25.75h15s.75 0 .75.75v17s0 .75-.75.75h-15s-.75 0-.75-.75v-17s0-.75.75-.75"/><path stroke="currentColor" stroke-linecap="round" stroke-linejoin="round" d="M22.5 6.25V22.5a.76.76 0 0 1-.75.75H7.5m10.5-8H1.5"/><path stroke="currentColor" stroke-linecap="round" stroke-linejoin="round" d="m5 15.25 5.2-7.43a1.5 1.5 0 0 1 2.36-.13L18 14M6 3.75a1.5 1.5 0 1 1 0 3 1.5 1.5 0 0 1 0-3"/></svg>
