<svg xmlns="http://www.w3.org/2000/svg" fill="none" stroke-width="1.5" viewBox="0 0 24 24"><path stroke="currentColor" stroke-linecap="round" stroke-linejoin="round" d="M18.75 5.25v-.978a2.01 2.01 0 0 0-2-2.022h-14a2.01 2.01 0 0 0-2 2.022v9.456a2.01 2.01 0 0 0 2 2.022m8.589 6 4.439-6.307a1.5 1.5 0 0 1 2.357-.128l4.938 5.643"/><path stroke="currentColor" d="M10.875 13.5a.375.375 0 0 1 0-.75m0 .75a.375.375 0 0 0 0-.75"/><path stroke="currentColor" stroke-linecap="round" stroke-linejoin="round" d="M22.25 8.25H7a1 1 0 0 0-1 1v11.5a1 1 0 0 0 1 1h15.25a1 1 0 0 0 1-1V9.25a1 1 0 0 0-1-1"/></svg>
