<svg xmlns="http://www.w3.org/2000/svg" fill="none" stroke-width="1.5" viewBox="0 0 24 24"><path stroke="currentColor" stroke-linecap="round" stroke-linejoin="round" d="M21.052 20.25a2.198 2.198 0 1 0 0-4.396 2.198 2.198 0 0 0 0 4.396m-10.5 3a2.198 2.198 0 1 0 0-4.396 2.198 2.198 0 0 0 0 4.396"/><path stroke="currentColor" stroke-linecap="round" stroke-linejoin="round" d="M12.75 21.052V11.4a2.07 2.07 0 0 1 1.415-1.963l6.362-1.727a2.068 2.068 0 0 1 2.723 1.962v8.38M5.25.75h15m-15 6h6m-6 6h3"/><path stroke="currentColor" d="M1.125 1.5a.375.375 0 1 1 0-.75m0 .75a.375.375 0 1 0 0-.75m0 6a.375.375 0 1 1 0-.75m0 .75a.375.375 0 1 0 0-.75m0 6.75a.375.375 0 0 1 0-.75m0 .75a.375.375 0 0 0 0-.75"/></svg>
