<svg xmlns="http://www.w3.org/2000/svg" fill="none" stroke-width="1.5" viewBox="0 0 24 24"><path stroke="currentColor" stroke-linecap="round" stroke-linejoin="round" d="M8.175 16.826 2.693 4.658 14.88 6.894 21.307.97l-.335 13.583-9.948 3.24"/><path stroke="currentColor" d="M6.172 19.027c0 .537.278 1.051.774 1.43.495.38 1.167.593 1.867.593s1.372-.213 1.867-.592c.496-.38.774-.894.774-1.431 0-.536-.278-1.051-.774-1.43-.495-.38-1.167-.593-1.867-.593s-1.372.213-1.867.593c-.496.379-.774.894-.774 1.43Z"/><path stroke="currentColor" stroke-linecap="round" stroke-linejoin="round" d="M11.348 20.171c1.715.332 1.918 1.91 1.715 2.86"/></svg>
