<svg xmlns="http://www.w3.org/2000/svg" fill="none" stroke-width="1.5" viewBox="0 0 24 24"><path stroke="currentColor" stroke-linecap="round" stroke-linejoin="round" d="M14 15.813h-4v-1.5a2 2 0 1 1 4 0zm.75-7.625v2m-5.5-2v2"/><path stroke="currentColor" stroke-linecap="round" stroke-linejoin="round" d="M6.491 5.759a.88.88 0 0 1 .625-.259h9.768a.88.88 0 0 1 .624.259 8.827 8.827 0 0 1 0 12.483.88.88 0 0 1-.624.258H7.116a.88.88 0 0 1-.625-.258 8.827 8.827 0 0 1 0-12.483"/><path stroke="currentColor" stroke-linecap="round" stroke-linejoin="round" d="M20.25.75H3.75a3 3 0 0 0-3 3v16.5a3 3 0 0 0 3 3h16.5a3 3 0 0 0 3-3V3.75a3 3 0 0 0-3-3"/></svg>
