<svg xmlns="http://www.w3.org/2000/svg" fill="none" stroke-width="1.5" viewBox="0 0 24 24"><path stroke="currentColor" stroke-linecap="round" stroke-linejoin="round" d="M4.5 11.25h15m-11.7 3-.3-3h9l-.3 3M9.375 3.375a2.625 2.625 0 1 0 5.25 0 2.625 2.625 0 0 0-5.25 0m5.874 4.875a4.268 4.268 0 0 0-6.5 0M1.374 18.375a2.625 2.625 0 1 0 5.25 0 2.625 2.625 0 0 0-5.25 0m5.874 4.875a4.27 4.27 0 0 0-6.5 0m8.627-4.875a2.625 2.625 0 1 0 5.25 0 2.625 2.625 0 0 0-5.25 0m5.874 4.875a4.27 4.27 0 0 0-6.5 0m8.627-4.875a2.625 2.625 0 1 0 5.25 0 2.625 2.625 0 0 0-5.25 0m5.874 4.875a4.27 4.27 0 0 0-6.5 0"/></svg>
