<svg xmlns="http://www.w3.org/2000/svg" fill="none" stroke-width="1.5" viewBox="0 0 24 24"><path stroke="currentColor" stroke-linecap="round" stroke-linejoin="round" d="M6.69 13.52a1.76 1.76 0 0 0 1.52.79 1.56 1.56 0 0 0 1.69-1.4 1.56 1.56 0 0 0-1.69-1.41 1.56 1.56 0 0 1-1.68-1.41 1.56 1.56 0 0 1 1.68-1.4 1.73 1.73 0 0 1 1.52.79m-1.52 4.83v.94m0-7.5v.94M14 15.25v-3m3.5 3v-6M1.5.75h21s.75 0 .75.75V4s0 .75-.75.75h-21S.75 4.75.75 4V1.5s0-.75.75-.75"/><path stroke="currentColor" stroke-linecap="round" stroke-linejoin="round" d="M2.25 4.75h19.5V18H2.25zM12 22.25V18M.75 18h22.5m-9.75 5.25c0-.55-.67-1-1.5-1s-1.5.45-1.5 1"/></svg>
