<svg xmlns="http://www.w3.org/2000/svg" fill="none" stroke-width="1.5" viewBox="0 0 24 24"><path stroke="currentColor" stroke-linecap="round" stroke-linejoin="round" d="M5.25 17.249h-3a1.5 1.5 0 0 1-1.5-1.5v-7.5a1.5 1.5 0 0 1 1.5-1.5h19.5a1.5 1.5 0 0 1 1.5 1.5v7.5a1.5 1.5 0 0 1-1.5 1.5h-3m-15-7.5h1.5"/><path stroke="currentColor" stroke-linecap="round" stroke-linejoin="round" d="M5.25 12.749h13.5v10.5H5.25zm13.5-6H5.25v-4.5a1.5 1.5 0 0 1 1.5-1.5h10.5a1.5 1.5 0 0 1 1.5 1.5zm-10.5 9h7.5m-7.5 3h5.25"/></svg>
