<svg xmlns="http://www.w3.org/2000/svg" fill="none" stroke-width="1.5" viewBox="0 0 24 24"><path stroke="currentColor" stroke-linecap="round" stroke-linejoin="round" d="M17.25 21.713a1.5 1.5 0 1 0 3 0 1.5 1.5 0 0 0-3 0m-13.5 0a1.5 1.5 0 1 0 3 0 1.5 1.5 0 0 0-3 0"/><path stroke="currentColor" stroke-linecap="round" stroke-linejoin="round" d="M20.25 21.713h1.5a1.5 1.5 0 0 0 1.5-1.5v-3.27a1.5 1.5 0 0 0-.279-.871l-3.022-4.231a1.5 1.5 0 0 0-1.221-.628H15.75a1.5 1.5 0 0 0-1.5 1.5v9m9-4.5h-9m-3 4.5v-9a1.5 1.5 0 0 0-1.5-1.5h-7.5a1.5 1.5 0 0 0-1.5 1.5v7.5a1.5 1.5 0 0 0 1.5 1.5h1.5m13.5 0H6.75m7.5-7.5h-3m-9-3 21-10.45"/></svg>
