<svg xmlns="http://www.w3.org/2000/svg" fill="none" stroke-width="1.5" viewBox="0 0 24 24"><path stroke="currentColor" d="M12 12.375a.375.375 0 0 1 0-.75m0 .75a.375.375 0 0 0 0-.75"/><path stroke="currentColor" stroke-linecap="round" stroke-linejoin="round" d="M12 23.25c6.213 0 11.25-5.037 11.25-11.25S18.213.75 12 .75.75 5.787.75 12 5.787 23.25 12 23.25"/><path stroke="currentColor" stroke-linecap="round" stroke-linejoin="round" d="M10.313 9.078 7.874 4.855A8.25 8.25 0 0 0 3.75 12h4.875a3.37 3.37 0 0 1 1.688-2.922m0 5.845-2.439 4.223a8.25 8.25 0 0 0 8.251 0l-2.438-4.222a3.37 3.37 0 0 1-3.374-.001M15.375 12h4.876a8.24 8.24 0 0 0-4.126-7.144l-2.438 4.221A3.38 3.38 0 0 1 15.375 12"/></svg>
