<svg xmlns="http://www.w3.org/2000/svg" fill="none" stroke-width="1.5" viewBox="0 0 24 24"><path stroke="currentColor" stroke-linecap="round" stroke-linejoin="round" d="m.75 23.25 2.37-2.729m20.13 2.729-2.37-2.729M21.75 9c0 4.971-3.537 12.75-9.75 12.75S2.25 13.971 2.25 9 5.787.75 12 .75 21.75 4.029 21.75 9"/><path stroke="currentColor" stroke-linecap="round" stroke-linejoin="round" d="M12 21.75a7.98 7.98 0 0 0 5.944-2.863c-.4-2.2-2.908-3.886-5.944-3.886s-5.545 1.686-5.944 3.886A7.98 7.98 0 0 0 12 21.75m3.75-16.5h-7.5a2.25 2.25 0 1 0 0 4.5h7.5a2.25 2.25 0 0 0 0-4.5"/></svg>
