<svg xmlns="http://www.w3.org/2000/svg" fill="none" stroke-width="1.5" viewBox="0 0 24 24"><path stroke="currentColor" stroke-linejoin="round" d="M8.26 17.181c.454-1.82 3.629-1.82 4.084 0 .014-1.834 3.414-1.82 3.397 0a7.57 7.57 0 0 0-7.48-8.18 7.57 7.57 0 0 0-7.486 8.18c-.012-1.82 3.388-1.834 3.403 0 .454-1.82 3.633-1.82 4.082 0Z"/><path stroke="currentColor" stroke-linecap="round" stroke-linejoin="round" d="M8.26 9.018V7.503m4.31-.949a4.047 4.047 0 1 1 4.734 4.916m-.799-8.014V.758m-2.862 3.883-1.908-1.908m8.817 4.77h2.698m-3.883-2.862 1.907-1.908m-1.907 7.632 1.907 1.907M8.26 17.182v4.562a1.499 1.499 0 0 0 2.998 0"/></svg>
