<svg xmlns="http://www.w3.org/2000/svg" fill="none" stroke-width="1.5" viewBox="0 0 24 24"><path stroke="currentColor" stroke-linejoin="round" d="M11.5 18.872c.591-2.363 4.72-2.363 5.311 0 .018-2.381 4.443-2.363 4.428 0C21.5 13.072 17.284 8.25 11.5 8.25s-10 4.822-9.739 10.622c-.015-2.363 4.41-2.381 4.428 0 .591-2.363 4.72-2.363 5.311 0Z"/><path stroke="currentColor" stroke-linecap="round" stroke-linejoin="round" d="M11.498 8.25v-1.5m.002 16.5-.002-4.378M22 .75l-2.25 3m-2.25-3-2.25 3M13 .75l-2.25 3M4 .75l-2.25 3m6.75-3-2.25 3"/></svg>
