<svg xmlns="http://www.w3.org/2000/svg" fill="none" stroke-width="1.5" viewBox="0 0 24 24"><path stroke="currentColor" stroke-linecap="round" stroke-linejoin="round" d="m19.059 23.105-6.177-4.492a1.5 1.5 0 0 0-1.764 0l-6.177 4.492A.75.75 0 0 1 3.75 22.5V2.25a1.5 1.5 0 0 1 1.5-1.5h13.5a1.5 1.5 0 0 1 1.5 1.5V22.5a.75.75 0 0 1-1.191.605"/><path stroke="currentColor" stroke-linecap="round" stroke-linejoin="round" d="m12.53 5.791 1.249 2.458h2.127a.582.582 0 0 1 .419 1l-1.953 1.922 1.082 2.485a.588.588 0 0 1-.839.737L12 12.918 9.385 14.39a.589.589 0 0 1-.839-.737l1.082-2.485-1.953-1.922a.582.582 0 0 1 .419-1h2.127l1.249-2.454a.594.594 0 0 1 1.06 0"/></svg>
