<svg xmlns="http://www.w3.org/2000/svg" fill="none" stroke-width="1.5" viewBox="0 0 24 24"><path stroke="currentColor" stroke-linecap="round" stroke-linejoin="round" d="m7.72 17.03-4.94 4.94a.75.75 0 0 1-1.28-.531v-9.878a.75.75 0 0 1 1.28-.531l4.94 4.94a.75.75 0 0 1 0 1.06m8.56 0 4.94 4.94a.75.75 0 0 0 1.28-.531v-9.878a.75.75 0 0 0-1.28-.531l-4.94 4.94a.75.75 0 0 0 0 1.06M12 23.25V9.75M3 1.5l.697 5.257 5.257-.697"/><path stroke="currentColor" stroke-linecap="round" stroke-linejoin="round" d="M19.349 6.75a7.5 7.5 0 0 0-14.672-.122"/></svg>
