<svg xmlns="http://www.w3.org/2000/svg" fill="none" stroke-width="1.5" viewBox="0 0 24 24"><path stroke="currentColor" stroke-linecap="round" stroke-linejoin="round" d="M10.95 12.015a4.48 4.48 0 0 0-.454 5.107 1.6 1.6 0 0 0 1.7-1.362 3.61 3.61 0 0 1 1.873 3.4 4.086 4.086 0 0 1-4.084 4.09A4.14 4.14 0 0 1 5.9 19.165a6.79 6.79 0 0 1 5.05-7.15"/><path stroke="currentColor" stroke-linecap="round" stroke-linejoin="round" d="M2.364 9.107h.315l2.256 2.82a11.44 11.44 0 0 0-.309-7.962 11.48 11.48 0 0 1 9.507 5.98l2.046-1.993A9 9 0 1 1 2.364 9.107M20.25.75l3 3-3 3m3-3H16.5"/></svg>
