<svg xmlns="http://www.w3.org/2000/svg" fill="none" stroke-width="1.5" viewBox="0 0 24 24"><path stroke="currentColor" stroke-linecap="round" stroke-linejoin="round" d="M9.55 21.07a5.56 5.56 0 0 0 3.2-4.95 4.53 4.53 0 0 0-.75-2.49 2.25 2.25 0 0 0-1.5-3.91 2.07 2.07 0 0 0-2.14 1.56 6 6 0 0 0-.71 0H5.84q-.346.003-.69.05a2.25 2.25 0 1 0-3.67 2.33 4.53 4.53 0 0 0-.73 2.49A5.56 5.56 0 0 0 4 21.07"/><path stroke="currentColor" stroke-linecap="round" stroke-linejoin="round" d="m9 15.69.48 4.94a2.2 2.2 0 0 1-2.12 2.62H6.12a2.1 2.1 0 0 1-1.48-.61 2.12 2.12 0 0 1-.64-2l.48-4.94m2.27 3.8v.75m16.5-13.5v4.5h-4.5"/><path stroke="currentColor" stroke-linecap="round" stroke-linejoin="round" d="m23.25 11.25-5.05-5a2.26 2.26 0 0 0-2.2-.61l-5.75 1.52a2.24 2.24 0 0 1-2.17-.58L2.25.75"/></svg>
