<svg xmlns="http://www.w3.org/2000/svg" fill="none" stroke-width="1.5" viewBox="0 0 24 24"><path stroke="currentColor" stroke-linecap="round" stroke-linejoin="round" d="M.75 17.25a6 6 0 1 0 12 0 6 6 0 0 0-12 0"/><path stroke="currentColor" stroke-linecap="round" stroke-linejoin="round" d="M3.75 17.25a3 3 0 0 1 3-3m7.5-6a4.5 4.5 0 1 0 9.002 0 4.5 4.5 0 0 0-9.002 0"/><path stroke="currentColor" stroke-linecap="round" stroke-linejoin="round" d="M17.25 8.25a1.5 1.5 0 0 1 1.5-1.5M3.75 3a2.25 2.25 0 1 0 4.5 0 2.25 2.25 0 0 0-4.5 0m8.211 11.274 3.436-3.024m-.759-4.83L8.149 3.664"/></svg>
