<svg xmlns="http://www.w3.org/2000/svg" fill="none" stroke-width="1.5" viewBox="0 0 24 24"><path stroke="currentColor" stroke-linecap="round" stroke-linejoin="round" d="m14.764 17.262.983 4.4h-7.5l.983-4.4m-3.233 4.4h12"/><path stroke="currentColor" stroke-linecap="round" stroke-linejoin="round" d="M23.247 17.7a.743.743 0 0 1-.915.731A46.4 46.4 0 0 0 12 17.162c-3.483.033-6.95.457-10.338 1.265a.743.743 0 0 1-.915-.727V3.127a.743.743 0 0 1 .915-.727A46.4 46.4 0 0 0 12 3.662 46.4 46.4 0 0 0 22.332 2.4a.743.743 0 0 1 .915.73z"/></svg>
