<svg xmlns="http://www.w3.org/2000/svg" fill="none" stroke-width="1.5" viewBox="0 0 24 24"><path stroke="currentColor" stroke-linecap="round" stroke-linejoin="round" d="M9.75 23.25h-7.5a1.5 1.5 0 0 1-1.5-1.5v-10.5h1.5v-3H.75v-6a1.5 1.5 0 0 1 1.5-1.5h10.56a1.5 1.5 0 0 1 1.139.524l4.44 4.305a1.5 1.5 0 0 1 .361.976V7.5m-12-3.75v3m4.5-3v3"/><path stroke="currentColor" stroke-linecap="round" stroke-linejoin="round" d="M11.25 17.25a6 6 0 1 0 12 0 6 6 0 0 0-12 0"/><path stroke="currentColor" stroke-linecap="round" stroke-linejoin="round" d="m15 18 2.25 2.25L19.5 18m-2.25 2.25v-6"/></svg>
