<svg xmlns="http://www.w3.org/2000/svg" fill="none" stroke-width="1.5" viewBox="0 0 24 24"><path stroke="currentColor" stroke-linecap="round" stroke-linejoin="round" d="M20.25 14.5v2.75a3 3 0 0 1-3 3H6.75a3 3 0 0 1-3-3V14.5"/><path stroke="currentColor" stroke-linecap="round" stroke-linejoin="round" d="M12 11.25a11.74 11.74 0 0 1 8.647 3.658 1.5 1.5 0 0 0 2.6-1.014v-.019C23.25 8.283 18.213 3.75 12 3.75S.75 8.283.75 13.875v.019a1.5 1.5 0 0 0 2.6 1.014A11.74 11.74 0 0 1 12 11.25m-7.28 2.411 4.01-9.477m3.01 7.066 3.042-7.188m2.727 8.486 2.461-5.819"/></svg>
