<svg xmlns="http://www.w3.org/2000/svg" fill="none" stroke-width="1.5" viewBox="0 0 24 24"><path stroke="currentColor" stroke-linecap="round" stroke-linejoin="round" d="M17.189 9.75H5.251a4.5 4.5 0 1 1 0-9h12a4.5 4.5 0 0 1 3.388 7.462M8.251 18.75h-3a4.5 4.5 0 1 1 0-9H16.5m-5.999-4.5h6.75m-3.75 15a2.25 2.25 0 1 0 0-4.5 2.25 2.25 0 0 0 0 4.5m7.5 3a2.25 2.25 0 1 0 0-4.5 2.25 2.25 0 0 0 0 4.5m0-7.5a2.25 2.25 0 1 0 0-4.5 2.25 2.25 0 0 0 0 4.5m-5.575 1.095 3.65-2.19m-3.487 4.18 3.324 1.33"/><path stroke="currentColor" d="M5.251 5.625a.375.375 0 1 1 0-.75m0 .75a.375.375 0 0 0 0-.75m0 9.75a.375.375 0 1 1 0-.75m0 .75a.375.375 0 1 0 0-.75"/></svg>
