<svg xmlns="http://www.w3.org/2000/svg" fill="none" stroke-width="1.5" viewBox="0 0 24 24"><path stroke="currentColor" stroke-linecap="round" stroke-linejoin="round" d="M.75 23.25a5.75 5.75 0 0 0 4.5-2c1.5 1.5 1.75 2 3.25 2s2-.5 3.5-2c1.5 1.5 2 2 3.5 2s1.75-.5 3.25-2a5.75 5.75 0 0 0 4.5 2m-.37-3.05.26-2.11a.71.71 0 0 0-.14-.59.73.73 0 0 0-.56-.25H1.5a.76.76 0 0 0-.75.82 8.2 8.2 0 0 0 .54 2.26"/><path stroke="currentColor" stroke-linecap="round" stroke-linejoin="round" d="M21.75 17.25h-6v-12a1.5 1.5 0 0 1 1.5-1.5h3a1.5 1.5 0 0 1 1.5 1.5zm-3-10h-3m3.75-3.5v-3m-15.75 8h12v8.5H2.25v-7a1.5 1.5 0 0 1 1.5-1.5m4.5 0v8.5m-6-4.25h13.24"/></svg>
