<svg xmlns="http://www.w3.org/2000/svg" fill="none" stroke-width="1.5" viewBox="0 0 24 24"><path stroke="currentColor" stroke-linecap="round" stroke-linejoin="round" d="M15.75 9.163a.52.52 0 0 1-.271.457.55.55 0 0 1-.54-.007L12 8.25 9.033 9.691a.544.544 0 0 1-.713-.207.5.5 0 0 1-.07-.259V.75h7.5zm1.5 11.087v-6m-3 6v-1.379m-3 1.379v-5.781"/><path stroke="currentColor" stroke-linecap="round" stroke-linejoin="round" d="M2.25.75h19.5s1.5 0 1.5 1.5v19.5s0 1.5-1.5 1.5H2.25s-1.5 0-1.5-1.5V2.25s0-1.5 1.5-1.5m12 15.676v-1.957m6 5.562v-1.379m0-2.445V14.25"/></svg>
