<svg xmlns="http://www.w3.org/2000/svg" fill="none" stroke-width="1.5" viewBox="0 0 24 24"><path stroke="currentColor" stroke-linecap="round" stroke-linejoin="round" stroke-miterlimit="10" d="M15.75 7.5h2c.3 0 .6.2.8.4l1.7 2.6 2.3.8c.4.1.7.5.7.9v4.3c0 .5-.4 1-1 1h-2.988"/><path stroke="currentColor" stroke-linecap="round" stroke-linejoin="round" stroke-miterlimit="10" d="M17.25 19.5a2 2 0 1 0 0-4 2 2 0 0 0 0 4"/><path stroke="currentColor" stroke-linecap="round" stroke-linejoin="round" stroke-miterlimit="10" d="M15.75 16.191V5.5c0-.6-.4-1-1-1h-13c-.6 0-1 .4-1 1v11c0 .5.4 1 1 1h1.497m11.997 0h-3.997"/><path stroke="currentColor" stroke-linecap="round" stroke-linejoin="round" stroke-miterlimit="10" d="M5.25 19.5a2 2 0 1 0 0-4 2 2 0 0 0 0 4"/><path stroke="currentColor" stroke-linecap="round" stroke-linejoin="round" stroke-miterlimit="10" d="M9.25 19.5a2 2 0 1 0 0-4 2 2 0 0 0 0 4m-4-15v7m5-7v7"/></svg>
