<svg xmlns="http://www.w3.org/2000/svg" fill="none" stroke-width="1.5" viewBox="0 0 24 24"><path stroke="currentColor" stroke-linecap="round" stroke-linejoin="round" d="m19.646 23.25.306-3.372a3 3 0 0 0-2.337-3.2l-3.83-.851v-4.952a1.875 1.875 0 1 0-3.75 0v9.375l-1.841-1.381a1.67 1.67 0 0 0-2.138 2.561l1.962 1.82"/><path stroke="currentColor" stroke-linecap="round" stroke-linejoin="round" d="M7.035 14.25h-1.5a1.5 1.5 0 0 1-1.5-1.5V2.25a1.5 1.5 0 0 1 1.5-1.5h12a1.5 1.5 0 0 1 1.5 1.5v10.5a1.5 1.5 0 0 1-1.5 1.5h-.75"/><path stroke="currentColor" stroke-linecap="round" stroke-linejoin="round" d="M9.285.75h4.5V6h-4.5z"/></svg>
