<svg xmlns="http://www.w3.org/2000/svg" fill="none" stroke-width="1.5" viewBox="0 0 24 24"><path stroke="currentColor" stroke-linecap="round" stroke-linejoin="round" d="M8.25 23.25h7.5M2.75.75h18.5s2 0 2 2V17.5s0 2-2 2H2.75s-2 0-2-2V2.75s0-2 2-2M12 23.25V19.5"/><path stroke="currentColor" stroke-linecap="round" stroke-linejoin="round" d="m11.329 4.086-4.5 2.25A1.5 1.5 0 0 0 6 7.677v4.9a1.5 1.5 0 0 0 .829 1.342l4.5 2.25a1.5 1.5 0 0 0 1.342 0l4.5-2.25A1.5 1.5 0 0 0 18 12.573v-4.9a1.5 1.5 0 0 0-.829-1.341l-4.5-2.25a1.5 1.5 0 0 0-1.342.004"/><path stroke="currentColor" stroke-linecap="round" stroke-linejoin="round" d="M17.762 6.869 12 9.749 6.224 6.89M12 9.75v6.573"/></svg>
