<svg xmlns="http://www.w3.org/2000/svg" fill="none" stroke-width="1.5" viewBox="0 0 24 24"><path stroke="currentColor" stroke-linecap="round" stroke-linejoin="round" d="M10.5 15.75a5.25 5.25 0 1 0 10.5 0 5.25 5.25 0 0 0-10.5 0m12.75 7.5-3.788-3.788"/><path stroke="currentColor" stroke-linecap="round" stroke-linejoin="round" d="M8.25 18.75h-6a1.5 1.5 0 0 1-1.5-1.5V6.75a1.5 1.5 0 0 1 1.5-1.5h15a1.5 1.5 0 0 1 1.5 1.5v1.5"/><path stroke="currentColor" stroke-linecap="round" stroke-linejoin="round" d="m18.266 5.647-2.821-4.229A1.5 1.5 0 0 0 14.2.75H5.3a1.5 1.5 0 0 0-1.248.668L1.234 5.647M9.75.75v4.5"/></svg>
