<svg xmlns="http://www.w3.org/2000/svg" fill="none" stroke-width="1.5" viewBox="0 0 24 24"><path stroke="currentColor" stroke-linecap="round" stroke-linejoin="round" d="M3.385 3.371a2.621 2.621 0 1 0 5.243 0 2.621 2.621 0 0 0-5.243 0M.991 20.928 4.51 15.3V9.738A1.498 1.498 0 0 1 6.966 8.59l2.613 2.178a1.505 1.505 0 0 0 1.897.019L13.31 9.32a1.499 1.499 0 1 1 1.872 2.34l-1.833 1.467a4.52 4.52 0 0 1-5.844-.191v2.363l3.516 5.629a1.498 1.498 0 1 1-2.54 1.588l-2.474-3.96-2.476 3.96a1.498 1.498 0 0 1-2.54-1.588"/><path stroke="currentColor" stroke-linecap="round" stroke-linejoin="round" d="M23.234 3.746v1.498H13.106c-.715 0-1.407.256-1.95.721L7.54 9.061m8.953-6.064h-4.494"/><path stroke="currentColor" stroke-linecap="round" stroke-linejoin="round" d="M19.489 5.244v1.498A1.5 1.5 0 0 1 17.99 8.24h-.75"/></svg>
