<svg xmlns="http://www.w3.org/2000/svg" fill="none" stroke-width="1.5" viewBox="0 0 24 24"><path stroke="currentColor" stroke-linecap="round" stroke-linejoin="round" d="m5.992 16.778 1.383.95m8.532-4.718-1.969 1.09-4.147-2.85-1.969 1.088 3.491 3.213-3.938 2.177 2 1.375a1.5 1.5 0 0 0 1.575.076l6.409-3.543a1.5 1.5 0 1 0-1.452-2.626"/><path stroke="currentColor" stroke-linecap="round" stroke-linejoin="round" d="M19.049 6.75H4.936A1.4 1.4 0 0 0 3.5 7.907l-2 13.915a1.357 1.357 0 0 0 1.437 1.428h18.111a1.357 1.357 0 0 0 1.436-1.428l-2-13.915a1.4 1.4 0 0 0-1.435-1.157m-3.387-2.943A3.764 3.764 0 0 0 11.976.75 3.76 3.76 0 0 0 8.3 3.788"/></svg>
