<svg xmlns="http://www.w3.org/2000/svg" fill="none" stroke-width="1.5" viewBox="0 0 24 24"><path stroke="currentColor" stroke-linecap="round" stroke-linejoin="round" d="M13.5 15.38v6a1.5 1.5 0 0 0 1.5 1.5h1.5m-12-7.5H3a1.5 1.5 0 0 0-1.5 1.5c0 2.25 3 2.25 3 4.5a1.5 1.5 0 0 1-1.5 1.5H1.5m6 0v-6a1.5 1.5 0 0 1 3 0v6m-3-3h3m12 3H21a1.5 1.5 0 0 1-1.5-1.5v-4.5a1.5 1.5 0 0 1 1.5-1.5h1.5m-3 4.5h3M.75 7.87a2.82 2.82 0 1 0 5.63 0 2.81 2.81 0 1 0 5.62 0 2.818 2.818 0 0 0 3.933 2.757A2.82 2.82 0 0 0 17.63 7.87a2.81 2.81 0 1 0 5.62 0l-1.37-6.16a.76.76 0 0 0-.73-.59H2.85a.76.76 0 0 0-.73.59z"/></svg>
