<svg xmlns="http://www.w3.org/2000/svg" fill="none" stroke-width="1.5" viewBox="0 0 24 24"><path stroke="currentColor" stroke-linecap="round" stroke-linejoin="round" d="M4.79.75a1 1 0 0 0-.9.66L2.38 5.69a2.2 2.2 0 0 0 0 1.43A2.66 2.66 0 0 0 4.84 9a2.74 2.74 0 0 0 2.64-2.84A2.74 2.74 0 0 0 10.11 9a2.74 2.74 0 0 0 2.64-2.84A2.74 2.74 0 0 0 15.39 9 2.74 2.74 0 0 0 18 6.16 2.74 2.74 0 0 0 20.66 9a2.66 2.66 0 0 0 2.48-1.88 2.2 2.2 0 0 0 0-1.43l-1.53-4.28a1 1 0 0 0-.9-.66zM3.75 12V8.74"/><path stroke="currentColor" stroke-linecap="round" stroke-linejoin="round" d="M21.75 8.74V19.5a1.5 1.5 0 0 1-1.5 1.5h-3M.75 16.5H4.5v6.75H.75"/><path stroke="currentColor" stroke-linecap="round" stroke-linejoin="round" d="M6.25 13.5a1.75 1.75 0 0 1 3.5 0v1.32a.74.74 0 0 0 .57.72l1.73.16a2.26 2.26 0 0 1 1.7 2.3l-.15 2.55a3 3 0 0 1-3 2.7H7.92q-.419 0-.82-.12l-1.82-.51a2.6 2.6 0 0 0-.78-.12v-4.85a4.94 4.94 0 0 0 1.75-4.15"/></svg>
