<svg xmlns="http://www.w3.org/2000/svg" fill="none" stroke-width="1.5" viewBox="0 0 24 24"><path stroke="currentColor" stroke-linecap="round" stroke-linejoin="round" d="m17.956 11.68 1.544 4.07h2.994a.735.735 0 0 1 .518 1.283l-2.6 1.815 1.44 3.314a.785.785 0 0 1-1.117.982l-3.485-1.96-3.48 1.96a.785.785 0 0 1-1.117-.982l1.44-3.314-2.6-1.815a.733.733 0 0 1 .514-1.283h3l1.541-4.07a.793.793 0 0 1 1.408 0"/><path stroke="currentColor" stroke-linecap="round" stroke-linejoin="round" d="M7.875 17.25H4.314a1.44 1.44 0 0 1-1.383-1.136l-2.138-9A1.484 1.484 0 0 1 2.176 5.25h18.148a1.485 1.485 0 0 1 1.383 1.864l-.3 1.256M3.75 5.25l4.5-4.5m10.5 4.5L14.25.752"/></svg>
