<svg xmlns="http://www.w3.org/2000/svg" fill="none" stroke-width="1.5" viewBox="0 0 24 24"><path stroke="currentColor" stroke-linecap="round" stroke-linejoin="round" d="M8.655 5.771a1.5 1.5 0 0 0-1.9 1.445v7.161a7.03 7.03 0 0 0 1.811 4.778 15.3 15.3 0 0 0 5.922 4 1.5 1.5 0 0 0 1.033 0 15.3 15.3 0 0 0 5.923-4 7.03 7.03 0 0 0 1.811-4.778V7.216a1.5 1.5 0 0 0-1.905-1.445 23.13 23.13 0 0 1-12.695 0"/><path stroke="currentColor" stroke-linecap="round" stroke-linejoin="round" d="M17.25 4.035V2.25a1.5 1.5 0 0 0-1.9-1.445 23.1 23.1 0 0 1-12.69 0A1.5 1.5 0 0 0 .75 2.25v7.162a7.03 7.03 0 0 0 1.811 4.778q.257.28.544.563M18 15.75a3 3 0 0 1-6 0m-2.25-4.5a1.5 1.5 0 0 1 3 0m4.5 0a1.5 1.5 0 1 1 3 0"/></svg>
