<svg xmlns="http://www.w3.org/2000/svg" fill="none" stroke-width="1.5" viewBox="0 0 24 24"><path stroke="currentColor" stroke-linecap="round" stroke-linejoin="round" d="M8.445 6.53a6.86 6.86 0 0 0 7.643 1.537"/><path stroke="currentColor" stroke-linecap="round" stroke-linejoin="round" d="M7.875 8.625a4.125 4.125 0 1 0 8.25 0 4.125 4.125 0 0 0-8.25 0M.75 6.751V2.25a1.5 1.5 0 0 1 1.5-1.5h4.5m16.5 6.001V2.25a1.5 1.5 0 0 0-1.5-1.5h-4.5M.75 17.25v4.5a1.5 1.5 0 0 0 1.5 1.5h4.5m16.5-6v4.5a1.5 1.5 0 0 1-1.5 1.5h-4.5m1.087-4.5a6.712 6.712 0 0 0-12.674 0"/></svg>
