<svg xmlns="http://www.w3.org/2000/svg" fill="none" stroke-width="1.5" viewBox="0 0 24 24"><path stroke="currentColor" stroke-linecap="round" stroke-linejoin="round" d="M23.25 23.25V12L12 .75.75 12v11.25"/><path stroke="currentColor" stroke-linecap="round" stroke-linejoin="round" d="M18.365 23.25a6.751 6.751 0 0 0-12.73 0m2.253-9.795-.012.777a5.9 5.9 0 0 1-.859 3.273m9.095-4.05.012.777a5.9 5.9 0 0 0 .859 3.273m-9.095-4.05a5.5 5.5 0 0 0 4.112-1.9 5.48 5.48 0 0 0 4.112 1.9"/><path stroke="currentColor" stroke-linecap="round" stroke-linejoin="round" d="M7.875 13.125a4.125 4.125 0 1 0 8.25 0 4.125 4.125 0 0 0-8.25 0"/></svg>
