<svg xmlns="http://www.w3.org/2000/svg" fill="none" stroke-width="1.5" viewBox="0 0 24 24"><path stroke="currentColor" stroke-linecap="round" stroke-linejoin="round" d="M9.75 9a2.25 2.25 0 1 0 4.5 0 2.25 2.25 0 0 0-4.5 0"/><path stroke="currentColor" stroke-linecap="round" stroke-linejoin="round" d="M15.9 14.25a4.5 4.5 0 0 0-7.792 0m6.892 3a3 3 0 0 1-6 0H1.5a.75.75 0 0 0-.75.75v4.5a.75.75 0 0 0 .75.75h21a.75.75 0 0 0 .75-.75V18a.75.75 0 0 0-.75-.75z"/><path stroke="currentColor" stroke-linecap="round" stroke-linejoin="round" d="M21.75 14.25v-9a1.5 1.5 0 0 0-1.5-1.5H9.75v-1.5a1.5 1.5 0 0 0-1.5-1.5h-4.5a1.5 1.5 0 0 0-1.5 1.5v12"/></svg>
