<svg xmlns="http://www.w3.org/2000/svg" fill="none" stroke-width="1.5" viewBox="0 0 24 24"><path stroke="currentColor" stroke-linecap="round" stroke-linejoin="round" d="M1.526 17.88h5.316a4.4 4.4 0 0 0 3.26-1.444l1.59-1.75.701.35a2.94 2.94 0 0 1 1.628 2.63v5.359"/><path stroke="currentColor" stroke-linecap="round" stroke-linejoin="round" d="M16.961 23.025v-5.359a5.85 5.85 0 0 0-3.212-5.238l2.83-3.114a1.47 1.47 0 0 0-1.088-2.459h-8.82a1.47 1.47 0 1 0 0 2.94h5.497l-4.24 4.664a1.47 1.47 0 0 1-1.087.481H1.526M17.329 3.548c0 1.98 2.144 3.218 3.859 2.227a2.57 2.57 0 0 0 1.286-2.227c0-1.98-2.144-3.218-3.859-2.228a2.57 2.57 0 0 0-1.286 2.228"/><path stroke="currentColor" stroke-linecap="round" stroke-linejoin="round" d="M19.901 21.555a1.47 1.47 0 0 1-1.47 1.47h-7.35M2.996 20.82a1.47 1.47 0 0 1-1.47-1.47V12m2.94 2.94v2.94m9.555 2.205h2.94"/></svg>
