<svg xmlns="http://www.w3.org/2000/svg" fill="none" stroke-width="1.5" viewBox="0 0 24 24"><path stroke="currentColor" stroke-linecap="round" stroke-linejoin="round" d="M13.78 3.38a2.63 2.63 0 1 0 5.26 0 2.63 2.63 0 0 0-5.26 0M16 20.25a4.51 4.51 0 0 0-1.73-6.54l-1.12-.56 1.73-1.89H21a1.5 1.5 0 0 0 0-3H4.49a1.5 1.5 0 1 0 0 3h6.27l-8.85 9.46A1.5 1.5 0 0 0 2 22.84c.27.259.627.405 1 .41a1.5 1.5 0 0 0 1.09-.47L11 15.43l1.92 1a1.5 1.5 0 0 1 .82 1.535 1.5 1.5 0 0 1-.2.585l-1.04 1.7m-2 0h12"/><path stroke="currentColor" stroke-linecap="round" stroke-linejoin="round" d="M9 21.75a1.5 1.5 0 1 0 3 0 1.5 1.5 0 0 0-3 0m8.25 0a1.5 1.5 0 1 0 3 0 1.5 1.5 0 0 0-3 0"/></svg>
