<svg xmlns="http://www.w3.org/2000/svg" fill="none" stroke-width="1.5" viewBox="0 0 24 24"><path stroke="currentColor" stroke-linecap="round" stroke-linejoin="round" d="M5.25 3a2.25 2.25 0 1 0 4.5 0 2.25 2.25 0 0 0-4.5 0m18 17.25a3 3 0 0 1-3 3H.75m15.11-10.434 1.39-2.316 5.011 3.132a2.1 2.1 0 0 1 .107 3.5l-3.586 2.561a3 3 0 0 1-1.743.56H2.671a1.5 1.5 0 0 1-1.455-1.865l.75-3a1.5 1.5 0 0 1 1.455-1.138H6V8.243a1.5 1.5 0 0 1 2.971-.295c.055.245.666 2.545 3.779 2.545a1.5 1.5 0 1 1 0 3A7.3 7.3 0 0 1 9 12.55m8.25-2.05-1.5-3M1.5 17.25h20.7"/></svg>
