<svg xmlns="http://www.w3.org/2000/svg" fill="none" stroke-width="1.5" viewBox="0 0 24 24"><path stroke="currentColor" stroke-linecap="round" stroke-linejoin="round" d="M21.75 10.506a9.74 9.74 0 0 0-4.369-8.137A9.753 9.753 0 0 0 2.41 8.74a9.74 9.74 0 0 0 2.841 8.788V21a2.248 2.248 0 0 0 3.841 1.59c.422-.422.659-.994.659-1.59a2.248 2.248 0 0 0 3.841 1.59c.422-.422.659-.994.659-1.59a2.248 2.248 0 0 0 3.841 1.59c.422-.422.659-.994.659-1.59v-3.473a9.7 9.7 0 0 0 3-7.022"/><path stroke="currentColor" stroke-linecap="round" stroke-linejoin="round" d="M5.25 10.506a2.249 2.249 0 0 0 3.841 1.59 2.249 2.249 0 1 0-3.182-3.18 2.25 2.25 0 0 0-.659 1.59m9 0a2.248 2.248 0 0 0 3.111 2.078 2.25 2.25 0 0 0 1.218-2.939 2.25 2.25 0 0 0-2.94-1.217 2.25 2.25 0 0 0-1.389 2.078M12 15.004v2.249"/></svg>
