<svg xmlns="http://www.w3.org/2000/svg" fill="none" stroke-width="1.5" viewBox="0 0 24 24"><path stroke="currentColor" stroke-linecap="round" stroke-linejoin="round" d="M6.75 3.75h10.5s3 0 3 3v10.5s0 3-3 3H6.75s-3 0-3-3V6.75s0-3 3-3m10.5 0H6.75v-1.5a1.5 1.5 0 0 1 1.5-1.5h7.5a1.5 1.5 0 0 1 1.5 1.5zm-1.5 19.5h-7.5a1.5 1.5 0 0 1-1.5-1.5v-1.5h10.5v1.5a1.5 1.5 0 0 1-1.5 1.5"/><path stroke="currentColor" stroke-linecap="round" stroke-linejoin="round" d="M15.93 9.281a1.9 1.9 0 0 0-2.751 0L12 10.5l-1.179-1.219a1.9 1.9 0 0 0-2.751 0 2.06 2.06 0 0 0 0 2.845l3.511 3.631a.58.58 0 0 0 .838 0l3.511-3.631a2.06 2.06 0 0 0 0-2.845"/></svg>
