<svg xmlns="http://www.w3.org/2000/svg" fill="none" stroke-width="1.5" viewBox="0 0 24 24"><path stroke="currentColor" stroke-linecap="round" stroke-linejoin="round" d="M.75 12a11.25 11.25 0 1 0 22.5 0 11.25 11.25 0 0 0-22.5 0"/><path stroke="currentColor" stroke-linecap="round" stroke-linejoin="round" d="M6 11.2a1.8 1.8 0 0 0 3 0m6 0a1.8 1.8 0 0 0 3 0m-2.244 7.7a.76.76 0 0 0 .744-.9 4.5 4.5 0 0 0-8.819 0 .76.76 0 0 0 .745.9 9.33 9.33 0 0 1 7.33 0M5.25 8.166c.788.172 1.612.07 2.334-.291a3.54 3.54 0 0 0 1.684-1.643m9.566 1.934a3.69 3.69 0 0 1-4.018-1.934"/></svg>
