<svg xmlns="http://www.w3.org/2000/svg" fill="none" stroke-width="1.5" viewBox="0 0 24 24"><path stroke="currentColor" stroke-linecap="round" stroke-linejoin="round" d="M.75 12a11.25 11.25 0 1 0 22.5 0 11.25 11.25 0 0 0-22.5 0m6-3.75h3m-1.5 1.5v-3m6 1.5h3m-1.5 1.5v-3"/><path stroke="currentColor" stroke-linecap="round" stroke-linejoin="round" d="M6.75 17.25c0-2.564 1.192-3.545 2.864-3.545 2.9 0 1.871 3.545 4.772 3.545 1.674 0 2.864-.982 2.864-3.545"/><path stroke="currentColor" stroke-linecap="round" stroke-linejoin="round" d="M.75 12a11.25 11.25 0 1 0 22.5 0 11.25 11.25 0 0 0-22.5 0m6-3.75h3m-1.5 1.5v-3m6 1.5h3m-1.5 1.5v-3"/><path stroke="currentColor" stroke-linecap="round" stroke-linejoin="round" d="M6.75 17.25c0-2.564 1.192-3.545 2.864-3.545 2.9 0 1.871 3.545 4.772 3.545 1.674 0 2.864-.982 2.864-3.545"/></svg>
