<svg xmlns="http://www.w3.org/2000/svg" fill="none" stroke-width="1.5" viewBox="0 0 24 24"><path stroke="currentColor" stroke-linecap="round" stroke-linejoin="round" d="M12 23.25c6.213 0 11.25-5.037 11.25-11.25S18.213.75 12 .75.75 5.787.75 12 5.787 23.25 12 23.25"/><path stroke="currentColor" stroke-linecap="round" stroke-linejoin="round" d="M5.634 14.25a.75.75 0 0 0-.707 1 7.5 7.5 0 0 0 14.146 0 .75.75 0 0 0-.707-1z"/><path stroke="currentColor" d="M7.5 8.625a.375.375 0 1 1 0-.75m0 .75a.375.375 0 1 0 0-.75m9 .75a.375.375 0 0 1 0-.75m0 .75a.375.375 0 0 0 0-.75"/></svg>
