<svg xmlns="http://www.w3.org/2000/svg" fill="none" stroke-width="1.5" viewBox="0 0 24 24"><path stroke="currentColor" stroke-linecap="round" stroke-linejoin="round" d="M5.357 17.931a9.531 9.531 0 0 1 11.12-15.338M2.014 17.863c-1.211 2.122-1.617 3.769-.933 4.454 1.039 1.038 4.288-.43 8.051-3.413m4.307-.754-3.575-3.575 7.946-7.946a5.05 5.05 0 0 1 2.35-1.328l2.043-.513a.843.843 0 0 1 1.022 1.021l-.511 2.045a5.05 5.05 0 0 1-1.33 2.349z"/><path stroke="currentColor" stroke-linecap="round" stroke-linejoin="round" d="M9.864 14.575 6.936 13.6a.422.422 0 0 1-.165-.7l1.02-1.02a3.38 3.38 0 0 1 3.458-.816l1.598.531zm3.575 3.575.976 2.929a.42.42 0 0 0 .699.165l1.02-1.021a3.38 3.38 0 0 0 .816-3.457l-.531-1.598z"/></svg>
