<svg xmlns="http://www.w3.org/2000/svg" fill="none" stroke-width="1.5" viewBox="0 0 24 24"><path stroke="currentColor" stroke-linecap="round" stroke-linejoin="round" d="M4.494 12.018a7.488 7.488 0 1 0 14.976 0 7.488 7.488 0 0 0-14.976 0"/><path stroke="currentColor" stroke-linecap="round" stroke-linejoin="round" d="M9.736 12.018a2.246 2.246 0 1 0 4.492 0 2.246 2.246 0 0 0-4.492 0"/><path stroke="currentColor" stroke-linecap="round" stroke-linejoin="round" d="m21.75 6.486.586-.587A2.995 2.995 0 1 0 18.1 1.664l-.587.586a11.18 11.18 0 0 0-11.064 0l-.587-.586A2.995 2.995 0 0 0 1.628 5.9l.586.587a11.18 11.18 0 0 0 0 11.064l-.586.587a2.995 2.995 0 0 0 4.235 4.235l.587-.586a11.18 11.18 0 0 0 11.064 0l.587.586a2.995 2.995 0 0 0 4.235-4.235l-.586-.587a11.18 11.18 0 0 0 0-11.064"/></svg>
