<svg xmlns="http://www.w3.org/2000/svg" fill="none" stroke-width="1.5" viewBox="0 0 24 24"><path stroke="currentColor" stroke-linecap="round" stroke-linejoin="round" d="M21 16.5a2.25 2.25 0 0 1 .843-1.756 3.76 3.76 0 0 0 1.407-2.935 3 3 0 0 0-1.285-2.462 2.25 2.25 0 0 1 .227-3.833A2 2 0 0 0 23.25 3.75a3 3 0 0 0-3-3 2 2 0 0 0-1.764 1.058 2.25 2.25 0 0 1-3.742.349A3.76 3.76 0 0 0 11.809.75a3 3 0 0 0-2.462 1.285 2.25 2.25 0 0 1-3.833-.227A2 2 0 0 0 3.75.75a3 3 0 0 0-3 3 2 2 0 0 0 1.058 1.764 2.25 2.25 0 0 1 .349 3.742A3.76 3.76 0 0 0 .75 12.191a3 3 0 0 0 1.285 2.462 2.25 2.25 0 0 1-.227 3.833A2 2 0 0 0 .75 20.25a3 3 0 0 0 3 3 2 2 0 0 0 1.764-1.058 2.25 2.25 0 0 1 3.742-.349 3.76 3.76 0 0 0 2.935 1.407 3 3 0 0 0 2.462-1.285 2.25 2.25 0 0 1 3.833.227 2 2 0 0 0 1.764 1.058 3 3 0 0 0 3-3 2 2 0 0 0-1.058-1.764A2.25 2.25 0 0 1 21 16.5"/><path stroke="currentColor" stroke-linecap="round" stroke-linejoin="round" d="M6.75 6.75h10.5v10.5H6.75z"/></svg>
