<svg xmlns="http://www.w3.org/2000/svg" fill="none" stroke-width="1.5" viewBox="0 0 24 24"><path stroke="currentColor" stroke-linecap="round" stroke-linejoin="round" d="m1 18.127 11 3m0 0 11-3m-22 0 5.493-1.439m-5.493 6v-4.436m22 0v4.436m-11 .5v-2.061m3.5-15.065c0 1.933-.583 7-3.5 7S8.5 8 8.5 6.062c0-3.5 3.5-5.25 3.5-5.25s3.5 1.75 3.5 5.25"/><path stroke="currentColor" d="M12 5.937a.5.5 0 0 1 0-1m0 1a.5.5 0 0 0 0-1"/><path stroke="currentColor" stroke-linecap="round" stroke-linejoin="round" d="M10.01 17.881v-1.008a2.017 2.017 0 0 1 3.99.08v.928m-4.317-5.72-.808.405a5.3 5.3 0 0 0-1.242.916.653.653 0 0 1-1.13-.417 3.49 3.49 0 0 1 2.113-3.61m5.701 2.706.808.405c.457.243.875.551 1.242.916a.654.654 0 0 0 1.13-.417 3.49 3.49 0 0 0-2.113-3.61M23 18.127l-5.493-1.439"/></svg>
