<svg xmlns="http://www.w3.org/2000/svg" fill="none" stroke-width="1.5" viewBox="0 0 24 24"><path stroke="currentColor" stroke-linecap="round" stroke-linejoin="round" d="M12 .8a9 9 0 0 1 9 9c0 7.9-6.932 12.331-8.629 13.3a.75.75 0 0 1-.743 0C9.931 22.132 3 17.7 3 9.8a9 9 0 0 1 9-9"/><path stroke="currentColor" stroke-linecap="round" stroke-linejoin="round" d="M7.5 9.698a4.5 4.5 0 1 0 9 0 4.5 4.5 0 0 0-9 0"/><path stroke="currentColor" stroke-linecap="round" stroke-linejoin="round" d="M15 13.052a4.5 4.5 0 0 1 0-6.708m-6 6.708a4.5 4.5 0 0 0 0-6.708"/></svg>
