<svg xmlns="http://www.w3.org/2000/svg" fill="none" stroke-width="1.5" viewBox="0 0 24 24"><path stroke="currentColor" stroke-linecap="round" stroke-linejoin="round" d="M11.564 5.219a.49.49 0 0 1 .872 0l1.012 2.042a.49.49 0 0 0 .366.263l2.271.328a.48.48 0 0 1 .391.325.47.47 0 0 1-.121.489l-1.65 1.6a.48.48 0 0 0-.138.421l.389 2.255a.47.47 0 0 1-.194.467.49.49 0 0 1-.511.035l-2.024-1.058a.49.49 0 0 0-.454 0l-2.024 1.058a.49.49 0 0 1-.676-.24.47.47 0 0 1-.029-.262l.389-2.255a.48.48 0 0 0-.138-.421l-1.65-1.6a.474.474 0 0 1 .028-.707.5.5 0 0 1 .242-.107l2.271-.328a.49.49 0 0 0 .366-.263z"/><path stroke="currentColor" stroke-linecap="round" stroke-linejoin="round" d="M21 9.75a9 9 0 1 0-10.8 8.82l1.8 4.68 1.8-4.68A9 9 0 0 0 21 9.75"/></svg>
