<svg xmlns="http://www.w3.org/2000/svg" fill="none" stroke-width="1.5" viewBox="0 0 24 24"><path stroke="currentColor" stroke-linecap="round" stroke-linejoin="round" d="M9 19.3a1.5 1.5 0 0 1-2.121 0L1.5 13.92a1.5 1.5 0 0 1 0-2.121L12 1.3a1.5 1.5 0 0 1 1.061-.44h5.378a1.5 1.5 0 0 1 1.5 1.5v5.378A1.5 1.5 0 0 1 19.5 8.8"/><path stroke="currentColor" d="M16.189 4.985a.375.375 0 0 1 0-.75m0 .75a.375.375 0 0 0 0-.75"/><path stroke="currentColor" stroke-linecap="round" stroke-linejoin="round" d="M16.939 23.138 11.826 17.8a3.026 3.026 0 1 1 4.278-4.278l.835.835.836-.835a3.025 3.025 0 1 1 4.278 4.278z"/></svg>
