<svg xmlns="http://www.w3.org/2000/svg" fill="none" stroke-width="1.5" viewBox="0 0 24 24"><path stroke="currentColor" stroke-linecap="round" stroke-linejoin="round" d="M15.75 6.75h3.75a1.5 1.5 0 0 1 1.5 1.5v9.879a1.5 1.5 0 0 1-.439 1.06l-3.622 3.622a1.5 1.5 0 0 1-1.06.439H4.5a1.5 1.5 0 0 1-1.5-1.5V8.25a1.5 1.5 0 0 1 1.5-1.5h3.75"/><path stroke="currentColor" stroke-linecap="round" stroke-linejoin="round" d="M15 23.25v-4.5a1.5 1.5 0 0 1 1.5-1.5H21M9.75 3a2.25 2.25 0 1 0 4.5 0 2.25 2.25 0 0 0-4.5 0M12 10.5V5.25m-5.25 9h10.5m-10.5 4.5h4.5"/></svg>
