<svg xmlns="http://www.w3.org/2000/svg" fill="none" stroke-width="1.5" viewBox="0 0 24 24"><path stroke="currentColor" stroke-linecap="round" stroke-linejoin="round" d="M6.891 21.375h10.385a7.87 7.87 0 0 0 3.141-6.251 8.17 8.17 0 0 0-8.334-8 8.17 8.17 0 0 0-8.333 8 7.87 7.87 0 0 0 3.141 6.251"/><path stroke="currentColor" stroke-linecap="round" stroke-linejoin="round" d="M9.758 4.875a2.25 2.25 0 1 0 4.5 0 2.25 2.25 0 0 0-4.5 0m-5.503 7.5h17.5a1.5 1.5 0 0 1 1.5 1.5v3M3.75 15.124l-3-2.749"/></svg>
