<svg xmlns="http://www.w3.org/2000/svg" fill="none" stroke-width="1.5" viewBox="0 0 24 24"><path stroke="currentColor" stroke-linecap="round" stroke-linejoin="round" d="M19.575 8.25a3.755 3.755 0 0 1 3.049-2.95.75.75 0 0 0 .626-.738V2.25a1.5 1.5 0 0 0-1.5-1.5H2.25a1.5 1.5 0 0 0-1.5 1.5v2.314a.75.75 0 0 0 .626.738 3.751 3.751 0 0 1 0 7.4.75.75 0 0 0-.626.739v2.309a1.5 1.5 0 0 0 1.5 1.5h6m0-3v-1.5m0-3v-1.5m0-3v-1.5"/><path stroke="currentColor" stroke-linecap="round" stroke-linejoin="round" d="M11.25 17.25a6 6 0 1 0 12 0 6 6 0 0 0-12 0m6-3v6m-3-3h6"/></svg>
