<svg xmlns="http://www.w3.org/2000/svg" fill="none" stroke-width="1.5" viewBox="0 0 24 24"><path stroke="currentColor" stroke-linecap="round" stroke-linejoin="round" d="M11.479 23.1a.814.814 0 0 0 1.05-.089L23.01 12.53a.815.815 0 0 0 .089-1.05 4.08 4.08 0 0 1 0-4.728.814.814 0 0 0-.089-1.05L18.3.988A.815.815 0 0 0 17.248.9a4.08 4.08 0 0 1-4.727 0 .816.816 0 0 0-1.05.09L.99 11.47a.816.816 0 0 0-.09 1.05 4.08 4.08 0 0 1 0 4.728.814.814 0 0 0 .09 1.051L5.7 23.01a.814.814 0 0 0 1.05.087 4.08 4.08 0 0 1 4.729.002"/><path stroke="currentColor" stroke-linecap="round" stroke-linejoin="round" d="m12.577 4.499 6.924 6.924-8.078 8.077-6.924-6.924zm0 4.616-3.462 3.462m4.664-.047-1.078 1.077"/></svg>
