<svg xmlns="http://www.w3.org/2000/svg" fill="none" stroke-width="1.5" viewBox="0 0 24 24"><path stroke="currentColor" stroke-linecap="round" stroke-linejoin="round" d="M4.919 16.5a6.75 6.75 0 1 0 13.5 0 6.75 6.75 0 0 0-13.5 0"/><path stroke="currentColor" stroke-linecap="round" stroke-linejoin="round" d="M10.75 12.75v3.75l3 2.25"/><path stroke="currentColor" stroke-linecap="round" stroke-linejoin="round" d="M18.379 15.764a5.48 5.48 0 0 0 3.79-5.264 7.56 7.56 0 0 0-2.25-5.25 2.6 2.6 0 0 1-3 2.25 5.69 5.69 0 0 1-1.5-6.75c-4.688 0-7.688 2.766-8.25 6.75a2.76 2.76 0 0 1-3-2.25c-3.764 3.2-2.853 9.043.789 10.517"/></svg>
