<svg xmlns="http://www.w3.org/2000/svg" fill="none" stroke-width="1.5" viewBox="0 0 24 24"><path stroke="currentColor" stroke-linecap="round" stroke-linejoin="round" d="M9 17.25a3 3 0 1 0 6 0 3 3 0 0 0-6 0m3-3v2.25"/><path stroke="currentColor" stroke-linecap="round" stroke-linejoin="round" d="M22.432 21.3A1.5 1.5 0 0 1 21 23.25H3a1.5 1.5 0 0 1-1.432-1.95l2.813-9a1.5 1.5 0 0 1 1.431-1.05h12.375a1.5 1.5 0 0 1 1.432 1.05zM3 .75a.75.75 0 0 0-.692 1.039 10.5 10.5 0 0 0 15.515 4.696 10.5 10.5 0 0 0 3.866-4.697A.75.75 0 0 0 21 .75zm6 7.065v3.435m6-3.435v3.435"/></svg>
