<svg xmlns="http://www.w3.org/2000/svg" fill="none" stroke-width="1.5" viewBox="0 0 24 24"><path stroke="currentColor" stroke-linecap="round" stroke-linejoin="round" stroke-miterlimit="10" d="M6.77 17.42a5.23 5.23 0 1 0 0-10.463 5.23 5.23 0 0 0 0 10.462"/><path stroke="currentColor" stroke-linecap="round" stroke-linejoin="round" stroke-miterlimit="10" d="M6.77 13.938a1.75 1.75 0 1 0 0-3.5 1.75 1.75 0 0 0 0 3.5m10.461 0a1.75 1.75 0 1 0 0-3.5 1.75 1.75 0 0 0 0 3.5M2.73 8.83C4.736 6.179 8.14 4.435 12 4.435s7.263 1.744 9.27 4.395"/><path stroke="currentColor" stroke-linecap="round" stroke-linejoin="round" stroke-miterlimit="10" d="M17.23 17.42a5.23 5.23 0 1 0 .001-10.462 5.23 5.23 0 0 0 0 10.461"/><path stroke="currentColor" stroke-linecap="round" stroke-linejoin="round" d="m9.24 16.79 2.774 2.775 2.775-2.775m2.442-9.833h5.884m-16.345 0H.884"/></svg>
