<svg xmlns="http://www.w3.org/2000/svg" fill="none" stroke-width="1.5" viewBox="0 0 24 24"><path stroke="currentColor" stroke-linecap="round" stroke-linejoin="round" d="M4.5 18.763a2.25 2.25 0 1 0 4.5 0 2.25 2.25 0 0 0-4.5 0m14.253-.123a2.249 2.249 0 1 0 .95-1.717m3.547-2.905a5.2 5.2 0 0 0-2.25-.505q-.466 0-.926.081M4.5 18.763h-.75a1.5 1.5 0 0 1-1.5-1.5V4.628m-1.5-.115 19.5 1.5"/><path stroke="currentColor" stroke-linecap="round" stroke-linejoin="round" d="m18 5.84 2.25 6.173-.6 5.415a1.5 1.5 0 0 1-1.49 1.335H9"/><path stroke="currentColor" stroke-linecap="round" stroke-linejoin="round" d="M2.25 13.513h7.5l3 5.25m-3-13.5v8.25m3-2.25.75 3.75h.75a1.5 1.5 0 0 1 1.5 1.5v2.25M18 5.84V4.513a1.5 1.5 0 1 0-3 0v1.1"/></svg>
