<svg xmlns="http://www.w3.org/2000/svg" fill="none" stroke-width="1.5" viewBox="0 0 24 24"><path stroke="currentColor" stroke-linecap="round" stroke-linejoin="round" d="M1.564 12.75a3 3 0 1 0 6 0 3 3 0 0 0-6 0m14.683 7.477a3 3 0 1 0 6 0 3 3 0 0 0-6 0m-.866-16.454a3 3 0 1 0 6 0 3 3 0 0 0-6 0"/><path stroke="currentColor" stroke-linecap="round" stroke-linejoin="round" d="M11.033 4.307a8.6 8.6 0 0 1 4.353-.457m-9.535 6.205a8.4 8.4 0 0 1 1.33-2.793m1.392 11.479a8.55 8.55 0 0 1-2.442-3.436m10.14 5.156a8.5 8.5 0 0 1-3.761.146m9.926-6.869a8.5 8.5 0 0 1-1.759 3.855m-.605-11.359a8.5 8.5 0 0 1 2.007 3.184"/></svg>
