<svg xmlns="http://www.w3.org/2000/svg" fill="none" stroke-width="1.5" viewBox="0 0 24 24"><path stroke="currentColor" stroke-linecap="round" stroke-linejoin="round" d="M.75 3a2.25 2.25 0 1 0 4.5 0 2.25 2.25 0 0 0-4.5 0m4.072 1.321L6.75 5.719M.75 21a2.25 2.25 0 1 0 4.499 0A2.25 2.25 0 0 0 .75 21m4.072-1.321L6.75 18.28M18.75 3a2.25 2.25 0 1 0 4.5 0 2.25 2.25 0 0 0-4.5 0m.428 1.321L17.25 5.719M18.75 21a2.25 2.25 0 1 0 4.5 0 2.25 2.25 0 0 0-4.5 0m.428-1.321L17.25 18.28M9.375 7.875a2.625 2.625 0 1 0 5.25 0 2.625 2.625 0 0 0-5.25 0M7.5 15.75a4.5 4.5 0 1 1 9 0z"/></svg>
