<svg xmlns="http://www.w3.org/2000/svg" fill="none" stroke-width="1.5" viewBox="0 0 24 24"><path stroke="currentColor" stroke-linecap="round" stroke-linejoin="round" d="M.75 4.5h7.5M4.5.75v7.5m15.647 4.65-4.7-4.7 2.526-2.526a1.97 1.97 0 0 1 2.784 0l1.918 1.918a1.97 1.97 0 0 1 0 2.783z"/><path stroke="currentColor" stroke-linecap="round" stroke-linejoin="round" d="m20.147 12.9-4.7-4.7-6.072 2.548a2.22 2.22 0 0 0-1.522 1.522L5.119 22.544a.554.554 0 0 0 .685.685L16.077 20.5a2.22 2.22 0 0 0 1.523-1.527zM5.26 23.088l7.466-7.467"/></svg>
