<svg xmlns="http://www.w3.org/2000/svg" fill="none" stroke-width="1.5" viewBox="0 0 24 24"><path stroke="currentColor" stroke-linecap="round" stroke-linejoin="round" d="M8.473 1.322S10.32 5.609 9.879 5.79C4.935 7.812.75 9.272.75 14.632c0 4.894 5.173 8.618 11.25 8.618m0 0c6.077 0 11.25-3.724 11.25-8.618 0-5.36-4.185-6.82-9.129-8.842-.441-.181 1.406-4.468 1.406-4.468"/><path stroke="currentColor" stroke-linecap="round" stroke-linejoin="round" d="M12 5.3c2.778 0 5.106 3.975 5.106 9.335 0 4.894-2.348 8.618-5.106 8.618s-5.106-3.724-5.106-8.618C6.894 9.272 9.458 5.3 12 5.3m-.178-.111V.75"/></svg>
