<svg xmlns="http://www.w3.org/2000/svg" fill="none" stroke-width="1.5" viewBox="0 0 24 24"><path stroke="currentColor" stroke-linecap="round" stroke-linejoin="round" d="M.763 8.25a2.25 2.25 0 1 0 4.5 0 2.25 2.25 0 0 0-4.5 0m0 8.196a2.25 2.25 0 1 0 4.499 0 2.25 2.25 0 0 0-4.499 0"/><path stroke="currentColor" stroke-linecap="round" stroke-linejoin="round" d="m2.34 10.397 7.391 4.381 4.201 2.489M2.34 14.3l4.317-2.559m3.08.259V2.25a1.5 1.5 0 0 1 1.5-1.5h12m0 22.5h-12a1.5 1.5 0 0 1-1.5-1.5V18m4.5-8.25v-9m0 22.5v-3m-4.5-15h4.5m9 9V.75m0 22.5v-9m-13.5-4.5h13.5m-7.5 4.5h7.5"/></svg>
