<svg xmlns="http://www.w3.org/2000/svg" fill="none" stroke-width="1.5" viewBox="0 0 24 24"><path stroke="currentColor" stroke-linecap="round" stroke-linejoin="round" d="M2.25 16.125V4.875a1.5 1.5 0 0 1 1.5-1.5h16.5a1.5 1.5 0 0 1 1.5 1.5v11.25m-7.166 0a2.976 2.976 0 0 1-5.168 0H.75v1.5a3 3 0 0 0 3 3h16.5a3 3 0 0 0 3-3v-1.5z"/><path stroke="currentColor" stroke-linecap="round" stroke-linejoin="round" d="M10.924 7.206a.85.85 0 0 0-.789.033.76.76 0 0 0-.385.652v3.718a.76.76 0 0 0 .385.652.85.85 0 0 0 .789.033l3.489-1.647a.98.98 0 0 0 0-1.794z"/></svg>
