<svg xmlns="http://www.w3.org/2000/svg" fill="none" stroke-width="1.5" viewBox="0 0 24 24"><path stroke="currentColor" stroke-linecap="round" stroke-linejoin="round" d="m17.729 23.25 4.671-8.763a.83.83 0 0 0-.34-1.12l-1.46-.779a.83.83 0 0 0-1.12.341l-5.5 10.321m6.865-5.842-2.921-1.558M14.25 12v3m1.5-1.5h-3m9-7.5v3m1.5-1.5h-3M.75 5.25h4.5m13.5 0h-4.5m-4.5 18h-7.5a1.5 1.5 0 0 1-1.5-1.5V2.25a1.5 1.5 0 0 1 1.5-1.5h15a1.5 1.5 0 0 1 1.5 1.5v3m-13.5 18v-9m9-4.5v-9m-9 9v-9m-4.5 18h4.5m-4.5-4.5h9m-9-4.5h18"/></svg>
