<svg xmlns="http://www.w3.org/2000/svg" fill="none" stroke-width="1.5" viewBox="0 0 24 24"><path stroke="currentColor" stroke-linecap="round" stroke-linejoin="round" d="M8.25 13.5a1.5 1.5 0 1 0 3 0 1.5 1.5 0 0 0-3 0"/><path stroke="currentColor" stroke-linecap="round" stroke-linejoin="round" d="M17.25 4.5h-15A1.5 1.5 0 0 0 .75 6v15a1.5 1.5 0 0 0 1.5 1.5h19.5a1.5 1.5 0 0 0 1.5-1.5V6a1.5 1.5 0 0 0-1.5-1.5h-1.5"/><path stroke="currentColor" stroke-linecap="round" stroke-linejoin="round" d="M13.233 18.386a6 6 0 1 1 2.22-6.756M17.25 1.5h3v6h-3z"/><path stroke="currentColor" stroke-linecap="round" stroke-linejoin="round" d="M18.75 7.5v5.25l-3.75 3"/></svg>
