<svg xmlns="http://www.w3.org/2000/svg" fill="none" stroke-width="1.5" viewBox="0 0 24 24"><path stroke="currentColor" stroke-linecap="round" stroke-linejoin="round" d="M8.201 8.793a6.7 6.7 0 0 1 .075-2.135"/><path stroke="currentColor" stroke-linecap="round" stroke-linejoin="round" d="M14.99 14.78a6.842 6.842 0 1 0-6.713-8.122 4.27 4.27 0 1 0-1.84 8.121z"/><path stroke="currentColor" stroke-linecap="round" stroke-linejoin="round" d="M11.569 14.78 8.148 18.2h5.131l-4.276 4.277"/><path stroke="currentColor" d="M4.299 22.905a.428.428 0 1 1 0-.856m0 .856a.428.428 0 0 0 0-.856m11.119.856a.428.428 0 0 1 0-.856m0 .856a.428.428 0 1 0 0-.856"/></svg>
