<svg xmlns="http://www.w3.org/2000/svg" fill="none" stroke-width="1.5" viewBox="0 0 24 24"><path stroke="currentColor" stroke-linecap="round" stroke-linejoin="round" d="M12 22.614a2.217 2.217 0 1 0 0-4.433 2.217 2.217 0 0 0 0 4.433m5.182-6.685a7.3 7.3 0 0 0-1.658-1.244M6.812 15.93a7.3 7.3 0 0 1 1.658-1.244m11.826-1.868a11.7 11.7 0 0 0-4.008-2.625M3.704 12.818a11.7 11.7 0 0 1 4.008-2.625M23 9.313a16.1 16.1 0 0 0-6.035-3.548M1 9.313a16.1 16.1 0 0 1 6.035-3.548m2.839-2.073.837 10.265a1.293 1.293 0 0 0 2.578 0l.837-10.265a2.133 2.133 0 1 0-4.252 0"/></svg>
