<svg xmlns="http://www.w3.org/2000/svg" fill="none" stroke-width="1.5" viewBox="0 0 24 24"><path stroke="currentColor" stroke-linecap="round" stroke-linejoin="round" d="M5.038 8.246h2.857m2.449 0h2.858m-6.94 0L9.12 18.47l2.857-10.224 2.857 10.224q.475-1.267.793-2.582.415-1.343.839-2.684a1063 1063 0 0 1 1.279-4.021 3.3 3.3 0 0 0 .289-1.2 1.04 1.04 0 0 0-.146-.461 1.2 1.2 0 0 0-1.013-.554c-.242 0-.478.071-.679.206"/><path stroke="currentColor" stroke-linecap="round" stroke-linejoin="round" d="M.75 12a11.25 11.25 0 1 0 22.5 0 11.25 11.25 0 0 0-22.5 0"/></svg>
