<svg xmlns="http://www.w3.org/2000/svg" fill="none" stroke-width="1.5" viewBox="0 0 24 24"><path stroke="currentColor" stroke-linecap="round" stroke-linejoin="round" d="m14.461 17.471-2.3-2.3a1.28 1.28 0 0 1 0-1.839l3.4-2.69a1.366 1.366 0 0 1 1.838 0l2 2a5.2 5.2 0 0 1 1.258 2.035l.529 1.591 2.069 2.068"/><path stroke="currentColor" stroke-linecap="round" stroke-linejoin="round" d="m12.9 15.9-.434.433a2 2 0 0 0 .014 2.843l.876.858 2.949 1.11 2.068 2.068M9.539 6.529l2.3 2.3a1.28 1.28 0 0 1 0 1.839l-3.4 2.69a1.366 1.366 0 0 1-1.838 0l-2-2a5.2 5.2 0 0 1-1.253-2.033l-.529-1.591L.75 5.666"/><path stroke="currentColor" stroke-linecap="round" stroke-linejoin="round" d="m11.105 8.1.434-.433a2 2 0 0 0-.014-2.843l-.876-.858L7.7 2.852 5.632.784M18.5 4.534l1.5-1.5m-4.5 0v-2m4.5 6.5h2m-17 10.5-1.5 1.5m4.5 0v2m-4.5-6.5h-2"/></svg>
