<svg xmlns="http://www.w3.org/2000/svg" fill="none" stroke-width="1.5" viewBox="0 0 24 24"><path stroke="currentColor" stroke-linecap="round" stroke-linejoin="round" stroke-miterlimit="10" d="m9.485 16.248-1.963 3.927c-.491.884-1.571 1.178-2.455.687-.687-.49-.982-1.374-.589-2.16l1.178-2.454m8.64-3.828v-.884c0-1.768-1.276-3.338-2.945-3.633a2.65 2.65 0 0 0-1.458 0"/><path stroke="currentColor" stroke-linecap="round" stroke-linejoin="round" stroke-miterlimit="10" d="M2.318 16.248 1.14 18.703c-.352.736-.098 1.669.59 2.16.883.49 1.963.196 2.454-.688l.17-.322m6.408-13.525a2.454 2.454 0 1 0 0-4.908 2.454 2.454 0 0 0 0 4.908m-2.416 7.024H2.652a.74.74 0 0 1-.687-.491l-.97-3.532c-.095-.357.184-.886.675-.886h4.713c.294 0 .589.196.687.49zm2.946 0H8.346m12.45 2.945c.393-.393.59-.982.59-1.669v-2.945l-1.965.981h-.981l-1.964-.981v2.945c0 .687.295 1.375.786 1.865m3.534-.196 1.767 2.553c.295.49.46 1.097.46 1.686v.098c0 1.08-.852 1.947-1.932 1.947H15.2m2.258-6.087v6.087"/></svg>
