<svg xmlns="http://www.w3.org/2000/svg" fill="none" stroke-width="1.5" viewBox="0 0 24 24"><path stroke="currentColor" stroke-linecap="round" stroke-linejoin="round" stroke-miterlimit="10" d="M3.955 9.654a2.972 2.972 0 1 0 0-5.944 2.972 2.972 0 0 0 0 5.944m12.682 2.928 5.69-5.69c.737-.737.948-1.897.316-2.74-.738-1.053-2.318-1.159-3.161-.316l-5.269 5.269H9.261a4.227 4.227 0 0 0-4.215 4.215v5.479c0 .948.632 1.791 1.58 1.897 1.16.21 2.108-.738 2.108-1.792V14.9h3.688v2.638c0 1.792 1.37 3.161 3.16 3.161h2.635c1.054 0 2.002-.737 2.213-1.79.21-1.37-.843-2.424-2.108-2.424h-1.685z"/></svg>
