<svg xmlns="http://www.w3.org/2000/svg" fill="none" stroke-width="3" viewBox="0 0 48 48"><g stroke="currentColor" stroke-linecap="round" stroke-linejoin="round"><path d="M10.897 26.618c-.91-1.003-2.266-.728-3.017.413-3.453 5.246-4.525 9.676-4.852 12.151-.176 1.328.492 2.552 1.667 3.055 2.19.938 6.355 2.17 12.376 1.631 1.31-.117 2.213-1.221 1.847-2.556-.43-1.57-1.366-4.046-3.38-7.733-2.012-3.687-3.572-5.782-4.641-6.961m26.206 0c.91-1.003 2.266-.728 3.017.413 3.453 5.246 4.525 9.676 4.852 12.151.176 1.328-.492 2.552-1.667 3.055-2.19.938-6.355 2.17-12.376 1.631-1.31-.117-2.213-1.221-1.847-2.556.43-1.57 1.366-4.046 3.38-7.733 2.012-3.687 3.572-5.782 4.641-6.961m-21.783-10.3c-1.398-.295-1.906-1.712-1.221-2.965 2.923-5.349 6.424-8.2 8.382-9.484a2.74 2.74 0 0 1 3.038 0c1.958 1.285 5.46 4.135 8.382 9.484.685 1.253.177 2.67-1.22 2.965-1.647.347-4.355.682-8.68.682-4.327 0-7.035-.335-8.682-.682"/><path d="M19.569 16.861c.28 3.056.64 6.691 1.02 9.812a353 353 0 0 0-7.228 3.229m15.07-13.04c-.29 3.163-.666 6.948-1.061 10.14a383 383 0 0 1 7.087 3.183m-4.16 7.776a385 385 0 0 1-6.697-4.832 371 371 0 0 1-6.087 4.4"/></g></svg>
