<svg xmlns="http://www.w3.org/2000/svg" fill="none" stroke-width="3" viewBox="0 0 48 48"><g stroke="currentColor"><path stroke-linecap="round" stroke-linejoin="round" d="M11.488 39.67c.203 1.31.414 2.502.59 3.444.25 1.325 1.192 2.389 2.525 2.59 1.046.159 2.499.296 4.397.296 1.805 0 3.288-.124 4.417-.272 1.584-.208 2.694-1.526 2.866-3.114l.321-2.962"/><path d="M35.623 2.604a1 1 0 0 1 1.754 0l1.992 3.642a6 6 0 0 0 2.385 2.385l3.642 1.992a1 1 0 0 1 0 1.754l-3.642 1.992a6 6 0 0 0-2.385 2.385l-1.992 3.642a1 1 0 0 1-1.754 0l-1.992-3.642a6 6 0 0 0-2.385-2.385l-3.642-1.992a1 1 0 0 1 0-1.754l3.642-1.992a6 6 0 0 0 2.385-2.385z"/><path stroke-linecap="round" stroke-linejoin="round" d="M25.5 5.287A17 17 0 0 0 19 4C9.611 4 2 11.611 2 21c0 5.433 2.549 10.271 6.516 13.383a67 67 0 0 0 .971 3.48c.307.998 1.136 1.723 2.175 1.832C13.055 39.84 15.404 40 19 40s5.945-.16 7.338-.305c1.039-.109 1.868-.834 2.174-1.833.287-.933.65-2.18.972-3.479a17.04 17.04 0 0 0 5.524-7.646"/></g></svg>
