<svg xmlns="http://www.w3.org/2000/svg" fill="none" stroke-width="3" viewBox="0 0 48 48"><g stroke="currentColor" stroke-linejoin="round"><path stroke-linecap="round" d="M6 10h18c5.192 0 10.107.12 13.566.233 2.873.093 5.262 2.249 5.39 5.12a40 40 0 0 1 .02 3.22c-.105 3.088-2.814 5.319-5.901 5.222A432 432 0 0 0 24 23.572c-5.007 0-10.013.125-13.555.239-2.88.092-5.274 2.25-5.402 5.128-.027.6-.043 1.222-.043 1.844 0 .619.016 1.237.043 1.836.127 2.88 2.527 5.041 5.41 5.134C14.08 37.87 19.187 38 24 38h18"/><path d="M12.64 2.971c-.083-.543-.614-.801-1.106-.556-.964.48-2.733 1.443-5.452 3.221-1.29.844-2.258 1.565-2.984 2.164-1.112.918-.484 2.2.958 2.2H12c.552 0 1-.45.995-1.003-.03-3.242-.208-5.06-.355-6.026Zm22.72 42.058c.083.543.614.801 1.106.556.964-.48 2.733-1.443 5.452-3.221 1.29-.844 2.258-1.565 2.984-2.164 1.112-.918.483-2.2-.958-2.2H36c-.552 0-1 .45-.995 1.003.03 3.242.208 5.06.355 6.026Z"/></g></svg>
