<svg xmlns="http://www.w3.org/2000/svg" fill="none" stroke-width="3" viewBox="0 0 48 48"><g stroke="currentColor" stroke-linecap="round" stroke-linejoin="round"><path d="M45 24a21 21 0 1 1-42 0 21 21 0 1 1 42 0"/><path d="M24.146 23.646a.5.5 0 0 1 0 .707l-6.498 6.499c-.97.97-1.169 2.486-.29 3.538.701.839 1.537 1.673 2.392 2.275 1.008.709 2.302.377 3.218-.447 3.274-2.941 7.602-7.328 9.779-10.21.92-1.219.919-2.798 0-4.016-2.177-2.883-6.505-7.269-9.779-10.21-.916-.824-2.21-1.156-3.218-.448-.855.602-1.69 1.437-2.392 2.275-.879 1.052-.68 2.57.29 3.539z" clip-rule="evenodd"/></g></svg>
