<svg xmlns="http://www.w3.org/2000/svg" fill="none" stroke-width="3" viewBox="0 0 48 48"><path stroke="currentColor" stroke-linecap="round" stroke-linejoin="round" d="M18.352 3.307c1.329.146 1.94 1.538 1.123 2.595-.813 1.052-2.014 2.495-3.747 4.357 2.115 2.355 3.489 4.11 4.302 5.22.646.88.732 1.992.02 2.822a16 16 0 0 1-.864.926c-.331.328-.623.597-.878.816-.835.717-1.945.617-2.823-.046-1.096-.828-2.83-2.212-5.172-4.31-1.917 1.792-3.384 3.013-4.443 3.828-1.048.806-2.413.2-2.559-1.113-.445-4.012-.343-8.76-.13-12.485A2.9 2.9 0 0 1 5.915 3.18c3.71-.21 8.435-.314 12.436.126Zm11.296 0c-1.329.146-1.94 1.538-1.123 2.595.813 1.052 2.014 2.495 3.747 4.357-2.115 2.355-3.489 4.11-4.302 5.22-.646.88-.732 1.992-.02 2.822.23.269.513.577.864.926.331.328.623.597.878.816.835.717 1.945.617 2.823-.046 1.096-.828 2.83-2.212 5.172-4.31 1.917 1.792 3.384 3.013 4.443 3.828 1.048.806 2.413.2 2.559-1.113.445-4.012.343-8.76.13-12.485a2.9 2.9 0 0 0-2.735-2.736c-3.71-.21-8.435-.314-12.436.126m0 41.386c-1.329-.146-1.94-1.537-1.123-2.595.813-1.052 2.014-2.495 3.747-4.357-2.115-2.355-3.489-4.11-4.302-5.22-.646-.88-.732-1.992-.02-2.822.23-.268.513-.576.864-.925.331-.33.623-.598.878-.817.835-.717 1.945-.617 2.823.046 1.096.828 2.83 2.213 5.172 4.31 1.917-1.792 3.384-3.013 4.443-3.828 1.048-.806 2.413-.2 2.559 1.113.445 4.012.343 8.76.13 12.485a2.9 2.9 0 0 1-2.735 2.736c-3.71.211-8.435.314-12.436-.126m-12.296.033c1.33-.14 1.938-1.53 1.116-2.585-.737-.946-1.792-2.21-3.274-3.81 2.42-2.654 3.956-4.608 4.836-5.81.646-.88.732-1.992.02-2.822a16 16 0 0 0-.864-.925 17 17 0 0 0-.878-.817c-.835-.717-1.945-.617-2.823.046-1.187.896-3.12 2.444-5.763 4.843-1.653-1.537-2.942-2.614-3.897-3.355-1.045-.81-2.406-.207-2.547 1.108-.397 3.706-.308 8.052-.116 11.503a2.897 2.897 0 0 0 2.735 2.735c3.436.191 7.759.28 11.455-.11Z"/></svg>
