<svg xmlns="http://www.w3.org/2000/svg" fill="none" stroke-width="3" viewBox="0 0 48 48"><g stroke="currentColor" stroke-linecap="round" stroke-linejoin="round"><path d="M42.258 5.742c6.152 6.151 1.39 17.738-8.694 27.822S11.893 48.41 5.742 42.258c-6.152-6.151-1.39-17.738 8.694-27.822S36.107-.41 42.258 5.742"/><path d="M5.742 5.742c-6.152 6.151-1.39 17.738 8.694 27.822s21.671 14.846 27.822 8.694c6.152-6.151 1.39-17.738-8.694-27.822S11.893-.41 5.742 5.742"/><path d="M30 24a6 6 0 1 1-12 0 6 6 0 0 1 12 0"/></g></svg>
