<svg xmlns="http://www.w3.org/2000/svg" fill="none" stroke-width="3" viewBox="0 0 48 48"><path stroke="currentColor" stroke-linecap="round" stroke-linejoin="round" d="M37.082 17.712c1.527-1.096 1.636-3.315.169-4.49-5.534-4.435-11.668-7.744-15.437-9.58-1.787-.87-3.797.315-3.944 2.297-.2 2.695-.433 6.69-.548 11.73a372 372 0 0 0-4.844-2.735c-.838-.463-1.85-.46-2.536.207a9 9 0 0 0-.856.964c-.371.48-.616.963-.776 1.39-.329.874.124 1.77.883 2.313 1.127.806 3.106 2.184 6.154 4.192-3.048 2.008-5.027 3.387-6.154 4.193-.76.542-1.212 1.439-.883 2.312.16.428.405.91.776 1.39.3.389.592.707.856.965.685.668 1.698.67 2.536.207.937-.518 2.46-1.37 4.844-2.736.115 5.04.349 9.036.548 11.73.147 1.982 2.157 3.168 3.944 2.297 3.77-1.836 9.903-5.144 15.437-9.579 1.467-1.175 1.358-3.394-.17-4.49A212 212 0 0 0 27.786 24c2.985-1.91 6.136-4.02 9.297-6.288Zm-6.846-2.47c-2.862-1.81-6.454-4.03-6.454-4.03s-.305 3.93-.576 8.463c1.94-1.157 4.96-3.306 7.03-4.434Zm-7.03 13.083c.27 4.534.576 8.462.576 8.462s3.592-2.218 6.454-4.028c-2.07-1.128-5.09-3.276-7.03-4.434" clip-rule="evenodd"/></svg>
