<svg xmlns="http://www.w3.org/2000/svg" fill="none" stroke-width="3" viewBox="0 0 48 48"><g stroke="currentColor" stroke-linejoin="round"><path stroke-linecap="round" d="M3.5 13.5h37M11 21h12M9 8.5h2m5 0h2m1 30.483c-4.815-.054-8.383-.235-10.837-.414-2.556-.188-4.523-2.125-4.725-4.68C3.217 31.102 3 26.872 3 21s.217-10.1.438-12.89c.202-2.554 2.171-4.492 4.727-4.679C11.105 3.216 15.64 3 22 3s10.895.216 13.835.431c2.556.187 4.525 2.125 4.727 4.68C40.783 10.898 41 15.128 41 21q0 .768-.005 1.5M11 29h6"/><path d="M34 45c-4.575 0-7.857-3.066-7.972-7.64A94 94 0 0 1 26 35q0-1.284.028-2.36C26.143 28.066 29.425 25 34 25s7.857 3.066 7.972 7.64q.027 1.076.028 2.36c.001 1.284-.01 1.642-.028 2.36C41.857 41.934 38.575 45 34 45Z"/><path stroke-linecap="round" d="m42 31 3-2m-3 10 3 2m.5-6H42m-16-4-3-2m3 10-3 2m-.5-6H26m6-10-1-4m5 4 1-4m5 10s-2.5 2-8 2-8-2-8-2"/></g></svg>
