<svg xmlns="http://www.w3.org/2000/svg" fill="none" stroke-width="3" viewBox="0 0 48 48"><path stroke="currentColor" stroke-linecap="round" stroke-linejoin="round" d="M38 46V35.77c0-2.002-.07-3.63-.166-4.917-.17-2.282-2.104-3.864-4.39-3.785-6.457.223-13.108.991-19.235 2.223-2.187.44-3.862 2.144-4.047 4.367A50 50 0 0 0 10 37.815V46M23.034 2.02c.56-.13 1.013.373.989.948-.101 2.454.062 6.43 1.919 8.435.389.42 1.022.536 1.487.202 1.11-.796 1.865-2.526 2.365-4.234.223-.76 1.178-1.038 1.671-.419C32.919 8.773 34 11.04 34 13.754c0 5.694-4.477 8.248-10 8.248s-10-2.554-10-8.248c0-5.752 4.863-9.498 7.806-11.24.39-.23.804-.394 1.228-.493Z"/></svg>
