<svg xmlns="http://www.w3.org/2000/svg" fill="none" stroke-width="3" viewBox="0 0 48 48"><path stroke="currentColor" stroke-linecap="round" stroke-linejoin="round" d="m11.763 19.27-.171 10.952a6.09 6.09 0 0 0 6.186 6.186l10.952-.17.127 6.114c.022 1.048.474 2.069 1.479 2.367.535.16 1.23.281 2.11.281.871 0 1.563-.12 2.097-.277 1.012-.299 1.465-1.328 1.482-2.383l.097-6.218 6.937-.109c.61-.01 1.224-.187 1.478-.741.238-.521.463-1.393.463-2.827 0-1.444-.228-2.317-.468-2.837-.253-.546-.86-.723-1.461-.736l-6.834-.142.171-10.952a6.09 6.09 0 0 0-6.186-6.186l-10.952.17-.127-6.114c-.022-1.048-.474-2.069-1.479-2.367-.535-.16-1.23-.281-2.11-.281-.871 0-1.563.12-2.097.277-1.012.299-1.465 1.328-1.482 2.383l-.097 6.218-6.937.109c-.61.01-1.224.187-1.478.741C3.225 13.25 3 14.121 3 15.555c0 1.444.228 2.317.468 2.837.253.546.86.723 1.461.736zm7.833 8.14c.011.544.45.983.994.994l7.98.166-.166-7.98a1.015 1.015 0 0 0-.994-.994l-7.98-.166z" clip-rule="evenodd"/></svg>
