<svg xmlns="http://www.w3.org/2000/svg" fill="none" stroke-width="3" viewBox="0 0 48 48"><path stroke="currentColor" stroke-linecap="round" stroke-linejoin="round" d="M2 21h21.217c2.2 0 4.14.005 5.847.014a87 87 0 0 1 2.24-2.317 75 75 0 0 1 3.647-3.44 2.48 2.48 0 0 1 3.311 0c.872.762 2.088 1.88 3.648 3.44a75 75 0 0 1 3.44 3.648 2.48 2.48 0 0 1 0 3.31 75 75 0 0 1-3.44 3.648 75 75 0 0 1-3.648 3.44 2.48 2.48 0 0 1-3.31 0 75 75 0 0 1-3.649-3.44 87 87 0 0 1-2.239-2.318c-1.708.01-3.647.015-5.847.015H2"/></svg>
