<svg xmlns="http://www.w3.org/2000/svg" fill="none" stroke-width="3" viewBox="0 0 48 48"><g stroke="currentColor" stroke-linecap="round" stroke-linejoin="round"><path d="M37.079 35c.056 2.497.133 4.324.197 5.547.064 1.22.78 2.247 1.996 2.373.466.048 1.036.08 1.728.08.693 0 1.263-.032 1.729-.08 1.215-.127 1.928-1.151 1.987-2.372C44.834 38.085 45 33.02 45 24s-.166-14.085-.284-16.549c-.058-1.22-.772-2.244-1.987-2.37A17 17 0 0 0 41 5c-.692 0-1.262.032-1.728.08-1.216.127-1.932 1.153-1.996 2.373-.065 1.223-.141 3.05-.197 5.547M10.921 35a186 186 0 0 1-.197 5.547c-.064 1.22-.78 2.247-1.996 2.373A17 17 0 0 1 7 43c-.693 0-1.263-.032-1.729-.08-1.215-.127-1.929-1.151-1.987-2.372C3.166 38.085 3 33.02 3 24s.166-14.085.284-16.549c.058-1.22.772-2.244 1.987-2.37C5.737 5.031 6.307 5 7 5c.692 0 1.262.032 1.728.08 1.216.127 1.932 1.153 1.996 2.373.065 1.223.141 3.05.197 5.547"/><path d="M30.116 30.094c.09 1.977 1.949 2.782 3.42 1.46a69 69 0 0 0 2.229-2.099c1.744-1.712 2.785-3.02 3.398-3.926a2.675 2.675 0 0 0 0-3.056c-.613-.906-1.654-2.215-3.398-3.927a69 69 0 0 0-2.227-2.098c-1.473-1.322-3.333-.517-3.422 1.46-.034.753-.064 1.64-.085 2.682-1.418-.05-3.394-.09-6.031-.09s-4.613.04-6.031.09c-.021-1.043-.05-1.93-.085-2.683-.09-1.976-1.949-2.782-3.42-1.46a69 69 0 0 0-2.229 2.1c-1.744 1.71-2.785 3.02-3.397 3.926-.64.945-.64 2.11 0 3.056.612.906 1.653 2.215 3.397 3.926a69 69 0 0 0 2.227 2.098c1.473 1.322 3.333.517 3.422-1.46.035-.755.064-1.645.085-2.692 1.478.053 3.496.099 6.031.099s4.553-.046 6.031-.099c.02 1.047.05 1.938.085 2.693"/></g></svg>
