<svg xmlns="http://www.w3.org/2000/svg" fill="none" stroke-width="3" viewBox="0 0 48 48"><g stroke="currentColor" stroke-linecap="round" stroke-linejoin="round"><path d="m11.559 17.349 2.19-10.483m10.352-1.884L21.9 15.525m10.34-1.822 2.18-10.435M10.05 30.693c.071-1.473 1.143-2.547 2.616-2.621A67 67 0 0 1 16 28c1.419 0 2.507.03 3.334.072 1.473.074 2.545 1.148 2.616 2.621.03.624.05 1.387.05 2.307s-.02 1.682-.05 2.307c-.071 1.473-1.143 2.547-2.616 2.621A67 67 0 0 1 16 38a67 67 0 0 1-3.334-.072c-1.473-.074-2.545-1.148-2.616-2.621-.03-.625-.05-1.388-.05-2.307s.02-1.682.05-2.307"/><path d="M3.507 22.093C3.723 20.265 5.289 19 7.13 19h33.74c1.841 0 3.407 1.265 3.623 3.093.253 2.132.507 5.4.507 9.907 0 3.916-.192 6.74-.408 8.677-.243 2.183-1.94 3.726-4.132 3.885-2.938.213-8.036.438-16.46.438s-13.521-.225-16.46-.438c-2.191-.16-3.89-1.702-4.132-3.885C3.192 38.74 3 35.916 3 32c0-4.508.254-7.775.507-9.907M2.093 11.675c-.023-1.659 1.309-2.773 2.933-3.114 2.679-.563 7.84-1.582 17.106-3.216s14.465-2.441 17.175-2.829c1.642-.234 3.275.357 3.82 1.924.205.586.4 1.306.554 2.182.21 1.189.258 2.171.232 2.946-.046 1.363-1.158 2.294-2.501 2.531l-17.543 3.094-17.544 3.093c-1.343.237-2.707-.258-3.216-1.523a14.3 14.3 0 0 1-.79-2.848 14 14 0 0 1-.226-2.24"/></g></svg>
