<svg xmlns="http://www.w3.org/2000/svg" fill="none" stroke-width="3" viewBox="0 0 48 48"><g stroke="currentColor" stroke-linecap="round" stroke-linejoin="round"><path d="M2 30c2.132 0 7.597-.477 9.95-4.26 2.044-3.285.387-6.874 2.568-8.154.2-.117.165-.574-.067-.591-5.447-.394-5.018 2.332-8.221 3.135-.402.1-.82-.112-.861-.524-.195-1.989 1.759-6 4.133-7.22 3.431-1.764 7.82-1.292 7.48-9.471-.014-.321-.416-.445-.615-.193-1.789 2.272-3.282 3.648-6.865 3.048C5.554 5.108 3.072 6.847 2 9.539m16.322 11.764c.067.686.664 1.16 1.353 1.178 1.429.037 3.984.146 6.66.467a1 1 0 0 1 .585.287l.803.811a228 228 0 0 0-7.83 9.645 1 1 0 0 1-.799.394h-5.688c-.69 0-1.302.47-1.366 1.158-.071.763-.037 1.473.022 2.016.068.636.597 1.093 1.233 1.147 3.14.265 5.574.368 6.993.408a4.36 4.36 0 0 0 2.572-.73c2.11-1.427 3.818-2.942 3.818-2.942a22 22 0 0 1 3.138 2.901c.15.172.229.394.229.623v5.933c0 .687.467 1.297 1.15 1.361.75.071 1.447.037 1.982-.022.634-.069 1.088-.598 1.14-1.233.294-3.54.387-6.2.417-7.54a4.3 4.3 0 0 0-.364-1.86c-1.189-2.667-2.467-4.39-2.467-4.39l1.568-1.585.836.736c.627.552 1.41.9 2.244.958 3.363.237 6.564.086 8.16-.024.635-.044 1.17-.498 1.237-1.131.081-.763.056-1.472.002-2.026-.067-.685-.664-1.156-1.351-1.171-1.517-.034-4.294-.138-7.025-.458a1.03 1.03 0 0 1-.705-.416c-.744-1.01-3.048-3.974-6.429-6.817a3.65 3.65 0 0 0-2.096-.84c-3.747-.26-7.14-.102-8.79.01-.632.043-1.164.495-1.232 1.126-.08.758-.054 1.469 0 2.025"/><path d="M32.5 18.5a5.5 5.5 0 1 0 11 0 5.5 5.5 0 1 0-11 0"/></g></svg>
