<svg xmlns="http://www.w3.org/2000/svg" fill="none" stroke-width="3" viewBox="0 0 48 48"><path stroke="currentColor" stroke-linecap="round" stroke-linejoin="round" d="M20.188 3.03a59 59 0 0 0-2.99 6.233.95.95 0 0 0 .104.92c.538.742 1.788 2.383 3.717 4.42.235.248.333.595.255.928-.269 1.147-.936 4.04-1.665 7.538-.17.814.517 1.228 1.06.599 1.179-1.364 3.111-4.007 5.96-9.058a.97.97 0 0 0 .005-.957 38 38 0 0 0-2.939-4.405.49.49 0 0 1-.054-.528c.423-.82 1.77-3.313 3.665-5.699 3.405.047 5.86.163 7.579.286 2.249.16 4.056 1.565 4.431 3.788.358 2.118.684 5.417.684 10.405 0 7.222-4.372 12.26-10.776 13.912-1.029.265-1.78 1.203-1.68 2.261l.335 3.573c.112 1.202.937 2.213 2.07 2.628a78 78 0 0 1 5.264 2.176c.546.248.886.792.886 1.392 0 .86-.697 1.557-1.558 1.557H13.457c-.86 0-1.558-.697-1.558-1.557 0-.6.34-1.144.886-1.392a78 78 0 0 1 5.264-2.176c1.134-.415 1.958-1.426 2.07-2.628l.336-3.573c.099-1.058-.652-1.996-1.68-2.262C12.37 29.76 8 24.721 8 17.5c0-4.988.326-8.287.684-10.405.375-2.223 2.182-3.628 4.431-3.788 1.633-.117 3.929-.227 7.073-.278Z"/></svg>
