<svg xmlns="http://www.w3.org/2000/svg" fill="none" stroke-width="3" viewBox="0 0 48 48"><g stroke="currentColor" stroke-linecap="round" stroke-linejoin="round"><path d="M36 19.493c.635-.718 1.248-1.402 1.83-2.032a122 122 0 0 0 3.905 2.495c1.688 1.029 3.448-.057 3.25-2.024a85 85 0 0 0-.778-5.618c-.647-3.834-1.427-6.179-2.003-7.519a2.88 2.88 0 0 0-2.542-1.771c-1.46-.077-3.937 0-7.771.72-2.35.44-4.17.853-5.55 1.208-1.92.493-2.33 2.525-.774 3.754 1.01.798 2.342 1.811 4.088 3.08-1.289 2.737-2.91 5.514-4.643 7.897 0 0-4.036-3.189-7.832-5.86a2.837 2.837 0 0 0-3.734.397C7.754 20.446 4.468 26.474 3.278 28.87c-.35.703-.423 1.517.083 2.118.287.341.71.745 1.329 1.178.44.307.831.526 1.172.681.948.433 1.906-.11 2.522-.95 1.79-2.443 5.669-7.641 7.94-9.965.796.555 1.73 1.28 2.7 2.068"/><path d="M33.975 35.763a7 7 0 1 0-7.964-.01c-2.708 1.074-4.841 3.215-5.833 5.878-.528 1.418.256 3.043 1.765 3.159l.101.007c1.928.11 4.548.203 7.936.203s6.009-.092 7.937-.203l.102-.007c1.509-.116 2.292-1.742 1.764-3.159-.988-2.655-3.111-4.79-5.808-5.868"/></g></svg>
