<svg xmlns="http://www.w3.org/2000/svg" fill="none" stroke-width="3" viewBox="0 0 48 48"><g stroke="currentColor" stroke-linejoin="round"><path stroke-linecap="round" d="M24 3c.593 0 1.152.19 1.676.523M24 39.879c.375.186.82.444 1.319.745m3.624-32.827c.235.466.46.945.674 1.422q.454 1.015 1.074 1.876m4.95 3.648q.943.318 1.973.463a30 30 0 0 1 1.839.313m4.693 2.102c.376.407.643.88.768 1.43.142.622.067 1.264-.17 1.913m-3.2 4.19c-.442.417-.9.825-1.358 1.22q-.762.662-1.343 1.424m-1.771 5.565c.023.65.115 1.312.28 1.976.157.63.307 1.274.435 1.915m.087 5.687c-.228.628-.587 1.147-1.117 1.512a3 3 0 0 1-1.37.498m-3.978-.868c-.468-.204-.94-.435-1.409-.68q-.595-.313-1.178-.648"/><path d="M24 3v36.879l-9.672 4.797c-2.244 1.113-4.784-.798-4.466-3.36l1.381-11.122-7.388-8.165c-1.698-1.877-.73-4.962 1.706-5.44l10.555-2.064 5.124-9.818C21.834 3.569 22.917 3 24 3Z"/></g></svg>
