<svg xmlns="http://www.w3.org/2000/svg" fill="none" stroke-width="3" viewBox="0 0 48 48"><g stroke="currentColor" stroke-linecap="round" stroke-linejoin="round"><path d="M24 3c11.598 0 21 9.402 21 21s-9.402 21-21 21S3 35.598 3 24 12.402 3 24 3"/><path d="M24.944 20.026c1.138.066 1.866.95 1.937 2.088C26.944 23.14 27 24.697 27 27v5.028c1.27.027 2.217.068 2.912.11 1.094.067 1.972.74 2.053 1.833q.034.441.035 1.029c0 .394-.013.734-.035 1.029-.08 1.092-.959 1.766-2.053 1.833-1.16.07-3.022.138-5.912.138s-4.753-.067-5.912-.138c-1.094-.067-1.972-.74-2.053-1.833A14 14 0 0 1 16 35q.001-.588.035-1.028c.08-1.094.959-1.767 2.053-1.834a73 73 0 0 1 2.912-.11V27q0-.527.004-1.004a32 32 0 0 1-1.985-.033c-1.187-.066-1.98-.941-2.01-2.13a33 33 0 0 1 0-1.667c.03-1.188.823-2.063 2.01-2.129.407-.022.896-.037 1.481-.037H24q.534.001.944.026M20.5 12.5a3.5 3.5 0 1 0 7 0 3.5 3.5 0 1 0-7 0"/></g></svg>
