<svg xmlns="http://www.w3.org/2000/svg" fill="none" stroke-width="3" viewBox="0 0 48 48"><path stroke="currentColor" stroke-linecap="round" stroke-linejoin="round" d="M6.842 18.563c-.249-.349-.596-.635-1.025-.642-.657-.011-1.696.217-2.558 1.512-.353.531-.298 1.223.042 1.762a24.8 24.8 0 0 0 4.24 5.083L4.156 29.26c-.92.81-1.267 2.126-.527 3.104.312.411.703.84 1.183 1.22.942.745 2.245.344 3.031-.564l3.415-3.945a24.5 24.5 0 0 0 5.09 2.367l-1.692 5.018c-.391 1.162-.034 2.474 1.096 2.951.476.2 1.029.377 1.635.466 1.188.174 2.116-.825 2.343-2.004l1.04-5.407a24.2 24.2 0 0 0 5.901.069l1.026 5.338c.227 1.18 1.155 2.178 2.343 2.004a6.8 6.8 0 0 0 1.635-.466c1.13-.477 1.487-1.789 1.095-2.951l-1.635-4.852a24.5 24.5 0 0 0 5.23-2.305l3.218 3.717c.786.908 2.089 1.31 3.03.564.48-.38.872-.809 1.183-1.22.74-.978.394-2.293-.526-3.104l-3.096-2.727a24.8 24.8 0 0 0 4.526-5.339c.34-.539.395-1.23.041-1.762-.862-1.295-1.9-1.523-2.558-1.512-.429.007-.776.293-1.025.642-4.173 5.854-10.665 8.585-17.157 8.585s-12.984-2.73-17.158-8.585"/></svg>
