<svg xmlns="http://www.w3.org/2000/svg" fill="none" stroke-width="3" viewBox="0 0 48 48"><g stroke="currentColor" stroke-linecap="round" stroke-linejoin="round"><path d="M24.499 44.936c1.36.04 2.858.064 4.5.064 4.938 0 8.569-.214 11.045-.444 2.528-.235 4.385-2.24 4.543-4.774.2-3.225.413-8.388.413-15.782s-.213-12.557-.413-15.782c-.158-2.534-2.015-4.539-4.543-4.774C37.568 3.214 33.937 3 29 3s-8.568.214-11.045.444c-2.527.235-4.385 2.24-4.542 4.774A178 178 0 0 0 13.22 12M28 40h2"/><path d="M3.17 40.194c.105 2.495 1.878 4.493 4.37 4.665 1.2.082 2.679.141 4.46.141s3.26-.059 4.46-.141c2.492-.172 4.265-2.17 4.37-4.665.09-2.148.17-5.177.17-9.194s-.08-7.046-.17-9.194c-.105-2.495-1.878-4.493-4.37-4.665A65 65 0 0 0 12 17c-1.781 0-3.26.059-4.46.141-2.492.172-4.265 2.17-4.37 4.665C3.08 23.954 3 26.983 3 31s.08 7.046.17 9.194M11 40h2"/></g></svg>
