<svg xmlns="http://www.w3.org/2000/svg" fill="none" stroke-width="3" viewBox="0 0 48 48"><path stroke="currentColor" stroke-linecap="round" stroke-linejoin="round" d="M9.548 4.24a70 70 0 0 0-2.342 8.758c-.241 1.222.358 2.428 1.455 3.015a354 354 0 0 0 11.055 5.66c-2.38 1.597-4.714 3.384-6.202 4.56-.887.701-.984 2.017-.036 2.634.835.544 1.696.91 2.388 1.147.916.315 1.9.232 2.81-.104a86 86 0 0 0 9.53-4.231 212 212 0 0 0 9.037 3.855c1.605.637 3.378-.262 3.534-1.982.224-2.476.018-5.919-2.192-8.403-2.347-2.64-8.723-4.155-14.606-5.553-3.297-.784-6.44-1.53-8.632-2.418 0 0-.313-3.082-1.013-6.165-.101-.446-.36-.84-.755-1.07a10.5 10.5 0 0 0-1.874-.856c-.908-.311-1.848.243-2.157 1.152ZM3.05 39.623c.12-.942.993-1.4 1.943-1.43C7.357 38.12 12.91 38 24 38s16.643.12 19.007.194c.95.03 1.824.487 1.942 1.43q.05.373.051.876c0 .337-.02.627-.05.877-.12.942-.993 1.4-1.943 1.43C40.643 42.88 35.09 43 24 43s-16.643-.12-19.007-.194c-.95-.03-1.824-.487-1.942-1.43A7 7 0 0 1 3 40.5c0-.337.02-.627.05-.877"/></svg>
