<svg xmlns="http://www.w3.org/2000/svg" fill="none" stroke-width="3" viewBox="0 0 48 48"><g stroke="currentColor" stroke-linecap="round" stroke-linejoin="round"><path d="M3.156 41.45c.04 1.47.906 2.79 2.343 3.097.923.197 2.105.358 3.501.358s2.578-.16 3.5-.358c1.438-.307 2.305-1.628 2.344-3.097.067-2.496.156-6.72.156-11.545s-.089-9.049-.156-11.544c-.04-1.47-.906-2.79-2.343-3.097A16.8 16.8 0 0 0 9 14.905c-1.396 0-2.578.162-3.5.359-1.438.307-2.305 1.628-2.344 3.097C3.089 20.856 3 25.08 3 29.905s.089 9.049.156 11.545"/><path d="M14.75 17.38c1.616-3.539 3.461-8.548 4.387-11.648.5-1.675 2.006-2.875 3.747-2.718 1.095.098 2.362.283 3.55.623 2.135.612 3.284 2.71 3.443 4.926.152 2.125.146 4.289.075 6.198 3.247-.305 6.432-.548 9.28-.696 3.04-.159 5.587 2.115 5.702 5.155.214 5.637.038 14.68-2.554 21.702-.905 2.45-3.317 3.908-5.929 3.963-8.501.18-17.136-.873-22.133-1.631M9 38.905v-2"/></g></svg>
