<svg xmlns="http://www.w3.org/2000/svg" fill="none" stroke-width="3" viewBox="0 0 48 48"><g stroke="currentColor" stroke-linejoin="round"><path stroke-linecap="round" d="M15.5 8.75c-.652-.271-1.464-.17-2.197.411-1.12.886-2.566 2.102-4.373 3.748-2.699 2.46-4.194 4.278-5.008 5.458a2.82 2.82 0 0 0 0 3.266c.814 1.18 2.31 3 5.008 5.458 1.807 1.647 3.254 2.864 4.373 3.75.734.58 1.545.682 2.197.412"/><path d="M23.341 31.228c1.498 1.012 3.214.203 3.359-1.599a92 92 0 0 0 .238-4.738c1.39-.097 2.624-.12 3.667-.103 2.268.035 4.113 1.626 4.79 3.79l2.698 8.61c.327 1.046 1.085 1.913 2.17 2.064.44.062.966.104 1.58.104.59 0 1.099-.04 1.527-.097 1.082-.145 1.748-1.108 1.769-2.2.079-4.145-.235-8.467-.65-12.208-.663-5.986-6.064-10.061-12.086-10.15a100 100 0 0 1-5.484-.224 87 87 0 0 0-.219-4.106c-.145-1.801-1.861-2.61-3.36-1.598-1.343.908-3.18 2.235-5.563 4.136-2.95 2.352-4.643 4.119-5.598 5.3-.874 1.082-.874 2.5 0 3.581.956 1.182 2.648 2.949 5.598 5.3 2.384 1.902 4.22 3.23 5.564 4.138Z"/></g></svg>
