<svg xmlns="http://www.w3.org/2000/svg" fill="none" stroke-width="3" viewBox="0 0 48 48"><path stroke="currentColor" stroke-linecap="round" stroke-linejoin="round" d="M25.906 3.664c-1.14-.94-2.673-.94-3.812 0-1.052.868-2.593 2.211-4.756 4.249-2.97.088-5.011.229-6.368.359-1.471.141-2.555 1.225-2.696 2.696-.13 1.357-.27 3.398-.36 6.368-2.038 2.164-3.381 3.706-4.249 4.758-.94 1.14-.94 2.673 0 3.812.868 1.052 2.212 2.594 4.25 4.758.088 2.969.228 5.009.359 6.366.14 1.47 1.225 2.555 2.696 2.696 1.357.13 3.396.27 6.366.359 2.164 2.038 3.705 3.382 4.757 4.25 1.14.94 2.674.94 3.814 0 1.052-.868 2.594-2.212 4.757-4.25 2.97-.089 5.01-.229 6.368-.36 1.47-.14 2.554-1.224 2.696-2.695.13-1.357.27-3.397.359-6.368 2.037-2.163 3.38-3.704 4.248-4.756.94-1.14.94-2.673 0-3.812-.867-1.052-2.21-2.594-4.248-4.757-.089-2.971-.229-5.012-.36-6.37-.14-1.47-1.225-2.554-2.695-2.695-1.357-.13-3.398-.27-6.37-.359-2.163-2.038-3.704-3.381-4.756-4.249"/></svg>
