<svg xmlns="http://www.w3.org/2000/svg" fill="none" stroke-width="3" viewBox="0 0 48 48"><g stroke="currentColor" stroke-linecap="round" stroke-linejoin="round"><path d="M35.908 32c.056-2.304.092-4.964.092-8 0-7.394-.212-12.557-.413-15.782-.158-2.534-2.015-4.539-4.543-4.774C28.569 3.214 24.938 3 20 3s-8.568.214-11.044.444c-2.528.235-4.385 2.24-4.543 4.774C4.213 11.443 4 16.606 4 24s.213 12.557.413 15.782c.158 2.534 2.015 4.539 4.543 4.774 2.476.23 6.107.444 11.044.444 2.272 0 4.267-.045 6-.117"/><path d="M44.214 46s.882-5.968 1.631-12.252c.104-.876.11-1.762.007-2.638-.937-8.042-2.466-14.525-3.285-17.648-.333-1.272-1.312-2.28-2.62-2.406-1.138-.11-2.611-.093-4.064.384 0 10.894-.24 20.99-.24 20.99a41.4 41.4 0 0 0-8.146-4.585c-.946-.394-2.073-.543-2.832.146-.65.591-1.06 1.427-1.311 2.135-.3.848 0 1.757.611 2.416l3.716 4.012a12 12 0 0 1 2.326 3.667L32.337 46"/></g></svg>
