<svg xmlns="http://www.w3.org/2000/svg" fill="none" stroke-width="3" viewBox="0 0 48 48"><g stroke="currentColor" stroke-linecap="round" stroke-linejoin="round"><path d="M20 19a4 4 0 1 0 8 0 4 4 0 1 0-8 0"/><path d="M13.132 16.087c-1.35 3.32-2.128 6.794-2.56 9.313-.408 2.384.107 4.857 1.77 6.613 1.173 1.24 2.767 2.565 4.687 3.292 1.205.456 2.428-.29 2.838-1.51.437-1.301 1.062-3.325 1.87-6.34l1.23-4.59m4.898-2.83 4.586 1.23c3.015.807 5.04 1.432 6.34 1.869 1.221.41 1.967 1.633 1.51 2.838-.726 1.92-2.05 3.514-3.291 4.688-1.757 1.662-4.23 2.177-6.613 1.769-2.52-.432-5.993-1.21-9.313-2.56m3.953-14.733 1.23-4.59c.808-3.016 1.433-5.04 1.87-6.34.41-1.222 1.633-1.967 2.838-1.511 1.92.727 3.514 2.051 4.688 3.292 1.662 1.756 2.177 4.23 1.769 6.613-.432 2.519-1.21 5.992-2.56 9.313m-14.736-3.949-4.591-1.23c-3.015-.808-5.04-1.433-6.34-1.87-1.221-.41-1.967-1.633-1.51-2.838.726-1.92 2.05-3.514 3.291-4.688 1.757-1.662 4.23-2.177 6.613-1.768 2.52.431 5.993 1.209 9.314 2.559M24 31v15"/></g></svg>
