<svg xmlns="http://www.w3.org/2000/svg" fill="none" stroke-width="3" viewBox="0 0 48 48"><path stroke="currentColor" stroke-linecap="round" stroke-linejoin="round" d="M22.503 3.005c1.904.146 3.13.64 3.824 1.03.496.279.708.833.667 1.4-.157 2.182-.614 8.1-1.37 14.495-.078.655-.39 1.263-1.003 1.504-.702.275-1.889.563-3.78.563-1.519 0-2.583-.185-3.307-.4-.915-.273-1.266-1.218-1.1-2.158 1.526-8.59 3.49-13.489 4.408-15.456.3-.643.954-1.033 1.66-.978m-13.394 0c1.905.147 3.13.64 3.825 1.03.496.28.708.833.667 1.4a337 337 0 0 1-1.37 14.496c-.078.654-.39 1.263-1.003 1.503-.702.276-1.889.564-3.78.564-1.52 0-2.583-.186-3.307-.401-.915-.273-1.267-1.218-1.1-2.157C4.566 10.85 6.53 5.95 7.448 3.983c.3-.642.953-1.032 1.66-.978m16.389 41.988c-1.904-.146-3.13-.64-3.824-1.03-.496-.28-.708-.833-.667-1.4.157-2.182.614-8.1 1.37-14.495.078-.655.389-1.264 1.003-1.504.702-.276 1.889-.564 3.78-.564 1.519 0 2.583.186 3.307.402.915.272 1.266 1.217 1.1 2.157-1.526 8.59-3.49 13.489-4.408 15.456a1.685 1.685 0 0 1-1.66.978m13.394 0c-1.904-.146-3.13-.64-3.824-1.03-.496-.28-.708-.833-.668-1.4.158-2.182.614-8.1 1.371-14.495.077-.655.389-1.264 1.002-1.504.703-.276 1.89-.564 3.781-.564 1.519 0 2.583.186 3.307.402.914.272 1.266 1.217 1.1 2.157-1.526 8.59-3.49 13.489-4.408 15.456a1.685 1.685 0 0 1-1.66.978"/></svg>
