<svg xmlns="http://www.w3.org/2000/svg" fill="none" stroke-width="3" viewBox="0 0 48 48"><g stroke="currentColor" stroke-linecap="round" stroke-linejoin="round"><path d="M4.872 3.06c-1.053.12-1.608 1.055-1.646 2.115C3.137 7.635 3 13.185 3 24s.137 16.364.226 18.825c.038 1.06.593 1.995 1.646 2.116.316.036.69.059 1.128.059.439 0 .812-.023 1.128-.06 1.053-.12 1.608-1.055 1.646-2.115C8.863 40.365 9 34.815 9 24S8.863 7.636 8.774 5.175c-.038-1.06-.593-1.995-1.646-2.116A10 10 0 0 0 6 3c-.439 0-.812.023-1.128.06"/><path d="M8.971 31.976c4.08.245 7.433.955 10.6 1.626 6.78 1.438 12.7 2.692 23.053-1.21.82-.308 1.44-.986 1.597-1.848.32-1.77.779-5.469.779-12.152 0-4.951-.252-8.265-.513-10.369-.212-1.714-1.921-2.566-3.564-2.032-8.947 2.906-14.498 1.28-20.592-.504C16.453 4.35 12.354 3.15 7.02 3.013H6"/></g></svg>
