<svg xmlns="http://www.w3.org/2000/svg" fill="none" stroke-width="3" viewBox="0 0 48 48"><g stroke="currentColor" stroke-linecap="round" stroke-linejoin="round"><path d="M6.182 15.842c.887 13.815 1.736 21.002 2.24 24.423.256 1.73 1.392 3.14 3.093 3.548C13.83 44.37 17.817 45 24.002 45s10.171-.63 12.487-1.186c1.7-.408 2.836-1.818 3.092-3.548.505-3.422 1.353-10.609 2.24-24.427"/><path d="M31.036 7.176c3.56.066 6.334.174 8.322.275 2.39.12 4.61 1.393 5.278 3.691q.152.517.276 1.097c.394 1.84-.983 3.421-2.858 3.58-3.02.255-8.547.545-18.077.545-9.529 0-15.057-.29-18.076-.545-1.876-.158-3.261-1.75-2.776-3.568.175-.655.39-1.253.616-1.784.813-1.903 2.77-2.885 4.836-2.999 1.908-.104 4.685-.222 8.387-.292A7 7 0 0 1 23.37 3h1.262a7 7 0 0 1 6.405 4.176ZM18 25l1 10m11-10-1 10"/></g></svg>
