<svg xmlns="http://www.w3.org/2000/svg" fill="none" stroke-width="3" viewBox="0 0 48 48"><path stroke="currentColor" stroke-linecap="round" stroke-linejoin="round" d="M9.5 15.667c1.842-2.692 5.538-7.889 7.588-10.124.565-.616 1.33-.976 2.155-1.112 1.811-.3 5.315-.714 8.576-.154 1.112.19 2.076.84 2.815 1.692.693.802 1.513 1.757 1.866 2.198l1.822-.911c.91-.456 1.943.307 1.755 1.307-.693 3.682-2.135 10.383-3.577 11.104-1.466.733-8.036-1.22-11.44-2.316-.918-.296-1.141-1.472-.409-2.1l1.849-1.584-2-4m18.603 7.08c1.41 2.941 4.063 8.74 4.973 11.633.252.798.18 1.64-.114 2.423-.646 1.718-2.039 4.96-4.154 7.503-.722.868-1.765 1.379-2.874 1.592-1.04.2-2.277.433-2.836.518l-.122 2.033c-.06 1.016-1.237 1.529-2.01.866-2.842-2.44-7.924-7.04-7.827-8.65.098-1.636 5.075-6.349 7.726-8.75.715-.646 1.845-.251 2.022.697l.448 2.393 4.464.268M23.604 41.834c-3.252-.25-9.601-.852-12.562-1.51-.816-.181-1.51-.664-2.04-1.31-1.165-1.419-3.276-4.246-4.422-7.35-.39-1.059-.31-2.218.059-3.284.347-1.001.764-2.189.97-2.715l-1.7-1.122c-.85-.561-.706-1.836.255-2.174 3.534-1.241 10.058-3.342 11.404-2.454 1.367.903 2.96 7.57 3.714 11.066.203.942-.704 1.723-1.614 1.403l-2.297-.809-2.464 3.732"/></svg>
