<svg xmlns="http://www.w3.org/2000/svg" fill="none" stroke-width="3" viewBox="0 0 48 48"><path stroke="currentColor" stroke-linecap="round" stroke-linejoin="round" d="M24.008 45c-5.68 0-9.818-.116-12.633-.242-2.809-.125-4.974-2.295-5.093-5.104-.135-3.206-.266-8.224-.266-15.649 0-1.866-.013-2.924-.016-3.98-.004-1.556.467-3.082 1.401-4.326 4.109-5.473 8.812-9.41 11.358-11.342 1.204-.914 2.678-1.363 4.189-1.356a100 100 0 0 1 1.095.01c5.601 0 9.7.114 12.508.238 2.85.125 5.05 2.353 5.17 5.203.14 3.313.279 8.404.279 15.553s-.14 12.24-.279 15.554c-.12 2.85-2.32 5.078-5.17 5.203-2.813.124-6.924.238-12.543.238M35 9v5m-6-5v5m-6-5v5"/></svg>
