<svg xmlns="http://www.w3.org/2000/svg" fill="none" stroke-width="3" viewBox="0 0 48 48"><g stroke="currentColor" stroke-linecap="round" stroke-linejoin="round"><path d="M24 3a21 21 0 1 0 0 42 21 21 0 1 0 0-42"/><path d="M22.224 12.423c.747-1.439 2.805-1.439 3.551 0l2.81 5.418 5.96 1.174c1.522.3 2.138 2.145 1.1 3.3l-4.225 4.698.776 6.288c.195 1.584-1.45 2.747-2.878 2.035L24 32.68l-5.318 2.655c-1.427.712-3.073-.451-2.878-2.035l.776-6.288-4.225-4.699c-1.038-1.154-.422-3 1.1-3.3l5.96-1.173 2.81-5.418Z"/></g></svg>
