<svg xmlns="http://www.w3.org/2000/svg" fill="none" stroke-width="3" viewBox="0 0 48 48"><g stroke="currentColor" stroke-linecap="round" stroke-linejoin="round"><path d="M3.872 26.232a3.43 3.43 0 0 1 0-4.464 117 117 0 0 1 4.048-4.542c.09-2.502.219-4.423.34-5.811a3.43 3.43 0 0 1 3.155-3.156c1.388-.12 3.309-.25 5.81-.34a117 117 0 0 1 4.543-4.047 3.43 3.43 0 0 1 4.464 0c1.104.928 2.618 2.251 4.542 4.048 2.502.09 4.423.219 5.812.34a3.43 3.43 0 0 1 3.155 3.155c.12 1.388.25 3.309.34 5.81a117 117 0 0 1 4.047 4.543 3.43 3.43 0 0 1 0 4.464 117 117 0 0 1-4.048 4.542 115 115 0 0 1-.34 5.812 3.43 3.43 0 0 1-3.154 3.155c-1.389.12-3.31.25-5.812.34a117 117 0 0 1-4.542 4.047 3.43 3.43 0 0 1-4.464 0 117 117 0 0 1-4.542-4.048 116 116 0 0 1-5.811-.34 3.43 3.43 0 0 1-3.156-3.154c-.12-1.39-.25-3.31-.34-5.812a117 117 0 0 1-4.047-4.542"/><path d="M14 24a10 10 0 1 0 20 0 10 10 0 1 0-20 0"/></g></svg>
