<svg xmlns="http://www.w3.org/2000/svg" fill="none" stroke-width="3" viewBox="0 0 48 48"><g stroke="currentColor" stroke-linecap="round" stroke-linejoin="round"><path d="M38 21v1.53a4 4 0 0 1-3.434 3.96l-7.132 1.02A4 4 0 0 0 24 31.47V35"/><path d="M10 25v.53a4 4 0 0 0 3.434 3.96l7.132 1.02A4 4 0 0 1 24 34.47V35m-3.949-22.096c-1.685-.096-2.454-1.635-1.568-3.072a63 63 0 0 1 1.698-2.597c.775-1.128 1.432-1.961 1.971-2.576 1.054-1.2 2.64-1.2 3.695 0 .539.614 1.196 1.448 1.97 2.576a63 63 0 0 1 1.699 2.596c.886 1.438.117 2.977-1.569 3.073-.99.056-2.28.096-3.947.096s-2.958-.04-3.949-.096"/><path d="M14 21a4 4 0 1 1-8 0 4 4 0 0 1 8 0m5 19a5 5 0 1 0 10 0 5 5 0 1 0-10 0m5-27v22m17.972-19.675c-.046-1.28-1.016-2.251-2.297-2.297A47 47 0 0 0 38 13q-.967.001-1.675.028c-1.28.046-2.251 1.016-2.297 2.297A47 47 0 0 0 34 17q.001.967.028 1.675c.046 1.28 1.016 2.251 2.297 2.297q.709.027 1.675.028.967-.001 1.675-.028c1.28-.046 2.251-1.016 2.297-2.297q.027-.708.028-1.675-.001-.967-.028-1.675"/></g></svg>
