<svg xmlns="http://www.w3.org/2000/svg" fill="none" stroke-width="3" viewBox="0 0 48 48"><g stroke="currentColor" stroke-linecap="round" stroke-linejoin="round"><path d="M32.873 14.121a6 6 0 1 1 6.211.027c2.956 1.091 5.21 3.679 5.881 6.866.228 1.08-.69 1.986-1.794 1.986H28.713c-1.105 0-2.022-.905-1.794-1.986.677-3.213 2.962-5.817 5.954-6.893m-17.746 22a6 6 0 1 0-6.211.026c-2.956 1.092-5.21 3.68-5.881 6.867-.228 1.08.69 1.986 1.794 1.986h14.458c1.105 0 2.022-.905 1.794-1.986-.677-3.213-2.962-5.817-5.954-6.893M3.246 12.38a.876.876 0 0 0-.588 1.358c1.393 2.108 3.553 4.43 4.65 5.563.38.392 1 .39 1.378-.004 1.052-1.1 3.097-3.33 4.599-5.53a.892.892 0 0 0-.586-1.396c-2.876-.498-6.588-.495-9.453.01Z"/><path d="M25 3.002 24.053 3c-4.931 0-8.566.171-11.053.357-2.555.19-4.491 2.157-4.667 4.713A134 134 0 0 0 8.126 12m36.627 23.62a.876.876 0 0 0 .59-1.358c-1.394-2.108-3.554-4.43-4.652-5.563a.95.95 0 0 0-1.378.004c-1.05 1.1-3.096 3.33-4.598 5.53a.892.892 0 0 0 .586 1.396c2.876.498 6.587.495 9.452-.01Z"/><path d="M27 44.977c3.413-.053 6.055-.189 7.997-.333 2.556-.19 4.492-2.156 4.668-4.713.075-1.087.148-2.394.209-3.931"/></g></svg>
