<svg xmlns="http://www.w3.org/2000/svg" fill="none" stroke-width="3" viewBox="0 0 48 48"><g stroke="currentColor" stroke-linecap="round" stroke-linejoin="round"><path d="M8.227 36.941c-2.544-.17-4.54-2.055-4.769-4.595-.24-2.665-.47-6.656-.47-12.154s.23-9.49.47-12.154c.229-2.54 2.225-4.426 4.77-4.595C11.455 3.228 16.615 3 24 3s12.544.228 15.773.443c2.545.17 4.54 2.055 4.77 4.595.239 2.664.469 6.656.469 12.154s-.23 9.49-.47 12.154c-.228 2.54-2.224 4.426-4.769 4.595-2.83.189-7.143.387-13.138.433l-7.907 7.04c-1.29 1.147-3.33.232-3.33-1.495v-5.65a190 190 0 0 1-7.172-.328"/><path d="M40 13.328c0 .471-.174 1.154-.445 1.79-.46 1.076-1.702 1.076-2.812.705-.886-.296-1.81-.39-2.846-.267-1.716.201-4.03 1.748-4.03 4.46 0 2.206 1.32 4.14 4.378 4.428.852.081 1.626-.038 2.409-.302 1.14-.383 2.434-.28 2.878.837.457 1.15.631 2.533.152 3.28C38.662 29.848 35.902 30 34.245 30 28.2 30 24 26.109 24 20.016 24 14.27 28.076 10 33.897 10c2.074 0 6.103.486 6.103 3.328"/><path d="M24 13.328c0 .471-.174 1.154-.445 1.79-.46 1.076-1.702 1.076-2.812.705-.886-.296-1.81-.39-2.846-.267-1.716.201-4.03 1.748-4.03 4.46 0 2.206 1.32 4.14 4.378 4.428.852.081 1.625-.038 2.409-.302 1.14-.383 2.433-.28 2.878.837.457 1.15.631 2.533.152 3.28C22.662 29.848 19.902 30 18.245 30 12.2 30 8 26.109 8 20.016 8 14.27 12.076 10 17.897 10c2.074 0 6.103.486 6.103 3.328"/></g></svg>
