<svg xmlns="http://www.w3.org/2000/svg" fill="none" stroke-width="3" viewBox="0 0 48 48"><path stroke="currentColor" stroke-linecap="round" stroke-linejoin="round" d="M7.471 38.248c-2.31-.354-3.974-2.23-4.147-4.56C3.157 31.448 3 28.218 3 24s.157-7.447.324-9.688c.173-2.33 1.837-4.206 4.147-4.56C9.918 9.376 13.493 9 18 9s8.082.376 10.529.752c2.31.354 3.974 2.23 4.147 4.56.09 1.2.176 2.684.237 4.45 2.066-1.397 4.97-3.124 8.21-4.343 1.574-.592 3.205.434 3.417 2.103.233 1.83.46 4.404.46 7.478s-.227 5.648-.46 7.478c-.212 1.669-1.843 2.695-3.417 2.103-3.24-1.219-6.144-2.946-8.21-4.343-.06 1.767-.147 3.25-.237 4.45-.173 2.33-1.837 4.206-4.147 4.56C26.082 38.624 22.507 39 18 39s-8.082-.376-10.529-.752"/></svg>
