<svg xmlns="http://www.w3.org/2000/svg" fill="none" stroke-width="3" viewBox="0 0 48 48"><g stroke="currentColor" stroke-linecap="round"><path stroke-linejoin="round" d="M5 24c1.628-3.531 5.242-9.749 8.687-13.701 1.249-1.432 3.377-1.432 4.626 0C21.758 14.25 25.373 20.469 27 24"/><path stroke-linejoin="round" d="M19.053 11.178c2.029-2.777 4.188-5.398 6.26-7.354a3.16 3.16 0 0 1 4.374 0q.404.381.813.797M42 24c1.657 0 3.022 1.35 2.788 2.991C43.338 37.172 34.582 45 24 45S4.663 37.172 3.21 26.991C2.977 25.351 4.343 24 6 24z"/><path stroke-linejoin="round" d="M15.523 24c.995 1.72 1.33 3.58.477 5.5-.871 1.96-2.502 2.687-4.148 3.42-1.775.792-3.568 1.591-4.443 3.955M24.428 24c-.148 4.884 3.092 5.743 5.88 6.483 1.661.44 3.161.838 3.692 2.017.39 1.172-.47 2.192-1.451 3.355-1.531 1.813-3.357 3.976-1.191 7.612m7.011-40.338c-2.052 2.239-4.381 6.56-5.369 8.9 0 0 .504.218 2.37.357-.998 1.87-1.862 3.772-2.37 5.097 0 0 1.091.517 6 .517s6-.517 6-.517c-.508-1.325-1.372-3.227-2.37-5.097 1.866-.139 2.37-.356 2.37-.356-.988-2.341-3.317-6.662-5.369-8.901a.85.85 0 0 0-1.262 0"/><path d="M39 18v6"/></g></svg>
