<svg xmlns="http://www.w3.org/2000/svg" fill="none" viewBox="0 0 24 24"><path fill="currentColor" d="M8 2.5a1 1 0 0 1 1 1v5L6.6 6.1A7.98 7.98 0 0 0 4 12a8 8 0 0 0 7 7.935v2.015c-5.053-.502-9-4.765-9-9.95a9.97 9.97 0 0 1 3.185-7.315L3 2.5zm5-.45c5.053.501 9 4.764 9 9.95a9.97 9.97 0 0 1-3.186 7.314L21 21.5h-5a1 1 0 0 1-1-1v-5l2.398 2.399a7.97 7.97 0 0 0 2.602-5.9 8 8 0 0 0-7-7.935zm-.25 6.263a4.5 4.5 0 0 1 3.75 4.438v2a.5.5 0 0 1-.5.5H8a.5.5 0 0 1-.5-.5v-2c0-2.23 1.622-4.08 3.75-4.438V6.75h1.5zm-2.25 3.188a.75.75 0 1 0 0 1.5.75.75 0 0 0 0-1.5m3 0a.75.75 0 1 0 0 1.5.75.75 0 0 0 0-1.5"/></svg>
