<svg xmlns="http://www.w3.org/2000/svg" fill="none" viewBox="0 0 24 24"><path fill="currentColor" d="m8.995 8.996 5.655 5.654h-.002L22 22l-1.425 1.425L16.5 19.35v2.15a.5.5 0 0 1-.621.485L12 21.015l-3.879.97A.5.5 0 0 1 7.5 21.5v-3a.5.5 0 0 1 .276-.447L9.5 17.19v-2.572L3.104 15.99a.5.5 0 0 1-.604-.49V13l.005-.066a.5.5 0 0 1 .247-.369l4.43-2.533L.574 3.425 2 2zM12 2.5A2.5 2.5 0 0 1 14.5 5v3.709l6.748 3.856A.5.5 0 0 1 21.5 13v2.5a.5.5 0 0 1-.605.49l-2.618-.562L9.5 6.649V5A2.5 2.5 0 0 1 12 2.5"/></svg>
