<svg xmlns="http://www.w3.org/2000/svg" fill="none" viewBox="0 0 24 24"><path fill="currentColor" d="m13.657 3.574-.67 1.16 1.958 1.132a4 4 0 0 0 4.204-.126l.538-.356 1.054-.695.436 1.184-.938.346c.893-.328.936-.344.939-.344v.002l.003.006.005.014.014.042q.017.051.042.136c.034.113.076.273.118.471.085.397.17.958.181 1.64.023 1.367-.25 3.22-1.397 5.21-1.15 1.99-2.62 3.153-3.816 3.817a8.7 8.7 0 0 1-1.51.663 6 6 0 0 1-.605.164l-.043.01-.016.002h-.005l-.003.001-.171-.984.17.984-1.245.216.077-1.26.039-.644a4 4 0 0 0-1.993-3.704l-1.96-1.131-4.906 8.499-1.731-1 4.906-8.5-.866-.5A1 1 0 0 1 6.1 8.666L9.022 3.6a1 1 0 0 1 1.367-.366l.866.5.67-1.161z"/></svg>
