<svg xmlns="http://www.w3.org/2000/svg" fill="none" viewBox="0 0 24 24"><path fill="currentColor" d="M12 4a7 7 0 0 1 7 7v.028A4.5 4.5 0 0 1 18.5 20h-12A5.5 5.5 0 0 1 5.251 9.143 7 7 0 0 1 12 4m-4.25 9.75H6v1.5h1.75V17h1.5v-1.75H11v-1.5H9.25V12h-1.5zm8.75.75q-.5 0-.875.375c-.375.375-.375.542-.375.875s.125.625.375.875.542.375.875.375.625-.125.875-.375.375-.542.375-.875-.125-.625-.375-.875-.542-.375-.875-.375M14 12q-.5 0-.875.375c-.375.375-.375.542-.375.875s.125.625.375.875.542.375.875.375.625-.125.875-.375.375-.542.375-.875-.125-.625-.375-.875S14.333 12 14 12"/></svg>
