<svg xmlns="http://www.w3.org/2000/svg" fill="none" viewBox="0 0 24 24"><path fill="currentColor" d="M18.77 1.507a5.5 5.5 0 0 1 1.779.389l.112.053a1 1 0 0 1 .222 1.581L18.413 6l1.086 1.086 2.47-2.469.093-.083a1 1 0 0 1 1.541.417C23.858 5.584 24 6.276 24 7l-.007.283a5.5 5.5 0 0 1-5.21 5.21l-.283.007c-.485 0-.956-.065-1.404-.184L15.913 13.5l4.294 4.294a2.768 2.768 0 0 1-3.914 3.914l-4.294-4.294-4.292 4.294a2.77 2.77 0 0 1-3.704.19l-.21-.19a2.77 2.77 0 0 1 0-3.914L8.085 13.5 6.75 12.165l-1.043 1.043a1 1 0 0 1-1.338.068l-.076-.068-4-4a1 1 0 0 1 0-1.414l6-6 .076-.068a1 1 0 0 1 1.338.068l4 4 .068.076a1 1 0 0 1-.068 1.338L10.664 8.25l1.335 1.335 1.183-1.184a5.5 5.5 0 0 1-.175-1.131L13 7a5.5 5.5 0 0 1 5.5-5.5zm-5.357 14.492 4.294 4.294a.768.768 0 0 0 1.086-1.086l-4.294-4.294zM8.164 10.75l1.335 1.335 1.086-1.086L9.25 9.664z"/></svg>
