<svg xmlns="http://www.w3.org/2000/svg" fill="none" viewBox="0 0 24 24"><path fill="currentColor" d="M19 17a1 1 0 0 1-.105.447L18 17l.894.448-.002.004-.003.006-.008.015-.023.043-.077.132a5 5 0 0 1-.286.42 6.8 6.8 0 0 1-1.183 1.213C16.21 20.163 14.492 21 12 21s-4.21-.837-5.312-1.719a6.8 6.8 0 0 1-1.183-1.213 5 5 0 0 1-.363-.552l-.023-.043-.008-.015-.003-.006-.002-.003c.004-.002.06-.032.894-.449l-.895.447A1 1 0 0 1 5 17v-3.03l5.786 3.216.08.04.116.056q.047.023.095.042a2.5 2.5 0 0 0 2.137-.139L19 13.972zM11.63 4.07a1 1 0 0 1 .855.056l8.974 4.985.988.494.121.072A1 1 0 0 1 23 10.5V17h-2v-5.856l-8.515 4.73a1 1 0 0 1-.854.056l-.116-.056-9-5a1 1 0 0 1 0-1.748l9-5z"/></svg>
