<svg xmlns="http://www.w3.org/2000/svg" fill="none" viewBox="0 0 24 24"><path fill="currentColor" d="M12 2c2.251 0 4.329.744 6 1.999a10.05 10.05 0 0 0-2.805 3.256l-.876-.5-.495.868-.496.868 1.095.625A10 10 0 0 0 14 12a10 10 0 0 0 .423 2.884l-1.095.626.496.868.495.868.876-.5A10.05 10.05 0 0 0 18 20a9.96 9.96 0 0 1-6 2 9.96 9.96 0 0 1-6-2 10.05 10.05 0 0 0 2.804-3.255l.877.501.495-.868.496-.868-1.096-.626a10 10 0 0 0 0-5.768l1.096-.625-.496-.868-.495-.868-.877.5A10.05 10.05 0 0 0 6 3.999 9.96 9.96 0 0 1 12 2M4.501 5.387a8.04 8.04 0 0 1 2.564 2.86l-1.12.64.495.87.497.868.843-.482A8 8 0 0 1 8 12a8 8 0 0 1-.22 1.857l-.843-.481-.497.868-.496.87 1.12.639a8 8 0 0 1-2.563 2.86A9.96 9.96 0 0 1 2 12a9.96 9.96 0 0 1 2.501-6.613m14.997 0A9.96 9.96 0 0 1 22 12c0 2.536-.946 4.85-2.502 6.612a8.04 8.04 0 0 1-2.563-2.86l1.12-.639-.495-.869-.496-.868-.845.481a8 8 0 0 1 0-3.714l.845.482.496-.868.496-.87-1.122-.64a8.04 8.04 0 0 1 2.564-2.86"/></svg>
