<svg xmlns="http://www.w3.org/2000/svg" fill="none" viewBox="0 0 24 24"><path stroke="currentColor" d="M3.956 9.25a8.147 8.147 0 1 0 16.294 0 8.147 8.147 0 1 0-16.294 0"/><path stroke="currentColor" d="M10.389 4.557a1.605 1.605 0 1 0 3.21 0 1.605 1.605 0 1 0-3.21 0"/><path stroke="currentColor" stroke-linecap="round" stroke-linejoin="round" d="m13.548 9.426 2.356-.527a.963.963 0 1 0-.42-1.88l-2.945.659a2 2 0 0 1-.872 0l-2.945-.659a.963.963 0 0 0-.42 1.88l2.356.527v1.378l-1.272 2.642a.963.963 0 1 0 1.735.836l.982-2.039.981 2.039a.963.963 0 1 0 1.736-.836l-1.273-2.642zm2.528 9.514 1.42 2.129 1.419-2.13"/><path stroke="currentColor" stroke-linecap="round" d="M17.495 21.069v2.129"/><path stroke="currentColor" stroke-linecap="round" stroke-linejoin="round" d="m5.073 23.199.978-3.914a.455.455 0 0 1 .441-.345v0c.209 0 .39.142.441.345l.979 3.914M5.428 21.78h2.129m3.077 1.418V18.94v.135a.93.93 0 0 1-.93.93H9.57m2.128 3.193H9.569m4.69 0V18.94v.135a.93.93 0 0 1-.93.93h-.135m2.129 3.193h-2.129"/></svg>
