<svg xmlns="http://www.w3.org/2000/svg" viewBox="0 0 24 24"><path fill="none" stroke="currentColor" stroke-linecap="round" stroke-linejoin="round" d="M8.504 8a7.5 7.5 0 1 0 15 0 7.5 7.5 0 1 0-15 0"/><path fill="none" stroke="currentColor" stroke-linecap="round" stroke-linejoin="round" d="M8.53 8.526a7.5 7.5 0 1 0 6.948 6.948M7.504 13.5v-1"/><path fill="none" stroke="currentColor" stroke-linecap="round" stroke-linejoin="round" d="M9 13.5H6.971a1.342 1.342 0 0 0-.5 2.587l2.064.826a1.342 1.342 0 0 1-.5 2.587H6m1.504 1v-1m8.5-14.5V4M17.5 5h-2.029a1.342 1.342 0 0 0-.5 2.587l2.064.826a1.342 1.342 0 0 1-.5 2.587H14.5m1.504 1v-1"/></svg>
