<svg xmlns="http://www.w3.org/2000/svg" fill="none" viewBox="0 0 24 24"><path stroke="currentColor" stroke-linecap="round" stroke-linejoin="round" stroke-miterlimit="10" d="M4.35 11.7a1.7 1.7 0 1 0 0-3.4 1.7 1.7 0 0 0 0 3.4m0 5.1v-5.1m6-1.3a1.7 1.7 0 1 0 0-3.4 1.7 1.7 0 0 0 0 3.4m0 5.1v-5.1m7.5-4.5a1.7 1.7 0 1 0 0-3.4 1.7 1.7 0 0 0 0 3.4m-2.1 4.7 1.6-4.7m-1.4 10.9c.1-1.5 1.3-2.6 2.8-2.6 1.9 0 3.3 1.8 2.7 3.8"/><path stroke="currentColor" stroke-linecap="round" stroke-linejoin="round" stroke-miterlimit="10" d="M.75 19.4c0 1 .8 2.1 1.8 2.1h19c.5 0 1.7-.5 1.7-1.7s-1.2-1.8-1.7-1.8h-4c-1 0-1-.5-2-1.5s-2.5-1-4.5-1c-2.6 0-5.6 1.1-8.7 1.9-.9.1-1.6 1-1.6 2"/><path stroke="currentColor" stroke-linecap="round" stroke-linejoin="round" stroke-miterlimit="10" d="m12.35 19 .5.5c.5.5 2 2 3.5 2"/></svg>
