<svg xmlns="http://www.w3.org/2000/svg" viewBox="0 0 24 24"><path fill="none" stroke="currentColor" stroke-linecap="round" stroke-linejoin="round" d="M3.991 2.5h-1a1 1 0 0 0-1 1v2a1 1 0 0 0 1 1h1m16 0h1a1 1 0 0 0 1-1v-2a1 1 0 0 0-1-1h-1m-16 5.135V2.5a2 2 0 0 1 2-2h12a2 2 0 0 1 2 2v5.135"/><path fill="none" stroke="currentColor" stroke-linecap="round" stroke-linejoin="round" d="M22.791 11.233a1 1 0 0 1 .2.6V16.5a1 1 0 0 1-1 1h-20a1 1 0 0 1-1-1v-4.667a1 1 0 0 1 .2-.6l2.5-3.333a1 1 0 0 1 .8-.4h15a1 1 0 0 1 .8.4ZM.991 19.36v2.14a2 2 0 0 0 2 2h1a2 2 0 0 0 2-2v-2.14m2-5.829V15.5m2-1.969V15.5m2-1.969V15.5m2-1.969V15.5m2-1.969V15.5"/><path fill="none" stroke="currentColor" stroke-linecap="round" stroke-linejoin="round" d="M17.991 14.5a1.5 1.5 0 1 0 3 0 1.5 1.5 0 1 0-3 0m-15 0a1.5 1.5 0 1 0 3 0 1.5 1.5 0 1 0-3 0m9-14v7m-6 13.438 5-3.407m7 3.407-5-3.407m5.018 1.829v2.14a2 2 0 0 0 2 2h1a2 2 0 0 0 2-2v-2.14M1.048 11.5h21.885"/></svg>
