<svg xmlns="http://www.w3.org/2000/svg" fill="none" viewBox="0 0 24 24"><path stroke="currentColor" stroke-linecap="round" stroke-linejoin="round" stroke-miterlimit="10" d="M6 9.65v1.4c0 .5-.1.9-.3 1.4-.5 1.1-.3 2.4.4 3.5.5.8.6 1.9.2 2.7q-.3.6-.3 1.2"/><path stroke="currentColor" stroke-linecap="round" stroke-linejoin="round" stroke-miterlimit="10" d="m4 11.65 2-2 2 2m4.3-2v1.4c0 .5-.1.9-.3 1.4-.5 1.1-.3 2.4.4 3.5.5.8.6 1.9.2 2.7q-.3.6-.3 1.2"/><path stroke="currentColor" stroke-linecap="round" stroke-linejoin="round" stroke-miterlimit="10" d="m10.3 11.65 2-2 2 2m4.2-2v1.4c0 .5-.1.9-.3 1.4-.5 1.1-.3 2.4.4 3.5.5.8.6 1.9.2 2.7q-.3.6-.3 1.2"/><path stroke="currentColor" stroke-linecap="round" stroke-linejoin="round" stroke-miterlimit="10" d="m16.5 11.65 2-2 2 2"/><path stroke="currentColor" stroke-linecap="round" stroke-linejoin="round" stroke-miterlimit="10" d="M23.25 4.15H.75v11h22.5z"/></svg>
