<svg xmlns="http://www.w3.org/2000/svg" viewBox="0 0 24 24"><path fill="none" stroke="currentColor" stroke-linecap="round" stroke-linejoin="round" d="M6.515 7.818h8.992A7.993 7.993 0 0 1 23.5 15.81a2 2 0 0 1-2 2h-6.992c-4.5 0-.636-5.807-6.11-6.491m2.114 9.487a1 1 0 0 0 1 1H22.5a1 1 0 0 0 1-1M15.507 3.822h4.996m-13.967 0h4.954m2.019 3.996V2.323M3.518 8.786V6.819m0 5.963v-1.967m-1.062-.999H.5m5.973 0H4.537m16.465 11.989-1.623-3.996m-6.37 3.996 1.624-3.996"/><path fill="none" stroke="currentColor" stroke-linecap="round" stroke-linejoin="round" d="M15.064 7.818 16.52 11.6a4 4 0 0 0 3.73 2.561h3.08"/></svg>
