<svg xmlns="http://www.w3.org/2000/svg" viewBox="0 0 24 24"><path fill="none" stroke="currentColor" stroke-linecap="round" stroke-linejoin="round" d="M22.27 6.9a.37.37 0 0 0 .23-.34.36.36 0 0 0-.23-.34L12.48 2.4a1.33 1.33 0 0 0-1 0L1.73 6.22a.36.36 0 0 0-.23.34.37.37 0 0 0 .23.34l9.79 3.82a1.33 1.33 0 0 0 1 0ZM.5 17.17a.25.25 0 0 0 .12.21.25.25 0 0 0 .24 0l9.36-4.34a.23.23 0 0 0 .14-.23.25.25 0 0 0-.16-.23L.84 8.94A.24.24 0 0 0 .61 9a.23.23 0 0 0-.11.2Zm12.75 4.27a.26.26 0 0 0 .11.21.24.24 0 0 0 .23 0l9.27-3.61a1 1 0 0 0 .64-.94v-8a.23.23 0 0 0-.11-.2.24.24 0 0 0-.23 0l-9.27 3.62a1 1 0 0 0-.64.93Z"/></svg>
