<svg xmlns="http://www.w3.org/2000/svg" viewBox="0 0 24 24"><path fill="none" stroke="currentColor" stroke-linecap="round" stroke-linejoin="round" d="M.5 12a11.5 11.5 0 1 0 23 0 11.5 11.5 0 1 0-23 0m5.935-5.565L3.868 3.868m16.263 16.263-2.176-2.175"/><path fill="none" stroke="currentColor" stroke-linecap="round" stroke-linejoin="round" d="M17.5 15.5a1 1 0 0 1-1 1h-10a1 1 0 0 1-1-1v-6a1 1 0 0 1 1-1h3.69a.5.5 0 0 0 .446-.273c.216-.425.428-.727.982-.727h2.263c.555 0 .766.3.983.727a.5.5 0 0 0 .446.273h1.19a1 1 0 0 1 1 1Z"/><path fill="none" stroke="currentColor" stroke-linecap="round" stroke-linejoin="round" d="M10.5 12.5a2 2 0 1 0 4 0 2 2 0 1 0-4 0m-2-5v1"/></svg>
