<svg xmlns="http://www.w3.org/2000/svg" viewBox="0 0 24 24"><path fill="none" stroke="currentColor" stroke-linecap="round" stroke-linejoin="round" d="M9.054 22.228a11 11 0 1 1 13.434-11.252.5.5 0 0 1-.5.524H15.5a4 4 0 0 0-4 4m12 5h-12m9-3v4a2 2 0 0 1-2 2h-1"/><path fill="none" stroke="currentColor" stroke-linecap="round" stroke-linejoin="round" d="M7 17.5a1.5 1.5 0 1 0 3 0 1.5 1.5 0 1 0-3 0"/><path fill="none" stroke="currentColor" stroke-linecap="round" stroke-linejoin="round" d="M8.5 16v-1.5a6 6 0 0 1 6-6h9m-13.5 9h13.5v4a2 2 0 0 1-2 2h-4.513a6 6 0 0 1-4.246-1.76l-3.195-3.194"/><path fill="none" stroke="currentColor" stroke-linecap="round" stroke-linejoin="round" d="M16.5 17.5v4a2 2 0 0 1-1.1 1.785"/></svg>
