<svg xmlns="http://www.w3.org/2000/svg" fill="none" viewBox="0 0 24 24"><path stroke="currentColor" stroke-linecap="round" stroke-linejoin="round" d="M2.717 21.5H7m14.283 0H17m-1.5-7v-5h-7v5m-2-3h-4v5h4zm-4 0 2-4.5 2 4.5m2-2L12 5l3.5 4.5m6 2h-4v5h4zm-4 0 2-4.5 2 4.5M12 5V3m0-2.5 2.032.813a.25.25 0 0 1 .036.446L12 3zM4.5 7V6m0-2.5 2.032.813a.25.25 0 0 1 .036.446L4.5 6zm15 3.5V6m0-2.5 2.032.813a.25.25 0 0 1 .036.446L19.5 6zm-13 13h11m-11-2h11m4.5 9a6.06 6.06 0 0 1-.5-5h-19a6.06 6.06 0 0 1-.5 5h8.5V22a1.5 1.5 0 1 1 3 0v1.5zm-21.5 0H2m20 0h1.5m-2-7h-19v2h19z"/><path stroke="currentColor" d="M4.5 14.75a.25.25 0 1 1 0-.5m0 .5a.25.25 0 1 0 0-.5m7.5-2a.25.25 0 1 1 0-.5m0 .5a.25.25 0 1 0 0-.5m7.5 3a.25.25 0 1 1 0-.5m0 .5a.25.25 0 1 0 0-.5"/></svg>
