<svg xmlns="http://www.w3.org/2000/svg" viewBox="0 0 24 24"><path fill="none" stroke="currentColor" stroke-linecap="round" stroke-linejoin="round" d="M5.023 4.461a2.06 3.604 0 1 0 4.12 0 2.06 3.604 0 1 0-4.12 0"/><path fill="none" stroke="currentColor" stroke-linecap="round" stroke-linejoin="round" d="M.5 8.825a3.09 2.06 0 1 0 6.18 0 3.09 2.06 0 1 0-6.18 0M10.688 14.9a4.119 2.06 0 1 0 8.238 0 4.119 2.06 0 1 0-8.238 0"/><path fill="none" stroke="currentColor" stroke-linecap="round" stroke-linejoin="round" d="M6.796 12.26a3.876 2.06 72.846 1 0 3.937-1.215 3.876 2.06 72.846 1 0-3.937 1.215"/><path fill="none" stroke="currentColor" stroke-linecap="round" stroke-linejoin="round" d="M7.468 23.064a4.137 2.06-67.752 1 0 3.133-7.658 4.137 2.06-67.752 1 0-3.133 7.658m11.6-3.271a4.377 2.06 67.752 1 0 3.813-1.56 4.377 2.06 67.752 1 0-3.813 1.56"/><path fill="none" stroke="currentColor" stroke-linecap="round" stroke-linejoin="round" d="M19.278 14.781a3.793 2.06-65.018 1 0 3.204-6.876 3.793 2.06-65.018 1 0-3.204 6.876"/></svg>
