<svg xmlns="http://www.w3.org/2000/svg" viewBox="0 0 24 24"><g fill="none" stroke="currentColor" stroke-linecap="round" stroke-linejoin="round"><path d="M10 11a2 2 0 1 0 4 0 2 2 0 1 0-4 0m.5-9a1.5 1.5 0 1 0 3 0 1.5 1.5 0 1 0-3 0m-9 9a1.5 1.5 0 1 0 3 0 1.5 1.5 0 1 0-3 0m18 0a1.5 1.5 0 1 0 3 0 1.5 1.5 0 1 0-3 0m-8.24 1.86L7 23.5m5.74-10.64L17 23.5m-14 0h18M19.86 4.64a1.5 1.5 0 1 1-1.5-1.5 1.5 1.5 0 0 1 1.5 1.5m-1.5 14.22a1.5 1.5 0 1 1 1.5-1.5 1.5 1.5 0 0 1-1.5 1.5M4.14 4.64a1.5 1.5 0 1 0 1.5-1.5 1.5 1.5 0 0 0-1.5 1.5m1.5 14.22a1.5 1.5 0 1 0-1.5-1.5 1.5 1.5 0 0 0 1.5 1.5m4.86 1.01a8.7 8.7 0 0 0 3 0"/><path d="M4.67 5.78a8.9 8.9 0 0 0-1.55 3.73m7.39-7.39a8.9 8.9 0 0 0-3.73 1.55m10.44 0a8.9 8.9 0 0 0-3.73-1.55m7.39 7.39a8.9 8.9 0 0 0-1.55-3.73m0 10.44a8.9 8.9 0 0 0 1.55-3.73m-5.54 6.87a9.3 9.3 0 0 0 1.88-1m-10.44-.03a9.3 9.3 0 0 0 1.88 1m-5.54-6.84a8.9 8.9 0 0 0 1.55 3.73"/></g></svg>
