<svg xmlns="http://www.w3.org/2000/svg" viewBox="0 0 24 24"><path fill="none" stroke="currentColor" stroke-linecap="round" stroke-linejoin="round" d="M23.5 22H1a.5.5 0 0 1-.5-.5V2"/><path fill="none" stroke="currentColor" stroke-linecap="round" stroke-linejoin="round" d="M12.872 15.523C13.054 16.523 13.33 19 16 19M3 19a3 3 0 0 0 2.947-2.46l1.2-6.571a2.4 2.4 0 0 1 3.8-1.487"/><path fill="none" stroke="currentColor" stroke-linecap="round" stroke-linejoin="round" d="M8 19a3 3 0 0 0 2.947-2.46l1.2-6.571a2.4 2.4 0 0 1 4.714 0l1.2 6.571A3 3 0 0 0 21 19"/></svg>
