<svg xmlns="http://www.w3.org/2000/svg" viewBox="0 0 24 24"><path fill="none" stroke="currentColor" stroke-linecap="round" stroke-linejoin="round" d="M4.004 1.5h16s2 0 2 2v17s0 2-2 2h-16s-2 0-2-2v-17s0-2 2-2"/><path fill="none" stroke="currentColor" stroke-linecap="round" stroke-linejoin="round" d="m2 14.5 3.655-4.02a2.86 2.86 0 0 1 3.149-.616l1.392.667a3.49 3.49 0 0 0 3.366-.385l1.876-1.5A11.7 11.7 0 0 1 18.93 6.86L22 6M7.004 9.718V22.5m5-11.734V22.5m5-14.837V22.5m-15-8h20m-9.032-4h9.032m-20 8h20"/></svg>
