<svg xmlns="http://www.w3.org/2000/svg" viewBox="0 0 24 24"><path fill="none" stroke="currentColor" stroke-linecap="round" stroke-linejoin="round" d="M6.59 12.31a1 1 0 0 1 .41.78v7.73a1.07 1.07 0 0 1-.41.79l-2.18 1.52a.76.76 0 0 1-.82 0l-2.18-1.52a1.1 1.1 0 0 1-.41-.79v-7.73a1 1 0 0 1 .42-.78l2.17-1.45a.82.82 0 0 1 .83 0ZM4 14.59l-2.88-1.93m5.77 0L4 14.59m0 0v8.66M14.59 6.81a1 1 0 0 1 .41.78v13.23a1.07 1.07 0 0 1-.41.79l-2.18 1.52a.76.76 0 0 1-.82 0l-2.18-1.52a1.1 1.1 0 0 1-.41-.79V7.59a1 1 0 0 1 .42-.78l2.17-1.45a.82.82 0 0 1 .83 0ZM12 9.09 9.12 7.16m5.77 0L12 9.09m0 0v14.16M22.59 2.31a1 1 0 0 1 .41.78v17.73a1.07 1.07 0 0 1-.41.79l-2.18 1.52a.76.76 0 0 1-.82 0l-2.18-1.52a1.1 1.1 0 0 1-.41-.79V3.09a1 1 0 0 1 .42-.78L19.59.86a.82.82 0 0 1 .83 0ZM20 4.59l-2.88-1.93m5.77 0L20 4.59m0 0v18.66"/></svg>
