<svg xmlns="http://www.w3.org/2000/svg" fill="none" viewBox="0 0 24 24"><path stroke="currentColor" stroke-linecap="round" stroke-linejoin="round" d="M5.5 21a1 1 0 0 0 1 1h11a1 1 0 0 0 1-1V11h-13zm-3-.5v-8A1.326 1.326 0 0 1 4 11h1.5m16 9.5v-8A1.325 1.325 0 0 0 20 11h-1.5m-7.52-6.924L9.037 2.004m3.995 2.072 1.943-2.072M17.833 9a.5.5 0 0 0 .472-.666A6.54 6.54 0 0 0 12.006 4a6.54 6.54 0 0 0-6.315 4.34.5.5 0 0 0 .473.66z"/><path stroke="currentColor" d="M10.25 7a.25.25 0 1 1 0-.5m0 .5a.25.25 0 1 0 0-.5m3.504.5a.25.25 0 1 1 0-.5m0 .5a.25.25 0 1 0 0-.5"/></svg>
