<svg xmlns="http://www.w3.org/2000/svg" viewBox="0 0 24 24"><path fill="none" stroke="currentColor" stroke-linecap="round" stroke-linejoin="round" d="M19.765 1.888a2 2 0 0 1 0 2.827L17.29 7.192a.5.5 0 0 1-.707 0l-2.121-2.121a.5.5 0 0 1 0-.707l2.475-2.476a2 2 0 0 1 2.828 0M7.39 16.383a.5.5 0 0 1 0 .707l-2.475 2.476a2 2 0 0 1-2.828-2.829l2.475-2.474a.5.5 0 0 1 .707 0Zm1.061-8.131a4.5 4.5 0 0 0 0 6.365l6.364-6.365a4.5 4.5 0 0 0-6.364 0"/><path fill="none" stroke="currentColor" stroke-linecap="round" stroke-linejoin="round" d="M13.063 10a2.1 2.1 0 0 1 .046 2.907 2.07 2.07 0 0 1-2.882-.071m6.413-2.076a5 5 0 0 1-5.657 5.686"/><path fill="none" stroke="currentColor" stroke-linecap="round" stroke-linejoin="round" d="M19.645 10.61a8 8 0 0 1-8.845 8.837"/><path fill="none" stroke="currentColor" stroke-linecap="round" stroke-linejoin="round" d="M22.527 9.578A11.006 11.006 0 0 1 9.872 22.345"/></svg>
