<svg xmlns="http://www.w3.org/2000/svg" fill="none" viewBox="0 0 24 24"><path stroke="currentColor" stroke-linecap="round" stroke-linejoin="round" d="M21.5 1.504h-19a2 2 0 0 0-2 2v17a2 2 0 0 0 2 2h19a2 2 0 0 0 2-2v-17a2 2 0 0 0-2-2m-21 5h23"/><path stroke="currentColor" stroke-linecap="round" stroke-linejoin="round" d="M8 19.504a5 5 0 1 0 0-10 5 5 0 0 0 0 10"/><path stroke="currentColor" stroke-linecap="round" stroke-linejoin="round" d="M10.821 10.376 8 14.504l3.205 3.837M8 14.504H3m12-4h6m-6 3h6m-6 3h6"/><path stroke="currentColor" d="M4 4.25a.25.25 0 0 1 0-.5m0 .5a.25.25 0 0 0 0-.5m3 .5a.25.25 0 0 1 0-.5m0 .5a.25.25 0 0 0 0-.5m3 .5a.25.25 0 0 1 0-.5m0 .5a.25.25 0 0 0 0-.5"/></svg>
