<svg xmlns="http://www.w3.org/2000/svg" viewBox="0 0 24 24"><path fill="none" stroke="currentColor" stroke-linecap="round" stroke-linejoin="round" d="M.5 7.004h19m-16-2.25A.25.25 0 1 0 3.75 5a.25.25 0 0 0-.25-.25m2 .004A.25.25 0 1 0 5.75 5a.25.25 0 0 0-.25-.25m2 .004A.25.25 0 1 0 7.75 5a.25.25 0 0 0-.25-.25"/><path fill="none" stroke="currentColor" stroke-linecap="round" stroke-linejoin="round" d="M2.5 3.004h15s2 0 2 2v10s0 2-2 2h-15s-2 0-2-2v-10s0-2 2-2"/><path fill="none" stroke="currentColor" stroke-linecap="round" stroke-linejoin="round" d="M19.5 5a2 2 0 0 1 2 2v10a2 2 0 0 1-2 2h-15a2 2 0 0 1-2-2"/><path fill="none" stroke="currentColor" stroke-linecap="round" stroke-linejoin="round" d="M21.5 7a2 2 0 0 1 2 2v10a2 2 0 0 1-2 2h-15a2 2 0 0 1-2-2"/></svg>
