<svg xmlns="http://www.w3.org/2000/svg" fill="none" viewBox="0 0 24 24"><path stroke="currentColor" stroke-linecap="round" stroke-linejoin="round" d="M21.5 2.004h-19a2 2 0 0 0-2 2v16a2 2 0 0 0 2 2h19a2 2 0 0 0 2-2v-16a2 2 0 0 0-2-2m-21 5h23"/><path stroke="currentColor" stroke-linecap="round" stroke-linejoin="round" d="M19.5 14.569a.5.5 0 0 1-.777.416L16.5 13.5l-2.223 1.481a.5.5 0 0 1-.777-.416V7h6z"/><path stroke="currentColor" d="M4 4.754a.25.25 0 0 1 0-.5m0 .5a.25.25 0 0 0 0-.5m3 .5a.25.25 0 0 1 0-.5m0 .5a.25.25 0 0 0 0-.5m3 .5a.25.25 0 0 1 0-.5m0 .5a.25.25 0 1 0 0-.5"/></svg>
