<svg xmlns="http://www.w3.org/2000/svg" fill="none" viewBox="0 0 24 24"><path stroke="currentColor" stroke-linecap="round" stroke-linejoin="round" d="M.518 4.504h20m-12 11.996h-6a2 2 0 0 1-2-2v-12a2 2 0 0 1 2-2h16a2 2 0 0 1 2 2V10"/><path stroke="currentColor" stroke-linecap="round" stroke-linejoin="round" d="M17.5 23.5a6 6 0 1 0 0-12 6 6 0 0 0 0 12"/><path stroke="currentColor" stroke-linecap="round" stroke-linejoin="round" d="M19.5 17.5h-2v-3"/><path stroke="currentColor" d="M3.518 2.754a.25.25 0 0 1 0-.5m0 .5a.25.25 0 0 0 0-.5m2 .5a.25.25 0 0 1 0-.5m0 .5a.25.25 0 0 0 0-.5m2 .5a.25.25 0 0 1 0-.5m0 .5a.25.25 0 0 0 0-.5"/></svg>
