<svg xmlns="http://www.w3.org/2000/svg" viewBox="0 0 24 24"><g fill="none" stroke="currentColor" stroke-linecap="round" stroke-linejoin="round"><path d="M3.03 8.5H21m-17.97 7H21m-7.08-9.28a.51.51 0 0 1-.45.28h-2.88a.51.51 0 0 1-.45-.28l-.5-1a.51.51 0 0 1 .45-.72H14a.5.5 0 0 1 .43.24.48.48 0 0 1 0 .48Zm0 7a.51.51 0 0 1-.45.28h-2.88a.51.51 0 0 1-.45-.28l-.5-1a.48.48 0 0 1 0-.48.49.49 0 0 1 .42-.24H14a.5.5 0 0 1 .43.24.48.48 0 0 1 0 .48Zm0 8a.51.51 0 0 1-.45.28h-2.88a.51.51 0 0 1-.45-.28l-.5-1a.51.51 0 0 1 .45-.72H14a.5.5 0 0 1 .43.24.48.48 0 0 1 0 .48Z"/><path d="M21 22.5a1 1 0 0 1-1 1H4a1 1 0 0 1-1-1v-21a1 1 0 0 1 1-1h16a1 1 0 0 1 1 1Z"/></g></svg>
