<svg xmlns="http://www.w3.org/2000/svg" viewBox="0 0 24 24"><path fill="none" stroke="currentColor" stroke-linecap="round" stroke-linejoin="round" d="M8 22.5a1 1 0 0 1-1 1H1.5a1 1 0 0 1-1-1v-21a1 1 0 0 1 1-1H7a1 1 0 0 1 1 1Z"/><path fill="none" stroke="currentColor" stroke-linecap="round" stroke-linejoin="round" d="M5.5 14a.5.5 0 0 1-.5.5H3a.5.5 0 0 1-.5-.5V3a.5.5 0 0 1 .5-.5h2a.5.5 0 0 1 .5.5Zm-3-8.5h3m10.5 17a1 1 0 0 1-1 1H9a1 1 0 0 1-1-1v-21a1 1 0 0 1 1-1h6a1 1 0 0 1 1 1Z"/><path fill="none" stroke="currentColor" stroke-linecap="round" stroke-linejoin="round" d="M13.5 14a.5.5 0 0 1-.5.5h-2a.5.5 0 0 1-.5-.5V3a.5.5 0 0 1 .5-.5h2a.5.5 0 0 1 .5.5Zm-3-8.5h3m10 17a1 1 0 0 1-1 1H17a1 1 0 0 1-1-1v-21a1 1 0 0 1 1-1h5.5a1 1 0 0 1 1 1Z"/><path fill="none" stroke="currentColor" stroke-linecap="round" stroke-linejoin="round" d="M21.5 14a.5.5 0 0 1-.5.5h-2a.5.5 0 0 1-.5-.5V3a.5.5 0 0 1 .5-.5h2a.5.5 0 0 1 .5.5Zm-3-8.5h3M2.5 19a1.5 1.5 0 1 0 3 0 1.5 1.5 0 1 0-3 0m8 0a1.5 1.5 0 1 0 3 0 1.5 1.5 0 1 0-3 0m8 0a1.5 1.5 0 1 0 3 0 1.5 1.5 0 1 0-3 0"/></svg>
