<svg xmlns="http://www.w3.org/2000/svg" viewBox="0 0 24 24"><path fill="none" stroke="currentColor" stroke-linecap="round" stroke-linejoin="round" d="M5.5 11.844V7.083a.5.5 0 0 1 .157-.364l6.021-5.662a.5.5 0 0 1 .687 0l5.979 5.661a.5.5 0 0 1 .156.363v4.757a.5.5 0 0 1-.844.363l-5.463-5.172a.25.25 0 0 0-.343 0l-5.507 5.18a.5.5 0 0 1-.843-.365"/><path fill="none" stroke="currentColor" stroke-linecap="round" stroke-linejoin="round" d="M5.5 22.578v-4.761a.5.5 0 0 1 .157-.364l6.021-5.662a.5.5 0 0 1 .687 0l5.979 5.661a.5.5 0 0 1 .156.363v4.756a.5.5 0 0 1-.844.363l-5.463-5.172a.25.25 0 0 0-.343 0l-5.507 5.18a.5.5 0 0 1-.843-.364"/></svg>
