<svg xmlns="http://www.w3.org/2000/svg" viewBox="0 0 24 24"><path fill="none" stroke="currentColor" stroke-linecap="round" stroke-linejoin="round" d="M6.5 13.952v4.02a.5.5 0 0 0 .149.356l5 4.934a.5.5 0 0 0 .7 0l5-4.934a.5.5 0 0 0 .149-.356v-4.02a.5.5 0 0 0-.848-.358l-4.476 4.346a.25.25 0 0 1-.348 0l-4.478-4.346a.5.5 0 0 0-.848.358"/><path fill="none" stroke="currentColor" stroke-linecap="round" stroke-linejoin="round" d="M6.5 5.846V8.5a.5.5 0 0 0 .149.357l5 4.92a.5.5 0 0 0 .7 0l5-4.92A.5.5 0 0 0 17.5 8.5V5.846a.5.5 0 0 0-.851-.357l-4.474 4.4a.25.25 0 0 1-.35 0l-4.474-4.4a.5.5 0 0 0-.851.357"/><path fill="none" stroke="currentColor" stroke-linecap="round" stroke-linejoin="round" d="m6.5.593 5.146 5.161a.5.5 0 0 0 .708 0L17.5.593"/></svg>
