<svg xmlns="http://www.w3.org/2000/svg" fill="none" viewBox="0 0 24 24"><path stroke="currentColor" d="M3.5 7.15a.25.25 0 1 1 0-.5m0 .5a.25.25 0 1 0 0-.5m0 3.9a.25.25 0 1 1 0-.5m0 .5a.25.25 0 1 0 0-.5m3.4.5a.25.25 0 1 1 0-.5m0 .5a.25.25 0 1 0 0-.5m3.4.5a.25.25 0 1 1 0-.5m0 .5a.25.25 0 1 0 0-.5m3.4.5a.25.25 0 1 1 0-.5m0 .5a.25.25 0 1 0 0-.5m3.4.5a.25.25 0 1 1 0-.5m0 .5a.25.25 0 1 0 0-.5m0-2.9a.25.25 0 1 1 0-.5m0 .5a.25.25 0 1 0 0-.5m3.4.5a.25.25 0 1 1 0-.5m0 .5a.25.25 0 1 0 0-.5m-3.4-2.901a.25.25 0 1 1 0-.5m0 .5a.25.25 0 1 0 0-.5m-3.4 3.9a.25.25 0 1 1 0-.5m0 .5a.25.25 0 1 0 0-.5M3.5 13.95a.25.25 0 1 1 0-.5m0 .5a.25.25 0 1 0 0-.5m3.4.5a.25.25 0 1 1 0-.5m0 .5a.25.25 0 1 0 0-.5m3.4.5a.25.25 0 1 1 0-.5m0 .5a.25.25 0 1 0 0-.5m3.4.5a.25.25 0 1 1 0-.5m0 .5a.25.25 0 1 0 0-.5m-10.2 3.9a.25.25 0 1 1 0-.5m0 .5a.25.25 0 1 0 0-.5m3.4.5a.25.25 0 1 1 0-.5m0 .5a.25.25 0 1 0 0-.5m3.4.5a.25.25 0 1 1 0-.5m0 .5a.25.25 0 1 0 0-.5m3.4.5a.25.25 0 1 1 0-.5m0 .5a.25.25 0 1 0 0-.5m-10.2 3.9a.25.25 0 1 1 0-.5m0 .5a.25.25 0 1 0 0-.5m3.4.5a.25.25 0 1 1 0-.5m0 .5a.25.25 0 1 0 0-.5m3.4.5a.25.25 0 1 1 0-.5m0 .5a.25.25 0 1 0 0-.5m3.4.5a.25.25 0 1 1 0-.5m0 .5a.25.25 0 1 0 0-.5m3.4.5a.25.25 0 1 1 0-.5m0 .5a.25.25 0 1 0 0-.5"/></svg>
