<svg xmlns="http://www.w3.org/2000/svg" viewBox="0 0 24 24"><g fill="none" stroke="currentColor" stroke-linecap="round" stroke-linejoin="round"><path d="M15.5 23.5H12A11.5 11.5 0 0 1 .5 12h0A11.5 11.5 0 0 1 12 .5h11.5m0 23h-6m5.14-3h-2.96m-4.18 0h-2.13"/><path d="M10.05 20.19a8.5 8.5 0 0 1-2.66-1.25M5.1 16.53A8.5 8.5 0 0 1 4 13.8m-.07-3.32A8.8 8.8 0 0 1 5 7.72m2.16-2.49a8.4 8.4 0 0 1 2.61-1.35m3.32-.38h2.96m3.35 0h2.96m-6.86 14H13A5.5 5.5 0 0 1 7.5 12h0A5.5 5.5 0 0 1 13 6.5h10.5m0 11h-6m-2 6V14"/><path d="M15.5 10H21a.5.5 0 0 1 .5.5v3a.5.5 0 0 1-.5.5h-5.5 0z"/></g></svg>
