<svg xmlns="http://www.w3.org/2000/svg" viewBox="0 0 24 24"><path fill="none" stroke="currentColor" stroke-linecap="round" stroke-linejoin="round" d="M10.437 6.501a2.5 2.5 0 1 0 5 0 2.5 2.5 0 1 0-5 0"/><path fill="none" stroke="currentColor" stroke-linecap="round" stroke-linejoin="round" d="M20.812 12.563a1.5 1.5 0 1 0-.5-2.959L11.1 11.135a1.5 1.5 0 0 1-1.638-.942L8.3 7.049a1.5 1.5 0 1 0-2.8 1.075l1.164 3.144a4.52 4.52 0 0 0 4.923 2.832l.644-.109.6 2.693-3.123 4.455a1.5 1.5 0 1 0 2.456 1.72l3.111-4.444 1.417-.157a1.49 1.49 0 0 1 1.588 1.016l.733 2.2a1.5 1.5 0 0 0 2.846-.949l-.733-2.2a4.55 4.55 0 0 0-4.766-3.051l-.752.083-.416-1.871ZM1.937 6.001l16-5.5"/></svg>
