<svg xmlns="http://www.w3.org/2000/svg" fill="none" viewBox="0 0 24 24"><path stroke="currentColor" stroke-linejoin="round" d="M1.71 17.57a1.21 1.21 0 0 1-.88-2l8.23-8.76a1.21 1.21 0 0 1 2.09.83v8.72a1.21 1.21 0 1 1-2.42 0v-5.67l-6.14 6.5a1.22 1.22 0 0 1-.88.38ZM18.9 6.43h-6a1.21 1.21 0 1 0 0 2.42h1.93v7.51a1.22 1.22 0 0 0 2.43 0V8.85h1.64a1.21 1.21 0 1 0 0-2.42Zm4.6 9.69a1.46 1.46 0 0 1-2.91 0V7.88a1.46 1.46 0 0 1 2.91 0z"/><path stroke="currentColor" d="M6.77 15.632a.25.25 0 1 1 0-.5m0 .5a.25.25 0 1 0 0-.5"/></svg>
