<svg xmlns="http://www.w3.org/2000/svg" viewBox="0 0 24 24"><path fill="none" stroke="currentColor" stroke-linecap="round" stroke-linejoin="round" d="M8.5 23.5h-7a1 1 0 0 1-1-1v-21a1 1 0 0 1 1-1h13.293a1 1 0 0 1 .707.293L19.207 4.5a1 1 0 0 1 .293.707V8.5"/><path fill="none" stroke="currentColor" stroke-linecap="round" stroke-linejoin="round" d="M9.5 14c0 .933-1.119 1.687-2.5 1.687S4.5 14.933 4.5 14s1.119-1.686 2.5-1.686 2.5.754 2.5 1.686"/><path fill="none" stroke="currentColor" stroke-linecap="round" stroke-linejoin="round" d="M9.5 14V7.223a1 1 0 0 1 1.5-.868L13 7.5m2 11h-3.5V22"/><path fill="none" stroke="currentColor" stroke-linecap="round" stroke-linejoin="round" d="M22.917 19.733A5.572 5.572 0 0 1 12.1 18.5m7.9-2h3.5V13"/><path fill="none" stroke="currentColor" stroke-linecap="round" stroke-linejoin="round" d="M12.083 15.267A5.572 5.572 0 0 1 22.9 16.5"/></svg>
