<svg xmlns="http://www.w3.org/2000/svg" viewBox="0 0 24 24"><path fill="none" stroke="currentColor" stroke-linecap="round" stroke-linejoin="round" d="M20.5 23.5a1 1 0 0 0 1-1V6.475A5.975 5.975 0 0 0 15.525.5H3.5a1 1 0 0 0-1 1v21a1 1 0 0 0 1 1Z"/><path fill="none" stroke="currentColor" stroke-linecap="round" stroke-linejoin="round" d="M16.5.58V4.5a1 1 0 0 0 1 1h3.92M5.5 18.5v-6l1.5 3 1.5-3v6m5-4.5a1.5 1.5 0 0 1-1.5 1.5h-1.5v-3H12a1.5 1.5 0 0 1 1.5 1.5m-3 4.5v-3m5-1.8a1.114 1.114 0 0 1 1-1.2h.757A1.39 1.39 0 0 1 18.5 14a1.39 1.39 0 0 1-1.248 1.5A1.39 1.39 0 0 1 18.5 17a1.39 1.39 0 0 1-1.243 1.5H16.5a1.114 1.114 0 0 1-1-1.2"/></svg>
