<svg xmlns="http://www.w3.org/2000/svg" viewBox="0 0 24 24"><path fill="none" stroke="currentColor" stroke-linecap="round" stroke-linejoin="round" d="m20.142 16.835-1.806-1.505-1.223-3.669a1.58 1.58 0 0 0-1.5-1.083H8.39a1.58 1.58 0 0 0-1.5 1.083L5.664 15.33l-1.806 1.505a1.59 1.59 0 0 0-.57 1.217v2.03a.793.793 0 0 0 .792.792h1.584v1.584a.793.793 0 0 0 .792.792H8.04a.793.793 0 0 0 .792-.792v-1.584h6.336v1.584a.793.793 0 0 0 .792.792h1.584a.793.793 0 0 0 .792-.792v-1.584h1.584a.793.793 0 0 0 .792-.792v-2.03a1.59 1.59 0 0 0-.57-1.217M5.739 15.104h12.522M5.4 7.449V2.541a1.791 1.791 0 0 0-3.582 0v4.908M7.842.75v4.908a1.791 1.791 0 0 0 3.582 0V.75m2.272 0h3.582m-1.791 6.699V.75M18.6 2.541a1.791 1.791 0 0 1 3.582 0v3.117a1.791 1.791 0 0 1-3.582 0ZM1.815 4.445h3.582m.267 16.429h12.672M5.705 18.337h2.102m8.386 0h2.102"/></svg>
