<svg xmlns="http://www.w3.org/2000/svg" viewBox="0 0 24 24"><path fill="none" stroke="currentColor" stroke-linecap="round" stroke-linejoin="round" d="m16.5 18.854 2.146-2.147a.5.5 0 0 0 0-.707L16.5 13.854l.4-2.01a.31.31 0 0 0-.392-.392l-2.01.4L12 9.354l-2.5 2.5-2.01-.4a.31.31 0 0 0-.392.392l.4 2.01L5.354 16a.5.5 0 0 0 0 .707L7.5 18.854l-.4 2.01a.31.31 0 0 0 .392.392l2.01-.4L11.646 23a.5.5 0 0 0 .708 0l2.146-2.146 2.01.4a.31.31 0 0 0 .392-.392Zm-1-13.5a2.48 2.48 0 0 1-.759 1.651L12 9.354 9.259 7.005A2.48 2.48 0 0 1 8.5 5.354v-4.5h7ZM12 .854v8.5M5.5.854h13"/><path fill="none" stroke="currentColor" stroke-linecap="round" stroke-linejoin="round" d="M9.5 16.354a2.5 2.5 0 1 0 5 0 2.5 2.5 0 1 0-5 0"/></svg>
