<svg xmlns="http://www.w3.org/2000/svg" viewBox="0 0 24 24"><g fill="none" stroke="currentColor" stroke-linecap="round" stroke-linejoin="round"><path d="M19.5 6.44V1a.5.5 0 0 0-.5-.5h-8a.5.5 0 0 0-.5.5v5.17m0 9.33v3h-4a5 5 0 0 0-4.84 3.75 1 1 0 0 0 1 1.25H18.5a1 1 0 0 0 1-1v-6.79M5.31 13.06c-.24.8-1.51 1.1-2.83.69S.29 12.36.54 11.57s1.52-1.09 2.84-.68 2.18 1.38 1.93 2.17m5.19 5.44 9-2m-9-11.85 9-2.5m0 14.35-5 7m-4-5 1 5m-5.98-4.9.98 4.9"/><path d="m3.38 10.89 19.48 5.82a.47.47 0 0 0 .44-.08.48.48 0 0 0 .2-.4v-6a.5.5 0 0 0-.36-.48L5.32 4.68c-1.32-.41-2.59-.1-2.84.69l-1.94 6.2"/></g></svg>
