<svg xmlns="http://www.w3.org/2000/svg" viewBox="0 0 24 24"><path fill="none" stroke="currentColor" stroke-linecap="round" stroke-linejoin="round" d="M17.5 8.5a.5.5 0 0 1 .5.526 6.026 6.026 0 0 1-12 0 .5.5 0 0 1 .5-.526Zm-9-2A2.62 2.62 0 0 0 9.25 5c0-1.195-1.5-1.805-1.5-3A2.62 2.62 0 0 1 8.5.5m7 6a2.62 2.62 0 0 0 .75-1.5c0-1.195-1.5-1.805-1.5-3A2.62 2.62 0 0 1 15.5.5m-3.5 6a2.62 2.62 0 0 0 .75-1.5c0-1.195-1.5-1.805-1.5-3A2.62 2.62 0 0 1 12 .5m-7.5 23 4.631-9.726M19.5 23.5l-4.631-9.726m3.202 6.726H5.929"/></svg>
