<svg xmlns="http://www.w3.org/2000/svg" viewBox="0 0 24 24"><path fill="none" stroke="currentColor" stroke-linecap="round" stroke-linejoin="round" d="M15.75 17.87a2.5 2.5 0 1 0 5 0 2.5 2.5 0 1 0-5 0M4.743 21.423 8.6 17.562 21.891 6.549a3.19 3.19 0 1 0-4.5-4.461L6.511 15.409 2.62 19.3"/><path fill="none" stroke="currentColor" stroke-linecap="round" stroke-linejoin="round" d="M1.206 19.3a1 1 0 0 1 1.414 0l2.123 2.122a1 1 0 1 1-1.415 1.414l-2.122-2.121a1 1 0 0 1 0-1.415m4.951-3.535 2.122 2.121m-3.89-.354 2.122 2.122"/></svg>
