<svg xmlns="http://www.w3.org/2000/svg" fill="none" viewBox="0 0 24 24"><path stroke="currentColor" stroke-linecap="round" stroke-linejoin="round" d="M22.475 12.6a3.5 3.5 0 0 0 0-4.95l-6.127-6.125a3.5 3.5 0 0 0-4.95 0L7.062 5.861a5 5 0 0 0 0 7.071l.42.421-6.329 6.329a2.238 2.238 0 0 0 3.164 3.165l6.33-6.329.42.42a5 5 0 0 0 7.072 0z"/><path stroke="currentColor" stroke-linecap="round" stroke-linejoin="round" d="M19.081 9.127a1.5 1.5 0 0 1 0 2.122l-2.9 2.895a2.245 2.245 0 0 1-2.871.247.5.5 0 0 1-.187-.567l.587-1.76a.5.5 0 0 0-.121-.512l-1.145-1.145a.5.5 0 0 0-.512-.121l-1.761.587a.5.5 0 0 1-.566-.185 2.246 2.246 0 0 1 .247-2.873l2.895-2.9a1.5 1.5 0 0 1 2.121 0z"/><path stroke="currentColor" d="M2.851 21.398a.25.25 0 1 1 0-.5m0 .5a.25.25 0 1 0 0-.5"/></svg>
