<svg xmlns="http://www.w3.org/2000/svg" viewBox="0 0 24 24"><g fill="none" stroke="currentColor" stroke-linecap="round" stroke-linejoin="round"><path d="M4.5 6.5h15S21 6.5 21 8v10s0 1.5-1.5 1.5h-15S3 19.5 3 18V8s0-1.5 1.5-1.5"/><path d="M14.81 15.86c-.06.28-.35.64-1.06.64C12.54 16.5 12 15 12 15s-.54 1.5-1.75 1.5c-.71 0-1-.36-1.06-.64"/><path d="M19.5 4h-3.59l1.8-1.79A1 1 0 1 0 16.29.79L13.09 4h-2.18L7.71.79a1 1 0 0 0-1.42 1.42L8.09 4H4.5a4 4 0 0 0-4 4v10a4 4 0 0 0 4 4h1v.25a1.25 1.25 0 0 0 2.5 0V22h8v.25a1.25 1.25 0 0 0 2.5 0V22h1a4 4 0 0 0 4-4V8a4 4 0 0 0-4-4M5.09 11.61l3.94-.81m9.88.81-3.94-.81"/></g></svg>
