<svg xmlns="http://www.w3.org/2000/svg" viewBox="0 0 24 24"><path fill="none" stroke="currentColor" stroke-linecap="round" stroke-linejoin="round" d="M.5 18.5a5 5 0 1 0 10 0 5 5 0 1 0-10 0"/><path fill="none" stroke="currentColor" stroke-linecap="round" stroke-linejoin="round" d="M10.5 7V3a2.28 2.28 0 0 0-3 0L6 7 4.5 8.5l-3 7m12 3a5 5 0 1 0 10 0 5 5 0 1 0-10 0"/><path fill="none" stroke="currentColor" stroke-linecap="round" stroke-linejoin="round" d="M13.5 7V3.063a2.28 2.28 0 0 1 3 0L18 7l1.5 1.5 3 7M8 11c0-1.1 1.791-2 4-2s4 .895 4 2m-5.5 7.5V9.145m3 9.355V9.145"/></svg>
