<svg xmlns="http://www.w3.org/2000/svg" viewBox="0 0 24 24"><path fill="none" stroke="currentColor" stroke-linecap="round" stroke-linejoin="round" d="M4.711 8.5H1.588l.848-4h3c1.949 0 2.415 1.013 2.415 1.771.004 1.073-.695 2.229-3.14 2.229m8 0H9.588l.848-4h3c1.949 0 2.415 1.013 2.415 1.771.004 1.073-.695 2.229-3.14 2.229m7.645 3h-3.123l.848-4h3c1.949 0 2.415 1.013 2.415 1.771.004 1.073-.696 2.229-3.14 2.229m-1 6h-3.123l.848-4h3c1.949 0 2.415 1.013 2.415 1.771.004 1.073-.696 2.229-3.14 2.229m-15.645-3H.588l.848-4h3c1.949 0 2.415 1.013 2.415 1.771.004 1.073-.695 2.229-3.14 2.229m8 0H8.588l.848-4h3c1.949 0 2.415 1.013 2.415 1.771.004 1.073-.695 2.229-3.14 2.229m-1 6H7.588l.848-4h3c1.949 0 2.415 1.013 2.415 1.771.004 1.073-.695 2.229-3.14 2.229"/></svg>
