<svg xmlns="http://www.w3.org/2000/svg" fill="none" viewBox="0 0 24 24"><path stroke="currentColor" stroke-linecap="round" stroke-linejoin="round" d="M22.965 11.986H3.741a2.706 2.706 0 0 1-2.706-2.707A2.165 2.165 0 0 1 3.2 7.114m19.765 1.002H9.532a1.61 1.61 0 0 1-1.61-1.61 1.29 1.29 0 0 1 1.287-1.29M22.965 15.83H12.232a3.195 3.195 0 0 0-3.195 3.194 2.55 2.55 0 0 0 2.556 2.552m-9.564-5.372a.375.375 0 0 1 0-.75m0 .75a.375.375 0 0 0 0-.75"/><path stroke="currentColor" stroke-linecap="round" stroke-linejoin="round" d="M16.376 19.573a.375.375 0 0 1 0-.75m0 .75a.375.375 0 1 0 0-.75M5.365 3.526a.375.375 0 1 1 0-.75m0 .75a.375.375 0 0 0 0-.75m13.963-.352v2.438M4.521 18.823v2.438M20.548 3.643h-2.439M5.74 20.042H3.302"/></svg>
