<svg xmlns="http://www.w3.org/2000/svg" viewBox="0 0 24 24"><path fill="none" stroke="currentColor" stroke-linecap="round" stroke-linejoin="round" d="M22.914 9.433c-.424-.332-2.568.022-3.145-.5-.411-.378-.474-1.057-.6-1.974a5.7 5.7 0 0 0-.654-2.477A8.03 8.03 0 0 0 12.887.5h-5.1A7.313 7.313 0 0 0 .5 7.8v8.51a7.307 7.307 0 0 0 7.288 7.281h8.376a7.323 7.323 0 0 0 7.291-7.281l.045-5.9c-.149-.71-.222-.692-.586-.977"/><path fill="none" stroke="currentColor" stroke-linecap="round" stroke-linejoin="round" d="M6.5 8A1.5 1.5 0 0 0 8 9.5h4a1.5 1.5 0 0 0 0-3H8A1.5 1.5 0 0 0 6.5 8m0 8A1.5 1.5 0 0 0 8 17.5h8a1.5 1.5 0 0 0 0-3H8A1.5 1.5 0 0 0 6.5 16"/></svg>
