<svg xmlns="http://www.w3.org/2000/svg" viewBox="0 0 24 24"><path fill="none" stroke="currentColor" stroke-linecap="round" stroke-linejoin="round" d="M1.5 8.5h12s1 0 1 1v12s0 1-1 1h-12s-1 0-1-1v-12s0-1 1-1"/><path fill="none" stroke="currentColor" stroke-linecap="round" stroke-linejoin="round" d="M16.5 15.5h6a1 1 0 0 0 1-1v-12a1 1 0 0 0-1-1h-12a1 1 0 0 0-1 1v4"/><path fill="none" stroke="currentColor" stroke-linecap="round" stroke-linejoin="round" d="M19 11.75a.25.25 0 0 1 .25.25m-.5 0a.25.25 0 0 1 .25-.25m0 .5a.25.25 0 0 1-.25-.25m.5 0a.25.25 0 0 1-.25.25m0-7.5a.25.25 0 0 1 .25.25m-.5 0a.25.25 0 0 1 .25-.25m0 .5a.25.25 0 0 1-.25-.25m.5 0a.25.25 0 0 1-.25.25m-5-.5a.25.25 0 0 1 .25.25m-.5 0a.25.25 0 0 1 .25-.25m0 .5a.25.25 0 0 1-.25-.25m.5 0a.25.25 0 0 1-.25.25m-3 7.5a.25.25 0 0 1 .25.25m-.5 0a.25.25 0 0 1 .25-.25m0 .5a.25.25 0 0 1-.25-.25m.5 0a.25.25 0 0 1-.25.25m-3.5-.5a.25.25 0 0 1 .25.25m-.5 0a.25.25 0 0 1 .25-.25m0 .5a.25.25 0 0 1-.25-.25m.5 0a.25.25 0 0 1-.25.25m-3.5-.5a.25.25 0 0 1 .25.25m-.5 0a.25.25 0 0 1 .25-.25m0 .5a.25.25 0 0 1-.25-.25m.5 0a.25.25 0 0 1-.25.25m0 4.5a.25.25 0 0 1 .25.25m-.5 0a.25.25 0 0 1 .25-.25m0 .5a.25.25 0 0 1-.25-.25m.5 0a.25.25 0 0 1-.25.25m3.5-.5a.25.25 0 0 1 .25.25m-.5 0a.25.25 0 0 1 .25-.25m0 .5a.25.25 0 0 1-.25-.25m.5 0a.25.25 0 0 1-.25.25m3.5-.5a.25.25 0 0 1 .25.25m-.5 0a.25.25 0 0 1 .25-.25m0 .5a.25.25 0 0 1-.25-.25m.5 0a.25.25 0 0 1-.25.25"/></svg>
