<svg xmlns="http://www.w3.org/2000/svg" viewBox="0 0 24 24"><path fill="none" stroke="currentColor" stroke-linecap="round" stroke-linejoin="round" d="M1.583 18h2s1 0 1 1v2s0 1-1 1h-2s-1 0-1-1v-2s0-1 1-1m9 0h3s1 0 1 1v2s0 1-1 1h-3s-1 0-1-1v-2s0-1 1-1m-5-8h3s1 0 1 1v2s0 1-1 1h-3s-1 0-1-1v-2s0-1 1-1m0-8h3s1 0 1 1v2s0 1-1 1h-3s-1 0-1-1V3s0-1 1-1m5 0h3s1 0 1 1v2s0 1-1 1h-3s-1 0-1-1V3s0-1 1-1m-9 12h12s1 0 1 1v2s0 1-1 1h-12s-1 0-1-1v-2s0-1 1-1m13-4.34V7a1 1 0 0 0-1-1h-12a1 1 0 0 0-1 1v2a1 1 0 0 0 1 1h12.5m8.928 10.22a1 1 0 0 0 .211-1.4L16.4 9.565a1 1 0 0 0-1.4-.211l-1.61 1.187a1 1 0 0 0-.211 1.4L20 21.2a1 1 0 0 0 1.4.211Z"/></svg>
