<svg xmlns="http://www.w3.org/2000/svg" viewBox="0 0 24 24"><path fill="none" stroke="currentColor" stroke-linecap="round" stroke-linejoin="round" d="M23.5 19.805a2 2 0 0 1-2 2h-19a2 2 0 0 1-2-2v-5.5a.5.5 0 0 1 .5-.5h22a.5.5 0 0 1 .5.5Zm-2-6v-1a2 2 0 0 0-2-2h-15a2 2 0 0 0-2 2v1"/><path fill="none" stroke="currentColor" stroke-linecap="round" stroke-linejoin="round" d="M4.5 15.805h15v4h-15Zm.5-5s0-5.5 7-5.5c3.4 0 4.633-1.445 5.541-2.878a.5.5 0 0 1 .872.051c1.576 3.271 1.438 6.013-.413 8.327"/></svg>
