<svg xmlns="http://www.w3.org/2000/svg" viewBox="0 0 24 24"><path fill="none" stroke="currentColor" stroke-linecap="round" stroke-linejoin="round" d="M5.5 2.5h11a1 1 0 0 1 1 1v1"/><path fill="none" stroke="currentColor" stroke-linecap="round" stroke-linejoin="round" d="M19.5 4.5v-3a1 1 0 0 0-1-1h-13a2 2 0 0 0 0 4za1 1 0 0 1 1 1v17a1 1 0 0 1-1 1h-14a2 2 0 0 1-2-2v-19"/><path fill="none" stroke="currentColor" stroke-linecap="round" stroke-linejoin="round" d="m12.7 7.93 1.539 3.57h2.995a.735.735 0 0 1 .517 1.283l-2.6 2.316 1.44 3.313a.785.785 0 0 1-1.117.982L12 17.433l-3.48 1.961a.785.785 0 0 1-1.12-.982L8.841 15.1l-2.6-2.315a.735.735 0 0 1 .515-1.285h2.995l1.541-3.57a.8.8 0 0 1 1.408 0"/></svg>
