<svg xmlns="http://www.w3.org/2000/svg" viewBox="0 0 24 24"><path fill="none" stroke="currentColor" stroke-linecap="round" stroke-linejoin="round" d="m17.5 15.5-3-3-3 3V4a1 1 0 0 1 1-1h4a1 1 0 0 1 1 1Z"/><path fill="none" stroke="currentColor" stroke-linecap="round" stroke-linejoin="round" d="M17.5 4.5h2a1 1 0 0 1 1 1v17a1 1 0 0 1-1 1h-14a2 2 0 0 1-2-2v-19"/><path fill="none" stroke="currentColor" stroke-linecap="round" stroke-linejoin="round" d="M19.5 4.5v-3a1 1 0 0 0-1-1h-13a2 2 0 0 0 0 4H9"/></svg>
