<svg xmlns="http://www.w3.org/2000/svg" fill="none" viewBox="0 0 24 24"><path stroke="currentColor" stroke-linecap="round" stroke-linejoin="round" stroke-miterlimit="10" d="M21.65 23.2H4.45c-1.2 0-2.2-1-2.2-2.2s1-2.2 2.2-2.2h15.8m0 0c.8 0 1.5-.7 1.5-1.5v-15c0-.8-.7-1.5-1.5-1.5h-16c-1.1 0-2 .9-2 2v18.6m18-2.6v4.4"/><path stroke="currentColor" stroke-linecap="round" stroke-linejoin="round" stroke-miterlimit="10" d="M11.95 11.188a1.5 1.5 0 1 0 0-3 1.5 1.5 0 0 0 0 3"/><path stroke="currentColor" stroke-linecap="round" stroke-linejoin="round" stroke-miterlimit="10" d="m13.15 4.3.4 1.3c.1.5.6.7 1.1.6l1.4-.3c1.2-.3 2 1.2 1.2 2.1l-1 1c-.3.4-.3.9 0 1.3l1 1c.8.9 0 2.3-1.2 2.1l-1.4-.3c-.5-.1-.9.2-1.1.6l-.4 1.3c-.4 1.2-2 1.2-2.4 0l-.4-1.3c-.1-.5-.6-.7-1.1-.6l-1.4.3c-1.2.3-2-1.2-1.2-2.1l1-1c.3-.4.3-.9 0-1.3l-1-1c-.8-.9 0-2.3 1.2-2.1l1.4.3c.5.1.9-.2 1.1-.6l.4-1.3c.4-1.1 2.1-1.1 2.4 0"/></svg>
