<svg xmlns="http://www.w3.org/2000/svg" viewBox="0 0 24 24"><path fill="none" stroke="currentColor" stroke-linecap="round" stroke-linejoin="round" d="M7.484 22.93a1 1 0 0 1-.734.32H4.413a1 1 0 0 1-.733-.32c-4.98-5.374-2.062-10.244-.224-13.484a4.07 4.07 0 0 0-.01-2.58C3.1 4.961 2.582.75 5.582.75s2.486 4.207 2.135 6.109a4.08 4.08 0 0 0-.009 2.588c1.837 3.239 4.758 8.109-.224 13.483M3.343 6.25H7.82m-4.273 3h4.07"/><path fill="none" stroke="currentColor" stroke-linecap="round" stroke-linejoin="round" d="M10.556 10.184a7.5 7.5 0 1 1 .526 11.567"/><path fill="none" stroke="currentColor" stroke-linecap="round" stroke-linejoin="round" d="M13.582 11.75a1 1 0 1 0 2 0 1 1 0 1 0-2 0m4 1a1 1 0 1 0 2 0 1 1 0 1 0-2 0m-3 3a1 1 0 1 0 2 0 1 1 0 1 0-2 0"/></svg>
