<svg xmlns="http://www.w3.org/2000/svg" fill="none" viewBox="0 0 24 24"><path stroke="currentColor" stroke-linecap="round" stroke-linejoin="round" d="M21.5 3h-19a2 2 0 0 0-2 2v14a2 2 0 0 0 2 2h19a2 2 0 0 0 2-2V5a2 2 0 0 0-2-2M.5 8h23"/><path stroke="currentColor" stroke-linecap="round" stroke-linejoin="round" d="M9.5 12a2 2 0 0 0-2 2v1a2 2 0 0 0 2 2m3-5a1 1 0 0 0-1 1v3a1 1 0 0 0 2 0v-3a1 1 0 0 0-1-1m6 5v-5L17 14.5 15.5 12v5"/><path stroke="currentColor" d="M4 5.75a.25.25 0 0 1 0-.5m0 .5a.25.25 0 0 0 0-.5m1 11.5a.25.25 0 1 1 0-.5m0 .5a.25.25 0 1 0 0-.5m2-10.5a.25.25 0 0 1 0-.5m0 .5a.25.25 0 0 0 0-.5m3 .5a.25.25 0 0 1 0-.5m0 .5a.25.25 0 1 0 0-.5"/></svg>
