<svg xmlns="http://www.w3.org/2000/svg" viewBox="0 0 24 24"><path fill="none" stroke="currentColor" stroke-linecap="round" stroke-linejoin="round" d="M5 11.5V4.034A3.53 3.53 0 0 1 8.5.5h7A3.53 3.53 0 0 1 19 4.034V11.5m-12 10V23a.5.5 0 0 1-.5.5h-2A.5.5 0 0 1 4 23v-1.5m16 0V23a.5.5 0 0 1-.5.5h-2a.5.5 0 0 1-.5-.5v-1.5M1 9a.5.5 0 0 0 .5.5H3v-5H1.5A.5.5 0 0 0 1 5Zm20 .5h1.5A.5.5 0 0 0 23 9V5a.5.5 0 0 0-.5-.5H21ZM2 20a1.5 1.5 0 0 0 1.5 1.5h17a1.5 1.5 0 0 0 0-3h-17A1.5 1.5 0 0 0 2 20M21 4.5H3M17 15a1 1 0 1 0 2 0 1 1 0 1 0-2 0M5 15a1 1 0 1 0 2 0 1 1 0 1 0-2 0m7-10.5v7m-2 3h4.016M10 16.5h4.016"/><path fill="none" stroke="currentColor" stroke-linecap="round" stroke-linejoin="round" d="M3 18.586V13.5a2 2 0 0 1 2-2h14a2 2 0 0 1 2 2v5.086M21 9.5l-2 2m-16-2 2 2"/></svg>
