<svg xmlns="http://www.w3.org/2000/svg" viewBox="0 0 24 24"><path fill="none" stroke="currentColor" stroke-linecap="round" stroke-linejoin="round" d="M21 16.5c0 3.59-3.753 6.5-9 6.5s-9-2.91-9-6.5l2.105 1.3a2.165 2.165 0 0 0 2.495-.4 2.164 2.164 0 0 1 2.915-.132 2.316 2.316 0 0 0 2.964 0 2.164 2.164 0 0 1 2.921.132 2.165 2.165 0 0 0 2.5.406Z"/><path fill="none" stroke="currentColor" stroke-linecap="round" stroke-linejoin="round" d="M8.1 12C5.481 13.192 3 14.489 3 16.5c0 3.59 3.753 6.5 9 6.5s9-2.91 9-6.5c0-2.011-2.481-3.308-5.1-4.5 2.619-1.192 5.1-2.489 5.1-4.5C21 3.91 17.247 1 12 1S3 3.91 3 7.5c0 2.011 2.481 3.308 5.1 4.5"/><path fill="none" stroke="currentColor" stroke-linecap="round" stroke-linejoin="round" d="M21 7.5C21 3.91 17.247 1 12 1S3 3.91 3 7.5l2.105-1.3a2.16 2.16 0 0 1 2.5.4 2.164 2.164 0 0 0 2.915.132 2.316 2.316 0 0 1 2.964 0A2.164 2.164 0 0 0 16.4 6.6a2.16 2.16 0 0 1 2.5-.4ZM9.5 12a2.5 2.5 0 1 0 5 0 2.5 2.5 0 1 0-5 0m7.135 8A5.36 5.36 0 0 1 12 23a5.36 5.36 0 0 1-4.637-3M12 23v-3.5"/><path fill="none" stroke="currentColor" stroke-linecap="round" stroke-linejoin="round" d="M16.635 4A5.36 5.36 0 0 0 12 1a5.36 5.36 0 0 0-4.637 3M12 1v3.5"/></svg>
