<svg xmlns="http://www.w3.org/2000/svg" fill="none" viewBox="0 0 24 24"><path stroke="currentColor" stroke-linecap="round" stroke-linejoin="round" d="M15 9c-1.294-2.343-3.163-3-5.5-3a6 6 0 0 0-5.909 4.994l-1.713-1.98A.5.5 0 0 0 1 9.342v5.316a.5.5 0 0 0 .878.328l1.713-1.98A6 6 0 0 0 9.5 18a5.87 5.87 0 0 0 5.5-3l-4-3z"/><path stroke="currentColor" stroke-linecap="round" stroke-linejoin="round" d="m9 13-1.276.638A.5.5 0 0 1 7 13.191v-2.882a.5.5 0 0 1 .724-.447L9 10.5m12-.5a1.99 1.99 0 0 0-1.9 1.4l-1.324-.883a.5.5 0 0 0-.777.416v2.132a.5.5 0 0 0 .777.416L19.1 12.6A2 2 0 1 0 21 10"/><path stroke="currentColor" d="M11.5 8.75a.25.25 0 1 1 0-.5m0 .5a.25.25 0 1 0 0-.5"/></svg>
