<svg xmlns="http://www.w3.org/2000/svg" viewBox="0 0 24 24"><path fill="none" stroke="currentColor" stroke-linecap="round" stroke-linejoin="round" d="m23.5 22-1-1.934V15.5c.042-1.778-2.081-3.363-4-5m1.519 7-2.551-2.607a1.245 1.245 0 1 0-1.784 1.737L18.5 19.5V21a6.4 6.4 0 0 0 1 2.5M.5 2l1 1.934V8.5c-.042 1.778 2.081 3.363 4 5m-1.519-7 2.551 2.607A1.245 1.245 0 1 0 8.316 7.37L5.5 4.5V3a6.4 6.4 0 0 0-1-2.5"/><path fill="none" stroke="currentColor" stroke-linecap="round" stroke-linejoin="round" d="M5.5 8.052V19.5a1 1 0 0 0 1 1H16m2.5-4.552V4.5a1 1 0 0 0-1-1h-10"/></svg>
