<svg xmlns="http://www.w3.org/2000/svg" viewBox="0 0 24 24"><path fill="none" stroke="currentColor" stroke-linecap="round" stroke-linejoin="round" d="m6.814 7.952-.145-1.424a1 1 0 0 1 .893-1.1l13.474-1.375a1 1 0 0 1 1.1.894l.849 8.3a1 1 0 0 1-.89 1.1L8.62 15.756a1 1 0 0 1-1.1-.893l-.339-3.031m7.074-1.071 5.848-.598m-2.7-2.774 2.041-.208"/><path fill="none" stroke="currentColor" stroke-linecap="round" stroke-linejoin="round" d="M1.013 10.517h1.714a3.86 3.86 0 0 1 1.645-2.171 4.1 4.1 0 0 1 1.151-.394h4.215a1.477 1.477 0 0 1 1.477 1.477h0a1.476 1.476 0 0 1-1.477 1.476H7.557l-.031.117a3.16 3.16 0 0 1-3.4 2.322h0m-3.04 4.923h2.206a3.85 3.85 0 0 0 3.158 1.685h7.317a2.83 2.83 0 0 0 1.863-.7h0a2.84 2.84 0 0 0 .864-1.358l.2-.712"/></svg>
