<svg xmlns="http://www.w3.org/2000/svg" viewBox="0 0 24 24"><g fill="none" stroke="currentColor" stroke-linecap="round" stroke-linejoin="round"><path d="M13.78 5.48a2 2 0 0 1 1.72-1m-5.28 1a2 2 0 0 0-1.72-1M6.6 9.41C5 10.8 3.92 14.65 3.92 17c0 4.46 3.62 6.46 8.08 6.46s8.08-2 8.08-6.46c0-2.39-1-6.24-2.68-7.63"/><path d="M17.5 4V1a.48.48 0 0 0-.25-.43.52.52 0 0 0-.5 0L13.4 2.46c-.42 0-.89-.07-1.4-.07h0c-.51 0-1 0-1.4.07 0 0-.14.12-3.34-1.84a.47.47 0 0 0-.5 0A.48.48 0 0 0 6.5 1v3a4.5 4.5 0 0 0-1 2.77 3.76 3.76 0 0 0 4 3.73h5a3.76 3.76 0 0 0 4-3.73 4.5 4.5 0 0 0-1-2.77"/><path d="M11 14.9a5.08 5.08 0 0 1-4-5.16m10 .01a5.09 5.09 0 0 1-4 5.15"/><path d="M10.5 16a1.5 1.5 0 1 0 3 0 1.5 1.5 0 1 0-3 0m-6.33-1.33C2.51 13.69 1.5 12.41 1.5 11V6.5a2 2 0 0 1 4 0v.27m14.06 12.91a2 2 0 0 0 2.94-1.76v-3.5c0-1.91-1.86-3.59-4.67-4.58M1.5 8h2"/></g></svg>
