<svg xmlns="http://www.w3.org/2000/svg" viewBox="0 0 24 24"><path fill="none" stroke="currentColor" stroke-linecap="round" stroke-linejoin="round" d="M12 17.5v6m-6 0 6-5.5m6 5.5L12 18m1-5.5V17a.5.5 0 0 1-.5.5h-1a.5.5 0 0 1-.5-.5v-4.5m-2 0h6m3-3a1 1 0 0 1-1 1H7a1 1 0 0 1-1-1v-6a1 1 0 0 1 1-1h4c.281-.562.451-1 1.118-1h2.264c.667 0 .837.438 1.118 1H17a1 1 0 0 1 1 1Z"/><path fill="none" stroke="currentColor" stroke-linecap="round" stroke-linejoin="round" d="M11 6.5a2 2 0 1 0 4 0 2 2 0 1 0-4 0M7.5.5h1"/></svg>
