<svg xmlns="http://www.w3.org/2000/svg" fill="none" viewBox="0 0 24 24"><path stroke="currentColor" stroke-linecap="round" stroke-linejoin="round" d="M20.128 6.5a1 1 0 0 1-.905-.572C18.635 4.686 18.09 3.5 17 3.5h-5c-.931 0-1.406.836-2.7 2.592a1 1 0 0 1-.8.408h-6c-1.5 0-2 .679-2 1.723v10.388c0 1.043.5 1.889 2.056 1.889h18.888c1.556 0 2.056-.846 2.056-1.889V8.223c0-1.044-.5-1.723-2.056-1.723z"/><path stroke="currentColor" stroke-linecap="round" stroke-linejoin="round" d="M2.5 6.484V5.5a1 1 0 0 1 1-1h1a1 1 0 0 1 1 1v1m12 12a4 4 0 1 0 0-8 4 4 0 0 0 0 8m-7-8h-7a1 1 0 0 0-1 1v6a1 1 0 0 0 1 1h7a1 1 0 0 0 1-1v-6a1 1 0 0 0-1-1m7 2v1m0 2v1m2-2h-1m-2 0h-1"/><path stroke="currentColor" d="M4 8.75a.25.25 0 0 1 0-.5m0 .5a.25.25 0 0 0 0-.5m2 .5a.25.25 0 0 1 0-.5m0 .5a.25.25 0 0 0 0-.5m2 .5a.25.25 0 0 1 0-.5m0 .5a.25.25 0 0 0 0-.5"/></svg>
