<svg xmlns="http://www.w3.org/2000/svg" viewBox="0 0 24 24"><g fill="none" stroke="currentColor" stroke-linecap="round" stroke-linejoin="round"><path d="M1.04 3.33v.71m0-.71v.71m9.64 2.57L4.57.5l1.26 4.8M3.86.5h.71m16.51 8.95a2 2 0 1 1-1 3.86L15.22 12a.51.51 0 0 1-.36-.62l.78-2.89a.5.5 0 0 1 .61-.36Zm-6.09 1.47-3.69-.99m.27-2 3.94 1.06M10 20.54a2 2 0 1 0 3.86-1l-1.29-4.83a.48.48 0 0 0-.61-.35L9 15.1a.5.5 0 0 0-.35.62Zm1.46-6.08-.99-3.69m-2 .26 1.05 3.94"/><path d="M10.93 6.86A2.5 2.5 0 0 1 7.4 10.4L1 4c10.42 2.77 9.34 2.27 9.93 2.86M23 23.5c-2 0-1.5-1.5-1.5-1.5a65 65 0 0 0 1.5-7.48C23 13 22.48 13 22.48 13l-.48-.25"/></g></svg>
