<svg xmlns="http://www.w3.org/2000/svg" viewBox="0 0 24 24"><g fill="none" stroke="currentColor" stroke-linecap="round" stroke-linejoin="round"><path d="M4.5 9h15a4 4 0 0 1 4 4v4a1 1 0 0 1-1 1h-21a1 1 0 0 1-1-1v-4a4 4 0 0 1 4-4M4 9l.73-4.36A2 2 0 0 1 6.7 3h10.61a2 2 0 0 1 2 1.67L20 9m0 0 1.5-2H23a.5.5 0 0 1 .5.5v1a.5.5 0 0 1-.5.5zM4 9 2.5 7H1a.51.51 0 0 0-.5.5v1A.5.5 0 0 0 1 9zm1.5 9v2a1 1 0 0 1-1 1h-2a1 1 0 0 1-1-1v-2m21 0v2a1 1 0 0 1-1 1h-2a1 1 0 0 1-1-1v-2"/><path d="M23 11h-3.5a.66.66 0 0 0-.62.49L18.5 13h3a2 2 0 0 0 1.82-1.18M1 11h3.5a.68.68 0 0 1 .62.49L5.5 13h-3a2 2 0 0 1-1.82-1.17M18.5 13l-.33 1.32A2.19 2.19 0 0 1 16 16H8a2.22 2.22 0 0 1-2.17-1.67L5.5 13m-.25-1h13.5"/><path d="M10 14a2 2 0 1 0 4 0 2 2 0 1 0-4 0M.5 15.5H3a1 1 0 0 1 1 1V18m19.5-2.5H21a1 1 0 0 0-1 1V18"/></g></svg>
