<svg xmlns="http://www.w3.org/2000/svg" viewBox="0 0 24 24"><path fill="none" stroke="currentColor" stroke-linecap="round" stroke-linejoin="round" d="M5.5 13.5V15a.5.5 0 0 1-.5.5H3a.5.5 0 0 1-.5-.5v-1.5m17-5-1-1h-15L1.646 9.354a.5.5 0 0 0-.146.353V13a.5.5 0 0 0 .5.5h6.5m10-6-1.874-4.686a.5.5 0 0 0-.465-.314H5.839a.5.5 0 0 0-.465.314L3.5 7.5m-2 4H6"/><path fill="none" stroke="currentColor" stroke-linecap="round" stroke-linejoin="round" d="M10.5 15.5a6 6 0 1 0 12 0 6 6 0 1 0-12 0"/><path fill="none" stroke="currentColor" stroke-linecap="round" stroke-linejoin="round" d="m19.174 13.756-2.905 3.873a.752.752 0 0 1-1.131.081l-1.5-1.5"/></svg>
