<svg xmlns="http://www.w3.org/2000/svg" fill="none" viewBox="0 0 24 24"><path stroke="currentColor" stroke-linecap="round" stroke-linejoin="round" d="M20 11.85a8.12 8.12 0 0 1-8 8.139 7.88 7.88 0 0 1-8-7.86 8.12 8.12 0 0 1 8-8.14 7.88 7.88 0 0 1 8 7.86m-8 1.14V7.988m0 7.524h-.004m.005 0"/><path stroke="currentColor" stroke-linecap="round" stroke-linejoin="round" d="M4.5 20.034a11 11 0 0 1-.045-16.049m15.068-.021a11 11 0 0 1-.023 16.072"/><path stroke="currentColor" d="M11.998 16.016a.25.25 0 0 1 0-.5m0 .5a.25.25 0 1 0 0-.5"/></svg>
