<svg xmlns="http://www.w3.org/2000/svg" viewBox="0 0 24 24"><path fill="none" stroke="currentColor" stroke-linecap="round" stroke-linejoin="round" d="M20.232 17.125h.691a2.09 2.09 0 0 0 2.01-1.516h0a2.09 2.09 0 0 0-1.409-2.577L17.8 11.625l-2.9-3.632a2.04 2.04 0 0 0-1.668-.868H7.494a2.04 2.04 0 0 0-1.78 1.047L3.8 11.625l-2.393 1.933A1.93 1.93 0 0 0 .5 15.2h0a1.93 1.93 0 0 0 1.93 1.93h.338m14-.005H6.232"/><path fill="none" stroke="currentColor" stroke-linecap="round" stroke-linejoin="round" d="M16.5 18.125a2 2 0 1 0 4 0 2 2 0 1 0-4 0m-14 0a2 2 0 1 0 4 0 2 2 0 1 0-4 0m12.5-6-1.68-2.52a1.08 1.08 0 0 0-.9-.48H10a.5.5 0 0 0-.5.5v2a.5.5 0 0 0 .5.5Zm2.8-.5 2.572-1.225a3.18 3.18 0 0 1 3.128.225m-1.311-3.75a1.06 1.06 0 0 0 0-1.5h0a1.06 1.06 0 0 1 0-1.5m-2.5 3a1.06 1.06 0 0 0 0-1.5h0a1.06 1.06 0 0 1 0-1.5"/></svg>
