<svg xmlns="http://www.w3.org/2000/svg" viewBox="0 0 24 24"><path fill="none" stroke="currentColor" stroke-linecap="round" stroke-linejoin="round" d="M23.507 8.164a2.045 2.045 0 0 0-2.046-2.045.51.51 0 0 0-.511.511v1.534h-3.069V6.119a.51.51 0 0 0-.511-.512h-1.534L14.3 3.562H7.653L6.119 5.1H4.073a.51.51 0 0 0-.511.511v7.16a.51.51 0 0 0 .511.512h2.046l2.045 3.58h2.813m.767-13.301V.493m3.58 0h-7.16M.493 5.096v8.183m0-4.092h3.069"/><path fill="none" stroke="currentColor" stroke-linecap="round" stroke-linejoin="round" d="M22.213 11.667a.283.283 0 0 0-.24-.434h-5.626a.68.68 0 0 0-.652.492l-1.624 5.684a.772.772 0 0 0 .742.984h2.046l-1.535 5.114 7.95-7.482a.406.406 0 0 0-.278-.7h-3.069ZM6.119 5.096v8.183m11.762-5.115v1.023m3.069-1.023v1.023"/></svg>
