<svg xmlns="http://www.w3.org/2000/svg" viewBox="0 0 24 24"><path fill="none" stroke="currentColor" stroke-linecap="round" stroke-linejoin="round" d="M12 10.823c-.583-2.614-3.5-2.368-3.5.395C8.5 13.781 12 16.3 12 16.3s3.5-2.521 3.5-5.084c0-2.761-2.917-3.007-3.5-.393"/><path fill="none" stroke="currentColor" stroke-linecap="round" stroke-linejoin="round" d="M4.5.5h15s2 0 2 2v19s0 2-2 2h-15s-2 0-2-2v-19s0-2 2-2"/><path fill="none" stroke="currentColor" stroke-linecap="round" stroke-linejoin="round" d="M5 3.48c0-.829.672-.98 1.5-.98s1.5.151 1.5.98S6.5 5.5 6.5 5.5 5 4.308 5 3.48m11 16c0-.829.672-.98 1.5-.98s1.5.151 1.5.98-1.5 2.02-1.5 2.02-1.5-1.192-1.5-2.02"/></svg>
