<svg xmlns="http://www.w3.org/2000/svg" viewBox="0 0 24 24"><path fill="none" stroke="currentColor" stroke-linecap="round" stroke-linejoin="round" d="M.504 11.114V23.5h23V11.114"/><path fill="none" stroke="currentColor" stroke-linecap="round" stroke-linejoin="round" d="M4 12.018V15a1 1 0 0 0 1 1h14a1 1 0 0 0 1-1v-3M8.246 6.606 9.564.518m-7.272.625A1.025 1.025 0 0 1 3.242.5h17.524a1.025 1.025 0 0 1 .95.643L23.5 6.614c0 4.211-7.758 4.2-7.758-.008 0 4.211-7.5 4.21-7.5 0 0 4.211-7.75 4.21-7.75 0Zm13.454 5.463L14.444.518m-8.44 15.706v7.086m12-7.086v7.086m-6-7.086v7.086M.743 6.5h22.513"/></svg>
