<svg xmlns="http://www.w3.org/2000/svg" fill="none" viewBox="0 0 24 24"><path stroke="currentColor" stroke-linecap="round" stroke-linejoin="round" d="M9 22.5a6.98 6.98 0 0 0 1.5-4m4.5 4a6.98 6.98 0 0 1-1.5-4m-6.001 4h9m6.001-21h-21a1 1 0 0 0-1 1v15a1 1 0 0 0 1 1h21a1 1 0 0 0 1-1v-15a1 1 0 0 0-1-1"/><path stroke="currentColor" stroke-linecap="round" stroke-linejoin="round" d="M14.933 12.417a2.43 2.43 0 0 0 2.031.956c1.245 0 2.254-.757 2.254-1.69s-1.009-1.69-2.254-1.69-2.254-.76-2.254-1.693 1.009-1.69 2.254-1.69A2.43 2.43 0 0 1 19 7.564m-2.036 5.809V14.5m0-9.018v1.127M4.462 6.513h6.012M4.462 10.5h6.012m-6.012 4h3.006"/></svg>
