<svg xmlns="http://www.w3.org/2000/svg" viewBox="0 0 24 24"><path fill="none" stroke="currentColor" stroke-linecap="round" stroke-linejoin="round" d="M16.07 16.971 20.5 15.5a2.76 2.76 0 0 1 3 1c-12.229 6.113-8.272 6.077-19 2.5l-4 2.5"/><path fill="none" stroke="currentColor" stroke-linecap="round" stroke-linejoin="round" d="M9.5 17.5H15a1.016 1.016 0 1 0 0-2h-3a6.6 6.6 0 0 0-4.5-2h-3l-4 2m6.004-13h15v8h-15Zm10.542 0L21.504 6m-3.829 4.5L21.504 7m-15 0 3.828 3.5M6.504 6l4.437-3.5"/><path fill="none" stroke="currentColor" stroke-linecap="round" stroke-linejoin="round" d="M12.504 6.5a1.5 1.5 0 1 0 3 0 1.5 1.5 0 1 0-3 0"/></svg>
