<svg xmlns="http://www.w3.org/2000/svg" viewBox="0 0 24 24"><g fill="none" stroke="currentColor" stroke-linecap="round" stroke-linejoin="round"><path d="M2.75 12.5h3a.47.47 0 0 1 .5.5v9a.47.47 0 0 1-.5.5h-3"/><path d="M10.38 11.17 8.5 13.5a1.32 1.32 0 0 1-1 .5H6.25m0 6c2 1.5 4.07 2.5 5.25 2.5h7.25c.73 0 1.18-.05 1.5-1a57 57 0 0 0 1-7c0-.5-.5-1-1.5-1h-8M10.5 12 9.09 2.07a.49.49 0 0 1 .11-.4.52.52 0 0 1 .38-.17h6.92"/><path d="m13 13.5-.94-9.45a.48.48 0 0 1 .13-.39.5.5 0 0 1 .37-.16h8.11a.52.52 0 0 1 .38.17.49.49 0 0 1 .11.4l-1.41 9.43"/><path d="M15.36 8.75a1.25 1.25 0 1 0 2.5 0 1.25 1.25 0 1 0-2.5 0"/></g></svg>
