<svg xmlns="http://www.w3.org/2000/svg" viewBox="0 0 24 24"><path fill="none" stroke="currentColor" stroke-linecap="round" stroke-linejoin="round" d="M14.51 7.5h-2.146a1.854 1.854 0 0 0-.829 3.512l1.95.976a1.854 1.854 0 0 1-.829 3.512H10.51m2-8V6m0 11v-1.5M17 7.02l3.108-3.086M19.5 2.5a2 2 0 1 0 4 0 2 2 0 1 0-4 0m-1.538 15.479 2.115 2.128M19.51 21.5a2 2 0 1 0 4 0 2 2 0 1 0-4 0M7 7.02 3.893 3.934M.5 2.5a2 2 0 1 0 4 0 2 2 0 1 0-4 0m5.539 15.479-2.116 2.128M.49 21.5a2 2 0 1 0 4 0 2 2 0 1 0-4 0m16.01-10h3m0 0a2 2 0 1 0 4 0 2 2 0 1 0-4 0m-12 0h-3m-4 0a2 2 0 1 0 4 0 2 2 0 1 0-4 0"/></svg>
