<svg xmlns="http://www.w3.org/2000/svg" fill="none" viewBox="0 0 24 24"><path stroke="currentColor" stroke-linecap="round" stroke-linejoin="round" d="M21.828 17.409h-7.525a1.472 1.472 0 0 0-1.373 1.988l1.282 3.42a.735.735 0 0 0 .687.477h6.338a.735.735 0 0 0 .686-.478l1.283-3.419a1.47 1.47 0 0 0-1.378-1.988m-7.44 0 1.471-3.679m5.886 3.679-1.472-3.679m-3.678 7.357v-1.471m2.943 1.471v-1.471m-9.028-.273H.7"/><path stroke="currentColor" d="M7.076 21.55a.245.245 0 0 1 0-.49m0 .49a.245.245 0 0 0 0-.49"/><path stroke="currentColor" stroke-linecap="round" stroke-linejoin="round" d="M12.255 23.112a1.95 1.95 0 0 1-.765.155H2.662A1.96 1.96 0 0 1 .7 21.305V2.668A1.96 1.96 0 0 1 2.662.706h8.828a1.96 1.96 0 0 1 1.962 1.962v10.3"/><path stroke="currentColor" stroke-linecap="round" stroke-linejoin="round" d="M10.51 5.61H7.565v2.943h2.943zm-3.924 5.886H3.643v2.943h2.943zM3.643 7.082V5.61h1.471m5.396 7.357v1.472H9.037m-.49-3.924h.981M4.133 9.044h1.472"/></svg>
