<svg xmlns="http://www.w3.org/2000/svg" fill="none" viewBox="0 0 24 24"><path stroke="currentColor" stroke-linecap="round" stroke-linejoin="round" d="M22.32 12h-7.848a.98.98 0 0 0-.981.98v7.603c0 .542.44.98.98.98h7.848a.98.98 0 0 0 .981-.98V12.98a.98.98 0 0 0-.98-.981m-7.358 9.565v1.716m6.867-1.716v1.716m-8.338-6.866H23.3"/><path stroke="currentColor" stroke-linecap="round" stroke-linejoin="round" d="M16.066 18.621a.37.37 0 0 1 .368.368m-.736 0a.37.37 0 0 1 .368-.368m0 .736a.37.37 0 0 1-.368-.368m.736 0a.366.366 0 0 1-.368.368m4.664-.736a.37.37 0 0 1 .368.368m-.741 0a.37.37 0 0 1 .368-.368m.005.736a.37.37 0 0 1-.368-.368"/><path stroke="currentColor" stroke-linecap="round" stroke-linejoin="round" d="M21.093 18.989a.366.366 0 0 1-.368.368m-9.235 0H.7"/><path stroke="currentColor" d="M7.076 21.564a.245.245 0 1 1 0-.49m0 .49a.245.245 0 0 0 0-.49"/><path stroke="currentColor" stroke-linecap="round" stroke-linejoin="round" d="M12.255 23.126a1.95 1.95 0 0 1-.765.154H2.662A1.96 1.96 0 0 1 .7 21.32V2.682A1.96 1.96 0 0 1 2.662.72h8.828a1.96 1.96 0 0 1 1.962 1.962v6.866"/><path stroke="currentColor" stroke-linecap="round" stroke-linejoin="round" d="M10.509 5.624H7.566v2.943h2.943zM6.585 11.51H3.643v2.942h2.942zM3.643 7.095V5.624h1.471m5.395 7.357v1.471H9.038m-.491-3.923h.981M4.133 9.057h1.472"/></svg>
