<svg xmlns="http://www.w3.org/2000/svg" viewBox="0 0 24 24"><path fill="none" stroke="currentColor" stroke-linecap="round" stroke-linejoin="round" d="M2.776 9.5a1 1 0 0 1-1-1v-7a1 1 0 0 1 1-1h1a1 1 0 0 1 1 1v.472A6.3 6.3 0 0 1 9.087.536c2.871 0 3.591 1.436 6.461 1.436A10 10 0 0 0 19.889.918a1 1 0 0 1 1.213.254l.89 1.068a1 1 0 0 1 .167.995c-1.491 3.936-5.306 14.4-5.835 19.371a1 1 0 0 1-.993.894H9.4a1 1 0 0 1-1-1.062 23.75 23.75 0 0 1 8.586-16.161A4.78 4.78 0 0 1 13.4 7.713c-1.794 0-3.947-1.436-5.383-1.436A3.14 3.14 0 0 0 4.83 8.689a1 1 0 0 1-.981.811Z"/></svg>
