<svg xmlns="http://www.w3.org/2000/svg" fill="none" viewBox="0 0 24 24"><path stroke="currentColor" stroke-linecap="round" stroke-linejoin="round" d="M12 23.5c6.351 0 11.5-5.149 11.5-11.5S18.351.5 12 .5.5 5.649.5 12 5.649 23.5 12 23.5"/><path stroke="currentColor" stroke-linecap="round" stroke-linejoin="round" d="M12 17.5a5.5 5.5 0 1 0 0-11 5.5 5.5 0 0 0 0 11"/><path stroke="currentColor" stroke-linecap="round" stroke-linejoin="round" d="M13 9.5h-2V12h.75a1.25 1.25 0 0 1 0 2.5h-.878M6.919 1.682l2.337 5.551m5.488 0 2.337-5.551m5.237 5.237-5.551 2.337m0 5.488 5.551 2.337m-5.237 5.237-2.337-5.551m-5.488 0-2.337 5.551m-5.237-5.237 5.551-2.337m0-5.488L1.682 6.919"/><path stroke="currentColor" d="M3.5 12.25a.25.25 0 1 1 0-.5m0 .5a.25.25 0 1 0 0-.5m17 .5a.25.25 0 1 1 0-.5m0 .5a.25.25 0 1 0 0-.5m-8.5-8a.25.25 0 1 1 0-.5m0 .5a.25.25 0 1 0 0-.5m0 17.5a.25.25 0 1 1 0-.5m0 .5a.25.25 0 1 0 0-.5"/></svg>
