<svg xmlns="http://www.w3.org/2000/svg" fill="none" viewBox="0 0 24 24"><path stroke="currentColor" stroke-linecap="round" stroke-linejoin="round" d="M12 23.5c6.351 0 11.5-5.149 11.5-11.5S18.351.5 12 .5.5 5.649.5 12 5.649 23.5 12 23.5"/><path stroke="currentColor" stroke-linecap="round" stroke-linejoin="round" d="M12 15.5a3.5 3.5 0 1 0 0-7 3.5 3.5 0 0 0 0 7m-1.41-6.7L7.35 1.48M1.48 7.35l7.32 3.24m13.72 6.06-7.32-3.24m-1.79 1.79 3.24 7.32"/><path stroke="currentColor" d="M12 12.25a.25.25 0 1 1 0-.5m0 .5a.25.25 0 1 0 0-.5"/></svg>
