<svg xmlns="http://www.w3.org/2000/svg" viewBox="0 0 24 24"><path fill="none" stroke="currentColor" stroke-linecap="round" stroke-linejoin="round" d="M14.471 4.87A2.023 2.023 0 0 0 11.9 6.12l-.446 1.291-.94-2.059C9.131 2.324 6.4.605 3.371 1.987s-3.519 4.572-2.137 7.6l4.813 10.542 9.277-4.229-.757-1.66a2 2 0 0 1-.128-1.285l1.368-5.861a2.02 2.02 0 0 0-1.336-2.224M6.047 20.129l9.277-4.229.948 2.075a.5.5 0 0 1-.248.663l-8.367 3.814a.5.5 0 0 1-.663-.247Zm16.46-4.229.948 2.075a.5.5 0 0 1-.247.663l-8.369 3.819a.5.5 0 0 1-.662-.247l-1.031-2.258"/><path fill="none" stroke="currentColor" stroke-linecap="round" stroke-linejoin="round" d="m18.785 17.594 3.722-1.7-.757-1.66a2 2 0 0 1-.128-1.285l1.369-5.861a2.022 2.022 0 0 0-3.909-.969l-.447 1.291-.935-2.058C16.428 2.577 14.028.9 11.305 1.7"/></svg>
