<svg xmlns="http://www.w3.org/2000/svg" fill="none" viewBox="0 0 24 24"><path stroke="currentColor" stroke-linecap="round" stroke-linejoin="round" d="M17.5 7a5.5 5.5 0 0 1-2.533 4.632M8.706 2.6a5.5 5.5 0 0 1 6.588 0m-6.327 8.989A5.5 5.5 0 0 1 6.5 7m7 2.5v7.033a.25.25 0 0 1-.389.208l-.834-.556a.5.5 0 0 0-.554 0l-.834.556a.25.25 0 0 1-.389-.208V9.5"/><path stroke="currentColor" stroke-linecap="round" stroke-linejoin="round" d="M8.706 2.6A3.5 3.5 0 0 0 5.5.5H3.039a1 1 0 0 0-.914 1.406L3.5 5l-.668 3.008A1 1 0 0 0 4 9.206l2.757-.541M15.294 2.6A3.5 3.5 0 0 1 18.5.5h2.461a1 1 0 0 1 .914 1.406L20.5 5l.668 3.008A1 1 0 0 1 20 9.206l-2.757-.541M12 18.5v2m-3 0h6a2 2 0 0 1 2 2v1H7v-1a2 2 0 0 1 2-2"/><path stroke="currentColor" stroke-linecap="round" stroke-linejoin="round" d="m8.058 20.736-1.177-3.594a5 5 0 0 1 .9-4.782l.846-1.014m6.744 0 .846 1.014a5 5 0 0 1 .9 4.782l-1.177 3.594"/><path stroke="currentColor" d="M9.789 7.25a.25.25 0 0 1 0-.5m0 .5a.25.25 0 0 0 0-.5m4.5.5a.25.25 0 1 1 0-.5m0 .5a.25.25 0 1 0 0-.5"/></svg>
