<svg xmlns="http://www.w3.org/2000/svg" viewBox="0 0 24 24"><path fill="none" stroke="currentColor" stroke-linecap="round" stroke-linejoin="round" d="M22.426 22.739C21.3 20.9 18.594 15.745 18.5 11.432a.5.5 0 0 0-.177-.372L12 5.708 5.675 11.06a.5.5 0 0 0-.177.372C5.406 15.745 2.7 20.9 1.574 22.739A.5.5 0 0 0 2 23.5h20a.5.5 0 0 0 .426-.761M12 5.708V1a.5.5 0 0 1 .715-.451L16.387 2.3a.5.5 0 0 1 .033.886Z"/><path fill="none" stroke="currentColor" stroke-linecap="round" stroke-linejoin="round" d="M7.5 23.5 12 15l4.5 8.5zM12 15v8.5m-6.504-12h13.008"/></svg>
