<svg xmlns="http://www.w3.org/2000/svg" viewBox="0 0 24 24"><path fill="none" stroke="currentColor" stroke-linecap="round" stroke-linejoin="round" d="M20.5 13.906A4.31 4.31 0 0 0 23 9.857a4.71 4.71 0 0 0-4.954-4.635A6.71 6.71 0 0 0 12 1.5a6.605 6.605 0 0 0-6.675 6.109A3.56 3.56 0 0 0 1 11.018 3.186 3.186 0 0 0 3.5 14.3"/><path fill="none" stroke="currentColor" stroke-linecap="round" stroke-linejoin="round" d="M16.474 22.5a.523.523 0 0 0 .526-.522v-8.361a3.1 3.1 0 0 0-.921-2.2 3.16 3.16 0 0 0-2.224-.913H7.526a.523.523 0 0 0-.526.518v10.956a.524.524 0 0 0 .526.522Z"/><path fill="none" stroke="currentColor" stroke-linecap="round" stroke-linejoin="round" d="M14 10.542V13.5h2.998"/></svg>
