<svg xmlns="http://www.w3.org/2000/svg" fill="none" viewBox="0 0 24 24"><path stroke="currentColor" stroke-linecap="round" stroke-linejoin="round" d="M20.5 13.906A4.31 4.31 0 0 0 23 9.857a4.71 4.71 0 0 0-4.954-4.635A6.71 6.71 0 0 0 12 1.5a6.605 6.605 0 0 0-6.675 6.11A3.56 3.56 0 0 0 1 11.017 3.186 3.186 0 0 0 3.5 14.3m8.5 3.2v-3"/><path stroke="currentColor" stroke-linecap="round" stroke-linejoin="round" d="M12.838 11.5a.95.95 0 0 0-1.676 0l-5.056 9.637a.923.923 0 0 0 .376 1.244c.141.078.3.12.462.12h10.112a.95.95 0 0 0 .807-.449.92.92 0 0 0 .031-.914z"/><path stroke="currentColor" d="M11.999 20a.25.25 0 1 1 0-.5m0 .5a.25.25 0 1 0 0-.5"/></svg>
