<svg xmlns="http://www.w3.org/2000/svg" viewBox="0 0 24 24"><path fill="none" stroke="currentColor" stroke-linecap="round" stroke-linejoin="round" d="m20.523 17.771.413 5.012"/><path fill="none" stroke="currentColor" stroke-miterlimit="10" d="M1.808 3.37a2.456 2.456 0 1 0 4.912 0 2.456 2.456 0 1 0-4.912 0"/><path fill="none" stroke="currentColor" stroke-linecap="round" stroke-linejoin="round" d="M11.413 9.7h-.008l-4.15.024-3.044-2.453c-.029-.024-.062-.04-.093-.061a2 2 0 0 0-.147-.1 1.4 1.4 0 0 0-.162-.068c-.037-.01-.071-.028-.109-.042a2 2 0 0 0-.225-.045c-.021 0-.04-.01-.062-.012h0-.1a1.48 1.48 0 0 0-1.2.545L2.1 7.5c-.025.03-.042.065-.064.1s-.065.091-.092.141a2 2 0 0 0-.069.164c-.014.037-.031.071-.043.109a1.5 1.5 0 0 0-.043.215c0 .025-.012.047-.014.071v.014l-.708 7.347a1.5 1.5 0 0 0 1.159 1.6l5.321 1.217.36 3.27A1.5 1.5 0 0 0 9.4 23.086a2 2 0 0 0 .166-.008 1.5 1.5 0 0 0 1.327-1.656l-.477-4.33a1.5 1.5 0 0 0-1.157-1.3l-5.08-1.159.321-3.279L5.788 12.4a1.5 1.5 0 0 0 .942.332h.009l4.683-.027a1.5 1.5 0 0 0-.009-3Zm7.558-.372-.686 4.493-3.611.028m.208 3.922-.413 5.012m-1.486-6.953h9.439s.518 0 .518.518v.906s0 .518-.518.518h-9.439s-.518 0-.518-.518v-.906s0-.518.518-.518"/></svg>
