<svg xmlns="http://www.w3.org/2000/svg" viewBox="0 0 24 24"><path fill="none" stroke="currentColor" stroke-linecap="round" stroke-linejoin="round" d="M5 12a7 7 0 1 0 14 0 7 7 0 1 0-14 0"/><path fill="none" stroke="currentColor" stroke-linecap="round" stroke-linejoin="round" d="M12 5q5.25 7 0 14m0-14q-5.25 7 0 14M5.46 9.5h13.079m-13.079 5h13.08M11.5 1a.5.5 0 1 0 1 0 .5.5 0 1 0-1 0m7.675 3.325a.5.5 0 1 0 1 0 .5.5 0 1 0-1 0M22.5 12a.5.5 0 1 0 1 0 .5.5 0 1 0-1 0m-3.325 7.675a.5.5 0 1 0 1 0 .5.5 0 1 0-1 0M11.5 23a.5.5 0 1 0 1 0 .5.5 0 1 0-1 0m-7.675-3.325a.5.5 0 1 0 1 0 .5.5 0 1 0-1 0M.5 12a.5.5 0 1 0 1 0 .5.5 0 1 0-1 0m3.325-7.675a.5.5 0 1 0 1 0 .5.5 0 1 0-1 0"/></svg>
