<svg xmlns="http://www.w3.org/2000/svg" viewBox="0 0 24 24"><path fill="none" stroke="currentColor" stroke-linecap="round" stroke-linejoin="round" d="M19.5 5.25c2.071 0 3.75-1.007 3.75-2.25S21.571.75 19.5.75 15.75 1.757 15.75 3s1.679 2.25 3.75 2.25"/><path fill="none" stroke="currentColor" stroke-linecap="round" stroke-linejoin="round" d="M15.75 3v4.5c0 1.242 1.679 2.25 3.75 2.25s3.75-1.008 3.75-2.25V3M19.5 18.75c2.071 0 3.75-1.007 3.75-2.25s-1.679-2.25-3.75-2.25-3.75 1.007-3.75 2.25 1.679 2.25 3.75 2.25"/><path fill="none" stroke="currentColor" stroke-linecap="round" stroke-linejoin="round" d="M15.75 16.5V21c0 1.242 1.679 2.25 3.75 2.25s3.75-1.008 3.75-2.25v-4.5M7.125 18.375A6.375 6.375 0 1 0 .75 12a6.375 6.375 0 0 0 6.375 6.375M1.07 14H13M1.07 10H13"/><path fill="none" stroke="currentColor" stroke-linecap="round" stroke-linejoin="round" d="M5.75 5.774a20.65 20.65 0 0 0 .482 12.539M8.5 5.774a20.5 20.5 0 0 1 .75 5.518 20.5 20.5 0 0 1-1.228 7.021M10 3V1.5h3M10 21v1.5h3"/></svg>
