<svg xmlns="http://www.w3.org/2000/svg" viewBox="0 0 24 24"><path fill="none" stroke="currentColor" stroke-linecap="round" stroke-linejoin="round" d="M11.613 5.875a5.379 5.379 0 1 0 10.758 0 5.379 5.379 0 1 0-10.758 0m9.182 3.803 2.633 2.818M5 23.504h14m-7.5-2v2"/><path fill="none" stroke="currentColor" stroke-linecap="round" stroke-linejoin="round" d="M23.5 15.413V20a1.5 1.5 0 0 1-1.5 1.5H2A1.5 1.5 0 0 1 .5 20V5A1.5 1.5 0 0 1 2 3.5h7.428"/><path fill="none" stroke="currentColor" stroke-linecap="round" stroke-linejoin="round" d="M11.213 13.612a3 3 0 1 1-6.009 0v-1.5a3 3 0 1 1 6.009 0ZM5.204 12.11h6.009m-8.261 1.502h2.252m6.009 0h2.252m-9.262 4.006 1.881-1.881M3.702 8.354l2.04 2.04m6.472 7.224-1.881-1.881"/></svg>
