<svg xmlns="http://www.w3.org/2000/svg" fill="none" viewBox="0 0 24 24"><path stroke="currentColor" stroke-linecap="round" stroke-linejoin="round" d="M23.179 5.839a7.62 7.62 0 0 1-5.962 7.453 7.62 7.62 0 0 1-5.962-7.453V2.61q5.962-4.12 11.924 0z"/><path stroke="currentColor" stroke-linecap="round" stroke-linejoin="round" d="m20.175 4.05-2.887 3.845a.747.747 0 0 1-1.123.08l-1.491-1.491m-.935 12.991H.82"/><path stroke="currentColor" d="M7.28 21.711a.248.248 0 1 1 0-.497m0 .497a.248.248 0 1 0 0-.497"/><path stroke="currentColor" stroke-linecap="round" stroke-linejoin="round" d="M13.739 15.004v6.459a1.987 1.987 0 0 1-1.987 1.987H2.808a1.987 1.987 0 0 1-1.987-1.987V2.583A1.987 1.987 0 0 1 2.808.595h6.956"/></svg>
