<svg xmlns="http://www.w3.org/2000/svg" viewBox="0 0 24 24"><path fill="none" stroke="currentColor" stroke-linecap="round" stroke-linejoin="round" d="M3.577 17.252A11.9 11.9 0 0 0 9.882 22.9l1.041.4a3 3 0 0 0 2.154 0l1.041-.4a11.9 11.9 0 0 0 6.3-5.649m1.332-12V3.673a1.49 1.49 0 0 0-.868-1.362A21.7 21.7 0 0 0 12 .5a21.7 21.7 0 0 0-8.882 1.811 1.49 1.49 0 0 0-.868 1.362v1.578m2.625 3.186h-3v6h3v-3h-1m9.5 3v-6m0 0H14.5a1.875 1.875 0 0 1 0 3.75h-1.125m5.75 2.25v-6m0 0h1.125a1.875 1.875 0 0 1 0 3.75h-1.125m3 2.25-2.25-2.25m-12.25-3.75v6a3 3 0 0 0 0-6"/></svg>
