<svg xmlns="http://www.w3.org/2000/svg" fill="none" viewBox="0 0 24 24"><path stroke="currentColor" stroke-linecap="round" stroke-linejoin="round" d="M20.5 23.5c.6 0 1-.4 1-1v-16c0-3.3-2.7-6-6-6h-12c-.6 0-1 .4-1 1v21c0 .6.4 1 1 1z"/><path stroke="currentColor" stroke-linecap="round" stroke-linejoin="round" d="M16.5.6v3.9c0 .6.4 1 1 1h3.9M12 10.1v3m5.9 3.7c.2.3.1.6 0 .9-.2.3-.5.4-.8.4H6.9c-.3 0-.6-.2-.8-.4q-.3-.45 0-.9l5.1-9.6c.1-.2.2-.3.4-.4.5-.2 1-.1 1.3.4z"/><path stroke="currentColor" d="M12 15.55a.25.25 0 1 1 0-.5m0 .5a.25.25 0 1 0 0-.5"/></svg>
