<svg xmlns="http://www.w3.org/2000/svg" viewBox="0 0 24 24"><path fill="none" stroke="currentColor" stroke-linecap="round" stroke-linejoin="round" d="M12.5 22a1.5 1.5 0 0 1-1.5 1.5H2A1.5 1.5 0 0 1 .5 22V10A1.5 1.5 0 0 1 2 8.5h5.879a1.5 1.5 0 0 1 1.06.439l3.122 3.122a1.5 1.5 0 0 1 .439 1.06Zm-9-10H7m-3.5 3.25h6m-6 3.25h6m5-14.5H18m-3.5 3.25h6m-6 3.25h6m-5 5H22a1.5 1.5 0 0 0 1.5-1.5V5.121a1.5 1.5 0 0 0-.439-1.06L19.939.939A1.5 1.5 0 0 0 18.879.5H13A1.5 1.5 0 0 0 11.5 2v5.5M5.5 1 7 2.5 5.5 4"/><path fill="none" stroke="currentColor" stroke-linecap="round" stroke-linejoin="round" d="M7 2.5H4A1.5 1.5 0 0 0 2.5 4v2m15 17L16 21.5l1.5-1.5"/><path fill="none" stroke="currentColor" stroke-linecap="round" stroke-linejoin="round" d="M16 21.5h3a1.5 1.5 0 0 0 1.5-1.5v-2"/></svg>
