<svg xmlns="http://www.w3.org/2000/svg" fill="none" viewBox="0 0 24 24"><path stroke="currentColor" stroke-linecap="round" stroke-linejoin="round" d="M20 8.499H4v8.5h16zM4 20h6m-6 3h6m3 .5V20h7v3.5"/><path stroke="currentColor" stroke-linecap="round" stroke-linejoin="round" d="m8.5 17 3.956-4.4a2.706 2.706 0 0 1 4.124.12L20 17M7.5 12.499a.5.5 0 1 0 0-1 .5.5 0 0 0 0 1"/><path stroke="currentColor" stroke-linecap="round" stroke-linejoin="round" d="M.5 23.5v-21a2 2 0 0 1 2-2h19a2 2 0 0 1 2 2v21m-23-18h23"/><path stroke="currentColor" d="M4 3.25a.25.25 0 0 1 0-.5m0 .5a.25.25 0 0 0 0-.5m3 .5a.25.25 0 0 1 0-.5m0 .5a.25.25 0 0 0 0-.5m3 .5a.25.25 0 0 1 0-.5m0 .5a.25.25 0 1 0 0-.5"/></svg>
