<svg xmlns="http://www.w3.org/2000/svg" fill="none" viewBox="0 0 24 24"><path stroke="currentColor" stroke-linecap="round" stroke-linejoin="round" d="m23.368 20.923-6 2.57v-6.856l6-2.571z"/><path stroke="currentColor" stroke-linecap="round" stroke-linejoin="round" d="m11.368 20.923 6 2.57v-6.856l-6-2.571zm6-9.429 6 2.572-6 2.57-6-2.57z"/><path stroke="currentColor" stroke-linecap="round" stroke-linejoin="round" d="M9.5 22.506h-7a2 2 0 0 1-2-2v-18a2 2 0 0 1 2-2h19a2 2 0 0 1 2 2v9m-23-6h23"/><path stroke="currentColor" d="M4 3.256a.25.25 0 0 1 0-.5m0 .5a.25.25 0 0 0 0-.5m3 .5a.25.25 0 0 1 0-.5m0 .5a.25.25 0 0 0 0-.5m3 .5a.25.25 0 0 1 0-.5m0 .5a.25.25 0 1 0 0-.5"/></svg>
