<svg xmlns="http://www.w3.org/2000/svg" viewBox="0 0 24 24"><path fill="none" stroke="currentColor" stroke-linecap="round" stroke-linejoin="round" d="M10.1 6.492V4.347a1 1 0 0 0-.349-.759L6.426.741A1 1 0 0 0 5.775.5H1.5a1 1 0 0 0-1 1v11.549a1 1 0 0 0 1 1h6.492m7.44-.738-4.243-4.243h2.122m-4.243 2.121 4.243 4.243h-2.122"/><path fill="none" stroke="currentColor" stroke-linecap="round" stroke-linejoin="round" d="M13.9 17.508V22.5a1 1 0 0 0 1 1h7.6a1 1 0 0 0 1-1v-8.7a1 1 0 0 0-.349-.759l-3.322-2.847a1 1 0 0 0-.651-.241h-3.17"/></svg>
