<svg xmlns="http://www.w3.org/2000/svg" viewBox="0 0 24 24"><g fill="none" stroke="currentColor" stroke-linecap="round" stroke-linejoin="round"><path d="M4 .5a.5.5 0 0 0-.5.5v7a.5.5 0 0 0 .5.5h8a.5.5 0 0 1 .5.5v11a.5.5 0 0 1-.5.5H1a.5.5 0 0 0-.5.5v2a.5.5 0 0 0 .5.5h22a.5.5 0 0 0 .5-.5V2A1.5 1.5 0 0 0 22 .5Z"/><path d="M18.5 23.5V13a.5.5 0 0 1 .5-.5h4.5m-6-7h6m-6 2h6m-6 2h6M5 11.5h5s.5 0 .5.5v2s0 .5-.5.5H5s-.5 0-.5-.5v-2s0-.5.5-.5M4.5 13h-4M9 11.5v-3m-3 3v-3m0-4.75a1.25 1.25 0 1 0 2.5 0 1.25 1.25 0 1 0-2.5 0M7.5 14.5v1"/></g></svg>
