<svg xmlns="http://www.w3.org/2000/svg" viewBox="0 0 24 24"><path fill="none" stroke="currentColor" stroke-linecap="round" stroke-linejoin="round" d="M.5 10.501a10 10 0 1 0 20 0 10 10 0 1 0-20 0"/><path fill="none" stroke="currentColor" stroke-linecap="round" stroke-linejoin="round" d="M8.5 10.501a2 2 0 1 0 4 0 2 2 0 1 0-4 0m15 13-5.929-5.929"/><path fill="none" stroke="currentColor" stroke-linecap="round" stroke-linejoin="round" d="M9.711 5.314a1.06 1.06 0 0 0 1.578 0l.51-.564a1.063 1.063 0 0 1 1.85.766l-.039.76a1.063 1.063 0 0 0 1.115 1.115l.76-.039a1.063 1.063 0 0 1 .766 1.85l-.564.51a1.06 1.06 0 0 0 0 1.578l.564.51a1.063 1.063 0 0 1-.766 1.85l-.76-.039a1.063 1.063 0 0 0-1.115 1.115l.039.76a1.063 1.063 0 0 1-1.85.766l-.51-.564a1.06 1.06 0 0 0-1.578 0l-.51.564a1.063 1.063 0 0 1-1.85-.766l.039-.76a1.063 1.063 0 0 0-1.115-1.115l-.76.039a1.063 1.063 0 0 1-.766-1.85l.564-.51a1.06 1.06 0 0 0 0-1.578L4.749 9.2a1.063 1.063 0 0 1 .766-1.85l.76.039A1.063 1.063 0 0 0 7.39 6.276l-.039-.76A1.063 1.063 0 0 1 9.2 4.75Z"/></svg>
