<svg xmlns="http://www.w3.org/2000/svg" viewBox="0 0 24 24"><path fill="none" stroke="currentColor" stroke-linecap="round" stroke-linejoin="round" d="M.5 15.501v8m15-1.001a3 3 0 0 0-3-3H8.75a3 3 0 0 0-3-3H.5v6Zm-9.75-2.999H9.5M16.313 6.97a1.437 1.437 0 1 0 2.874 0 1.437 1.437 0 1 0-2.874 0"/><path fill="none" stroke="currentColor" stroke-linecap="round" stroke-linejoin="round" d="M18.971 1.409 19.4 2.8a.953.953 0 0 0 1.124.653l1.412-.328a1.283 1.283 0 0 1 1.221 2.126l-.988 1.065a.96.96 0 0 0 0 1.3l.988 1.065a1.283 1.283 0 0 1-1.221 2.126l-1.412-.327a.95.95 0 0 0-1.124.653l-.424 1.392a1.275 1.275 0 0 1-2.442 0l-.424-1.392a.95.95 0 0 0-1.124-.653l-1.412.327a1.283 1.283 0 0 1-1.221-2.126l.988-1.065a.96.96 0 0 0 0-1.3l-.988-1.065a1.283 1.283 0 0 1 1.221-2.126l1.412.328a.953.953 0 0 0 1.119-.653l.424-1.392a1.275 1.275 0 0 1 2.442.001"/></svg>
