<svg xmlns="http://www.w3.org/2000/svg" viewBox="0 0 24 24"><path fill="none" stroke="currentColor" stroke-linecap="round" stroke-linejoin="round" d="M20.254 13.5H22.5a1 1 0 0 0 1-1v-1a1 1 0 0 0-1-1h-2.247a11.8 11.8 0 0 0-1-2.922l1.589-1.588a1 1 0 0 0 0-1.414l-1.418-1.414a1 1 0 0 0-1.414 0l-1.59 1.589a11.8 11.8 0 0 0-2.92-1V1.5a1 1 0 0 0-1-1h-1a1 1 0 0 0-1 1v2.249a11.8 11.8 0 0 0-2.921 1l-1.59-1.587a1 1 0 0 0-1.414 0L3.16 4.577a1 1 0 0 0 0 1.414L4.75 7.58a11.8 11.8 0 0 0-1 2.921H1.5a1 1 0 0 0-1 1v1a1 1 0 0 0 1 1h2.246a11.8 11.8 0 0 0 1 2.921l-1.59 1.59a1 1 0 0 0 0 1.414l1.419 1.414a1 1 0 0 0 1.414 0l1.589-1.59a11.8 11.8 0 0 0 2.922 1v2.25a1 1 0 0 0 1 1h1a1 1 0 0 0 1-1v-2.245a11.8 11.8 0 0 0 2.92-1l1.591 1.589a1 1 0 0 0 1.414 0l1.414-1.414a1 1 0 0 0 0-1.414l-1.589-1.59a11.8 11.8 0 0 0 1.004-2.926"/><path fill="none" stroke="currentColor" stroke-linecap="round" stroke-linejoin="round" d="M7.5 12.001a4.5 4.5 0 1 0 9 0 4.5 4.5 0 1 0-9 0"/></svg>
