<svg xmlns="http://www.w3.org/2000/svg" viewBox="0 0 24 24"><path fill="none" stroke="currentColor" stroke-linecap="round" stroke-linejoin="round" d="M5.5 8.5v1.08a1 1 0 0 1-.841.986C2.11 10.977.5 13.253.5 16A5.5 5.5 0 0 0 6 21.5h12a5.5 5.5 0 0 0 5.5-5.5c0-2.747-1.605-5.023-4.158-5.434a1 1 0 0 1-.842-.986V8.5m-15-1V7A1.5 1.5 0 0 1 5 5.5h14A1.5 1.5 0 0 1 20.5 7v.5"/><path fill="none" stroke="currentColor" stroke-linecap="round" stroke-linejoin="round" d="M12.504 4a1.5 1.5 0 1 0 3 0 1.5 1.5 0 1 0-3 0m-4 0a1.5 1.5 0 1 0 3 0 1.5 1.5 0 1 0-3 0"/></svg>
