<svg xmlns="http://www.w3.org/2000/svg" viewBox="0 0 24 24"><path fill="none" stroke="currentColor" stroke-linecap="round" stroke-linejoin="round" d="M22.182 8.182a4.5 4.5 0 1 0-6.364-6.364L12.636 5 19 11.364Zm-10.96-4.596 9.192 9.192"/><path fill="none" stroke="currentColor" stroke-linecap="round" stroke-linejoin="round" d="m12.636 5-8.83 8.83a4.49 4.49 0 0 0-.866 5.109l-2 2a1.5 1.5 0 0 0 2.122 2.122l2-2a4.49 4.49 0 0 0 5.109-.866L19 11.364ZM9.568 8.068 11.5 10m-3.932.068L9.5 12m-3.932.068L7.5 14"/></svg>
