<svg xmlns="http://www.w3.org/2000/svg" viewBox="0 0 24 24"><g fill="none" stroke="currentColor" stroke-linecap="round" stroke-linejoin="round"><path d="m2.6 14.15-2 6.76a2 2 0 1 0 3.86 1.15l2-6.76a5 5 0 0 0 4.22-3.56l.12-.41-9.66-2.87-.14.41a5 5 0 0 0 1.6 5.28"/><path d="M13 4.09a1 1 0 0 0-.68-1.25L4.55.54a1 1 0 0 0-1.25.68L1.14 8.46l9.66 2.87ZM1.72 6.53l9.65 2.87M6.48 1.12 5.47 4.5m4.87-2.24-1 3.38M2.52 21.48l.29-.96M13.47 9.9A15 15 0 0 1 17 9.5c3.59 0 6.5 1.12 6.5 2.5s-2.91 2.5-6.5 2.5a13.4 13.4 0 0 1-4.6-.73"/><path d="M10.49 16v5c0 1.38 2.91 2.5 6.5 2.5s6.5-1.12 6.5-2.5v-9"/><path d="M14.49 14.31V18a1 1 0 1 0 2 0 1 1 0 0 1 2 0 1.5 1.5 0 0 0 3 0v-4.2"/></g></svg>
