<svg xmlns="http://www.w3.org/2000/svg" fill="none" viewBox="0 0 24 24"><path stroke="currentColor" stroke-linecap="round" stroke-linejoin="round" d="M8.964 14.989a4.415 4.415 0 0 0 6.243-6.242m7.72-7.72L.98 22.973"/><path stroke="currentColor" d="M7.25 12.157a.375.375 0 0 1 0-.75m0 .75a.375.375 0 0 0 0-.75m1.25-2.75a.375.375 0 0 1 0-.75m0 .75a.375.375 0 0 0 0-.75m3.5-.5a.375.375 0 0 1 0-.75m0 .75a.375.375 0 0 0 0-.75"/><path stroke="currentColor" stroke-linecap="round" stroke-linejoin="round" d="M6.142 17.812A10.5 10.5 0 0 0 12 19.781c4.1.081 8.258-3.335 10.824-6.682a2.25 2.25 0 0 0 0-2.638 21.3 21.3 0 0 0-4.76-4.568M14.994 4.3A8.5 8.5 0 0 0 12 3.784C7.969 3.7 3.8 7.044 1.179 10.461a2.25 2.25 0 0 0 0 2.638 22.6 22.6 0 0 0 2.672 2.914"/></svg>
