<svg xmlns="http://www.w3.org/2000/svg" viewBox="0 0 24 24"><path fill="none" stroke="currentColor" stroke-linecap="round" stroke-linejoin="round" d="M.5 12a11.5 11.5 0 1 0 23 0 11.5 11.5 0 1 0-23 0"/><path fill="none" stroke="currentColor" stroke-linecap="round" stroke-linejoin="round" d="M10.5 12a1.5 1.5 0 1 0 3 0 1.5 1.5 0 1 0-3 0m2.08 1.383 3.864 9.224M10.617 12.58l-9.224 3.864m10.027-5.827L7.556 1.393m5.827 10.027 9.224-3.864m-11.175 5.832-3.79 9.254m2.97-11.21-9.254-3.79m11.21 2.97 3.79-9.254m-2.97 11.21 9.254 3.79"/></svg>
