<svg xmlns="http://www.w3.org/2000/svg" viewBox="0 0 24 24"><path fill="none" stroke="currentColor" stroke-linecap="round" stroke-linejoin="round" d="M20 19.5h3s.5 0 .5.5v3s0 .5-.5.5h-3s-.5 0-.5-.5v-3s0-.5.5-.5m-6 0h3s.5 0 .5.5v3s0 .5-.5.5h-3s-.5 0-.5-.5v-3s0-.5.5-.5m3-6h3s.5 0 .5.5v3s0 .5-.5.5h-3s-.5 0-.5-.5v-3s0-.5.5-.5"/><path fill="none" stroke="currentColor" stroke-linecap="round" stroke-linejoin="round" d="M10.5 23.5h-9a1 1 0 0 1-1-1v-21a1 1 0 0 1 1-1h13.293a1 1 0 0 1 .707.293L19.207 4.5a1 1 0 0 1 .293.707V10"/></svg>
