<svg xmlns="http://www.w3.org/2000/svg" viewBox="0 0 24 24"><path fill="none" stroke="currentColor" stroke-linecap="round" stroke-linejoin="round" d="M4.5 8.5H14m-9.5 3h6m-6-6h7m-7 9h4m-4 3h4m2 6h-9a1 1 0 0 1-1-1v-21a1 1 0 0 1 1-1h13.293a1 1 0 0 1 .707.293L19.207 4.5a1 1 0 0 1 .293.707V8.5"/><path fill="none" stroke="currentColor" stroke-linecap="round" stroke-linejoin="round" d="M11.5 17.5a6 6 0 1 0 12 0 6 6 0 1 0-12 0"/><path fill="none" stroke="currentColor" stroke-linecap="round" stroke-linejoin="round" d="M19.5 17.5h-2v-3"/></svg>
