<svg xmlns="http://www.w3.org/2000/svg" viewBox="0 0 24 24"><path fill="none" stroke="currentColor" stroke-linecap="round" stroke-linejoin="round" d="M4.5 4.5h15s4 0 4 4v7s0 4-4 4h-15s-4 0-4-4v-7s0-4 4-4"/><path fill="none" stroke="currentColor" stroke-linecap="round" stroke-linejoin="round" d="M19.457 19.5a2 2 0 0 0-1.066-1.118L14 16.5v-2s.866-.35.866-2.5c.684 0 .944-2-.007-2a2.63 2.63 0 0 0 .44-2c-.491-2-5.331-2-5.822 0-2.066-.43-.422 1.712-.422 2-.981 0-.981 2 0 2 0 2.15.945 2.5.945 2.5v2l-4.391 1.882A2 2 0 0 0 4.543 19.5Z"/></svg>
