<svg xmlns="http://www.w3.org/2000/svg" viewBox="0 0 24 24"><g fill="none" stroke="currentColor" stroke-linecap="round" stroke-linejoin="round"><path d="M1.5.5h21a1 1 0 0 1 1 1V4a.5.5 0 0 1-.5.5H1A.5.5 0 0 1 .5 4V1.5a1 1 0 0 1 1-1"/><path d="M.89.71 6 4.5l6-4 6 4L23.11.71M1.5 4.5v19m21-19v19M15 22v-6.25m-1.16-.58 3.17 1.59M11 14.5a1.5 1.5 0 1 0 3 0 1.5 1.5 0 1 0-3 0m2 9 2-1.5m2 1.5L15 22M11.5 4.5l-1.28 2.84a.5.5 0 0 0 .47.66h2.62a.5.5 0 0 0 .47-.66L12.5 4.5m-11.01.02 4.33 1.86a.54.54 0 0 1 .3.37.48.48 0 0 1-.12.44L4.19 9a.48.48 0 0 1-.44.14.54.54 0 0 1-.37-.3L1.52 4.49m20.99.03-4.33 1.86a.54.54 0 0 0-.3.37.48.48 0 0 0 .14.44L19.81 9a.48.48 0 0 0 .44.14.54.54 0 0 0 .37-.3l1.86-4.33"/></g></svg>
