<svg xmlns="http://www.w3.org/2000/svg" fill="none" viewBox="0 0 24 24"><path stroke="currentColor" stroke-linecap="round" stroke-linejoin="round" d="M12.49 7.5a1 1 0 0 0-1 1V12a1.5 1.5 0 1 0 3 0V8.5a1 1 0 0 0-1-1z"/><path stroke="currentColor" stroke-linecap="round" stroke-linejoin="round" d="M15.49 7.5a1 1 0 0 0-1 1V12a1.5 1.5 0 1 0 3 0V8.5a1 1 0 0 0-1-1z"/><path stroke="currentColor" stroke-linecap="round" stroke-linejoin="round" d="M18.49 19.5v-.526a1 1 0 0 1 .336-.747A4.96 4.96 0 0 0 20.49 14.5V5a1.5 1.5 0 1 0-3 0v4.5m-6-1V2a1.5 1.5 0 1 0-3 0v10l-3-3.1a1.2 1.2 0 0 0-1.76 1.6s2.481 3.969 4.2 6.679a5 5 0 0 0 1.17 1.266 1 1 0 0 1 .391.795v.26"/><path stroke="currentColor" stroke-linecap="round" stroke-linejoin="round" d="M18.49 19.5h-9a1 1 0 0 0-1 1v2a1 1 0 0 0 1 1h9a1 1 0 0 0 1-1v-2a1 1 0 0 0-1-1"/><path stroke="currentColor" d="M10.74 21.75a.25.25 0 1 1 0-.5m0 .5a.25.25 0 1 0 0-.5m3.25.5a.25.25 0 1 1 0-.5m0 .5a.25.25 0 1 0 0-.5m3.25.5a.25.25 0 1 1 0-.5m0 .5a.25.25 0 1 0 0-.5"/></svg>
