<svg xmlns="http://www.w3.org/2000/svg" viewBox="0 0 24 24"><path fill="none" stroke="currentColor" stroke-linecap="round" stroke-linejoin="round" d="M4.51 20a2.5 1.5 0 1 0 5 0 2.5 1.5 0 1 0-5 0m9.99 0a2.5 1.5 0 1 0 5 0 2.5 1.5 0 1 0-5 0m-5-13a2.5 2.5 0 1 0 5 0 2.5 2.5 0 1 0-5 0"/><path fill="none" stroke="currentColor" stroke-linecap="round" stroke-linejoin="round" d="M7.5 4.5a4.22 4.22 0 0 1 4.5-4 4.22 4.22 0 0 1 4.5 4m0 0h1a2 2 0 0 1 0 4h-1Zm-9 0H6.459a2 2 0 0 0 0 4H7.5Zm0 10.021A3.534 3.534 0 0 1 11 11.5h2a3.535 3.535 0 0 1 3.5 3.021m6.962 7.704-1.429-5a1 1 0 0 0-.962-.725H2.929a1 1 0 0 0-.962.725l-1.428 5A1 1 0 0 0 1.5 23.5h21a1 1 0 0 0 .962-1.275"/></svg>
