<svg xmlns="http://www.w3.org/2000/svg" viewBox="0 0 24 24"><path fill="none" stroke="currentColor" stroke-linecap="round" stroke-linejoin="round" d="M18.328 5.671a4 4 0 0 0-5.657 0c-1.1 1.1-2.491 5.695-3.083 7.983a.622.622 0 0 0 .758.758c2.288-.592 6.878-1.98 7.982-3.084a4 4 0 0 0 0-5.657"/><path fill="none" stroke="currentColor" stroke-linecap="round" stroke-linejoin="round" d="M14.5 8.5a1 1 0 1 0 2 0 1 1 0 1 0-2 0m.296.704L9.75 14.25M19.5.5l4 4L21 6l-3-3zm-2 4.5 1-1.5m2 2-1.5 1m-11 9H4.5a2 2 0 0 0 0 4h12a2 2 0 0 1 0 4H.5"/></svg>
