<svg xmlns="http://www.w3.org/2000/svg" viewBox="0 0 24 24"><path fill="none" stroke="currentColor" stroke-linecap="round" stroke-linejoin="round" d="M4.683 13.694V7.6a1.525 1.525 0 0 1 1.525-1.53h1.524m-3.049 4.574H6.97m3.199 3.05V7.6a1.525 1.525 0 1 1 3.049 0v6.1m-3.049-3.056h3.049m6.099 1.525a1.525 1.525 0 1 1-3.049 0V7.6a1.525 1.525 0 1 1 3.049 0Zm-1.525 1.525 1.525 1.524"/><path fill="none" stroke="currentColor" stroke-linecap="round" stroke-linejoin="round" d="M22.423 2.362H1.577A1.077 1.077 0 0 0 .5 3.439v13.89a1.077 1.077 0 0 0 1.077 1.077h2.494a8 8 0 0 1-1.417 3.231c3.118.045 5.091-1.162 6.274-3.231h13.495a1.077 1.077 0 0 0 1.077-1.077V3.439a1.077 1.077 0 0 0-1.077-1.077"/></svg>
