<svg xmlns="http://www.w3.org/2000/svg" fill="none" viewBox="0 0 24 24"><path stroke="currentColor" stroke-linecap="round" stroke-linejoin="round" d="M16.894 12.5a1 1 0 0 0-.976.788 3.7 3.7 0 0 1-1.466 2.068c-.716.496-1.593.644-2.452.644s-1.736-.148-2.452-.644a3.7 3.7 0 0 1-1.466-2.068 1 1 0 0 0-.976-.788H5.5a2 2 0 0 0-2 2v8a1 1 0 0 0 1 1h15a1 1 0 0 0 1-1v-8a2 2 0 0 0-2-2z"/><path stroke="currentColor" stroke-linecap="round" stroke-linejoin="round" d="M18.5 8.5h2a1 1 0 0 1 1 1v4a1 1 0 0 1-1 1m-17 0a1 1 0 0 1-1-1v-4a1 1 0 0 1 1-1h2m13 4V5.914a1 1 0 0 0-.293-.707L13.793.793A1 1 0 0 0 13.086.5H6.5a1 1 0 0 0-1 1v11"/><path stroke="currentColor" stroke-linecap="round" stroke-linejoin="round" d="M13.5.59V5.5h4.91m3.09 5h2v2m-21-2h-2v2"/><path stroke="currentColor" d="M18 21a.25.25 0 1 1 0-.5m0 .5a.25.25 0 1 0 0-.5m-3 .5a.25.25 0 1 1 0-.5m0 .5a.25.25 0 1 0 0-.5m-3 .5a.25.25 0 1 1 0-.5m0 .5a.25.25 0 1 0 0-.5M9 21a.25.25 0 1 1 0-.5m0 .5a.25.25 0 1 0 0-.5M6 21a.25.25 0 1 1 0-.5m0 .5a.25.25 0 1 0 0-.5m10.5-1.993a.25.25 0 1 1 0-.5m0 .5a.25.25 0 1 0 0-.5m-3 .5a.25.25 0 1 1 0-.5m0 .5a.25.25 0 1 0 0-.5m-3 .5a.25.25 0 1 1 0-.5m0 .5a.25.25 0 1 0 0-.5m-3 .5a.25.25 0 1 1 0-.5m0 .5a.25.25 0 1 0 0-.5"/></svg>
