<svg xmlns="http://www.w3.org/2000/svg" viewBox="-0.001 0 24 24"><path fill="none" stroke="currentColor" stroke-linecap="round" stroke-linejoin="round" d="M15.97 2.561A9.5 9.5 0 1 0 12.548 19.1M1.039 13.117h11.212M1.039 6.783h11.212"/><path fill="none" stroke="currentColor" stroke-linecap="round" stroke-linejoin="round" d="M7.95.672a30.77 30.77 0 0 0 .717 18.685M12.048.672a31 31 0 0 1 .7 3.148M23.5 23.55H.5m14 0h9V8.9a.49.49 0 0 0-.5-.47h-8a.49.49 0 0 0-.5.472Z"/><path fill="none" stroke="currentColor" stroke-linecap="round" stroke-linejoin="round" d="M16.749 6.168a.69.69 0 0 1 .75-.618h3a.69.69 0 0 1 .75.618V8.43h-4.5ZM19 5.55v-3.6m1.5 9.36h-3m3 2.88h-3m3 2.88h-3m3 2.88h-3"/></svg>
