<svg xmlns="http://www.w3.org/2000/svg" viewBox="0 0 24 24"><path fill="none" stroke="currentColor" stroke-linecap="round" stroke-linejoin="round" d="M2.504 3.5h19s2 0 2 2v13s0 2-2 2h-19s-2 0-2-2v-13s0-2 2-2"/><path fill="none" stroke="currentColor" stroke-linecap="round" stroke-linejoin="round" d="M4.957 10h1.281l.362 3.6a.448.448 0 0 0 .85.148L9.3 9.891m1.813.078-.812 4.062m4.531-4.109s-1.375-.36-1.844.422.266 1.281.75 1.578 1.016.75.875 1.281-.734 1.313-2.3.766m3.687.062 1.88-3.789a.436.436 0 0 1 .825.158l.3 3.569m-2.407-1.141h2.328"/></svg>
