<svg xmlns="http://www.w3.org/2000/svg" viewBox="0 0 24 24"><path fill="none" stroke="currentColor" stroke-linecap="round" stroke-linejoin="round" d="M10.004 7.5V9m2-1.5V9m-2 6v1.5m2-1.5v1.5m1.996-6a1.5 1.5 0 0 1-1.5 1.5H9V9h3.5a1.5 1.5 0 0 1 1.5 1.5m0 3a1.5 1.5 0 0 1-1.5 1.5H9v-3h3.5a1.5 1.5 0 0 1 1.5 1.5"/><path fill="none" stroke="currentColor" stroke-linecap="round" stroke-linejoin="round" d="M6.004 5h12s1 0 1 1v12s0 1-1 1h-12s-1 0-1-1V6s0-1 1-1m6-4v4m-4-4v4m8-4v4m-15 7h4m-4 4h4m-4-8h4m7 15v-4m4 4v-4m-8 4v-4m15-7h-4m4-4h-4m4 8h-4"/></svg>
