<svg xmlns="http://www.w3.org/2000/svg" fill="none" viewBox="0 0 24 24"><path stroke="currentColor" stroke-linecap="round" stroke-linejoin="round" d="M3.301 6.935a5.38 5.38 0 0 1 7.842 2.62h10.15l1.957 1.956-1.957 1.956h-1.467l-1.468 1.468-1.467-1.468h-.978l-1.467 1.468-1.468-1.468h-1.836a5.381 5.381 0 1 1-7.841-6.532"/><path stroke="currentColor" stroke-linecap="round" stroke-linejoin="round" d="M4.179 12.98a1.467 1.467 0 1 0 0-2.935 1.467 1.467 0 0 0 0 2.935"/><path stroke="currentColor" stroke-linejoin="round" d="M21.293 3.685a.978.978 0 1 0 1.956 0 .978.978 0 1 0-1.956 0m0 15.652a.978.978 0 1 0 1.956 0 .978.978 0 1 0-1.956 0M5.642 22.272a.978.978 0 1 0 1.956 0 .978.978 0 1 0-1.956 0M8.577 1.728a.978.978 0 1 0 1.956 0 .978.978 0 1 0-1.956 0"/><path stroke="currentColor" stroke-linecap="round" stroke-linejoin="round" d="M17.38 7.597V4.663c0-.54.438-.979.978-.979h.979M12.49 1.729h.977c.54 0 .978.438.978.978v4.891m1.957 8.315v2.445c0 .54.438.979.978.979h1.957m-9.782 2.934h1.956c.54 0 .978-.438.978-.978v-4.891"/></svg>
