<svg xmlns="http://www.w3.org/2000/svg" viewBox="0 0 24 24"><path fill="none" stroke="currentColor" stroke-linecap="round" stroke-linejoin="round" d="M10.504 5.52V7.5m2-1.98V7.5m-2 6.02v1.98m2-1.98v1.98M14.5 9a1.5 1.5 0 0 1-1.5 1.5H9.5v-3H13A1.5 1.5 0 0 1 14.5 9m0 3a1.5 1.5 0 0 1-1.5 1.5H9.5v-3H13a1.5 1.5 0 0 1 1.5 1.5m6.81 8.5H2.7a2 2 0 0 1-1.975-1.671L.6 18.082a.5.5 0 0 1 .493-.582h21.82a.5.5 0 0 1 .493.582l-.125.747A2 2 0 0 1 21.31 20.5"/><path fill="none" stroke="currentColor" stroke-linecap="round" stroke-linejoin="round" d="M3.5 3.5h17a1 1 0 0 1 1 1v13h0-19 0v-13a1 1 0 0 1 1-1"/></svg>
