<svg xmlns="http://www.w3.org/2000/svg" viewBox="0 0 24 24"><g fill="none" stroke="currentColor" stroke-linecap="round" stroke-linejoin="round"><path d="M.5 16a7.5 7.5 0 1 0 15 0 7.5 7.5 0 1 0-15 0m1-9.5h4M1.5 2 2.82.68A.6.6 0 0 1 3.25.5a.25.25 0 0 1 .25.25V6.5m6-6a2 2 0 0 0-2 2v2a2 2 0 0 0 4 0v-2a2 2 0 0 0-2-2m4 6h4m-4-4.5L14.82.68a.6.6 0 0 1 .43-.18.25.25 0 0 1 .25.25V6.5m6-6a2 2 0 0 0-2 2v2a2 2 0 0 0 4 0v-2a2 2 0 0 0-2-2m-2 14h4m-4-4.5 1.32-1.32a.6.6 0 0 1 .43-.18.25.25 0 0 1 .25.25v5.75m-4.28-.98a2 2 0 0 0 .28-1v-2a2 2 0 0 0-2-2 1.7 1.7 0 0 0-.51.07m.51 13.91h2m-2-1v1m6-6a2 2 0 0 0-2 2v2a2 2 0 0 0 4 0v-2a2 2 0 0 0-2-2M7 11.5V13m2-1.5V13m-2 6.02v1.48m2-1.48v1.48"/><path d="M11 14.5A1.5 1.5 0 0 1 9.5 16h-4v-3h4a1.5 1.5 0 0 1 1.5 1.5m0 3A1.5 1.5 0 0 1 9.5 19h-4v-3h4a1.5 1.5 0 0 1 1.5 1.5"/></g></svg>
