<svg xmlns="http://www.w3.org/2000/svg" fill="none" viewBox="0 0 24 24"><path stroke="currentColor" stroke-linecap="round" stroke-linejoin="round" d="M15.229 3.196v.978m.004 5.87-.004.978m2.445-5.38a1.467 1.467 0 0 1-1.467 1.467H13.76V4.174h2.446a1.47 1.47 0 0 1 1.467 1.468m.001 2.935a1.467 1.467 0 0 1-1.467 1.467H13.76V7.109h2.446a1.47 1.47 0 0 1 1.467 1.468"/><path stroke="currentColor" stroke-linecap="round" stroke-linejoin="round" d="M15.4.75a6.34 6.34 0 0 0-4.455 1.904 6.32 6.32 0 0 0-1.802 4.492 6.3 6.3 0 0 0 .823 3.36l-1.879 3.94 3.947-1.875a6.4 6.4 0 0 0 8.083-1.138 6.38 6.38 0 0 0 1.558-5.469 6.38 6.38 0 0 0-3.428-4.54A6.4 6.4 0 0 0 15.4.751m-.466 18.586H2.217"/><path stroke="currentColor" stroke-linecap="round" stroke-linejoin="round" d="M14.934 15.424v5.87a1.956 1.956 0 0 1-1.956 1.956H4.173a1.956 1.956 0 0 1-1.956-1.956V2.707A1.957 1.957 0 0 1 4.173.75h4.892"/><path stroke="currentColor" d="M8.576 21.538a.245.245 0 0 1 0-.489m0 .489a.245.245 0 0 0 0-.489"/></svg>
