<svg xmlns="http://www.w3.org/2000/svg" viewBox="0 0 24 24"><path fill="none" stroke="currentColor" stroke-linecap="round" stroke-linejoin="round" d="M6.504 11.52v1.98m2-1.98v1.98m-2 6.02v1.98m2-1.98v1.98M10.5 15A1.5 1.5 0 0 1 9 16.5H5.5v-3H9a1.5 1.5 0 0 1 1.5 1.5m0 3A1.5 1.5 0 0 1 9 19.5H5.5v-3H9a1.5 1.5 0 0 1 1.5 1.5m3.004-12.5a5 5 0 1 0 10 0 5 5 0 1 0-10 0"/><path fill="none" stroke="currentColor" stroke-linecap="round" stroke-linejoin="round" d="M.504 16.5a7 7 0 1 0 14 0 7 7 0 1 0-14 0m16.841-9.841A1.159 1.159 0 1 0 18.5 5.5a1.159 1.159 0 1 1 1.159-1.159m-1.155 3.477v.773m0-6.182v.774M9 1a5 5 0 0 0-5 5v1m12 14a5 5 0 0 0 5-5v-1"/><path fill="none" stroke="currentColor" stroke-linecap="round" stroke-linejoin="round" d="m2.004 5 2 2 2-2m13 12 2-2 2 2"/></svg>
