<svg xmlns="http://www.w3.org/2000/svg" viewBox="0 0 24 24"><path fill="none" stroke="currentColor" stroke-linecap="round" stroke-linejoin="round" d="M1.004.5h5s.5 0 .5.5v3s0 .5-.5.5h-5s-.5 0-.5-.5V1s0-.5.5-.5m2.5 4v2m-1.5 0h3m13-6h5s.5 0 .5.5v3s0 .5-.5.5h-5s-.5 0-.5-.5V1s0-.5.5-.5m2.5 4v2m-1.5 0h3m-4 11h5s.5 0 .5.5v3s0 .5-.5.5h-5s-.5 0-.5-.5v-3s0-.5.5-.5m2.5 4v2m-1.5 0h3m-21-6h5s.5 0 .5.5v3s0 .5-.5.5h-5s-.5 0-.5-.5v-3s0-.5.5-.5m2.5 4v2m-1.5 0h3m5.5-17.979V7.5m2-1.979V7.5m-2 6.021V15.5m2-1.979V15.5M14.5 9a1.5 1.5 0 0 1-1.5 1.5H9.5v-3H13A1.5 1.5 0 0 1 14.5 9m0 3a1.5 1.5 0 0 1-1.5 1.5H9.5v-3H13a1.5 1.5 0 0 1 1.5 1.5M8.504 2.5h7m-7 17h7m5-11v7m-17-7v7"/></svg>
