<svg xmlns="http://www.w3.org/2000/svg" viewBox="0 0 24 24"><path fill="none" stroke="currentColor" stroke-linecap="round" stroke-linejoin="round" d="M12.504 12v6m3.5-11-3.5 5-3.5-5m1 5.5h5m-5 2h5"/><path fill="none" stroke="currentColor" stroke-linecap="round" stroke-linejoin="round" d="M23.5 12a4 4 0 0 0-2.53-3.714 3.988 3.988 0 0 0-5.252-5.252 3.989 3.989 0 0 0-7.428 0 3.988 3.988 0 0 0-5.252 5.252 3.989 3.989 0 0 0 0 7.428 3.988 3.988 0 0 0 5.252 5.252 3.989 3.989 0 0 0 7.428 0 3.988 3.988 0 0 0 5.252-5.252A4 4 0 0 0 23.5 12"/></svg>
