<svg xmlns="http://www.w3.org/2000/svg" viewBox="0 0 24 24"><path fill="none" stroke="currentColor" stroke-linecap="round" stroke-linejoin="round" d="M1.787 4.949a2.233 2.233 0 1 0 4.466 0 2.233 2.233 0 1 0-4.466 0m5.754 5.195a3.826 3.826 0 0 0-5.753-1.605m15.959-3.59a2.233 2.233 0 1 0 4.466 0 2.233 2.233 0 1 0-4.466 0m-1.288 5.195a3.826 3.826 0 0 1 5.753-1.605M8.589 3.911a3.411 3.411 0 1 0 6.822 0 3.411 3.411 0 1 0-6.822 0"/><path fill="none" stroke="currentColor" stroke-linecap="round" stroke-linejoin="round" d="M17.9 11.448a7.98 7.98 0 0 0-11.8 0m9.943 2.452a4.043 4.043 0 1 1-8.086 0"/><path fill="none" stroke="currentColor" stroke-linecap="round" stroke-linejoin="round" d="M21.6 13.893v1.521l-1.734.346h0a8 8 0 0 1-.995 2.383h0l.991 1.475-2.143 2.143-1.476-.99h0a8 8 0 0 1-2.385 1h0l-.342 1.729h-3.032l-.344-1.728h0a8 8 0 0 1-2.386-1h0l-1.475.99-2.143-2.144.99-1.475h0a8 8 0 0 1-1-2.383h0L2.4 15.414v-1.521M9.464 1.635a8.65 8.65 0 0 0 5.947 2.276m-13.361 0a7.76 7.76 0 0 0 4.2 1.138m11.759-1.138a7.76 7.76 0 0 0 4.2 1.138"/></svg>
