<svg xmlns="http://www.w3.org/2000/svg" viewBox="0 0 24 24"><path fill="none" stroke="currentColor" stroke-linecap="round" stroke-linejoin="round" d="m22.878 15.123-7.631 7.63-3.75.75.75-3.75 7.631-7.63a2.113 2.113 0 0 1 2.991 0l.009.008a2.116 2.116 0 0 1 0 2.992M8.5 23.5h-7a1 1 0 0 1-1-1v-21a1 1 0 0 1 1-1h13.29a1 1 0 0 1 .71.3l3.7 3.7a1 1 0 0 1 .293.707V8.5M3.497 15.503h9"/><path fill="none" stroke="currentColor" stroke-linecap="round" stroke-linejoin="round" d="M5 10.5h1a.5.5 0 0 1 .5.5v4.5h0-2 0V11a.5.5 0 0 1 .5-.5m5.5 5V8a.5.5 0 0 0-.5-.5H9a.5.5 0 0 0-.5.5v7.5m6-3V10a.5.5 0 0 0-.5-.5h-1a.5.5 0 0 0-.5.5v5.5"/></svg>
