<svg xmlns="http://www.w3.org/2000/svg" viewBox="0 0 24 24"><path fill="none" stroke="currentColor" stroke-linecap="round" stroke-linejoin="round" d="M21.211 4.5a1 1 0 0 1 .293.707V22.5a1 1 0 0 1-1 1H3.5a1 1 0 0 1-1-1v-21a1 1 0 0 1 1-1h13.3a1 1 0 0 1 .7.293Z"/><path fill="none" stroke="currentColor" stroke-linecap="round" stroke-linejoin="round" d="m6.5 15.5 3.42-3.42a1 1 0 0 1 1.262-.125L12.8 13.03a1 1 0 0 0 1.284-.148l3.17-3.382"/><path fill="none" stroke="currentColor" stroke-linecap="round" stroke-linejoin="round" d="M6.504 7.5v11h11"/></svg>
