<svg xmlns="http://www.w3.org/2000/svg" viewBox="0 0 24 24"><path fill="none" stroke="currentColor" stroke-linecap="round" stroke-linejoin="round" d="M.522 4.501a9.5 4 0 1 0 19 0 9.5 4 0 1 0-19 0m9.5 7.999c-5.246 0-9.5-1.79-9.5-4m8 8.45c-4.533-.3-8-1.955-8-3.949"/><path fill="none" stroke="currentColor" stroke-linecap="round" stroke-linejoin="round" d="M9.022 21.48c-4.776-.211-8.5-1.912-8.5-3.979V4.5m19 .001v4.5m-8.002 9.25a2.25 2.25 0 1 0 4.5 0 2.25 2.25 0 1 0-4.5 0m7.5 3a2.25 2.25 0 1 0 4.5 0 2.25 2.25 0 1 0-4.5 0m0-7.5a2.25 2.25 0 1 0 4.5 0 2.25 2.25 0 1 0-4.5 0m-3.325 3.345 3.65-2.19m-3.487 4.18 3.324 1.33"/></svg>
