<svg xmlns="http://www.w3.org/2000/svg" viewBox="0 0 24 24"><path fill="none" stroke="currentColor" stroke-linecap="round" stroke-linejoin="round" d="M10.5 23.5h-9a1 1 0 0 1-1-1v-21a1 1 0 0 1 1-1h13.29a1 1 0 0 1 .71.293L19.2 4.5a1 1 0 0 1 .293.707V9.5m-15.996 6h6"/><path fill="none" stroke="currentColor" stroke-linecap="round" stroke-linejoin="round" d="M5 10.5h1a.5.5 0 0 1 .5.5v4.5h0-2 0V11a.5.5 0 0 1 .5-.5m5.5 2V8a.5.5 0 0 0-.5-.5H9a.5.5 0 0 0-.5.5v7.5m2.997 2a6 6 0 1 0 12 0 6 6 0 1 0-12 0m6-3v6m3-3h-6"/></svg>
