<svg xmlns="http://www.w3.org/2000/svg" viewBox="0 0 24 24"><path fill="none" stroke="currentColor" stroke-linecap="round" stroke-linejoin="round" d="M10.521 23.511h-9a1 1 0 0 1-1-1v-21a1 1 0 0 1 1-1h13.293a1 1 0 0 1 .707.289l3.707 3.707a1 1 0 0 1 .293.707v3.297"/><path fill="none" stroke="currentColor" stroke-linecap="round" stroke-linejoin="round" d="m4.521 13.92 2.954-2.954a.865.865 0 0 1 1.09-.108l1.393.929a.864.864 0 0 0 1.109-.128l2.738-2.921"/><path fill="none" stroke="currentColor" stroke-linecap="round" stroke-linejoin="round" d="M4.521 6.511v10h5m3.001.529a4.529 4.529 0 1 0 9.058 0 4.529 4.529 0 1 0-9.058 0m10.999 6.471-3.247-3.248"/></svg>
