<svg xmlns="http://www.w3.org/2000/svg" fill="none" viewBox="0 0 24 24"><path stroke="currentColor" stroke-linecap="round" stroke-linejoin="round" d="M12.503 6.501c4.694 0 8.5-1.343 8.5-3s-3.806-3-8.5-3-8.5 1.343-8.5 3 3.806 3 8.5 3M21 7.5c0 1.657-3.806 3-8.5 3S4 9.158 4 7.5m17 4c0 1.657-3.806 3-8.5 3S4 13.158 4 11.5"/><path stroke="currentColor" stroke-linecap="round" stroke-linejoin="round" d="M21 3.5v12c0 1.657-3.806 3-8.5 3S4 17.158 4 15.5v-12m2 20.001h12m-5.997-5v5"/><path stroke="currentColor" d="M20.25 23.501a.25.25 0 0 1 0-.5m0 .5a.25.25 0 0 0 0-.5m2.5.5a.25.25 0 0 1 0-.5m0 .5a.25.25 0 0 0 0-.5m-21.5.5a.25.25 0 0 1 0-.5m0 .5a.25.25 0 0 0 0-.5m2.5.5a.25.25 0 0 1 0-.5m0 .5a.25.25 0 0 0 0-.5"/></svg>
