<svg xmlns="http://www.w3.org/2000/svg" viewBox="0 0 24 24"><path fill="none" stroke="currentColor" stroke-linecap="round" stroke-linejoin="round" d="M.709 6.5a5 5 0 1 0 10 0 5 5 0 1 0-10 0"/><path fill="none" stroke="currentColor" stroke-linecap="round" stroke-linejoin="round" d="M7.709 7.5h-2V4m11 9.5h3.8a1 1 0 0 1 .942.664l1.785 5a1 1 0 0 1-.946 1.336h-1.167"/><path fill="none" stroke="currentColor" stroke-linecap="round" stroke-linejoin="round" d="M11.123 20.5h5.6l-.009-9a1 1 0 0 0-1-1h-4m-6.005 3v6a1 1 0 0 0 1 1H8.3m9.909.5a1.5 1.5 0 1 0 3 0 1.5 1.5 0 1 0-3 0"/><path fill="none" stroke="currentColor" stroke-linecap="round" stroke-linejoin="round" d="M8.209 21a1.5 1.5 0 1 0 3 0 1.5 1.5 0 1 0-3 0m-7.5-5.5 3 .005m-1.5 1.995 1.5.005m-.5 1.995.5.005m18.5-3.005h-5.5m.011 4h1.582"/></svg>
