<svg xmlns="http://www.w3.org/2000/svg" viewBox="0 0 24 24"><path fill="none" stroke="currentColor" stroke-linecap="round" stroke-linejoin="round" d="M6.5 22v-7s0-1 1-1h9s1 0 1 1v7s0 1-1 1h-9s-1 0-1-1M5 1v4a2 2 0 0 0 1.44 1.92l2.188.638M19 1v4a2 2 0 0 1-1.44 1.92l-2.188.638m-6.348 2.786-3.13.7a2 2 0 0 0-1.489 2.5L4.821 15m10.155-4.656 3.13.7a2 2 0 0 1 1.489 2.5L19.179 15M11 8.5a1 1 0 1 0 2 0 1 1 0 1 0-2 0"/><path fill="none" stroke="currentColor" stroke-linecap="round" stroke-linejoin="round" d="M8.5 8.5a3.5 3.5 0 1 0 7 0 3.5 3.5 0 1 0-7 0m5 5.5v4.5L12 17l-1.5 1.5V14M.5 1 5 2m0 0 4.5-1m5 0L19 2m0 0 4.5-1"/></svg>
