<svg xmlns="http://www.w3.org/2000/svg" viewBox="0 0 24 24"><path fill="none" stroke="currentColor" stroke-linecap="round" stroke-linejoin="round" d="M17 8.78c0-1.875-1.213-3.353-2.708-3.353A2.7 2.7 0 0 0 12 6.7a2.7 2.7 0 0 0-2.291-1.273C8.213 5.427 7 6.905 7 8.78a5.58 5.58 0 0 0 1.482 4.152 8.6 8.6 0 0 0-.648 3.348 9 9 0 0 0 .186 1.856.55.55 0 0 0 .536.435.567.567 0 0 0 .567-.507c.227-2.077 1.429-3.659 2.877-3.659S14.657 16 14.879 18.08a.55.55 0 0 0 .547.491.57.57 0 0 0 .558-.455 9 9 0 0 0 .183-1.836 8.6 8.6 0 0 0-.649-3.348A5.58 5.58 0 0 0 17 8.78"/><path fill="none" stroke="currentColor" stroke-linecap="round" stroke-linejoin="round" d="M1.5 3.775v7.637A12.31 12.31 0 0 0 9.719 22.88l1.121.414a3.37 3.37 0 0 0 2.32 0l1.121-.414A12.31 12.31 0 0 0 22.5 11.412V3.775a1.53 1.53 0 0 0-.934-1.406A24.2 24.2 0 0 0 12 .5a24.2 24.2 0 0 0-9.566 1.869A1.53 1.53 0 0 0 1.5 3.775"/></svg>
