<svg xmlns="http://www.w3.org/2000/svg" viewBox="0 0 24 24"><path fill="none" stroke="currentColor" stroke-linecap="round" stroke-linejoin="round" d="M16.48 13.91a14.65 14.65 0 0 1 1.1 5.69 16 16 0 0 1-.31 3.16.93.93 0 0 1-.91.74 1 1 0 0 1-1-.86C15 19.11 13 16.42 10.5 16.42S6 19.11 5.61 22.64a1 1 0 0 1-1 .86.93.93 0 0 1-.91-.74 16 16 0 0 1-.31-3.16 14.65 14.65 0 0 1 1.1-5.69C3.1 12.5 2 10.3 2 6.85c0-3.18 2.06-5.69 4.6-5.69a4.61 4.61 0 0 1 3.9 2.15 4.7 4.7 0 0 1 .87-1 .5.5 0 0 1 .59 0 .48.48 0 0 1 .22.55 5.51 5.51 0 0 0 5.81 7 .49.49 0 0 1 .43.18.48.48 0 0 1 .09.45 8 8 0 0 1-2.03 3.42M16 2V.5m3.18 2.82 1.06-1.06m.26 4.24H22"/></svg>
