<svg xmlns="http://www.w3.org/2000/svg" viewBox="0 0 24 24"><path fill="none" stroke="currentColor" stroke-linecap="round" stroke-linejoin="round" d="M22 17.615v4.157a1 1 0 0 1-.839.986 57 57 0 0 1-18.322 0A1 1 0 0 1 2 21.772v-4.157"/><path fill="none" stroke="currentColor" stroke-linecap="round" stroke-linejoin="round" d="M19.5 20.115a2.5 2.5 0 0 0 2.5-2.5V14.5a1 1 0 0 0-1-1h-3a1 1 0 0 0-1 1v3.115a2.5 2.5 0 0 0 2.5 2.5m-5 0a2.5 2.5 0 0 0 2.5-2.5V14.5a1 1 0 0 0-1-1h-3a1 1 0 0 0-1 1v3.115a2.5 2.5 0 0 0 2.5 2.5m-5 0a2.5 2.5 0 0 0 2.5-2.5V14.5a1 1 0 0 0-1-1H8a1 1 0 0 0-1 1v3.115a2.5 2.5 0 0 0 2.5 2.5m-5 0a2.5 2.5 0 0 0 2.5-2.5V14.5a1 1 0 0 0-1-1H3a1 1 0 0 0-1 1v3.115a2.5 2.5 0 0 0 2.5 2.5M2 6.385V2.228a1 1 0 0 1 .839-.986 57 57 0 0 1 18.322 0 1 1 0 0 1 .839.986v4.157"/><path fill="none" stroke="currentColor" stroke-linecap="round" stroke-linejoin="round" d="M4.5 3.885a2.5 2.5 0 0 0-2.5 2.5V9.5a1 1 0 0 0 1 1h3a1 1 0 0 0 1-1V6.385a2.5 2.5 0 0 0-2.5-2.5m5 0a2.5 2.5 0 0 0-2.5 2.5V9.5a1 1 0 0 0 1 1h3a1 1 0 0 0 1-1V6.385a2.5 2.5 0 0 0-2.5-2.5m5 0a2.5 2.5 0 0 0-2.5 2.5V9.5a1 1 0 0 0 1 1h3a1 1 0 0 0 1-1V6.385a2.5 2.5 0 0 0-2.5-2.5m5 0a2.5 2.5 0 0 0-2.5 2.5V9.5a1 1 0 0 0 1 1h3a1 1 0 0 0 1-1V6.385a2.5 2.5 0 0 0-2.5-2.5"/></svg>
