<svg xmlns="http://www.w3.org/2000/svg" fill="none" viewBox="0 0 24 24"><path stroke="currentColor" stroke-linecap="round" stroke-linejoin="round" d="M21.207 4.5a1 1 0 0 1 .293.707V22.5a1 1 0 0 1-1 1h-17a1 1 0 0 1-1-1v-21a1 1 0 0 1 1-1h13.293a1 1 0 0 1 .707.293zM6 5.5h8.5M6 8.5h11.5M6 11.5h2m-2 3h2m-2 3h2"/><path stroke="currentColor" stroke-linecap="round" stroke-linejoin="round" d="M17.5 12.5h-6a1 1 0 0 0-1 1v6a1 1 0 0 0 1 1h6a1 1 0 0 0 1-1v-6a1 1 0 0 0-1-1"/><path stroke="currentColor" stroke-linecap="round" stroke-linejoin="round" d="m18.5 19-1.594-2.391a.5.5 0 0 0-.826-.01l-1.33 1.9-.824-.658a.5.5 0 0 0-.729.113L11.5 20.5"/><path stroke="currentColor" d="M13.25 15a.25.25 0 1 1 0-.5m0 .5a.25.25 0 1 0 0-.5"/></svg>
