<svg xmlns="http://www.w3.org/2000/svg" viewBox="0 0 24 24"><g fill="none" stroke="currentColor" stroke-linecap="round" stroke-linejoin="round"><path d="M1.5 11.5v-6a2 2 0 0 1 4 0v6m0 4.62v2.38a5 5 0 0 1-.45 1.9l-1.33 2.65c-.12.25-.32.25-.44 0L2 20.4a5.1 5.1 0 0 1-.45-1.93v-2.35M5.5 6.47h-4M5.36 19.5H1.64m13.45-13 7.28 12.59a1 1 0 0 1-.32 1.37l-.6.36a1 1 0 0 1-1.37-.33l-8-14m9.71 14.13 1.71 2.88"/><path d="M9.09 3.5a3 3 0 0 1 6 0v3h-6Z"/><path d="m9.09 6.5-1.87 6.06a1.54 1.54 0 0 1-1.35.94H1a.5.5 0 0 0-.5.5v1.62a.5.5 0 0 0 .5.5h6.84a1.55 1.55 0 0 0 1.35-.93l2.9-8.69"/></g></svg>
