<svg xmlns="http://www.w3.org/2000/svg" viewBox="0 0 24 24"><path fill="none" stroke="currentColor" stroke-linecap="round" stroke-linejoin="round" d="M12 17.5v6m0-23v3m-5 13H4a1 1 0 0 1-1-1v-10a1 1 0 0 1 1-1h5.5m5 0H20a1 1 0 0 1 1 1v10a1 1 0 0 1-1 1h-3m-8.786 1-1.714 6m9.286-6 1.714 6"/><path fill="none" stroke="currentColor" stroke-linecap="round" stroke-linejoin="round" d="M14.5 4.5a1 1 0 0 0-1-1h-3a1 1 0 0 0 0 2h3a1 1 0 0 0 1-1m2.5 12a1 1 0 0 0-1-1H8a1 1 0 0 0-1 1v.5a.5.5 0 0 0 .5.5h9a.5.5 0 0 0 .5-.5z"/></svg>
