<svg xmlns="http://www.w3.org/2000/svg" viewBox="0 0 24 24"><path fill="none" stroke="currentColor" stroke-linecap="round" stroke-linejoin="round" d="M9 22.5a6.98 6.98 0 0 0 1.5-4m4.5 4a6.98 6.98 0 0 1-1.5-4m-6.001 4h9M.5 15.5h23"/><path fill="none" stroke="currentColor" stroke-linecap="round" stroke-linejoin="round" d="M1.5 1.5h21s1 0 1 1v15s0 1-1 1h-21s-1 0-1-1v-15s0-1 1-1m7.999 5v2m5-2v2"/><path fill="none" stroke="currentColor" stroke-linecap="round" stroke-linejoin="round" d="M16 11a6.08 6.08 0 0 1-8 0"/></svg>
