<svg xmlns="http://www.w3.org/2000/svg" viewBox="0 0 24 24"><path fill="none" stroke="currentColor" stroke-linecap="round" stroke-linejoin="round" d="M23.52 2h-2.04m-1.96 0h-2.04m-1.96 0h-2.04m-1.96 0H9.48m-1.955.113a8.4 8.4 0 0 0-1.947.587m-1.687 1a8.6 8.6 0 0 0-1.467 1.41M1.367 6.752A8.5 8.5 0 0 0 .7 8.674m-.2 1.948a8.6 8.6 0 0 0 .27 2.017m.711 1.828A8.6 8.6 0 0 0 2.64 16.14m1.46 1.305a8.5 8.5 0 0 0 1.79.967m1.892.501A19 19 0 0 0 9.819 19m1.96 0h2.04m1.96 0h2.04m1.96 0h2.04M20.5 22l3-3-3-3"/></svg>
