<svg xmlns="http://www.w3.org/2000/svg" viewBox="0 0 24 24"><path fill="none" stroke="currentColor" stroke-linecap="round" stroke-linejoin="round" d="M2.5 3.5a2 2 0 1 0 4 0 2 2 0 1 0-4 0m7.469 0a2 2 0 1 0 4 0 2 2 0 1 0-4 0m7.531 0a2 2 0 1 0 4 0 2 2 0 1 0-4 0m-15 6a2 2 0 1 0 4 0 2 2 0 1 0-4 0m7.469 0a2 2 0 1 0 4 0 2 2 0 1 0-4 0m7.531 0a2 2 0 1 0 4 0 2 2 0 1 0-4 0m-15 6a2 2 0 1 0 4 0 2 2 0 1 0-4 0m7.469 0a2 2 0 1 0 4 0 2 2 0 1 0-4 0m0 6a2 2 0 1 0 4 0 2 2 0 1 0-4 0m7.531-6a2 2 0 1 0 4 0 2 2 0 1 0-4 0"/></svg>
