<svg xmlns="http://www.w3.org/2000/svg" viewBox="0 0 24 24"><path fill="none" stroke="currentColor" stroke-linecap="round" stroke-linejoin="round" d="M3 1.752A1.25 1.25 0 0 1 1.75 3h0A1.25 1.25 0 0 1 .5 1.752h0A1.25 1.25 0 0 1 1.75.5h0A1.25 1.25 0 0 1 3 1.752m5.5 0A1.25 1.25 0 0 1 7.25 3h0A1.25 1.25 0 0 1 6 1.752h0A1.25 1.25 0 0 1 7.25.5h0A1.25 1.25 0 0 1 8.5 1.752m5.5 0A1.25 1.25 0 0 1 12.75 3h0a1.25 1.25 0 0 1-1.25-1.25h0A1.25 1.25 0 0 1 12.75.5h0A1.25 1.25 0 0 1 14 1.752m-11 5A1.25 1.25 0 0 1 1.75 8h0A1.25 1.25 0 0 1 .5 6.752h0A1.25 1.25 0 0 1 1.75 5.5h0A1.25 1.25 0 0 1 3 6.752m5.5 0A1.25 1.25 0 0 1 7.25 8h0A1.25 1.25 0 0 1 6 6.752h0A1.25 1.25 0 0 1 7.25 5.5h0A1.25 1.25 0 0 1 8.5 6.752m5.5 0A1.25 1.25 0 0 1 12.75 8h0a1.25 1.25 0 0 1-1.25-1.25h0a1.25 1.25 0 0 1 1.25-1.25h0A1.25 1.25 0 0 1 14 6.752m-11 5A1.25 1.25 0 0 1 1.75 13h0A1.25 1.25 0 0 1 .5 11.752h0A1.25 1.25 0 0 1 1.75 10.5h0A1.25 1.25 0 0 1 3 11.752m5.5 0A1.25 1.25 0 0 1 7.25 13h0A1.25 1.25 0 0 1 6 11.752h0A1.25 1.25 0 0 1 7.25 10.5h0a1.25 1.25 0 0 1 1.25 1.25Zm15 11.748v-2a4 4 0 0 0-4-4h-3V11a1.5 1.5 0 0 0-3 0v9.828l-2.346-2.823a1.5 1.5 0 1 0-2.307 1.918l2.975 3.577"/></svg>
