<svg xmlns="http://www.w3.org/2000/svg" viewBox="0 0 24 24"><path fill="none" stroke="currentColor" stroke-linecap="round" stroke-linejoin="round" d="M12.004.5v23m7.5-15.5 2-2m-2 10 2 2m-1.5-6h3.5m-19-4-2-2m2 10-2 2m1.5-6h-3.5M7 18.05a.5.5 0 0 0 .13.336l4.5 4.95a.5.5 0 0 0 .74 0l4.5-4.95a.5.5 0 0 0 .13-.336V4.6a.5.5 0 0 0-.188-.39l-4.5-3.6a.5.5 0 0 0-.624 0l-4.5 3.6A.5.5 0 0 0 7 4.6Z"/><path fill="none" stroke="currentColor" stroke-linecap="round" stroke-linejoin="round" d="M16.951 4.376 12.004 5.86 7.057 4.376m-.008 13.881 4.955 1.486 4.955-1.486"/></svg>
