<svg xmlns="http://www.w3.org/2000/svg" fill="none" viewBox="0 0 24 24"><path stroke="currentColor" stroke-linecap="round" stroke-linejoin="round" d="M12.034 8.205a2 2 0 0 1-1.637 2.307l-6.104 1.036a2 2 0 0 1-2.307-1.636L.99 4.043a2 2 0 0 1 1.636-2.307L8.731.7a2 2 0 0 1 2.307 1.636zm7.5 13.675a2 2 0 0 1-2.714.797l-5.434-2.968a2 2 0 0 1-.797-2.714l2.853-5.224a2 2 0 0 1 2.714-.797l5.434 2.968a2 2 0 0 1 .797 2.714z"/><path stroke="currentColor" stroke-linecap="round" stroke-linejoin="round" d="M6.512 6.579a.455.455 0 0 1 0-.91m0 .91a.455.455 0 0 0 0-.91m9.251 9.495a.455.455 0 0 1 0-.91m0 .91a.455.455 0 0 0 0-.91m1.407 4.944a.455.455 0 0 1 0-.91"/><path stroke="currentColor" stroke-linecap="round" stroke-linejoin="round" d="M17.169 19.198a.455.455 0 0 0 0-.91"/></svg>
