<svg xmlns="http://www.w3.org/2000/svg" viewBox="0 0 24 24"><path fill="none" stroke="currentColor" stroke-linecap="round" stroke-linejoin="round" d="M14.5 1.5a1 1 0 0 0-1-1h-3a1 1 0 0 0-1 1v5.584a1 1 0 0 0 .293.707l1.5 1.5a1 1 0 0 0 1.414 0l1.5-1.5a1 1 0 0 0 .293-.707zm8 13a1 1 0 0 0 1-1v-3a1 1 0 0 0-1-1h-5.586a1 1 0 0 0-.707.293l-1.5 1.5a1 1 0 0 0 0 1.414l1.5 1.5a1 1 0 0 0 .707.293Zm-13 8a1 1 0 0 0 1 1h3a1 1 0 0 0 1-1v-5.588a1 1 0 0 0-.293-.707l-1.5-1.5a1 1 0 0 0-1.414 0l-1.5 1.5a1 1 0 0 0-.293.707zm-8-13a1 1 0 0 0-1 1v3a1 1 0 0 0 1 1h6.072a1 1 0 0 0 .79-.387l1.1-1.416a1 1 0 0 0-.083-1.32L7.792 9.791a1 1 0 0 0-.707-.291Z"/></svg>
