<svg xmlns="http://www.w3.org/2000/svg" viewBox="0 0 24 24"><path fill="none" stroke="currentColor" stroke-linecap="round" stroke-linejoin="round" d="M10 11.998a2 2 0 1 0 4 0 2 2 0 1 0-4 0m8.5 3.502a.5.5 0 0 0 .835.372l4-3.5a.5.5 0 0 0 0-.744l-4-3.5a.5.5 0 0 0-.835.372Zm-13-7a.5.5 0 0 0-.835-.372l-4 3.5a.5.5 0 0 0 0 .744l4 3.5A.5.5 0 0 0 5.5 15.5Zm10-3a.5.5 0 0 0 .372-.835l-3.5-4a.5.5 0 0 0-.744 0l-3.5 4A.5.5 0 0 0 8.5 5.5Zm-7 13a.5.5 0 0 0-.372.835l3.5 4a.5.5 0 0 0 .744 0l3.5-4a.5.5 0 0 0-.372-.835Z"/></svg>
