<svg xmlns="http://www.w3.org/2000/svg" viewBox="0 0 24 24"><path fill="none" stroke="currentColor" stroke-linecap="round" stroke-linejoin="round" d="M19.4 1.415h-1.892a1.15 1.15 0 0 0-1.15 1.15v9.457a1.15 1.15 0 0 0 2.3 0v-1.989h.742a4.309 4.309 0 1 0 0-8.618m0 5.878h-.745V3.808h.745a1.89 1.89 0 0 1 2.01 1.742 1.893 1.893 0 0 1-2.01 1.743M4.037 3.375a2.625 2.625 0 1 0 5.25 0 2.625 2.625 0 1 0-5.25 0M10.9 21.091a6 6 0 1 1-9.219-7.682"/><path fill="none" stroke="currentColor" stroke-linecap="round" stroke-linejoin="round" d="m17.94 19.289-2.851-3.419a4.49 4.49 0 0 0-3.457-1.62H7.787v-2.8l2.891.619a1.386 1.386 0 1 0 .58-2.71A22.4 22.4 0 0 0 6.45 8.25h-.163a1.5 1.5 0 0 0-1.5 1.5v6a1.5 1.5 0 0 0 1.5 1.5h5.345a1.49 1.49 0 0 1 1.152.541l2.85 3.42a1.5 1.5 0 1 0 2.306-1.922"/></svg>
