<svg xmlns="http://www.w3.org/2000/svg" fill="none" viewBox="0 0 24 24"><path stroke="currentColor" stroke-linecap="round" stroke-linejoin="round" d="M13.578 16.775a.97.97 0 0 0-.31-.715L7.3 10.554 1.33 16.06a.97.97 0 0 0-.309.715v5.37a.966.966 0 0 0 .966.966h10.626a.966.966 0 0 0 .966-.966zm3.419-9.049a3.419 3.419 0 1 0 0-6.837 3.419 3.419 0 0 0 0 6.837"/><path stroke="currentColor" stroke-linecap="round" stroke-linejoin="round" d="M16.423 23.111h3.138l.855-6.838h2.564V13.71a5.983 5.983 0 0 0-11.037-3.202m-3.569 4.493h-2.15v1.826H4.398v2.15h1.826v1.826h2.15v-1.826H10.2v-2.15H8.374z"/></svg>
