<svg xmlns="http://www.w3.org/2000/svg" viewBox="0 0 24 24"><path fill="none" stroke="currentColor" stroke-linecap="round" stroke-linejoin="round" d="M22.5 21.5a2 2 0 0 1-2 2h-17a2 2 0 0 1-2-2v-4h21Zm-5-21L15 3c-.38.469-1.556.5-1.556.5H7.556S6.38 3.469 6 3L3.5.5"/><path fill="none" stroke="currentColor" stroke-linecap="round" stroke-linejoin="round" d="M3.5 17.5V.5h14V6m-7-2.469V9"/><path fill="none" stroke="currentColor" stroke-linecap="round" stroke-linejoin="round" d="m11.044 17.5-1.888-4.533a1.064 1.064 0 0 1 .573-1.393l9.836-4.1a1.067 1.067 0 0 1 1.394.574l2.459 5.9a1.066 1.066 0 0 1-.574 1.393L17.669 17.5"/><path fill="none" stroke="currentColor" stroke-linecap="round" stroke-linejoin="round" d="m9.36 13.459 5.865.213a2.13 2.13 0 0 0 1.961-.817l3.978-4.314M23.5 17.5H.5"/></svg>
