<svg xmlns="http://www.w3.org/2000/svg" viewBox="0 0 24 24"><path fill="none" stroke="currentColor" stroke-linecap="round" stroke-linejoin="round" d="M.5 12a11.5 11.5 0 1 0 23 0 11.5 11.5 0 1 0-23 0"/><path fill="none" stroke="currentColor" stroke-linecap="round" stroke-linejoin="round" d="M6.518 1.887A23.97 23.97 0 0 1 16 21q0 .915-.067 1.81"/><path fill="none" stroke="currentColor" stroke-linecap="round" stroke-linejoin="round" d="M20.585 4.349A23.92 23.92 0 0 1 4 11a24.4 24.4 0 0 1-3.432-.243m2.491 8.474a23.9 23.9 0 0 1 16.633-6.7 28 28 0 0 1 3.78.276"/></svg>
