<svg xmlns="http://www.w3.org/2000/svg" viewBox="0 0 24 24"><path fill="none" stroke="currentColor" stroke-linecap="round" stroke-linejoin="round" d="M12 23.5v-3.96m1.87.78A9.6 9.6 0 0 0 16.55 22a.5.5 0 0 0 .67-.67 8.7 8.7 0 0 0-1.68-2.43c-.15-.14-.29-.28-.44-.4a.45.45 0 0 1-.1-.5 10.8 10.8 0 0 0 2.51.32 11.5 11.5 0 0 0 4.6-1.05.5.5 0 0 0 0-.91 11.5 11.5 0 0 0-4.6-1 10.5 10.5 0 0 0-1.51.04.59.59 0 0 1-.64-.35A17 17 0 0 0 18 12.9a18.1 18.1 0 0 0 3.89-6 17.8 17.8 0 0 0-6 3.89A16.6 16.6 0 0 0 14 13.05a.91.91 0 0 1-.74.39A19.3 19.3 0 0 0 14 8.29 20.4 20.4 0 0 0 12.46.81a.5.5 0 0 0-.92 0A20.4 20.4 0 0 0 10 8.29a19.3 19.3 0 0 0 .74 5.15.91.91 0 0 1-.74-.39 16.6 16.6 0 0 0-1.89-2.27 17.8 17.8 0 0 0-6-3.89A18.1 18.1 0 0 0 6 12.9a17 17 0 0 0 2.66 2.15.59.59 0 0 1-.66.35 10.5 10.5 0 0 0-1.51-.11 11.5 11.5 0 0 0-4.6 1 .5.5 0 0 0 0 .91 11.5 11.5 0 0 0 4.6 1.05A10.8 10.8 0 0 0 9 18a.45.45 0 0 1-.11.54c-.15.12-.29.26-.44.4a8.7 8.7 0 0 0-1.68 2.43.5.5 0 0 0 .67.67 9.6 9.6 0 0 0 2.68-1.69"/></svg>
