<svg xmlns="http://www.w3.org/2000/svg" fill="none" viewBox="0 0 24 24"><path stroke="currentColor" stroke-linecap="round" stroke-linejoin="round" d="M19.25 16.95h3c.6 0 1-.4 1-1V1.75c0-.6-.4-1-1-1h-3c-.6 0-1 .4-1 1v14.2c0 .6.4 1 1 1m-8.75 0h3c.6 0 1-.4 1-1v-9.2c0-.6-.4-1-1-1h-3c-.6 0-1 .4-1 1v9.2c0 .6.4 1 1 1m0 6.3h3c.6 0 1-.4 1-1v-1c0-.6-.4-1-1-1h-3c-.6 0-1 .4-1 1v1c0 .6.4 1 1 1m-8.75-6.3h3c.6 0 1-.4 1-1v-4.2c0-.6-.4-1-1-1h-3c-.6 0-1 .4-1 1v4.2c0 .6.4 1 1 1m0 6.3h3c.6 0 1-.4 1-1v-1c0-.6-.4-1-1-1h-3c-.6 0-1 .4-1 1v1c0 .6.4 1 1 1m16.5 0h5"/></svg>
