<svg xmlns="http://www.w3.org/2000/svg" viewBox="0 0 24 24"><path fill="none" stroke="currentColor" stroke-linecap="round" stroke-linejoin="round" d="M14.862 22.453H9.138l.24-.386a7.23 7.23 0 0 0 1.191-3.614h2.862a7.23 7.23 0 0 0 1.191 3.614Zm-7.362 0h9m-16-7h23m-22-14h21s1 0 1 1v15s0 1-1 1h-21s-1 0-1-1v-15s0-1 1-1"/><path fill="none" stroke="currentColor" stroke-linecap="round" stroke-linejoin="round" d="m17.5 8.453-.811-3.242a1 1 0 0 0-.97-.758H13.5a1.5 1.5 0 0 1-3 0H8.281a1 1 0 0 0-.97.758L6.5 8.453h2v4h7v-4Z"/></svg>
