<svg xmlns="http://www.w3.org/2000/svg" viewBox="0 0 24 24"><g fill="none" stroke="currentColor" stroke-linecap="round" stroke-linejoin="round"><path d="M.5 4V1.5a1 1 0 0 1 1-1H4M.5 20v2.5a1 1 0 0 0 1 1H4m16-23h2.5a1 1 0 0 1 1 1V4m0 16v2.5a1 1 0 0 1-1 1H20m-8 0V22M.5 12H2m21.5 0H22M12 .5V2m2 10h-3.16a.85.85 0 0 0-.84.84.84.84 0 0 0 .64.82l2.72.68a.84.84 0 0 1 .64.82.85.85 0 0 1-.84.84H10m2-4v-1m0 6v-1m-3-6V7a3 3 0 0 1 6 0v3"/><path d="m19 17-.9-8A1.1 1.1 0 0 0 17 8H7a1.1 1.1 0 0 0-1.1 1l-.85 8v1a2 2 0 0 0 2 2H17a2 2 0 0 0 2-2z"/></g></svg>
