<svg xmlns="http://www.w3.org/2000/svg" fill="none" viewBox="0 0 24 24"><path stroke="currentColor" stroke-linecap="round" stroke-linejoin="round" d="M13.998 3.523A7.42 7.42 0 0 0 7.371.53a7.696 7.696 0 0 0-2.995 14.293 4.7 4.7 0 0 1 2.346 3.992 4.92 4.92 0 0 0 6.248 4.502 4.99 4.99 0 0 0 3.484-4.322l-.639-4.87"/><path stroke="currentColor" stroke-linecap="round" stroke-linejoin="round" d="M10.345 4.531a4.05 4.05 0 0 0-1.836-.439 3.99 3.99 0 0 0-3.843 2.925m3.064.459a4.48 4.48 0 0 0-1.717 3.533 4.32 4.32 0 0 0 3.204 4.242 1.83 1.83 0 0 1 1.338 1.747 2 2 0 0 0 1.517 1.477 1.997 1.997 0 0 0 2.425-1.936"/><path stroke="currentColor" stroke-linecap="round" stroke-linejoin="round" d="M10.515 6.937a4.67 4.67 0 0 0-1.358 2.665 1 1 0 0 0 .28.848l2.505 2.555a1 1 0 0 0 .839.28 4.72 4.72 0 0 0 2.675-1.358c.295-.298.55-.634.758-.998l4.711 4.711a1.497 1.497 0 0 0 2.116-2.116l-7.046-7.116c-1.378-1.388-3.823-1.128-5.48.529"/><path stroke="currentColor" d="M12.27 10.34a.25.25 0 0 1 0-.5m0 .5a.25.25 0 0 0 0-.5"/></svg>
