<svg xmlns="http://www.w3.org/2000/svg" viewBox="0 0 24 24"><g fill="none" stroke="currentColor" stroke-linecap="round" stroke-linejoin="round"><path d="M11.5 17.5a6 6 0 1 0 12 0 6 6 0 1 0-12 0m6 2V21m0-7v1.5"/><path d="M15.5 19.5h3a1 1 0 0 0 0-2h-2a1 1 0 0 1 0-2h3M10 21.45A10.5 10.5 0 1 1 21.45 10"/><path d="M.66 9.17h5.55a2.72 2.72 0 0 1 1.94.83l1 1a2.73 2.73 0 0 1 .11 3.76L8 16.16A2.72 2.72 0 0 0 7.35 18v2.87M18.54 3.7h-5.29a2.05 2.05 0 1 0 0 4.1h.39A2.74 2.74 0 0 1 15.92 9l.25.37"/></g></svg>
