<svg xmlns="http://www.w3.org/2000/svg" viewBox="0 0 24 24"><path fill="none" stroke="currentColor" stroke-linecap="round" stroke-linejoin="round" d="M21 9.985c0 7-9 13.5-9 13.5s-9-6.5-9-13.5c0-5.246 3.753-9.5 9-9.5s9 4.254 9 9.5"/><path fill="none" stroke="currentColor" stroke-linecap="round" stroke-linejoin="round" d="M6 9.485a6 6 0 1 0 12 0 6 6 0 1 0-12 0"/><path fill="none" stroke="currentColor" stroke-linecap="round" stroke-linejoin="round" d="M6.544 6.985H7.5a1.5 1.5 0 0 1 1.5 1.5 1 1 0 0 0 1 1 1 1 0 0 1 1 1 2.5 2.5 0 0 1-2.5 2.5H7.126m10.685-2H17a1.5 1.5 0 0 1-1.5-1.5 1 1 0 0 0-1-1 1 1 0 0 1-1-1 2.473 2.473 0 0 1 2.469-2.5"/></svg>
