<svg xmlns="http://www.w3.org/2000/svg" viewBox="0 0 24 24"><g fill="none" stroke="currentColor" stroke-linecap="round" stroke-linejoin="round"><path d="m19.09 15.14 3.04 1.36 1.37-3.07"/><path d="M11.32 15.26a5.57 5.57 0 0 1 10.81 1.24m-7.75 3.36-3.04-1.36-1.37 3.07"/><path d="M22.15 19.73a5.57 5.57 0 0 1-10.81-1.23M8 21.06A10.5 10.5 0 1 1 21.45 10"/><path d="M.66 9.17h5.55a2.72 2.72 0 0 1 1.94.83l1 1a2.73 2.73 0 0 1 .11 3.76L8 16.16A2.72 2.72 0 0 0 7.35 18v2.87M18.54 3.7h-5.29a2.05 2.05 0 1 0 0 4.1h.39A2.74 2.74 0 0 1 15.92 9l.25.37"/></g></svg>
