<svg xmlns="http://www.w3.org/2000/svg" viewBox="0 0 24 24"><g fill="none" stroke="currentColor" stroke-linecap="round" stroke-linejoin="round"><path d="M16.31 17a1.44 1.44 0 1 0 2.88 0 1.44 1.44 0 1 0-2.88 0"/><path d="m19 11.44.42 1.39a1 1 0 0 0 1.13.65l1.41-.32a1.28 1.28 0 0 1 1.22 2.12l-1 1.07a1 1 0 0 0 0 1.3l1 1.07a1.28 1.28 0 0 1-1.22 2.12l-1.41-.32a1 1 0 0 0-1.13.65L19 22.56a1.27 1.27 0 0 1-2.44 0l-.42-1.39a1 1 0 0 0-1.14-.65l-1.41.32a1.28 1.28 0 0 1-1.22-2.12l1-1.07a1 1 0 0 0 0-1.3l-1-1.07a1.28 1.28 0 0 1 1.22-2.12l1.41.32a1 1 0 0 0 1.13-.65l.42-1.39a1.27 1.27 0 0 1 2.45 0"/><path d="M10 21.48A10.5 10.5 0 1 1 21.45 10"/><path d="M.66 9.21h5.55a2.7 2.7 0 0 1 1.94.8l1 1a2.73 2.73 0 0 1 .11 3.76L8 16.19A2.72 2.72 0 0 0 7.35 18v2.87M18.54 3.73h-5.29a2.06 2.06 0 0 0 0 4.11h.39a2.72 2.72 0 0 1 2.28 1.22l.25.36"/></g></svg>
