<svg xmlns="http://www.w3.org/2000/svg" viewBox="0 0 24 24"><path fill="none" stroke="currentColor" stroke-linecap="round" stroke-linejoin="round" d="m.795 16.091 1.423-1.423s.712-.711 1.423 0l5.691 5.691s.712.712 0 1.423L7.91 23.205s-.711.712-1.423 0L.795 17.514s-.712-.711 0-1.423M14.668 2.218 16.09.795s.712-.712 1.423 0l5.691 5.691s.712.711 0 1.423l-1.423 1.423s-.711.711-1.423 0l-5.691-5.691s-.712-.712 0-1.423"/><path fill="none" stroke="currentColor" stroke-linecap="round" stroke-linejoin="round" d="M3.64 14.668 14.666 3.64l5.691 5.691L9.331 20.36Z"/><path fill="none" stroke="currentColor" stroke-linecap="round" stroke-linejoin="round" d="M6.486 17.514 9.5 14.5H12v-5h2.5l3.014-3.014"/></svg>
