<svg xmlns="http://www.w3.org/2000/svg" fill="none" viewBox="0 0 24 24"><path stroke="currentColor" stroke-linecap="round" stroke-linejoin="round" d="M17.5 18.5v-3m.838-3a.95.95 0 0 0-1.676 0l-5.056 9.635a.923.923 0 0 0 .376 1.243c.141.078.3.12.462.119h10.112a.95.95 0 0 0 .807-.448.92.92 0 0 0 .031-.914z"/><path stroke="currentColor" stroke-linecap="round" stroke-linejoin="round" d="M11.5 14.5H2A1.5 1.5 0 0 1 .5 13V2A1.5 1.5 0 0 1 2 .5h18A1.5 1.5 0 0 1 21.5 2v8.5"/><path stroke="currentColor" stroke-linecap="round" stroke-linejoin="round" d="M21.067.946 11 9 .933.946"/><path stroke="currentColor" d="M17.5 21a.25.25 0 1 1 0-.5m0 .5a.25.25 0 1 0 0-.5"/></svg>
