<svg xmlns="http://www.w3.org/2000/svg" fill="none" viewBox="0 0 24 24"><path stroke="currentColor" stroke-linecap="round" stroke-linejoin="round" d="M23.123 6.039 21.078 2.5l-2.689 1.554V.948H14.3v3.107l-2.688-1.554L9.567 6.04l2.689 1.553-2.689 1.554 2.045 3.537L14.3 11.13v3.108h4.09V11.13l2.688 1.554 2.045-3.537-2.689-1.554zM8.33 22.99a3.765 3.765 0 0 0 4.33-1.02l.545-.546a1.18 1.18 0 0 0 .21-1.618l-1.759-1.76a1.18 1.18 0 0 0-1.619.211 1.18 1.18 0 0 1-1.618.212l-2.816-2.816a1.18 1.18 0 0 1 .212-1.618 1.18 1.18 0 0 0 .21-1.62l-1.759-1.759a1.18 1.18 0 0 0-1.619.211l-.545.546a3.78 3.78 0 0 0-1.02 4.328 21.1 21.1 0 0 0 7.249 7.25"/></svg>
