<svg xmlns="http://www.w3.org/2000/svg" viewBox="0 0 24 24"><path fill="none" stroke="currentColor" stroke-linecap="round" stroke-linejoin="round" d="M6.618 15.32a.5.5 0 0 1-.693-.674L8.987 9.2a1 1 0 0 1 1.4-.357L13 10.481a1 1 0 0 0 1.009.03L17.326 8.7a.5.5 0 0 1 .663.7l-3.459 5.543a1 1 0 0 1-1.378.318l-2.633-1.646a1 1 0 0 0-1.044-.009Z"/><path fill="none" stroke="currentColor" stroke-linecap="round" stroke-linejoin="round" d="M12 1.346C5.649 1.346.5 6.026.5 11.8a9.82 9.82 0 0 0 2.367 6.353 1.05 1.05 0 0 1 .247.674v2.782a1.045 1.045 0 0 0 1.513.935l2.116-1.058a1.04 1.04 0 0 1 .839-.042 12.4 12.4 0 0 0 4.418.811c6.351 0 11.5-4.681 11.5-10.455S18.351 1.346 12 1.346"/></svg>
