<svg xmlns="http://www.w3.org/2000/svg" viewBox="0 0 24 24"><path fill="none" stroke="currentColor" stroke-linecap="round" stroke-linejoin="round" d="m3.375 15.287 1.012-10.63h4.645l.852 8.945M1 22.991h22V11.608a1.083 1.083 0 0 0-1.356-1.049L1.733 15.712a.98.98 0 0 0-.733.947Z"/><path fill="none" stroke="currentColor" stroke-linecap="round" stroke-linejoin="round" d="M19.578 22.99h-4.889 0v-4.378a1 1 0 0 1 1-1h2.889a1 1 0 0 1 1 1zM4 9.009h5m11.5-8a2.49 2.49 0 0 0-2.158 1.259 1.5 1.5 0 1 0 0 2.483A2.5 2.5 0 1 0 20.5 1.009m-9.5 2.5a1.5 1.5 0 1 0 3 0 1.5 1.5 0 1 0-3 0m-6 14.5h1m-1 2h1m4-2h1m-1 2h1"/></svg>
