<svg xmlns="http://www.w3.org/2000/svg" viewBox="0 0 24 24"><path fill="none" stroke="currentColor" stroke-linecap="round" stroke-linejoin="round" d="m9.761 18.797-5.23-3.76m2.515-2.864 4.299 3.187M.821 11.884a3.119 3.119 0 1 0 6.238 0 3.119 3.119 0 1 0-6.238 0m5.976-1.251 4.668-4.546m-1.433-3.278-6.28 5.962M9.94 3.637a2.731 2.731 0 1 0 5.462 0 2.731 2.731 0 1 0-5.462 0"/><path fill="none" stroke="currentColor" stroke-linecap="round" stroke-linejoin="round" d="M15.2 4.669 17.674 7.2a1.38 1.38 0 0 1 .026 1.905h0a1.38 1.38 0 0 1-2 .025l-2.72-2.779M1.082 23.095h22M9.761 20.669v-2.722a2.911 2.911 0 0 1 5.821 0v2.68M3.44 11.718a.5.5 0 1 0 1 0 .5.5 0 1 0-1 0"/><path fill="none" stroke="currentColor" stroke-linecap="round" stroke-linejoin="round" d="M12.171 17.925a.5.5 0 1 0 1 0 .5.5 0 1 0-1 0m-2.992 2.744h6.937a1 1 0 0 1 1 1v1.426h0-8.937 0v-1.426a1 1 0 0 1 1-1M17.4 6.909a1.25 1.25 0 0 1 .758-.451 4.255 4.255 0 0 1 5.021 4.182 1.25 1.25 0 1 1-2.5 0A1.753 1.753 0 0 0 18.6 8.92a1.3 1.3 0 0 1-.573-.031m-.905.537a1.25 1.25 0 0 1-.076.7 1.752 1.752 0 0 0 1.233 2.4 1.25 1.25 0 0 1-.538 2.442 4.253 4.253 0 0 1-3-5.8 1.24 1.24 0 0 1 .31-.443"/></svg>
