<svg xmlns="http://www.w3.org/2000/svg" viewBox="0 0 24 24"><path fill="none" stroke="currentColor" stroke-linecap="round" stroke-linejoin="round" d="M12.501 12a1.5 1.5 0 1 0 3 0 1.5 1.5 0 1 0-3 0m-6.5 4.5a1 1 0 1 0 2 0 1 1 0 1 0-2 0"/><path fill="none" stroke="currentColor" stroke-linecap="round" stroke-linejoin="round" d="M.616 21.537A1 1 0 0 0 1.5 23h21a1 1 0 0 0 .886-1.463l-10.5-20a1 1 0 0 0-1.772 0Z"/><path fill="none" stroke="currentColor" stroke-linecap="round" stroke-linejoin="round" d="m10 13.5.272.816a1 1 0 0 0 .948.684h3.365a1 1 0 0 1 .708.293L16.5 16.5m-4.249 1h-2.132a1 1 0 0 0-.894.553L8.5 19.5"/><path fill="none" stroke="currentColor" stroke-linecap="round" stroke-linejoin="round" d="m13.5 15-1.678 3.355a1 1 0 0 0 .187 1.155l.99.99"/></svg>
