<svg xmlns="http://www.w3.org/2000/svg" viewBox="0 0 24 24"><g fill="none" stroke="currentColor" stroke-linecap="round" stroke-linejoin="round"><path d="M3.51 12.12a.51.51 0 0 1 .1-.43.49.49 0 0 1 .39-.19h2.54a.5.5 0 0 1 .5.41c.62 3.51 9.28 3.51 9.9 0a.5.5 0 0 1 .5-.41H20a.49.49 0 0 1 .39.19.51.51 0 0 1 .1.43l-2.66 10.62a1 1 0 0 1-1 .76H7.14a1 1 0 0 1-1-.76Z"/><path d="M8.75 12.11 6.06 2.86a.5.5 0 0 0-.48-.36h-.81a.49.49 0 0 0-.45.29l-.73 1.54a.53.53 0 0 0 0 .35l1.85 6.82"/><path d="M12 14.54 10.86 1a.5.5 0 0 0-.54-.5l-2 .17a.5.5 0 0 0-.46.54L8.9 14m6.35-1.89 2.69-9.25a.5.5 0 0 1 .48-.36h.81a.49.49 0 0 1 .45.29l.73 1.54a.53.53 0 0 1 0 .35l-1.85 6.82"/><path d="M12 14.54 13.14 1a.5.5 0 0 1 .54-.5l2 .17a.5.5 0 0 1 .46.54L15.1 14M4.86 17.5h14.28m-13.53 3h12.78"/></g></svg>
