<svg xmlns="http://www.w3.org/2000/svg" fill="none" viewBox="0 0 24 24"><path stroke="currentColor" stroke-linecap="round" stroke-linejoin="round" stroke-miterlimit="10" d="M10 8.5a3 3 0 1 0 0-6 3 3 0 0 0 0 6m0-6H1"/><path stroke="currentColor" stroke-linecap="round" stroke-linejoin="round" stroke-miterlimit="10" d="M12.2 3.5 15.3 8H23"/><path stroke="currentColor" stroke-linecap="round" stroke-linejoin="round" stroke-miterlimit="10" d="M20.5 5.5 23 8l-2.5 2.5M10 21.5a3 3 0 1 0 0-6 3 3 0 0 0 0 6m0 0H1"/><path stroke="currentColor" stroke-linecap="round" stroke-linejoin="round" stroke-miterlimit="10" d="m12.2 20.5 3.1-4.5H23"/><path stroke="currentColor" stroke-linecap="round" stroke-linejoin="round" stroke-miterlimit="10" d="M20.5 18.5 23 16l-2.5-2.5"/></svg>
