<svg xmlns="http://www.w3.org/2000/svg" viewBox="0 0 24 24"><path fill="none" stroke="currentColor" stroke-linecap="round" stroke-linejoin="round" d="M11.5 17.504a6 6 0 1 0 12 0 6 6 0 1 0-12 0"/><path fill="none" stroke="currentColor" stroke-linecap="round" stroke-linejoin="round" d="m20.174 15.759-2.905 3.874a.75.75 0 0 1-1.131.08l-1.5-1.5M10.5 23.5h-9a1 1 0 0 1-1-1v-21a1 1 0 0 1 1-1h13.293a1 1 0 0 1 .707.3l3.707 3.7a1 1 0 0 1 .293.707V9.5m-16-3.996v4m9-4v4m-3 3v4m6-11v4"/><path fill="none" stroke="currentColor" stroke-linecap="round" stroke-linejoin="round" d="M8 5.5A1.5 1.5 0 0 1 9.5 7v1a1.5 1.5 0 0 1-3 0V7A1.5 1.5 0 0 1 8 5.5m-3 7A1.5 1.5 0 0 1 6.5 14v1a1.5 1.5 0 0 1-3 0v-1A1.5 1.5 0 0 1 5 12.5"/></svg>
