<svg xmlns="http://www.w3.org/2000/svg" viewBox="0 0 24 24"><path fill="none" stroke="currentColor" stroke-linecap="round" stroke-linejoin="round" d="M19 12a2 2 0 1 0 4 0 2 2 0 1 0-4 0M9 12a1.5 1.5 0 1 0 3 0 1.5 1.5 0 1 0-3 0m-4 0a1 1 0 1 0 2 0 1 1 0 1 0-2 0m-4 0a1 1 0 1 0 2 0 1 1 0 1 0-2 0m8 5a1.5 1.5 0 1 0 3 0 1.5 1.5 0 1 0-3 0m-4 0a1 1 0 1 0 2 0 1 1 0 1 0-2 0M9 7a1.5 1.5 0 1 0 3 0 1.5 1.5 0 1 0-3 0m5 5a1.5 1.5 0 1 0 3 0 1.5 1.5 0 1 0-3 0m0 5a1.5 1.5 0 1 0 3 0 1.5 1.5 0 1 0-3 0m0-10a1.5 1.5 0 1 0 3 0 1.5 1.5 0 1 0-3 0M9 2a1.5 1.5 0 1 0 3 0 1.5 1.5 0 1 0-3 0m0 20a1.5 1.5 0 1 0 3 0 1.5 1.5 0 1 0-3 0M5 7a1 1 0 1 0 2 0 1 1 0 1 0-2 0"/></svg>
