<svg xmlns="http://www.w3.org/2000/svg" viewBox="0 0 24 24"><path fill="none" stroke="currentColor" stroke-linecap="round" stroke-linejoin="round" d="M15.75 1.25h4.5a3 3 0 0 1 0 6h-.5c-.817 0-1.544-.107-2 .5l-4.62 8.736"/><path fill="none" stroke="currentColor" stroke-linecap="round" stroke-linejoin="round" d="M17 21.25a1.75 1.75 0 0 0 .247-3.482L13.8 16.71a2.5 2.5 0 0 1-2.05-2.46v-2h-5.5a4.5 4.5 0 0 0 0 9Z"/><path fill="none" stroke="currentColor" stroke-linecap="round" stroke-linejoin="round" d="M6.25 16.75a1.5 1.5 0 1 0 3 0 1.5 1.5 0 1 0-3 0m2.56 1.061 1.44 1.439m-1.5 0h2.5m-9-15a1.5 1.5 0 0 0 0 3H7.5a.751.751 0 0 0 .214-1.469C7.387 5.684 2.592 4.25 2.25 4.25m2 3 4.5 5m-3 9-1.5 1.5m14-2 2 2"/></svg>
