<svg xmlns="http://www.w3.org/2000/svg" viewBox="0 0 24 24"><g fill="none" stroke="currentColor" stroke-linecap="round" stroke-linejoin="round"><path d="M6.24 21a2.25 2.25 0 1 1-4.48 0l.69-6.52a3.2 3.2 0 0 0-.05-1L2 12.1a.53.53 0 0 1 .1-.42.53.53 0 0 1 .39-.18h3a.53.53 0 0 1 .39.18.53.53 0 0 1 .1.42l-.28 1.42a3.2 3.2 0 0 0-.16 1ZM8 6.5a5.76 5.76 0 0 1 5.73-6A6.27 6.27 0 0 1 20 6.77v4.73"/><path d="M8 6.5a4 4 0 0 0 8 0 6 6 0 0 0-12 0v5m1.55 3h-3.1M22.24 21a2.25 2.25 0 1 1-4.48 0l.69-6.52a3.2 3.2 0 0 0-.05-1L18 12.1a.53.53 0 0 1 .1-.42.53.53 0 0 1 .39-.18h3a.53.53 0 0 1 .39.18.53.53 0 0 1 .1.42l-.39 1.42a3.2 3.2 0 0 0-.05 1Zm-.69-6.5h-3.1"/></g></svg>
