<svg xmlns="http://www.w3.org/2000/svg" viewBox="0 0 24 24"><path fill="none" stroke="currentColor" stroke-linecap="round" stroke-linejoin="round" d="M17 5.5H7v-1a2 2 0 0 1 2-2h6a2 2 0 0 1 2 2Zm-5-3v-2m-5 5v2.1a1 1 0 0 0 .28.693l1.481 1.536a1 1 0 0 1-.009 1.4l-1.464 1.479a1 1 0 0 0-.288.7V21.5a2 2 0 0 0 2 2h6a2 2 0 0 0 2-2v-8.078a1 1 0 0 0-.3-.716l-1.482-1.445a1 1 0 0 1-.018-1.415l1.517-1.555a1 1 0 0 0 .284-.7V5.5"/><path fill="none" stroke="currentColor" stroke-linecap="round" stroke-linejoin="round" d="m12.5 13.5-1.482 2.223a.5.5 0 0 0 .416.777h1.2a.5.5 0 0 1 .435.748L11.5 20"/></svg>
