<svg xmlns="http://www.w3.org/2000/svg" fill="none" viewBox="0 0 24 24"><path stroke="currentColor" stroke-linecap="round" stroke-linejoin="round" d="m13.983 14.102-.978 3.96-3.95-.953m13.353-7.588v-7.93A.99.99 0 0 0 21.417.6H3.575a.99.99 0 0 0-.992.991v7.93m10.904 1.981h9.912m-22.798 0H7.54"/><path stroke="currentColor" stroke-linecap="round" stroke-linejoin="round" d="M12.991 18.061a9.91 9.91 0 0 1-.043-13.069"/><path stroke="currentColor" d="M2.583 22.904a.248.248 0 1 0 0 .496m0-.496a.248.248 0 1 1 0 .496m3.965-.496a.248.248 0 1 0 0 .496m0-.496a.248.248 0 1 1 0 .496m3.965-.496a.248.248 0 1 0 0 .496m0-.496a.248.248 0 0 1 0 .496m3.965-.496a.248.248 0 0 0 0 .496m0-.496a.248.248 0 0 1 0 .496m3.965-.496a.248.248 0 0 0 0 .496m0-.496a.248.248 0 1 1 0 .496m3.965-.496a.248.248 0 1 0 0 .496m0-.496a.248.248 0 0 1 0 .496M2.583 18.939a.248.248 0 0 0 0 .495m0-.495a.248.248 0 0 1 0 .495m0-4.461a.248.248 0 1 0 0 .495m0-.495a.248.248 0 1 1 0 .495m19.825 3.471a.248.248 0 0 0 0 .495m0-.495a.248.248 0 0 1 0 .495m0-4.461a.248.248 0 1 0 0 .495m0-.495a.248.248 0 0 1 0 .495"/></svg>
