<svg xmlns="http://www.w3.org/2000/svg" fill="none" viewBox="0 0 24 24"><path stroke="currentColor" stroke-linecap="round" stroke-linejoin="round" d="M23.5 1.5a1 1 0 0 0-1-1H3.914a1 1 0 0 0-.707.293L.793 3.207a1 1 0 0 0-.293.707V22.5a1 1 0 0 0 1 1h21a1 1 0 0 0 1-1z"/><path stroke="currentColor" stroke-linecap="round" stroke-linejoin="round" d="M19.5.5h-15v5h15zm0 20h-15v3h15zm-7.5-5a4 4 0 1 0 0-8 4 4 0 0 0 0 8m2.5 3h5m-9.5-8v2"/><path stroke="currentColor" d="M12 11.75a.25.25 0 1 1 0-.5m0 .5a.25.25 0 1 0 0-.5"/><path stroke="currentColor" stroke-linecap="round" stroke-linejoin="round" d="M12 11.25a.25.25 0 0 1 .049.495.25.25 0 0 1-.299-.245.25.25 0 0 1 .25-.25"/></svg>
