<svg xmlns="http://www.w3.org/2000/svg" viewBox="0 0 24 24"><path fill="none" stroke="currentColor" stroke-linecap="round" stroke-linejoin="round" d="M17.124 2.4c4.826 4.825 4.123 11.3.35 15.076S7.233 21.961 2.4 17.124L.645 18.878a.5.5 0 0 0 0 .7A13.388 13.388 0 1 0 19.578.645a.5.5 0 0 0-.7 0ZM2.398 17.124 17.124 2.399"/><path fill="none" stroke="currentColor" stroke-linecap="round" stroke-linejoin="round" d="M13.969 12.566c.581.58.738 1.366.35 1.753s-1.172.23-1.753-.35-.738-1.366-.351-1.753 1.173-.231 1.754.35m.616-4.908a1.488.991 0 1 0 2.976 0 1.488.991 0 1 0-2.976 0m-5.936 8.414c0 .823-.444 1.488-.991 1.488s-.992-.665-.992-1.488.444-1.487.992-1.487.991.666.991 1.487"/></svg>
