<svg xmlns="http://www.w3.org/2000/svg" viewBox="0 0 24 24"><path fill="none" stroke="currentColor" stroke-linecap="round" stroke-linejoin="round" d="M11.189 6.5a2 2 0 0 1-.831-.181C5.291 4 1.689 6.59 1.689 13.232a9.76 9.76 0 0 0 9.5 10 9.76 9.76 0 0 0 9.5-10 13.5 13.5 0 0 0-.395-3.42m-9.105-3.316V2.232"/><path fill="none" stroke="currentColor" stroke-linecap="round" stroke-linejoin="round" d="M11.189 6.5a8.72 8.72 0 0 0-3.5 7.236 14.03 14.03 0 0 0 3.5 9.5m3.435-15.277a.586.586 0 0 1-.555-.67A7.46 7.46 0 0 1 21.748.77a.585.585 0 0 1 .555.669 7.46 7.46 0 0 1-7.679 6.52"/></svg>
