<svg xmlns="http://www.w3.org/2000/svg" viewBox="0 0 24 24"><path fill="none" stroke="currentColor" stroke-linecap="round" stroke-linejoin="round" d="M1.594 5.575a4.433 4.433 0 1 0 8.866 0 4.433 4.433 0 1 0-8.866 0m11.996 0a4.433 4.433 0 1 0 8.866 0 4.433 4.433 0 1 0-8.866 0"/><path fill="none" stroke="currentColor" stroke-linecap="round" stroke-linejoin="round" d="m15.155 11.312-1.043-3.651a2.087 2.087 0 0 0-4.173 0L8.9 11.312a1.565 1.565 0 1 0 .684 2.966 2.594 2.594 0 0 0 4.89 0 1.562 1.562 0 1 0 .685-2.966Zm7.302-5.998H23.5m-22.95 0h1.044"/><path fill="none" stroke="currentColor" stroke-linecap="round" stroke-linejoin="round" d="M17.191 16.267a8.4 8.4 0 0 0 6.259.522c.521 4.694-3.13 5.215-5.216 4.694-1.565 2.086-4.644 1.565-6.209 0h0c-1.565 1.565-4.694 2.086-6.259 0-2.086.517-5.737 0-5.216-4.694a8.4 8.4 0 0 0 6.259-.522"/></svg>
