<svg xmlns="http://www.w3.org/2000/svg" viewBox="0 0 24 24"><path fill="none" stroke="currentColor" stroke-linecap="round" stroke-linejoin="round" d="m19.961 14.763 3.128 5.417c.138.238.028.4-.243.35l-3.358-.568-1.164 3.2c-.094.258-.286.276-.426.04l-3-5.073M4.039 14.763.911 20.18c-.138.238-.028.4.243.35l3.358-.568 1.165 3.2c.094.259.286.276.426.04l3-5.067m3.397-7.503v-4.5a.5.5 0 0 0-.8-.4l-1.2.9m.997 4h2"/><path fill="none" stroke="currentColor" stroke-linecap="round" stroke-linejoin="round" d="M20 8.632a2.78 2.78 0 0 0-1.755-2.587 2.784 2.784 0 0 0-3.658-3.658 2.784 2.784 0 0 0-5.173 0 2.784 2.784 0 0 0-3.661 3.658 2.783 2.783 0 0 0 0 5.173 2.784 2.784 0 0 0 3.658 3.658 2.783 2.783 0 0 0 5.173 0 2.784 2.784 0 0 0 3.658-3.658A2.78 2.78 0 0 0 20 8.632"/></svg>
