<svg xmlns="http://www.w3.org/2000/svg" viewBox="0 0 24 24"><path fill="none" stroke="currentColor" stroke-linecap="round" stroke-linejoin="round" d="M2 1.5h10s1.5 0 1.5 1.5v18s0 1.5-1.5 1.5H2S.5 22.5.5 21V3S.5 1.5 2 1.5m20.5 14.691a.5.5 0 0 1-.276.447L20.5 17.5v-3H22a.5.5 0 0 1 .5.5Zm-2-1.691V13c0-.827 3-3.5 3-3.5m-3 8v3a2 2 0 0 1-4 0V7A1.5 1.5 0 0 0 15 5.5h-1.5m-13 4h13"/><path fill="none" stroke="currentColor" stroke-linecap="round" stroke-linejoin="round" d="M3 3.5h8s.5 0 .5.5v3s0 .5-.5.5H3s-.5 0-.5-.5V4s0-.5.5-.5m1.5 16V13A1.5 1.5 0 0 1 6 11.5h2.5m-4 4H7"/></svg>
