<svg xmlns="http://www.w3.org/2000/svg" viewBox="0 0 24 24"><path fill="none" stroke="currentColor" stroke-linecap="round" stroke-linejoin="round" d="M10.5 14a1.5 1.5 0 1 0 3 0 1.5 1.5 0 1 0-3 0m2.56-1.061 4.951-4.949M2.5 14.5h2m17 0h-2m1.276-4.135-1.847.765m-3.294-5.907-.765 1.848M12 4.5v2M8.365 5.223l.765 1.848m-3.847.211 1.412 1.415m-3.471 1.668 1.846.765"/><path fill="none" stroke="currentColor" stroke-linecap="round" stroke-linejoin="round" d="M12 2.5A11.5 11.5 0 0 0 .5 14v3.5a1 1 0 0 0 1 1h21a1 1 0 0 0 1-1V14A11.5 11.5 0 0 0 12 2.5"/></svg>
