<svg xmlns="http://www.w3.org/2000/svg" viewBox="0 0 24 24"><path fill="none" stroke="currentColor" stroke-linecap="round" stroke-linejoin="round" d="M10.5 14h-4a1 1 0 0 1-1-1v-1a1 1 0 0 1 1-1h11a1 1 0 0 1 1 1v1a1 1 0 0 1-1 1h-4m0 0H17l-.434 6.071a1 1 0 0 1-1 .929H8.431a1 1 0 0 1-1-.929L7 14h3.5m0-3v10m3 0V11m-5-1.312C9.1 10.292 12 11 12 11s-.709-2.9-1.312-3.5A1.547 1.547 0 0 0 8.5 9.688m7 0C14.9 10.292 12 11 12 11s.709-2.9 1.312-3.5A1.547 1.547 0 0 1 15.5 9.688M12 4.5V3m7.071 4.429 1.061-1.06M22 14h1.5M4.929 7.429l-1.061-1.06M2 14H.5"/></svg>
