<svg xmlns="http://www.w3.org/2000/svg" viewBox="0 0 24 24"><path fill="none" stroke="currentColor" stroke-linecap="round" stroke-linejoin="round" d="M2.5 1h19s2 0 2 2v12s0 2-2 2h-19s-2 0-2-2V3s0-2 2-2"/><path fill="none" stroke="currentColor" stroke-linecap="round" stroke-linejoin="round" d="M3.5 3h5s1 0 1 1v3s0 1-1 1h-5s-1 0-1-1V4s0-1 1-1m8-2h10a2 2 0 0 1 2 2v10h0-10a2 2 0 0 1-2-2z"/><path fill="none" stroke="currentColor" stroke-linecap="round" stroke-linejoin="round" d="M13.5 7a4 4 0 1 0 8 0 4 4 0 1 0-8 0"/><path fill="none" stroke="currentColor" stroke-linecap="round" stroke-linejoin="round" d="M15.5 7a2 2 0 1 0 4 0 2 2 0 1 0-4 0m-5 10h3v6h-3Zm-3 6h9M4.5 5v1m0 7.5a1.5 1.5 0 1 0 3 0 1.5 1.5 0 1 0-3 0m6 6.5h-5m-4-1a1 1 0 0 0 0 2h4v-2Z"/></svg>
