<svg xmlns="http://www.w3.org/2000/svg" viewBox="0 0 24 24"><path fill="none" stroke="currentColor" stroke-linecap="round" stroke-linejoin="round" d="M9.678 12.783A1 1 0 0 0 8.7 12H3.3a1 1 0 0 0-.976.783l-1.556 7A1 1 0 0 0 1.751 21h8.506a1 1 0 0 0 .976-1.217Zm12 0A1 1 0 0 0 20.7 12h-5.4a1 1 0 0 0-.976.783l-1.556 7A1 1 0 0 0 13.751 21h8.506a1 1 0 0 0 .976-1.217Z"/><path fill="none" stroke="currentColor" stroke-linecap="round" stroke-linejoin="round" d="M15.678 3.783A1 1 0 0 0 14.7 3H9.3a1 1 0 0 0-.976.783l-1.556 7A1 1 0 0 0 7.751 12h8.506a1 1 0 0 0 .976-1.217Z"/><path fill="none" stroke="currentColor" stroke-linecap="round" stroke-linejoin="round" d="M12 5h-1.1a.5.5 0 0 0-.488.392l-.471 2.141M6 14H4.9a.5.5 0 0 0-.488.392l-.476 2.141M18 14h-1.1a.5.5 0 0 0-.488.392l-.476 2.141"/></svg>
