<svg xmlns="http://www.w3.org/2000/svg" fill="none" viewBox="0 0 24 24"><path stroke="currentColor" stroke-linecap="round" stroke-linejoin="round" d="M12 15.97A7.71 7.71 0 1 0 12 .55a7.71 7.71 0 0 0 0 15.42m4.974 1.073a9.46 9.46 0 0 1-9.948 0M12 18.456v4.994"/><path stroke="currentColor" d="M15.482 5.295a.249.249 0 1 1 0-.497m0 .497a.249.249 0 1 0 0-.497m1.492 3.959a.249.249 0 0 1 0-.497m0 .497a.249.249 0 1 0 0-.497m-3.482 1.014a.249.249 0 1 1 0-.497m0 .497a.249.249 0 0 0 0-.497m1.492 3.979a.249.249 0 0 1 0-.497m0 .497a.249.249 0 0 0 0-.497m-3.979.497a.249.249 0 0 1 0-.497m0 .497a.249.249 0 0 0 0-.497"/></svg>
