<svg xmlns="http://www.w3.org/2000/svg" fill="none" viewBox="0 0 24 24"><path stroke="currentColor" stroke-linecap="round" stroke-linejoin="round" d="M.881 3.486a2.573 2.573 0 1 0 5.146 0 2.573 2.573 0 1 0-5.146 0m0 8.514a2.573 2.573 0 1 0 5.146 0 2.573 2.573 0 1 0-5.146 0m0 8.514a2.573 2.573 0 1 0 5.146 0 2.573 2.573 0 1 0-5.146 0M9.279 3.486a1.934 1.934 0 1 0 3.868 0 1.934 1.934 0 1 0-3.868 0m0 8.514a1.934 1.934 0 1 0 3.868 0 1.934 1.934 0 1 0-3.868 0m0 8.514a1.934 1.934 0 1 0 3.868 0 1.934 1.934 0 1 0-3.868 0m7.119-17.028a1.341 1.341 0 1 0 2.682 0 1.341 1.341 0 1 0-2.682 0m0 8.514a1.341 1.341 0 1 0 2.682 0 1.341 1.341 0 1 0-2.682 0m0 8.514a1.341 1.341 0 1 0 2.682 0 1.341 1.341 0 1 0-2.682 0"/><path stroke="currentColor" stroke-linecap="round" stroke-linejoin="round" stroke-miterlimit="10" d="M22.726 3.093c-.197 0-.394.197-.394.394s.197.393.394.393"/><path stroke="currentColor" stroke-linecap="round" stroke-linejoin="round" stroke-miterlimit="10" d="M22.725 3.093c.197 0 .394.197.394.394s-.197.393-.394.393m.001 7.726a.42.42 0 0 0-.394.394c0 .197.197.393.394.393"/><path stroke="currentColor" stroke-linecap="round" stroke-linejoin="round" stroke-miterlimit="10" d="M22.725 11.606c.197 0 .394.197.394.394a.42.42 0 0 1-.394.393m.001 7.727c-.197 0-.394.197-.394.394s.197.393.394.393"/><path stroke="currentColor" stroke-linecap="round" stroke-linejoin="round" stroke-miterlimit="10" d="M22.725 20.12c.197 0 .394.197.394.394s-.197.393-.394.393"/></svg>
