<svg xmlns="http://www.w3.org/2000/svg" fill="none" viewBox="0 0 24 24"><path stroke="currentColor" stroke-linecap="round" stroke-linejoin="round" stroke-miterlimit="10" d="m15.808 10.35.8-.4c.2-.1.5 0 .7.2l1.1 2.2c.3.5.8.8 1.3.8.2 0 .5-.1.7-.2.7-.4 1-1.3.7-2l-1.1-2.2c-.4-.8-1.1-1.5-2-1.8s-1.8-.2-2.7.2l-2.2 1.1-2.7 1.4c-.2.1-.4.1-.6-.1l-1.5-1.5c-.6-.6-1.5-.6-2.1 0s-.6 1.5 0 2.1l1.5 1.5c1.1 1.1 2.7 1.3 4 .7l1.4-.7 1.1 2-2.9 1.9c-.6.4-1 .9-1.3 1.5l-1.3 3.6c-.3.8 0 1.6.8 2 .2.1.4.1.6.1.6 0 1.1-.3 1.4-.9l1.3-3.6c0-.1.1-.2.2-.2l2.4-1.6.2.6c.5 1.4 1.8 2.3 3.3 2.3.3 0 .6 0 .9-.1l2.3-.6c.8-.2 1.3-1 1.1-1.8s-1-1.3-1.8-1.1l-2.3.6c-.2.1-.5-.1-.6-.3l-.2-.6M11.65 6.776a3 3 0 1 0 .001-6 3 3 0 0 0 0 6m-4.601-6a3 3 0 0 0-1.787 5.41M6.95 15.25l-.6.4c-.6.4-1 .9-1.3 1.5l-1.3 3.6c-.3.8 0 1.6.8 2 .2.1.4.1.6.1.3 0 .6-.1.8-.3M3.298 8.05c-.6-.6-1.5-.6-2.1 0s-.6 1.5 0 2.1l1.5 1.5c.6.6 1.5 1 2.3 1"/></svg>
