<svg xmlns="http://www.w3.org/2000/svg" viewBox="0 0 24 24"><path fill="none" stroke="currentColor" stroke-linecap="round" stroke-linejoin="round" d="M12 3.5a2.5 2.5 0 1 0 5 0 2.5 2.5 0 1 0-5 0m2.841 11.093a5 5 0 1 0 6.483-.72"/><path fill="none" stroke="currentColor" stroke-linecap="round" stroke-linejoin="round" d="M2 3.5A1.5 1.5 0 0 1 3.5 5v4A1.5 1.5 0 0 0 5 10.5h1.726a1 1 0 0 0 .553-.167l3.861-2.562a1.5 1.5 0 0 1 1.82.076l2.166 1.8a1.5 1.5 0 0 0 .96.348H19a1.5 1.5 0 0 1 0 3h-2.914a4.5 4.5 0 0 1-2.88-1.043l-1.285-1.07-2.465 1.6a1 1 0 0 0-.456.842V21.5a1.5 1.5 0 0 1-3 0v-8H5A4.505 4.505 0 0 1 .5 9V5A1.5 1.5 0 0 1 2 3.5"/></svg>
