<svg xmlns="http://www.w3.org/2000/svg" fill="none" viewBox="0 0 24 24"><path stroke="currentColor" stroke-linecap="round" stroke-linejoin="round" d="M23.5 11.664h-5.02a.5.5 0 0 0-.5.461 6 6 0 0 1-11.964 0 .5.5 0 0 0-.5-.46H.5"/><path stroke="currentColor" stroke-linecap="round" stroke-linejoin="round" d="M15.213 1.524a.5.5 0 0 0-.761-.59C12.059 2.71 7.835 6.271 8.491 11.155a3.71 3.71 0 0 0 3.534 3.51 3.473 3.473 0 0 0 3.475-3.51c0-2.737-2.963-3.038-.287-9.63"/><path stroke="currentColor" d="M.75 15.22a.25.25 0 1 1 0-.5m0 .5a.25.25 0 1 0 0-.5m0 7.947a.25.25 0 1 1 0-.5m0 .5a.25.25 0 1 0 0-.5m6 .5a.25.25 0 1 1 0-.5m0 .5a.25.25 0 1 0 0-.5m8 .5a.25.25 0 1 1 0-.5m0 .5a.25.25 0 1 0 0-.5m6 .5a.25.25 0 1 1 0-.5m0 .5a.25.25 0 1 0 0-.5m0-6.945a.25.25 0 1 1 0-.5m0 .5a.25.25 0 1 0 0-.5M3.25 19.2a.25.25 0 0 1 0-.5m0 .5a.25.25 0 0 0 0-.5m6 .5a.25.25 0 0 1 0-.5m0 .5a.25.25 0 0 0 0-.5m8 .5a.25.25 0 0 1 0-.5m0 .5a.25.25 0 0 0 0-.5m6 .5a.25.25 0 0 1 0-.5m0 .5a.25.25 0 0 0 0-.5"/></svg>
