<svg xmlns="http://www.w3.org/2000/svg" viewBox="0 0 24 24"><path fill="none" stroke="currentColor" stroke-linecap="round" stroke-linejoin="round" d="M17.5 4v16c0 1.1-2.462 3-5.5 3s-5.5-1.9-5.5-3V4"/><path fill="none" stroke="currentColor" stroke-linecap="round" stroke-linejoin="round" d="M17.5 16c0 1.1-2.462 3-5.5 3s-5.5-1.9-5.5-3m11-4c0 1.1-2.462 3-5.5 3s-5.5-1.9-5.5-3m11-4c0 1.1-2.462 3-5.5 3S6.5 9.1 6.5 8m11 12 2-.5m-2-3.5 2-.5m-2-3.5 2-.5m-2-3.5 2-.5m-2-3.5 2-.5M6.5 20l-2-.5m2-3.5-2-.5m2-3.5-2-.5m2-3.5-2-.5m2-3.5-2-.5m10 19.07V6.673m-5 15.897V6.673M6.5 4a5.5 3 0 1 0 11 0 5.5 3 0 1 0-11 0"/></svg>
