<svg xmlns="http://www.w3.org/2000/svg" viewBox="0 0 24 24"><path fill="none" stroke="currentColor" stroke-linecap="round" stroke-linejoin="round" d="M13.563 7.744 18.56.909l1.345 2.611 2.896.49-3.838 5.249"/><path fill="none" stroke="currentColor" stroke-linecap="round" stroke-linejoin="round" d="M6.919 9.021a3.36 3.36 0 0 1-.327-3.961c1.035-1.49 3.322-1.69 5.11-.448A3.766 3.766 0 0 1 13.275 9.2M4.962.5c1.787 1.242 2.517 3.283 1.63 4.56s-3.055 1.3-4.842.063l2.068-1.99Z"/><path fill="none" stroke="currentColor" stroke-linecap="round" stroke-linejoin="round" d="M17.5 9a4.5 4.5 0 0 0-2.75.978 4.355 4.355 0 0 0-5.5 0A4.5 4.5 0 0 0 6.5 9C3.462 9 1 12.246 1 16.25s2.462 7.25 5.5 7.25a4.5 4.5 0 0 0 2.75-.978A5.3 5.3 0 0 0 12 23.5a4.5 4.5 0 0 0 2.75-.978 4.5 4.5 0 0 0 2.75.978c3.038 0 5.5-3.246 5.5-7.25S20.538 9 17.5 9"/><path fill="none" stroke="currentColor" stroke-linecap="round" stroke-linejoin="round" d="m8 18.187 2 1.313 2-2 2 2 2-1.313m-9.591-5.399a2 2 0 1 0 3.182 2.424Zm11.182 0a2 2 0 1 1-3.182 2.424Z"/></svg>
