<svg xmlns="http://www.w3.org/2000/svg" fill="none" viewBox="0 0 24 24"><path stroke="currentColor" stroke-linecap="round" stroke-linejoin="round" d="M23.5 15.5a2 2 0 0 1-2 2h-19a2 2 0 0 1-2-2v-5h23zm-23-5 5.707-5.707a1 1 0 0 1 .707-.293h10.172a1 1 0 0 1 .707.293L23.5 10.5"/><path stroke="currentColor" stroke-linecap="round" stroke-linejoin="round" d="M3.5 15.5a1 1 0 1 0 0-2 1 1 0 0 0 0 2m-1 2v1m19-1v1"/><path stroke="currentColor" d="M14 15a.25.25 0 1 1 0-.5m0 .5a.25.25 0 1 0 0-.5m3 .5a.25.25 0 1 1 0-.5m0 .5a.25.25 0 1 0 0-.5m3 .5a.25.25 0 1 1 0-.5m0 .5a.25.25 0 1 0 0-.5"/></svg>
