<svg xmlns="http://www.w3.org/2000/svg" fill="none" viewBox="0 0 24 24"><path stroke="currentColor" stroke-linecap="round" stroke-linejoin="round" d="M9 8.5a3 3 0 1 1 3.759 2.9.965.965 0 0 0-.759.92V14m3.999 7.998h1c1.933 0 3.499-1.067 3.499-3v-2.17"/><path stroke="currentColor" stroke-linecap="round" stroke-linejoin="round" d="M19.498 9a4 4 0 0 1 1.334 7.77 1 1 0 0 1-1.334-.941zM4.502 9a4 4 0 0 0-1.334 7.77 1 1 0 0 0 1.334-.941zm14.996 1.5v-2a7.498 7.498 0 0 0-14.996 0v2M11.5 20.998h4a.5.5 0 0 1 .499.5v1a.5.5 0 0 1-.5.5H11.5a1 1 0 1 1 0-2"/><path stroke="currentColor" d="M12 16.499a.25.25 0 1 1 0-.5m0 .5a.25.25 0 1 0 0-.5"/></svg>
