<svg xmlns="http://www.w3.org/2000/svg" fill="none" viewBox="0 0 24 24"><path stroke="currentColor" stroke-linecap="round" stroke-linejoin="round" stroke-miterlimit="10" d="M5.75 9.23c0-3.5 2.809-6.3 6.309-6.3 5.043 0 8.257 6.623 4.792 10.4-.2.3-.5.5-.7.7-1 .8-1.6 2.1-1.6 3.4 0 2.4-2 4.4-4.4 4.4a4.38 4.38 0 0 1-2.971-1.175"/><path stroke="currentColor" stroke-linecap="round" stroke-linejoin="round" stroke-miterlimit="10" d="M9.1 9.23a2.87 2.87 0 0 1 2.906-2.905 2.86 2.86 0 0 1 1.497.42"/><path stroke="currentColor" stroke-linecap="round" stroke-linejoin="round" d="m2.17 21.83 9.45-9.449M21.83 2.17l-4.303 4.304"/></svg>
