<svg xmlns="http://www.w3.org/2000/svg" fill="none" viewBox="0 0 24 24"><path stroke="currentColor" stroke-linecap="round" stroke-linejoin="round" d="m17.011 7.021 3.107-3.087m1.393.567a2 2 0 1 0 0-4 2 2 0 0 0 0 4M17.973 17.98l2.114 2.128m1.433 3.393a2 2 0 1 0 0-4 2 2 0 0 0 0 4M7.011 7.021 3.903 3.934m-1.392.567a2 2 0 1 0 0-4 2 2 0 0 0 0 4M6.049 17.98l-2.115 2.128M2.5 23.501a2 2 0 1 0 0-4 2 2 0 0 0 0 4m14.011-12h3m2 2a2 2 0 1 0 0-4 2 2 0 0 0 0 4m-14-2h-3m-2 2a2 2 0 1 0 0-4 2 2 0 0 0 0 4M9.02 10a3 3 0 1 1 4.2 2.75 2 2 0 0 0-1.2 1.834V15"/><path stroke="currentColor" d="M12 17.5a.25.25 0 1 1 0-.5m0 .5a.25.25 0 1 0 0-.5"/></svg>
