<svg xmlns="http://www.w3.org/2000/svg" viewBox="0 0 24 24"><path fill="none" stroke="currentColor" stroke-linecap="round" stroke-linejoin="round" d="M1.5 23.5V.5m5 1h15s1 0 1 1v15s0 1-1 1h-15s-1 0-1-1v-15s0-1 1-1m-5 3h4m-4 11h4"/><path fill="none" stroke="currentColor" stroke-linecap="round" stroke-linejoin="round" d="M19.5 8a.5.5 0 0 0-.5-.5h-2.5V5a.5.5 0 0 0-.5-.5h-4a.5.5 0 0 0-.5.5v2.5H9a.5.5 0 0 0-.5.5v4a.5.5 0 0 0 .5.5h2.5V15a.5.5 0 0 0 .5.5h4a.5.5 0 0 0 .5-.5v-2.5H19a.5.5 0 0 0 .5-.5Z"/></svg>
