<svg xmlns="http://www.w3.org/2000/svg" viewBox="0 0 24 24"><g fill="none" stroke="currentColor" stroke-linecap="round" stroke-linejoin="round"><path d="M10 9.5a2 2 0 1 0 4 0 2 2 0 1 0-4 0m6 6a4.13 4.13 0 0 0-8 0ZM10.5 2a1.5 1.5 0 1 0 3 0 1.5 1.5 0 1 0-3 0"/><path d="M10 5.5a2 2 0 0 1 4 0m6 6.5a1.5 1.5 0 1 0 3 0 1.5 1.5 0 1 0-3 0"/><path d="M19.5 15.5a2 2 0 0 1 4 0m-13 4.5a1.5 1.5 0 1 0 3 0 1.5 1.5 0 1 0-3 0"/><path d="M10 23.5a2 2 0 0 1 4 0M1 12a1.5 1.5 0 1 0 3 0 1.5 1.5 0 1 0-3 0"/><path d="M.5 15.5a2 2 0 0 1 4 0M15.86 5.37A9 9 0 0 1 19.81 9"/><path d="m16.81 8.03-.95-2.66 2.66-.95M6.8 9.25l-2.83.18-.18-2.82m3.42 12.18.72 2.74-2.74.71M17.23 18l2.8-.43.43 2.8"/><path d="M4 9.43a9 9 0 0 1 4-4m-.07 16.1a9.07 9.07 0 0 1-4-4m16.07.04a9.07 9.07 0 0 1-4 4"/></g></svg>
