<svg xmlns="http://www.w3.org/2000/svg" viewBox="0 0 24 24"><path fill="none" stroke="currentColor" stroke-linecap="round" stroke-linejoin="round" d="M11.5 23.5a5.78 5.78 0 0 1 6-6 5.78 5.78 0 0 1 6 6ZM13.502 12a4 4 0 1 0 8 0 4 4 0 1 0-8 0"/><path fill="none" stroke="currentColor" stroke-linecap="round" stroke-linejoin="round" d="M21.5 11.816a4.4 4.4 0 0 1-2.385.684 5.53 5.53 0 0 1-4.661-3.107M1.736 14.5h9.775m-9.377-10h15.247m-5.37 5H.502"/><path fill="none" stroke="currentColor" stroke-linecap="round" stroke-linejoin="round" d="M9.011 19A9.05 9.05 0 0 1 .5 9.756 9.263 9.263 0 0 1 18.43 6.5"/><path fill="none" stroke="currentColor" stroke-linecap="round" stroke-linejoin="round" d="M8.982.531C4.182 5.759 4.191 12.574 9.011 19M10.541.533A12.97 12.97 0 0 1 13.88 7.5"/></svg>
