<svg xmlns="http://www.w3.org/2000/svg" viewBox="0 0 24 24"><path fill="none" stroke="currentColor" stroke-linecap="round" stroke-linejoin="round" d="M12.479.787 13.506 3.5h2a.49.49 0 0 1 .346.855l-1.736 1.211.962 2.209a.523.523 0 0 1-.746.654l-2.325-1.307-2.324 1.307a.523.523 0 0 1-.746-.654L9.9 5.566 8.163 4.355a.489.489 0 0 1 .343-.855h2l1.03-2.713a.531.531 0 0 1 .943 0M7.5 8.939l-.9.627.962 2.209a.523.523 0 0 1-.746.654l-2.323-1.307-2.324 1.307a.523.523 0 0 1-.746-.654l.961-2.209L.649 8.355A.489.489 0 0 1 .992 7.5h2l1.03-2.713a.531.531 0 0 1 .943 0L5.992 7.5H7m9.5 1.439.9.627-.962 2.209a.523.523 0 0 0 .746.654l2.325-1.307 2.324 1.307a.523.523 0 0 0 .746-.654l-.961-2.209 1.735-1.211a.489.489 0 0 0-.343-.855h-2l-1.03-2.713a.531.531 0 0 0-.943 0L18.008 7.5H17M16.265 19a4.73 4.73 0 0 1-.687-2.618v-.7a3.683 3.683 0 1 0-7.366 0v.7A4.73 4.73 0 0 1 7.525 19"/><path fill="none" stroke="currentColor" stroke-linecap="round" stroke-linejoin="round" d="M8.212 15.92a4.88 4.88 0 0 0 3.688-1.689 4.88 4.88 0 0 0 3.683 1.689"/><path fill="none" stroke="currentColor" stroke-linecap="round" stroke-linejoin="round" d="M15.141 15.9a3.25 3.25 0 0 1-6.492 0m8.129 7.6a5.472 5.472 0 0 0-9.764 0"/></svg>
