<svg xmlns="http://www.w3.org/2000/svg" viewBox="0 0 24 24"><path fill="none" stroke="currentColor" stroke-linecap="round" stroke-linejoin="round" d="M11.999 3.551v10m-2-9 2 2 2-2m-4 8 2-2 2 2m-7-4h10m-9 2 2-2-2-2m8 4-2-2 2-2M.5 19.051l.866 1.039a1 1 0 0 0 1.536 0l.964-1.157a1 1 0 0 1 1.536 0l.964 1.157a1 1 0 0 0 1.536 0l.964-1.157a1 1 0 0 1 1.536 0l.964 1.157a1 1 0 0 0 1.536 0l.964-1.157a1 1 0 0 1 1.536 0l.964 1.157a1 1 0 0 0 1.536 0l.964-1.157a1 1 0 0 1 1.536 0l.964 1.157a1 1 0 0 0 1.536 0l.6-.72M.5 15.551l.866 1.039a1 1 0 0 0 1.536 0l.964-1.157a1 1 0 0 1 1.536 0l.964 1.157a1 1 0 0 0 1.536 0l.964-1.157a1 1 0 0 1 1.536 0l.964 1.157a1 1 0 0 0 1.536 0l.964-1.157a1 1 0 0 1 1.536 0l.964 1.157a1 1 0 0 0 1.536 0l.964-1.157a1 1 0 0 1 1.536 0l.964 1.157a1 1 0 0 0 1.536 0l.593-.712m-6.63-2.429a1 1 0 0 0 .768-.359l.964-1.157a1 1 0 0 1 1.536 0l.967 1.157a1 1 0 0 0 1.536 0l.866-1.039M.5 12.028l.866 1.039a1 1 0 0 0 1.536 0l.964-1.157a1 1 0 0 1 1.536 0l.964 1.157a1 1 0 0 0 .768.359"/></svg>
