<svg xmlns="http://www.w3.org/2000/svg" viewBox="0 0 24 24"><path fill="none" stroke="currentColor" stroke-linecap="round" stroke-linejoin="round" d="M20.5 23.5a1 1 0 0 0 1-1V6.475A5.975 5.975 0 0 0 15.525.5H3.5a1 1 0 0 0-1 1v21a1 1 0 0 0 1 1Z"/><path fill="none" stroke="currentColor" stroke-linecap="round" stroke-linejoin="round" d="M16.5.58V4.5a1 1 0 0 0 1 1h3.92m-12.92 7V17a1.5 1.5 0 0 1-3 0m8-3a1.5 1.5 0 0 1-1.5 1.5h-1.5v-3H12a1.5 1.5 0 0 1 1.5 1.5m-3 4.5v-3m8-1V14a1.5 1.5 0 0 0-3 0v3a1.5 1.5 0 0 0 3 0v-.5h-1"/></svg>
