<svg xmlns="http://www.w3.org/2000/svg" viewBox="0 0 24 24"><path fill="none" stroke="currentColor" stroke-linecap="round" stroke-linejoin="round" d="M20.5 23.5a1 1 0 0 0 1-1V6.475A5.975 5.975 0 0 0 15.525.5H3.5a1 1 0 0 0-1 1v21a1 1 0 0 0 1 1Z"/><path fill="none" stroke="currentColor" stroke-linecap="round" stroke-linejoin="round" d="M16.5.58V4.5a1 1 0 0 0 1 1h3.92M8.5 18.5h-2a1 1 0 0 1-1-1v-4a1 1 0 0 1 1-1h2m-3 3h2m6-1.5a1.5 1.5 0 0 1-1.5 1.5h-1.5v-3H12a1.5 1.5 0 0 1 1.5 1.5m-3 4.5v-3m8-3h-1.7a1.3 1.3 0 0 0-.723 2.387l1.84 1.226A1.3 1.3 0 0 1 17.2 18.5h-1.7"/></svg>
