<svg xmlns="http://www.w3.org/2000/svg" viewBox="0 0 24 24"><g fill="none" stroke="currentColor" stroke-linecap="round" stroke-linejoin="round"><path d="M12.87 22.31a1.7 1.7 0 0 0 1 1 1.73 1.73 0 0 0 1.42-.17 10 10 0 0 0 1.87-1.48 10.5 10.5 0 1 0-16.29-13 1.71 1.71 0 0 0-.16 1.43 1.67 1.67 0 0 0 1 1"/><path d="M2 12.8a1.5 1.5 0 0 1 1.73-2.4 23.9 23.9 0 0 1 9.86 9.85 1.5 1.5 0 1 1-2.68 1.35c-2.99-5.96-8.6-8.5-8.91-8.8m12.38-5.68a3.5 3.5 0 1 0 7 0 3.5 3.5 0 1 0-7 0m2 11a3.5 3.5 0 1 0 7 0 3.5 3.5 0 1 0-7 0m-13-14a3.5 3.5 0 1 0 7 0 3.5 3.5 0 1 0-7 0"/></g></svg>
