<svg xmlns="http://www.w3.org/2000/svg" viewBox="0 0 24 24"><path fill="none" stroke="currentColor" stroke-linecap="round" stroke-linejoin="round" d="M1 16.5h22v3H1Zm21 3v3a1 1 0 0 1-1 1h-2a1 1 0 0 1-1-1v-3m0-3v-15a1 1 0 0 1 1-1h2a1 1 0 0 1 1 1v15m-4 3v3a1 1 0 0 1-1 1h-2a1 1 0 0 1-1-1v-3m0-3v-12a1 1 0 0 1 1-1h2a1 1 0 0 1 1 1v12m-4 3v3a1 1 0 0 1-1 1h-2a1 1 0 0 1-1-1v-3m0-3v-9a1 1 0 0 1 1-1h2a1 1 0 0 1 1 1v9m-4 3v3a1 1 0 0 1-1 1H7a1 1 0 0 1-1-1v-3m0-3v-6a1 1 0 0 1 1-1h2a1 1 0 0 1 1 1v6m-4 3v3a1 1 0 0 1-1 1H3a1 1 0 0 1-1-1v-3m0-3v-3a1 1 0 0 1 1-1h2a1 1 0 0 1 1 1v3"/></svg>
