<svg xmlns="http://www.w3.org/2000/svg" fill="none" viewBox="0 0 24 24"><path stroke="currentColor" stroke-linecap="round" stroke-linejoin="round" d="M18.5.5h-13a5 5 0 0 0-5 5v13a5 5 0 0 0 5 5h13a5 5 0 0 0 5-5v-13a5 5 0 0 0-5-5"/><path stroke="currentColor" stroke-linecap="round" stroke-linejoin="round" d="M12 16a4 4 0 1 0 0-8 4 4 0 0 0 0 8"/><path stroke="currentColor" stroke-linecap="round" stroke-linejoin="round" d="M16 4H8a4 4 0 0 0-4 4v8a4 4 0 0 0 4 4h8a4 4 0 0 0 4-4V8a4 4 0 0 0-4-4"/><path stroke="currentColor" d="M17 8a.5.5 0 0 1 0-1m0 1a.5.5 0 0 0 0-1"/></svg>
