<svg xmlns="http://www.w3.org/2000/svg" viewBox="0 0 24 24"><path fill="none" stroke="currentColor" stroke-linecap="round" stroke-linejoin="round" d="M15.643 9a.5.5 0 0 0-.5-.5h-2.5V6a.5.5 0 0 0-.5-.5h-2a.5.5 0 0 0-.5.5v2.5h-2.5a.5.5 0 0 0-.5.5v2a.5.5 0 0 0 .5.5h2.5V14a.5.5 0 0 0 .5.5h2a.5.5 0 0 0 .5-.5v-2.5h2.5a.5.5 0 0 0 .5-.5Z"/><path fill="none" stroke="currentColor" stroke-linecap="round" stroke-linejoin="round" d="M15.643 23.5v-3.477c2 .011 3.018-.133 3.719-.835.9-.9.813-4.688.813-4.688s.853.032 1.5.006a.75.75 0 0 0 .575-.307 1.17 1.17 0 0 0 .1-.63c.116-1.606-2.145-4.362-2.145-5.163C20.207 3.375 15.456.5 11.143.5a9.41 9.41 0 0 0-9.5 9.563c0 3.043 1 5.9 4 7.677v5.76"/></svg>
