<svg xmlns="http://www.w3.org/2000/svg" fill="none" viewBox="0 0 24 24"><path stroke="currentColor" stroke-linecap="round" stroke-linejoin="round" d="M.5 3.5v-2a1 1 0 0 1 1-1h2m20 3v-2a1 1 0 0 0-1-1h-2m-20 20v2a1 1 0 0 0 1 1h2m20-3v2a1 1 0 0 1-1 1h-2m-8.5-8a3.5 3.5 0 1 0 0-7 3.5 3.5 0 0 0 0 7"/><path stroke="currentColor" stroke-linecap="round" stroke-linejoin="round" d="M21.857 12S17.571 18 12 18s-9.857-6-9.857-6S6.429 6 12 6s9.857 6 9.857 6"/><path stroke="currentColor" d="M12 12.25a.25.25 0 1 1 0-.5m0 .5a.25.25 0 1 0 0-.5"/></svg>
