<svg xmlns="http://www.w3.org/2000/svg" viewBox="0 0 24 24"><path fill="none" stroke="currentColor" stroke-linecap="round" stroke-linejoin="round" d="M2.5 8.761a8.261 8.261 0 1 0 16.522 0 8.261 8.261 0 1 0-16.522 0m19 10.739-4.898-4.898M10.5 13v2"/><path fill="none" stroke="currentColor" stroke-linecap="round" stroke-linejoin="round" d="M14.19 13.5A3.805 3.805 0 0 0 10.5 11a3.81 3.81 0 0 0-3.69 2.5m-.31 5h1.813l.437 5h3.5l.438-5H14.5M7.915 4.977a4.99 4.99 0 0 0 5.558 1.117"/><path fill="none" stroke="currentColor" stroke-linecap="round" stroke-linejoin="round" d="M7.5 6.5a3 3 0 1 0 6 0 3 3 0 1 0-6 0"/></svg>
