<svg xmlns="http://www.w3.org/2000/svg" viewBox="0 0 24 24"><path fill="none" stroke="currentColor" stroke-linecap="round" stroke-linejoin="round" d="m.5 21.554 5.648.912a5.24 5.24 0 0 0 3.394-.685l5.914-3.516a1.743 1.743 0 0 0 .607-2.389h0a1.743 1.743 0 0 0-2.389-.607l-4.619 2.746"/><path fill="none" stroke="currentColor" stroke-linecap="round" stroke-linejoin="round" d="m.5 17.019 2.4-1.426a5.23 5.23 0 0 1 2.944-.728l2.388.124A1.627 1.627 0 0 1 9.849 16.7h0a1.63 1.63 0 0 1-1.506 1.539l-3.05-.015M7.4 12.9V5.855a2.01 2.01 0 0 1 2.01-2.012h12.077A2.01 2.01 0 0 1 23.5 5.855V12.9a2.013 2.013 0 0 1-2.013 2.013h-3.38M7.398 7.868h7.028m2.046 0H23.5"/><path fill="none" stroke="currentColor" stroke-linecap="round" stroke-linejoin="round" d="M18.468 3.843H12.43l.363-1.7a.966.966 0 0 1 .992-.657h3.327a.97.97 0 0 1 .993.657Zm-3.539 3.234h1.039s.503 0 .503.503v1.628s0 .503-.503.503h-1.039s-.503 0-.503-.503V7.58s0-.503.503-.503"/></svg>
