<svg xmlns="http://www.w3.org/2000/svg" viewBox="0 0 24 24"><path fill="none" stroke="currentColor" stroke-linecap="round" stroke-linejoin="round" d="M7.5 19.5h2m4.5 2.005H2A1.51 1.51 0 0 1 .5 20V2A1.505 1.505 0 0 1 2 .5h13A1.5 1.5 0 0 1 16.5 2v13.5"/><path fill="none" stroke="currentColor" stroke-linecap="round" stroke-linejoin="round" d="M15.231 17.5H3a.5.5 0 0 1-.5-.5V3a.5.5 0 0 1 .5-.5h11a.5.5 0 0 1 .5.5v10.937m9 9.563-3-4v-4.559c0-1.694-2.081-3.3-4-4.941"/><path fill="none" stroke="currentColor" stroke-linecap="round" stroke-linejoin="round" d="m17.5 16.5-2.25-2.25a1.06 1.06 0 0 0-1.5 0 1.25 1.25 0 0 0 0 1.5L16.5 19v1c0 1 2 3.5 2 3.5m-13-11h6m-6-3h6m-6-3h4"/></svg>
