<svg xmlns="http://www.w3.org/2000/svg" viewBox="0 0 24 24"><path fill="none" stroke="currentColor" stroke-linecap="round" stroke-linejoin="round" d="m17.872 6.126-4.949 4.951m3.182-6.719-4.949 4.95m8.486-1.413-4.95 4.949M23.5 8.426a.5.5 0 0 0-.146-.353L15.927.646a.5.5 0 0 0-.707 0L9.548 6.322a2 2 0 0 0-.571 1.656l.53 4.346a2.48 2.48 0 0 0 2.169 2.169l4.346.53a2 2 0 0 0 1.656-.571l5.676-5.672a.5.5 0 0 0 .146-.354"/><path fill="none" stroke="currentColor" stroke-linecap="round" stroke-linejoin="round" d="M9.513 12.366.939 20.939a1.5 1.5 0 0 0 2.122 2.122l8.573-8.574m-7.513 3.27 2.122 2.122"/></svg>
