<svg xmlns="http://www.w3.org/2000/svg" viewBox="0 0 24 24"><g fill="none" stroke="currentColor" stroke-linecap="round" stroke-linejoin="round"><path d="M12.41 11.79c.63-.53 1.26-1.08 1.88-1.66a.48.48 0 0 0 .16-.35.55.55 0 0 0-.14-.37l-3.17-3.17L8.37 9m10.19-5.94A1.5 1.5 0 0 0 16.44.94l-5.3 5.3 2.12 2.12Zm-2.1 14.76c.79-.64 1.57-1.32 2.33-2a.48.48 0 0 0 .16-.36.54.54 0 0 0-.14-.36l-3.17-3.2L14 13.54m9.06-4.82a1.5 1.5 0 0 0-2.12-2.12l-5.3 5.3 2.12 2.1Z"/><path d="M.5 22.5a1 1 0 0 0 1 1h15a1 1 0 0 0 .73-.32 1 1 0 0 0 .27-.75A16 16 0 0 0 1.5 7.5a1 1 0 0 0-1 1ZM4 16l4-4m.5 8.5 4-4"/></g></svg>
