<svg xmlns="http://www.w3.org/2000/svg" viewBox="0 0 24 24"><path fill="none" stroke="currentColor" stroke-linecap="round" stroke-linejoin="round" d="M6.762 6.15a5.95 5.95 0 0 1-2.608.521.5.5 0 0 0-.466.7l2.582 5.741a.494.494 0 0 0 .831.115 5.9 5.9 0 0 1 2.121-1.6l9.652-4.339a3.075 3.075 0 0 0 1.8-3.447 3 3 0 0 0-4.158-2.072Zm.487 14.35a2 2 0 0 1-4 0c0-.79 1.023-2.24 1.605-3a.5.5 0 0 1 .789 0c.583.76 1.606 2.21 1.606 3m1.696-8.753-1.23-2.736m3.967 1.506-.821-1.825m3.557.595-1.231-2.736m3.967 1.506-.82-1.825"/></svg>
