<svg xmlns="http://www.w3.org/2000/svg" viewBox="0 0 24 24"><path fill="none" stroke="currentColor" stroke-linecap="round" stroke-linejoin="round" d="M10 13.5a1 1 0 1 0 2 0 1 1 0 1 0-2 0m2-3.5a1 1 0 1 0 2 0 1 1 0 1 0-2 0m-1 9a1 1 0 1 0 2 0 1 1 0 1 0-2 0"/><path fill="none" stroke="currentColor" stroke-linecap="round" stroke-linejoin="round" d="M16.286.5H7.714a.5.5 0 0 0-.466.669A14 14 0 0 1 8 5.692v13.636a4.116 4.116 0 0 0 3.607 4.153A4 4 0 0 0 16 19.5V5.692a14 14 0 0 1 .752-4.523.5.5 0 0 0-.466-.669M8 6.5h8"/></svg>
