<svg xmlns="http://www.w3.org/2000/svg" viewBox="0 0 24 24"><path fill="none" stroke="currentColor" stroke-linecap="round" stroke-linejoin="round" d="M16.5 11.5V16l-3.06 2.678a2.75 2.75 0 0 0-.94 2.071h0a2.75 2.75 0 0 0 2.749 2.751h5.5a2.75 2.75 0 0 0 2.75-2.75h0a2.75 2.75 0 0 0-.939-2.07L19.5 16v-4.5"/><path fill="none" stroke="currentColor" stroke-linecap="round" stroke-linejoin="round" d="m12.59 21.446 2.043-1.013a3.9 3.9 0 0 1 3.679.1h0a3.9 3.9 0 0 0 3.471.2l1.617-.713m-12.9.48h-9a1 1 0 0 1-1-1v-15a1 1 0 0 1 1-1h3m8 0h3a1 1 0 0 1 1 1v5"/><path fill="none" stroke="currentColor" stroke-linecap="round" stroke-linejoin="round" d="M10.5 2.5a2 2 0 0 0-4 0H5a.5.5 0 0 0-.5.5v3a.5.5 0 0 0 .5.5h7a.5.5 0 0 0 .5-.5V3a.5.5 0 0 0-.5-.5Zm4.5 9h6m-16-2h7m-7 3h4.25"/><path fill="none" stroke="currentColor" stroke-linecap="round" stroke-linejoin="round" d="M12 17.5H2.5v-12h2m8 0h2v4"/></svg>
