<svg xmlns="http://www.w3.org/2000/svg" viewBox="0 0 24 24"><path fill="none" stroke="currentColor" stroke-linecap="round" stroke-linejoin="round" d="M11.816 15V.5m-4 10.5 4 4 4-4"/><path fill="none" stroke="currentColor" stroke-linecap="round" stroke-linejoin="round" d="M19.814 19.5v-9.333A1.667 1.667 0 0 0 18.147 8.5h-3.833m-5 0H5.481a1.667 1.667 0 0 0-1.667 1.667V19.5m11.5 0c0 1.1-1.567 2-3.5 2s-3.5-.9-3.5-2H1.5a.5.5 0 0 0-.464.686 5.28 5.28 0 0 0 4.9 3.314h11.755a5.28 5.28 0 0 0 4.9-3.314.5.5 0 0 0-.464-.686Z"/></svg>
