<svg xmlns="http://www.w3.org/2000/svg" fill="none" viewBox="0 0 24 24"><path stroke="currentColor" stroke-linecap="round" stroke-linejoin="round" d="M20.5 11.5V2.167A1.667 1.667 0 0 0 18.833.5H5.167A1.667 1.667 0 0 0 3.5 2.167V13.5m8 4H5.623a5.28 5.28 0 0 1-5.123-4h13"/><path stroke="currentColor" d="M17.5 21a.25.25 0 1 1 0-.5m0 .5a.25.25 0 1 0 0-.5"/><path stroke="currentColor" stroke-linecap="round" stroke-linejoin="round" d="M17.5 18.5v-3m.838-3a.95.95 0 0 0-1.676 0l-5.056 9.635a.923.923 0 0 0 .376 1.243c.141.078.3.12.462.12h10.112a.95.95 0 0 0 .807-.449.92.92 0 0 0 .031-.914z"/></svg>
