<svg xmlns="http://www.w3.org/2000/svg" fill="none" viewBox="0 0 24 24"><path stroke="currentColor" stroke-linecap="round" stroke-linejoin="round" d="M9 7.5H5.167A1.667 1.667 0 0 0 3.5 9.168V20.5m17 .001v-6.5"/><path stroke="currentColor" stroke-linecap="round" stroke-linejoin="round" d="M23.5 20.5a3 3 0 0 1-3 3h-17a3 3 0 0 1-3-3zM16 5.5A1.5 1.5 0 1 1 17.5 7"/><path stroke="currentColor" stroke-linecap="round" stroke-linejoin="round" d="M17.433.5A5.954 5.954 0 0 0 11.5 6.567a5.94 5.94 0 0 0 .781 3.193L10.5 13.5l3.741-1.782A6.064 6.064 0 1 0 17.433.5"/><path stroke="currentColor" d="M17.5 9a.25.25 0 1 1 0-.5m0 .5a.25.25 0 1 0 0-.5"/></svg>
