<svg xmlns="http://www.w3.org/2000/svg" viewBox="0 0 24 24"><path fill="none" stroke="currentColor" stroke-linecap="round" stroke-linejoin="round" d="M5.5 1h13s2 0 2 2v8s0 2-2 2h-13s-2 0-2-2V3s0-2 2-2"/><path fill="none" stroke="currentColor" stroke-linecap="round" stroke-linejoin="round" d="M23.427 21.293A1.28 1.28 0 0 1 22.219 23H1.781a1.28 1.28 0 0 1-1.208-1.707l2.261-6.407A2.83 2.83 0 0 1 5.5 13h13a2.825 2.825 0 0 1 2.665 1.886Z"/><path fill="none" stroke="currentColor" stroke-linecap="round" stroke-linejoin="round" d="M15.5 23h-7l1-3h5zM5.495 16h1m2 0h1m5 0h1m2 0h1m-7 0h1m-8 2h1m2 0h9m2 0h1"/></svg>
