<svg xmlns="http://www.w3.org/2000/svg" viewBox="0 0 24 24"><path fill="none" stroke="currentColor" stroke-linecap="round" stroke-linejoin="round" d="M23 23.5a.5.5 0 0 0 .5-.5v-3.932a.5.5 0 0 0-.606-.491c-1.34.367-1.539 1.923-3.232 1.923-1.919 0-1.919-2-3.838-2s-1.916 2-3.832 2-1.915-2-3.83-2-1.915 2-3.831 2c-1.689 0-1.888-1.555-3.225-1.923a.5.5 0 0 0-.606.491V23a.5.5 0 0 0 .5.5Zm-.5-17-.01.012a4.23 4.23 0 0 0-.79 3.276 4.3 4.3 0 0 1-.115 2.571l-.659 1.648a1.555 1.555 0 0 1-1.738.985 1.5 1.5 0 0 1-1.078-2.024l.585-1.462a1.77 1.77 0 0 0 .058-1.144l-.11-.385a1.77 1.77 0 0 0-2.808-.9l-2 1.6a6.7 6.7 0 0 0-2.176 3.12L10.923 16a1.5 1.5 0 0 1-2.846-.949l.733-2.2a9.7 9.7 0 0 1 3.02-4.4 9.9 9.9 0 0 0-3.173.874 4.01 4.01 0 0 0-1.977 3.392 1.5 1.5 0 0 1-2.993-.217 8.47 8.47 0 0 1 3.558-6.313L2.63 7.726a1.5 1.5 0 0 1-1.958-1.2 1.556 1.556 0 0 1 1.085-1.671l4.425-1.766A21.5 21.5 0 0 1 15.473 1.5h0a4.96 4.96 0 0 0 2.95-1"/><path fill="none" stroke="currentColor" stroke-linecap="round" stroke-linejoin="round" d="M7.245 6.187a5.8 5.8 0 0 1 2.408-.846"/></svg>
