<svg xmlns="http://www.w3.org/2000/svg" viewBox="0 0 24 24"><path fill="none" stroke="currentColor" stroke-linecap="round" stroke-linejoin="round" d="M12.2 11.413a.5.5 0 0 1-.4 0L1.555 6.958a.5.5 0 0 1 0-.917L11.8 1.586a.5.5 0 0 1 .4 0l10.245 4.455a.5.5 0 0 1 0 .917Z"/><path fill="none" stroke="currentColor" stroke-linecap="round" stroke-linejoin="round" d="m17.175 9.25 5.27 2.292a.5.5 0 0 1 0 .917L12.2 16.914a.5.5 0 0 1-.4 0L1.555 12.459a.5.5 0 0 1 0-.917l5.27-2.292"/><path fill="none" stroke="currentColor" stroke-linecap="round" stroke-linejoin="round" d="m17.175 14.75 5.27 2.292a.5.5 0 0 1 0 .917L12.2 22.414a.5.5 0 0 1-.4 0L1.555 17.959a.5.5 0 0 1 0-.917l5.27-2.292"/></svg>
