<svg xmlns="http://www.w3.org/2000/svg" viewBox="0 0 24 24"><path fill="none" stroke="currentColor" stroke-linecap="round" stroke-linejoin="round" d="M4.419.5a1 1 0 0 0-.942 1.336l1.786 5a1 1 0 0 0 .942.664H17.8a1 1 0 0 0 .942-.664l1.786-5A1 1 0 0 0 19.581.5Z"/><path fill="none" stroke="currentColor" stroke-linecap="round" stroke-linejoin="round" d="M7.5 7.5h9v4h-9Zm1 14v1a1 1 0 0 0 1 1h5a1 1 0 0 0 1-1v-1Zm-1-8v5m3-5v5m3-5v5m3-5v5"/><path fill="none" stroke="currentColor" stroke-linecap="round" stroke-linejoin="round" d="M6.5 11.5h11s1 0 1 1v8s0 1-1 1h-11s-1 0-1-1v-8s0-1 1-1"/></svg>
