<svg xmlns="http://www.w3.org/2000/svg" viewBox="0 0 24 24"><path fill="none" stroke="currentColor" stroke-linecap="round" stroke-linejoin="round" d="m19.491 15.106 2.4-2.4a1 1 0 0 0 0-1.414l-2.4-2.4V5.5a1 1 0 0 0-1-1H15.1l-2.4-2.4a1 1 0 0 0-1.414 0l-2.4 2.4H5.491a1 1 0 0 0-1 1v3.394l-2.4 2.4a1 1 0 0 0 0 1.414l2.4 2.4V18.5a1 1 0 0 0 1 1h3.394l2.4 2.4a1 1 0 0 0 1.414 0l2.4-2.4h3.394a1 1 0 0 0 1-1Z"/><path fill="none" stroke="currentColor" stroke-linecap="round" stroke-linejoin="round" d="M11.491 6c4 0 6 2.686 6 6s-2 6-6 6Z"/></svg>
