<svg xmlns="http://www.w3.org/2000/svg" viewBox="0 0 24 24"><path fill="none" stroke="currentColor" stroke-linecap="round" stroke-linejoin="round" d="M11 2a1 1 0 1 1 2 0v3a1 1 0 1 1-2 0ZM4.382 5.753A1 1 0 0 1 5.8 4.338l2.118 2.121a1 1 0 1 1-1.413 1.415ZM1 12a1 1 0 0 1 1-1h3a1 1 0 0 1 0 2H2a1 1 0 0 1-1-1m3.129 7.852a1 1 0 0 1 0-1.415l2.12-2.122a1 1 0 1 1 1.415 1.414l-2.121 2.122a1 1 0 0 1-1.414.001M11 19a1 1 0 0 1 2 0v3a1 1 0 0 1-2 0Zm5.4-1.226a1 1 0 0 1 1.416-1.416l2.122 2.12a1 1 0 0 1-1.411 1.422ZM18 12a1 1 0 0 1 1-1h3a1 1 0 0 1 0 2h-3a1 1 0 0 1-1-1m-1.782-4.262a1 1 0 0 1 0-1.416L18.337 4.2a1 1 0 0 1 1.416 1.416l-2.121 2.122a1 1 0 0 1-1.414 0"/></svg>
