<svg xmlns="http://www.w3.org/2000/svg" fill="none" viewBox="0 0 24 24"><path stroke="currentColor" stroke-linecap="round" stroke-linejoin="round" d="M21.5 5.5h-19a2 2 0 0 0-2 2v12a2 2 0 0 0 2 2h19a2 2 0 0 0 2-2v-12a2 2 0 0 0-2-2m-13 0V4A1.5 1.5 0 0 1 10 2.5h4A1.5 1.5 0 0 1 15.5 4v1.5"/><path stroke="currentColor" stroke-linecap="round" stroke-linejoin="round" d="M15 11a3 3 0 0 0-2.6 1.5H6.5L5 14l1.5 1.5h5.9A3 3 0 1 0 15 11"/><path stroke="currentColor" d="M15 14.25a.25.25 0 1 1 0-.5m0 .5a.25.25 0 1 0 0-.5"/></svg>
