<svg xmlns="http://www.w3.org/2000/svg" viewBox="0 0 24 24"><path fill="none" stroke="currentColor" stroke-linecap="round" stroke-linejoin="round" d="M4 17.5V15a.5.5 0 0 1 .5-.5h15a.5.5 0 0 1 .5.5v2.5m-8-6v6"/><path fill="none" stroke="currentColor" stroke-linecap="round" stroke-linejoin="round" d="M1 20.5a3 3 0 1 0 6 0 3 3 0 1 0-6 0m8 0a3 3 0 1 0 6 0 3 3 0 1 0-6 0m8 0a3 3 0 1 0 6 0 3 3 0 1 0-6 0m0-10a1 1 0 0 1-1 1H8a1 1 0 0 1-1-1v-5a1 1 0 0 1 1-1h8a1 1 0 0 1 1 1Z"/><path fill="none" stroke="currentColor" stroke-linecap="round" stroke-linejoin="round" d="M11 8a1 1 0 1 0 2 0 1 1 0 1 0-2 0m4-3.5v-1a3 3 0 0 0-6 0v1"/></svg>
