<svg xmlns="http://www.w3.org/2000/svg" viewBox="0 0 24 24"><path fill="none" stroke="currentColor" stroke-linecap="round" stroke-linejoin="round" d="M22.5.53a1 1 0 0 1 1 1l-.008 7.57a14.7 14.7 0 0 1-11.435 14.43A14.7 14.7 0 0 1 .492 9.207l.013-7.672a1 1 0 0 1 1-1Z"/><path fill="none" stroke="currentColor" stroke-linecap="round" stroke-linejoin="round" d="M16.516 14.51a1 1 0 0 1-1 1.005l-7 .031a1 1 0 0 1-1-.995l-.027-5.874a1 1 0 0 1 1-1l7-.031a1 1 0 0 1 1 .995Zm-4.55-10.98A3 3 0 0 0 8.98 6.544V7.67l6-.027V6.517a3 3 0 0 0-3.014-2.987"/><path fill="none" stroke="currentColor" stroke-linecap="round" stroke-linejoin="round" d="M10.753 11.593a1.25 1.25 0 1 0 2.5 0 1.25 1.25 0 1 0-2.5 0"/></svg>
