<svg xmlns="http://www.w3.org/2000/svg" viewBox="0 0 24 24"><path fill="none" stroke="currentColor" stroke-linecap="round" stroke-linejoin="round" d="M.5 23.5V.5m0 19a21.8 21.8 0 0 1 6-1c3 0 7.5 2 10.5 2a18.5 18.5 0 0 0 5.849-1.244 1 1 0 0 0 .651-.938V4.44a1 1 0 0 0-1.321-.947A17.4 17.4 0 0 1 17 4.5c-3 0-7.5-2-10.5-2a21.8 21.8 0 0 0-6 1Z"/><path fill="none" stroke="currentColor" stroke-linecap="round" stroke-linejoin="round" d="M12.846 15.139a.477.477 0 0 1-.692 0l-3.063-3.195a2.02 2.02 0 0 1-.378-2.328h0a2.017 2.017 0 0 1 3.23-.524l.557.557.557-.557a2.017 2.017 0 0 1 3.23.524h0a2.02 2.02 0 0 1-.378 2.328Z"/></svg>
