<svg xmlns="http://www.w3.org/2000/svg" viewBox="0 0 24 24"><path fill="none" stroke="currentColor" stroke-linecap="round" stroke-linejoin="round" d="M16.707 19.5a.5.5 0 0 0-.353.146l-1.708 1.708a.5.5 0 0 1-.353.146H9.707a.5.5 0 0 1-.353-.146l-1.708-1.708a.5.5 0 0 0-.353-.146H1a.5.5 0 0 0-.5.5v.5c0 2.209 1.79 3 4 3h15c2.209 0 4-.791 4-3V20a.5.5 0 0 0-.5-.5Zm-13.421 0a11.5 11.5 0 1 1 17.432 0"/><path fill="none" stroke="currentColor" stroke-linecap="round" stroke-linejoin="round" d="M16.976 19.5a9 9 0 1 0-9.953 0"/></svg>
