<svg xmlns="http://www.w3.org/2000/svg" viewBox="0 0 24 24"><path fill="none" stroke="currentColor" stroke-linecap="round" stroke-linejoin="round" d="m8.61 11.147 5.658 5.657a.5.5 0 0 1 0 .707l-4.95 4.95a1 1 0 0 1-1.414 0l-4.95-4.95a1 1 0 0 1 0-1.414l4.95-4.95a.5.5 0 0 1 .707 0"/><path fill="none" stroke="currentColor" stroke-linecap="round" stroke-linejoin="round" d="m8.964 11.5 3.89-3.889a.5.5 0 0 1 .707 0l4.239 4.243a.5.5 0 0 1 0 .707l-3.886 3.889"/><path fill="none" stroke="currentColor" stroke-linecap="round" stroke-linejoin="round" d="m13.914 7.964 6.571-6.571a.5.5 0 0 1 .854.354V7.2a1 1 0 0 1-.293.707l-3.6 3.6m-4.239-1.421L11.793 11.5"/></svg>
