<svg xmlns="http://www.w3.org/2000/svg" viewBox="0 0 24 24"><path fill="none" stroke="currentColor" stroke-linecap="round" stroke-linejoin="round" d="m8 18-5 5a1.51 1.51 0 0 1-2.06 0 1.49 1.49 0 0 1 0-2.12l5-5m-1.8-1.75 5.66 5.65m8.16-15.94 2.13 2.12m-2 9.93L3.21 1a1.51 1.51 0 0 0-2.12 0 1.49 1.49 0 0 0 0 2.12L16 18m0 0 5 5a1.51 1.51 0 0 0 2.12 0 1.49 1.49 0 0 0 0-2.12l-5-5m1.74-1.75-5.66 5.65M6.04 3.84 3.91 5.96M12 14.05l-3.97 3.96m5.5-9.73L20.79 1a1.51 1.51 0 0 1 2.12 0 1.49 1.49 0 0 1 0 2.12l-7.26 7.28m-9.74 5.49 3.97-3.96m-8.65 8.65h4.24m-2.13-2.12h4.25m15.18 2.12h-4.24m2.13-2.12h-4.25"/></svg>
