<svg xmlns="http://www.w3.org/2000/svg" viewBox="0 0 24 24"><path fill="none" stroke="currentColor" stroke-linecap="round" stroke-linejoin="round" d="M4 9.5a8 9 0 1 0 16 0 8 9 0 1 0-16 0"/><path fill="none" stroke="currentColor" stroke-linecap="round" stroke-linejoin="round" d="M6 9.5a6 7 0 1 0 12 0 6 7 0 1 0-12 0m6-7v14m2 1.716V22.5a1 1 0 0 1-1 1h-2a1 1 0 0 1-1-1v-4.284"/><path fill="none" stroke="currentColor" stroke-linecap="round" stroke-linejoin="round" d="M17.669 15.847a7.5 7.5 0 0 0 4.507 2.67A1 1 0 0 1 23 19.5v3a1 1 0 0 1-1.144.99A11.5 11.5 0 0 1 14 18.582m-7.671-2.734a7.5 7.5 0 0 1-4.5 2.669A1 1 0 0 0 1 19.5v3a1 1 0 0 0 1.143.99A11.52 11.52 0 0 0 10 18.582M6.578 6.5h10.844M6 9.5h12m-11.422 3h10.844"/></svg>
