<svg xmlns="http://www.w3.org/2000/svg" viewBox="0 0 24 24"><path fill="none" stroke="currentColor" stroke-linecap="round" stroke-linejoin="round" d="M9 22.5H2.5a1 1 0 0 1-1-1v-19a1 1 0 0 1 1-1h6m9 0h4a1 1 0 0 1 1 1v19a1 1 0 0 1-1 1H15"/><path fill="none" stroke="currentColor" stroke-linecap="round" stroke-linejoin="round" d="M22.5 10.5h-6v5h-3m9-9H18m-11.5-5v5h-2m-3 4h5v5m-2 7v-5m8 6v-5h-3v-11h4v-7m3 10h-4m7 3v9"/><path fill="none" stroke="currentColor" stroke-linecap="round" stroke-linejoin="round" d="M11 3 13.5.5 16 3"/></svg>
