<svg xmlns="http://www.w3.org/2000/svg" viewBox="0 0 24 24"><path fill="none" stroke="currentColor" stroke-linecap="round" stroke-linejoin="round" d="M15.533 21.019a3.7 3.7 0 0 0 .411.8 3.83 3.83 0 0 0 3.175 1.681c2.117 0 4.381-1.716 4.381-3.833 0-3.86-3.067-3.526-4.938-7.154l-.027-.051a26.5 26.5 0 0 1-3-9.574L15.286.5M8.467 21.019a3.7 3.7 0 0 1-.411.8A3.83 3.83 0 0 1 4.881 23.5C2.764 23.5.5 21.784.5 19.667c0-3.86 3.067-3.526 4.938-7.154l.027-.051a26.5 26.5 0 0 0 3-9.574L8.714.5"/><path fill="none" stroke="currentColor" stroke-linecap="round" stroke-linejoin="round" d="m6.391 20.466.544.091a6.3 6.3 0 0 1 2.291.867h0a4.516 4.516 0 0 0 5.548 0h0a6.3 6.3 0 0 1 2.291-.867l1.011-.169m-3.338-3.459A3.68 3.68 0 0 1 12 18.024a3.73 3.73 0 0 1-2.738-1.1"/></svg>
