<svg xmlns="http://www.w3.org/2000/svg" viewBox="0 0 24 24"><path fill="none" stroke="currentColor" stroke-linecap="round" stroke-linejoin="round" d="M14.153 1.5h-.928a5 5 0 0 0-4.957 4.339L6.314 20.5"/><path fill="none" stroke="currentColor" stroke-linecap="round" stroke-linejoin="round" d="M7.881 21.184a1 1 0 0 0-.949-.684H5.374a1 1 0 0 0-.949.684l-.552 1.658a.5.5 0 0 0 .474.658h3.612a.5.5 0 0 0 .475-.658Zm-.9-5.684h9.675a1.03 1.03 0 0 1 1.015.874l.482 3.126"/><path fill="none" stroke="currentColor" stroke-linecap="round" stroke-linejoin="round" d="M16.153 21.5a2 2 0 1 0 4 0 2 2 0 1 0-4 0m4-20a1 1 0 0 0-1-1h-4a1 1 0 1 0 0 2h4a1 1 0 0 0 1-1"/></svg>
