<svg xmlns="http://www.w3.org/2000/svg" fill="none" viewBox="0 0 24 24"><path stroke="currentColor" stroke-linecap="round" stroke-linejoin="round" d="M8.655 23.5v-3h-1a3 3 0 0 1-3-3v-3h-2.81a.5.5 0 0 1-.476-.654C3.44 7.435 4.88.5 12.905.5a9.74 9.74 0 0 1 5.75 17.611V23.5"/><path stroke="currentColor" d="M5.405 12.25a.25.25 0 1 1 0-.5m0 .5a.25.25 0 1 0 0-.5m3-3.392a.25.25 0 0 1 0-.5m0 .5a.25.25 0 0 0 0-.5M8.4 16.5a.25.25 0 1 1 0-.5m0 .5a.25.25 0 1 0 0-.5m3.005-3.173a.25.25 0 1 1 0-.5m0 .5a.25.25 0 1 0 0-.5m1.5 5.673a.25.25 0 1 1 0-.5m0 .5a.25.25 0 1 0 0-.5"/></svg>
