<svg xmlns="http://www.w3.org/2000/svg" viewBox="0 0 24 24"><path fill="none" stroke="currentColor" stroke-linecap="round" stroke-linejoin="round" d="m1.507.5 13.316 2.772A10 10 0 0 1 22.507 13v10.5m-21-11 9.27 1.264a2 2 0 0 1 1.73 1.982V23.5"/><path fill="none" stroke="currentColor" stroke-linecap="round" stroke-linejoin="round" d="M19.507 14.5a4.25 4.25 0 0 1-4 0 15.8 15.8 0 0 1 1 6.808V23.5h2v-2.192a15.8 15.8 0 0 1 1-6.808m-2-6.5a2.5 2.5 0 0 0-1.145.281 1 1 0 0 1-.681.089L1.5 5.172v3.075l13.181 2.971a1 1 0 0 1 .656.492A2.5 2.5 0 1 0 17.507 8"/></svg>
