<svg xmlns="http://www.w3.org/2000/svg" viewBox="0 0 24 24"><path fill="none" stroke="currentColor" stroke-linecap="round" stroke-linejoin="round" d="M4.001 21.261a1.5 1.49 0 1 0 3 0 1.5 1.49 0 1 0-3 0m13 0a1.5 1.49 0 1 0 3 0 1.5 1.49 0 1 0-3 0M6.664 20.32 18 12.75m-.664 7.57L6 12.75m.915 8.014h10.171M23.5 11.25a1.5 1.5 0 0 1-1.5 1.5H4.874a2 2 0 0 1-1.919-1.435L.561 3.174a1.5 1.5 0 0 1 2.879-.847l1.971 6.705a1 1 0 0 0 .96.718H22a1.5 1.5 0 0 1 1.5 1.5"/><path fill="none" stroke="currentColor" stroke-linecap="round" stroke-linejoin="round" d="M8.279 7.751A1.5 1.5 0 0 1 6.84 6.674l-1.029-3.5a1.5 1.5 0 0 1 2.879-.847l1.029 3.5A1.5 1.5 0 0 1 8.7 7.689a1.5 1.5 0 0 1-.421.062"/></svg>
