<svg xmlns="http://www.w3.org/2000/svg" viewBox="0 0 24 24"><path fill="none" stroke="currentColor" stroke-linecap="round" stroke-linejoin="round" d="M8.5 16.5c0 1.1 1.567 2 3.5 2s3.5-.9 3.5-2h5V5.167A1.667 1.667 0 0 0 18.833 3.5H5.167A1.667 1.667 0 0 0 3.5 5.167V16.5Z"/><path fill="none" stroke="currentColor" stroke-linecap="round" stroke-linejoin="round" d="M15.5 16.5c0 1.1-1.567 2-3.5 2s-3.5-.9-3.5-2h-8a5.28 5.28 0 0 0 5.123 4h12.754a5.28 5.28 0 0 0 5.123-4Zm1-7.5a.5.5 0 0 0-.5-.5h-2.5V6a.5.5 0 0 0-.5-.5h-2a.5.5 0 0 0-.5.5v2.5H8a.5.5 0 0 0-.5.5v2a.5.5 0 0 0 .5.5h2.5V14a.5.5 0 0 0 .5.5h2a.5.5 0 0 0 .5-.5v-2.5H16a.5.5 0 0 0 .5-.5Z"/></svg>
