<svg xmlns="http://www.w3.org/2000/svg" viewBox="0 0 24 24"><g fill="none" stroke="currentColor" stroke-linecap="round" stroke-linejoin="round"><path d="M13.8 16.34a1.69 1.69 0 0 1-1.5 1 4.5 4.5 0 0 0-1.29.18.74.74 0 0 0-.42 1.13 4.46 4.46 0 0 0 3.67 1.85c2.4 0 4.74-1.77 4.74-3.95a2.13 2.13 0 0 0-2.2-2.22 3.81 3.81 0 0 0-3 2.01M9.1.5c.93 8.26 7.18 7.59 3 13.34-2.39 3.32-5 1.43-7.08 1.43C.88 15.27.5 20.85.5 23v.55"/><path d="M3.76 23.5v-.64s-.35-3.81 1.75-4.08c.6-.08 1.25.66 1.68 1.11a7.25 7.25 0 0 0 5.66 2.7A10 10 0 0 0 21 18.82a12.74 12.74 0 0 0 2.54-7.77c0-4.91-2.44-8.33-5.94-8.33a3.24 3.24 0 0 0-2.48 1.2c-.43.43-.7.67-1.12.67-.59 0-1.33-1.15-1.58-4.09"/></g></svg>
