<svg xmlns="http://www.w3.org/2000/svg" viewBox="0 0 24 24"><g fill="none" stroke="currentColor" stroke-linecap="round" stroke-linejoin="round"><path d="M14.66 21a3 3 0 0 1-.22 1.57m.82-13.11c2 .45 3.26 1.31 3.26 2.29 0 5-11.82.38-11.82 5.09A2 2 0 0 0 8 18.72m9.05-2.86a1.9 1.9 0 0 1 .24 1c0 2-2.37 2.45-5.29 2.45-.48 0-3.67 0-2.44 3.26M8.74 9.46c-4.5 1-3.5 3.51-2 4.28"/><path d="M10.71 12.51C10.32 7.36 10 2.94 10 2.5a2 2 0 0 1 4 0c0 .44-.32 4.86-.71 10m-2.21 5-.23-3.05m2.3-.05-.23 3.1"/><path d="M10 3.09C7.39-.1 3.44 3.6.87 4.35a.52.52 0 0 0-.35.34.48.48 0 0 0 .11.47c1.5 1.67 5.63 3 9.69 2.12M14 3.09c2.64-3.19 6.59.51 9.16 1.26a.52.52 0 0 1 .35.34.48.48 0 0 1-.11.47c-1.5 1.67-5.63 3-9.69 2.12M12 19.29v4.21"/></g></svg>
