<svg xmlns="http://www.w3.org/2000/svg" viewBox="0 0 24 24"><path fill="none" stroke="currentColor" stroke-linecap="round" stroke-linejoin="round" d="M5.503.5h13s2 0 2 2v8s0 2-2 2h-13s-2 0-2-2v-8s0-2 2-2"/><path fill="none" stroke="currentColor" stroke-linecap="round" stroke-linejoin="round" d="M16.7 10.526c-.387-.6-1.668-1.03-3.274-1.624-.453-.169-.378-1.351-.178-1.572a3.34 3.34 0 0 0 .87-2.591 2.125 2.125 0 1 0-4.241 0 3.34 3.34 0 0 0 .87 2.591c.2.221.275 1.4-.178 1.572-1.6.598-2.882 1.027-3.269 1.624M16.5 23.5a4 4 0 0 0-.391-1.587c-.276-.552-1.428-.935-2.875-1.471-.392-.144-.327-1.057-.154-1.248a2.9 2.9 0 0 0 .751-2.238 1.835 1.835 0 1 0-3.662 0 2.9 2.9 0 0 0 .751 2.238c.173.191.238 1.1-.154 1.248-1.447.536-2.6.919-2.875 1.471A4 4 0 0 0 7.5 23.5m16-2.585c-.38-.149-.808-.3-1.266-.473-.392-.144-.327-1.057-.154-1.248a2.9 2.9 0 0 0 .751-2.238 1.835 1.835 0 1 0-3.662 0 2.9 2.9 0 0 0 .751 2.238c.173.191.238 1.1-.154 1.248-1.447.536-2.6.919-2.875 1.471A4 4 0 0 0 16.5 23.5m-9 0a4 4 0 0 0-.391-1.587c-.276-.552-1.428-.935-2.875-1.471-.392-.144-.327-1.057-.154-1.248a2.9 2.9 0 0 0 .751-2.238A1.79 1.79 0 0 0 3 15a1.79 1.79 0 0 0-1.831 1.956 2.9 2.9 0 0 0 .751 2.238c.173.191.238 1.1-.154 1.248-.458.17-.886.324-1.266.473"/></svg>
