<svg xmlns="http://www.w3.org/2000/svg" viewBox="0 0 24 24"><path fill="none" stroke="currentColor" stroke-linecap="round" stroke-linejoin="round" d="M7.5 6.9v8.655a7.19 7.19 0 0 0 4 6.445"/><path fill="none" stroke="currentColor" stroke-linecap="round" stroke-linejoin="round" d="M21.5 4.484a1 1 0 0 0-1.421-.907C16.244 5.356 12.456 6.964 4.5 7h-1a3 3 0 0 0-3 3v2a3 3 0 0 0 3 3h1c7.956.036 11.744 1.644 15.579 3.423a1 1 0 0 0 1.421-.907ZM21.5 9h.5a1.5 1.5 0 0 1 1.5 1.5v1A1.5 1.5 0 0 1 22 13h-.5"/></svg>
