<svg xmlns="http://www.w3.org/2000/svg" fill="none" viewBox="0 0 24 24"><path stroke="currentColor" stroke-linecap="round" stroke-linejoin="round" d="M7.52 14.989a4.23 4.23 0 1 0 0-8.462 4.23 4.23 0 0 0 0 8.462M.552 23.45a6.968 6.968 0 1 1 13.937 0zM13.97 12.036c.488.19.996.324 1.514.398v3.056c.498-.497 3.484-2.986 3.982-3.445a5.99 5.99 0 0 0 3.982-5.514 6.237 6.237 0 0 0-6.47-5.976 6.45 6.45 0 0 0-6.095 3.981"/><path stroke="currentColor" d="M14.24 6.767a.249.249 0 1 1 0-.498m0 .498a.249.249 0 0 0 0-.498m2.737.498a.249.249 0 1 1 0-.498m0 .498a.249.249 0 0 0 0-.498m2.738.498a.249.249 0 0 1 0-.498m0 .498a.249.249 0 0 0 0-.498"/></svg>
