<svg xmlns="http://www.w3.org/2000/svg" viewBox="0 0 24 24"><path fill="none" stroke="currentColor" stroke-linecap="round" stroke-linejoin="round" d="m10.5 19.5.445 3.562a.5.5 0 0 0 .5.438h1.118a.5.5 0 0 0 .5-.438L13.5 19.5"/><path fill="none" stroke="currentColor" stroke-linecap="round" stroke-linejoin="round" d="M16 16.5a1.43 1.43 0 0 1-.312.891l-1.375 1.718a1.04 1.04 0 0 1-.813.391h-3a1.04 1.04 0 0 1-.812-.39l-1.376-1.719A1.43 1.43 0 0 1 8 16.5v-7h8Zm0-7v-7a1.5 1.5 0 0 0-.994-1.411A9.3 9.3 0 0 0 12 .5a9.3 9.3 0 0 0-3.006.589A1.5 1.5 0 0 0 8 2.5v7Zm-8 2h8"/><path fill="none" stroke="currentColor" stroke-linecap="round" stroke-linejoin="round" d="M11 11.5V15a1 1 0 0 0 2 0v-3.5Z"/></svg>
