<svg xmlns="http://www.w3.org/2000/svg" fill="none" viewBox="0 0 24 24"><path stroke="currentColor" stroke-linecap="round" stroke-linejoin="round" d="M22.5.5h-21a1 1 0 0 0-1 1v21a1 1 0 0 0 1 1h21a1 1 0 0 0 1-1v-21a1 1 0 0 0-1-1m-8 3h5.999m-5.999 2h5.999m-5.999 2h5.999"/><path stroke="currentColor" stroke-linecap="round" stroke-linejoin="round" d="M11.5 12.5h-6v6h6zm-5 0v-2m2 2v-2m0 10v-2m2-6v-2m-4 10v-2m4 2v-2m1-5h2m-2 2h2m-2 2h2m-10-4h2m-2 2h2m-2 2h2m15-7v10M5 7.5a1.5 1.5 0 1 0 0-3 1.5 1.5 0 0 0 0 3m5 0a1.5 1.5 0 1 0 0-3 1.5 1.5 0 0 0 0 3"/><path stroke="currentColor" d="M16.749 12a.25.25 0 1 1 0-.5m0 .5a.25.25 0 1 0 0-.5m0 4a.25.25 0 1 1 0-.5m0 .5a.25.25 0 1 0 0-.5m0 4a.25.25 0 1 1 0-.5m0 .5a.25.25 0 1 0 0-.5"/></svg>
