<svg xmlns="http://www.w3.org/2000/svg" fill="none" viewBox="0 0 24 24"><path stroke="currentColor" stroke-linecap="round" stroke-linejoin="round" d="M20.999 12.5H3.001M9.5 2.5h5m6.5 18a3.01 3.01 0 0 1-3 3H6a3.01 3.01 0 0 1-3-3V2A1.5 1.5 0 0 1 4.5.5h15A1.5 1.5 0 0 1 21 2z"/><path stroke="currentColor" d="M8.5 15.5a.25.25 0 1 1 0-.5m0 .5a.25.25 0 1 0 0-.5m0 3a.25.25 0 1 1 0-.5m0 .5a.25.25 0 1 0 0-.5m0 3a.25.25 0 1 1 0-.5m0 .5a.25.25 0 1 0 0-.5m3.5-4.5a.25.25 0 1 1 0-.5m0 .5a.25.25 0 1 0 0-.5m0 3a.25.25 0 1 1 0-.5m0 .5a.25.25 0 1 0 0-.5m0 3a.25.25 0 1 1 0-.5m0 .5a.25.25 0 1 0 0-.5m3.5-4.5a.25.25 0 1 1 0-.5m0 .5a.25.25 0 1 0 0-.5m0 3a.25.25 0 1 1 0-.5m0 .5a.25.25 0 1 0 0-.5m0 3a.25.25 0 1 1 0-.5m0 .5a.25.25 0 1 0 0-.5"/></svg>
