<svg xmlns="http://www.w3.org/2000/svg" fill="none" viewBox="0 0 24 24"><path stroke="currentColor" stroke-linecap="round" stroke-linejoin="round" d="m6.25 22.75 2-2-2-2m14.5-8.5h-6a1 1 0 0 0-1 1v11a1 1 0 0 0 1 1h6a1 1 0 0 0 1-1v-11a1 1 0 0 0-1-1"/><path stroke="currentColor" stroke-linecap="round" stroke-linejoin="round" d="M2.25 15.75a5 5 0 0 0 5 5h1m10-20-2 2 2 2"/><path stroke="currentColor" stroke-linecap="round" stroke-linejoin="round" d="M22.25 7.75a5 5 0 0 0-5-5h-1m-2.5 16.5h8m-14-8a1 1 0 1 0 0-2 1 1 0 0 0 0 2m-4 0a1 1 0 1 0 0-2 1 1 0 0 0 0 2m7-10.5-2.5 7.5h-5l-1.5-5h8.167"/><path stroke="currentColor" d="M17.75 21.5a.25.25 0 1 1 0-.5m0 .5a.25.25 0 1 0 0-.5"/></svg>
