<svg xmlns="http://www.w3.org/2000/svg" fill="none" viewBox="0 0 24 24"><path stroke="currentColor" stroke-linecap="round" stroke-linejoin="round" d="M12 11.5a3.5 3.5 0 1 0 0-7 3.5 3.5 0 0 0 0 7m-5.5-1a2 2 0 1 1 0-4m11 4a2 2 0 0 0 0-4m2.762 7.6a1 1 0 0 0-.916-.6H4.654a1 1 0 0 0-.916.6L.5 21.5h23z"/><path stroke="currentColor" stroke-linecap="round" stroke-linejoin="round" d="M7 19.5c1.38 0 2.5-.895 2.5-2s-1.12-2-2.5-2-2.5.895-2.5 2 1.12 2 2.5 2m10 0c1.38 0 2.5-.895 2.5-2s-1.12-2-2.5-2-2.5.895-2.5 2 1.12 2 2.5 2m-5.5-2h1m-2 2h3m-13 2h23v1a1 1 0 0 1-1 1h-21a1 1 0 0 1-1-1zm17-11V6a5.5 5.5 0 0 0-11 0v4.5"/><path stroke="currentColor" d="M7 17.75a.25.25 0 1 1 0-.5m0 .5a.25.25 0 1 0 0-.5m10 .5a.25.25 0 1 1 0-.5m0 .5a.25.25 0 1 0 0-.5"/></svg>
