<svg xmlns="http://www.w3.org/2000/svg" viewBox="0 0 24 24"><g fill="none" stroke="currentColor" stroke-linecap="round" stroke-linejoin="round"><path d="M20 6.09a1 1 0 0 1-1.42 0l-1.43-1.42a1 1 0 0 1 0-1.41l.19-.19a1 1 0 0 1 .39-.24l4.55-1.52a.93.93 0 0 1 .95 1.54Zm-2.85-1.42-7.44 7.44 1.42 1.42 7.44-7.44"/><path d="M12.41 9.41c-1.63-.33-1.87-1.44-1.48-2.7.31-1-1-1.91-2.13-.75a5.34 5.34 0 0 0-1.63 3.33 1 1 0 0 1-.93.91c-5.19.35-8 5.54-3.39 10.19s9.86 1.66 10.21-3.39a1 1 0 0 1 .9-.92 5.36 5.36 0 0 0 3.33-1.64c1.16-1.16.26-2.43-.75-2.12-1.26.38-2.38.13-2.71-1.5m-5.89 2.36 2.13 2.12"/><path d="m4.049 15.661.36-.36s.707-.708 1.414 0l2.129 2.128s.707.707 0 1.414l-.36.36s-.708.708-1.415 0l-2.128-2.128s-.707-.707 0-1.414"/></g></svg>
