<svg xmlns="http://www.w3.org/2000/svg" viewBox="0 0 24 24"><g fill="none" stroke="currentColor" stroke-linecap="round" stroke-linejoin="round"><path d="M3.5 23.5 1.49 21a4.5 4.5 0 0 1-1-2.81V13A1.5 1.5 0 0 1 2 11.5h0A1.5 1.5 0 0 1 3.5 13v3.87"/><path d="M8 23.5v-3.14a4.43 4.43 0 0 0-.76-2.49L6.1 16.15a1.41 1.41 0 0 0-2-.44h0a1.4 1.4 0 0 0-.47 1.79L5 19.75m15.5 3.75 2-2.52a4.5 4.5 0 0 0 1-2.81V13a1.5 1.5 0 0 0-1.5-1.5h0a1.5 1.5 0 0 0-1.5 1.5v3.87"/><path d="M16 23.5v-3.14a4.43 4.43 0 0 1 .76-2.49l1.14-1.72a1.41 1.41 0 0 1 2-.44h0a1.4 1.4 0 0 1 .47 1.79L19 19.75m-5.45-8.35a2 2 0 1 1 2.83-2.83 2.1 2.1 0 0 1 .45.68.47.47 0 0 0 .36.31.51.51 0 0 0 .46-.13l1.56-1.57a1 1 0 0 0 0-1.41l-1.61-1.6a2 2 0 1 0-2.45-2.45L13.55.79a1 1 0 0 0-1.41 0l-1.45 1.45a.53.53 0 0 0-.15.41.51.51 0 0 0 .22.36 2.6 2.6 0 0 1 .32.26A2 2 0 0 1 8.25 6.1 2.6 2.6 0 0 1 8 5.78a.49.49 0 0 0-.77-.07L5.77 7.16a1 1 0 0 0 0 1.41l5.66 5.66a1 1 0 0 0 1.41 0l1.56-1.56a.5.5 0 0 0-.17-.82 2 2 0 0 1-.68-.45"/></g></svg>
