<svg xmlns="http://www.w3.org/2000/svg" fill="none" viewBox="0 0 24 24"><path stroke="currentColor" stroke-linecap="round" stroke-linejoin="round" d="m21.25 23.5-2.5-3.43V15.5c0-1.78-2.08-3.36-4-5m1.52 7-2.33-2.39a1.449 1.449 0 0 0-2.505.336 1.45 1.45 0 0 0 .435 1.664l2.32 2.36V21c0 1 1.56 2.5 1.56 2.5"/><path stroke="currentColor" stroke-linecap="round" stroke-linejoin="round" d="M11.25 19.5h-7.5a1 1 0 0 1-1-1v-17a1 1 0 0 1 1-1h10a1 1 0 0 1 1 1V16m-12-.5h6.5"/><path stroke="currentColor" stroke-linecap="round" stroke-linejoin="round" d="M10.25 5h-2.2a1.3 1.3 0 0 0-1.146 1.918c.1.19.247.352.426.472l2.34 1.22a1.31 1.31 0 0 1 .217 1.992A1.3 1.3 0 0 1 9 11H6.75m2-6V4m0 8v-1"/><path stroke="currentColor" d="M8.5 17.5a.25.25 0 1 1 0-.5m0 .5a.25.25 0 1 0 0-.5"/></svg>
