<svg xmlns="http://www.w3.org/2000/svg" viewBox="0 0 24 24"><g fill="none" stroke="currentColor" stroke-linecap="round" stroke-linejoin="round"><path d="M12 12.33v-1.5m2.5 1.5h-3.66a1.34 1.34 0 0 0-1.34 1.34 1.32 1.32 0 0 0 .84 1.24l3.32.83a1.34 1.34 0 0 1-.5 2.59H9.5m2.5 1.5v-1.5m-3.5-12h7m-1.5 0a.5.5 0 0 0 .49-.44 13.5 13.5 0 0 1 1.21-3.77.5.5 0 0 0-.07-.57.49.49 0 0 0-.57-.12l-2.1.9L12.47 1a.5.5 0 0 0-.93 0L11 2.33l-2.09-.9a.49.49 0 0 0-.57.12.5.5 0 0 0-.07.57 13.5 13.5 0 0 1 1.21 3.77.5.5 0 0 0 .49.44"/><path d="M14 6.33s7 5.5 7 10.31c0 5-4 6.69-9 6.69s-9-1.72-9-6.69c0-4.81 7-10.31 7-10.31"/></g></svg>
