<svg xmlns="http://www.w3.org/2000/svg" viewBox="0 0 24 24"><path fill="none" stroke="currentColor" stroke-linecap="round" stroke-linejoin="round" d="m1.3 1.758 13.294 3.319A4.05 4.05 0 0 1 17.5 8.805v12a2.272 2.272 0 0 1-2.92 2.312L3.424 20.493A3.985 3.985 0 0 1 .5 16.805v-13a3.01 3.01 0 0 1 3-3h17a3.01 3.01 0 0 1 3 3v11a3.01 3.01 0 0 1-3 3h-3m-7.996-14h10"/><path fill="none" stroke="currentColor" stroke-linecap="round" stroke-linejoin="round" d="M11.004 13.805a2 2 0 1 0 4 0 2 2 0 1 0-4 0m6.5-5h2"/></svg>
