<svg xmlns="http://www.w3.org/2000/svg" viewBox="0 0 24 24"><path fill="none" stroke="currentColor" stroke-linecap="round" stroke-linejoin="round" d="M4.504.5h15v8h-15Zm10.542 0L19.504 4m-3.829 4.5L19.504 5m-15 0 3.828 3.5M4.504 4 8.941.5m-1.437 11v-1m2 1v-1m5 1v-1m2 1v-1m-10 6h4m3 0h4"/><path fill="none" stroke="currentColor" stroke-linecap="round" stroke-linejoin="round" d="M10.504 4.5a1.5 1.5 0 1 0 3 0 1.5 1.5 0 1 0-3 0m2.996 14a1.5 1.5 0 0 1-3 0v-4a1.03 1.03 0 0 0-1-1h-2a1.03 1.03 0 0 0-1 1v4c0 3.313 2.462 5 5.5 5s5.5-1.687 5.5-5v-4a1.03 1.03 0 0 0-1-1h-2a1.03 1.03 0 0 0-1 1Z"/></svg>
