<svg xmlns="http://www.w3.org/2000/svg" viewBox="0 0 24 24"><path fill="none" stroke="currentColor" stroke-linecap="round" stroke-linejoin="round" d="M5 23.5h6m-3-2v1.958M.5 19.5h15m-7-9V9a5 5 0 0 1 5-5"/><path fill="none" stroke="currentColor" stroke-linecap="round" stroke-linejoin="round" d="m10.5 8.5-2 2-2-2m6 3H14a1.5 1.5 0 0 1 1.5 1.5v7a1.5 1.5 0 0 1-1.5 1.5H2A1.5 1.5 0 0 1 .5 20v-7A1.5 1.5 0 0 1 2 11.5h1.5m9-5V7A1.5 1.5 0 0 0 14 8.5h8A1.5 1.5 0 0 0 23.5 7V2A1.5 1.5 0 0 0 22 .5h-8A1.5 1.5 0 0 0 12.5 2m0 4.5h11m-7 4h3m-1.5-2v2"/></svg>
