<svg xmlns="http://www.w3.org/2000/svg" fill="none" viewBox="0 0 24 24"><path stroke="currentColor" stroke-linecap="round" stroke-linejoin="round" d="M5.5 17.502h6m-11-6h14m-6 3v1.5a1.5 1.5 0 0 1-1.5 1.5"/><path stroke="currentColor" stroke-linecap="round" stroke-linejoin="round" d="M20.5 11.502v-10a1 1 0 0 0-1-1h-18a1 1 0 0 0-1 1v12a1 1 0 0 0 1 1h11"/><path stroke="currentColor" d="M17.5 21.002a.25.25 0 0 1 0-.5m0 .5a.25.25 0 0 0 0-.5"/><path stroke="currentColor" stroke-linecap="round" stroke-linejoin="round" d="M17.5 18.502v-3m.838-3a.95.95 0 0 0-1.676 0l-5.056 9.635a.923.923 0 0 0 .376 1.242c.141.079.3.12.462.12h10.112a.95.95 0 0 0 .807-.449.92.92 0 0 0 .03-.914z"/></svg>
