<svg xmlns="http://www.w3.org/2000/svg" viewBox="0 0 24 24"><g fill="none" stroke="currentColor" stroke-linecap="round" stroke-linejoin="round"><path d="m20.85 18.94-6.54 1.45.44-6.68"/><path d="M14.31 20.39C19.68 15.72 20.64 7.41 16 2M8 22.5h1a.51.51 0 0 0 .5-.5v-1M5 22.5H4a.51.51 0 0 1-.5-.5v-1M5 16.5H4a.5.5 0 0 0-.5.5v1M8 16.5h1a.5.5 0 0 1 .5.5v1M8 14.5h1a.51.51 0 0 0 .5-.5v-1M5 14.5H4a.51.51 0 0 1-.5-.5v-1M5 8.5H4a.5.5 0 0 0-.5.5v1M8 8.5h1a.5.5 0 0 1 .5.5v1M4 .5h5s.5 0 .5.5v5s0 .5-.5.5H4s-.5 0-.5-.5V1s0-.5.5-.5"/></g></svg>
