<svg xmlns="http://www.w3.org/2000/svg" viewBox="0 0 24 24"><path fill="none" stroke="currentColor" stroke-linecap="round" stroke-linejoin="round" d="M6.5 11.5h3l-.5 4H7zm1.5 0 .257-1.03A1.28 1.28 0 0 1 9.5 9.5h1m2.75-1.25a2.75 2.75 0 1 0 5.5 0 2.75 2.75 0 1 0-5.5 0m5.689 5.35a3.5 3.5 0 0 0-6.439 1.9"/><path fill="none" stroke="currentColor" stroke-linecap="round" stroke-linejoin="round" d="M3.5 13.5h-2a1 1 0 0 1-1-1v-11a1 1 0 0 1 1-1h19a1 1 0 0 1 1 1v7M10.418 18.754 5.969 21.3a1.179 1.179 0 0 0 1.057 2.1l4.312-1.887"/><path fill="none" stroke="currentColor" stroke-linecap="round" stroke-linejoin="round" d="M10 17.221a1.7 1.7 0 0 0 .088.544L12 23.5h8l3.419-10.744a1.732 1.732 0 0 0-1.65-2.256 2.05 2.05 0 0 0-1.836 1.135L18 15.5h-6.279A1.72 1.72 0 0 0 10 17.221m2-1.721H6"/></svg>
