<svg xmlns="http://www.w3.org/2000/svg" fill="none" viewBox="0 0 24 24"><path stroke="currentColor" stroke-linecap="round" stroke-linejoin="round" d="M23.5 11.5v-9a2 2 0 0 0-2-2h-19a2 2 0 0 0-2 2v9a2 2 0 0 0 2 2h19a2 2 0 0 0 2-2m-4-11v13M4.5.5v13m-4-9h4m-4 5h4m15-5h4m-4 5h4M7 20a2.5 2.5 0 0 1 2.5 2.5v1h-5v-1A2.5 2.5 0 0 1 7 20m5 0a2.5 2.5 0 0 1 2.5 2.5v1h-5v-1A2.5 2.5 0 0 1 12 20m5 0a2.5 2.5 0 0 1 2.5 2.5v1h-5v-1A2.5 2.5 0 0 1 17 20"/><path stroke="currentColor" stroke-linecap="round" stroke-linejoin="round" d="M.5 23.5h4v-1a2.489 2.489 0 0 0-4-1.989m23 0a2.489 2.489 0 0 0-4 1.989v1h4m0-6.289A2.5 2.5 0 0 0 22 19.5a2.5 2.5 0 0 0-5 0 2.5 2.5 0 0 0-2.5-2.5v0a2.5 2.5 0 0 0-2.5 2.5 2.5 2.5 0 0 0-5 0 2.5 2.5 0 1 0-5 0 2.5 2.5 0 0 0-1.5-2.289M2 19.5v.5m5-.5v.5m5-.5v.5m5-.5v.5m5-.5v.5M15.7 7.932a1 1 0 0 0 0-1.864L9.181 3.534A.5.5 0 0 0 8.5 4v6a.5.5 0 0 0 .681.466z"/></svg>
