<svg xmlns="http://www.w3.org/2000/svg" viewBox="0 0 24 24"><path fill="none" stroke="currentColor" stroke-linecap="round" stroke-linejoin="round" d="M7.5 8.5a8 8 0 1 0 16 0 8 8 0 1 0-16 0"/><path fill="none" stroke="currentColor" stroke-linecap="round" stroke-linejoin="round" d="M10.209 14.5H3a2.5 2.5 0 0 0 0 5h17.5a2 2 0 0 1 0 4h-10m3.5-15a1.5 1.5 0 1 0 3 0 1.5 1.5 0 1 0-3 0m2.839-3.212L17.8 3h0a6.4 6.4 0 0 0-4.6-.021v-.011l.957 2.3a3.5 3.5 0 0 1 2.678.006ZM12.5 7.16 10 6.2h0a6.4 6.4 0 0 0-.021 4.6h-.012l2.422-.956a2.91 2.91 0 0 1 .111-2.682Zm1.66 4.34L13.2 14h0a6.4 6.4 0 0 0 4.59.022v.011l-.957-2.422a2.91 2.91 0 0 1-2.678-.111Zm4.34-1.659 2.5.959h0a6.4 6.4 0 0 0 .022-4.6h.01l-2.421.957a2.91 2.91 0 0 1-.111 2.681Z"/></svg>
