<svg xmlns="http://www.w3.org/2000/svg" viewBox="0 0 24 24"><path fill="none" stroke="currentColor" stroke-linecap="round" stroke-linejoin="round" d="M18.5 6.976a6.52 6.52 0 0 1-6.518 6.524A6.59 6.59 0 0 1 5.5 6.858 6.356 6.356 0 0 1 11.721.506Q11.862.498 12 .5a6.46 6.46 0 0 1 6.5 6.476"/><path fill="none" stroke="currentColor" stroke-linecap="round" stroke-linejoin="round" d="M11.721.506c-3.392 3.674-3.392 8.467 0 12.989M12.285.506c3.392 3.674 3.392 8.466 0 12.987M6.574 10.5h10.894m-11.015-7h11.043M5.5 7h13M9.736 18.35a2.35 2.35 0 1 0 4.7 0 2.35 2.35 0 1 0-4.7 0m-7.392 0a2.35 2.35 0 1 0 4.7 0 2.35 2.35 0 1 0-4.7 0m14.62 0a2.35 2.35 0 1 0 4.7 0 2.35 2.35 0 1 0-4.7 0M23 23.5a4.683 4.683 0 0 0-7.292 0A4.86 4.86 0 0 0 12 21.76M1 23.5a4.683 4.683 0 0 1 7.292 0A4.86 4.86 0 0 1 12 21.76"/></svg>
