<svg xmlns="http://www.w3.org/2000/svg" viewBox="0 0 24 24"><path fill="none" stroke="currentColor" stroke-linecap="round" stroke-linejoin="round" d="M22.5 13.5h-8a1 1 0 0 0-1 1v6a1 1 0 0 0 1 1h1v2l3-2h4a1 1 0 0 0 1-1v-6a1 1 0 0 0-1-1m-6 3h4m-4 2h3m-9-5H.5a7.1 7.1 0 0 1 .565-2.7c.4-.8 2.063-1.35 4.153-2.124.565-.209.472-1.684.222-1.96a4.17 4.17 0 0 1-1.085-3.231A2.725 2.725 0 0 1 7 .5a2.725 2.725 0 0 1 2.645 2.985A4.17 4.17 0 0 1 8.56 6.717c-.25.276-.343 1.751.222 1.96 2.258.837 4.018 1.414 4.224 2.323M10.912.737A2.6 2.6 0 0 1 12 .5a2.725 2.725 0 0 1 2.645 2.985 4.17 4.17 0 0 1-1.085 3.232c-.25.276-.343 1.751.222 1.96 2.09.774 3.754 1.327 4.153 2.124q.048.095.09.194"/></svg>
