<svg xmlns="http://www.w3.org/2000/svg" viewBox="0 0 24 24"><g fill="none" stroke="currentColor" stroke-linecap="round" stroke-linejoin="round"><path d="M8.45 13a.49.49 0 0 1 .49-.45H15a.49.49 0 0 1 .49.4c.68 3.46 5 7.89 7 9.74a.51.51 0 0 1 .12.54.5.5 0 0 1-.47.32H1.82a.5.5 0 0 1-.47-.32.51.51 0 0 1 .13-.55c2.07-1.89 6.59-6.29 6.97-9.68m6.02-4.5a6.52 6.52 0 0 1 3-5.48m-8 5.48a6.49 6.49 0 0 0-3-5.5m9 7.55a3.5 3.5 0 0 1 5 0m-12 0a3.5 3.5 0 0 0-5 0M10.43.5A11.5 11.5 0 0 1 11 4M13.47.5a11.5 11.5 0 0 0-.54 3.5"/><path d="m12 12.5-1 1.74a.49.49 0 0 0 0 .51.5.5 0 0 0 .43.25h1.07a.48.48 0 0 1 .44.27.49.49 0 0 1 0 .52L11 18.5"/></g></svg>
