<svg xmlns="http://www.w3.org/2000/svg" viewBox="0 0 24 24"><path fill="none" stroke="currentColor" stroke-linecap="round" stroke-linejoin="round" d="M2.001 17.516h10.116m-9.502-12h18.984m-8.996 6H.614M11.481 23.5A11.5 11.5 0 1 1 23.44 10.019"/><path fill="none" stroke="currentColor" stroke-linecap="round" stroke-linejoin="round" d="M11.372.542c-6 6.5-5.891 14.958.109 22.958M12.833.542A16.1 16.1 0 0 1 17.1 9.017m-.1 6.278a1.5 1.5 0 1 0 3 0 1.5 1.5 0 1 0-3 0"/><path fill="none" stroke="currentColor" stroke-linecap="round" stroke-linejoin="round" d="M23 15.3c0 3-4.5 7.5-4.5 7.5S14 18.3 14 15.3a4.5 4.5 0 0 1 9 0"/></svg>
