<svg xmlns="http://www.w3.org/2000/svg" fill="none" viewBox="0 0 24 24"><path stroke="currentColor" stroke-linecap="round" stroke-linejoin="round" d="M1.898 17.499H11m-8.488-12h18.984M12.5 11.5.511 11.499M8.5 22.958a11.5 11.5 0 1 1 15-11.458"/><path stroke="currentColor" stroke-linecap="round" stroke-linejoin="round" d="M11.269.525C5.888 6.356 5.42 13.761 9.711 21M12.73.525A16 16 0 0 1 17.066 9.5m.434 9v-3m.838-3a.95.95 0 0 0-1.676 0l-5.056 9.635a.923.923 0 0 0 .376 1.243c.141.078.3.12.462.119h10.112a.95.95 0 0 0 .807-.448.92.92 0 0 0 .031-.914z"/><path stroke="currentColor" d="M17.5 21a.25.25 0 1 1 0-.5m0 .5a.25.25 0 1 0 0-.5"/></svg>
