<svg xmlns="http://www.w3.org/2000/svg" viewBox="0 0 24 24"><path fill="none" stroke="currentColor" stroke-linecap="round" stroke-linejoin="round" d="M12 14.5c-2-1.5-3-4.5-3-7s1-5.5 3-7m0 14c2-1.5 3-4.5 3-7s-1-5.5-3-7m-6.326 4h12.652m-12.652 6h12.652M5 7.5h14"/><path fill="none" stroke="currentColor" stroke-linecap="round" stroke-linejoin="round" d="M5 7.5a7 7 0 1 0 14 0 7 7 0 1 0-14 0M2.75 18.25a1.75 1.75 0 1 0 3.5 0 1.75 1.75 0 1 0-3.5 0M8 23.5a3.612 3.612 0 0 0-7 0Zm9.75-5.25a1.75 1.75 0 1 0 3.5 0 1.75 1.75 0 1 0-3.5 0M23 23.5a3.612 3.612 0 0 0-7 0Z"/></svg>
