<svg xmlns="http://www.w3.org/2000/svg" viewBox="0 0 24 24"><path fill="none" stroke="currentColor" stroke-linecap="round" stroke-linejoin="round" d="M7.5 23.5c-2-1.5-3-4.5-3-7s1-5.5 3-7m0 14c2-1.5 3-4.5 3-7s-1-5.5-3-7m-6.326 4h12.652m-12.652 6h12.652M.5 16.5h14"/><path fill="none" stroke="currentColor" stroke-linecap="round" stroke-linejoin="round" d="M.5 16.5a7 7 0 1 0 14 0 7 7 0 1 0-14 0m17.294-5.473a4.92 4.92 0 0 0-4.821-4.821m7.674 4.861a7.87 7.87 0 0 0-7.714-7.714"/><path fill="none" stroke="currentColor" stroke-linecap="round" stroke-linejoin="round" d="M23.5 11.107A10.82 10.82 0 0 0 12.893.5"/></svg>
