<svg xmlns="http://www.w3.org/2000/svg" fill="none" viewBox="0 0 24 24"><path stroke="currentColor" stroke-linecap="round" stroke-linejoin="round" d="M.5 4.5h20m-13 12h-5a2 2 0 0 1-2-2v-12a2 2 0 0 1 2-2h16a2 2 0 0 1 2 2v6"/><path stroke="currentColor" stroke-linecap="round" stroke-linejoin="round" d="M16.5 23.5c-2-1.5-3-4.5-3-7s1-5.5 3-7m0 14c2-1.5 3-4.5 3-7s-1-5.5-3-7m-6.326 4h12.652m-12.652 6h12.652M9.5 16.5h14"/><path stroke="currentColor" stroke-linecap="round" stroke-linejoin="round" d="M16.5 23.5a7 7 0 1 0 0-14 7 7 0 0 0 0 14"/><path stroke="currentColor" d="M3.5 2.75a.25.25 0 0 1 0-.5m0 .5a.25.25 0 0 0 0-.5m2 .5a.25.25 0 0 1 0-.5m0 .5a.25.25 0 0 0 0-.5m2 .5a.25.25 0 0 1 0-.5m0 .5a.25.25 0 0 0 0-.5"/></svg>
