<svg xmlns="http://www.w3.org/2000/svg" viewBox="0 0 24 24"><path fill="none" stroke="currentColor" stroke-linecap="round" stroke-linejoin="round" d="M4.5 13.985a7.5 7.5 0 1 0 15 0 7.5 7.5 0 1 0-15 0M12 6.494v-5.5m6.205 3.458-1.137 1.647m6.423 6.336-1.991.193M4.691 23.006 6 21.494m13.31 1.512L18 21.494M.509 12.382l1.991.191m3.528-8.342 1.083 1.682M4.5 13.994h15m-13.85-4h12.7m-12.69 8h12.68"/><path fill="none" stroke="currentColor" stroke-linecap="round" stroke-linejoin="round" d="M9 13.994a3 7.5 0 1 0 6 0 3 7.5 0 1 0-6 0"/></svg>
