<svg xmlns="http://www.w3.org/2000/svg" viewBox="0 0 24 24"><path fill="none" stroke="currentColor" stroke-linecap="round" stroke-linejoin="round" d="M23.12.752.624 23.248M15.707 12v10.481a1.023 1.023 0 0 1-1.023 1.019H5.226m-1.279-3.575V1.519A1.023 1.023 0 0 1 4.97.5h9.714a1.023 1.023 0 0 1 1.023 1.023v6.642M3.947 9.699h10.226m4.601.256V18.9a1.534 1.534 0 0 0 3.068 0v-6.133a5.07 5.07 0 0 1 .851-2.812l.683-1.023m-1.534 3.835h1.534M7.418 3.997h4.818M7.418 6.389h4.818"/><path fill="none" stroke="currentColor" stroke-linecap="round" stroke-linejoin="round" d="M12.413 14.729a3.119 3.119 0 0 1-4.33 4.33"/></svg>
