<svg xmlns="http://www.w3.org/2000/svg" viewBox="0 0 24 24"><g fill="none" stroke="currentColor" stroke-linecap="round" stroke-linejoin="round"><path d="m8.45 21.54 3 1.82a1 1 0 0 0 1 0l9.13-5.48a1 1 0 0 0 .5-.87V7a1 1 0 0 0-.5-.87L12.52.64a1 1 0 0 0-1 0L2.35 6.12a1 1 0 0 0-.5.87V17a1 1 0 0 0 .5.87l2.74 1.64a2.22 2.22 0 0 0 3.36-1.9V7.94"/><path d="M11.5 14a1.93 1.93 0 0 0 1.7 1.92 10.6 10.6 0 0 0 2.6 0A1.93 1.93 0 0 0 17.5 14a1.78 1.78 0 0 0-1.5-1.75L14.5 12l-1.5-.25A1.78 1.78 0 0 1 11.5 10a1.93 1.93 0 0 1 1.7-1.92 10.6 10.6 0 0 1 2.6 0A1.93 1.93 0 0 1 17.5 10"/></g></svg>
