<svg xmlns="http://www.w3.org/2000/svg" viewBox="0 0 24 24"><path fill="none" stroke="currentColor" stroke-linecap="round" stroke-linejoin="round" d="M16.5 15.5a1 1 0 0 0-1 1v7h-14a1 1 0 0 1-1-1v-21a1 1 0 0 1 1-1h21a1 1 0 0 1 1 1v14Zm7 0-8 8"/><path fill="none" stroke="currentColor" stroke-linecap="round" stroke-linejoin="round" d="m5 10 1-1a1.415 1.415 0 0 1 2 0 1.415 1.415 0 0 0 2 0 1.415 1.415 0 0 1 2 0 1.415 1.415 0 0 0 2 0 1.415 1.415 0 0 1 2 0 1.415 1.415 0 0 0 2 0l1-1M5 15l1-1a1.415 1.415 0 0 1 2 0 1.415 1.415 0 0 0 2 0"/></svg>
