<svg xmlns="http://www.w3.org/2000/svg" viewBox="0 0 24 24"><path fill="none" stroke="currentColor" stroke-linecap="round" stroke-linejoin="round" d="M18.5 21.5a1 1 0 0 1-1 1h-13a1 1 0 0 1-1-1v-19a1 1 0 0 1 1-1h13a1 1 0 0 1 1 1Z"/><path fill="none" stroke="currentColor" stroke-linecap="round" stroke-linejoin="round" d="M14.5 9a.5.5 0 0 1-.5.5H9a.5.5 0 0 1-.5-.5V6a.5.5 0 0 1 .5-.5h5a.5.5 0 0 1 .5.5Zm-12-4.5h3m-3 5h3m-3 5h3m-3 5h3m16-12h-3v-4h2a1 1 0 0 1 1 1Zm-3 0h3v4h-3zm0 4h3v4h-3zm3 7a1 1 0 0 1-1 1h-2v-4h3Z"/></svg>
