<svg xmlns="http://www.w3.org/2000/svg" viewBox="0 0 24 24"><g fill="none" stroke="currentColor" stroke-linecap="round" stroke-linejoin="round"><path d="M18 2.5h2a1 1 0 0 1 1 1v19a1 1 0 0 1-1 1H4a1 1 0 0 1-1-1v-19a1 1 0 0 1 1-1h2"/><path d="M14 2.5a2 2 0 0 0-4 0H8v3h8v-3Z"/><path d="M8 4.5H5.5A.5.5 0 0 0 5 5v16a.5.5 0 0 0 .5.5H15V18a.5.5 0 0 1 .5-.5H19V5a.5.5 0 0 0-.5-.5H16m3 13-4 4"/><path d="m8 11 .79-.79a1 1 0 0 1 1.5.08 1 1 0 0 0 1.42 0 1 1 0 0 1 1.58 0 1 1 0 0 0 1.42 0l.79-.79M8 15l.79-.79a1 1 0 0 1 1.5.08 1 1 0 0 0 1.42 0 1 1 0 0 1 1.58 0 1 1 0 0 0 1.42 0l.79-.79"/></g></svg>
