<svg xmlns="http://www.w3.org/2000/svg" viewBox="0 0 24 24"><path fill="none" stroke="currentColor" stroke-linecap="round" stroke-linejoin="round" d="M6.5 6.5v-5a1 1 0 0 1 1-1h10l6 6v16a1 1 0 0 1-1 1h-7"/><path fill="none" stroke="currentColor" stroke-linecap="round" stroke-linejoin="round" d="M17.5.5v5a1 1 0 0 0 1 1h5m-22 14h12v2a1 1 0 0 1-1 1h-10a1 1 0 0 1-1-1zm9-3a2 2 0 0 1-2-1.943v0a2 2 0 0 1 .8-1.657 3 3 0 1 0-3.6 0 2.01 2.01 0 0 1 .8 1.656v0a2 2 0 0 1-2 1.944h-2a2 2 0 0 0-2 2 1 1 0 0 0 1 1h12a1 1 0 0 0 1-1 2 2 0 0 0-2-2ZM21 10.499h-8m8 8h-4m4-4h-6.5"/></svg>
