<svg xmlns="http://www.w3.org/2000/svg" viewBox="0 0 24 24"><path fill="none" stroke="currentColor" stroke-linecap="round" stroke-linejoin="round" d="M22.5 23.5a.71.71 0 0 0 .72-.96l-2.94-10.08A1.42 1.42 0 0 0 19 11.5H5a1.42 1.42 0 0 0-1.28.96L.78 22.539a.71.71 0 0 0 .72.96h4a1 1 0 0 0 1-1V22a1.5 1.5 0 0 1 3 0v.5a1 1 0 0 0 1 1h3a1 1 0 0 0 1-1V22a1.5 1.5 0 1 1 3 0v.5a1 1 0 0 0 1 1Z"/><path fill="none" stroke="currentColor" stroke-linecap="round" stroke-linejoin="round" d="M16.5 20.577 14.672 7.7a1 1 0 0 1 .493-1.009A3.22 3.22 0 0 0 17 4c0-1.935-2.238-3.5-5-3.5S7 2.065 7 4a3.22 3.22 0 0 0 1.835 2.693A1 1 0 0 1 9.328 7.7L7.5 20.577"/></svg>
