<svg xmlns="http://www.w3.org/2000/svg" fill="none" viewBox="0 0 24 24"><path stroke="currentColor" stroke-linecap="round" stroke-linejoin="round" d="M3.5 15.5h-2a1 1 0 0 1-1-1v-4a1 1 0 0 1 1-1h21a1 1 0 0 1 1 1v4a1 1 0 0 1-1 1h-3m-15-3.001h14m-10 0v11m3-11v11m3-11v11"/><path stroke="currentColor" stroke-linecap="round" stroke-linejoin="round" d="M5.5 12.5V20A1.5 1.5 0 0 1 4 21.5m13.5-9V20a1.5 1.5 0 0 0 1.5 1.5M5.5 7.5V1.427A.93.93 0 0 1 6.429.5h8.9a.92.92 0 0 1 .656.272l2.242 2.241a.93.93 0 0 1 .272.657V7.5"/><path stroke="currentColor" d="M21.25 12.75a.25.25 0 1 1 0-.5m0 .5a.25.25 0 1 0 0-.5"/></svg>
