<svg xmlns="http://www.w3.org/2000/svg" viewBox="0 0 24 24"><path fill="none" stroke="currentColor" stroke-linecap="round" stroke-linejoin="round" d="M12 21.5v-4m6-2a2.55 2.55 0 0 0 2.392-1.961L21 10.5m-15 5a2.55 2.55 0 0 1-2.392-1.961L3 10.5m12.5 3.29S18 7 18 5.5C18 3 15.678.786 13.047.547a11.7 11.7 0 0 0-2.094 0C8.322.786 6 3 6 5.5c0 1.5 2.5 8.29 2.5 8.29M11 22.5a1 1 0 1 0 2 0 1 1 0 1 0-2 0m5 0a1 1 0 1 0 2 0 1 1 0 1 0-2 0m-10 0a1 1 0 1 0 2 0 1 1 0 1 0-2 0"/><path fill="none" stroke="currentColor" stroke-linecap="round" stroke-linejoin="round" d="M7 21.5a6.28 6.28 0 0 1 5-2 6.28 6.28 0 0 1 5 2M5 10a.5.5 0 0 1-.5.5h-3A.5.5 0 0 1 1 10a2 2 0 0 1 4 0m18 0a.5.5 0 0 1-.5.5h-3a.5.5 0 0 1-.5-.5 2 2 0 0 1 4 0m-5 6.5a1 1 0 0 1-1 1H7a1 1 0 0 1-1-1v-1.316a1 1 0 0 1 .686-.95A17.1 17.1 0 0 1 12 13.5a17.1 17.1 0 0 1 5.314.734 1 1 0 0 1 .686.95Z"/></svg>
