<svg xmlns="http://www.w3.org/2000/svg" viewBox="0 0 24 24"><path fill="none" stroke="currentColor" stroke-linecap="round" stroke-linejoin="round" d="M21.207 4.5a1 1 0 0 1 .293.707V22.5a1 1 0 0 1-1 1h-17a1 1 0 0 1-1-1v-21a1 1 0 0 1 1-1h13.293a1 1 0 0 1 .707.291Z"/><path fill="none" stroke="currentColor" stroke-linecap="round" stroke-linejoin="round" d="M6.5 12.499a5.5 5.5 0 1 0 11 0 5.5 5.5 0 1 0-11 0"/><path fill="none" stroke="currentColor" stroke-linecap="round" stroke-linejoin="round" d="M15.107 7.96 12 12.499l3.525 4.222M12 12.499H6.5"/></svg>
