<svg xmlns="http://www.w3.org/2000/svg" viewBox="0 0 24 24"><path fill="none" stroke="currentColor" stroke-linecap="round" stroke-linejoin="round" d="M.5 2.5a2 2 0 0 1 2-2h19a2 2 0 0 1 2 2v20a1 1 0 0 1-1 1h-.484a1.5 1.5 0 0 1-1.325-.946l-.382-1.109a1.5 1.5 0 0 0-1.325-.945H5a1.48 1.48 0 0 0-1.316.948l-.368 1.1A1.49 1.49 0 0 1 2 23.5h-.5a1 1 0 0 1-1-1Z"/><path fill="none" stroke="currentColor" stroke-linecap="round" stroke-linejoin="round" d="M2.5 2.499h19v7h-19Zm0 9h19v7h-19Z"/><path fill="none" stroke="currentColor" stroke-linecap="round" stroke-linejoin="round" d="M7.5 5a.5.5 0 0 0-.5-.5H5a.5.5 0 0 0-.5.5v4.5h3Zm3 0a.5.5 0 0 0-.5-.5H8a.5.5 0 0 0-.5.5v4.5h3Zm3 0a.5.5 0 0 0-.5-.5h-2a.5.5 0 0 0-.5.5v4.5h3Zm0 9a.5.5 0 0 0-.5-.5h-2a.5.5 0 0 0-.5.5v4.5h3Zm3 0a.5.5 0 0 0-.5-.5h-2a.5.5 0 0 0-.5.5v4.5h3Zm3 0a.5.5 0 0 0-.5-.5h-2a.5.5 0 0 0-.5.5v4.5h3Z"/><path fill="none" stroke="currentColor" stroke-linecap="round" stroke-linejoin="round" d="m13.396 5.92 2.164-1.874 3.09 3.572-2.164 1.873Z"/></svg>
