<svg xmlns="http://www.w3.org/2000/svg" viewBox="0 0 24 24"><path fill="none" stroke="currentColor" stroke-linecap="round" stroke-linejoin="round" d="M5 11.973a7 7 0 1 0 14 0 7 7 0 1 0-14 0"/><path fill="none" stroke="currentColor" stroke-linecap="round" stroke-linejoin="round" d="M23.062 13.555a.5.5 0 0 0 .438-.5v-2.114a.5.5 0 0 0-.438-.5l-2.251-.281a8.9 8.9 0 0 0-1.285-3.092l1.395-1.795a.5.5 0 0 0-.041-.66l-1.5-1.5a.5.5 0 0 0-.66-.041l-1.795 1.4a9 9 0 0 0-3.092-1.286L13.555.938a.5.5 0 0 0-.5-.438h-2.114a.5.5 0 0 0-.5.438l-.281 2.25a9 9 0 0 0-3.088 1.286L5.277 3.079a.5.5 0 0 0-.66.041l-1.5 1.5a.5.5 0 0 0-.041.66l1.4 1.8a8.9 8.9 0 0 0-1.285 3.092l-2.251.281a.5.5 0 0 0-.438.5v2.118a.5.5 0 0 0 .438.5l2.251.281a8.9 8.9 0 0 0 1.285 3.092l-1.397 1.779a.5.5 0 0 0 .041.66l1.5 1.5a.5.5 0 0 0 .66.041l1.8-1.395a9 9 0 0 0 3.092 1.286l.281 2.25a.5.5 0 0 0 .5.438h2.118a.5.5 0 0 0 .5-.438l.281-2.25a9 9 0 0 0 3.092-1.286l1.795 1.395a.5.5 0 0 0 .66-.041l1.5-1.5a.5.5 0 0 0 .041-.66l-1.395-1.795a8.9 8.9 0 0 0 1.285-3.092Z"/><path fill="none" stroke="currentColor" stroke-linecap="round" stroke-linejoin="round" d="M15 14.5V9a.5.5 0 0 0-.5-.5h-1a.5.5 0 0 0-.5.5v5.5m-2 0V12a.5.5 0 0 0-.5-.5h-1a.5.5 0 0 0-.5.5v2.5m-1 0h8"/></svg>
