<svg xmlns="http://www.w3.org/2000/svg" fill="none" viewBox="0 0 24 24"><path stroke="currentColor" stroke-linecap="round" stroke-linejoin="round" d="M19.355 12.38V6.903a1 1 0 0 0-.277-.69l-4.679-4.9a1 1 0 0 0-.723-.31h-10a1 1 0 0 0-1 1v19.993a1 1 0 0 0 1 1h3.34"/><path stroke="currentColor" stroke-linecap="round" stroke-linejoin="round" d="m9.898 22.996 1.742-6.965a.81.81 0 0 1 .784-.613v0c.372 0 .695.253.785.613l1.741 6.965m-4.42-2.526h3.789m-.94-19.466v6.254h5.977m-1.967 14.425c.27.764 1.11 1.311 1.967 1.311 1.087 0 1.967-.88 1.967-1.967v-.328c0-1.087-.88-1.967-1.967-1.967h-.066c.942 0 1.705-.764 1.705-1.705v-.263a1.64 1.64 0 0 0-2.95-.983"/></svg>
