<svg xmlns="http://www.w3.org/2000/svg" viewBox="0 0 24 24"><path fill="none" stroke="currentColor" stroke-linecap="round" stroke-linejoin="round" d="M18.5 19v3.5a1 1 0 0 1-1 1h-16a1 1 0 0 1-1-1v-18a1 1 0 0 1 1-1h3m10 0h3a1 1 0 0 1 1 1V8M8 1.999a1.5 1.5 0 1 0 3 0 1.5 1.5 0 1 0-3 0"/><path fill="none" stroke="currentColor" stroke-linecap="round" stroke-linejoin="round" d="M10.915 2.5H13.5a1 1 0 0 1 1 1v1a1 1 0 0 1-1 1h-8a1 1 0 0 1-1-1v-1a1 1 0 0 1 1-1h2.585M3.5 9.499h12m-12 4h9.466m-9.466 4h7.983M17 17.5l-3.5 1 1-3.5 5.982-5.982a1.768 1.768 0 0 1 2.5 2.5Z"/></svg>
