<svg xmlns="http://www.w3.org/2000/svg" viewBox="0 0 24 24"><path fill="none" stroke="currentColor" stroke-linecap="round" stroke-linejoin="round" d="m16.082 18.5.979 3.8a1.61 1.61 0 0 0 1.961 1.153l.029-.008a1.61 1.61 0 0 0 1.116-1.03M10.033 3a2.5 2.5 0 1 0 5 0 2.5 2.5 0 1 0-5 0m-.2 18.5a2 2 0 1 0 4 0 2 2 0 1 0-4 0"/><path fill="none" stroke="currentColor" stroke-linecap="round" stroke-linejoin="round" d="M18.293 19.355a1.167 1.167 0 0 0 .74-1.392A4.51 4.51 0 0 0 15.7 14.4l-1.23-.308-.551-3.592h1.614a4.48 4.48 0 0 0 4.178-2.828l.246-.614a1.5 1.5 0 1 0-2.785-1.115l-.246.615a1.49 1.49 0 0 1-1.393.942h-7.5a5 5 0 0 0-3.9 2.1 1.5 1.5 0 1 0 2.4 1.8l.3-.3a1.51 1.51 0 0 1 1.2-.6h2.807l.594 3.794-2.384.716a1.5 1.5 0 0 1-1.2-.15l-1.364-.818a1.5 1.5 0 1 0-1.543 2.573l1.363.818a4.5 4.5 0 0 0 3.608.451l2.546-.764a3 3 0 0 1 1.59-.037l.922.23a1.5 1.5 0 0 1 1.111 1.187 1.424 1.424 0 0 0 1.849.983Z"/></svg>
