<svg xmlns="http://www.w3.org/2000/svg" viewBox="0 0 24 24"><path fill="none" stroke="currentColor" stroke-linecap="round" stroke-linejoin="round" d="M23.218.84a.5.5 0 0 0-.534.06C17.516 5.117 17.242-1.209 12 .972 6.758-1.209 6.484 5.117 1.316.9a.5.5 0 0 0-.816.4c.04 2.809.767 10.066 7.194 10.066a10.6 10.6 0 0 0 4.118-.793.47.47 0 0 1 .376 0 10.6 10.6 0 0 0 4.118.793c6.427 0 7.154-7.257 7.194-10.066a.5.5 0 0 0-.282-.46m.282.457V23.5"/><path fill="none" stroke="currentColor" stroke-linecap="round" stroke-linejoin="round" d="M7.333 4.048c-1.646-.294-3.13.3-3.314 1.331s1 2.1 2.648 2.4 3.131-.3 3.315-1.331-1.002-2.106-2.649-2.4m9.334 0c1.646-.294 3.13.3 3.314 1.331s-1 2.1-2.648 2.4-3.131-.3-3.315-1.331 1.002-2.106 2.649-2.4"/></svg>
