<svg xmlns="http://www.w3.org/2000/svg" viewBox="0 0 24 24"><path fill="none" stroke="currentColor" stroke-linecap="round" stroke-linejoin="round" d="m.5 1.524 23 6.631M1.325 1.762l.891 6.006a.5.5 0 0 0 .87.258l4.047-4.59m1.854.535L9.829 10a.5.5 0 0 0 .867.265l4.139-4.611m1.805.523.842 6.04a.5.5 0 0 0 .868.265l4.144-4.617M.5 17.024l23-2.578M.919 16.977l3.067 5.251a.5.5 0 0 0 .9-.085l2.08-5.843m2.16-.243 3.09 5.294a.5.5 0 0 0 .9-.085l2.1-5.891m1.724-.194 3.051 5.227a.5.5 0 0 0 .9-.085l2.068-5.817"/></svg>
