<svg xmlns="http://www.w3.org/2000/svg" viewBox="0 0 24 24"><path fill="none" stroke="currentColor" stroke-linecap="round" stroke-linejoin="round" d="M19.5 10v11.5a2 2 0 0 1-2 2h-15a2 2 0 0 1-2-2v-17a2 2 0 0 1 2-2h10.931"/><path fill="none" stroke="currentColor" stroke-linecap="round" stroke-linejoin="round" d="m12.54 13.581-3.536 1.415 1.415-3.536 9.192-9.192 2.121 2.121z"/><path fill="none" stroke="currentColor" stroke-linecap="round" stroke-linejoin="round" d="m21.732 4.389-2.121-2.121 1.061-1.061a1.5 1.5 0 1 1 2.121 2.121ZM10.419 11.46l2.121 2.121m7.071-11.313a2.036 2.036 0 0 0-2.879 0L14.5 4.5h-1m9.293-3.293L23.5.5M9.004 14.996 8 16"/></svg>
