<svg xmlns="http://www.w3.org/2000/svg" viewBox="0 0 24 24"><path fill="none" stroke="currentColor" stroke-linecap="round" stroke-linejoin="round" d="M1.504 11.5h8s.5 0 .5.5v2s0 .5-.5.5h-8s-.5 0-.5-.5v-2s0-.5.5-.5m1 3h8s.5 0 .5.5v2s0 .5-.5.5h-8s-.5 0-.5-.5v-2s0-.5.5-.5m-1 3h8s.5 0 .5.5v2s0 .5-.5.5h-8s-.5 0-.5-.5v-2s0-.5.5-.5m1 3h8s.5 0 .5.5v2s0 .5-.5.5h-8s-.5 0-.5-.5v-2s0-.5.5-.5m12-3h8s.5 0 .5.5v2s0 .5-.5.5h-8s-.5 0-.5-.5v-2s0-.5.5-.5m-1 3h8s.5 0 .5.5v2s0 .5-.5.5h-8s-.5 0-.5-.5v-2s0-.5.5-.5M1.5.5l7.371 7.367a1 1 0 0 0 1.332.074l3.582-2.866a1 1 0 0 1 1.351.095L23 13.5"/><path fill="none" stroke="currentColor" stroke-linecap="round" stroke-linejoin="round" d="M16.004 13.5h7V7"/></svg>
