<svg xmlns="http://www.w3.org/2000/svg" viewBox="0 0 24 24"><path fill="none" stroke="currentColor" stroke-linecap="round" stroke-linejoin="round" d="M1.5.5h21s1 0 1 1v21s0 1-1 1h-21s-1 0-1-1v-21s0-1 1-1"/><path fill="none" stroke="currentColor" stroke-linecap="round" stroke-linejoin="round" d="m.5 10.5 2.149-1.984a8.08 8.08 0 0 1 9.492-1.079 8.08 8.08 0 0 0 9.724-1.3L23.5 4.5m-23 14 2.149-1.984a8.08 8.08 0 0 1 9.492-1.079 8.08 8.08 0 0 0 9.724-1.3L23.5 12.5"/><path fill="none" stroke="currentColor" stroke-linecap="round" stroke-linejoin="round" d="M3.626.5A15.96 15.96 0 0 1 8.5 12a15.95 15.95 0 0 1-4.876 11.5m9.002-23a16 16 0 0 1 0 23"/></svg>
