<svg xmlns="http://www.w3.org/2000/svg" viewBox="0 0 24 24"><path fill="none" stroke="currentColor" stroke-linecap="round" stroke-linejoin="round" d="M21 2.955a3.186 3.186 0 0 1 2.5 3v2a2.015 2.015 0 0 1-2 2h-3a2.016 2.016 0 0 1-2-2v-1.5a46 46 0 0 0-9 0v1.5a2.016 2.016 0 0 1-2 2h-3a2.015 2.015 0 0 1-2-2v-2a3.186 3.186 0 0 1 2.5-3 45 45 0 0 1 18 0m.5 18a1 1 0 0 1-1 1h-17a1 1 0 0 1-1-1v-2a8.023 8.023 0 0 1 8-8h3a8.023 8.023 0 0 1 8 8Zm-11-12v2m3-2v2"/><path fill="none" stroke="currentColor" stroke-linecap="round" stroke-linejoin="round" d="M8.5 16.455a3.5 3.5 0 1 0 7 0 3.5 3.5 0 1 0-7 0"/></svg>
