<svg xmlns="http://www.w3.org/2000/svg" viewBox="0 0 24 24"><path fill="none" stroke="currentColor" stroke-linecap="round" stroke-linejoin="round" d="M7.492 10.013a2 2 0 0 0 0-2.828L5.37 5.064a2 2 0 0 0-2.828 0L1.378 6.227A3 3 0 0 0 1 10a46.5 46.5 0 0 0 13 13 3 3 0 0 0 3.774-.379l1.163-1.163a2 2 0 0 0 0-2.828l-2.12-2.122a2 2 0 0 0-2.829 0l-.707.708a47.5 47.5 0 0 1-6.5-6.5ZM18.815 5h4.5V.5"/><path fill="none" stroke="currentColor" stroke-linecap="round" stroke-linejoin="round" d="M22.973 5a6 6 0 1 0-.968 5.742"/></svg>
