<svg xmlns="http://www.w3.org/2000/svg" fill="none" viewBox="0 0 24 24"><path stroke="currentColor" stroke-linecap="round" stroke-linejoin="round" d="M11.5 14.5v7a2 2 0 0 1-2 2h-7a2 2 0 0 1-2-2v-15a2 2 0 0 1 2-2h4m0 4h-6m11 11H.5m4-13h2m17 1.5A1.5 1.5 0 0 1 22 9.5h-5.5l-3 3v-3H10A1.5 1.5 0 0 1 8.5 8V2A1.5 1.5 0 0 1 10 .5h12A1.5 1.5 0 0 1 23.5 2z"/><path stroke="currentColor" d="M12.75 5a.25.25 0 1 1 0-.5m0 .5a.25.25 0 1 0 0-.5M6 21.75a.25.25 0 1 1 0-.5m0 .5a.25.25 0 1 0 0-.5M16.25 5a.25.25 0 1 1 0-.5m0 .5a.25.25 0 1 0 0-.5m3.5.5a.25.25 0 1 1 0-.5m0 .5a.25.25 0 1 0 0-.5"/></svg>
