<svg xmlns="http://www.w3.org/2000/svg" viewBox="0 0 24 24"><path fill="none" stroke="currentColor" stroke-linecap="round" stroke-linejoin="round" d="M6.5.5h11s2 0 2 2v19s0 2-2 2h-11s-2 0-2-2v-19s0-2 2-2"/><path fill="none" stroke="currentColor" stroke-linecap="round" stroke-linejoin="round" d="M6.511 2.989a.5.5 0 1 0 1 0 .5.5 0 1 0-1 0M9 4.5a.5.5 0 1 0 1 0 .5.5 0 1 0-1 0M6.5 6.25a.5.5 0 1 0 1 0 .5.5 0 1 0-1 0"/><path fill="none" stroke="currentColor" stroke-linecap="round" stroke-linejoin="round" d="M4.5 8.5H10a2 2 0 0 0 2-2v-6"/></svg>
