<svg xmlns="http://www.w3.org/2000/svg" viewBox="0 0 24 24"><path fill="none" stroke="currentColor" stroke-linecap="round" stroke-linejoin="round" d="M10.227 9.028a1.55 1.55 0 0 0 .115-2.181L8.792 5.3a1.55 1.55 0 0 0-2.181.115l-.944.943a2.38 2.38 0 0 0-.444 2.926 30.6 30.6 0 0 0 9.5 9.5 2.384 2.384 0 0 0 2.925-.443l.944-.944a1.55 1.55 0 0 0 .114-2.182l-1.549-1.549a1.55 1.55 0 0 0-2.18.114l-.575.574A31.3 31.3 0 0 1 9.653 9.6Z"/><path fill="none" stroke="currentColor" stroke-linecap="round" stroke-linejoin="round" d="M18 18c.5.5 1.56 5.5-6 5.5a11.5 11.5 0 1 1 9.488-5"/></svg>
