<svg xmlns="http://www.w3.org/2000/svg" viewBox="0 0 24 24"><path fill="none" stroke="currentColor" stroke-linecap="round" stroke-linejoin="round" d="M7.492 10.014a2 2 0 0 0 0-2.829L5.37 5.064a2 2 0 0 0-2.828 0L1.378 6.227A3 3 0 0 0 1 10a46.5 46.5 0 0 0 13 13 3 3 0 0 0 3.774-.378l1.164-1.164a2 2 0 0 0 0-2.828l-2.122-2.12a2 2 0 0 0-2.828 0l-.707.707a47.5 47.5 0 0 1-6.5-6.5ZM16.5 3.5l3-3 3 3"/><path fill="none" stroke="currentColor" stroke-linecap="round" stroke-linejoin="round" d="M19.5.5v7.479L15.5 12m5.523-2.51L23.5 12"/></svg>
