<svg xmlns="http://www.w3.org/2000/svg" viewBox="0 0 24 24"><path fill="none" stroke="currentColor" stroke-linecap="round" stroke-linejoin="round" d="M6.5 5.5h11s1 0 1 1v11s0 1-1 1h-11s-1 0-1-1v-11s0-1 1-1"/><path fill="none" stroke="currentColor" stroke-linecap="round" stroke-linejoin="round" d="M23.5 7.625a2.73 2.73 0 0 0-1.1-2.187A2.742 2.742 0 1 0 18.562 1.6a2.724 2.724 0 0 0-4.374 0 2.726 2.726 0 0 0-4.376 0 2.724 2.724 0 0 0-4.374 0A2.742 2.742 0 1 0 1.6 5.438a2.724 2.724 0 0 0 0 4.374 2.726 2.726 0 0 0 0 4.376 2.724 2.724 0 0 0 0 4.374A2.742 2.742 0 1 0 5.438 22.4a2.724 2.724 0 0 0 4.374 0 2.726 2.726 0 0 0 4.376 0 2.724 2.724 0 0 0 4.374 0 2.742 2.742 0 1 0 3.838-3.838 2.724 2.724 0 0 0 0-4.374 2.726 2.726 0 0 0 0-4.376 2.73 2.73 0 0 0 1.1-2.187"/></svg>
