<svg xmlns="http://www.w3.org/2000/svg" viewBox="0 0 24 24"><path fill="none" stroke="currentColor" stroke-linecap="round" stroke-linejoin="round" d="M17.11 18.506A1.145 1.145 0 0 1 16 19.5H8a1.145 1.145 0 0 1-1.11-.994L6 10.5h12ZM5 .5h14s2 0 2 2v6s0 2-2 2H5s-2 0-2-2v-6s0-2 2-2m9 19h-4v3a1 1 0 0 0 1 1h2a1 1 0 0 0 1-1Z"/><path fill="none" stroke="currentColor" stroke-linecap="round" stroke-linejoin="round" d="M6 3.5h12v4H6Zm12 0 2.414-2.414M18 7.5l2.414 2.413M6 3.5 3.586 1.086M6 7.5 3.587 9.913M12 16a1.5 1.5 0 1 0 3 0 1.5 1.5 0 1 0-3 0"/></svg>
