<svg xmlns="http://www.w3.org/2000/svg" viewBox="0 0 24 24"><path fill="none" stroke="currentColor" stroke-linecap="round" stroke-linejoin="round" d="M18.5 6V5a2 2 0 0 0-2-2h-14a2 2 0 0 0-2 2v9a2 2 0 0 0 2 2h1"/><path fill="none" stroke="currentColor" stroke-linecap="round" stroke-linejoin="round" d="M7.5 8h14s2 0 2 2v9s0 2-2 2h-14s-2 0-2-2v-9s0-2 2-2"/><path fill="none" stroke="currentColor" stroke-linecap="round" stroke-linejoin="round" d="m8.5 18 3.276-6.553A.81.81 0 0 1 12.5 11a.89.89 0 0 1 .759.428L16.02 16l1.18-1.6a.99.99 0 0 1 .8-.4.81.81 0 0 1 .724.447L20.5 18Z"/></svg>
