<svg xmlns="http://www.w3.org/2000/svg" viewBox="0 0 24 24"><path fill="none" stroke="currentColor" stroke-linecap="round" stroke-linejoin="round" d="M23.5 5.5v17a1 1 0 0 1-1 1h-17"/><path fill="none" stroke="currentColor" stroke-linecap="round" stroke-linejoin="round" d="M21.5 2.5v18a1 1 0 0 1-1 1h-18"/><path fill="none" stroke="currentColor" stroke-linecap="round" stroke-linejoin="round" d="M1.5.5h17s1 0 1 1v17s0 1-1 1h-17s-1 0-1-1v-17s0-1 1-1"/><path fill="none" stroke="currentColor" stroke-linecap="round" stroke-linejoin="round" d="m17 15.5-3.553-7.106c-.246-.492-.648-.492-.894 0L10 13.5l-1.86-2.232a.666.666 0 0 0-1.154.089L4.5 15.5M4.5 5a1.5 1.5 0 1 0 3 0 1.5 1.5 0 1 0-3 0m15 10.5H.5"/></svg>
