<svg xmlns="http://www.w3.org/2000/svg" viewBox="0 0 24 24"><path fill="none" stroke="currentColor" stroke-linecap="round" stroke-linejoin="round" d="M18.5 11.5v-10a1 1 0 0 0-1-1h-16a1 1 0 0 0-1 1v16a1 1 0 0 0 1 1h10"/><path fill="none" stroke="currentColor" stroke-linecap="round" stroke-linejoin="round" d="M10.5 12a1.5 1.5 0 1 0 3 0 1.5 1.5 0 1 0-3 0m-7 1a1.5 1.5 0 1 0 3 0 1.5 1.5 0 1 0-3 0"/><path fill="none" stroke="currentColor" stroke-linecap="round" stroke-linejoin="round" d="M6.5 13V7.254a1 1 0 0 1 .725-.961l5-1.429a1 1 0 0 1 1.275.962V12m0 6.5a5 5 0 1 0 10 0 5 5 0 1 0-10 0m5 2v-4"/><path fill="none" stroke="currentColor" stroke-linecap="round" stroke-linejoin="round" d="m16.5 18.5 2 2 2-2"/></svg>
