<svg xmlns="http://www.w3.org/2000/svg" fill="none" viewBox="0 0 24 24"><path stroke="currentColor" stroke-linecap="round" stroke-linejoin="round" d="M5 21.5a2.5 2.5 0 1 0 0-5 2.5 2.5 0 0 0 0 5m14 0a2.5 2.5 0 1 0 0-5 2.5 2.5 0 0 0 0 5"/><path stroke="currentColor" stroke-linecap="round" stroke-linejoin="round" d="M7.5 14.5H5a4.5 4.5 0 1 0 0 9h14a4.5 4.5 0 1 0 0-9h-2.5"/><path stroke="currentColor" stroke-linecap="round" stroke-linejoin="round" d="M15.5.5h-7a1 1 0 0 0-1 1v14a1 1 0 0 0 1 1h7a1 1 0 0 0 1-1v-14a1 1 0 0 0-1-1m-5 2h3M7.5 13h8.98M8.5 21.5h1m6 0h-1m-3 0h1"/><path stroke="currentColor" d="M11.99 15a.25.25 0 1 1 0-.5m0 .5a.25.25 0 1 0 0-.5M5 19.25a.25.25 0 1 1 0-.5m0 .5a.25.25 0 1 0 0-.5m14 .5a.25.25 0 1 1 0-.5m0 .5a.25.25 0 1 0 0-.5"/></svg>
