<svg xmlns="http://www.w3.org/2000/svg" viewBox="0 0 24 24"><path fill="none" stroke="currentColor" stroke-linecap="round" stroke-linejoin="round" d="M17.5 21.5a2 2 0 1 1-2-2h2Zm6-3a2 2 0 1 1-2-2h2Z"/><path fill="none" stroke="currentColor" stroke-linecap="round" stroke-linejoin="round" d="M17.5 19.5v-4.465a1 1 0 0 1 .445-.832l4-2.667a1 1 0 0 1 1.555.833V16.5m-18-15h13m-18 0a1 1 0 1 0 2 0 1 1 0 1 0-2 0m5 5h13m-13 5h12m-17-5a1 1 0 1 0 2 0 1 1 0 1 0-2 0m0 5a1 1 0 1 0 2 0 1 1 0 1 0-2 0m5 5h9m-14 0a1 1 0 1 0 2 0 1 1 0 1 0-2 0"/></svg>
