<svg xmlns="http://www.w3.org/2000/svg" fill="none" viewBox="0 0 24 24"><path stroke="currentColor" stroke-linecap="round" stroke-linejoin="round" d="M9.113 13.5a1.5 1.5 0 1 0 0-3 1.5 1.5 0 0 0 0 3m6 0a1.5 1.5 0 1 0 0-3 1.5 1.5 0 0 0 0 3"/><path stroke="currentColor" stroke-linecap="round" stroke-linejoin="round" d="M20.25.75H3.75a3 3 0 0 0-3 3v16.5a3 3 0 0 0 3 3h16.5a3 3 0 0 0 3-3V3.75a3 3 0 0 0-3-3M12.113 4v2.5m0 11V20"/><path stroke="currentColor" stroke-linecap="round" stroke-linejoin="round" d="M17.461 5.821A4.82 4.82 0 0 1 19 9.351v.9h1.386v3.437H19v.962a4.82 4.82 0 0 1-1.539 3.53 8.026 8.026 0 0 1-10.922 0 4.82 4.82 0 0 1-1.54-3.53v-.962H3.614V10.25H5v-.9c0-1.339.557-2.618 1.539-3.529a8.026 8.026 0 0 1 10.922 0"/></svg>
