<svg xmlns="http://www.w3.org/2000/svg" viewBox="0 0 24 24"><path fill="none" stroke="currentColor" stroke-linecap="round" stroke-linejoin="round" d="M18.994 8.515c-3.594 0-5.507-1.909-5.507-3s1.913-3 5.507-3c2 0 4.506.97 4.506 3s-2.441 3-4.506 3m-5.507-3.004c-2.723 0-2.619-1.961-4.966-1.961s-2.544 4.5-4.985 4.5C1.77 8.045 1.446 6.456.5 5.577m18.039 15.916c-2.362 0-3.62-1.254-3.62-1.974s1.258-1.974 3.62-1.974c1.316 0 2.961.637 2.961 1.974s-1.6 1.974-2.961 1.974m-3.62-1.974c-1.788 0-1.719-1.289-3.262-1.289s-1.672 2.954-3.276 2.954c-1.162 0-1.375-1.044-2-1.621m7.158-5.069c-2.362 0-3.62-1.255-3.62-1.974s1.258-1.975 3.62-1.975c1.316 0 2.961.638 2.961 1.975s-1.6 1.974-2.961 1.974m-3.62-1.974c-1.788 0-1.719-1.289-3.262-1.289s-1.672 2.954-3.276 2.954c-1.162 0-1.375-1.044-2-1.621"/></svg>
