<svg xmlns="http://www.w3.org/2000/svg" viewBox="0 0 24 24"><path fill="none" stroke="currentColor" stroke-linecap="round" stroke-linejoin="round" d="M19.421 8.2a11.5 11.5 0 0 0-.388 4.488c.382 3.947 2.42 4.588 2.42 10.572M5.744.8A13.4 13.4 0 0 0 4 1.757c-1.282 1.183.58 3.489 2.508 4.2a8 8 0 0 0 3.775 15.053m-3.027-.596v2.843"/><path fill="none" stroke="currentColor" stroke-linecap="round" stroke-linejoin="round" d="M21.721.743c-2.5 13.443-9.557 15.005-12.1 16.156-1.831-.6-3.56-1.175-3.325-2.7l2.609-1.112-.543.157s-1 .062-1.216-.554-.022-1.248 1.119-1.4c5.231-.7 7.319-7.807 7.652-10.422"/><path fill="none" stroke="currentColor" stroke-linecap="round" stroke-linejoin="round" d="M14.309 14.5c1.075 3.55-.771 6.253-4.03 6.509M2.86 10.016C5.333 7.367 8.728 7.5 11.381 9.9"/></svg>
