<svg xmlns="http://www.w3.org/2000/svg" viewBox="0 0 24 24"><path fill="none" stroke="currentColor" stroke-linecap="round" stroke-linejoin="round" d="M19.5 21.5a1 1 0 0 1-1 1h-13a1 1 0 0 1-1-1v-5h15Zm-13.996 1v1m13-1v1m-1-5v2m-2-2v2m-2-2v2m5.996-7v-7a1 1 0 0 0-1-1h-3m-8 .5a.5.5 0 0 1 .5-.5h7.5V7a.5.5 0 0 1-.5.5H8a.5.5 0 0 1-.5-.5Zm7-4.5a1 1 0 0 0-1-1h-4a1 1 0 0 0-1 1v4h6Z"/><path fill="none" stroke="currentColor" stroke-linecap="round" stroke-linejoin="round" d="M10.545 3.083a1 1 0 1 0 2 0 1 1 0 1 0-2 0M3.504 13.5h17v3h-17Z"/></svg>
