<svg xmlns="http://www.w3.org/2000/svg" fill="none" viewBox="0 0 24 24"><path stroke="currentColor" stroke-linecap="round" stroke-linejoin="round" d="M11.504 6a2.75 2.75 0 1 0 0-5.5 2.75 2.75 0 0 0 0 5.5m3.366 3.537A3.5 3.5 0 0 0 8.147 9.5m-1.143 2h9m-7.791 2.951L8.004 11.5h7l-.211 2.981M12.09 20.7a2.35 2.35 0 1 0 0-4.7 2.35 2.35 0 0 0 0 4.7m-7.392 0a2.35 2.35 0 1 0 0-4.7 2.35 2.35 0 0 0 0 4.7m14.62 0a2.35 2.35 0 1 0 0-4.7 2.35 2.35 0 0 0 0 4.7M23 23.5a4.68 4.68 0 0 0-7.292 0A4.86 4.86 0 0 0 12 21.76M1 23.5a4.682 4.682 0 0 1 7.292 0A4.86 4.86 0 0 1 12 21.76"/><path stroke="currentColor" d="M11.5 14.272a.25.25 0 0 1 0-.5m0 .5a.25.25 0 0 0 0-.5"/></svg>
