<svg xmlns="http://www.w3.org/2000/svg" viewBox="0 0 24 24"><path fill="none" stroke="currentColor" stroke-linecap="round" stroke-linejoin="round" d="M1.504.5h21s1 0 1 1v13s0 1-1 1h-21s-1 0-1-1v-13s0-1 1-1m10 15v3.415M6.5 23.5l4.3-4.293a1 1 0 0 1 1.414 0L16.5 23.5"/><path fill="none" stroke="currentColor" stroke-linecap="round" stroke-linejoin="round" d="M.505 8.5h5.669a.5.5 0 0 0 .46-.3l.886-2.07a.5.5 0 0 1 .927.018l1.67 4.343a.5.5 0 0 0 .906.06l2.073-3.8a.5.5 0 0 1 .863-.026l1.552 2.485a.5.5 0 0 0 .88-.058L18.5 4.5"/></svg>
