<svg xmlns="http://www.w3.org/2000/svg" viewBox="0 0 24 24"><path fill="none" stroke="currentColor" stroke-linecap="round" stroke-linejoin="round" d="M2.504 2.5h19v17h-19zm8.5 20a1 1 0 1 0 2 0 1 1 0 1 0-2 0m1-3v2M7.504 6V5"/><path fill="none" stroke="currentColor" stroke-linecap="round" stroke-linejoin="round" d="M9 6H6.971a1.342 1.342 0 0 0-.5 2.587l2.064.826A1.342 1.342 0 0 1 8.037 12H6m1.504 1v-1m9.996 3.5V10a.5.5 0 0 0-.5-.5h-1a.5.5 0 0 0-.5.5v5.5m-2 0V13a.5.5 0 0 0-.5-.5h-1a.5.5 0 0 0-.5.5v2.5m-2.996 0h10.5m4.496-14a1 1 0 0 1-1 1h-21a1 1 0 0 1 0-2h21a1 1 0 0 1 1 1m-21.996 18h21"/></svg>
