<svg xmlns="http://www.w3.org/2000/svg" viewBox="0 0 24 24"><path fill="none" stroke="currentColor" stroke-linecap="round" stroke-linejoin="round" d="M12.004 9.5v2M15 3.5a3 3 0 0 0-6 0v3a3 3 0 0 0 6 0Zm-5.996 3h6M10 16.5H7a1.97 1.97 0 0 1-1.515-.857l-1.967-3.286c-.283-.471-.064-.857.486-.857H20c.55 0 .768.386.485.857l-1.971 3.286A1.97 1.97 0 0 1 17 16.5h-3"/><path fill="none" stroke="currentColor" stroke-linecap="round" stroke-linejoin="round" d="M10.004 23.5v-9h4v9m-3-19h2m-2-2h2m-7.44 2a1.357 1.357 0 0 0 0-2 1.357 1.357 0 0 0-2 0l-.792.793a1 1 0 0 0 0 1.414l.585.586a1 1 0 0 0 1.415 0Zm-2.5.5a3.1 3.1 0 0 0 0 4l2.5 2.5m12.879-7a1.36 1.36 0 0 1 0-2 1.357 1.357 0 0 1 2 0l.793.793a1 1 0 0 1 0 1.414l-.585.586a1 1 0 0 1-1.415 0Z"/><path fill="none" stroke="currentColor" stroke-linecap="round" stroke-linejoin="round" d="M20.943 5a3.1 3.1 0 0 1 0 4l-2.5 2.5"/></svg>
