<svg xmlns="http://www.w3.org/2000/svg" viewBox="0 0 24 24"><path fill="none" stroke="currentColor" stroke-linecap="round" stroke-linejoin="round" d="M7.5 19.499h9m-9-3h9m-11 .001h-3a2.006 2.006 0 0 1-2-2v-6a2.006 2.006 0 0 1 2-2h19a2.006 2.006 0 0 1 2 2v6a2.006 2.006 0 0 1-2 2h-3m-13-12v-4h9.586a1 1 0 0 1 .707.293l2.414 2.414a1 1 0 0 1 .293.707V4.5"/><path fill="none" stroke="currentColor" stroke-linecap="round" stroke-linejoin="round" d="M18.5 22.5a1 1 0 0 1-1 1h-11a1 1 0 0 1-1-1v-9h13ZM2.5 9.499a1 1 0 1 0 2 0 1 1 0 1 0-2 0m12-9v4h4"/></svg>
