<svg xmlns="http://www.w3.org/2000/svg" fill="none" viewBox="0 0 24 24"><path stroke="currentColor" stroke-linecap="round" stroke-linejoin="round" d="M6.5 10.5 9 13l-2.5 2.5m6-2h4"/><path stroke="currentColor" d="M14 5.25a.25.25 0 1 1 0-.5m0 .5a.25.25 0 1 0 0-.5m3 .5a.25.25 0 1 1 0-.5m0 .5a.25.25 0 1 0 0-.5m3 .5a.25.25 0 1 1 0-.5m0 .5a.25.25 0 1 0 0-.5"/><path stroke="currentColor" stroke-linecap="round" stroke-linejoin="round" d="M22.5 2.5h-21a1 1 0 0 0-1 1v17a1 1 0 0 0 1 1h21a1 1 0 0 0 1-1v-17a1 1 0 0 0-1-1m-22 5h23"/></svg>
