<svg xmlns="http://www.w3.org/2000/svg" viewBox="0 0 24 24"><path fill="none" stroke="currentColor" stroke-linecap="round" stroke-linejoin="round" d="M5.5 2.5h11a1 1 0 0 1 1 1v1"/><path fill="none" stroke="currentColor" stroke-linecap="round" stroke-linejoin="round" d="M19.5 4.5v-3a1 1 0 0 0-1-1h-13a2 2 0 0 0 0 4za1 1 0 0 1 1 1v17a1 1 0 0 1-1 1h-14a2 2 0 0 1-2-2v-19"/><path fill="none" stroke="currentColor" stroke-linecap="round" stroke-linejoin="round" d="m7.5 10.504 2.5 2.5-2.5 2.5m5-1h4"/></svg>
