<svg xmlns="http://www.w3.org/2000/svg" viewBox="0 0 24 24"><path fill="none" stroke="currentColor" stroke-linecap="round" stroke-linejoin="round" d="M1.75 7.75a3.25 3.25 0 1 0 6.5 0 3.25 3.25 0 1 0-6.5 0M6.9 23.5l.6-3h2V17a4.5 4.5 0 0 0-9 0v3.5h2l.6 3m20.4-14a1 1 0 0 1-1 1H17l-3.5 3v-3h-1a1 1 0 0 1-1-1v-8a1 1 0 0 1 1-1h10a1 1 0 0 1 1 1Z"/><path fill="none" stroke="currentColor" stroke-linecap="round" stroke-linejoin="round" d="M1.75 7.75a3.25 3.25 0 1 0 6.5 0 3.25 3.25 0 1 0-6.5 0M6.9 23.5l.6-3h2V17a4.5 4.5 0 0 0-9 0v3.5h2l.6 3M14.5 3l2 2-2 2m3-.5h4"/></svg>
