<svg xmlns="http://www.w3.org/2000/svg" viewBox="0 0 24 24"><g fill="none" stroke="currentColor" stroke-linecap="round" stroke-linejoin="round"><path d="M3.5 22.5 1.49 20a4.5 4.5 0 0 1-1-2.81V12A1.5 1.5 0 0 1 2 10.5h0A1.5 1.5 0 0 1 3.5 12v3.87"/><path d="M8 22.5v-3.14a4.43 4.43 0 0 0-.76-2.49L6.1 15.15a1.41 1.41 0 0 0-2-.44h0a1.4 1.4 0 0 0-.47 1.79L5 18.75m15.5 3.75 2-2.52a4.5 4.5 0 0 0 1-2.81V12a1.5 1.5 0 0 0-1.5-1.5h0a1.5 1.5 0 0 0-1.5 1.5v3.87"/><path d="M16 22.5v-3.14a4.43 4.43 0 0 1 .76-2.49l1.14-1.72a1.41 1.41 0 0 1 2-.44h0a1.4 1.4 0 0 1 .47 1.79L19 18.75M16.5 2l4 4-4 4m-8-8-4 4 4 4m5-8.5-2 9"/></g></svg>
