<svg xmlns="http://www.w3.org/2000/svg" viewBox="0 0 24 24"><path fill="none" stroke="currentColor" stroke-linecap="round" stroke-linejoin="round" d="M17 21.219a2 2 0 1 0 4 0 2 2 0 1 0-4 0m-14 0a2 2 0 1 0 4 0 2 2 0 1 0-4 0"/><path fill="none" stroke="currentColor" stroke-linecap="round" stroke-linejoin="round" d="M3 21.219H1a.5.5 0 0 1-.5-.5v-10a.5.5 0 0 1 .5-.5h10a.5.5 0 0 1 .5.5v8.5m5.5 2H7m14 0h2a.5.5 0 0 0 .5-.5v-3.793a.5.5 0 0 0-.147-.354L21.5 14.719l-2.357-4.243a.5.5 0 0 0-.437-.257H15a.5.5 0 0 0-.5.5v8.5m9 0H.5m14-7h-3M23 .781 1.203 10.219m20.297 4.5h-7"/><path fill="none" stroke="currentColor" stroke-linecap="round" stroke-linejoin="round" d="M15.5 10.219v-1a1 1 0 0 1 1-1h1a1 1 0 0 1 1 1v1"/></svg>
