<svg xmlns="http://www.w3.org/2000/svg" viewBox="0 0 24 24"><path fill="none" stroke="currentColor" stroke-linecap="round" stroke-linejoin="round" d="M14 10.5h-1.5a1 1 0 0 1-1-1v-8a1 1 0 0 1 1-1h10a1 1 0 0 1 1 1v8a1 1 0 0 1-1 1h-4m-1-8v6"/><path fill="none" stroke="currentColor" stroke-linecap="round" stroke-linejoin="round" d="M17.5 2.5h-1.729a4 4 0 0 0-1.277.209 1 1 0 0 0-.352.208L13.5 3.5m4 2h-.752a4 4 0 0 0-1.278.21 1 1 0 0 0-.291.156l-.887.683M17.5 2.5h1.729a4 4 0 0 1 1.277.209 1 1 0 0 1 .352.208l.642.583m-4 2h.752a4 4 0 0 1 1.278.21 1 1 0 0 1 .291.156l.887.683M16 8.5h3m-16.5 9v-3m6 3v-3m-6 3h6m-3 6v-4M5.5 9v5M8 23.5l.5-6h2V14a5 5 0 0 0-10 0v3.5h2l.5 6ZM2 4a3.5 3.5 0 1 0 7 0 3.5 3.5 0 1 0-7 0"/><path fill="none" stroke="currentColor" stroke-linecap="round" stroke-linejoin="round" d="M2.4 2.378A5.98 5.98 0 0 0 6.5 4a6 6 0 0 0 2.461-.526M12.5 16.5l4-6"/></svg>
