<svg xmlns="http://www.w3.org/2000/svg" viewBox="0 0 24 24"><path fill="none" stroke="currentColor" stroke-linecap="round" stroke-linejoin="round" d="M.5 12.001a11.5 11.5 0 1 0 23 0 11.5 11.5 0 1 0-23 0"/><path fill="none" stroke="currentColor" stroke-linecap="round" stroke-linejoin="round" d="M13.5 12a1.5 1.5 0 0 1-1.5 1.5h0a1.5 1.5 0 0 1-1.5-1.5h0a1.5 1.5 0 0 1 1.5-1.5h0a1.5 1.5 0 0 1 1.5 1.5m3.2-7.062a.5.5 0 0 0-.719.159l-2.238 3.885A3.49 3.49 0 0 1 15.5 12a4 4 0 0 1-.05.5h4.533a.5.5 0 0 0 .5-.533A9.7 9.7 0 0 0 16.7 4.938m-6.443 10.081-2.246 3.89a.5.5 0 0 0 .209.7 8.44 8.44 0 0 0 7.56 0 .5.5 0 0 0 .256-.3.5.5 0 0 0-.047-.395l-2.246-3.89a3.39 3.39 0 0 1-3.486 0Zm0-6.037L8.014 5.1a.5.5 0 0 0-.719-.16 9.7 9.7 0 0 0-3.777 7.03.5.5 0 0 0 .5.533H8.55A4 4 0 0 1 8.5 12a3.49 3.49 0 0 1 1.757-3.018"/></svg>
