<svg xmlns="http://www.w3.org/2000/svg" fill="none" viewBox="0 0 24 24"><path stroke="currentColor" stroke-linecap="round" stroke-linejoin="round" d="M23.5 8.875v8m-2-8v8m-2-10-1.5-1m-3.5-2-2.5-.5m3.5 5 3.5.5m-3.5 2.5H19m-3.5 6 3.5-.5m-3.5-2.5H19m-5.5-6v3m0 6v-3M3.877 5.929.5 5.125M11 7.875 7.647 6.827m-4.616 3.548h-2.5m9.969.5-3.215-.321m-3.408 9.267L.5 20.625m10.5-2.75-3.353 1.048m-4.616-3.548h-2.5m9.969-.5-3.215.321"/><path stroke="currentColor" d="M5.75 6.625a.25.25 0 0 1 0-.5m0 .5a.25.25 0 0 0 0-.5m10.5-1.25a.25.25 0 1 1 0-.5m0 .5a.25.25 0 1 0 0-.5m-11.092 6.25a.25.25 0 1 1 0-.5m0 .5a.25.25 0 1 0 0-.5m-.015 5.5a.25.25 0 1 1 0-.5m0 .5a.25.25 0 1 0 0-.5m.607 4.5a.25.25 0 1 1 0-.5m0 .5a.25.25 0 1 0 0-.5"/></svg>
