<svg xmlns="http://www.w3.org/2000/svg" viewBox="0 0 24 24"><path fill="none" stroke="currentColor" stroke-linecap="round" stroke-linejoin="round" d="M12 .509c14 0 8 19 0 19s-14-19 0-19"/><path fill="none" stroke="currentColor" stroke-linecap="round" stroke-linejoin="round" d="M7.224 8.938a1 1 0 0 0 .894.553h7.764a1 1 0 0 0 .894-.553l1-2a1 1 0 0 0-.894-1.447H7.118a1 1 0 0 0-.894 1.447Zm8.12 9.448c1.762-2.365-.243-5.377-3.345-5.377s-5.105 3.016-3.343 5.377M.5 23.491l4.133-10.386m14.712.054L23.5 23.491m-22.204-2h21.4m-6.255-4h4.646m-18.199 0h4.671"/></svg>
