<svg xmlns="http://www.w3.org/2000/svg" viewBox="0 0 24 24"><path fill="none" stroke="currentColor" stroke-linecap="round" stroke-linejoin="round" d="M23 17.25h-7.5v-5a.5.5 0 0 0-.5-.5H9a.5.5 0 0 0-.5.5v5H1a.5.5 0 0 0-.5.5v5a.5.5 0 0 0 .5.5h22a.5.5 0 0 0 .5-.5v-5a.5.5 0 0 0-.5-.5m-15.5-8a4 4 0 0 1 .39-1.587c.276-.552 1.428-.934 2.875-1.47.391-.145.328-1.058.154-1.248a2.9 2.9 0 0 1-.75-2.238 1.835 1.835 0 1 1 3.661 0 2.9 2.9 0 0 1-.75 2.238c-.173.191-.237 1.1.154 1.248 1.447.536 2.6.918 2.875 1.47A4 4 0 0 1 16.5 9.25"/><path fill="none" stroke="currentColor" stroke-linecap="round" stroke-linejoin="round" d="M5.712 14.25c-.43-.176-.935-.356-1.479-.558-.391-.145-.328-1.058-.154-1.248a2.9 2.9 0 0 0 .75-2.238A1.79 1.79 0 0 0 3 8.249a1.79 1.79 0 0 0-1.831 1.957 2.9 2.9 0 0 0 .75 2.238c.173.191.237 1.1-.154 1.248-.458.169-.885.324-1.265.473m17.785.085c.43-.176.935-.356 1.479-.558.391-.145.328-1.058.154-1.248a2.9 2.9 0 0 1-.75-2.238 1.835 1.835 0 1 1 3.661 0 2.9 2.9 0 0 1-.75 2.238c-.173.191-.237 1.1.154 1.248.458.169.885.324 1.266.473"/></svg>
