<svg xmlns="http://www.w3.org/2000/svg" viewBox="0 0 24 24"><path fill="none" stroke="currentColor" stroke-linecap="round" stroke-linejoin="round" d="M4.486 17.075C4.224 18.937.5 19.868.5 19.868l2.5 1.5-1 2s4.5-.5 4.5-2.5a.98.98 0 0 0-1-1m14.014-2.793c.262 1.862 3.986 2.793 3.986 2.793l-2.5 1.5 1 2s-4.5-.5-4.5-2.5a.98.98 0 0 1 1-1"/><path fill="none" stroke="currentColor" stroke-linecap="round" stroke-linejoin="round" d="M12 16.869c5 0 6.5 3 6.5 3l1.722-4.736a1 1 0 0 0-.447-1.212A16.2 16.2 0 0 0 12 11.869a16.2 16.2 0 0 0-7.775 2.052 1 1 0 0 0-.447 1.212L5.5 19.869s1.5-3 6.5-3M11.776.816c.123-.246.324-.246.447 0L13.5 3.369h3c.275 0 .313.125.084.277L14 5.369 15.324 8.9c.1.258-.008.337-.231.177L12 6.869 8.907 9.078c-.224.16-.328.08-.231-.177L10 5.369 7.416 3.646c-.229-.153-.191-.277.084-.277h3ZM3.789 4.322c.116-.249.306-.249.423 0l.955 2.047H7c.275 0 .341.159.146.354L5.555 8.314l.645 2.242c.076.264-.053.362-.287.216L4 9.578l-1.91 1.194c-.233.146-.362.05-.287-.216l.641-2.242L.852 6.723c-.194-.2-.129-.354.146-.354h1.834Zm16 0c.116-.249.306-.249.423 0l.955 2.047H23c.275 0 .341.159.146.354l-1.591 1.591.641 2.242c.076.264-.053.362-.287.216L20 9.578l-1.91 1.194c-.233.146-.362.05-.287-.216l.641-2.242-1.592-1.591c-.194-.2-.129-.354.146-.354h1.834Z"/></svg>
