<svg xmlns="http://www.w3.org/2000/svg" viewBox="0 0 24 24"><path fill="none" stroke="currentColor" stroke-linecap="round" stroke-linejoin="round" d="M20.5 22.079a1 1 0 0 1-1.543.839L12 18.417l-6.957 4.5a1 1 0 0 1-1.543-.838V1.917a1 1 0 0 1 1-1h15a1 1 0 0 1 1 1Z"/><path fill="none" stroke="currentColor" stroke-linecap="round" stroke-linejoin="round" d="m12.588 5.4 1.282 2.52h2.5a.613.613 0 0 1 .43 1.069l-2.166 2.263 1.2 2.761a.654.654 0 0 1-.931.818L12 13.2l-2.9 1.631a.654.654 0 0 1-.931-.818l1.2-2.761L7.2 8.989a.612.612 0 0 1 .432-1.069h2.5l1.281-2.52a.661.661 0 0 1 1.175 0"/></svg>
