<svg xmlns="http://www.w3.org/2000/svg" viewBox="0 0 24 24"><path fill="none" stroke="currentColor" stroke-linecap="round" stroke-linejoin="round" d="M7.5 5.5h9s1 0 1 1v5s0 1-1 1h-9s-1 0-1-1v-5s0-1 1-1"/><path fill="none" stroke="currentColor" stroke-linecap="round" stroke-linejoin="round" d="M6.5 7 11 9.3a2 2 0 0 0 2 0L17.5 7M9.138 23.5a7.5 7.5 0 0 0 1.362-4m4.362 4a7.5 7.5 0 0 1-1.362-4m-6 4h9m-16-7h23"/><path fill="none" stroke="currentColor" stroke-linecap="round" stroke-linejoin="round" d="M1.5.5h21s1 0 1 1v17s0 1-1 1h-21s-1 0-1-1v-17s0-1 1-1"/></svg>
