<svg xmlns="http://www.w3.org/2000/svg" viewBox="0 0 24 24"><path fill="none" stroke="currentColor" stroke-linecap="round" stroke-linejoin="round" d="M4 22.293a.5.5 0 0 0 .854.353L6 21.5l1.646 1.646a.5.5 0 0 0 .708 0L10 21.5l1.646 1.646a.5.5 0 0 0 .708 0L14 21.5l1.646 1.646a.5.5 0 0 0 .708 0L18 21.5l1.146 1.146a.5.5 0 0 0 .854-.353V1.707a.5.5 0 0 0-.854-.353L18 2.5 16.354.854a.5.5 0 0 0-.708 0L14 2.5 12.354.854a.5.5 0 0 0-.708 0L10 2.5 8.354.854a.5.5 0 0 0-.708 0L6 2.5 4.854 1.354A.5.5 0 0 0 4 1.707ZM7 6.5h8m-8 3h4m-4 3h4m-4 3h3m5 1.914V18.5m1-8v1.088"/><path fill="none" stroke="currentColor" stroke-linecap="round" stroke-linejoin="round" d="M14 16a1.5 1.5 0 1 0 1.5-1.5A1.5 1.5 0 1 1 17 13"/></svg>
