<svg xmlns="http://www.w3.org/2000/svg" viewBox="0 0 24 24"><g fill="none" stroke="currentColor" stroke-linecap="round" stroke-linejoin="round"><path d="m22 23.5.5-3a.94.94 0 0 0-.59-1l-4.42-1.94v-4.31a1.25 1.25 0 1 0-2.49 0v7.94l-1.72-2.06a1 1 0 0 0-1.63.13.94.94 0 0 0 0 1l1.8 3.28M4.5 17.5H2A1.5 1.5 0 0 1 .5 16V2A1.5 1.5 0 0 1 2 .5h9A1.5 1.5 0 0 1 12.5 2v4.5m-12 8h4m5-5V18m6-17.5h3s1 0 1 1v7s0 1-1 1h-3s-1 0-1-1v-7s0-1 1-1m-1 7h5m-19-4h12m8 8.5v4.5m1-7h.5a1.5 1.5 0 0 1 1.5 1.5v6.5"/><path d="M12.5 9.5H8A1.5 1.5 0 0 0 6.5 11v8A1.5 1.5 0 0 0 8 20.5h1.5"/></g></svg>
