<svg xmlns="http://www.w3.org/2000/svg" viewBox="0 0 24 24"><path fill="none" stroke="currentColor" stroke-linecap="round" stroke-linejoin="round" d="m23.207 16.207-3.853-3.853a.5.5 0 0 1 0-.708l3.853-3.853M17.5 16.5l-4.146-4.146a.5.5 0 0 1 0-.708L17.5 7.5m-6 9-4.146-4.146a.5.5 0 0 1 0-.708L11.5 7.5m-6 9-4.146-4.146a.5.5 0 0 1 0-.708L5.5 7.5"/><path fill="none" stroke="currentColor" stroke-linecap="round" stroke-linejoin="round" d="M22.5 16.5h-21s-1 0-1-1v-7s0-1 1-1h21s1 0 1 1v7s0 1-1 1"/></svg>
