<svg xmlns="http://www.w3.org/2000/svg" viewBox="0 0 24 24"><path fill="none" stroke="currentColor" stroke-linecap="round" stroke-linejoin="round" d="M10.5 14.5v-5m-1 0h2m6 5v-5m0 0h.5a1.5 1.5 0 0 1 0 3h-.5m-3-3a1 1 0 0 0-1 1v3a1 1 0 0 0 2 0v-3a1 1 0 0 0-1-1m-7 0h-1a1 1 0 0 0-1 1c0 1.5 2 1.5 2 3a1 1 0 0 1-1 1h-1"/><path fill="none" stroke="currentColor" stroke-linecap="round" stroke-linejoin="round" d="M16.349.5h-8.7a1 1 0 0 0-.707.293L.793 6.944a1 1 0 0 0-.293.707v8.7a1 1 0 0 0 .293.707l6.151 6.151a1 1 0 0 0 .707.293h8.7a1 1 0 0 0 .707-.293l6.151-6.151a1 1 0 0 0 .293-.707v-8.7a1 1 0 0 0-.293-.707L17.056.793A1 1 0 0 0 16.349.5"/></svg>
