<svg xmlns="http://www.w3.org/2000/svg" fill="none" viewBox="0 0 24 24"><path stroke="currentColor" stroke-linecap="round" stroke-linejoin="round" d="M14.061 5.243a1.5 1.5 0 0 1 0 2.121m2.121-4.243a4.5 4.5 0 0 1 0 6.364"/><path stroke="currentColor" stroke-linecap="round" stroke-linejoin="round" d="M16.182 3.121a4.5 4.5 0 0 1 0 6.364M18.3 1a7.5 7.5 0 0 1 0 10.607"/><path stroke="currentColor" stroke-linecap="round" stroke-linejoin="round" d="M18.3 1a7.5 7.5 0 0 1 0 10.607M9.939 5.243a1.5 1.5 0 0 0 0 2.121M7.818 3.121a4.5 4.5 0 0 0 0 6.364"/><path stroke="currentColor" stroke-linecap="round" stroke-linejoin="round" d="M7.818 3.121a4.5 4.5 0 0 0 0 6.364M5.7 1a7.5 7.5 0 0 0 0 10.607"/><path stroke="currentColor" stroke-linecap="round" stroke-linejoin="round" d="M5.7 1a7.5 7.5 0 0 0 0 10.607M23.5 19a2 2 0 0 1-2 2h-19a2 2 0 0 1-2-2v-2a2 2 0 0 1 2-2h19a2 2 0 0 1 2 2z"/><path stroke="currentColor" d="M4.75 18.25a.25.25 0 1 1 0-.5m0 .5a.25.25 0 1 0 0-.5m3.5.5a.25.25 0 1 1 0-.5m0 .5a.25.25 0 1 0 0-.5"/><path stroke="currentColor" stroke-linecap="round" stroke-linejoin="round" d="M12 15v-5M4 21l-1.5 2M20 21l1.5 2"/></svg>
