<svg xmlns="http://www.w3.org/2000/svg" viewBox="0 0 24 24"><path fill="none" stroke="currentColor" stroke-linecap="round" stroke-linejoin="round" d="M11.075 7.464a1.6 1.6 0 0 0 2.247.192l1.649-1.547a1.6 1.6 0 0 0-.047-2.253l-.941-1.006a2.46 2.46 0 0 0-3-.555A31.6 31.6 0 0 0 .87 11.773a2.46 2.46 0 0 0 .36 3.027l.943 1.006A1.6 1.6 0 0 0 4.419 16l1.649-1.546a1.6 1.6 0 0 0-.045-2.254l-.572-.611A32 32 0 0 1 10.5 6.854ZM13.5 22h4m-4-4.5 1.323-1.323A.6.6 0 0 1 15.25 16a.25.25 0 0 1 .25.25V22m4 0h4m-4-4.5 1.323-1.323A.6.6 0 0 1 21.25 16a.25.25 0 0 1 .25.25V22m-14-4a2 2 0 1 0 4 0 2 2 0 1 0-4 0"/><path fill="none" stroke="currentColor" stroke-linecap="round" stroke-linejoin="round" d="M11.5 18v1.5A2.5 2.5 0 0 1 9 22h-.5"/></svg>
