<svg xmlns="http://www.w3.org/2000/svg" viewBox="0 0 24 24"><path fill="none" stroke="currentColor" stroke-linecap="round" stroke-linejoin="round" d="M7 12a5 5 0 1 0 10 0 5 5 0 1 0-10 0m6.5-10.393a10.51 10.51 0 0 1 8.893 8.893m-20.788 0a10.51 10.51 0 0 1 8.9-8.893M10.5 22.394A10.51 10.51 0 0 1 1.605 13.5m20.788 0a10.5 10.5 0 0 1-8.893 8.894"/><path fill="none" stroke="currentColor" stroke-linecap="round" stroke-linejoin="round" d="M13.5 7.229V1.5a1 1 0 0 0-1-1h-1a1 1 0 0 0-1 1v5.729m0 9.542V22.5a1 1 0 0 0 1 1h1a1 1 0 0 0 1-1v-5.729M7.229 10.5H1.5a1 1 0 0 0-1 1v1a1 1 0 0 0 1 1h5.729m9.542 0H22.5a1 1 0 0 0 1-1v-1a1 1 0 0 0-1-1h-5.729"/></svg>
