<svg xmlns="http://www.w3.org/2000/svg" viewBox="0 0 24 24"><g fill="none" stroke="currentColor" stroke-linecap="round" stroke-linejoin="round"><path d="M15.62 16a7.25 7.25 0 1 1-12.48-5 .52.52 0 0 1 .46-.14.48.48 0 0 1 .36.3 7.6 7.6 0 0 0 1.19 1.94 7.23 7.23 0 0 0 .94-3.57 7.4 7.4 0 0 0-.56-2.8.5.5 0 0 1 .09-.52.5.5 0 0 1 .51-.21 9.3 9.3 0 0 1 4.77 3.2 9.27 9.27 0 0 1 2 6 6.7 6.7 0 0 0 1.78-.87.54.54 0 0 1 .48 0 .53.53 0 0 1 .3.37 8 8 0 0 1 .16 1.3"/><path d="M8.67 14.94A.25.25 0 0 1 9 15a.26.26 0 0 1 0 .3 3.21 3.21 0 0 0-.13 3.23 2.1 2.1 0 0 0 .73-.9.21.21 0 0 1 .14-.15.22.22 0 0 1 .21 0 2.84 2.84 0 0 1 1.5 2.7 3 3 0 0 1-3 3.05 3.07 3.07 0 0 1-3.06-3.14 5.8 5.8 0 0 1 3.28-5.15m4.71-10.69h9.5m-3-3.5 3 3.5-2.5 3.5"/></g></svg>
