<svg xmlns="http://www.w3.org/2000/svg" viewBox="0 0 24 24"><path fill="none" stroke="currentColor" stroke-linecap="round" stroke-linejoin="round" d="M14.5 18.906v-3.724a3.4 3.4 0 0 0 1.023-.636l3.9-4.568A.9.9 0 0 0 19.5 8.6a1.22 1.22 0 0 0-1.567-.057l-2.215 1.7 1.217-7.287a.98.98 0 0 0-.85-1.156 1.123 1.123 0 0 0-1.321.752L13.5 7.53V1.584a1.186 1.186 0 0 0-1.25-1.1 1.186 1.186 0 0 0-1.25 1.1V7.53l-.947-4.73a1.11 1.11 0 0 0-1.317-.747.99.99 0 0 0-.854 1.162l1.181 5.739-2.006-2.787a1.2 1.2 0 0 0-1.525-.317.914.914 0 0 0-.368 1.344L6.741 9.81a3.2 3.2 0 0 1 .465 1.657c-.005 1.875.511 3.456 2.295 3.878v3.561m13.999 4.5c-2.5.521-4.06-1.979-4.06-1.979h0a4.4 4.4 0 0 1-3.621 2.056 3.82 3.82 0 0 1-3.319-2.056h0a5.28 5.28 0 0 1-3.922 2.056 4.6 4.6 0 0 1-3.618-2.056h0s-2 2.541-4.455 2.02M6.519 18.9a5 5 0 0 1-1.559-1.473h0s-2 2.541-4.455 2.02m22.995-.041c-2.5.521-4.06-1.979-4.06-1.979h0a4.6 4.6 0 0 1-1.549 1.494M5.5 14.085a4.4 4.4 0 0 1-.535-.658h0s-2 2.541-4.455 2.02m22.99-.041c-2.5.521-4.06-1.979-4.06-1.979h0a4.4 4.4 0 0 1-.917 1.045"/></svg>
