<svg xmlns="http://www.w3.org/2000/svg" viewBox="0 0 24 24"><path fill="none" stroke="currentColor" stroke-linecap="round" stroke-linejoin="round" d="M7.95 15.551a10.933 10.933 0 0 0 14.688.672 1 1 0 0 0 .067-1.481L8.625.789a1 1 0 0 0-1.481.08 10.93 10.93 0 0 0 .806 14.682m9.636-9.638L15.699 7.8M17 4.499a2 2 0 1 0 4 0 2 2 0 1 0-4 0"/><path fill="none" stroke="currentColor" stroke-linecap="round" stroke-linejoin="round" d="m7.873 15.473-5.527 6.371A1 1 0 0 0 3.1 23.5h9.6a1 1 0 0 0 .752-1.659ZM19.5 6.436v5.13m-2.437-7.567h-5.199"/></svg>
