<svg xmlns="http://www.w3.org/2000/svg" viewBox="0 0 24 24"><path fill="none" stroke="currentColor" stroke-linecap="round" stroke-linejoin="round" d="M12.45 12.5v11m0 0s2.5-5.5 6.5-8m-6.5 7s-1-3.5-6-6.5"/><path fill="none" stroke="currentColor" stroke-linecap="round" stroke-linejoin="round" d="M17.008 13.917c-1.117.746-1.693 2.106 0 3.249.929 2.321 2.655 1.7 3.677.62a6.4 6.4 0 0 0 .8-5.726c-1.63 1.232-3.085.929-4.477 1.857M4.809 17.96c.831.906 2.142 1.235 2.937-.457 1.968-1.165 1.161-2.639.044-3.411a5.86 5.86 0 0 0-5.29.081c1.343 1.302 1.274 2.659 2.309 3.787M13.95 3.5h-2.033a1.342 1.342 0 0 0-.5 2.587l2.064.826a1.342 1.342 0 0 1-.5 2.587H10.95m1.5 1v-1m0-6v-1"/><path fill="none" stroke="currentColor" stroke-linecap="round" stroke-linejoin="round" d="M6.45 6.5a6 6 0 1 0 12 0 6 6 0 1 0-12 0"/></svg>
