<svg xmlns="http://www.w3.org/2000/svg" fill="none" viewBox="0 0 24 24"><path stroke="currentColor" stroke-linecap="round" stroke-linejoin="round" d="M10.009 20.163q.06.281.06.568a2.808 2.808 0 0 1-5.606 0q0-.286.06-.568l1.155-3.913a1.683 1.683 0 0 1 3.176 0z"/><path stroke="currentColor" stroke-linecap="round" stroke-linejoin="round" d="M5.598 16.808a5.3 5.3 0 0 0 1.673.558 5.4 5.4 0 0 0 1.682-.558m-1.683.558v2.24a1.215 1.215 0 0 0 1.126 1.125h1.682M7.27 19.606a1.205 1.205 0 0 1-1.114 1.125H4.473"/><path stroke="currentColor" stroke-linecap="round" stroke-linejoin="round" d="M11.751 12.736c.484.351.905.782 1.245 1.274.61.876.934 1.92.926 2.987 0 .737.11 3.445-4.5 5.526"/><path stroke="currentColor" stroke-linecap="round" stroke-linejoin="round" d="M12.876 13.821V11.77a1.783 1.783 0 0 0-1.682-1.683c-1.116 0-1.683 1.683-1.683 1.683H5.03s-.558-1.683-1.673-1.683a1.78 1.78 0 0 0-1.683 1.683v1.991"/><path stroke="currentColor" stroke-linecap="round" stroke-linejoin="round" d="M4.94 22.274c-2.25-.976-4.39-2.23-4.39-5.297a5.28 5.28 0 0 1 2.24-4.281M2.043.629l4.292 4.29a1.99 1.99 0 0 0 1.682.568l5.974-.746a1.99 1.99 0 0 1 1.693.607l7.766 8.224"/><path stroke="currentColor" stroke-linecap="round" stroke-linejoin="round" d="M17.974 13.572h5.476V8.096"/><path stroke="currentColor" d="M4.463 14.817a.249.249 0 0 1 0-.498m0 .498a.249.249 0 0 0 0-.498m5.615.498a.249.249 0 0 1 0-.498m0 .498a.249.249 0 0 0 0-.498"/></svg>
