<svg xmlns="http://www.w3.org/2000/svg" viewBox="0 0 24 24"><path fill="none" stroke="currentColor" stroke-linecap="round" stroke-linejoin="round" d="m1.902 17.5 6.112.001M2.516 5.5H21.5M8.861 11.501.515 11.5m6.353 10.793A11.5 11.5 0 1 1 23.417 10.5"/><path fill="none" stroke="currentColor" stroke-linecap="round" stroke-linejoin="round" d="M11.273.526C6.263 5.954 5.512 12.747 8.9 19.5M12.734.526a16.24 16.24 0 0 1 4.176 7.968M11.504 15.5h2v6h-2zm4 0h2v6h-2zm4 0h2v6h-2zm-9.004-2h12V15a.5.5 0 0 1-.5.5H11a.5.5 0 0 1-.5-.5zm12 10h-12V22a.5.5 0 0 1 .5-.5h11a.5.5 0 0 1 .5.5Zm-12.996 0h14"/><path fill="none" stroke="currentColor" stroke-linecap="round" stroke-linejoin="round" d="m10.5 13.5 5.776-2.888a.5.5 0 0 1 .448 0L22.5 13.5"/></svg>
