<svg xmlns="http://www.w3.org/2000/svg" fill="none" viewBox="0 0 24 24"><path stroke="currentColor" stroke-linecap="round" stroke-linejoin="round" d="M23.5 19.5c0 2.762-2.238 4-5 4h-13c-2.762 0-5-1.238-5-4zm-23 0 4-10h15l4 10m-2-17h-19l2 7h15zm-19 0a2 2 0 0 1 2-2h15a2 2 0 0 1 2 2z"/><path stroke="currentColor" stroke-linecap="round" stroke-linejoin="round" d="M17.5 11.5h-11l-2 6h15zm-1.25 9.75a.25.25 0 0 1 .049.495A.25.25 0 0 1 16 21.5a.25.25 0 0 1 .25-.25m3 0a.25.25 0 0 1 .049.495A.25.25 0 0 1 19 21.5a.25.25 0 0 1 .25-.25"/><path stroke="currentColor" d="M16.25 21.75a.25.25 0 1 1 0-.5m0 .5a.25.25 0 1 0 0-.5m3 .5a.25.25 0 1 1 0-.5m0 .5a.25.25 0 1 0 0-.5"/></svg>
