<svg xmlns="http://www.w3.org/2000/svg" viewBox="0 0 24 24"><path fill="none" stroke="currentColor" stroke-linecap="round" stroke-linejoin="round" d="M7.5 12a4.5 11.5 0 1 0 9 0 4.5 11.5 0 1 0-9 0"/><path fill="none" stroke="currentColor" stroke-linecap="round" stroke-linejoin="round" d="M14.55 15.708c-5.233 3.6-10.616 4.857-12.026 2.809S4.217 11.892 9.45 8.292s10.616-4.856 12.026-2.809-1.693 6.625-6.926 10.225"/><path fill="none" stroke="currentColor" stroke-linecap="round" stroke-linejoin="round" d="M9.45 15.708c5.233 3.6 10.616 4.857 12.026 2.809s-1.693-6.625-6.926-10.225S3.934 3.436 2.524 5.483s1.693 6.625 6.926 10.225"/><path fill="none" stroke="currentColor" stroke-linecap="round" stroke-linejoin="round" d="M10 12a2 2 0 1 0 4 0 2 2 0 1 0-4 0"/></svg>
