<svg xmlns="http://www.w3.org/2000/svg" viewBox="0 0 24 24"><path fill="none" stroke="currentColor" stroke-linecap="round" stroke-linejoin="round" d="m5.138 1.952 1.75-.875a.25.25 0 0 1 .224 0l1.75.875A.25.25 0 0 1 9 2.176v2.013a.5.5 0 0 1-.272.445l-1.614.829a.25.25 0 0 1-.228 0l-1.75-.9A.25.25 0 0 1 5 4.342V2.176a.25.25 0 0 1 .138-.224M3.257 15.878l4-2.222a.5.5 0 0 1 .486 0l4 2.222a.5.5 0 0 1 .257.437v3.912a.5.5 0 0 1-.257.437l-4 2.222a.5.5 0 0 1-.486 0l-4-2.222A.5.5 0 0 1 3 20.227v-3.912a.5.5 0 0 1 .257-.437m10.994-9.501 2.975-1.713a.5.5 0 0 1 .5 0l3.025 1.716a.5.5 0 0 1 .249.432v2.919a.5.5 0 0 1-.252.434l-3 1.714a.5.5 0 0 1-.5 0l-3-1.714A.5.5 0 0 1 14 9.731V6.81a.5.5 0 0 1 .251-.433m-2.279 9.777 5.776-4.275m-3.674-5.328L8.902 4.482"/><path fill="none" stroke="currentColor" stroke-linecap="round" stroke-linejoin="round" d="M5 19.021V17.33a.5.5 0 0 1 .276-.447L7 16.021m9-7V7.83a.5.5 0 0 1 .276-.447L17 7.021"/></svg>
