<svg xmlns="http://www.w3.org/2000/svg" viewBox="0 0 24 24"><path fill="none" stroke="currentColor" stroke-linecap="round" stroke-linejoin="round" d="M19.306 19.326a2 2 0 1 0 4 0 2 2 0 1 0-4 0m-18.612 0a2 2 0 1 0 4 0 2 2 0 1 0-4 0"/><path fill="none" stroke="currentColor" stroke-linecap="round" stroke-linejoin="round" d="M.765 15.932a3.92 3.92 0 0 1 5.847 2.9h10.806a3.92 3.92 0 0 1 5.847-2.9m-3.918-.034L17.821 2.674m-2.392 0h4.897M5.486 16.549h13.06M11.51 2.674H7.102m4.408 4.408H4.163m7.347 4.408H1.225"/></svg>
