<svg xmlns="http://www.w3.org/2000/svg" viewBox="0 0 24 24"><path fill="none" stroke="currentColor" stroke-linecap="round" stroke-linejoin="round" d="M10.5 20.5H10a1.855 1.855 0 0 1-1.814-1.467L6.019 8.919A2 2 0 0 1 7.974 6.5h8.052a2 2 0 0 1 1.955 2.419l-2.167 10.114A1.855 1.855 0 0 1 14 20.5h-.5"/><path fill="none" stroke="currentColor" stroke-linecap="round" stroke-linejoin="round" d="M13.5 18a1.5 1.5 0 0 0-3 0v4a1.5 1.5 0 0 0 3 0Zm-7.022-6.935 4.99 3.085a1 1 0 0 0 1.06-.006L17.5 11"/><path fill="none" stroke="currentColor" stroke-linecap="round" stroke-linejoin="round" d="m17.649 7.332-4.34 2.958a1 1 0 0 0-.4.571L12 14.3l-.9-3.438a1 1 0 0 0-.4-.571L6.352 7.332M7.5 6.558V5a4.5 4.5 0 0 1 9 0v1.557m1.257.943h3.712m-15.226 0H2.531"/></svg>
