<svg xmlns="http://www.w3.org/2000/svg" viewBox="0 0 24 24"><path fill="none" stroke="currentColor" stroke-linecap="round" stroke-linejoin="round" d="M22.5 17v-2a1.5 1.5 0 0 0-3 0v2.5a2 2 0 0 1-4 0v-9h2.892a.5.5 0 0 0 .375-.831l-6.392-7a.5.5 0 0 0-.75 0c-1.179 1.335-4.821 5.219-6.392 7a.5.5 0 0 0 .375.831H8.5v9a2 2 0 0 1-4 0V15a1.5 1.5 0 0 0-3 0v2m7-1.5h7"/><path fill="none" stroke="currentColor" stroke-linecap="round" stroke-linejoin="round" d="M10.5 15.5V20A3.5 3.5 0 0 1 7 23.5a3.3 3.3 0 0 1-3.5-3.25m10-4.75V20a3.5 3.5 0 0 0 3.5 3.5 3.3 3.3 0 0 0 3.5-3.25m-5-11.75-2-3.5m-3 0-2 3.5"/></svg>
