<svg xmlns="http://www.w3.org/2000/svg" viewBox="0 0 24 24"><path fill="none" stroke="currentColor" stroke-linecap="round" stroke-linejoin="round" d="M20.491 14.1a.5.5 0 0 0-.491-.6H1a.5.5 0 0 0-.491.6 9.13 9.13 0 0 0 5.9 6.87.5.5 0 0 1 .291.67A3.4 3.4 0 0 0 6.415 23a.5.5 0 0 0 .5.5h7.17a.5.5 0 0 0 .5-.5 3.4 3.4 0 0 0-.284-1.365.5.5 0 0 1 0-.4.5.5 0 0 1 .291-.272 9.13 9.13 0 0 0 5.899-6.863m2.919-9.371a1 1 0 0 1-.5 1.324l-5.69 2.584a.75.75 0 0 1-.993-.372l-1.861-4.1a.75.75 0 0 1 .372-.993L20.432.59a1 1 0 0 1 1.324.5ZM10.179 6.874l1.262-.812m.738 4.812.762-.812m-3-.5 1.067-.927"/></svg>
