<svg xmlns="http://www.w3.org/2000/svg" fill="none" viewBox="0 0 24 24"><path stroke="currentColor" stroke-linecap="round" stroke-linejoin="round" d="M9 21.5H1.5a1 1 0 0 1-1-1v-3a1 1 0 0 1 1-1h12M3 19h5.5"/><path stroke="currentColor" stroke-linecap="round" stroke-linejoin="round" d="M13.5 23.5 11.19 21a1.528 1.528 0 1 1 2.31-2l2 2.29V13a1.5 1.5 0 1 1 3 0v5h1a4 4 0 0 1 4 4v1.5M6.413 3.487H3.976v2.438h2.437zm0 4.588H3.976v2.438h2.437zm4.647-4.588H8.624v2.438h2.438zm0 4.588H8.624v2.438h2.438z"/><path stroke="currentColor" stroke-linecap="round" stroke-linejoin="round" d="M13.5 13.5h-11a2 2 0 0 1-2-2v-9a2 2 0 0 1 2-2h16a2 2 0 0 1 2 2v9a2 2 0 0 1-.25 1"/><path stroke="currentColor" stroke-linecap="round" stroke-linejoin="round" d="M17.896 3.487h-.465a3.025 3.025 0 0 0 0 6.051h.465m-4.403-3.96h3.186m-3.186 1.87h3.186M8.617 13.5l-1.944 3"/></svg>
