<svg xmlns="http://www.w3.org/2000/svg" fill="none" viewBox="0 0 24 24"><path stroke="currentColor" stroke-linecap="round" stroke-linejoin="round" d="m17.956 11.67 1.539 3.57h2.995a.736.736 0 0 1 .516 1.283l-2.6 2.316 1.44 3.313a.785.785 0 0 1-1.117.982l-3.479-1.961-3.48 1.961a.786.786 0 0 1-1.117-.982l1.44-3.313-2.6-2.315a.735.735 0 0 1 .514-1.284h3l1.541-3.57a.8.8 0 0 1 1.408 0M5.5 20.5h3m.001-5v5m3.999-10H3a2.5 2.5 0 0 0 0 5h6.5m8-7.5A2.5 2.5 0 0 0 15 5.5H3a2.5 2.5 0 1 0 0 5h9.5m5-7.5A2.5 2.5 0 0 0 15 .5H3a2.5 2.5 0 0 0 0 5h12A2.5 2.5 0 0 0 17.5 3"/><path stroke="currentColor" d="M.75 20.5a.25.25 0 1 1 0-.5m0 .5a.25.25 0 1 0 0-.5m2.5.5a.25.25 0 1 1 0-.5m0 .5a.25.25 0 1 0 0-.5m1-16.75a.25.25 0 0 1 0-.5m0 .5a.25.25 0 0 0 0-.5m2.5.5a.25.25 0 0 1 0-.5m0 .5a.25.25 0 0 0 0-.5m-2.5 5.5a.25.25 0 0 1 0-.5m0 .5a.25.25 0 0 0 0-.5m0 5.5a.25.25 0 1 1 0-.5m0 .5a.25.25 0 1 0 0-.5m2.5-4.5a.25.25 0 0 1 0-.5m0 .5a.25.25 0 0 0 0-.5m0 5.5a.25.25 0 1 1 0-.5m0 .5a.25.25 0 1 0 0-.5"/></svg>
