<svg xmlns="http://www.w3.org/2000/svg" fill="none" viewBox="0 0 24 24"><path stroke="currentColor" stroke-linecap="round" stroke-linejoin="round" d="M21.5 4.5a2 2 0 0 1-2 2h-17a2 2 0 0 1-2-2v-2a2 2 0 0 1 2-2h17a2 2 0 0 1 2 2zm-19 8a2 2 0 0 1-2-2v-2a2 2 0 0 1 2-2h17a2 2 0 0 1 2 2V10M9 18.5H2.5a2 2 0 0 1-2-2v-2a2 2 0 0 1 2-2h13m-1.75 8a2.25 2.25 0 1 0 0-4.5 2.25 2.25 0 0 0 0 4.5m7.5 3a2.25 2.25 0 1 0 0-4.5 2.25 2.25 0 0 0 0 4.5m0-7.5a2.25 2.25 0 1 0 0-4.5 2.25 2.25 0 0 0 0 4.5m-5.575 1.095 3.65-2.19m-3.487 4.18 3.324 1.33"/><path stroke="currentColor" d="M4.75 3.75a.25.25 0 0 1 0-.5m0 .5a.25.25 0 0 0 0-.5m3.5.5a.25.25 0 0 1 0-.5m0 .5a.25.25 0 0 0 0-.5m-3.5 6.5a.25.25 0 0 1 0-.5m0 .5a.25.25 0 0 0 0-.5m0 6.5a.25.25 0 1 1 0-.5m0 .5a.25.25 0 1 0 0-.5m3.5-5.5a.25.25 0 0 1 0-.5m0 .5a.25.25 0 0 0 0-.5m0 6.5a.25.25 0 1 1 0-.5m0 .5a.25.25 0 1 0 0-.5"/></svg>
