<svg xmlns="http://www.w3.org/2000/svg" fill="none" viewBox="0 0 24 24"><path stroke="currentColor" stroke-linecap="round" stroke-linejoin="round" d="M21.5 4.5a2 2 0 0 1-2 2h-17a2 2 0 0 1-2-2v-2a2 2 0 0 1 2-2h17a2 2 0 0 1 2 2zm-19 8a2 2 0 0 1-2-2v-2a2 2 0 0 1 2-2h17a2 2 0 0 1 2 2V10"/><path stroke="currentColor" d="M4.75 3.75a.25.25 0 0 1 0-.5m0 .5a.25.25 0 0 0 0-.5m3.5.5a.25.25 0 0 1 0-.5m0 .5a.25.25 0 0 0 0-.5m-3.5 6.5a.25.25 0 0 1 0-.5m0 .5a.25.25 0 0 0 0-.5m0 6.5a.25.25 0 1 1 0-.5m0 .5a.25.25 0 1 0 0-.5m3.5-5.5a.25.25 0 0 1 0-.5m0 .5a.25.25 0 0 0 0-.5m0 6.5a.25.25 0 1 1 0-.5m0 .5a.25.25 0 1 0 0-.5"/><path stroke="currentColor" stroke-linecap="round" stroke-linejoin="round" d="M9 18.5H2.5a2 2 0 0 1-2-2v-2a2 2 0 0 1 2-2h8m7 11a6 6 0 1 0 0-12 6 6 0 0 0 0 12m0-9v6m3-3h-6"/></svg>
