<svg xmlns="http://www.w3.org/2000/svg" viewBox="0 0 24 24"><path fill="none" stroke="currentColor" stroke-linecap="round" stroke-linejoin="round" d="M6.5 6.501a1.5 1.5 0 1 0 3 0 1.5 1.5 0 1 0-3 0m8 5a1.5 1.5 0 1 0 3 0 1.5 1.5 0 1 0-3 0m-10-5h2m3 0h10M9.138 23.5a7.5 7.5 0 0 0 1.362-4m4.362 4a7.5 7.5 0 0 1-1.362-4m-6 4.001h9m-16-7h23"/><path fill="none" stroke="currentColor" stroke-linecap="round" stroke-linejoin="round" d="M1.5.501h21s1 0 1 1v17s0 1-1 1h-21s-1 0-1-1v-17s0-1 1-1m13 11h-10m13 0h2"/></svg>
