<svg xmlns="http://www.w3.org/2000/svg" viewBox="0 0 24 24"><path fill="none" stroke="currentColor" stroke-linecap="round" stroke-linejoin="round" d="M17 10.5a5 5 0 1 1-5-5"/><path fill="none" stroke="currentColor" stroke-linecap="round" stroke-linejoin="round" d="m10 10 1.62 1.215a.5.5 0 0 0 .684-.08L17 5.5"/><path fill="none" stroke="currentColor" stroke-linecap="round" stroke-linejoin="round" d="M1.5 3.775v7.637A12.31 12.31 0 0 0 9.719 22.88l1.121.414a3.37 3.37 0 0 0 2.32 0l1.121-.414A12.31 12.31 0 0 0 22.5 11.412V3.775a1.53 1.53 0 0 0-.934-1.406A24.2 24.2 0 0 0 12 .5a24.2 24.2 0 0 0-9.566 1.869A1.53 1.53 0 0 0 1.5 3.775"/></svg>
