<svg xmlns="http://www.w3.org/2000/svg" viewBox="0 0 24 24"><path fill="none" stroke="currentColor" stroke-linecap="round" stroke-linejoin="round" d="M6.491 13.302v-5.5h1.75m0 3h-1.75m11.062-3h-1.75v5.5h1.75m0-2.5h-1.75m5.938-3h-1.75v5.5h1.75m0-2.5h-1.75M10.866 13.3V7.8h1.25a1.25 1.25 0 0 1 0 2.5h-1.25"/><path fill="none" stroke="currentColor" stroke-linecap="round" stroke-linejoin="round" d="M10.866 10.3h.5a2 2 0 0 1 2 2v1"/><path fill="none" stroke="currentColor" stroke-linecap="round" stroke-linejoin="round" d="M3 19.258H1.522A1.023 1.023 0 0 1 .5 18.236V13.2a1.81 1.81 0 0 1 .91-1.7c.807-.3 2.157-.671 2.157-.671L5.356 4.8a2.59 2.59 0 0 1 2.3-2.045h13.8A2.044 2.044 0 0 1 23.5 4.8v13.436a1.023 1.023 0 0 1-1.022 1.022H21"/><path fill="none" stroke="currentColor" stroke-linecap="round" stroke-linejoin="round" d="M3 18.747a2.5 2.5 0 1 0 5 0 2.5 2.5 0 1 0-5 0m13 0a2.5 2.5 0 1 0 5 0 2.5 2.5 0 1 0-5 0m-7.888.511h7.776M.5 14.658h2.044"/></svg>
