<svg xmlns="http://www.w3.org/2000/svg" viewBox="0 0 24 24"><g fill="none" stroke="currentColor" stroke-linecap="round" stroke-linejoin="round"><path d="M15.22 23H9.68a7.4 7.4 0 0 0 1.51-4h2.5a7.4 7.4 0 0 0 1.53 4M8 23h8.91m5.59-4h-21a1 1 0 0 1-1-1V2a1 1 0 0 1 1-1h21a1 1 0 0 1 1 1v16a1 1 0 0 1-1 1m-22-3h23"/><path d="M6 13.5V7.24a.49.49 0 0 1 .19-.39L7.9 4.11A.47.47 0 0 1 8.21 4h7.58a.47.47 0 0 1 .31.11l1.71 2.74a.49.49 0 0 1 .19.39v6.26M17.94 7H6.06M12 4v3"/><path d="M12.5 11h3s.5 0 .5.5v1s0 .5-.5.5h-3s-.5 0-.5-.5v-1s0-.5.5-.5"/></g></svg>
