<svg xmlns="http://www.w3.org/2000/svg" viewBox="0 0 24 24"><g fill="none" stroke="currentColor" stroke-linecap="round" stroke-linejoin="round"><path d="M1.5 21.5a9.3 9.3 0 0 1-1-3.45.45.45 0 0 1 .13-.38.48.48 0 0 1 .37-.17h22.5a8.4 8.4 0 0 1-1 4"/><path d="M23.5 17.5V6A2.5 2.5 0 0 0 21 3.5h-2.5a.5.5 0 0 0-.5.5v13.5"/><path d="M18 6h3.5v2.51H18M23.5 6V1.5M1.5 14H18m-7.5-3.5v7m4-3.5v3.5M6.49 1l.01 5.8M5.12 10a1.87 1.87 0 0 1-.51-1.29A1.9 1.9 0 1 1 7.93 10m9.57.5L7.33.62A.55.55 0 0 0 7 .5a.5.5 0 0 0-.35.85L13 10.5m-11.5 7V14m22 9.39c-2.51.52-4.06-2-4.06-2h0a4.39 4.39 0 0 1-3.62 2.05 4.6 4.6 0 0 1-3.61-2.05h0a4.39 4.39 0 0 1-3.62 2.05A4.6 4.6 0 0 1 5 21.41h0S3 24 .5 23.43M18 10.5h-7.5"/></g></svg>
