<svg xmlns="http://www.w3.org/2000/svg" viewBox="0 0 24 24"><path fill="none" stroke="currentColor" stroke-linecap="round" stroke-linejoin="round" d="m18.206 11.93 1.539 3.57h2.995a.735.735 0 0 1 .517 1.283l-2.6 2.316 1.44 3.313a.785.785 0 0 1-1.117.982l-3.48-1.961-3.48 1.961a.785.785 0 0 1-1.117-.982l1.44-3.313-2.6-2.316a.734.734 0 0 1 .514-1.283h3l1.541-3.57a.8.8 0 0 1 1.408 0M8.5 15.5h-7a1 1 0 0 1-1-1V4.914a1 1 0 0 1 .293-.707L4.207.793A1 1 0 0 1 4.914.5h5.172a1 1 0 0 1 .707.293l3.414 3.414a1 1 0 0 1 .293.707V10.5m-.09-6H.59M7.5.5v4"/></svg>
