<svg xmlns="http://www.w3.org/2000/svg" viewBox="0 0 24 24"><path fill="none" stroke="currentColor" stroke-linecap="round" stroke-linejoin="round" d="M9 1.15v7.479h6V1.75"/><path fill="none" stroke="currentColor" stroke-linecap="round" stroke-linejoin="round" d="m.5 13.767 3.127 1.868v2.756l5.755.851-2.756-3.2.066-3.348L.5 8.826V2.5a2 2 0 0 1 2-2l15 1.5L20.925.716A1.906 1.906 0 0 1 23.5 2.5l-2 12.5 1.846 6a1.93 1.93 0 0 1-1.846 2.5h-19a2 2 0 0 1-2-2Z"/><path fill="none" stroke="currentColor" stroke-linecap="round" stroke-linejoin="round" d="M14 17.5h5s.5 0 .5.5v2s0 .5-.5.5h-5s-.5 0-.5-.5v-2s0-.5.5-.5"/></svg>
