<svg xmlns="http://www.w3.org/2000/svg" viewBox="0 0 24 24"><path fill="none" stroke="currentColor" stroke-linecap="round" stroke-linejoin="round" d="M8.5.5v5.91a.5.5 0 0 0 .826.379L11 5.349l1.674 1.44a.5.5 0 0 0 .826-.379V.5"/><path fill="none" stroke="currentColor" stroke-linecap="round" stroke-linejoin="round" d="M14.5 12.5h2a1 1 0 0 0 1-1v-10a1 1 0 0 0-1-1h-11a1 1 0 0 0-1 1v10a1 1 0 0 0 1 1h2"/><path fill="none" stroke="currentColor" stroke-linecap="round" stroke-linejoin="round" d="m7.5 23.5-2.653-3.079A1.5 1.5 0 0 1 7.154 18.5L9.5 21.326V11.5a1.5 1.5 0 0 1 3 0V18h3a4 4 0 0 1 4 4v1.5"/></svg>
