<svg xmlns="http://www.w3.org/2000/svg" viewBox="0 0 24 24"><path fill="none" stroke="currentColor" stroke-linecap="round" stroke-linejoin="round" d="M3 2.999a2.5 2.5 0 1 0 5 0 2.5 2.5 0 1 0-5 0m5.882 6.134 1.471-2.395a.5.5 0 0 1 .426-.238H18a1 1 0 0 0 1-1v-1H9.714a.5.5 0 0 0-.363.156L6.4 7.78M19 4.499h4v-1.5m-12.5-.5h4"/><path fill="none" stroke="currentColor" stroke-linecap="round" stroke-linejoin="round" d="M1.107 21.442 4 14.211V9a1.5 1.5 0 0 1 2.217-1.318l3.219 1.753a2 2 0 0 1 .143.089 1.5 1.5 0 0 0 1.76-.029l1.846-1.28a1.5 1.5 0 0 1 1.8 2.4L13.14 11.9a4.49 4.49 0 0 1-5.205.139L7 11.526v2.6l3.823 7.168a1.5 1.5 0 1 1-2.646 1.412L5.7 18.053l-1.8 4.5a1.5 1.5 0 0 1-2.786-1.115Z"/></svg>
