<svg xmlns="http://www.w3.org/2000/svg" viewBox="0 0 24 24"><path fill="none" stroke="currentColor" stroke-linecap="round" stroke-linejoin="round" d="m10.464 11.99-1.04.492a1.917 1.917 0 0 1-1.64-3.466l1.04-.492Z"/><path fill="none" stroke="currentColor" stroke-linecap="round" stroke-linejoin="round" d="M10.464 11.99A11.4 11.4 0 0 1 17 11.016l.689.1-3.611-7.624-.359.6a11.4 11.4 0 0 1-4.895 4.432Zm0 0a3.7 3.7 0 0 0 2.188 1.934M9 22.5a6.98 6.98 0 0 0 1.5-4m4.5 4a6.98 6.98 0 0 1-1.5-4m-6.001 4h9M.5 15.5h23"/><path fill="none" stroke="currentColor" stroke-linecap="round" stroke-linejoin="round" d="M1.5 1.5h21s1 0 1 1v15s0 1-1 1h-21s-1 0-1-1v-15s0-1 1-1"/></svg>
