<svg xmlns="http://www.w3.org/2000/svg" viewBox="0 0 24 24"><path fill="none" stroke="currentColor" stroke-linecap="round" stroke-linejoin="round" d="M1.5 21.692q.294.151.59.3c3.637 1.838 3.459 1.48 6.573 1.48 1.3 0 1.961-.846 2.345-2.085v-.008l.945-3.154v-.006a.987.987 0 0 0-.948-1.274H8.579a1 1 0 0 1-.785-.384.98.98 0 0 1-.173-.854l.437-1.649a.84.84 0 0 0-.161-.745.85.85 0 0 0-1.353.045l-2.423 3.416a1 1 0 0 1-.81.418H1.5m-1-.692h1v7h-1M4.232.5a1 1 0 0 0-.934.644l-1.58 4.148A2 2 0 0 0 1.7 6.677a2.751 2.751 0 0 0 5.34-.927 2.75 2.75 0 0 0 5.5 0 2.75 2.75 0 0 0 5.5 0 2.751 2.751 0 0 0 5.34.927 2 2 0 0 0-.014-1.385l-1.58-4.148A1 1 0 0 0 20.854.5Z"/><path fill="none" stroke="currentColor" stroke-linecap="round" stroke-linejoin="round" d="M13.5 20.5h8V8.408"/><path fill="none" stroke="currentColor" stroke-linecap="round" stroke-linejoin="round" d="M14.5 20.5v-8a1 1 0 0 1 1-1h3a1 1 0 0 1 1 1v8M3.5 12V8.384"/></svg>
