<svg xmlns="http://www.w3.org/2000/svg" viewBox="0 0 24 24"><path fill="none" stroke="currentColor" stroke-linecap="round" stroke-linejoin="round" d="M20.1 23.5H3.9a3 3 0 0 1-2.978-3.372L2.5 7.5h19l1.578 12.628A3 3 0 0 1 20.1 23.5M6 5H4.566a1 1 0 0 0-.857.486L2.5 7.5h19l-1.209-2.014A1 1 0 0 0 19.434 5H18"/><path fill="none" stroke="currentColor" stroke-linecap="round" stroke-linejoin="round" d="M16 4.5a4 4 0 0 0-8 0v3h8Zm-.814 7.564-4.65 4.65L8.85 15.1a.343.343 0 0 0-.484 0l-1.23 1.23a.343.343 0 0 0 0 .484l3.158 3.086a.343.343 0 0 0 .484 0l6.122-6.122a.343.343 0 0 0 0-.484l-1.23-1.23a.343.343 0 0 0-.484 0"/></svg>
