<svg xmlns="http://www.w3.org/2000/svg" viewBox="0 0 24 24"><path fill="none" stroke="currentColor" stroke-linecap="round" stroke-linejoin="round" d="M5.5 16.5a1.5 1.5 0 0 1-3 0v-3a1.5 1.5 0 0 1 3 0Zm12 1.5v-6l3 6v-6m-5 6h-2a1 1 0 0 1-1-1v-4a1 1 0 0 1 1-1h2m-3 3h2m-4-1.5A1.5 1.5 0 0 1 9 15H7.5v-3H9a1.5 1.5 0 0 1 1.5 1.5m-3 4.5v-3"/><path fill="none" stroke="currentColor" stroke-linecap="round" stroke-linejoin="round" d="M2.5 8h19s2 0 2 2v10s0 2-2 2h-19s-2 0-2-2V10s0-2 2-2m14 0-3-5.136a1.74 1.74 0 0 0-3.008 0L7.5 8"/></svg>
