<svg xmlns="http://www.w3.org/2000/svg" viewBox="0 0 24 24"><path fill="none" stroke="currentColor" stroke-linecap="round" stroke-linejoin="round" d="m19.089 13.858 1.282 2.769h2.5A.613.613 0 0 1 23.3 17.7l-2.166 2.135 1.2 2.761a.654.654 0 0 1-.931.819l-2.9-1.634-2.9 1.634a.654.654 0 0 1-.931-.819l1.2-2.761L13.7 17.7a.613.613 0 0 1 .429-1.07h2.495l1.285-2.769a.662.662 0 0 1 1.18-.003M3.539 5.5l2.606-5m11.289 5-2.605-5m3.805 10.782.537-2.782H1.8l1.48 7.656A1.71 1.71 0 0 0 4.989 17.5H10m-8.5-12h18s1 0 1 1v1s0 1-1 1h-18s-1 0-1-1v-1s0-1 1-1m9 5.5v3.039M6.592 11l.434 3.039"/></svg>
