<svg xmlns="http://www.w3.org/2000/svg" viewBox="0 0 24 24"><path fill="none" stroke="currentColor" stroke-linecap="round" stroke-linejoin="round" d="M21.5 21.5v.5a1 1 0 0 1-1 1h-17a1 1 0 0 1-1-1v-.5M21.776 1.553A1 1 0 0 0 20.882 1H3.118a1 1 0 0 0-.894.553L.5 5h23ZM23.5 6a2.862 2.862 0 0 1-5 2 4.048 4.048 0 0 1-6.5.64A4.048 4.048 0 0 1 5.5 8a2.863 2.863 0 0 1-5-2V5h23Z"/><path fill="none" stroke="currentColor" stroke-linecap="round" stroke-linejoin="round" d="M5.5 8V5l1-4M12 8.645V1m6.5 7V5l-1-4M2.495 8.837V11m19-2.156V11M7.5 19v-4.5a1.5 1.5 0 1 1 3 0V19m-3.005-3h3M20.5 19h-2a1 1 0 0 1-1-1v-4a1 1 0 0 1 1-1h2m-3.005 3h2M12.5 13v5a1 1 0 0 0 1 1h2m-10-6H3.8a1.3 1.3 0 0 0-.723 2.387l1.84 1.226A1.3 1.3 0 0 1 4.192 19H2.5"/></svg>
