<svg xmlns="http://www.w3.org/2000/svg" viewBox="0 0 24 24"><path fill="none" stroke="currentColor" stroke-linecap="round" stroke-linejoin="round" d="M3.921 20.759a1.5 1.5 0 1 0 3 0 1.5 1.5 0 1 0-3 0m11 0a1.5 1.5 0 1 0 3 0 1.5 1.5 0 1 0-3 0"/><path fill="none" stroke="currentColor" stroke-linecap="round" stroke-linejoin="round" d="M23.421 2.259h-2.6a.5.5 0 0 0-.487.386l-3.913 16.614h-11"/><path fill="none" stroke="currentColor" stroke-linecap="round" stroke-linejoin="round" d="M16.921 17.259H4.281a.5.5 0 0 1-.474-.342l-2.667-8a.5.5 0 0 1 .475-.658h17.368"/><path fill="none" stroke="currentColor" stroke-linecap="round" stroke-linejoin="round" d="m10.921 8.259 3.65-3.65a.5.5 0 0 1 .7 0L19 8.259m-13.079 0L3.13 2.036a.5.5 0 0 0-.671-.247l-1.6.759a.5.5 0 0 0-.24.658l2.3 5.053m4.002 0v-2.5a.5.5 0 0 1 .5-.5h4"/></svg>
