<svg xmlns="http://www.w3.org/2000/svg" viewBox="0 0 24 24"><path fill="none" stroke="currentColor" stroke-linecap="round" stroke-linejoin="round" d="M5 21v-4a1 1 0 0 1 1-1h1m-2 3h1.5m7.5-5V9m-1 0h2M9 21v-5m0 0h.75a1.25 1.25 0 0 1 0 2.5H9m2 2.5-1.5-2.5M9 9v4a1 1 0 0 0 2 0V9m6 0v1.5a1 1 0 0 0 2 0V9m-1 2.5V14M5 14a2 2 0 0 0 2-2v-1a2 2 0 0 0-2-2Zm10 7h-1a1 1 0 0 1-1-1v-3a1 1 0 0 1 1-1h1m-2 3h2m4 2h-1a1 1 0 0 1-1-1v-3a1 1 0 0 1 1-1h1m-2 3h2"/><path fill="none" stroke="currentColor" stroke-linecap="round" stroke-linejoin="round" d="M2 5.5h20s1 0 1 1v16s0 1-1 1H2s-1 0-1-1v-16s0-1 1-1M16.5 5a4.5 4.5 0 0 0-9 0v.5h9Z"/></svg>
