<svg xmlns="http://www.w3.org/2000/svg" viewBox="0 0 24 24"><path fill="none" stroke="currentColor" stroke-linecap="round" stroke-linejoin="round" d="M.5 13.5v-9a2 2 0 0 1 2-2h17m0 0a2 2 0 1 0 4 0 2 2 0 1 0-4 0"/><path fill="none" stroke="currentColor" stroke-linecap="round" stroke-linejoin="round" d="M6.5 8.5h12s2 0 2 2v11s0 2-2 2h-12s-2 0-2-2v-11s0-2 2-2m2 0v-1m8 1v-1m-8-2v-3m8 3v-3"/><path fill="none" stroke="currentColor" stroke-linecap="round" stroke-linejoin="round" d="M10.5 15.5v-3a2 2 0 0 1 4 0v3"/><path fill="none" stroke="currentColor" stroke-linecap="round" stroke-linejoin="round" d="M16.107 21.5a1.393 1.393 0 0 0 1.393-1.393 1.4 1.4 0 0 0-.016-.212l-.832-5.406A1.166 1.166 0 0 0 15.5 13.5h-6a1.166 1.166 0 0 0-1.152.988L7.516 19.9a1.4 1.4 0 0 0-.016.212A1.393 1.393 0 0 0 8.893 21.5Z"/></svg>
