<svg xmlns="http://www.w3.org/2000/svg" viewBox="0 0 24 24"><path fill="none" stroke="currentColor" stroke-linecap="round" stroke-linejoin="round" d="M23.5 13.5V6.752a.994.994 0 0 0-1.373-.923c-3.436 1.392-10.818 1.393-14.254 0a1 1 0 0 0-1.373.924V13.5c0 5.5 6.5 10 8.5 10s8.5-4.5 8.5-10"/><path fill="none" stroke="currentColor" stroke-linecap="round" stroke-linejoin="round" d="M17.5 4.773V1.5a.994.994 0 0 0-1.373-.925c-3.436 1.392-10.818 1.393-14.254 0A1 1 0 0 0 .5 1.5v6.746c0 3.169 2.16 6.008 4.373 7.844M18 16.5a3 3 0 0 1-6 0m5-4.5a1.5 1.5 0 1 1 3 0"/><path fill="none" stroke="currentColor" stroke-linecap="round" stroke-linejoin="round" d="M10 12a1.5 1.5 0 1 1 3 0"/></svg>
