<svg xmlns="http://www.w3.org/2000/svg" viewBox="0 0 24 24"><path fill="none" stroke="currentColor" stroke-linecap="round" stroke-linejoin="round" d="M20.5 13.5v-8h-9.442A1.67 1.67 0 0 1 9.5 4.56 1.74 1.74 0 0 0 7.9 3.5H4a.5.5 0 0 0-.5.5v9.5m15-10h-6.456a1.74 1.74 0 0 1-1.574-1 1.74 1.74 0 0 0-1.57-1H5.5m-5 14 .839-4.2a1 1 0 0 1 .981-.8H3.5m20 5-.839-4.2a1 1 0 0 0-.981-.8H20.5"/><path fill="none" stroke="currentColor" stroke-linecap="round" stroke-linejoin="round" d="M10.25 9.25a1.75 1.75 0 1 0 3.5 0 1.75 1.75 0 1 0-3.5 0m5.25 5.25a3.612 3.612 0 0 0-7 0Zm3 1a1.5 1.5 0 0 0-1.5 1.54 1.51 1.51 0 0 1-1.559 1.46H8.558A1.51 1.51 0 0 1 7 17.04a1.5 1.5 0 0 0-1.5-1.54h-5v6a1 1 0 0 0 1 1h21a1 1 0 0 0 1-1v-6Z"/></svg>
