<svg xmlns="http://www.w3.org/2000/svg" viewBox="0 0 24 24"><path fill="none" stroke="currentColor" stroke-linecap="round" stroke-linejoin="round" d="M17.5 18.5v-16m2 13h2m-2-2h2m-2-2h2m-2-4a1 1 0 1 0 2 0 1 1 0 1 0-2 0M5 18.5l-2.5 3m16.5-3 2.5 3"/><path fill="none" stroke="currentColor" stroke-linecap="round" stroke-linejoin="round" d="M1.5 2.5h21s1 0 1 1v14s0 1-1 1h-21s-1 0-1-1v-14s0-1 1-1"/><path fill="none" stroke="currentColor" stroke-linecap="round" stroke-linejoin="round" d="M14.5 16 11 14.5v-2s.866-.35.866-2.5c.684 0 .944-2-.007-2a2.63 2.63 0 0 0 .44-2c-.491-2-5.331-2-5.822 0-2.066-.43-.422 1.712-.422 2-.981 0-.981 2 0 2 0 2.15.945 2.5.945 2.5v2L3.5 16"/></svg>
