<svg xmlns="http://www.w3.org/2000/svg" viewBox="0 0 24 24"><path fill="none" stroke="currentColor" stroke-linecap="round" stroke-linejoin="round" d="M20 .5H4.5a1.5 1.5 0 0 0 0 3h16a.5.5 0 0 1 .5.5v19a.5.5 0 0 1-.5.5H5a2 2 0 0 1-2-2V2"/><path fill="none" stroke="currentColor" stroke-linecap="round" stroke-linejoin="round" d="M13.853 16.19a6.34 6.34 0 0 0 3.745-.783.5.5 0 0 0 .143-.751c-.433-.508-.733-1.178-.866-3.133-.251-3.716-2.758-5.023-4.911-5.023s-4.659 1.307-4.911 5.023c-.132 1.955-.433 2.625-.866 3.133a.5.5 0 0 0 .143.751 6.34 6.34 0 0 0 3.745.783"/><path fill="none" stroke="currentColor" stroke-linecap="round" stroke-linejoin="round" d="M17.307 18.716c-.853-.352-1.862-.713-2.959-1.119a.76.76 0 0 1-.5-.709v-1.38a.75.75 0 0 1 .247-.559 2.72 2.72 0 0 0 .886-2.027v-1.1a.99.99 0 0 0-.7-.946A4.9 4.9 0 0 1 12.3 9.692a.494.494 0 0 0-.679 0 4.9 4.9 0 0 1-1.987 1.181.99.99 0 0 0-.7.946v1.1a2.72 2.72 0 0 0 .886 2.027.75.75 0 0 1 .247.559v1.38a.76.76 0 0 1-.495.709c-1.1.406-2.105.767-2.959 1.119"/></svg>
