<svg xmlns="http://www.w3.org/2000/svg" viewBox="0 0 24 24"><path fill="none" stroke="currentColor" stroke-linecap="round" stroke-linejoin="round" d="M8.5 4a3.5 3.5 0 1 0 7 0 3.5 3.5 0 1 0-7 0"/><path fill="none" stroke="currentColor" stroke-linecap="round" stroke-linejoin="round" d="M8.547 4.577A4.63 4.63 0 0 0 12 2.974a4.63 4.63 0 0 0 3.452 1.6m-1.235 5.141L12 13.206 9.802 9.701"/><path fill="none" stroke="currentColor" stroke-linecap="round" stroke-linejoin="round" d="M12 9a3.8 3.8 0 0 1 3.7 2.918l1.8 6.582h-2.957l-1.054 5h-3l-1.054-5H6.5l1.8-6.582A3.8 3.8 0 0 1 12 9"/></svg>
