<svg xmlns="http://www.w3.org/2000/svg" viewBox="0 0 24 24"><path fill="none" stroke="currentColor" stroke-linecap="round" stroke-linejoin="round" d="M16.366 14.873a4.7 4.7 0 0 1-.688-2.617v-1.071a3.683 3.683 0 1 0-7.365 0v1.071a4.7 4.7 0 0 1-.688 2.617"/><path fill="none" stroke="currentColor" stroke-linecap="round" stroke-linejoin="round" d="M8.313 11.793A4.87 4.87 0 0 0 12 10.105a4.88 4.88 0 0 0 3.683 1.688"/><path fill="none" stroke="currentColor" stroke-linecap="round" stroke-linejoin="round" d="M15.241 11.773a3.249 3.249 0 0 1-6.491 0m8.128 7.727a5.472 5.472 0 0 0-9.763 0"/><path fill="none" stroke="currentColor" stroke-linecap="round" stroke-linejoin="round" d="M1.5 23.5a1 1 0 0 1-1-1V8.8a1 1 0 0 1 .429-.821l10.5-7.3a1 1 0 0 1 1.142 0l10.5 7.3a1 1 0 0 1 .429.821v13.7a1 1 0 0 1-1 1Z"/></svg>
