<svg xmlns="http://www.w3.org/2000/svg" viewBox="0 0 24 24"><path fill="none" stroke="currentColor" stroke-linecap="round" stroke-linejoin="round" d="M11.5 3a2.5 2.5 0 1 0 5 0 2.5 2.5 0 1 0-5 0m1.917 18.5 1.5-2.934a3.5 3.5 0 0 0-1.6-4.751l-1.854-.891 1.4-2.425H20a1.5 1.5 0 0 0 0-3H4a1.5 1.5 0 0 0 0 3h5.4l-6.2 10.75a1.5 1.5 0 1 0 2.6 1.5l4.165-7.22 2.058.99a.5.5 0 0 1 .258.291.5.5 0 0 1-.029.387l-1.086 2.118M8.5 21.5h11m-3 1a1 1 0 1 0 2 0 1 1 0 1 0-2 0"/><path fill="none" stroke="currentColor" stroke-linecap="round" stroke-linejoin="round" d="M9.5 22.5a1 1 0 1 0 2 0 1 1 0 1 0-2 0"/></svg>
