<svg xmlns="http://www.w3.org/2000/svg" viewBox="0 0 24 24"><path fill="none" stroke="currentColor" stroke-linecap="round" stroke-linejoin="round" d="M17 3a2.5 2.5 0 1 0 5 0 2.5 2.5 0 1 0-5 0m2.5 18.5a1 1 0 0 1 0 2H13m5-3.453V23.5m-3-3.453V23.5M4 19.016a1 1 0 0 1-2 0v-6.5m3.5 5H2m3.5-3H2m16 5.5v-3.5a4.53 4.53 0 0 0-1.8-3.6l-1.281-.962L17.2 8.916a1.5 1.5 0 0 0-1.2-2.4H7.5a1.5 1.5 0 0 0 0 3H13l-1.36 1.813-.017.022-.021.029L9.7 13.916a1.51 1.51 0 0 1-1.2.6h-3v3h3a4.53 4.53 0 0 0 3.6-1.8l1.021-1.362 1.278.96a1.5 1.5 0 0 1 .6 1.2v3.5Z"/></svg>
