<svg xmlns="http://www.w3.org/2000/svg" viewBox="0 0 24 24"><path fill="none" stroke="currentColor" stroke-linecap="round" stroke-linejoin="round" d="M.5 22.25H21a2.5 2.5 0 0 0 2.5-2.5m-12.6-5.5H3.531a1 1 0 0 0-.97.757l-.906 3.622a.5.5 0 0 0 .485.621h16.693a2 2 0 0 0 1.2-.4l2.483-1.862a1.99 1.99 0 0 0 .662-2.344 4.16 4.16 0 0 0-1.884-2.07l-4.289-2.287a.96.96 0 0 0-1.365.545 5 5 0 0 1-.411.916m.889-1.471-1.114-3.343M7 3.75a2 2 0 1 0 4 0 2 2 0 1 0-4 0"/><path fill="none" stroke="currentColor" stroke-linecap="round" stroke-linejoin="round" d="M7.5 14.25v-6a1 1 0 0 1 1.889-.459 6 6 0 0 0 3.011 2.277l.477.191a1 1 0 1 1-.744 1.857l-.476-.19A6.8 6.8 0 0 1 10 10.98m13.125 5.27H2.25"/></svg>
