<svg xmlns="http://www.w3.org/2000/svg" viewBox="0 0 24 24"><path fill="none" stroke="currentColor" stroke-linecap="round" stroke-linejoin="round" d="M12 .5A9.5 9.5 0 0 0 2.5 10v7.5a2 2 0 0 0 2 2v2a2 2 0 0 0 2 2h11a2 2 0 0 0 2-2v-2a2 2 0 0 0 2-2V10A9.5 9.5 0 0 0 12 .5m0 23v-4m4 4v-4m-8 4v-4"/><path fill="none" stroke="currentColor" stroke-linecap="round" stroke-linejoin="round" d="M14.5 14a2.5 2.5 0 1 0 5 0 2.5 2.5 0 1 0-5 0m-10 0a2.5 2.5 0 1 0 5 0 2.5 2.5 0 1 0-5 0m1-7.5v1a3 3 0 0 1-3 3m16-4v1a3 3 0 0 0 3 3m-8.5 7a1 1 0 0 0-2 0"/></svg>
