<svg xmlns="http://www.w3.org/2000/svg" viewBox="0 0 24 24"><path fill="none" stroke="currentColor" stroke-linecap="round" stroke-linejoin="round" d="M1.26 12.008a10.72 10.72 0 0 0 12.548 10.623.55.55 0 0 1 .363.063 6.2 6.2 0 0 0 3.066.806 6.3 6.3 0 0 0 5.42-9.446.55.55 0 0 1-.067-.358 11 11 0 0 0 .134-1.688A10.72 10.72 0 0 0 10.21 1.379a.54.54 0 0 1-.362-.065A6.2 6.2 0 0 0 6.764.5a6.3 6.3 0 0 0-5.43 9.427.55.55 0 0 1 .065.359 11 11 0 0 0-.139 1.722m10.847-7.659c3.461.2 5.488 1.733 5.685 3.161A1.462 1.462 0 0 1 16.2 9.169c-1.566 0-1.725-2.1-4.421-2.1-1.216 0-2.243.508-2.243 1.61 0 2.3 8.638.965 8.638 6.033 0 2.922-2.328 4.836-5.8 4.836-3.056 0-6.129-1.392-6.113-3.788a1.344 1.344 0 0 1 1.256-1.387c1.8 0 1.784 2.687 4.65 2.687 2.01 0 2.7-1.1 2.7-1.87 0-2.773-8.69-1.073-8.69-6.289-.007-2.819 2.302-4.766 5.93-4.552"/></svg>
