<svg xmlns="http://www.w3.org/2000/svg" viewBox="-0.001 0 24 24"><path fill="none" stroke="currentColor" stroke-linecap="round" stroke-linejoin="round" d="M19.7 19a1 1 0 0 1-1 1H1.5a1 1 0 0 1-1-1V7.8a1 1 0 0 1 1-1H14M8.848 20h2.505v3.5H8.848Zm-2.922 3.5h8.349"/><path fill="none" stroke="currentColor" stroke-linecap="round" stroke-linejoin="round" d="M17.499 5h5s1 0 1 1v10s0 1-1 1h-5s-1 0-1-1V6s0-1 1-1m-1 9.5h7M18.585 3.086a2 2 0 0 1 2.828 0M17.17 1.672a4 4 0 0 1 5.657 0M3.655 4.25a2 2 0 0 1 2.828 0M1.534 2.129a5 5 0 0 1 7.071 0"/></svg>
