<svg xmlns="http://www.w3.org/2000/svg" viewBox="0 0 24 24"><path fill="none" stroke="currentColor" stroke-linecap="round" stroke-linejoin="round" d="M17.786 14.5h3.75a1.25 1.25 0 0 0 1.25-1.25V5h-5ZM7.6 12a1.25 1.25 0 1 0 0 2.5h10.186V12Zm12.188 5.036a2.71 2.71 0 0 0 1.729-2.536H7.587a7.17 7.17 0 0 0 3.8 6.34l-.633 2.66h8.232v-5.252a1.26 1.26 0 0 1 .802-1.212M18.286 3h4a1 1 0 0 1 1 1v1h0-6 0V4a1 1 0 0 1 1-1M6.532 10.107a3.79 3.79 0 0 1 3.789-3.789M3.515 9.335A6.033 6.033 0 0 1 9.549 3.3M.714 8.537A8.037 8.037 0 0 1 8.751.5"/></svg>
