<svg xmlns="http://www.w3.org/2000/svg" viewBox="0 0 24 24"><path fill="none" stroke="currentColor" stroke-linecap="round" stroke-linejoin="round" d="M19.637 3.422A11.484 11.484 0 0 0 3.422 19.637M23.167 9.3A11.475 11.475 0 0 1 9.3 23.167m-1.123-2.583a1.5 1.5 0 0 1-2.956.514c-.142-.816.964-3.212.964-3.212s1.85 1.882 1.992 2.698M20.584 8.177a1.5 1.5 0 1 0 .516-2.956c-.816-.142-3.212.964-3.212.964s1.88 1.85 2.696 1.992"/><path fill="none" stroke="currentColor" stroke-linecap="round" stroke-linejoin="round" d="M17.914 10.7a.5.5 0 0 1 .909-.163 6 6 0 0 1-8.29 8.29.5.5 0 0 1 .163-.909 9.3 9.3 0 0 0 4.488-2.73 9.3 9.3 0 0 0 2.73-4.488M6.345 14.124l2.122-2.122H4.931m9.193-5.656-2.122 2.121V4.931"/></svg>
