<svg xmlns="http://www.w3.org/2000/svg" viewBox="0 0 24 24"><path fill="none" stroke="currentColor" stroke-linecap="round" stroke-linejoin="round" d="M7.894 19.225a1 1 0 0 1-1.285-1.363 6 6 0 0 1 10.782 0 1 1 0 0 1-1.285 1.363A10.6 10.6 0 0 0 12 18.5a10.6 10.6 0 0 0-4.106.725"/><path fill="none" stroke="currentColor" stroke-linecap="round" stroke-linejoin="round" d="M.5 12a11.5 11.5 0 1 0 23 0 11.5 11.5 0 1 0-23 0"/><path fill="none" stroke="currentColor" stroke-linecap="round" stroke-linejoin="round" d="M14.5 9.392a2.36 2.36 0 0 0 4 0m-9 0a2.36 2.36 0 0 1-4 0M7 7s2.5 0 3-2m7 2s-2.5 0-3-2"/></svg>
