<svg xmlns="http://www.w3.org/2000/svg" fill="none" viewBox="0 0 24 24"><path stroke="currentColor" stroke-linecap="round" stroke-linejoin="round" d="M12 23.5c6.351 0 11.5-5.149 11.5-11.5S18.351.5 12 .5.5 5.649.5 12 5.649 23.5 12 23.5"/><path stroke="currentColor" stroke-linecap="round" stroke-linejoin="round" d="M15.873 15.5a1 1 0 0 1 .97 1.249 5 5 0 0 1-9.686 0 1 1 0 0 1 .97-1.249z"/><path stroke="currentColor" d="M6.5 10.25a.25.25 0 1 1 0-.5m0 .5a.25.25 0 1 0 0-.5m11 .5a.25.25 0 1 1 0-.5m0 .5a.25.25 0 1 0 0-.5"/></svg>
