<svg xmlns="http://www.w3.org/2000/svg" fill="none" viewBox="0 0 24 24"><path stroke="currentColor" stroke-linecap="round" stroke-linejoin="round" d="M7.683 9.795a1.65 1.65 0 0 0-1.56-1.102h-1.28a1.476 1.476 0 0 0-.315 2.918l1.949.426a1.654 1.654 0 0 1-.354 3.27H5.021c-.72 0-1.333-.46-1.56-1.102m17.018-4.41a1.65 1.65 0 0 0-1.56-1.102h-1.28a1.476 1.476 0 0 0-.315 2.918l1.949.426a1.654 1.654 0 0 1-.354 3.27h-1.102c-.72 0-1.332-.46-1.56-1.102m-6.492-3.307v2.204a2.205 2.205 0 0 0 4.41 0v-2.204a2.205 2.205 0 0 0-4.41 0"/><path stroke="currentColor" stroke-linecap="round" stroke-linejoin="round" d="M2.8 1.08h18.399s1.72 0 1.72 1.72v18.399s0 1.72-1.72 1.72H2.8s-1.72 0-1.72-1.72V2.8s0-1.72 1.72-1.72"/></svg>
