<svg xmlns="http://www.w3.org/2000/svg" fill="none" viewBox="0 0 24 24"><path stroke="currentColor" stroke-linecap="round" stroke-linejoin="round" stroke-miterlimit="10" d="M4.766 13.308h14.467M12 19.25v4m0-22.5c4.018 0 7.232 3.214 7.232 7.333v5.223h1.507a2.487 2.487 0 0 1 2.511 2.511v1.507c0 .803-.703 1.506-1.507 1.506s-1.506-.703-1.506-1.506v-.804h-1.708c-.402 1.005-1.105 1.808-1.808 2.511v1.808h.804c.703 0 1.205.603 1.205 1.206 0 .602-.603 1.205-1.205 1.205H6.475c-.703 0-1.205-.603-1.205-1.205s.603-1.206 1.205-1.206h.804v-1.808c-.804-.703-1.406-1.506-1.808-2.51H3.763v.803c0 .803-.703 1.506-1.506 1.506S.75 18.127.75 17.324v-1.507a2.487 2.487 0 0 1 2.511-2.511h1.507V7.982A7.2 7.2 0 0 1 12 .75"/><path stroke="currentColor" stroke-linecap="round" stroke-linejoin="round" d="M15.5 7.765C15.5 9.618 13.925 12 12 12S8.5 9.618 8.5 7.765 10.075 4.5 12 4.5s3.5 1.412 3.5 3.265"/><path stroke="currentColor" stroke-linecap="round" stroke-linejoin="round" d="M10.652 8.15a.2.2 0 0 1 0-.4m0 .4a.2.2 0 0 0 0-.4m2.696.4a.2.2 0 0 1 0-.4m0 .4a.2.2 0 1 0 0-.4"/></svg>
