<svg xmlns="http://www.w3.org/2000/svg" viewBox="0 0 24 24"><path fill="none" stroke="currentColor" stroke-linecap="round" stroke-linejoin="round" d="M16.223 10.656a11.6 11.6 0 0 1-2.475 1.061 11.6 11.6 0 0 1 1.061-2.475 1 1 0 0 1 1.414 1.414M23.1 2.631c.108-.253-.01-.371-.263-.262l-1.556.666a3.1 3.1 0 0 0-.813.551L19.051 5l-.224-.075a3.55 3.55 0 0 0-3.311.782l-.354.353 1.415 1.414 1.414 1.414 1.414 1.412.353-.353a3.55 3.55 0 0 0 .782-3.311l-.075-.224L21.88 5a3.1 3.1 0 0 0 .55-.813Zm-10.806 11.55c-5.027 5-10.023 8.11-11.187 6.946-.684-.685.107-2.694 1.893-5.256"/><path fill="none" stroke="currentColor" stroke-linecap="round" stroke-linejoin="round" d="M17.637 12.636a7.49 7.49 0 1 1-4.4-5.365"/></svg>
