<svg xmlns="http://www.w3.org/2000/svg" viewBox="0 0 24 24"><g fill="none" stroke="currentColor" stroke-linecap="round" stroke-linejoin="round"><path d="m6.15 7.31 4.94-5a3.59 3.59 0 0 1 5 0M21 7.25a3.56 3.56 0 0 1 0 5l-5 4.95"/><path d="M11.8 17.2a1.5 1.5 0 0 0 2.12 2.12L16 17.2a4.49 4.49 0 0 0 0-6.36L12.51 7.3a4.5 4.5 0 0 0-6.37 0L4 9.42a1.51 1.51 0 0 0 0 2.12 1.49 1.49 0 0 0 2.12 0"/><path d="m9 8.72-7.81 7.77a1.51 1.51 0 0 0 0 2.12 1.49 1.49 0 0 0 2.12 0l3.19-3.18a1 1 0 0 1 1.41 0 1 1 0 0 1 0 1.42L4.73 20a1.5 1.5 0 0 0 2.12 2.12l7.78-7.78m5.29-5.26a4 4 0 1 1 0-5.66 4 4 0 0 1 0 5.66"/><path d="M18.51 7.66a2 2 0 1 1 0-2.82 2 2 0 0 1 0 2.82M8.259 12.252l2.121-2.122s.354-.353.707 0l2.122 2.122s.353.353 0 .707l-2.122 2.121s-.353.354-.707 0l-2.12-2.12s-.354-.354 0-.707m1.02 7.467c3.47 4.86 9.87 3 14-.6"/></g></svg>
