<svg xmlns="http://www.w3.org/2000/svg" fill="none" viewBox="0 0 24 24"><path stroke="currentColor" stroke-linecap="round" stroke-linejoin="round" d="M12 19.466a7.466 7.466 0 1 0 0-14.932 7.466 7.466 0 0 0 0 14.932"/><path stroke="currentColor" stroke-linecap="round" stroke-linejoin="round" d="M12 14.489a2.489 2.489 0 1 0 0-4.978 2.489 2.489 0 0 0 0 4.978"/><path stroke="currentColor" stroke-linecap="round" stroke-linejoin="round" d="M21.656 5.865 22.721 4.8a2.49 2.49 0 0 0-3.52-3.52l-1.066 1.063a11.39 11.39 0 0 0-12.27 0L4.801 1.28A2.489 2.489 0 0 0 1.28 4.8l1.063 1.064a11.39 11.39 0 0 0 0 12.27l-1.065 1.064a2.489 2.489 0 1 0 3.52 3.52l1.066-1.063a11.39 11.39 0 0 0 12.27 0l1.064 1.065a2.489 2.489 0 0 0 3.52-3.52l-1.063-1.066a11.39 11.39 0 0 0 0-12.27"/><path stroke="currentColor" d="M3.04 3.29a.249.249 0 1 1 0-.498m0 .498a.249.249 0 1 0 0-.498m0 18.416a.249.249 0 1 1 0-.498m0 .498a.249.249 0 1 0 0-.498M20.96 3.29a.249.249 0 1 1 0-.498m0 .498a.249.249 0 0 0 0-.498m0 18.416a.249.249 0 1 1 0-.498m0 .498a.249.249 0 1 0 0-.498"/></svg>
