<svg xmlns="http://www.w3.org/2000/svg" viewBox="0 0 24 24"><g fill="none" stroke="currentColor" stroke-linecap="round" stroke-linejoin="round"><path d="m17.5 17-2.08-5.56a.48.48 0 0 0-.39-.32.49.49 0 0 0-.48.19l-2.26 3.31a.49.49 0 0 1-.68.1l-1.73-1.16a.5.5 0 0 0-.39-.08.5.5 0 0 0-.33.24L7.25 17Z"/><path d="M5.5 4.5h13s1 0 1 1v13s0 1-1 1h-13s-1 0-1-1v-13s0-1 1-1"/><path d="M7 9a2 2 0 1 0 4 0 2 2 0 1 0-4 0"/><path d="M23.5 2.8a2.31 2.31 0 0 0-4.6-.3 2.32 2.32 0 0 0-4.6 0 2.32 2.32 0 0 0-4.6 0 2.32 2.32 0 0 0-4.6 0 2.31 2.31 0 1 0-2.6 2.6 2.32 2.32 0 0 0 0 4.6 2.32 2.32 0 0 0 0 4.6 2.32 2.32 0 0 0 0 4.6 2.31 2.31 0 1 0 2.6 2.6 2.32 2.32 0 0 0 4.6 0 2.32 2.32 0 0 0 4.6 0 2.32 2.32 0 0 0 4.6 0 2.31 2.31 0 1 0 2.6-2.6 2.32 2.32 0 0 0 0-4.6 2.32 2.32 0 0 0 0-4.6 2.32 2.32 0 0 0 0-4.6 2.32 2.32 0 0 0 2-2.3"/></g></svg>
