<svg xmlns="http://www.w3.org/2000/svg" viewBox="0 0 24 24"><path fill="none" stroke="currentColor" stroke-linecap="round" stroke-linejoin="round" d="M21 9.756a9 9 0 1 0-13.492 7.79c1.688.974 2.143 2.049 4.057 5.443a.5.5 0 0 0 .871 0c1.934-3.431 2.372-4.471 4.056-5.443A8.98 8.98 0 0 0 21 9.756"/><path fill="none" stroke="currentColor" stroke-linecap="round" stroke-linejoin="round" d="M7 9.756a5 5 0 1 0 10 0 5 5 0 1 0-10 0"/><path fill="none" stroke="currentColor" stroke-linecap="round" stroke-linejoin="round" d="m10 10.256 1.083 1.083a.5.5 0 0 0 .76-.063L14 8.256"/></svg>
