<svg xmlns="http://www.w3.org/2000/svg" viewBox="0 0 24 24"><g fill="none" stroke="currentColor" stroke-linecap="round" stroke-linejoin="round"><path d="M21 9.76a9 9 0 1 0-13.49 7.79c1.69 1 2.14 2 4.05 5.44a.51.51 0 0 0 .88 0c1.93-3.43 2.37-4.47 4-5.44A9 9 0 0 0 21 9.76"/><path d="M17.34 6.48A1.38 1.38 0 0 1 17.77 9l-7.86 4.86a.47.47 0 0 1-.53 0l-2.88-2a.27.27 0 0 1 0-.42l1.21-1.07a.28.28 0 0 1 .25 0l1.52.9 1.92-1.34-3.63-2.32a.34.34 0 0 1 0-.52l.89-.66a.36.36 0 0 1 .32 0l5 1.87 2.32-1.59a1.3 1.3 0 0 1 1.04-.23"/></g></svg>
