<svg xmlns="http://www.w3.org/2000/svg" viewBox="0 0 24 24"><path fill="none" stroke="currentColor" stroke-linecap="round" stroke-linejoin="round" d="M21 9.756a9 9 0 1 0-13.492 7.79c1.688.974 2.143 2.049 4.057 5.443a.5.5 0 0 0 .871 0c1.934-3.431 2.372-4.471 4.056-5.443A8.98 8.98 0 0 0 21 9.756"/><path fill="none" stroke="currentColor" stroke-linecap="round" stroke-linejoin="round" d="m12.589 3.987 1.282 2.769h2.495a.613.613 0 0 1 .431 1.07l-2.166 2.135 1.2 2.761a.654.654 0 0 1-.931.819L12 11.907l-2.9 1.634a.654.654 0 0 1-.931-.819l1.2-2.761L7.2 7.826a.613.613 0 0 1 .429-1.07h2.5l1.285-2.769a.662.662 0 0 1 1.175 0"/></svg>
