<svg xmlns="http://www.w3.org/2000/svg" viewBox="0 0 24 24"><path fill="none" stroke="currentColor" stroke-linecap="round" stroke-linejoin="round" d="M7 9.574a5 5 0 1 0 10 0 5 5 0 1 0-10 0m8.536-3.536-7.072 7.071"/><path fill="none" stroke="currentColor" stroke-linecap="round" stroke-linejoin="round" d="M16.942 8.816a8.14 8.14 0 0 0-3.528 2.172 8.14 8.14 0 0 0-2.172 3.528m-4.184-4.185a8.15 8.15 0 0 0 3.528-2.171 8.14 8.14 0 0 0 2.172-3.528"/><path fill="none" stroke="currentColor" stroke-linecap="round" stroke-linejoin="round" d="M12 .574a11.4 11.4 0 0 1 6.112 1.77c4.75 3.011 5.1 9.23 1.315 13.777a59.3 59.3 0 0 1-7.106 7.189.5.5 0 0 1-.642 0 59.3 59.3 0 0 1-7.106-7.188C.789 11.574 1.138 5.355 5.888 2.344A11.4 11.4 0 0 1 12 .574"/></svg>
