<svg xmlns="http://www.w3.org/2000/svg" fill="none" viewBox="0 0 24 24"><path stroke="currentColor" stroke-linecap="round" stroke-linejoin="round" d="m6.503 5.47 2.49-2.38h5.982l2.49 2.38h2.49A2.88 2.88 0 0 1 22.7 8.23v10.216a2.617 2.617 0 0 1-2.744 2.46H4.044c-1.427.063-2.665-1.032-2.744-2.46V8.23a2.88 2.88 0 0 1 2.744-2.76z"/><path stroke="currentColor" stroke-linecap="round" stroke-linejoin="round" stroke-miterlimit="10" d="M9.46 8.555a5.031 5.031 0 0 1 7.571 4.344v1.039m-2.657 3.398a5.03 5.03 0 0 1-7.404-4.438v-1.237"/><path stroke="currentColor" stroke-linecap="round" stroke-linejoin="round" d="m14.81 12.344 2.222 2.222 2.223-2.222M9.192 13.453 6.97 11.231l-2.223 2.222"/></svg>
