<svg xmlns="http://www.w3.org/2000/svg" viewBox="0 0 24 24"><path fill="none" stroke="currentColor" stroke-linecap="round" stroke-linejoin="round" d="M16.5 11.639a2.5 2.5 0 1 0 5 0 2.5 2.5 0 1 0-5 0M3.568.855a.5.5 0 0 0-.717.6l2.565 7.421a5.5 5.5 0 0 0 2.516 3.033l3.846 2.16a2.5 2.5 0 0 1 .893.852l2.785 4.445a1.5 1.5 0 0 0 2.2.383 1.575 1.575 0 0 0 .287-2.066l-2.728-4.353a5.5 5.5 0 0 0-1.968-1.876L9.4 9.294a2.5 2.5 0 0 1-1.143-1.379L6.592 3.13a2 2 0 0 0-.909-1.087Zm4.69 7.06-2.284 2.134m4.045-.409-1.563 2.564M.5 23.1c2.505.521 4.06-1.979 4.06-1.979h0a4.4 4.4 0 0 0 3.621 2.056A3.82 3.82 0 0 0 11.5 21.12h0a5.28 5.28 0 0 0 3.922 2.056 4.6 4.6 0 0 0 3.618-2.056h0s2 2.542 4.455 2.02"/></svg>
