<svg xmlns="http://www.w3.org/2000/svg" viewBox="0 0 24 24"><path fill="none" stroke="currentColor" stroke-linecap="round" stroke-linejoin="round" d="M23.5 22.442c-2.5.521-4.06-1.979-4.06-1.979h0a4.4 4.4 0 0 1-3.621 2.055 4.6 4.6 0 0 1-3.619-2.055h0a4.4 4.4 0 0 1-3.62 2.055 4.6 4.6 0 0 1-3.62-2.055h0S2.952 23 .5 22.483m23-4.041c-2.5.521-4.06-1.979-4.06-1.979h0a4.4 4.4 0 0 1-3.621 2.055 4.6 4.6 0 0 1-3.619-2.055h0a4.4 4.4 0 0 1-3.62 2.055 4.6 4.6 0 0 1-3.62-2.055h0S2.952 19 .5 18.483M9 15.727V3.947a2.5 2.5 0 0 1 5 0v1m2 10.995V3.947a2.5 2.5 0 0 1 5 0v1m-12.002 5.5h7m-7-3h7m-7 6h7"/></svg>
