<svg xmlns="http://www.w3.org/2000/svg" fill="none" viewBox="0 0 24 24"><path stroke="currentColor" stroke-linecap="round" stroke-linejoin="round" d="M11.101 1.488H4.829a1 1 0 0 0-1 1v6.614m9.07 13.41h6.272a1 1 0 0 0 1-1v-6.614"/><path stroke="currentColor" stroke-linecap="round" stroke-linejoin="round" d="m1.23 6.5 2.6 2.6 2.601-2.6m16.339 11-2.6-2.6-2.601 2.6"/><path stroke="currentColor" stroke-linecap="round" stroke-linejoin="round" stroke-miterlimit="10" d="M5.505 18.546a2.551 2.551 0 1 0 0-5.103 2.551 2.551 0 0 0 0 5.103m4.277 3.965c-.559-1.83-2.29-3.202-4.276-3.202S1.788 20.68 1.229 22.51M18.493 6.591a2.551 2.551 0 1 0 0-5.103 2.551 2.551 0 0 0 0 5.103m4.277 3.965c-.559-1.83-2.289-3.202-4.276-3.202s-3.718 1.372-4.276 3.202"/></svg>
