<svg xmlns="http://www.w3.org/2000/svg" fill="none" viewBox="0 0 24 24"><path stroke="currentColor" stroke-linecap="round" stroke-linejoin="round" d="m.713 10.36 2.788 4.15 3.204-3.838m16.581 3.988L20.5 10.51l-3.207 3.84"/><path stroke="currentColor" stroke-linecap="round" stroke-linejoin="round" d="M20.463 10.549a8.62 8.62 0 0 1-6.508 9.727 8.49 8.49 0 0 1-7.931-2.225m-2.519-3.566a8.85 8.85 0 0 1 6.538-10.751 8.49 8.49 0 0 1 8.325 2.64"/><path stroke="currentColor" stroke-linecap="round" stroke-linejoin="round" d="M10.5 15.506h4a1 1 0 0 0 1-1v-3a1 1 0 0 0-1-1h-4a1 1 0 0 0-1 1v3a1 1 0 0 0 1 1m2-8a2 2 0 0 0-2 2v1h4v-1a2 2 0 0 0-2-2"/><path stroke="currentColor" d="M12.5 12.776a.25.25 0 1 0 0 .5m0-.5a.25.25 0 1 1 0 .5"/></svg>
