<svg xmlns="http://www.w3.org/2000/svg" viewBox="0 0 24 24"><path fill="none" stroke="currentColor" stroke-linecap="round" stroke-linejoin="round" d="M4.5.5h15s2 0 2 2v19s0 2-2 2h-15s-2 0-2-2v-19s0-2 2-2"/><path fill="none" stroke="currentColor" stroke-linecap="round" stroke-linejoin="round" d="M5 3.5h14s.5 0 .5.5v15s0 .5-.5.5H5s-.5 0-.5-.5V4s0-.5.5-.5"/><path fill="none" stroke="currentColor" stroke-linecap="round" stroke-linejoin="round" d="M7 6.5h1s.5 0 .5.5v1s0 .5-.5.5H7s-.5 0-.5-.5V7s0-.5.5-.5m4.5 0h1s.5 0 .5.5v1s0 .5-.5.5h-1s-.5 0-.5-.5V7s0-.5.5-.5m4.5 0h1s.5 0 .5.5v1s0 .5-.5.5h-1s-.5 0-.5-.5V7s0-.5.5-.5m-9 4h1s.5 0 .5.5v1s0 .5-.5.5H7s-.5 0-.5-.5v-1s0-.5.5-.5m4.5 0h1s.5 0 .5.5v1s0 .5-.5.5h-1s-.5 0-.5-.5v-1s0-.5.5-.5m-4.5 4h1s.5 0 .5.5v1s0 .5-.5.5H7s-.5 0-.5-.5v-1s0-.5.5-.5m4.5 0h1s.5 0 .5.5v1s0 .5-.5.5h-1s-.5 0-.5-.5v-1s0-.5.5-.5m4.5-4h1s.5 0 .5.5v1s0 .5-.5.5h-1s-.5 0-.5-.5v-1s0-.5.5-.5"/></svg>
