<svg xmlns="http://www.w3.org/2000/svg" viewBox="0 0 24 24"><path fill="none" stroke="currentColor" stroke-linecap="round" stroke-linejoin="round" d="M17.5 5a1.5 1.5 0 1 0 3 0 1.5 1.5 0 1 0-3 0m-3.243 7.571-1.985-1.985a1.107 1.107 0 0 0-1.686 0c-.925.924 1.2 4.46.272 5.384a1.17 1.17 0 0 1-1.687 0l-1.985-1.985m5.657-2.828 1.061-1.061M7.54 16.46l1.061-1.061"/><path fill="none" stroke="currentColor" stroke-linecap="round" stroke-linejoin="round" d="M.854 12.646a1.207 1.207 0 0 0 0 1.708l8.792 8.792a1.207 1.207 0 0 0 1.708 0l11.439-11.439A2.4 2.4 0 0 0 23.5 10V1.5a1 1 0 0 0-1-1H14a2.4 2.4 0 0 0-1.707.707Z"/></svg>
