<svg xmlns="http://www.w3.org/2000/svg" viewBox="0 0 24 24"><g fill="none" stroke="currentColor" stroke-linecap="round" stroke-linejoin="round"><path d="M16.16 9.05 18 7.21a2.78 2.78 0 0 0 .7-1.71v-4a1 1 0 0 0-1-1h-4.3a2.8 2.8 0 0 0-1.7.71L.87 12a1 1 0 0 0 0 1.42l4.83 4.87a1 1 0 0 0 1.41 0l1-1.07"/><path d="M13.66 4a1.5 1.5 0 1 0 3 0 1.5 1.5 0 1 0-3 0m5.35 11.14 3.05 1.36 1.36-3.07"/><path d="M11.24 15.27a5.58 5.58 0 0 1 10.82 1.23m-7.75 3.36-3.05-1.36-1.37 3.07"/><path d="M22.08 19.73a5.58 5.58 0 0 1-10.82-1.23"/></g></svg>
