<svg xmlns="http://www.w3.org/2000/svg" viewBox="0 0 24 24"><path fill="none" stroke="currentColor" stroke-linecap="round" stroke-linejoin="round" d="m15.043 10.58 3.3-3.368a2.82 2.82 0 0 0 .7-1.714v-4a1 1 0 0 0-1-1l-4.258.007a2.8 2.8 0 0 0-1.708.708L1.25 12.041a1 1 0 0 0 0 1.414l4.835 4.836a.99.99 0 0 0 1.407-.007L9.043 16.7"/><path fill="none" stroke="currentColor" stroke-linecap="round" stroke-linejoin="round" d="M14.043 3.998a1.5 1.5 0 1 0 3 0 1.5 1.5 0 1 0-3 0m3 19.502-5.114-5.334a3.03 3.03 0 0 1-.567-3.493h0a3.026 3.026 0 0 1 4.846-.786l.835.836.835-.835a3.025 3.025 0 0 1 4.845.786h0a3.03 3.03 0 0 1-.567 3.493Z"/></svg>
