<svg xmlns="http://www.w3.org/2000/svg" viewBox="0 0 24 24"><path fill="none" stroke="currentColor" stroke-linecap="round" stroke-linejoin="round" d="M13.5 21.5a1 1 0 0 1-1 1h-10a1 1 0 0 1-1-1v-6a1 1 0 0 1 1-1h4c.28-.56.451-1 1.118-1h2.264c.667 0 .838.44 1.118 1h1.5a1 1 0 0 1 1 1Z"/><path fill="none" stroke="currentColor" stroke-linecap="round" stroke-linejoin="round" d="M4.5 11.5a1 1 0 0 1 1-1h4c.28-.56.451-1 1.118-1h2.264c.667 0 .838.44 1.118 1h1.5a1 1 0 0 1 1 1v6a1 1 0 0 1-1 1"/><path fill="none" stroke="currentColor" stroke-linecap="round" stroke-linejoin="round" d="M7.5 7.5a1 1 0 0 1 1-1h4c.28-.56.451-1 1.118-1h2.264c.667 0 .838.44 1.118 1h1.5a1 1 0 0 1 1 1v6a1 1 0 0 1-1 1"/><path fill="none" stroke="currentColor" stroke-linecap="round" stroke-linejoin="round" d="M10.5 3.5a1 1 0 0 1 1-1h4c.28-.56.451-1 1.118-1h2.264c.667 0 .838.44 1.118 1h1.5a1 1 0 0 1 1 1v6a1 1 0 0 1-1 1m-15 8a2 2 0 1 0 4 0 2 2 0 1 0-4 0m-3-5.5v1.5"/></svg>
