<svg xmlns="http://www.w3.org/2000/svg" viewBox="0 0 24 24"><g fill="none" stroke="currentColor" stroke-linecap="round" stroke-linejoin="round"><path d="m11.75 10.98 4.5-4.5m.59-3.59a2 2 0 0 0-.59 1.42v2.17h2.67a2 2 0 0 0 1.42-.59l2.41-2.41h-3.5v-3Zm-2.09 20.59h-6a7.9 7.9 0 0 0 1.5-4h3a8 8 0 0 0 1.5 4m-7.48.04 9.48-.04m-15.5-7h21"/><path d="M22.25 8.48V18a1.5 1.5 0 0 1-1.5 1.5h-18a1.5 1.5 0 0 1-1.5-1.5V5a1.5 1.5 0 0 1 1.5-1.5h9.42"/><path d="M8.25 10.98a3.5 3.5 0 1 0 7 0 3.5 3.5 0 1 0-7 0"/></g></svg>
