<svg xmlns="http://www.w3.org/2000/svg" viewBox="0 0 24 24"><path fill="none" stroke="currentColor" stroke-linecap="round" stroke-linejoin="round" d="M21.5 3.5a1 1 0 0 0-1-1h-5.448a3.329 3.329 0 0 0-6.1 0H3.5a1 1 0 0 0-1 1v19a1 1 0 0 0 1 1h17a1 1 0 0 0 1-1Z"/><path fill="none" stroke="currentColor" stroke-linecap="round" stroke-linejoin="round" d="M5.5 20.5h9.08a2 2 0 0 0 1.519-.7l1.92-2.239a2 2 0 0 0 .481-1.3V5.5h-13Z"/><path fill="none" stroke="currentColor" stroke-linecap="round" stroke-linejoin="round" d="m14.769 9.913-2.9 3.874a.75.75 0 0 1-1.131.08l-1.5-1.5"/></svg>
