<svg xmlns="http://www.w3.org/2000/svg" viewBox="0 0 24 24"><path fill="none" stroke="currentColor" stroke-linecap="round" stroke-linejoin="round" d="M20.5 9.5a1 1 0 0 0-1-1h-15a1 1 0 0 0-1 1v13a1 1 0 0 0 1 1h9a2.78 2.78 0 0 0 1.707-.707l4.586-4.586A2.78 2.78 0 0 0 20.5 16.5Z"/><path fill="none" stroke="currentColor" stroke-linecap="round" stroke-linejoin="round" d="M14.5 23.255V18.5a1 1 0 0 1 1-1h4.755M8.5 3.5a3 3 0 1 0 6 0 3 3 0 1 0-6 0m3 3v3"/><path fill="none" stroke="currentColor" stroke-linecap="round" stroke-linejoin="round" d="M11.5 2.5a1 1 0 0 1 1 1m-5.5 9h8m-8 3h8m-8 3h5"/></svg>
