<svg xmlns="http://www.w3.org/2000/svg" viewBox="0 0 24 24"><g fill="none" stroke="currentColor" stroke-linecap="round" stroke-linejoin="round"><path d="M17 20.85a2 2 0 0 1-1.47.65h-1.78m-12.25-6v-10a2 2 0 0 1 2-2H6m7 0h2.5a2 2 0 0 1 2 2v8.9M11.23 1.5a2 2 0 0 0-3.46 0H7a1 1 0 0 0-1 1v2a1 1 0 0 0 1 1h5a1 1 0 0 0 1-1v-2a1 1 0 0 0-1-1ZM.5 23.5v-2.67a3.33 3.33 0 0 1 3.33-3.33H5.5V13a1.5 1.5 0 0 1 3 0v7l1.29-1.08a1.25 1.25 0 0 1 1.92 1.6l-2.48 3"/><path d="m19.71 16.29-1.5-1.5a1.18 1.18 0 0 0-1.71 1.64c2.21 2.29 1.65 3.42 3.5 5.28l2 1.79M17.5 9l4.29 4.79a2.4 2.4 0 0 1 .71 1.71V17a2.65 2.65 0 0 0 1 2"/></g></svg>
