<svg xmlns="http://www.w3.org/2000/svg" viewBox="0 0 24 24"><path fill="none" stroke="currentColor" stroke-linecap="round" stroke-linejoin="round" d="m20 12.5-.383-6c0-4-15.234-4-15.234 0L4 12.5m17 8V22a.5.5 0 0 1-.5.5h-2a.5.5 0 0 1-.5-.5v-1.5m-12 0V22a.5.5 0 0 1-.5.5h-2A.5.5 0 0 1 3 22v-1.5"/><path fill="none" stroke="currentColor" stroke-linecap="round" stroke-linejoin="round" d="m8.5 3.8.872-2a.5.5 0 0 1 .458-.3h4.345a.5.5 0 0 1 .458.3l.872 2M16 20.5H8m0-3c0-2.667 8-2.667 8 0m0-3a2 2 0 0 1 2-2h2a2 2 0 0 1 2 2V20a.5.5 0 0 1-.5.5H16Zm-14 0a2 2 0 0 1 2-2h2a2 2 0 0 1 2 2v6H2.5A.5.5 0 0 1 2 20Z"/><path fill="none" stroke="currentColor" stroke-linecap="round" stroke-linejoin="round" d="M17.5 16a1.5 1.5 0 1 0 3 0 1.5 1.5 0 1 0-3 0m-14 0a1.5 1.5 0 1 0 3 0 1.5 1.5 0 1 0-3 0m6.5 4.5V18m2 2.5V18m2 2.5V18m6-5.5a15.4 15.4 0 0 0-8-2 15.4 15.4 0 0 0-8 2"/></svg>
