<svg xmlns="http://www.w3.org/2000/svg" viewBox="0 0 24 24"><path fill="none" stroke="currentColor" stroke-linecap="round" stroke-linejoin="round" d="M.687 6.359H11.9v11.213H.687Z"/><path fill="none" stroke="currentColor" stroke-linecap="round" stroke-linejoin="round" d="M.687 6.361C1.917 4.114 4.479 1.217 7.9.5h9.36a15.3 15.3 0 0 0-5.36 5.859m2.683.776a4.41 4.41 0 0 0 3.537 2.539h3.154a2.04 2.04 0 0 0 1.934-2.684A10.63 10.63 0 0 0 17.444.5h-.184M.687 17.572c1.23 2.247 3.792 5.211 7.213 5.928h9.36a15.75 15.75 0 0 1-5.36-5.928"/><path fill="none" stroke="currentColor" stroke-linecap="round" stroke-linejoin="round" d="M18.009 20.945c-1.422-.71-3.426-3.373-3.426-3.373V6.359a13.2 13.2 0 0 1 3.426-3.372"/><path fill="none" stroke="currentColor" stroke-linecap="round" stroke-linejoin="round" d="M14.655 16.813a4.25 4.25 0 0 1 3.465-2.487h3.154a2.04 2.04 0 0 1 1.934 2.684 10.63 10.63 0 0 1-5.764 6.49h-.184"/></svg>
