<svg xmlns="http://www.w3.org/2000/svg" viewBox="0 0 24 24"><path fill="none" stroke="currentColor" stroke-linecap="round" stroke-linejoin="round" d="M.5 12a5.951 5.951 0 1 0 11.902 0A5.951 5.951 0 1 0 .5 12"/><path fill="none" stroke="currentColor" stroke-linecap="round" stroke-linejoin="round" d="M10.153 12a3.7 3.7 0 1 1-3.7-3.7"/><path fill="none" stroke="currentColor" stroke-linecap="round" stroke-linejoin="round" d="M6.451 10.549A1.452 1.452 0 1 1 5 12m6.279 3.481a12.2 12.2 0 0 0 1.907 3.944 11.44 11.44 0 0 0 4.424 3.5h-9.1a11.85 11.85 0 0 1-5.929-6.409m.028-9.06a12.3 12.3 0 0 1 5.9-6.382h9.1a11.45 11.45 0 0 0-6.362 7.4"/><path fill="none" stroke="currentColor" stroke-linecap="round" stroke-linejoin="round" d="M13.682 4.575a12.9 12.9 0 0 1 2.348 3.4A2.97 2.97 0 0 0 18.85 10h2.666A1.985 1.985 0 0 0 23.4 7.389a10.35 10.35 0 0 0-5.609-6.315h-.181m0 21.852h.179a10.35 10.35 0 0 0 5.611-6.315A1.984 1.984 0 0 0 21.516 14H18.85a2.975 2.975 0 0 0-2.82 2.025 12.9 12.9 0 0 1-2.348 3.4m-1.455-8.864h1.034a1 1 0 0 1 1 1v.878a1 1 0 0 1-1 1h-1.034"/></svg>
