<svg xmlns="http://www.w3.org/2000/svg" fill="none" viewBox="0 0 24 24"><path stroke="currentColor" stroke-linecap="round" stroke-linejoin="round" d="M7.7 8a1.746 1.746 0 0 0-2.4 0m4.8-2.306a5.24 5.24 0 0 0-7.2 0"/><path stroke="currentColor" stroke-linecap="round" stroke-linejoin="round" d="M10.1 5.694a5.24 5.24 0 0 0-7.2 0m9.6-2.306a8.73 8.73 0 0 0-12 0"/><path stroke="currentColor" stroke-linecap="round" stroke-linejoin="round" d="M12.5 3.388a8.73 8.73 0 0 0-12 0M7.25 11H5a1 1 0 0 0-1 1v8a1 1 0 0 0 1 1h2.25a1 1 0 0 0 1-1v-8a1 1 0 0 0-1-1M4 12H.5m7.75 8h2.532l1 1.2a5 5 0 0 0 3.84 1.8h2.159a2 2 0 0 0 2-2H21.5a2 2 0 0 0 1.983-2.262l-.818-6.183A3 3 0 0 0 19.7 10h-4.09a5 5 0 0 0-2.481.659L10.782 12H8.25m11.532 9H16.5m-16-1H4m0-6.5h4.25M4 18.5h4.25"/></svg>
