<svg xmlns="http://www.w3.org/2000/svg" viewBox="0 0 24 24"><path fill="none" stroke="currentColor" stroke-linecap="round" stroke-linejoin="round" d="M4.215 5.106 5.353.838h6.794l1.138 4.269m-9.07 13.786 1.138 4.269h6.794l1.17-4.291m5.989-3.271a5.24 5.24 0 0 0 0-7.2"/><path fill="none" stroke="currentColor" stroke-linecap="round" stroke-linejoin="round" d="M19.306 15.6a5.24 5.24 0 0 0 0-7.2"/><path fill="none" stroke="currentColor" stroke-linecap="round" stroke-linejoin="round" d="M21.112 18a8.73 8.73 0 0 0 0-12"/><path fill="none" stroke="currentColor" stroke-linecap="round" stroke-linejoin="round" d="M21.112 18a8.73 8.73 0 0 0 0-12M.5 12A8.25 8.25 0 1 0 17 12 8.25 8.25 0 1 0 .5 12"/><path fill="none" stroke="currentColor" stroke-linecap="round" stroke-linejoin="round" d="M14.073 12A5.323 5.323 0 1 1 8.75 6.677"/><path fill="none" stroke="currentColor" stroke-linecap="round" stroke-linejoin="round" d="M8.75 9.871A2.129 2.129 0 1 1 6.621 12"/></svg>
