<svg xmlns="http://www.w3.org/2000/svg" fill="none" viewBox="0 0 24 24"><path stroke="currentColor" stroke-linecap="round" stroke-linejoin="round" stroke-miterlimit="10" d="M.95 19.6a.2.2 0 0 1 0-.4m0 .4a.2.2 0 0 0 0-.4m4.42.4a.2.2 0 0 1 0-.4m0 .4a.2.2 0 0 0 0-.4m4.42.4a.2.2 0 0 1 0-.4m0 .4a.2.2 0 0 0 0-.4m4.42.4a.2.2 0 0 1 0-.4m0 .4a.2.2 0 0 0 0-.4m4.42.4a.2.2 0 0 1 0-.4m0 .4a.2.2 0 0 0 0-.4m4.42.4a.2.2 0 0 1 0-.4m0 .4a.2.2 0 0 0 0-.4"/><path stroke="currentColor" stroke-linecap="round" stroke-linejoin="round" d="M10.164 8.106v3.57h2.758a1.785 1.785 0 0 0 0-3.57zm0 3.57v4.218h3.082a2.109 2.109 0 1 0 0-4.218zM23.15 9.404a1.95 1.95 0 0 0-1.836-1.298h-1.298a1.947 1.947 0 0 0-1.947 1.947v3.894c0 1.075.872 1.947 1.947 1.947h1.298c.848 0 1.569-.542 1.836-1.298M.96 15.894l2.39-7.172a.9.9 0 0 1 .854-.616v0a.9.9 0 0 1 .855.616l2.39 7.172m-5.624-2.596h4.759"/></svg>
