<svg xmlns="http://www.w3.org/2000/svg" fill="none" viewBox="0 0 24 24"><path stroke="currentColor" stroke-linecap="round" stroke-linejoin="round" d="M9 16.5H1.5a1 1 0 0 1-1-1v-3.031a.5.5 0 0 1 .437-.5 3.5 3.5 0 0 0 0-6.946.5.5 0 0 1-.437-.5V1.5a1 1 0 0 1 1-1h21a1 1 0 0 1 1 1v3.031a.5.5 0 0 1-.437.5 3.5 3.5 0 0 0-3.025 3.991"/><path stroke="currentColor" stroke-linecap="round" stroke-linejoin="round" d="M17.5 23.5a6 6 0 1 0 0-12 6 6 0 0 0 0 12m0-9v6m3-3h-6"/><path stroke="currentColor" d="M16 3.25a.25.25 0 1 1 0-.5m0 .5a.25.25 0 1 0 0-.5m0 3.5a.25.25 0 1 1 0-.5m0 .5a.25.25 0 1 0 0-.5m0 3.5a.25.25 0 1 1 0-.5m0 .5a.25.25 0 1 0 0-.5"/></svg>
