<svg xmlns="http://www.w3.org/2000/svg" fill="none" viewBox="0 0 24 24"><path stroke="currentColor" stroke-linecap="round" stroke-linejoin="round" d="m14.739 7.14-6.364 6.364m6.717-2.476-2.828 2.828m7.425-6.01L16.153 4.31a2 2 0 0 0-2.828 0l-7.778 7.78a2 2 0 0 0 0 2.828l3.535 3.536a2 2 0 0 0 2.829 0l7.778-7.779a2 2 0 0 0 0-2.828"/><path stroke="currentColor" stroke-linecap="round" stroke-linejoin="round" d="M23.4 10.6a3 3 0 0 1 0-3.593.5.5 0 0 0-.047-.653L17.646.647A.5.5 0 0 0 16.993.6 3 3 0 0 1 13.4.6a.5.5 0 0 0-.653.047L.5 12.893a1 1 0 0 1 0 1.415L9.692 23.5a1 1 0 0 1 1.415 0l12.246-12.247a.5.5 0 0 0 .047-.653"/></svg>
