<svg xmlns="http://www.w3.org/2000/svg" viewBox="0 0 24 24"><path fill="none" stroke="currentColor" stroke-linecap="round" stroke-linejoin="round" d="M5 16.501a7 7 0 1 0 14 0 7 7 0 1 0-14 0"/><path fill="none" stroke="currentColor" stroke-linecap="round" stroke-linejoin="round" d="M18.55 14.027A5 5 0 0 0 21.057 9.6a7.05 7.05 0 0 0-2.1-4.9 2.42 2.42 0 0 1-2.8 2.1 5.31 5.31 0 0 1-1.4-6.3c-4.375 0-7.175 2.581-7.7 6.3a2.574 2.574 0 0 1-2.8-2.1C1.16 7.334 1 12.662 5.251 14.637"/><path fill="none" stroke="currentColor" stroke-linecap="round" stroke-linejoin="round" d="M15.5 16.501H12v-4.5"/></svg>
