<svg xmlns="http://www.w3.org/2000/svg" viewBox="0 0 24 24"><path fill="none" stroke="currentColor" stroke-linecap="round" stroke-linejoin="round" d="M4.683 10.853a.5.5 0 0 1 .478-.353h13.678a.5.5 0 0 1 .478.353l3.095 10.059A2 2 0 0 1 20.5 23.5h-17a2 2 0 0 1-1.912-2.588ZM8 10.5V7.249m8 3.251V7.249"/><path fill="none" stroke="currentColor" stroke-linecap="round" stroke-linejoin="round" d="M7.5 17a4.5 4.5 0 1 0 9 0 4.5 4.5 0 1 0-9 0M2.3.5a.5.5 0 0 0-.462.691A10.99 10.99 0 0 0 12 8a11 11 0 0 0 10.164-6.809A.5.5 0 0 0 21.7.5ZM12 17v-2.5"/></svg>
