<svg xmlns="http://www.w3.org/2000/svg" viewBox="0 0 24 24"><path fill="none" stroke="currentColor" stroke-linecap="round" stroke-linejoin="round" d="M23.5 7.5a4 4 0 0 0-4-4h-15a4 4 0 0 0-4 4v2h23z"/><path fill="none" stroke="currentColor" stroke-linecap="round" stroke-linejoin="round" d="M9.5 3.5c-3 0-3 4-3 4v2m8-6c3 0 3 4 3 4v2m6 0H.5v9a2 2 0 0 0 2 2h19a2 2 0 0 0 2-2Z"/><path fill="none" stroke="currentColor" stroke-linecap="round" stroke-linejoin="round" d="M.5 11.5h9a.5.5 0 0 1 .5.5v.5a2 2 0 0 0 2 2h0a2 2 0 0 0 2-2V12a.5.5 0 0 1 .5-.5h9m-11.496 0v1m-5.5-1v9m11-9v9"/></svg>
