<svg xmlns="http://www.w3.org/2000/svg" viewBox="0 0 24 24"><path fill="none" stroke="currentColor" stroke-linecap="round" stroke-linejoin="round" d="m15.113 14-1.895 8.529a1.247 1.247 0 0 1-2.434 0L8.889 14"/><path fill="none" stroke="currentColor" stroke-linecap="round" stroke-linejoin="round" d="M19.5 11.5a11.8 11.8 0 0 1-7.243 3h-.516a11.8 11.8 0 0 1-7.243-3ZM8.649 9.683A4 4 0 0 1 8 7.5a7.3 7.3 0 0 1 5.5-7 3.99 3.99 0 0 0-1 5 2.3 2.3 0 0 0 1-1.5A3.65 3.65 0 0 1 16 7.5a4 4 0 0 1-.623 2.145m-3.376-1.644v1.5"/></svg>
