<svg xmlns="http://www.w3.org/2000/svg" viewBox="0 0 24 24"><path fill="none" stroke="currentColor" stroke-linecap="round" stroke-linejoin="round" d="m8 .5-7 23m19.49-8.246L23 23.5m-11-4v4m0-9v2m0-16v2m4.09 0a5.09 5.09 0 0 1 5.088 5.088c0 2.333-3.506 6.93-4.7 8.425a.5.5 0 0 1-.783 0c-1.192-1.5-4.7-6.092-4.7-8.425A5.09 5.09 0 0 1 16.09 2.5"/><path fill="none" stroke="currentColor" stroke-linecap="round" stroke-linejoin="round" d="M18 7.588a1.909 1.909 0 1 1-1.91-1.908A1.91 1.91 0 0 1 18 7.588"/></svg>
