<svg xmlns="http://www.w3.org/2000/svg" viewBox="0 0 24 24"><path fill="none" stroke="currentColor" stroke-linecap="round" stroke-linejoin="round" d="M12.502 22.14v1.339m4.915-11.168c-.444 2.643-4.915 7.148-4.915 9.829 0-2.681-4.352-6.754-4.914-9.829a4.708 4.708 0 0 1 4.912-5.79 4.706 4.706 0 0 1 4.917 5.79"/><path fill="none" stroke="currentColor" stroke-linecap="round" stroke-linejoin="round" d="M14.752 11.215a2.25 2.25 0 1 1-2.25-2.25 2.25 2.25 0 0 1 2.25 2.25m3.75 4.925v1.339M13.658 6.625a5 5 0 0 1-.07-.314A4.708 4.708 0 0 1 18.5.521a4.706 4.706 0 0 1 4.915 5.79c-.442 2.643-4.915 7.148-4.915 9.829a6.9 6.9 0 0 0-1.244-3.216"/><path fill="none" stroke="currentColor" stroke-linecap="round" stroke-linejoin="round" d="M20.752 5.215a2.25 2.25 0 1 1-2.25-2.25 2.25 2.25 0 0 1 2.25 2.25M5.508 16.14v1.339m1.998-5.812c-1.069 1.652-2 3.235-2 4.473 0-2.681-4.352-6.754-4.914-9.829A4.708 4.708 0 0 1 5.508.521a4.705 4.705 0 0 1 4.914 5.79 4 4 0 0 1-.171.643"/><path fill="none" stroke="currentColor" stroke-linecap="round" stroke-linejoin="round" d="M7.758 5.215a2.25 2.25 0 1 1-2.25-2.25 2.25 2.25 0 0 1 2.25 2.25"/></svg>
