<svg xmlns="http://www.w3.org/2000/svg" viewBox="0 0 24 24"><path fill="none" stroke="currentColor" stroke-linecap="round" stroke-linejoin="round" d="M6.227 18.5h9.548m3.45 0H22.5a1 1 0 0 0 1-1v-5a4.2 4.2 0 0 0-.447-1.894L21 6.5a3.62 3.62 0 0 0-3.236-2H2.5a2 2 0 0 0-2 2v11a1 1 0 0 0 1 1h1.275"/><path fill="none" stroke="currentColor" stroke-linecap="round" stroke-linejoin="round" d="M15.5 17.5a2 2 0 1 0 4 0 2 2 0 1 0-4 0m-13 0a2 2 0 1 0 4 0 2 2 0 1 0-4 0M21 6.5H.5m23 9.5L21 13.817a5.32 5.32 0 0 0-3.5-1.317H.5m4-4h-2m2 2h-2m4-4v3a1 1 0 0 0 1 1H23m-11.5 0v-4m6 4v-4"/></svg>
