<svg xmlns="http://www.w3.org/2000/svg" viewBox="0 0 24 24"><path fill="none" stroke="currentColor" stroke-linecap="round" stroke-linejoin="round" d="M16.5 20.5a2 2 0 1 0 4 0 2 2 0 1 0-4 0m-11 0h-5m5 0a2 2 0 1 0 4 0 2 2 0 1 0-4 0m11 0h-7m14 0h-3"/><path fill="none" stroke="currentColor" stroke-linecap="round" stroke-linejoin="round" d="M11.5 20.5v-16h1a6 6 0 0 1 6 6v4h1.307a2 2 0 0 1 1.973 1.67l.72 4.3m-11-3.97H2a.5.5 0 0 0-.5.5v3.5m8-4v-13a2 2 0 0 0-2-2H7m11.158 7H11.5"/><path fill="none" stroke="currentColor" stroke-linecap="round" stroke-linejoin="round" d="M18.5 14.5h-2.616a.5.5 0 0 1-.483-.371L13.9 8.5"/></svg>
