<svg xmlns="http://www.w3.org/2000/svg" viewBox="0 0 24 24"><path fill="none" stroke="currentColor" stroke-linecap="round" stroke-linejoin="round" d="M2 5.741v9.923a1.5 1.5 0 0 0 1.5 1.5h.063M10 6.127v11.037H7.437m2.563 0h7.5l3.5-3.5-2.544-7.124M21 6.664l-20.5-1m15.865.774.911-1.827c.123-.246.325-.246.448 0l.965 1.94"/><path fill="none" stroke="currentColor" stroke-linecap="round" stroke-linejoin="round" d="m19.684 9.98-1.977 1.977A2.78 2.78 0 0 0 17 13.664v.5H6v-1a1 1 0 0 0-1-1H2m9.5-2.5 1.5 4.5m8-.5.179.071a3.69 3.69 0 0 1 2.321 3.429h-6m-14 .5a2 2 0 1 0 4 0 2 2 0 1 0-4 0m15-.5v.5a2 2 0 0 0 4 0v-.5"/></svg>
