<svg xmlns="http://www.w3.org/2000/svg" viewBox="0 0 24 24"><path fill="none" stroke="currentColor" stroke-linecap="round" stroke-linejoin="round" d="M1.515 12.75a3 3 0 1 0 6 0 3 3 0 1 0-6 0m14.683 7.477a3 3 0 1 0 6 0 3 3 0 1 0-6 0m-.866-16.454a3 3 0 1 0 6 0 3 3 0 1 0-6 0"/><path fill="none" stroke="currentColor" stroke-linecap="round" stroke-linejoin="round" d="M10.419 4.546a8.5 8.5 0 0 1 3.6-.8 8.6 8.6 0 0 1 1.321.1M5.8 10.055A8.5 8.5 0 0 1 8 6.24m1.141 12.976a8.54 8.54 0 0 1-3.059-3.911m10.139 5.156a8.5 8.5 0 0 1-4.406 0m10.67-7.473a8.54 8.54 0 0 1-1.858 4.605m-.604-11.359a8.5 8.5 0 0 1 2.2 3.816"/></svg>
