<svg xmlns="http://www.w3.org/2000/svg" viewBox="0 0 24 24"><path fill="none" stroke="currentColor" stroke-linecap="round" stroke-linejoin="round" d="M12.281 19.476a1 1 0 0 0-1.562 0L8.15 22.688a.5.5 0 0 0 .39.812h5.92a.5.5 0 0 0 .39-.812ZM.5 18.5h23M1.25 3.25a2.75 2.75 0 1 0 5.5 0 2.75 2.75 0 1 0-5.5 0M7.5 10.5a3.5 3.5 0 0 0-7 0v3h1.583l.417 5h3l.417-5H7.5Zm6 1a5 5 0 1 0 10 0 5 5 0 1 0-10 0m5 2v1m0-6v1"/><path fill="none" stroke="currentColor" stroke-linecap="round" stroke-linejoin="round" d="M16.5 13.5h3a1 1 0 0 0 0-2h-2a1 1 0 0 1 0-2h3"/></svg>
