<svg xmlns="http://www.w3.org/2000/svg" fill="none" viewBox="0 0 24 24"><path stroke="currentColor" stroke-linecap="round" stroke-linejoin="round" d="M15.346 23.5v-3h1a3 3 0 0 0 3-3v-3h2.813a.5.5 0 0 0 .473-.651C20.758 8.049 19.4 1.814 13.212.682A9.99 9.99 0 0 0 1.388 9.338a9.73 9.73 0 0 0 3.958 8.775V23.5"/><path stroke="currentColor" stroke-linecap="round" stroke-linejoin="round" d="M8.346 8a3 3 0 1 1 3.759 2.9.966.966 0 0 0-.76.92v1.68"/><path stroke="currentColor" d="M11.346 16a.25.25 0 0 1 0-.5m0 .5a.25.25 0 1 0 0-.5"/></svg>
