<svg xmlns="http://www.w3.org/2000/svg" viewBox="0 0 24 24"><path fill="none" stroke="currentColor" stroke-linecap="round" stroke-linejoin="round" d="M5.193 14.986H3.706a1 1 0 0 1-.987-.843l-.339-2.12H.488l1.419-4.134c.473-1.42 1.059-2.366 2.366-2.366s1.892.946 2.365 2.366l.488 1.463M2.258 2.523a2 2 0 1 0 4 0 2 2 0 1 0-4 0m16.549 12.463h1.487a1 1 0 0 0 .987-.843l.339-2.12h1.892l-1.419-4.134c-.473-1.42-1.059-2.366-2.366-2.366s-1.892.946-2.365 2.366l-.49 1.468m.87-6.834a2 2 0 1 0 4 0 2 2 0 1 0-4 0M8.99 18.477v-4.25m6 4.25v-4.25m-6 2.796h6m-3 6.454v-4.454m0-9.047v4m1.58 9.5a1 1 0 0 0 1-.917l.424-4.083h1a1 1 0 0 0 1-1v-2.5a5 5 0 1 0-10 0v2.5a1 1 0 0 0 1 1h1l.423 4.083a1 1 0 0 0 1 .917Zm-5.08-18.5a3.5 3.5 0 1 0 7 0 3.5 3.5 0 1 0-7 0"/><path fill="none" stroke="currentColor" stroke-linecap="round" stroke-linejoin="round" d="M8.888 3.355a5.98 5.98 0 0 0 4.1 1.621 6 6 0 0 0 2.46-.526"/></svg>
