<svg xmlns="http://www.w3.org/2000/svg" viewBox="0 0 24 24"><path fill="none" stroke="currentColor" stroke-linecap="round" stroke-linejoin="round" d="m17 7.02 3.108-3.086M19.5 2.5a2 2 0 1 0 4 0 2 2 0 1 0-4 0m-1.538 15.479 2.115 2.128M19.51 21.5a2 2 0 1 0 4 0 2 2 0 1 0-4 0M7 7.02 3.893 3.934M.5 2.5a2 2 0 1 0 4 0 2 2 0 1 0-4 0m5.539 15.479-2.116 2.128M.49 21.5a2 2 0 1 0 4 0 2 2 0 1 0-4 0m16.01-10h3m0 0a2 2 0 1 0 4 0 2 2 0 1 0-4 0m-12 0h-3m-4 0a2 2 0 1 0 4 0 2 2 0 1 0-4 0m7.01 5a4.5 4.5 0 0 1 9 0Zm1.75-8.25a2.75 2.75 0 1 0 5.5 0 2.75 2.75 0 1 0-5.5 0"/></svg>
