<svg xmlns="http://www.w3.org/2000/svg" viewBox="0 0 24 24"><path fill="none" stroke="currentColor" stroke-linecap="round" stroke-linejoin="round" d="M1.25 4.25h7M4.75.75v7m14.394-2.862L22.456 8.2a1 1 0 0 1 0 1.414l-3.233 3.233h0l-4.726-4.726h0l3.233-3.233a1 1 0 0 1 1.414 0"/><path fill="none" stroke="currentColor" stroke-linecap="round" stroke-linejoin="round" d="M19.225 12.846 14.5 8.119l-6.1 2.562a2.23 2.23 0 0 0-1.53 1.53L4.116 22.54a.558.558 0 0 0 .689.689l10.329-2.749a2.23 2.23 0 0 0 1.53-1.53ZM4.258 23.087l7.506-7.506"/></svg>
