<svg xmlns="http://www.w3.org/2000/svg" viewBox="0 0 24 24"><path fill="none" stroke="currentColor" stroke-linecap="round" stroke-linejoin="round" d="M.5 7.5a2.5 2.5 0 1 0 5 0 2.5 2.5 0 1 0-5 0m0 9a2.5 2.5 0 1 0 5 0 2.5 2.5 0 1 0-5 0m8-5V3a1 1 0 0 1 1-1h13a1 1 0 0 1 1 1v18a1 1 0 0 1-1 1h-13a1 1 0 0 1-1-1v-5"/><path fill="none" stroke="currentColor" stroke-linecap="round" stroke-linejoin="round" d="M20.5 2v8h-9V2m0 20v-4.5m2-3.5h7v8m-9-16h-3m3 4h-3m15-4h-3m3 4h-3m3 8h-3m3-4h-3M2.361 9.917l12.628 7.484M2.361 14.082 7 11.333"/></svg>
