<svg xmlns="http://www.w3.org/2000/svg" viewBox="0 0 24 24"><path fill="none" stroke="currentColor" stroke-linecap="round" stroke-linejoin="round" d="m18.206 11.93 1.539 3.57h2.995a.735.735 0 0 1 .517 1.283l-2.6 2.316 1.44 3.313a.785.785 0 0 1-1.117.982l-3.48-1.961-3.48 1.961a.785.785 0 0 1-1.117-.982l1.44-3.313-2.6-2.316a.734.734 0 0 1 .514-1.283h3l1.541-3.57a.8.8 0 0 1 1.408 0"/><path fill="none" stroke="currentColor" stroke-linecap="round" stroke-linejoin="round" d="M9.5 23.5h-8a1 1 0 0 1-1-1v-21a1 1 0 0 1 1-1h13.293a1 1 0 0 1 .707.293L19.207 4.5a1 1 0 0 1 .293.707V8.5"/><path fill="none" stroke="currentColor" stroke-linecap="round" stroke-linejoin="round" d="M7.636 8.214a.764.764 0 0 0-1.136.668v5.736a.764.764 0 0 0 1.136.668l4.971-3.059a.765.765 0 0 0 0-1.337Z"/></svg>
