<svg xmlns="http://www.w3.org/2000/svg" viewBox="0 0 24 24"><path fill="none" stroke="currentColor" stroke-linecap="round" stroke-linejoin="round" d="M20.5 23.5a1 1 0 0 0 1-1V6.475A5.975 5.975 0 0 0 15.525.5H3.5a1 1 0 0 0-1 1v21a1 1 0 0 0 1 1Z"/><path fill="none" stroke="currentColor" stroke-linecap="round" stroke-linejoin="round" d="M16.5.58V4.5a1 1 0 0 0 1 1h3.92M5.5 18.5v-6l1.5 3 1.5-3v6m4.987 0v-2m0 0v-3.99A5.5 5.5 0 0 0 10.5 16.5zm5.013-4V14a7.5 7.5 0 0 1-1.5 4.5 7.5 7.5 0 0 1-1.5-4.5v-1.5"/></svg>
