<svg xmlns="http://www.w3.org/2000/svg" viewBox="0 0 24 24"><g fill="none" stroke="currentColor" stroke-linecap="round" stroke-linejoin="round"><path d="M7.74 16.5a1 1 0 0 1 .89.55c.42.84 1.77 1.45 3.37 1.45s2.95-.61 3.36-1.45a1 1 0 0 1 .9-.55h4.24V5.17a1.67 1.67 0 0 0-1.67-1.67H5.17A1.67 1.67 0 0 0 3.5 5.17V16.5Z"/><path d="M16.26 16.5a1 1 0 0 0-.9.55C15 17.89 13.6 18.5 12 18.5s-2.95-.61-3.37-1.45a1 1 0 0 0-.89-.55H2a1 1 0 0 0-.85 1.5 5.28 5.28 0 0 0 4.47 2.5h12.76a5.28 5.28 0 0 0 4.47-2.5 1 1 0 0 0-.85-1.5ZM15 11.17a.71.71 0 0 0 0-1.34l-5-2.31a.36.36 0 0 0-.32 0 .38.38 0 0 0-.15.29v5.3a.38.38 0 0 0 .15.29.36.36 0 0 0 .32 0Z"/></g></svg>
