<svg xmlns="http://www.w3.org/2000/svg" fill="none" viewBox="0 0 24 24"><path stroke="currentColor" stroke-linecap="round" stroke-linejoin="round" d="M21.5 2.5h-19a2 2 0 0 0-2 2v15a2 2 0 0 0 2 2h19a2 2 0 0 0 2-2v-15a2 2 0 0 0-2-2m-21 4h23m-23 11h23"/><path stroke="currentColor" d="M3.76 4.75a.25.25 0 0 1 0-.5m0 .5a.25.25 0 0 0 0-.5m4.12.5a.25.25 0 0 1 0-.5m0 .5a.25.25 0 1 0 0-.5m4.12.5a.25.25 0 1 1 0-.5m0 .5a.25.25 0 1 0 0-.5m4.12.5a.25.25 0 1 1 0-.5m0 .5a.25.25 0 1 0 0-.5m4.12.5a.25.25 0 1 1 0-.5m0 .5a.25.25 0 1 0 0-.5M3.76 19.75a.25.25 0 1 1 0-.5m0 .5a.25.25 0 1 0 0-.5m4.12.5a.25.25 0 1 1 0-.5m0 .5a.25.25 0 1 0 0-.5m4.12.5a.25.25 0 1 1 0-.5m0 .5a.25.25 0 1 0 0-.5m4.12.5a.25.25 0 1 1 0-.5m0 .5a.25.25 0 1 0 0-.5m4.12.5a.25.25 0 1 1 0-.5m0 .5a.25.25 0 1 0 0-.5"/><path stroke="currentColor" stroke-linecap="round" stroke-linejoin="round" d="M15 12.67a.71.71 0 0 0 0-1.34L10 9a.36.36 0 0 0-.32 0 .38.38 0 0 0-.15.29v5.3a.38.38 0 0 0 .15.29.36.36 0 0 0 .32.12z"/></svg>
