<svg xmlns="http://www.w3.org/2000/svg" viewBox="0 0 24 24"><path fill="none" stroke="currentColor" stroke-linecap="round" stroke-linejoin="round" d="M15.75 12.5v-11a1 1 0 0 0-1-1h-13a1 1 0 0 0-1 1v18a1 1 0 0 0 1 1h9.5"/><path fill="none" stroke="currentColor" stroke-linecap="round" stroke-linejoin="round" d="M12.75.5v8h-9v-8m0 4h-3m3 4h-3m15-4h-3m3 4h-3m-9 12v-8h9V17m-9-4.5h-3m3 4h-3m15-4h-3m4.235 11 5.647-10.588a1 1 0 0 0-.412-1.353l-1.764-.941a1 1 0 0 0-1.353.412L12.452 23.5m8.298-7.059-3.53-1.882M19.75 6.5v2m1-1h-2m3-6.5v3m1.5-1.5h-3"/></svg>
