<svg xmlns="http://www.w3.org/2000/svg" fill="none" viewBox="0 0 24 24"><path stroke="currentColor" stroke-linecap="round" stroke-linejoin="round" d="M20.75 12S17.63 7 12 7s-8.75 5-8.75 5 3.12 5 8.75 5 8.75-5 8.75-5"/><path stroke="currentColor" stroke-linecap="round" stroke-linejoin="round" d="M12 14.75a2.75 2.75 0 1 0 0-5.5 2.75 2.75 0 0 0 0 5.5"/><path stroke="currentColor" stroke-linecap="round" stroke-linejoin="round" d="M21.5.5h-19a2 2 0 0 0-2 2v19a2 2 0 0 0 2 2h19a2 2 0 0 0 2-2v-19a2 2 0 0 0-2-2"/><path stroke="currentColor" d="M12 12.25a.25.25 0 1 1 0-.5m0 .5a.25.25 0 1 0 0-.5"/></svg>
