<svg xmlns="http://www.w3.org/2000/svg" fill="none" viewBox="0 0 24 24"><path stroke="currentColor" stroke-linecap="round" stroke-linejoin="round" d="M21.5 4h1a1 1 0 0 1 1 1v17a1 1 0 0 1-1 1h-21a1 1 0 0 1-1-1V5a1 1 0 0 1 1-1h16"/><path stroke="currentColor" stroke-linecap="round" stroke-linejoin="round" d="M12.5 20.574a7.5 7.5 0 1 1 4.6-9.515"/><path stroke="currentColor" stroke-linecap="round" stroke-linejoin="round" d="M10 16a2.5 2.5 0 1 0 0-5 2.5 2.5 0 0 0 0 5m9.5-10v6.5l-2.766 3.313M19.5 1a2 2 0 0 0-2 2v2a1 1 0 0 0 1 1h2a1 1 0 0 0 1-1V3a2 2 0 0 0-2-2M15 15.51a1 1 0 0 1 1.414 0l.592.592a1 1 0 0 1 0 1.414l-.66.66a1.445 1.445 0 0 1-2.244.3 1.506 1.506 0 0 1 .187-2.252z"/><path stroke="currentColor" d="M10 13.75a.25.25 0 1 1 0-.5m0 .5a.25.25 0 1 0 0-.5"/></svg>
