<svg xmlns="http://www.w3.org/2000/svg" viewBox="0 0 24 24"><path fill="none" stroke="currentColor" stroke-linecap="round" stroke-linejoin="round" d="M.5 6.333a1.5 1.5 0 1 0 3 0 1.5 1.5 0 1 0-3 0m20 .084a1.5 1.5 0 1 0 3 0 1.5 1.5 0 1 0-3 0M4 22h16"/><path fill="none" stroke="currentColor" stroke-linecap="round" stroke-linejoin="round" d="M4 19 1.953 7.828S3 13 7 13s5-7 5-7 1 7 5 7 5.047-5.093 5.047-5.093L20 19Z"/><path fill="none" stroke="currentColor" stroke-linecap="round" stroke-linejoin="round" d="M10 4a2 2 0 1 0 4 0 2 2 0 1 0-4 0"/></svg>
