<svg xmlns="http://www.w3.org/2000/svg" viewBox="0 0 24 24"><path fill="none" stroke="currentColor" stroke-linecap="round" stroke-linejoin="round" d="m22.93 21.88-2.15-6.08a1.2 1.2 0 0 0-1.13-.8h-1.79l.48 1.48a1 1 0 0 1-.25 1c-.73.73-2.51 2-6.09 2s-5.36-1.28-6.09-2a1 1 0 0 1-.25-1L6.14 15H4.35a1.2 1.2 0 0 0-1.13.8l-2.15 6.08A1.23 1.23 0 0 0 1.23 23a1.2 1.2 0 0 0 1 .51h19.55a1.2 1.2 0 0 0 1-.51 1.23 1.23 0 0 0 .15-1.12M14.34 3.94l-.71-2.25a1.71 1.71 0 0 0-3.26 0l-.71 2.25A5.2 5.2 0 0 0 12 4.5a5.2 5.2 0 0 0 2.34-.56m1.25 3.92a6.22 6.22 0 0 1-7.18 0L6.9 12.6A9.3 9.3 0 0 0 12 14a9.3 9.3 0 0 0 5.1-1.4ZM6.14 15 9.66 3.94M17.86 15 14.34 3.94"/></svg>
