<svg xmlns="http://www.w3.org/2000/svg" viewBox="0 0 24 24"><g fill="none" stroke="currentColor" stroke-linecap="round" stroke-linejoin="round"><path d="M.5 12a11.5 11.5 0 1 0 23 0 11.5 11.5 0 1 0-23 0"/><path d="M20.8 19.4A11.56 11.56 0 0 0 12 12M1.13 15.76A11.39 11.39 0 0 0 12 12M13.93.66A11.41 11.41 0 0 0 12 12"/><path d="M4.79 15.88A11.5 11.5 0 0 1 3.53 4.23m5.1 10.44A11.51 11.51 0 0 1 8.94.91m3.14 2.87a11.49 11.49 0 0 1 10.73 4.3m-11.53-.31a11.55 11.55 0 0 1 12 6.52M19 16.16a11.5 11.5 0 0 1-9.33 7.1m6.27-9.77A11.51 11.51 0 0 1 4.1 20.36"/></g></svg>
