<svg xmlns="http://www.w3.org/2000/svg" fill="none" viewBox="0 0 24 24"><path stroke="currentColor" stroke-linecap="round" stroke-linejoin="round" d="M12.5 14.543V1.957a1 1 0 0 0-1.707-.707L5.5 6.543H2a1.5 1.5 0 0 0-1.5 1.5v3a1.5 1.5 0 0 0 1.5 1.5h3.5l5 5m7 0v-3m.838-2.997a.95.95 0 0 0-1.676 0l-5.056 9.635a.923.923 0 0 0 .376 1.243c.141.078.3.12.462.119h10.112a.95.95 0 0 0 .807-.448.92.92 0 0 0 .031-.914zM15.5 9.543a3 3 0 0 0-3-3"/><path stroke="currentColor" stroke-linecap="round" stroke-linejoin="round" d="M12.5 12.543a3 3 0 0 0 1.264-.278"/><path stroke="currentColor" d="M17.5 20.043a.25.25 0 0 1 0-.5m0 .5a.25.25 0 0 0 0-.5"/></svg>
