<svg xmlns="http://www.w3.org/2000/svg" fill="none" viewBox="0 0 24 24"><path stroke="currentColor" stroke-linecap="round" stroke-linejoin="round" d="M12.608 22.803a1.67 1.67 0 0 1-1.216 0A16.21 16.21 0 0 1 1.023 7.702v-4.93c0-.931.759-1.69 1.69-1.69h18.574c.93 0 1.69.759 1.69 1.69v4.93a16.2 16.2 0 0 1-10.369 15.096z"/><path stroke="currentColor" stroke-linecap="round" stroke-linejoin="round" stroke-miterlimit="10" d="M7.903 11.82c2.341-2.34 6.048-2.34 8.194 0M5.646 8.68c3.44-3.44 9.12-3.44 12.709 0"/><path stroke="currentColor" stroke-linecap="round" stroke-linejoin="round" d="M10.726 15.245a1.273 1.273 0 1 0 2.546 0 1.273 1.273 0 1 0-2.546 0"/></svg>
