<svg xmlns="http://www.w3.org/2000/svg" fill="none" viewBox="0 0 24 24"><path stroke="currentColor" stroke-linecap="round" stroke-linejoin="round" stroke-miterlimit="10" d="M12 23.25c6.213 0 11.25-5.037 11.25-11.25S18.213.75 12 .75.75 5.787.75 12 5.787 23.25 12 23.25"/><path stroke="currentColor" stroke-linecap="round" stroke-linejoin="round" d="M16.75 15.375v-6.75l3.375 6.75v-6.75m-9.25 6.75v-2.812m0 0V8.625h1.406c1.088 0 1.969.881 1.969 1.969v0a1.97 1.97 0 0 1-1.969 1.969zm-2.5-3.938-1.551 6.204a.72.72 0 0 1-.699.546v0a.72.72 0 0 1-.699-.546L3.875 8.625"/></svg>
