<svg xmlns="http://www.w3.org/2000/svg" fill="none" viewBox="0 0 24 24"><path stroke="currentColor" stroke-linecap="round" stroke-linejoin="round" d="M17.5 8.5h-9a1 1 0 0 0-1 1v13a1 1 0 0 0 1 1h9a1 1 0 0 0 1-1v-13a1 1 0 0 0-1-1m-12 7a1 1 0 0 0 1 1h1v-6h-1a1 1 0 0 0-1 1zm0-2h2m2 8h7"/><path stroke="currentColor" stroke-linecap="round" stroke-linejoin="round" d="M16 10.5h-6a.5.5 0 0 0-.5.5v8a.5.5 0 0 0 .5.5h6a.5.5 0 0 0 .5-.5v-8a.5.5 0 0 0-.5-.5"/><path stroke="currentColor" d="M13.5 13.75a.25.25 0 1 1 0-.5m0 .5a.25.25 0 1 0 0-.5"/><path stroke="currentColor" stroke-linecap="round" stroke-linejoin="round" d="M23.5 15v-3a11.5 11.5 0 1 0-23 0v3"/><path stroke="currentColor" stroke-linecap="round" stroke-linejoin="round" d="M23.5 14a1.5 1.5 0 1 0-3 0v2a1.5 1.5 0 1 0 3 0zm-20 0a1.5 1.5 0 0 0-3 0v2a1.5 1.5 0 0 0 3 0z"/><path stroke="currentColor" d="M13.5 16.75a.25.25 0 1 1 0-.5m0 .5a.25.25 0 1 0 0-.5"/></svg>
