<svg xmlns="http://www.w3.org/2000/svg" viewBox="0 0 24 24"><path fill="none" stroke="currentColor" stroke-linecap="round" stroke-linejoin="round" d="M2 21.5a2 2 0 1 0 4 0 2 2 0 1 0-4 0m10 0a2 2 0 1 0 4 0 2 2 0 1 0-4 0M23.5.5h-2.37a2 2 0 0 0-1.959 1.6l-2.842 13.8a2 2 0 0 1-1.959 1.6H.5"/><path fill="none" stroke="currentColor" stroke-linecap="round" stroke-linejoin="round" d="M6 7.5V13l2-1.5 2 1.5V7.5"/><path fill="none" stroke="currentColor" stroke-linecap="round" stroke-linejoin="round" d="M14 8.5a1 1 0 0 0-1-1H3a1 1 0 0 0-1 1v9h12Zm-9.5-1v-5a1 1 0 0 1 1-1h5a1 1 0 0 1 1 1v5h0z"/></svg>
