<svg xmlns="http://www.w3.org/2000/svg" viewBox="0 0 24 24"><g fill="none" stroke="currentColor" stroke-linecap="round" stroke-linejoin="round"><path d="M12 .5A16.58 16.58 0 0 0 .67 4.84a.5.5 0 0 0-.17.38V7a.5.5 0 0 0 .5.5h22a.5.5 0 0 0 .5-.5V5.22a.5.5 0 0 0-.17-.38A16.58 16.58 0 0 0 12 .5m-10.5 7V22m21-14.5V22m-17-4.5H12v6h0-6.5A.5.5 0 0 1 5 23v-5a.5.5 0 0 1 .5-.5m6.5 0h6.5a.5.5 0 0 1 .5.5v5a.5.5 0 0 1-.5.5H12h0zm-3-6h6a.5.5 0 0 1 .5.5v5.5h0-7 0V12a.5.5 0 0 1 .5-.5"/><path d="M10.5 11.5h3V14a.5.5 0 0 1-.5.5h-2a.5.5 0 0 1-.5-.5zm-3.5 6h3V20a.5.5 0 0 1-.5.5h-2A.5.5 0 0 1 7 20zm7 0h3V20a.5.5 0 0 1-.5.5h-2a.5.5 0 0 1-.5-.5zm-3.75-13h3.5"/></g></svg>
