<svg xmlns="http://www.w3.org/2000/svg" viewBox="0 0 24 24"><path fill="none" stroke="currentColor" stroke-linecap="round" stroke-linejoin="round" d="M14.5 21.5a1.5 1.5 0 1 0 3 0 1.5 1.5 0 1 0-3 0m-11 0a1.5 1.5 0 1 0 3 0 1.5 1.5 0 1 0-3 0M23.5 1h-.611a1 1 0 0 0-.993.883L20.1 17.117a1 1 0 0 1-.993.883H.5"/><path fill="none" stroke="currentColor" stroke-linecap="round" stroke-linejoin="round" d="M10.5 12h-8a1 1 0 0 0-1 1v2a1 1 0 0 0 1 1h8Zm-2-2a1 1 0 0 0-1-1h-4a1 1 0 0 0-1 1v2h6Zm9-4a1 1 0 0 0-1-1h-5a1 1 0 0 0-1 1v10h6a1 1 0 0 0 1-1Z"/></svg>
