<svg xmlns="http://www.w3.org/2000/svg" viewBox="0 0 24 24"><path fill="none" stroke="currentColor" stroke-linecap="round" stroke-linejoin="round" d="M16.749 14.089h1.721a1.291 1.291 0 0 1 0 2.582h-1.721"/><path fill="none" stroke="currentColor" stroke-linecap="round" stroke-linejoin="round" d="M11.586 16.671h5.163a1.291 1.291 0 1 1 0 2.581h-2.581"/><path fill="none" stroke="currentColor" stroke-linecap="round" stroke-linejoin="round" d="M10.3 19.252h3.872a1.291 1.291 0 0 1 0 2.582h-8.6a4.3 4.3 0 0 1-4.3-4.3v-2.872a4.31 4.31 0 0 1 2-3.634c2.32-1.482 6.163-3.321 6.163-3.321a1.033 1.033 0 0 1 1.377 1.516l-2.667 2.285h8.6a1.291 1.291 0 1 1 0 2.581h-5.159m6.635 2.577h2.819a1.291 1.291 0 0 1 0 2.582h-2.582"/><path fill="none" stroke="currentColor" stroke-linecap="round" stroke-linejoin="round" d="M15.64 19.248h2.818a1.291 1.291 0 1 1 0 2.581h-8.2m11.924-7.452a3.043 3.043 0 0 0-2.433-4.8 3.044 3.044 0 0 0-2.99-2.488c-.062 0-.12.015-.181.019a4.5 4.5 0 0 0-7.36-1.68"/><path fill="none" stroke="currentColor" stroke-linecap="round" stroke-linejoin="round" d="M14.944 7.985a4.5 4.5 0 0 0-1.6-1.04M2.761 5.166a1.5 1.5 0 1 0 3 0 1.5 1.5 0 1 0-3 0m16-1.75a1.25 1.25 0 1 0 2.5 0 1.25 1.25 0 1 0-2.5 0"/></svg>
