<svg xmlns="http://www.w3.org/2000/svg" fill="none" viewBox="0 0 24 24"><path stroke="currentColor" stroke-linecap="round" stroke-linejoin="round" d="M2.5 17.5V9a8.5 8.5 0 1 1 17 0 .5.5 0 0 1-.5.5h-2.24a.26.26 0 0 1-.26-.26 5.65 5.65 0 0 0-5-5.71A5.49 5.49 0 0 0 5.5 9v8.5m5.71-.62a1.57 1.57 0 0 0-.82-.84 1.53 1.53 0 0 0-1.17 0l-5 2a1.533 1.533 0 0 0 1.13 2.85l5-2a1.55 1.55 0 0 0 .86-2.01"/><path stroke="currentColor" stroke-linecap="round" stroke-linejoin="round" d="M6.5 20.38V23a.5.5 0 0 1-.5.5H2a.5.5 0 0 1-.5-.5v-5a.5.5 0 0 1 .5-.5h3.5"/><path stroke="currentColor" d="M15.75 13a.25.25 0 1 1 0-.5m0 .5a.25.25 0 1 0 0-.5m-.5 3.5a.25.25 0 1 1 0-.5m0 .5a.25.25 0 1 0 0-.5m-.5 3.5a.25.25 0 1 1 0-.5m0 .5a.25.25 0 1 0 0-.5m-.5 3.5a.25.25 0 1 1 0-.5m0 .5a.25.25 0 1 0 0-.5m4 .5a.25.25 0 1 1 0-.5m0 .5a.25.25 0 1 0 0-.5m4 .5a.25.25 0 1 1 0-.5m0 .5a.25.25 0 1 0 0-.5m-4-2.5a.25.25 0 1 1 0-.5m0 .5a.25.25 0 1 0 0-.5m3.5.5a.25.25 0 1 1 0-.5m0 .5a.25.25 0 1 0 0-.5m-3.5-2.5a.25.25 0 1 1 0-.5m0 .5a.25.25 0 1 0 0-.5m3 .5a.25.25 0 1 1 0-.5m0 .5a.25.25 0 1 0 0-.5m-3-2.5a.25.25 0 1 1 0-.5m0 .5a.25.25 0 1 0 0-.5m2.5.5a.25.25 0 1 1 0-.5m0 .5a.25.25 0 1 0 0-.5"/></svg>
