<svg xmlns="http://www.w3.org/2000/svg" viewBox="0 0 24 24"><g fill="none" stroke="currentColor" stroke-linecap="round" stroke-linejoin="round"><path d="M16.62 21.83a2 2 0 0 1-2 1.67H7.85a2 2 0 0 1-2-1.67L3.26 6.08a.46.46 0 0 1 .11-.4.46.46 0 0 1 .38-.18h15a.46.46 0 0 1 .38.18.46.46 0 0 1 .11.4Z"/><path d="M20.75.5h-2.34a4 4 0 0 0-3.89 3.07l-3.9 16.36"/><path d="M14.58 12a4 4 0 0 0 .46-.53 4.73 4.73 0 0 0 3 1.86m-5.84-.02A4.73 4.73 0 0 0 14.58 12M4.47 13.34a4.73 4.73 0 0 0 3-1.86 4.74 4.74 0 0 0 2.27 1.67"/></g></svg>
