<svg xmlns="http://www.w3.org/2000/svg" fill="none" viewBox="0 0 24 24"><path stroke="currentColor" stroke-linecap="round" stroke-linejoin="round" d="m13.5 18.485-2.5 2.5h2.5l-2.5 2.5m9.252-15.291a3 3 0 0 0-3.123-4.169 5.5 5.5 0 0 0-10.606 1.5A5 5 0 0 0 7 15.5h11a4 4 0 0 0 2.252-7.306"/><path stroke="currentColor" d="M6 20.5a.25.25 0 1 1 0-.5m0 .5a.25.25 0 1 0 0-.5m12 .5a.25.25 0 1 1 0-.5m0 .5a.25.25 0 1 0 0-.5m-10-.985a.25.25 0 1 1 0-.5m0 .5a.25.25 0 1 0 0-.5m8 .5a.25.25 0 1 1 0-.5m0 .5a.25.25 0 1 0 0-.5m-10 4.97a.25.25 0 1 1 0-.5m0 .5a.25.25 0 1 0 0-.5m12 .5a.25.25 0 1 1 0-.5m0 .5a.25.25 0 1 0 0-.5M8 22a.25.25 0 1 1 0-.5m0 .5a.25.25 0 1 0 0-.5m8 .5a.25.25 0 1 1 0-.5m0 .5a.25.25 0 1 0 0-.5"/></svg>
