<svg xmlns="http://www.w3.org/2000/svg" fill="none" viewBox="0 0 24 24"><path stroke="currentColor" stroke-linecap="round" stroke-linejoin="round" stroke-miterlimit="10" d="M11.975 7.7a1.5 1.5 0 1 0 0-3 1.5 1.5 0 0 0 0 3m-6.8 11.5a1.5 1.5 0 1 0 0-3 1.5 1.5 0 0 0 0 3m13.5 0a1.5 1.5 0 1 0 0-3 1.5 1.5 0 0 0 0 3"/><path stroke="currentColor" stroke-linecap="round" stroke-linejoin="round" stroke-miterlimit="10" d="M15.5 21c1.8 1.8 4.6 1.8 6.4 0s1.8-4.6 0-6.4c-1.5-1.5-3.8-1.7-5.5-.7l-3.773-6.355"/><path stroke="currentColor" stroke-linecap="round" stroke-linejoin="round" stroke-miterlimit="10" d="M3.95 13.4c-1.8.5-3.2 2.3-3.2 4.3 0 2.5 2 4.5 4.5 4.5s4.5-2 4.5-4.5h7.43"/><path stroke="currentColor" stroke-linecap="round" stroke-linejoin="round" stroke-miterlimit="10" d="M16.375 7.4c.3-1.5-.1-3.1-1.2-4.2-1.8-1.8-4.6-1.8-6.4 0-2 2.1-1.7 5.5.9 7.1l-3.586 6.202"/></svg>
