<svg xmlns="http://www.w3.org/2000/svg" viewBox="0 0 24 24"><path fill="none" stroke="currentColor" stroke-linecap="round" stroke-linejoin="round" d="M3 9.5a9 9 0 1 0 18 0 9 9 0 1 0-18 0"/><path fill="none" stroke="currentColor" stroke-linecap="round" stroke-linejoin="round" d="M7.391 17.231A7 7 0 0 0 5 22.5a1 1 0 0 0 1 1h12a1 1 0 0 0 1-1 7 7 0 0 0-2.391-5.269M7.966 1.454A5 5 0 0 0 12 3.5a5 5 0 0 0 4.034-2.046M10.5 9.5a1.5 1.5 0 1 0 3 0 1.5 1.5 0 1 0-3 0"/><path fill="none" stroke="currentColor" stroke-linecap="round" stroke-linejoin="round" d="M8 9.5a4 4 0 1 0 8 0 4 4 0 1 0-8 0"/></svg>
