<svg xmlns="http://www.w3.org/2000/svg" viewBox="0 0 24 24"><path fill="none" stroke="currentColor" stroke-linecap="round" stroke-linejoin="round" d="M20.636 4.74A12.58 12.58 0 0 0 12 1.5C5.649 1.5.5 5.769.5 11.04a8.8 8.8 0 0 0 3.465 6.824.25.25 0 0 1 .091.222L3.6 22.227a.25.25 0 0 0 .392.232s3.031-2.073 3.594-2.5a.25.25 0 0 1 .211-.044 23 23 0 0 0 4.203.669c6.351 0 11.5-4.273 11.5-9.544a8.2 8.2 0 0 0-1.151-4.164.5.5 0 0 0-.705-.165L8.613 15.234a.2.2 0 0 1-.156.027.2.2 0 0 1-.126-.095l-3.49-6.047a.2.2 0 0 1 .27-.274L9.346 11.2a.2.2 0 0 0 .2 0z"/></svg>
