<svg xmlns="http://www.w3.org/2000/svg" viewBox="0 0 24 24"><path fill="none" stroke="currentColor" stroke-linecap="round" stroke-linejoin="round" d="M17 23.5 12.6 9.371a1.5 1.5 0 0 1-1.2 0L7 23.5"/><path fill="none" stroke="currentColor" stroke-linecap="round" stroke-linejoin="round" d="M10.496 7.998a1.5 1.5 0 1 0 3 0 1.5 1.5 0 1 0-3 0M17.592 3.4a6.5 6.5 0 0 1 0 9.192"/><path fill="none" stroke="currentColor" stroke-linecap="round" stroke-linejoin="round" d="M19.714 1.28a9.5 9.5 0 0 1 0 13.435M6.4 3.4a6.5 6.5 0 0 0 0 9.192"/><path fill="none" stroke="currentColor" stroke-linecap="round" stroke-linejoin="round" d="M4.278 1.28a9.5 9.5 0 0 0 0 13.435m4.904 1.783h5.636m-6.883 4h8.13"/></svg>
