<svg xmlns="http://www.w3.org/2000/svg" fill="none" viewBox="0 0 24 24"><path stroke="currentColor" stroke-linecap="round" stroke-linejoin="round" d="M20.407 16.5V5.167A1.667 1.667 0 0 0 18.74 3.5H5.073a1.667 1.667 0 0 0-1.667 1.667V16.5m12.001 0c0 1.1-1.567 2-3.5 2s-3.5-.9-3.5-2H1.093a.5.5 0 0 0-.464.686A5.28 5.28 0 0 0 5.53 20.5h12.754a5.28 5.28 0 0 0 4.9-3.314.5.5 0 0 0-.464-.686z"/><path stroke="currentColor" stroke-linecap="round" stroke-linejoin="round" d="M15.907 7.915a6.36 6.36 0 0 0-8 0m1.667 2.41a3.71 3.71 0 0 1 4.667 0"/><path stroke="currentColor" d="M11.907 12.949a.25.25 0 1 1 0-.5m0 .5a.25.25 0 1 0 0-.5"/></svg>
