<svg xmlns="http://www.w3.org/2000/svg" viewBox="0 0 24 24"><path fill="none" stroke="currentColor" stroke-linecap="round" stroke-linejoin="round" d="M4.5 4a7.5 3.5 0 1 0 15 0 7.5 3.5 0 1 0-15 0m-.864 10.716C4.442 16.305 7.88 17.5 12 17.5s7.558-1.2 8.364-2.784m.06-4.116c-.845 1.569-4.342 2.9-8.424 2.9s-7.579-1.335-8.424-2.9M4 17.75c.914 1.511 4.207 2.75 8 2.75s7.083-1.239 8-2.75"/><path fill="none" stroke="currentColor" stroke-linecap="round" stroke-linejoin="round" d="M20.15 7.5c-.869 1.531-4.319 3-8.15 3s-7.281-1.469-8.15-3"/><path fill="none" stroke="currentColor" stroke-linecap="round" stroke-linejoin="round" d="M19.5 4a33.1 33.1 0 0 1 0 16s-1 3.5-7.5 3.5S4.5 20 4.5 20a33.1 33.1 0 0 1 0-16"/><path fill="none" stroke="currentColor" stroke-linecap="round" stroke-linejoin="round" d="M7.5 4a1.5 1 0 1 0 3 0 1.5 1 0 1 0-3 0"/></svg>
