<svg xmlns="http://www.w3.org/2000/svg" fill="none" viewBox="0 0 24 24"><path stroke="currentColor" stroke-linecap="round" stroke-linejoin="round" stroke-miterlimit="10" d="m9.43 16.75-2 4c-.5.9-1.6 1.2-2.5.7-.7-.5-1-1.4-.6-2.2l1.2-2.5m8.799-3.9v-.9c0-1.8-1.3-3.4-3-3.7a2.7 2.7 0 0 0-1.485 0"/><path stroke="currentColor" stroke-linecap="round" stroke-linejoin="round" stroke-miterlimit="10" d="m2.13 16.75-1.2 2.5c-.4.8-.1 1.7.6 2.2.9.5 2 .2 2.5-.7l.173-.328M10.73 6.646a2.5 2.5 0 1 0 0-5 2.5 2.5 0 0 0 0 5M8.27 13.8h-5.8c-.3 0-.6-.2-.7-.5l-1-3.6c-.1-.5.2-.9.7-.9h4.8c.3 0 .6.2.7.5zm2.999 0h-3m12.681 3c.4-.4.6-1 .6-1.7v-3l-2 1h-1l-2-1v3c0 .7.3 1.4.8 1.9m3.6-.2 1.8 2.6c.3.5.5 1.1.5 1.7v.1c0 1.1-.9 2-2 2h-6m2.3-6.2v6.2"/></svg>
