<svg xmlns="http://www.w3.org/2000/svg" viewBox="0 0 24 24"><path fill="none" stroke="currentColor" stroke-linecap="round" stroke-linejoin="round" d="M1.5 8a2.5 2.5 0 1 0 5 0 2.5 2.5 0 1 0-5 0m16 0a2.5 2.5 0 1 0 5 0 2.5 2.5 0 1 0-5 0"/><path fill="none" stroke="currentColor" stroke-linecap="round" stroke-linejoin="round" d="M16.5 23.5v-8.028a6.49 6.49 0 0 1-5.562-4.416l-.861-2.581a1.5 1.5 0 0 1 1.193-1.958A1.56 1.56 0 0 1 12.949 7.6l.836 2.507A3.5 3.5 0 0 0 17.1 12.5h4.394a2 2 0 0 1 2 2v9"/><path fill="none" stroke="currentColor" stroke-linecap="round" stroke-linejoin="round" d="m10.419 9.5-.2.607A3.5 3.5 0 0 1 6.892 12.5h-4.39a2 2 0 0 0-2 2v9m6.998 0v-8.028a6.5 6.5 0 0 0 4.5-2.445M11.5.5v2m3.914.086L14 4M7.586 2.586 9 4"/></svg>
