<svg xmlns="http://www.w3.org/2000/svg" viewBox="0 0 24 24"><path fill="none" stroke="currentColor" stroke-linecap="round" stroke-linejoin="round" d="m17.49 10.883 2.058 2.058a5.35 5.35 0 0 1 1.293 2.093l.545 1.637 2.128 2.129m-10.652-2.5-.223.223a2.06 2.06 0 0 0 .015 2.924l.391.387A4.03 4.03 0 0 0 15.926 21l1.15-.014 2.124 2.123m-.618-18.618 1.543-1.543m-4.629 0V.891m4.629 6.686h2.057M4.695 18.378l-1.543 1.543m4.629 0v2.057m-4.629-6.686H1.095"/><path fill="none" stroke="currentColor" stroke-linecap="round" stroke-linejoin="round" d="M17.461 10.854a1.184 1.184 0 0 0-1.674 0 1.16 1.16 0 0 0-.311.65 1.115 1.115 0 0 0-1.255.976 1.17 1.17 0 0 0-.947.325 1.15 1.15 0 0 0-.306.632 1.17 1.17 0 0 0-.974.32 1.184 1.184 0 0 0 0 1.674l3.165 3.169M6.51 13.117l-2.058-2.058a5.35 5.35 0 0 1-1.293-2.093l-.545-1.637L.486 5.2m10.652 2.5.223-.223a2.06 2.06 0 0 0-.015-2.924l-.391-.387A4.03 4.03 0 0 0 8.074 3l-1.15.014L4.8.891"/><path fill="none" stroke="currentColor" stroke-linecap="round" stroke-linejoin="round" d="M6.539 13.146a1.184 1.184 0 0 0 1.674 0 1.16 1.16 0 0 0 .311-.65 1.115 1.115 0 0 0 1.255-.976 1.17 1.17 0 0 0 .947-.325 1.15 1.15 0 0 0 .306-.632 1.17 1.17 0 0 0 .974-.32 1.184 1.184 0 0 0 0-1.674L8.841 5.4"/></svg>
