<svg xmlns="http://www.w3.org/2000/svg" fill="none" viewBox="0 0 24 24"><path stroke="currentColor" stroke-linecap="round" stroke-linejoin="round" stroke-miterlimit="10" d="M9.669 9.642c.6-.3 1.3-.4 2-.2 1.7.3 3 1.9 3 3.7v2.9c0 1.1-.9 2-2 2h-2l-2.1 4.2c-.5 1-1.7 1.3-2.6.7-.8-.5-1-1.5-.6-2.3l1.3-2.6"/><path stroke="currentColor" stroke-linecap="round" stroke-linejoin="round" stroke-miterlimit="10" d="m3.169 18.042-1.3 2.6c-.4.8-.2 1.8.6 2.3.9.6 2.1.3 2.6-.7l.173-.273m5.427-14.131a2.5 2.5 0 1 0 0-5 2.5 2.5 0 0 0 0 5M21.25 23.25h-8m3-14h2c1.7 0 3 1.3 3 3v3m2 8h-5v-6c0-1.1.9-2 2-2h1c1.1 0 2 .9 2 2zM8.17 14.942h-5.7c-.3 0-.6-.2-.7-.5l-1-3.6c-.1-.5.2-.9.7-.9h4.8c.3 0 .6.2.7.5zm3 0h-3"/></svg>
