<svg xmlns="http://www.w3.org/2000/svg" viewBox="0 0 24 24"><path fill="none" stroke="currentColor" stroke-linecap="round" stroke-linejoin="round" d="M3.637 3a2.5 2.5 0 1 0 5 0 2.5 2.5 0 1 0-5 0m8.894 10.435-1.953-2.821a1.5 1.5 0 0 1 .379-2.088L14.605 6h3.532a1.5 1.5 0 0 0 0-3h-4a1.5 1.5 0 0 0-.854.267L9.25 6.06a4.506 4.506 0 0 0-1.139 6.262l2.525 3.648V22a1.5 1.5 0 0 0 3 0v-5.7l5.164-3.442A3.5 3.5 0 0 0 19.774 8l-.332-.5"/><path fill="none" stroke="currentColor" stroke-linecap="round" stroke-linejoin="round" d="m16.5 8.5.778 1.167a.5.5 0 0 1-.139.693l-7.104 4.74"/></svg>
