<svg xmlns="http://www.w3.org/2000/svg" fill="none" viewBox="0 0 24 24"><path stroke="currentColor" stroke-linecap="round" stroke-linejoin="round" stroke-miterlimit="10" d="M4.01 9.632a3 3 0 1 0 0-6 3 3 0 0 0 0 6m12.8 2.956 5.743-5.743c.745-.745.957-1.915.32-2.766-.745-1.063-2.34-1.17-3.192-.319l-5.317 5.318h-5a4.267 4.267 0 0 0-4.253 4.254v5.53c0 .958.638 1.809 1.595 1.915 1.17.213 2.127-.744 2.127-1.808v-4.041h3.723v2.663c0 1.808 1.382 3.19 3.19 3.19h2.66c1.063 0 2.02-.744 2.233-1.808.212-1.382-.851-2.446-2.128-2.446H16.81v-1.6z"/></svg>
