<svg xmlns="http://www.w3.org/2000/svg" fill="none" viewBox="0 0 24 24"><path stroke="currentColor" stroke-linecap="round" stroke-linejoin="round" d="M11.5 23.5h-10a1 1 0 0 1-1-1v-21a1 1 0 0 1 1-1h13.29a1 1 0 0 1 .71.29l3.71 3.71a1 1 0 0 1 .29.71V9.5"/><path stroke="currentColor" stroke-linecap="round" stroke-linejoin="round" d="M9 4.11a1.48 1.48 0 0 1-.871 1.532 1.52 1.52 0 0 1-2.064-.911A1.5 1.5 0 0 1 6 4.11L6.37.5H8.5zm8.5 19.39a6 6 0 1 0 0-12 6 6 0 0 0 0 12"/><path stroke="currentColor" stroke-linecap="round" stroke-linejoin="round" d="m20.17 15.76-2.9 3.87a.75.75 0 0 1-1.13.08l-1.5-1.5"/><path stroke="currentColor" d="M7.5 8.25a.25.25 0 0 1 0-.5m0 .5a.25.25 0 0 0 0-.5m0 3a.25.25 0 1 1 0-.5m0 .5a.25.25 0 1 0 0-.5m0 3a.25.25 0 1 1 0-.5m0 .5a.25.25 0 1 0 0-.5m0 3a.25.25 0 1 1 0-.5m0 .5a.25.25 0 1 0 0-.5m0 3a.25.25 0 1 1 0-.5m0 .5a.25.25 0 1 0 0-.5m0 3a.25.25 0 1 1 0-.5m0 .5a.25.25 0 1 0 0-.5"/></svg>
