<svg xmlns="http://www.w3.org/2000/svg" viewBox="0 0 24 24"><g fill="currentColor"><path d="m22.86 7.59-5.44 3.63a1 1 0 0 1-.56.17H11a.74.74 0 0 0 0 1.47h6.37a.8.8 0 0 0 .41-.13l5.87-3.91a.74.74 0 0 0-.81-1.23Z"/><path d="m22.86 10.78-5.44 3.62a1 1 0 0 1-.56.17H11A.74.74 0 0 0 11 16h6.37a.7.7 0 0 0 .4-.12l5.9-3.88a.74.74 0 0 0 .21-1 .73.73 0 0 0-1.02-.22"/><path d="m22.86 14-5.44 3.63a1 1 0 0 1-.56.17H11a.73.73 0 1 0 0 1.46h6.37a.8.8 0 0 0 .41-.12l5.87-3.92a.74.74 0 0 0 .21-1 .75.75 0 0 0-1-.22M5.63 11.39H.73a.74.74 0 0 0 0 1.47h4.9a.74.74 0 1 0 0-1.47m0 3.18H.73a.74.74 0 0 0 0 1.43h4.9a.74.74 0 1 0 0-1.47Zm0 3.19H.73a.73.73 0 1 0 0 1.46h4.9a.73.73 0 1 0 0-1.46m5.89-8.58a.49.49 0 0 0 .49.49h5.38a.53.53 0 0 0 .27-.08l5.88-3.92a.47.47 0 0 0 .19-.55.48.48 0 0 0-.46-.34h-5.39a.43.43 0 0 0-.27.08l-5.88 3.91a.51.51 0 0 0-.21.41m.95-4.06a.49.49 0 0 0-.47-.34H6.65a.45.45 0 0 0-.27.08L.51 8.77a.5.5 0 0 0-.2.53.48.48 0 0 0 .47.37h5.34a.5.5 0 0 0 .27-.08l5.88-3.92a.49.49 0 0 0 .2-.55"/></g></svg>
