<svg xmlns="http://www.w3.org/2000/svg" viewBox="0 0 24 24"><path fill="currentColor" d="M23 6.56a.87.87 0 0 0-.55-.81l-9.79-3.82a1.88 1.88 0 0 0-1.32 0L1.55 5.75a.87.87 0 0 0-.55.81.86.86 0 0 0 .55.8l9.78 3.82a1.7 1.7 0 0 0 .67.13 1.65 1.65 0 0 0 .66-.13l9.79-3.82a.86.86 0 0 0 .55-.8m-12.61 5.57L1 8.48a.76.76 0 0 0-.69.07.74.74 0 0 0-.31.62v8a.75.75 0 0 0 .35.63.7.7 0 0 0 .4.12.9.9 0 0 0 .32-.07l9.36-4.34a.75.75 0 0 0 .43-.71.74.74 0 0 0-.47-.67m13.28-3.57a.74.74 0 0 0-.67-.08l-9.27 3.61a1.49 1.49 0 0 0-1 1.4v8a.74.74 0 0 0 .33.62.7.7 0 0 0 .42.13.9.9 0 0 0 .27-.05l9.28-3.62a1.49 1.49 0 0 0 .95-1.4v-8a.71.71 0 0 0-.31-.61"/></svg>
