<svg xmlns="http://www.w3.org/2000/svg" viewBox="0 0 24 24"><g fill="currentColor"><path d="M13.714 20.82h-4.4a.245.245 0 0 0-.235.216 3 3 0 0 0 0 .274c0 1.886 2.041 3.065 3.675 2.122a2.45 2.45 0 0 0 1.225-2.122 3 3 0 0 0 0-.274.245.245 0 0 0-.265-.216m.735-15.68a4.3 4.3 0 0 1 .343-1.695 6.2 6.2 0 0 0-1.813-.618V1.71a1.47 1.47 0 1 0-2.94 0v1.127a6.6 6.6 0 0 0-2.793 1.254 9 9 0 0 0-3.283 7.105v.745c0 2.5-.588 4.963-1.715 7.193a.5.5 0 0 0 .225.657.5.5 0 0 0 .216.049h17.64a.49.49 0 0 0 .441-.706 16 16 0 0 1-1.715-7.193v-.745a9.4 9.4 0 0 0-.137-1.656h-.059a4.4 4.4 0 0 1-4.41-4.4"/><path d="M15.919 5.14c0 2.263 2.45 3.678 4.41 2.546a2.94 2.94 0 0 0 1.47-2.546c0-2.263-2.45-3.678-4.41-2.546a2.94 2.94 0 0 0-1.47 2.546"/></g></svg>
