<svg xmlns="http://www.w3.org/2000/svg" viewBox="0 0 24 24"><g fill="currentColor"><path d="M21.94 9.18a.49.49 0 0 1-.3-.33 9.6 9.6 0 0 0-.95-2.29.51.51 0 0 1 0-.45 2.49 2.49 0 0 0-3.27-3.27.51.51 0 0 1-.45 0 9.6 9.6 0 0 0-2.29-.95.49.49 0 0 1-.33-.3 2.51 2.51 0 0 0-4.64 0 .49.49 0 0 1-.33.3 9.6 9.6 0 0 0-2.29 1 .51.51 0 0 1-.45 0 2.49 2.49 0 0 0-3.3 3.22.51.51 0 0 1 0 .45 9.6 9.6 0 0 0-1 2.29.49.49 0 0 1-.3.33 2.51 2.51 0 0 0 0 4.64.48.48 0 0 1 .29.33 9.93 9.93 0 0 0 2.73 4.57 1 1 0 0 0 1.42 0 1 1 0 0 0 0-1.41A8.05 8.05 0 0 1 4.39 14a.52.52 0 0 1 .17-.55 2.49 2.49 0 0 0 0-3.9A.5.5 0 0 1 4.4 9a9 9 0 0 1 .46-1.11.51.51 0 0 1 .5-.27 2.51 2.51 0 0 0 2.76-2.76.52.52 0 0 1 .27-.5A9 9 0 0 1 9.5 3.9a.5.5 0 0 1 .55.16 2.49 2.49 0 0 0 3.9 0 .5.5 0 0 1 .55-.16 9 9 0 0 1 1.11.46.51.51 0 0 1 .27.5 2.51 2.51 0 0 0 2.76 2.76.51.51 0 0 1 .5.27A9 9 0 0 1 19.6 9a.5.5 0 0 1-.16.55 2.49 2.49 0 0 0 0 3.9.5.5 0 0 1 .17.55 8.14 8.14 0 0 1-2.07 3.28 1 1 0 1 0 1.38 1.44 9.93 9.93 0 0 0 2.73-4.57.52.52 0 0 1 .29-.34 2.5 2.5 0 0 0 0-4.63"/><path d="M21 22h-3a.49.49 0 0 1-.46-.31l-3.7-8.79a.25.25 0 0 1 .05-.26 2.5 2.5 0 1 0-3.78 0 .25.25 0 0 1 .05.26l-3.7 8.79A.49.49 0 0 1 6 22H3a1 1 0 0 0 0 2h18a1 1 0 0 0 0-2m-5.67-.11a.26.26 0 0 1-.21.11H8.88a.26.26 0 0 1-.21-.11.3.3 0 0 1 0-.24l3.24-7.72a.12.12 0 0 1 .22 0l3.24 7.72a.3.3 0 0 1-.04.24"/></g></svg>
