<svg xmlns="http://www.w3.org/2000/svg" viewBox="0 0 24 24"><g fill="currentColor"><path d="m6.28 13.22 3.6-2.4a.17.17 0 0 0 .06-.12.15.15 0 0 0-.06-.11L6.62 8.42a1.2 1.2 0 0 0-1.24 0l-3.26 2.17a.15.15 0 0 0-.06.11.17.17 0 0 0 .06.12l3.6 2.4a.52.52 0 0 0 .56 0"/><path d="M1.54 11.68a.1.1 0 0 0 0 .07v8.62a1.6 1.6 0 0 0 .62 1.17l3.26 2.29a1.2 1.2 0 0 0 1.24 0l3.26-2.29a1.6 1.6 0 0 0 .62-1.17v-8.62a.1.1 0 0 0 0-.07.08.08 0 0 0-.08 0l-3.63 2.37a1.5 1.5 0 0 1-1.66 0l-3.55-2.36a.08.08 0 0 0-.08-.01m12-8.25a.1.1 0 0 0 0 .07v16.87a1.6 1.6 0 0 0 .62 1.17l3.26 2.29a1.2 1.2 0 0 0 1.24 0l3.26-2.29a1.6 1.6 0 0 0 .62-1.17V3.5a.1.1 0 0 0 0-.07.08.08 0 0 0-.08 0L18.83 5.8a1.5 1.5 0 0 1-1.66 0l-3.55-2.36a.08.08 0 0 0-.08-.01"/><path d="m18.28 5 3.6-2.4a.17.17 0 0 0 .06-.12.15.15 0 0 0-.06-.11L18.62.17a1.2 1.2 0 0 0-1.24 0l-3.26 2.17a.15.15 0 0 0-.06.11.17.17 0 0 0 .06.12L17.72 5a.52.52 0 0 0 .56 0"/></g></svg>
