<svg xmlns="http://www.w3.org/2000/svg" viewBox="0 0 24 24"><g fill="currentColor"><path d="M23 21H2.5a.5.5 0 0 1-.5-.5V2a1 1 0 0 0-2 0v19.5A1.5 1.5 0 0 0 1.5 23H23a1 1 0 0 0 0-2"/><path d="M17.75 18.5a1 1 0 0 0 0-2 2.06 2.06 0 0 1-1.08-.26 1 1 0 0 0-1.38.31 1 1 0 0 0 .31 1.38 4 4 0 0 0 2.15.57m-9.32-3.28 1.2-6.57A1.38 1.38 0 0 1 11 7.5a1 1 0 0 0 1-1 1 1 0 0 0-1-1 3.4 3.4 0 0 0-3.34 2.79l-1.2 6.57a2 2 0 0 1-2 1.64 1 1 0 0 0 0 2 4 4 0 0 0 3.97-3.28"/><path d="M23 16.5a2 2 0 0 1-2-1.64l-1.2-6.57a3.31 3.31 0 0 0-3.3-2.78 3.31 3.31 0 0 0-3.34 2.78L12 14.86a2 2 0 0 1-2 1.64 1 1 0 0 0 0 2 4 4 0 0 0 3.93-3.28l1.2-6.57a1.39 1.39 0 0 1 2.74 0l1.2 6.57A4 4 0 0 0 23 18.5a1 1 0 0 0 0-2"/></g></svg>
