<svg xmlns="http://www.w3.org/2000/svg" viewBox="0 0 24 24"><path fill="currentColor" d="M12 0C7.58 0 4.5 5.69 4.5 11.25a.71.71 0 0 0 .64.75h13.72a.71.71 0 0 0 .64-.75C19.5 5.69 16.42 0 12 0m-.15 3.48c-1 0-1.92.79-2.64 2.16a.64.64 0 0 1-.56.36.65.65 0 0 1-.34-.11.82.82 0 0 1-.21-1C9.06 3 10.43 2 11.85 2a.71.71 0 0 1 .65.75.7.7 0 0 1-.65.73m8.92 11.24a1 1 0 0 0-.2-.84 1 1 0 0 0-.78-.38H4.21a1 1 0 0 0-.78.38 1 1 0 0 0-.2.84 12.76 12.76 0 0 0 3.61 6.73A.49.49 0 0 1 7 22c-.09.21-.18.42-.25.63A1 1 0 0 0 7.66 24h8.68a1 1 0 0 0 .94-1.34c-.07-.21-.16-.42-.25-.63a.49.49 0 0 1 .13-.58 12.76 12.76 0 0 0 3.61-6.73"/></svg>
