<svg xmlns="http://www.w3.org/2000/svg" viewBox="0 0 24 24"><g fill="currentColor"><path d="M15.41 6.91a1 1 0 0 0 1.41 0l2.48-2.48a2.5 2.5 0 0 0 0-3.53 2.55 2.55 0 0 0-3.54 0l-2.48 2.47a1 1 0 0 0 0 1.42ZM4.8 13.27a1 1 0 0 0-1.41 0L.91 15.75a2.5 2.5 0 0 0 0 3.53 2.49 2.49 0 0 0 3.54 0l2.47-2.47a1 1 0 0 0 0-1.42Zm1.65.24a.51.51 0 0 0 .7 0l6.37-6.37a.5.5 0 0 0 .14-.35.52.52 0 0 0-.14-.36 5 5 0 0 0-7.07 7.08m3.44-1.2a.3.3 0 0 0-.07.2.22.22 0 0 0 .1.18 2 2 0 0 0 2.67-.12 2.1 2.1 0 0 0 .14-2.69.32.32 0 0 0-.19-.1.27.27 0 0 0-.19.08Zm-.25 7.26a9 9 0 0 0 1 .06 9 9 0 0 0 8.94-10 1 1 0 0 0-2 .22 7 7 0 0 1-7.74 7.74 1 1 0 0 0-1.1.88 1 1 0 0 0 .9 1.1"/><path d="M23.63 9.71a1 1 0 0 0-1.16-.81 1 1 0 0 0-.81 1.16 10 10 0 0 1-11.5 11.61 1 1 0 0 0-1.16.82 1 1 0 0 0 .82 1.15 13 13 0 0 0 2 .17 12 12 0 0 0 11.81-14.1"/></g></svg>
