<svg xmlns="http://www.w3.org/2000/svg" viewBox="0 0 24 24"><g fill="currentColor"><path d="M0 19.25a3 3 0 0 0 3 3h18a3 3 0 0 0 3-3V4.75a3 3 0 0 0-3-3H3a3 3 0 0 0-3 3Zm14.5-15a1 1 0 0 1-.15.5 1 1 0 0 1-1.7 0 .91.91 0 0 1 0-1 1 1 0 0 1 1.7 0 1 1 0 0 1 .15.5m3.5 0a1 1 0 0 1-.15.5 1 1 0 0 1-1.7 0 .91.91 0 0 1 0-1 1 1 0 0 1 1.7 0 1 1 0 0 1 .15.5m3.5 0a1 1 0 0 1-.15.5 1 1 0 0 1-1.7 0 .91.91 0 0 1 0-1 1 1 0 0 1 1.76.09 1.1 1.1 0 0 1 .09.41M2 7a.25.25 0 0 1 .25-.25h19.5A.25.25 0 0 1 22 7v12.25a1 1 0 0 1-1 1H3a1 1 0 0 1-1-1Z"/><path d="M10.25 10.75h8.5a.75.75 0 0 0 0-1.5h-8.5a.75.75 0 0 0 0 1.5m-4.5 0h1.5a.75.75 0 0 0 0-1.5h-1.5a.75.75 0 0 0 0 1.5m4.5 3.5h8.5a.75.75 0 0 0 0-1.5h-8.5a.75.75 0 0 0 0 1.5m-4.5 0h1.5a.75.75 0 0 0 0-1.5h-1.5a.75.75 0 0 0 0 1.5m4.5 3.5h8.5a.75.75 0 0 0 0-1.5h-8.5a.75.75 0 0 0 0 1.5m-4.5 0h1.5a.75.75 0 0 0 0-1.5h-1.5a.75.75 0 0 0 0 1.5"/></g></svg>
