<svg xmlns="http://www.w3.org/2000/svg" viewBox="0 0 24 24"><g fill="currentColor"><path d="M24 4.75a3 3 0 0 0-3-3H3a3 3 0 0 0-3 3v14.5a3 3 0 0 0 3 3h18a3 3 0 0 0 3-3Zm-14.35-1a1 1 0 0 1 1.7 0 .91.91 0 0 1 0 1 1 1 0 0 1-1.7 0 .91.91 0 0 1 0-1m-3.5 0a1 1 0 0 1 1.7 0 .91.91 0 0 1 0 1 1 1 0 0 1-1.7 0 .91.91 0 0 1 0-1m-3.56.09a1 1 0 0 1 1.76-.09.91.91 0 0 1 0 1 1 1 0 0 1-1.7 0 1 1 0 0 1-.15-.5 1.1 1.1 0 0 1 .09-.41M22 19.25a1 1 0 0 1-1 1H3a1 1 0 0 1-1-1V7a.25.25 0 0 1 .25-.25h19.5A.25.25 0 0 1 22 7Z"/><path d="M14 9.17a.26.26 0 0 0 0-.21.3.3 0 0 0-.15-.16 4.9 4.9 0 0 0-1.88-.38 5 5 0 0 0-4.87 3.94.22.22 0 0 0 .05.21.26.26 0 0 0 .2.1h4.09a.26.26 0 0 0 .21-.11Zm-6.57 5a.25.25 0 0 0-.2.09.23.23 0 0 0-.05.21 5 5 0 0 0 4.87 4 4.9 4.9 0 0 0 2.32-.59.24.24 0 0 0 .12-.17.23.23 0 0 0-.05-.21l-2.67-3.19a.22.22 0 0 0-.19-.09Zm8.16 2.32a.3.3 0 0 0 .2.09.3.3 0 0 0 .19-.1 4.93 4.93 0 0 0-.31-6.48.23.23 0 0 0-.2-.08.27.27 0 0 0-.19.11l-2.18 3.2a.24.24 0 0 0 0 .3Z"/></g></svg>
