<svg xmlns="http://www.w3.org/2000/svg" fill="none" viewBox="0 0 24 24"><path fill="currentColor" fill-rule="evenodd" d="M9 10.906a1 1 0 0 1 1-1h11a1 1 0 0 1 0 2H10a1 1 0 0 1-1-1m0 4a1 1 0 0 1 1-1h13a1 1 0 0 1 0 2H10a1 1 0 0 1-1-1m0-8a1 1 0 0 1 1-1h8a1 1 0 1 1 0 2h-8a1 1 0 0 1-1-1m0-4a1 1 0 0 1 1-1h5a1 1 0 1 1 0 2h-5a1 1 0 0 1-1-1" clip-rule="evenodd"/><path fill="currentColor" fill-rule="evenodd" d="M5.812 23.78a.75.75 0 0 1-1.06 0l-4.5-4.5A.75.75 0 0 1 .781 18h3.5V1.438a1 1 0 1 1 2 0V18h3.5a.75.75 0 0 1 .53 1.28z" clip-rule="evenodd"/></svg>
