<svg xmlns="http://www.w3.org/2000/svg" viewBox="0 0 24 24"><path fill="currentColor" d="M16.5 10a1.5 1.5 0 1 0 3 0 1.5 1.5 0 1 0-3 0m-4 0a1.5 1.5 0 1 0 3 0 1.5 1.5 0 1 0-3 0m0 4a1.5 1.5 0 1 0 3 0 1.5 1.5 0 1 0-3 0m-4-4a1.5 1.5 0 1 0 3 0 1.5 1.5 0 1 0-3 0m0 4a1.5 1.5 0 1 0 3 0 1.5 1.5 0 1 0-3 0m-4 0a1.5 1.5 0 1 0 3 0 1.5 1.5 0 1 0-3 0m0-4a1.5 1.5 0 1 0 3 0 1.5 1.5 0 1 0-3 0m-4 4a1.5 1.5 0 1 0 3 0 1.5 1.5 0 1 0-3 0m0-4a1.5 1.5 0 1 0 3 0 1.5 1.5 0 1 0-3 0m16 12a1.5 1.5 0 1 0 3 0 1.5 1.5 0 1 0-3 0m-4-4a1.5 1.5 0 1 0 3 0 1.5 1.5 0 1 0-3 0m0 4a1.5 1.5 0 1 0 3 0 1.5 1.5 0 1 0-3 0m-4-4a1.5 1.5 0 1 0 3 0 1.5 1.5 0 1 0-3 0m0 4a1.5 1.5 0 1 0 3 0 1.5 1.5 0 1 0-3 0m-4 0a1.5 1.5 0 1 0 3 0 1.5 1.5 0 1 0-3 0m0-4a1.5 1.5 0 1 0 3 0 1.5 1.5 0 1 0-3 0m-4 4a1.5 1.5 0 1 0 3 0 1.5 1.5 0 1 0-3 0m0-4a1.5 1.5 0 1 0 3 0 1.5 1.5 0 1 0-3 0m20-12a1.5 1.5 0 1 0 3 0 1.5 1.5 0 1 0-3 0m-4 0a1.5 1.5 0 1 0 3 0 1.5 1.5 0 1 0-3 0m0-4a1.5 1.5 0 1 0 3 0 1.5 1.5 0 1 0-3 0m-4 4a1.5 1.5 0 1 0 3 0 1.5 1.5 0 1 0-3 0M.5 6a1.5 1.5 0 1 0 3 0 1.5 1.5 0 1 0-3 0"/></svg>
