<svg xmlns="http://www.w3.org/2000/svg" viewBox="0 0 24 24"><g fill="currentColor"><path d="M17 15.65a.23.23 0 0 0-.16-.14.26.26 0 0 0-.21 0 7.6 7.6 0 0 1-1.27.73.26.26 0 0 0-.13.33l.88 2a.3.3 0 0 1 0 .24.26.26 0 0 1-.21.11H8.16a.26.26 0 0 1-.16-.03.3.3 0 0 1 0-.24l.88-2a.26.26 0 0 0-.13-.33 7.6 7.6 0 0 1-1.27-.73.26.26 0 0 0-.21 0 .25.25 0 0 0-.16.14l-3 7a1 1 0 0 0 .53 1.31A1.1 1.1 0 0 0 5 24a1 1 0 0 0 .92-.61l1-2.24A.25.25 0 0 1 7.1 21h9.8a.25.25 0 0 1 .23.15l.95 2.24A1 1 0 0 0 19 24a1.1 1.1 0 0 0 .39-.08 1 1 0 0 0 .53-1.31Z"/><path d="M18.25 8.83a1 1 0 0 0-.75-.33h-11a1 1 0 0 0-.74.33 1 1 0 0 0-.26.74 6.53 6.53 0 0 0 13 0 1 1 0 0 0-.25-.74M7.29 7.21a1 1 0 0 1 0-1.41 1 1 0 0 0 .21-.33l-.27-.33A2.5 2.5 0 0 1 6.5 3.5a2.7 2.7 0 0 1 .79-1.71 1 1 0 0 1 1.42 1.42.9.9 0 0 0-.21.32l.27.33A2.5 2.5 0 0 1 9.5 5.5a2.7 2.7 0 0 1-.79 1.71 1 1 0 0 1-1.42 0m8 0a1 1 0 0 1 0-1.41 1 1 0 0 0 .21-.33l-.27-.33a2.5 2.5 0 0 1-.73-1.64 2.7 2.7 0 0 1 .79-1.71 1 1 0 1 1 1.42 1.42.9.9 0 0 0-.21.32l.27.33a2.5 2.5 0 0 1 .73 1.64 2.7 2.7 0 0 1-.79 1.71 1 1 0 0 1-1.42 0m-4 0a1 1 0 0 1 0-1.41 1.5 1.5 0 0 0 .4-.68c0-.18-.22-.45-.46-.73a3.14 3.14 0 0 1-.92-2 3.34 3.34 0 0 1 1-2.09 1 1 0 1 1 1.42 1.42 1.44 1.44 0 0 0-.4.67c0 .18.22.45.46.73a3.14 3.14 0 0 1 .92 2 3.34 3.34 0 0 1-1 2.09 1 1 0 0 1-1.42 0"/></g></svg>
