<svg xmlns="http://www.w3.org/2000/svg" viewBox="0 0 24 24"><g fill="currentColor"><path d="M14 12.18a.27.27 0 0 1-.08-.19.25.25 0 0 1 .08-.18l4.6-4.22a1.53 1.53 0 0 0 .49-1.08 1.52 1.52 0 0 0-.45-1.09L13.81.63a1.5 1.5 0 0 0-2.56 1.07v7.39a.25.25 0 0 1-.15.23.25.25 0 0 1-.27-.05l-4.9-4.51a1 1 0 0 0-1.36 1.48l6.07 5.57a.25.25 0 0 1 .08.18.27.27 0 0 1-.08.19l-6.09 5.58a1 1 0 0 0 1.35 1.48l4.93-4.53a.26.26 0 0 1 .27 0 .25.25 0 0 1 .15.23v7.4a1.51 1.51 0 0 0 .92 1.39 1.7 1.7 0 0 0 .58.11 1.52 1.52 0 0 0 1.06-.43l4.82-4.79a1.49 1.49 0 0 0 0-2.17Zm-.75-8.68a.25.25 0 0 1 .15-.23.26.26 0 0 1 .28 0l3 3a.24.24 0 0 1 .07.18.25.25 0 0 1-.08.18l-3 2.74a.25.25 0 0 1-.27 0 .25.25 0 0 1-.15-.23Zm.43 17.18a.26.26 0 0 1-.28.05.25.25 0 0 1-.15-.23v-5.72a.25.25 0 0 1 .15-.23.25.25 0 0 1 .27 0l3 2.75a.25.25 0 0 1 .08.18.24.24 0 0 1-.07.18Z"/><path d="m18.296 11.547 1.676-1.676s.46-.46.92 0l1.675 1.676s.46.46 0 .919l-1.676 1.676s-.46.46-.92 0l-1.675-1.676s-.46-.46 0-.92m-16.855-.005 1.676-1.676s.46-.46.92 0l1.675 1.676s.46.46 0 .92l-1.676 1.675s-.46.46-.919 0l-1.676-1.675s-.46-.46 0-.92"/></g></svg>
