<svg xmlns="http://www.w3.org/2000/svg" viewBox="0 0 24 24"><path fill="currentColor" d="M0 11.26a4.16 4.16 0 0 0 1.41 3 .5.5 0 0 0 .35.14.3.3 0 0 0 .14 0 .49.49 0 0 0 .35-.4 15 15 0 0 1 1.26-3.7l.43-.82A.46.46 0 0 0 4 9.25v-4a1.05 1.05 0 0 0-1-1 2.8 2.8 0 0 0-1.18.17A2.65 2.65 0 0 0 0 6.76Zm20.6-.68a.5.5 0 0 0-.64.65 16 16 0 0 1 1.12 5.55 8.3 8.3 0 0 1-.41 2.65.5.5 0 0 0 .16.55.48.48 0 0 0 .56 0 5.24 5.24 0 0 0-.79-9.44Zm-9.1 12.66c4.46 0 8.08-2 8.08-6.47a14.7 14.7 0 0 0-1.2-5.43.52.52 0 0 0-.32-.28.5.5 0 0 0-.43.08 6.16 6.16 0 0 1-3.63 1.1H9a6.16 6.16 0 0 1-3.63-1.1.5.5 0 0 0-.37-.08.52.52 0 0 0-.33.28 14.7 14.7 0 0 0-1.2 5.43c-.05 4.46 3.53 6.47 8.03 6.47m0-10a1.49 1.49 0 0 1 .9 2.69.23.23 0 0 1-.26 0 .23.23 0 0 1-.14-.22v-.49a.5.5 0 0 0-1 0v.49a.23.23 0 0 1-.14.22.23.23 0 0 1-.26 0 1.49 1.49 0 0 1 .9-2.69M16.75.83a.5.5 0 0 0-.5 0L13 2.68a.17.17 0 0 1-.14 0h-2.65a.16.16 0 0 1-.13 0L6.76.88a.47.47 0 0 0-.5 0A.49.49 0 0 0 6 1.3v2.91a.3.3 0 0 1 0 .12A4.16 4.16 0 0 0 5 7a3.76 3.76 0 0 0 4 3.73h5A3.76 3.76 0 0 0 18 7a4.16 4.16 0 0 0-1-2.7.3.3 0 0 1 0-.12V1.26a.48.48 0 0 0-.25-.43M10 6.67a.6.6 0 0 1-.26.07.5.5 0 0 1-.43-.25A1.52 1.52 0 0 0 8 5.75a.5.5 0 0 1-.5-.5.5.5 0 0 1 .5-.5A2.53 2.53 0 0 1 10.15 6a.51.51 0 0 1-.15.67m5-.92a1.52 1.52 0 0 0-1.29.74.5.5 0 0 1-.43.25.6.6 0 0 1-.28-.07.51.51 0 0 1-.15-.67A2.53 2.53 0 0 1 15 4.75a.5.5 0 0 1 .5.5.5.5 0 0 1-.5.5"/></svg>
