<svg xmlns="http://www.w3.org/2000/svg" viewBox="0 0 24 24"><g fill="currentColor"><path d="M4.159 13.59a3.096 3.096 0 0 0 3.33-2.272c.06-.098.098-.686.755-.686h2.665a1.078 1.078 0 0 0 0-2.145H6.353a2.94 2.94 0 0 0-1.616.372 3.92 3.92 0 0 0-1.695 2.234.745.745 0 0 1-.705.529H.24v6.985h2.4a4.06 4.06 0 0 0 3.321 1.773h7.7a2.94 2.94 0 0 0 1.96-.735 2.94 2.94 0 0 0 .91-1.43l.216-.745v-1.655l-8.356.872a1.85 1.85 0 0 1-2.038-1.656v-.304a4.6 4.6 0 0 1-1.822.372h-.539a.735.735 0 0 1-.646-.813.745.745 0 0 1 .813-.695"/><path d="m23.752 12.239-.754-7.387a1.36 1.36 0 0 0-1.5-1.224L8.284 4.979c-.361.03-.695.207-.92.49a1.35 1.35 0 0 0-.305.98l.04.568h3.791c1.957.122 3.049 2.316 1.965 3.95a2.55 2.55 0 0 1-1.965 1.135H8.783a4.6 4.6 0 0 1-.98 1.597l.137 1.175a.4.4 0 0 0 .137.265.38.38 0 0 0 .284.088l14.186-1.48a1.37 1.37 0 0 0 1.205-1.508m-6.338-5.81 2.145-.215a.753.753 0 0 1 .147 1.499l-2.145.215a.735.735 0 0 1-.147-1.46Zm2.939 4.38-4.438.46a.736.736 0 0 1-.079-1.47l4.468-.45a.735.735 0 0 1 .147 1.46Z"/></g></svg>
