<svg xmlns="http://www.w3.org/2000/svg" viewBox="0 0 24 24"><g fill="currentColor"><path d="M5.23 12.22c-1.9 1-3.48 2.3-3.48 4.28C1.75 20.78 6.16 24 12 24s10.25-3.22 10.25-7.5c0-2-1.58-3.26-3.48-4.28a.25.25 0 0 1 0-.44c1.9-1 3.48-2.3 3.48-4.28C22.25 3.22 17.84 0 12 0S1.75 3.22 1.75 7.5c0 2 1.58 3.26 3.48 4.28a.25.25 0 0 1 0 .44m-.32-5.9-.61.37a.24.24 0 0 1-.28 0 .26.26 0 0 1-.09-.27 5.7 5.7 0 0 1 3-3.27.24.24 0 0 1 .28 0 .25.25 0 0 1 .07.27 4 4 0 0 0-.2.68.75.75 0 0 0 1.47.29 3.52 3.52 0 0 1 1.82-2.25 1.1 1.1 0 0 1 .35-.11.56.56 0 0 1 .39.13.52.52 0 0 1 .16.37V4.5a.75.75 0 0 0 1.5 0V2.56a.52.52 0 0 1 .16-.37.56.56 0 0 1 .39-.13 1.1 1.1 0 0 1 .35.11 3.52 3.52 0 0 1 1.82 2.25.75.75 0 0 0 1.47-.29 4 4 0 0 0-.2-.68.25.25 0 0 1 .07-.27.24.24 0 0 1 .28 0 5.7 5.7 0 0 1 3 3.27.26.26 0 0 1-.09.27.24.24 0 0 1-.28 0l-.61-.37a2.23 2.23 0 0 0-2.57.41 2.24 2.24 0 0 1-3 .14 2.38 2.38 0 0 0-3 0 2.24 2.24 0 0 1-3-.14 2.23 2.23 0 0 0-2.65-.44M15 12.25a3 3 0 1 1-3-3 3 3 0 0 1 3 3m-7.52 5a2.24 2.24 0 0 1 3-.14 2.38 2.38 0 0 0 3 0 2.24 2.24 0 0 1 3 .14 2.23 2.23 0 0 0 2.57.41l.61-.37a.24.24 0 0 1 .28 0 .26.26 0 0 1 .09.27 5.7 5.7 0 0 1-3 3.27.24.24 0 0 1-.28 0 .25.25 0 0 1-.07-.27 4 4 0 0 0 .2-.68.75.75 0 1 0-1.47-.29 3.52 3.52 0 0 1-1.82 2.25 1.1 1.1 0 0 1-.35.11.56.56 0 0 1-.39-.13.52.52 0 0 1-.16-.37V19.5a.75.75 0 0 0-1.5 0v1.94a.52.52 0 0 1-.16.37.56.56 0 0 1-.39.13 1.1 1.1 0 0 1-.35-.11 3.52 3.52 0 0 1-1.82-2.25.75.75 0 1 0-1.47.29 4 4 0 0 0 .2.68.25.25 0 0 1-.07.27.24.24 0 0 1-.28 0 5.7 5.7 0 0 1-3-3.27.26.26 0 0 1 .15-.23.24.24 0 0 1 .28 0l.61.37a2.23 2.23 0 0 0 2.59-.42Z"/><path d="M10 12.25a.5.5 0 0 0 1 0 1 1 0 0 1 1-1 .5.5 0 0 0 0-1 2 2 0 0 0-2 2"/></g></svg>
