<svg xmlns="http://www.w3.org/2000/svg" viewBox="0 0 24 24"><g fill="currentColor"><path d="M20.26 11.85a8.33 8.33 0 0 0-2.45-5.8A8.05 8.05 0 0 0 12 3.73a8.4 8.4 0 0 0-5.87 2.52 8.08 8.08 0 0 0-2.39 5.88 8.11 8.11 0 0 0 8.12 8.12 8.34 8.34 0 0 0 8.4-8.4M11 8a1 1 0 0 1 2 0v4.5a1 1 0 1 1-2 0Zm1 9a1.25 1.25 0 0 1 0-2.5 1.25 1.25 0 0 1 0 2.5"/><path d="M5.18 19.3a10 10 0 0 1 0-14.59 1 1 0 0 0-1.41-1.45A11.88 11.88 0 0 0 0 12a12.06 12.06 0 0 0 3.82 8.78 1 1 0 0 0 .68.22 1 1 0 0 0 .73-.31 1 1 0 0 0-.05-1.39M20.21 3.23a1 1 0 0 0-1.42 0 1 1 0 0 0 .05 1.41A9.93 9.93 0 0 1 22 12a10 10 0 0 1-3.18 7.31 1 1 0 1 0 1.36 1.47 12 12 0 0 0 0-17.54Z"/></g></svg>
