<svg xmlns="http://www.w3.org/2000/svg" viewBox="0 0 24 24"><path fill="currentColor" d="M19.78 12.08v4.5H4.26v-4.51H4a6.4 6.4 0 0 1-3-.73v10.24a2 2 0 0 0 2 2h18a2 2 0 0 0 2-2V11.35a6.3 6.3 0 0 1-3 .73Zm-11 9.5a.75.75 0 0 1-1.5 0v-3a.75.75 0 0 1 1.5 0Zm8 0a.75.75 0 0 1-1.5 0v-3a.75.75 0 0 1 1.5 0Zm-3.04-21h-3.45L9.23 4.83h5.58zm9.51 4.25-1.14-3.56a1.09 1.09 0 0 0-1-.69h-5.82l1.06 4.25Zm.48 1.5H.29L0 7.21a3 3 0 0 0 1.15 2.44l.12.1.31.19.13.07.17.08H2l.16.07.14.05.18.06H4.2a4.13 4.13 0 0 0 3.21-1.19.74.74 0 0 1 1.19 0c1.49 2 5.33 2 6.81 0a.74.74 0 0 1 1.19 0 4.17 4.17 0 0 0 3.24 1.5h.82a2.5 2.5 0 0 0 .38-.06h.15l.37-.11.15-.05.35-.16.15-.08.32-.2.14-.1A3 3 0 0 0 24 7.22ZM8.74.58h-5.8a1.1 1.1 0 0 0-1 .69L.78 4.83h6.9Z"/></svg>
