<svg xmlns="http://www.w3.org/2000/svg" viewBox="0 0 24 24"><path fill="currentColor" d="M14.94.19a.52.52 0 0 0-.55.22l-2 3.15a.51.51 0 0 0 .43.77h2.68a.5.5 0 0 1 .46.29.51.51 0 0 1-.09.54l-8.26 9.05a.49.49 0 0 1-.61.09.5.5 0 0 1-.18-.63l2.72-5.13a.51.51 0 0 0 0-.48.48.48 0 0 0-.42-.23H5.65a.51.51 0 0 1-.44-.26.47.47 0 0 1 0-.5l4-6a.5.5 0 0 0 0-.56.51.51 0 0 0-.59-.2 12 12 0 1 0 6.32-.12m-4.53 13.54a.53.53 0 0 1 .6-.08 2.07 2.07 0 0 0 2.46-.35 2.09 2.09 0 0 0 .23-2.67.5.5 0 0 1 0-.59l.3-.41a.5.5 0 0 1 .79 0 3.58 3.58 0 0 1-4.68 5.26.52.52 0 0 1-.24-.37.49.49 0 0 1 .15-.41Z"/></svg>
