<svg xmlns="http://www.w3.org/2000/svg" viewBox="0 0 24 24"><g fill="currentColor"><path d="M17.16.19a1 1 0 0 0-.82.42l-3.87 5.55a.25.25 0 0 0 .17.39 5.5 5.5 0 0 1 2.5 1 .24.24 0 0 0 .32 0l1.24-1.31a.75.75 0 0 1 1.06 0 .77.77 0 0 1 0 1.07l-1.25 1.24a.26.26 0 0 0 0 .32 5.44 5.44 0 0 1 .95 2.51.26.26 0 0 0 .15.2.25.25 0 0 0 .25 0l5.56-3.9a1 1 0 0 0 .42-.82C23.81 4.54 19.46.19 17.16.19m-8.3 16.3a.24.24 0 0 0-.32 0L7 18.06A.75.75 0 0 1 6 17l1.53-1.53a.26.26 0 0 0 0-.32 5.5 5.5 0 0 1-1-2.5.26.26 0 0 0-.15-.2.23.23 0 0 0-.24 0L.61 16.34a1 1 0 0 0-.42.82c0 2.3 4.35 6.65 6.65 6.65a1 1 0 0 0 .82-.42l3.89-5.56a.23.23 0 0 0 0-.24.24.24 0 0 0-.2-.15 5.5 5.5 0 0 1-2.49-.95m7.02-.61a5.5 5.5 0 0 1-2.34 1.38.24.24 0 0 0-.17.18.27.27 0 0 0 .06.24l4.23 4.22a1 1 0 0 0 1.7-.71v-1.83h1.83a1 1 0 0 0 .71-1.7l-4.23-4.23a.23.23 0 0 0-.24-.06.23.23 0 0 0-.17.17 5.45 5.45 0 0 1-1.38 2.34"/><path d="M14.81 9.16a4.09 4.09 0 0 0-5.65 0 4 4 0 1 0 5.65 5.66 4 4 0 0 0 0-5.66"/></g></svg>
