<svg xmlns="http://www.w3.org/2000/svg" viewBox="0 0 24 24"><g fill="currentColor"><path d="M8.38 12A3.62 3.62 0 1 0 12 8.38 3.62 3.62 0 0 0 8.38 12M6.69 8.65a.49.49 0 0 0 .4.21.51.51 0 0 0 .4-.2A5.63 5.63 0 0 1 12 6.38h9.73a.51.51 0 0 0 .44-.26.5.5 0 0 0 0-.5A12 12 0 0 0 3.49 3.57a.5.5 0 0 0-.05.64Z"/><path d="M23.55 8.75a.5.5 0 0 0-.48-.37h-5.81a.49.49 0 0 0-.43.25.52.52 0 0 0 0 .51 5.59 5.59 0 0 1-2.45 7.94.34.34 0 0 0-.12.12l-3.33 6.4a.23.23 0 0 0 0 .24.26.26 0 0 0 .2.13h.86A12 12 0 0 0 23.55 8.75m-12.09 9.06a.47.47 0 0 0-.37-.27 5.61 5.61 0 0 1-4.7-5.72.53.53 0 0 0-.1-.32L2.36 6.12a.51.51 0 0 0-.43-.2.5.5 0 0 0-.41.26 12 12 0 0 0 6.79 17.23.51.51 0 0 0 .6-.25l2.54-4.9a.48.48 0 0 0 .01-.45"/></g></svg>
