<svg xmlns="http://www.w3.org/2000/svg" viewBox="0 0 24 24"><g fill="currentColor"><path d="M24 11.11a5.77 5.77 0 0 0-5.22-5.95.25.25 0 0 1-.19-.16 7.68 7.68 0 0 0-14.1 2.3.25.25 0 0 1-.22.19A4.67 4.67 0 0 0 .62 9.77 4.57 4.57 0 0 0 0 12.22a4.28 4.28 0 0 0 1.24 3.1A4.5 4.5 0 0 0 3 16.38a1 1 0 0 0 1.24-.86 1 1 0 0 0-.66-1 2.6 2.6 0 0 1-1-.58A2.35 2.35 0 0 1 2 12.11a2.58 2.58 0 0 1 2.59-2.59 2.5 2.5 0 0 1 .53.06 1 1 0 0 0 1.2-1c.09-5.73 8.3-7.37 10.82-2a1 1 0 0 0 .94.57 3.75 3.75 0 0 1 3 1.31 3.9 3.9 0 0 1 .9 2.81 3.43 3.43 0 0 1-1.48 2.67 1 1 0 0 0 1.14 1.63A5.41 5.41 0 0 0 24 11.11"/><path d="M19 16.2a6.5 6.5 0 1 0-6.5 6.5 6.51 6.51 0 0 0 6.5-6.5m-4-.75A.75.75 0 0 1 15 17h-1.5a.25.25 0 0 0-.25.25v1.5a.75.75 0 0 1-1.5 0V17.2a.25.25 0 0 0-.25-.2H10a.75.75 0 0 1 0-1.5h1.5a.25.25 0 0 0 .25-.25V13.7a.75.75 0 0 1 1.5 0v1.5a.25.25 0 0 0 .25.25Z"/></g></svg>
