<svg xmlns="http://www.w3.org/2000/svg" viewBox="0 0 24 24"><g fill="currentColor"><path d="M23.11 14a1.94 1.94 0 0 1-1.11-.34v1.84a.5.5 0 0 1-.5.5h-19a.5.5 0 0 1-.5-.5V2.59A.55.55 0 0 1 2.5 2h8.05a7.2 7.2 0 0 1 1.73-2H2.5A2.55 2.55 0 0 0 0 2.59V17.5a3 3 0 0 0 3 3h7.25a.25.25 0 0 1 .25.25v1a.25.25 0 0 1-.25.25H5a1 1 0 0 0 0 2h14a1 1 0 0 0 0-2h-6.25a.25.25 0 0 1-.25-.25v-1a.25.25 0 0 1 .25-.25H21a3 3 0 0 0 3-3v-3.71a2 2 0 0 1-.89.21"/><path d="M9.61 5.5v-.4a3.2 3.2 0 0 0-.75-.1 2.8 2.8 0 0 0-1 .17.26.26 0 0 1-.24 0A1.5 1.5 0 0 1 7.11 4a.75.75 0 1 0-1.5 0 3 3 0 0 0 .78 2 .24.24 0 0 1 0 .31 3 3 0 0 0-.54 1.44.23.23 0 0 0 .07.19.23.23 0 0 0 .2.06h4a6.9 6.9 0 0 1-.51-2.5m4.49 7.89a2.69 2.69 0 0 0-2.25-2.06v-.7a7 7 0 0 1-1.14-1.36h-4.1c-1.26 0-1.48-.73-1.51-.89a.76.76 0 0 0-.87-.6.75.75 0 0 0-.61.86 2.67 2.67 0 0 0 2.24 2.06v.63a2.68 2.68 0 0 0-2.25 2.06.75.75 0 0 0 .6.86h.14a.77.77 0 0 0 .74-.6 1.13 1.13 0 0 1 1-.84 3 3 0 0 0 5.59 0 1.18 1.18 0 0 1 1 .83.76.76 0 0 0 .74.62h.12a.76.76 0 0 0 .56-.87m9.61-2.1L21 8.62A5.5 5.5 0 1 0 19.62 10l2.67 2.68a1 1 0 0 0 1.42 0 1 1 0 0 0 0-1.39M13 5.5A3.5 3.5 0 1 1 16.5 9 3.5 3.5 0 0 1 13 5.5"/></g></svg>
