<svg xmlns="http://www.w3.org/2000/svg" viewBox="0 0 24 24"><g fill="currentColor"><path d="m17.85 15.54-4.64-8.83a1.37 1.37 0 0 0-2.42 0l-4.64 8.83a1.34 1.34 0 0 0 0 1.33 1.38 1.38 0 0 0 1.17.65h9.26a1.38 1.38 0 0 0 1.17-.65 1.34 1.34 0 0 0 .1-1.33M11.25 10a.75.75 0 0 1 1.5 0v3a.75.75 0 0 1-1.5 0Zm.75 6.25a1 1 0 1 1 1-1 1 1 0 0 1-1 1"/><path d="m15.32 2.15 4.53 4.53A.5.5 0 0 1 20 7v14.5a.5.5 0 0 1-.5.5h-15a.5.5 0 0 1-.5-.5v-19a.5.5 0 0 1 .5-.5H15a.5.5 0 0 1 .32.15M15.59 0H4a2 2 0 0 0-2 2v20a2 2 0 0 0 2 2h16a2 2 0 0 0 2-2V6.41a1 1 0 0 0-.29-.7L16.29.29a1 1 0 0 0-.7-.29"/></g></svg>
