<svg xmlns="http://www.w3.org/2000/svg" viewBox="0 0 24 24"><g fill="currentColor"><path d="M10.5 3.19 7.32.47A2 2 0 0 0 6.05 0H2a2 2 0 0 0-2 2v11a2 2 0 0 0 2 2h4.14a1 1 0 1 0 0-2H2V2h4l3.18 2.68v1.07a1 1 0 0 0 2 0V4.68a2 2 0 0 0-.68-1.49m5.5 9.36-2.41-2.41a1 1 0 0 0 .67-.94 1 1 0 0 0-1-1h-2a1 1 0 0 0-.7 1.7l4.02 4.1A1 1 0 0 0 16 12.55"/><path d="M9.9 11a1 1 0 0 0-1.41 1.41l2.41 2.41a1 1 0 0 0-.68.94 1 1 0 0 0 1 1h2a1 1 0 0 0 .71-1.7Z"/><path d="m23.32 12.23-3.18-2.72A2 2 0 0 0 18.87 9h-1.68a1 1 0 0 0 0 2h1.65L22 13.72V22h-7.22v-2.71a1 1 0 0 0-2 0V22a2 2 0 0 0 2 2H22a2 2 0 0 0 2-2v-8.28a2 2 0 0 0-.68-1.49"/></g></svg>
