<svg xmlns="http://www.w3.org/2000/svg" viewBox="0 0 24 24"><path fill="currentColor" d="M7 22.74A1.5 1.5 0 0 0 8.43 24h7.14a1.5 1.5 0 0 0 1.48-1.26l1.74-11.29a.49.49 0 0 1 .49-.43h1.21a1 1 0 1 0 0-2h-1.16a.49.49 0 0 1-.48-.41 6.93 6.93 0 0 0-2.58-4.13 1 1 0 0 0-1.22 1.58 4.9 4.9 0 0 1 1.66 2.29.48.48 0 0 1-.06.45.49.49 0 0 1-.41.22h-2.31a.49.49 0 0 1-.39-.19.47.47 0 0 1-.1-.41l1.14-5.78a.51.51 0 0 1 .72-.35l3.25 1.62a1 1 0 1 0 .89-1.78L15.6.21a2 2 0 0 0-1.76 0 2 2 0 0 0-1.09 1.4l-1.39 7a.49.49 0 0 1-.49.41H7.76a.5.5 0 0 1-.41-.22.51.51 0 0 1-.06-.45 5 5 0 0 1 3.46-3.17 1 1 0 0 0-.5-1.94 7 7 0 0 0-5.09 5.38.5.5 0 0 1-.49.4H3.51a1 1 0 1 0 0 2h1.21a.49.49 0 0 1 .49.43ZM16.25 11a.53.53 0 0 1 .38.18.5.5 0 0 1 .11.4l-.31 2a.49.49 0 0 1-.49.42H13a.49.49 0 0 1-.38-.18.52.52 0 0 1-.11-.41l.39-2a.49.49 0 0 1 .49-.41Zm-5.85 2.6a.49.49 0 0 1-.49.41H8.06a.49.49 0 0 1-.49-.42l-.31-2a.5.5 0 0 1 .11-.4.53.53 0 0 1 .38-.19h2.55a.5.5 0 0 1 .38.18.53.53 0 0 1 .11.42Z"/></svg>
