<svg xmlns="http://www.w3.org/2000/svg" viewBox="0 0 24 24"><path fill="currentColor" d="M20.59 8.71a.25.25 0 0 1-.09-.19 8.5 8.5 0 0 0-17 0 .28.28 0 0 1-.1.21A8.49 8.49 0 0 0 8.5 24a8.4 8.4 0 0 0 3.4-.72.23.23 0 0 1 .2 0 8.4 8.4 0 0 0 3.4.72 8.49 8.49 0 0 0 5.09-15.29m-8.45 12.17a.28.28 0 0 1-.28 0 6.5 6.5 0 0 1-2.7-4 .24.24 0 0 1 .08-.24.23.23 0 0 1 .24-.05 8.34 8.34 0 0 0 5 0 .23.23 0 0 1 .24.05.24.24 0 0 1 .08.24 6.5 6.5 0 0 1-2.66 4m2.71-6.76a.26.26 0 0 1-.14.28 6.42 6.42 0 0 1-5.42 0 .26.26 0 0 1-.14-.28 6.55 6.55 0 0 1 2.71-4 .28.28 0 0 1 .28 0 6.55 6.55 0 0 1 2.71 4M7.5 12.65a.28.28 0 0 1-.19.16.24.24 0 0 1-.24-.08 6.5 6.5 0 0 1-1.42-2.85.26.26 0 0 1 .14-.28A6.5 6.5 0 0 1 8.5 9a6 6 0 0 1 .87.06.25.25 0 0 1 .2.17.23.23 0 0 1-.06.25 8.6 8.6 0 0 0-2.01 3.17m7-3.17a.23.23 0 0 1-.06-.25.25.25 0 0 1 .2-.17A6 6 0 0 1 15.5 9a6.5 6.5 0 0 1 2.71.6.26.26 0 0 1 .14.28 6.5 6.5 0 0 1-1.42 2.85.24.24 0 0 1-.24.08.28.28 0 0 1-.19-.16 8.6 8.6 0 0 0-2.01-3.17ZM12 2a6.51 6.51 0 0 1 6.34 5.1.24.24 0 0 1-.08.24.23.23 0 0 1-.24 0 8.37 8.37 0 0 0-5.92.33.23.23 0 0 1-.2 0A8.37 8.37 0 0 0 6 7.39a.23.23 0 0 1-.24 0 .24.24 0 0 1-.08-.24A6.51 6.51 0 0 1 12 2M8.5 22a6.5 6.5 0 0 1-4.93-10.73.24.24 0 0 1 .24-.08.28.28 0 0 1 .19.16 8.45 8.45 0 0 0 2.9 3.93.28.28 0 0 1 .1.21 8.46 8.46 0 0 0 2.51 6 .23.23 0 0 1 .06.25.25.25 0 0 1-.2.17 6 6 0 0 1-.87.09m7 0a6 6 0 0 1-.87-.06.25.25 0 0 1-.2-.17.23.23 0 0 1 .06-.25 8.46 8.46 0 0 0 2.51-6 .28.28 0 0 1 .1-.21 8.45 8.45 0 0 0 2.9-3.96.28.28 0 0 1 .19-.16.24.24 0 0 1 .24.08A6.5 6.5 0 0 1 15.5 22"/></svg>
