<svg xmlns="http://www.w3.org/2000/svg" viewBox="0 0 24 24"><g fill="currentColor"><path d="M21 2.5H3a3 3 0 0 0-3 3v13a3 3 0 0 0 3 3h18a3 3 0 0 0 3-3v-13a3 3 0 0 0-3-3m1 16a1 1 0 0 1-1 1H3a1 1 0 0 1-1-1v-13a1 1 0 0 1 1-1h18a1 1 0 0 1 1 1Z"/><path d="M12 14a4 4 0 1 0-4-4 4 4 0 0 0 4 4m0-2a2 2 0 0 1-2-2 2 2 0 0 1 .14-.74.26.26 0 0 1 .15-.14.28.28 0 0 1 .2 0 5.94 5.94 0 0 0 2.72.66 5 5 0 0 0 .53 0 .28.28 0 0 1 .18.06.25.25 0 0 1 .08.16 2 2 0 0 1-2 2m0 3a6.63 6.63 0 0 0-4.88 2.16.5.5 0 0 0 .37.84h9a.5.5 0 0 0 .37-.84A6.63 6.63 0 0 0 12 15"/></g></svg>
