<svg xmlns="http://www.w3.org/2000/svg" viewBox="0 0 24 24"><g fill="currentColor"><path d="m23.94 22.09-1.43-5A1.5 1.5 0 0 0 21.07 16H2.93a1.5 1.5 0 0 0-1.44 1.09l-1.43 5A1.5 1.5 0 0 0 1.5 24h21a1.5 1.5 0 0 0 1.44-1.91M7 22c-1.68 0-3-.88-3-2s1.32-2 3-2 3 .88 3 2-1.31 2-3 2m10 0c-1.68 0-3-.88-3-2s1.32-2 3-2 3 .88 3 2-1.32 2-3 2M9 7a3 3 0 1 0 6 0 3 3 0 1 0-6 0"/><path d="M16.69 14.5a.51.51 0 0 0 .45-.73 5.67 5.67 0 0 0-10.28 0 .51.51 0 0 0 .45.73Zm1.49-10.16a.47.47 0 0 1-.33-.3A6.25 6.25 0 0 0 6.16 4a.53.53 0 0 1-.34.31 2.5 2.5 0 0 0 .64 4.91h1a.5.5 0 0 0 .5-.5V5a1.1 1.1 0 0 1 .08-.39 4.25 4.25 0 0 1 7.84 0A1.1 1.1 0 0 1 16 5v3.75a.5.5 0 0 0 .5.5h1a2.5 2.5 0 0 0 .68-4.91"/></g></svg>
