<svg xmlns="http://www.w3.org/2000/svg" viewBox="0 0 24 24"><path fill="currentColor" d="M22.5 7.94a.5.5 0 0 1 .37-.49A1.49 1.49 0 0 0 24 6V2a2 2 0 0 0-2-2H2a2 2 0 0 0-2 2v4a1.49 1.49 0 0 0 1.13 1.45.5.5 0 0 1 .37.49V21.5a.5.5 0 0 1-.5.5 1 1 0 0 0 0 2h22a1 1 0 0 0 0-2 .5.5 0 0 1-.5-.5ZM2.5 5.5A.5.5 0 0 1 2 5V3.46a.25.25 0 0 1 .16-.23.25.25 0 0 1 .28.07L4 5.09a.23.23 0 0 1 0 .26.25.25 0 0 1-.23.15Zm1.81-3.09a.25.25 0 0 1 0-.26A.25.25 0 0 1 4.5 2h4.64a.24.24 0 0 1 .23.16.23.23 0 0 1-.06.27L7 4.68a.46.46 0 0 1-.37.14.53.53 0 0 1-.35-.17Zm7.34.59a.52.52 0 0 1 .7 0l2.2 2.11a.23.23 0 0 1 .06.27.25.25 0 0 1-.23.16H9.62a.25.25 0 0 1-.23-.16.23.23 0 0 1 .06-.27Zm3-.53a.23.23 0 0 1-.06-.27.24.24 0 0 1 .27-.2h4.64a.25.25 0 0 1 .22.15.25.25 0 0 1 0 .26l-1.95 2.24a.53.53 0 0 1-.35.17.46.46 0 0 1-.37-.14Zm6.87.87a.25.25 0 0 1 .28-.07.25.25 0 0 1 .16.23V5a.5.5 0 0 1-.5.5h-1.24a.25.25 0 0 1-.22-.15.23.23 0 0 1 0-.26Zm-9.38 17a.49.49 0 0 1 .64 0l1.49 1.24a.25.25 0 0 1 .07.28.25.25 0 0 1-.23.16h-3.3a.25.25 0 0 1-.23-.16.25.25 0 0 1 .07-.28ZM16.65 22a.24.24 0 0 1-.21-.11.23.23 0 0 1 0-.24 1 1 0 0 0-.28-1.17l-2.46-2.05a.49.49 0 0 1-.18-.38v-2.57a.25.25 0 0 1 .09-.2.27.27 0 0 1 .21 0h.2a1 1 0 0 0 .89-.55 1 1 0 0 0-.44-1.34L12 12.14a.48.48 0 0 1-.28-.43A2.25 2.25 0 1 0 9.5 14a2.3 2.3 0 0 0 .94-.2.47.47 0 0 1 .43 0l.35.18a.5.5 0 0 1 .28.45v3.62a.49.49 0 0 1-.18.38l-2.46 2.05a1 1 0 0 0-.28 1.17.23.23 0 0 1 0 .24.24.24 0 0 1-.21.11H4a.5.5 0 0 1-.5-.5V8a.5.5 0 0 1 .5-.5h16a.5.5 0 0 1 .5.5v13.5a.5.5 0 0 1-.5.5Z"/></svg>
