<svg xmlns="http://www.w3.org/2000/svg" viewBox="0 0 24 24"><path fill="currentColor" d="M8.82 19.79a1 1 0 0 0-1.42 0l-1.29 1.29-1.29-1.29a1 1 0 0 0-1.35-.06l-3 2.5a1 1 0 0 0-.13 1.41 1 1 0 0 0 1.41.13l2.3-1.92 1.35 1.36a1 1 0 0 0 1.42 0l1.29-1.3.79.8a1 1 0 0 0 1.42-1.42ZM23.78 3.36a2.9 2.9 0 0 0-1.38-1.72L19.49.07a.51.51 0 0 0-.68.19l-8 14.46a.5.5 0 0 0 0 .38.52.52 0 0 0 .24.3l2.48 1.37a.5.5 0 0 0 .24.06.49.49 0 0 0 .44-.26L21.46 3.4a.9.9 0 0 1 .39.52.87.87 0 0 1-.07.67l-3.64 6.61a1 1 0 0 0 .39 1.36 1 1 0 0 0 1.36-.39l3.64-6.61a2.9 2.9 0 0 0 .25-2.2M13.1 17.54l-2.48-1.36a.52.52 0 0 0-.51 0 .49.49 0 0 0-.23.44l.1 2.75a.47.47 0 0 0 .26.42.5.5 0 0 0 .49 0l2.38-1.39a.47.47 0 0 0 .24-.43.52.52 0 0 0-.25-.43"/></svg>
