<svg xmlns="http://www.w3.org/2000/svg" viewBox="0 0 24 24"><g fill="currentColor"><path d="M22.75 18.58h-5.4a.24.24 0 0 1-.21-.11.24.24 0 0 1 0-.23 10.3 10.3 0 0 0 .64-3.94v-1.47a.25.25 0 0 1 .25-.25h1.77a1 1 0 0 0 0-2H18a.25.25 0 0 1-.25-.25V7.54a2 2 0 1 1 4 0 1 1 0 0 0 2 0 4 4 0 0 0-8 0v2.79a.25.25 0 0 1-.25.25h-1.76a1 1 0 0 0 0 2h1.76a.25.25 0 0 1 .25.25v1.47c0 2.84-.68 4.28-2 4.28a1 1 0 0 0 0 2h9a1 1 0 0 0 0-2"/><path d="M12.22 2.06A.23.23 0 0 1 12.4 2h.35a1 1 0 0 0 0-2C1.17 0 .25 10.53.25 12s.91 12 12.5 12a1 1 0 0 0 0-2h-.35a.27.27 0 0 1-.19-.08 16.6 16.6 0 0 1-2.62-3.3.25.25 0 0 1 0-.24.26.26 0 0 1 .22-.13h1.54a1 1 0 0 0 0-2H8.76a.25.25 0 0 1-.24-.18 14 14 0 0 1-.52-2.8.26.26 0 0 1 .07-.19.25.25 0 0 1 .22-.08h2.06a1 1 0 1 0 0-2H8.29a.25.25 0 0 1-.18-.08.26.26 0 0 1-.11-.19 14 14 0 0 1 .48-2.82.25.25 0 0 1 .24-.18h2.59a1 1 0 0 0 0-2h-1.5a.26.26 0 0 1-.22-.13.28.28 0 0 1 0-.25 18 18 0 0 1 2.63-3.29M8.64 20.84a.24.24 0 0 1 0 .3.23.23 0 0 1-.29.07 10.1 10.1 0 0 1-3.52-2.52.27.27 0 0 1 0-.27.25.25 0 0 1 .17-.15h2a.25.25 0 0 1 .23.15 14 14 0 0 0 1.41 2.42M6.43 16a.25.25 0 0 1 0 .22.23.23 0 0 1-.19.09H3.38a.25.25 0 0 1-.23-.15 10 10 0 0 1-.82-2.84.26.26 0 0 1 .06-.19.25.25 0 0 1 .19-.13h3.21a.25.25 0 0 1 .25.23A16.4 16.4 0 0 0 6.43 16M6 10.77a.25.25 0 0 1-.25.23H2.58a.27.27 0 0 1-.19-.08.3.3 0 0 1-.06-.2 10 10 0 0 1 .82-2.84.25.25 0 0 1 .23-.15h2.81a.23.23 0 0 1 .19.09.25.25 0 0 1 0 .22A16.4 16.4 0 0 0 6 10.77m-1-5a.25.25 0 0 1-.23-.15.27.27 0 0 1 0-.27 10.1 10.1 0 0 1 3.57-2.56.23.23 0 0 1 .29.07.24.24 0 0 1 0 .3 14 14 0 0 0-1.38 2.42.25.25 0 0 1-.25.15Z"/></g></svg>
