<svg xmlns="http://www.w3.org/2000/svg" viewBox="0 0 24 24"><path fill="currentColor" d="M21.53 8.25a.25.25 0 0 1-.14-.32 4.08 4.08 0 0 0-5.3-5.31.25.25 0 0 1-.33-.13 4.1 4.1 0 0 0-7.52 0 .25.25 0 0 1-.33.13 4.08 4.08 0 0 0-5.3 5.31.25.25 0 0 1-.14.32 4.08 4.08 0 0 0 0 7.5.25.25 0 0 1 .14.32 4.08 4.08 0 0 0 5.3 5.31.25.25 0 0 1 .33.13 4.1 4.1 0 0 0 7.52 0 .25.25 0 0 1 .33-.13 4.08 4.08 0 0 0 5.3-5.31.25.25 0 0 1 .14-.32 4.08 4.08 0 0 0 0-7.5M17 7.08l-3.2 4.53a.25.25 0 0 0 0 .26.25.25 0 0 0 .2.13h1a1 1 0 0 1 0 2h-1.74a.25.25 0 0 0-.25.25v1a.25.25 0 0 0 .25.25H15a1 1 0 0 1 0 2h-1.74a.25.25 0 0 0-.25.24v1.75a1 1 0 1 1-2 0v-1.75a.25.25 0 0 0-.25-.24h-1.7a1 1 0 0 1 0-2h1.71a.25.25 0 0 0 .25-.25v-1a.25.25 0 0 0-.25-.25H9.06a1 1 0 0 1 0-2h1a.25.25 0 0 0 .22-.13.25.25 0 0 0 0-.26L7.07 7.08A1 1 0 1 1 8.7 5.94l3.11 4.44a.27.27 0 0 0 .21.1.26.26 0 0 0 .2-.1l3.11-4.44A1 1 0 1 1 17 7.08"/></svg>
