<svg xmlns="http://www.w3.org/2000/svg" viewBox="0 0 24 24"><g fill="currentColor"><path d="m8.75 21.2 2.51 2.51a1 1 0 0 0 1.41 0 1 1 0 0 0 0-1.42l-2.5-2.5a.26.26 0 0 1 0-.31 5.5 5.5 0 1 0-10-1.7 5.45 5.45 0 0 0 4.08 4.11 5.55 5.55 0 0 0 4.23-.72.24.24 0 0 1 .27.03M5.5 20A3.5 3.5 0 1 1 9 16.53 3.5 3.5 0 0 1 5.5 20"/><path d="M24 18.5V4.41A2 2 0 0 0 23.41 3L21 .59A2 2 0 0 0 19.59 0H8a2 2 0 0 0-2 2v7.3a.24.24 0 0 0 .22.24 8 8 0 0 1 1.46.31.24.24 0 0 0 .32-.23V2.5a.5.5 0 0 1 .5-.5h10.88a.47.47 0 0 1 .35.15l2.12 2.12a.47.47 0 0 1 .15.35V18a.5.5 0 0 1-.5.5h-9.12a.25.25 0 0 0-.23.17 6 6 0 0 1-.42 1 .33.33 0 0 0 0 .24l.46.45a.47.47 0 0 0 .29.13H22a2 2 0 0 0 2-1.99"/><path d="M11.27 12.48a1 1 0 0 0 1-.39l1.65-2.32a.24.24 0 0 1 .33-.07l1.51.9a1 1 0 0 0 1.24-.15l.1-.12 2.69-3.74a1 1 0 1 0-1.62-1.16l-2 2.8a.25.25 0 0 1-.33.06l-1.52-.9a1 1 0 0 0-1.32.28l-2.31 3.26a.9.9 0 0 0-.17.59.5.5 0 0 0 0 .13 8 8 0 0 1 .64.77Z"/></g></svg>
