<svg xmlns="http://www.w3.org/2000/svg" viewBox="0 0 24 24"><g fill="currentColor"><path d="M8.71 21.39a.26.26 0 0 0 .23-.1A.27.27 0 0 0 9 21a7.9 7.9 0 0 1-.8-3 .27.27 0 0 0-.21-.24 12.8 12.8 0 0 1-6.16-2.21.25.25 0 0 0-.26 0 .24.24 0 0 0-.14.22v1.73c-.05 1.9 3.08 3.5 7.28 3.89M1.38 13c0 1.77 2.73 3.27 6.52 3.8a.25.25 0 0 0 .19-.05.22.22 0 0 0 .09-.17 7.9 7.9 0 0 1 .88-2.81.25.25 0 0 0 0-.24.24.24 0 0 0-.2-.12c-2.86-.26-5.51-1.05-7.08-2.32a.25.25 0 0 0-.26 0 .24.24 0 0 0-.14.22Zm9.5-4c-3.51 0-7.16-.83-9.1-2.41a.25.25 0 0 0-.26 0 .24.24 0 0 0-.14.22V8.5c0 2.05 3.67 3.75 8.4 4a.22.22 0 0 0 .2-.09 8 8 0 0 1 9.31-2.22.25.25 0 0 0 .27-.05 2.26 2.26 0 0 0 .82-1.61V6.78a.25.25 0 0 0-.15-.22.25.25 0 0 0-.26 0C18 8.17 14.38 9 10.88 9"/><path d="M1.38 4a9.5 4 0 1 0 19 0 9.5 4 0 1 0-19 0m14.74 7a6.5 6.5 0 1 0 6.5 6.5 6.51 6.51 0 0 0-6.5-6.5m0 11a4.5 4.5 0 0 1-2.12-.53.26.26 0 0 1-.13-.19.25.25 0 0 1 .07-.21l5.73-5.73a.26.26 0 0 1 .21-.07.25.25 0 0 1 .18.13 4.4 4.4 0 0 1 .53 2.1 4.5 4.5 0 0 1-4.47 4.5m0-9a4.5 4.5 0 0 1 2.1.53.26.26 0 0 1 .13.19.25.25 0 0 1-.07.21l-5.73 5.73a.26.26 0 0 1-.21.07.23.23 0 0 1-.18-.13 4.4 4.4 0 0 1-.54-2.1 4.51 4.51 0 0 1 4.5-4.5"/></g></svg>
