<svg xmlns="http://www.w3.org/2000/svg" viewBox="0 0 24 24"><path fill="currentColor" d="M10.37 19.31a1.53 1.53 0 0 0 1.06.44 1.5 1.5 0 0 0 1.06-.44l7.15-7.15a.25.25 0 0 1 .36 0l.88.89a1 1 0 0 0 1.68-.47L24 6.93a1 1 0 0 0-.29-.93 1 1 0 0 0-.95-.27l-5.66 1.4a1 1 0 0 0-.72.7 1 1 0 0 0 .26 1l.88.89a.22.22 0 0 1 .07.17.24.24 0 0 1-.07.18l-7.15 7.15a1.51 1.51 0 0 0 0 2.09m1.17-14.65-7.39 7a.25.25 0 0 1-.35 0L3.12 11a1 1 0 0 0-1.68.47L0 17.07a1 1 0 0 0 .29.93 1 1 0 0 0 1 .27l5.61-1.4a1 1 0 0 0 .46-1.68L6.27 14.1a.27.27 0 0 1-.07-.18.23.23 0 0 1 .08-.17l7.32-6.91a1.5 1.5 0 0 0-2.06-2.18"/></svg>
