<svg xmlns="http://www.w3.org/2000/svg" viewBox="0 0 24 24"><g fill="currentColor"><path d="M22.407 17.494a.28.28 0 0 0-.153-.241.28.28 0 0 0-.296 0c-2.125 1.73-6.124 2.64-9.958 2.64s-7.844-.91-9.958-2.64a.28.28 0 0 0-.296 0 .28.28 0 0 0-.153.24v1.885C1.593 21.8 6.249 23.76 12 23.76s10.407-1.96 10.407-4.382Z"/><path d="M1.593 14.481c0 2.421 4.656 4.382 10.407 4.382s10.407-1.96 10.407-4.382v-1.884a.28.28 0 0 0-.153-.241.28.28 0 0 0-.296 0c-2.125 1.73-6.124 2.64-9.958 2.64s-7.844-.91-9.958-2.64a.28.28 0 0 0-.296 0 .28.28 0 0 0-.153.241Z"/><path d="M12 10.1c-3.834 0-7.844-.91-9.958-2.64a.28.28 0 0 0-.296 0 .28.28 0 0 0-.153.174v1.918c0 2.42 4.656 4.381 10.407 4.381s10.407-1.96 10.407-4.381V7.635a.28.28 0 0 0-.153-.241.28.28 0 0 0-.296 0C19.833 9.19 15.834 10.099 12 10.099"/><path d="M1.593 4.622c0 3.373 8.673 5.481 15.61 3.795 3.22-.783 5.204-2.23 5.204-3.795 0-3.373-8.672-5.481-15.61-3.795-3.22.783-5.204 2.23-5.204 3.795"/></g></svg>
