<svg xmlns="http://www.w3.org/2000/svg" viewBox="0 0 24 24"><path fill="currentColor" d="M15 3.5a1 1 0 0 0 1-1V1a1 1 0 0 0-2 0v1.5a1 1 0 0 0 1 1m4.93-.04a1 1 0 1 0-1.41-1.41l-1.07 1.06a1 1 0 0 0 0 1.42 1 1 0 0 0 .71.29 1 1 0 0 0 .71-.29ZM21 6h-1.5a1 1 0 0 0 0 2H21a1 1 0 0 0 0-2m-3.52 3.34a.7.7 0 0 0 0-.14.23.23 0 0 0-.22-.2 2 2 0 0 1-2-2 .5.5 0 0 0-.6-.54 2 2 0 0 1-2.4-2 .33.33 0 0 0-.13-.26.32.32 0 0 0-.28 0 4.26 4.26 0 0 0-1.75 1 .52.52 0 0 1-.68 0A4.38 4.38 0 0 0 6.43 4C4 4 2 6.35 2 9.34a8.88 8.88 0 0 0 1.87 5.9.51.51 0 0 1 .09.49 13.2 13.2 0 0 0-.75 4.45A14.4 14.4 0 0 0 3.5 23a1.3 1.3 0 0 0 1.27 1 1.33 1.33 0 0 0 1.32-1.18C6.39 20.06 8 18 9.75 18s3.36 2.08 3.66 4.85A1.33 1.33 0 0 0 14.73 24 1.3 1.3 0 0 0 16 23a14.4 14.4 0 0 0 .27-2.79 13.2 13.2 0 0 0-.75-4.45.51.51 0 0 1 .09-.49 8.88 8.88 0 0 0 1.87-5.93"/></svg>
