<svg xmlns="http://www.w3.org/2000/svg" viewBox="0 0 24 24"><path fill="currentColor" d="M0 12a1.44 1.44 0 0 0 2.88 0v-1.92a1.44 1.44 0 1 0-2.88 0Zm12 .89a1.44 1.44 0 1 0-2.88 0v1.92a1.44 1.44 0 1 0 2.88 0Zm7.73.68A1.45 1.45 0 0 0 18.24 15a2.4 2.4 0 0 1-.34 1.14 1.44 1.44 0 0 0 .51 2 1.4 1.4 0 0 0 .73.21 1.45 1.45 0 0 0 1.24-.71 5.3 5.3 0 0 0 .74-2.51 1.45 1.45 0 0 0-1.39-1.56M8.45 7.45a2.5 2.5 0 0 1 .59 1 1.43 1.43 0 0 0 1.38 1.06 1.7 1.7 0 0 0 .39 0 1.44 1.44 0 0 0 1-1.77 5.3 5.3 0 0 0-1.29-2.27 1.44 1.44 0 1 0-2.07 2Zm4.19 12.41a5.9 5.9 0 0 0 1.76.3h.6a1.44 1.44 0 1 0 0-2.88h-.6a2.8 2.8 0 0 1-.8-.14 1.44 1.44 0 1 0-1 2.72ZM5.11 6.72a1.44 1.44 0 0 0-.2-2.87 5.4 5.4 0 0 0-2.49.82A1.44 1.44 0 0 0 4 7.1a2.4 2.4 0 0 1 1.11-.38M23.58 11 20.7 8.1a1.45 1.45 0 0 0-2 0L15.78 11a1.44 1.44 0 0 0 1 2.46h5.76a1.44 1.44 0 0 0 1-2.46Z"/></svg>
