<svg xmlns="http://www.w3.org/2000/svg" fill="none" viewBox="0 0 24 24"><path fill="currentColor" fill-rule="evenodd" d="M17.112 2.475a1.25 1.25 0 0 0-.772 2.377c.579.188 1.13.45 1.642.782a1.25 1.25 0 1 0 1.359-2.098 9.5 9.5 0 0 0-2.229-1.061m-10.617.379a1 1 0 0 0-1.414 0L.46 7.474a1 1 0 0 0 .707 1.708h3.37v1.482a1.25 1.25 0 0 0 2.5 0V9.182h3.372a1 1 0 0 0 .707-1.707zm13.923 3.098a1.25 1.25 0 0 1 1.738.325A9.4 9.4 0 0 1 23.243 8.4a1.25 1.25 0 0 1-2.352.85 7 7 0 0 0-.798-1.559 1.25 1.25 0 0 1 .325-1.738m3.413 6.403a1.25 1.25 0 1 0-2.495-.15 7.8 7.8 0 0 1-.295 1.7 1.25 1.25 0 0 0 2.4.698 10.2 10.2 0 0 0 .39-2.248m-2.442 3.98c.53.442.603 1.23.16 1.761a9.3 9.3 0 0 1-1.728 1.606 1.25 1.25 0 0 1-1.455-2.033c.47-.336.894-.73 1.263-1.173a1.25 1.25 0 0 1 1.76-.16m-5.05 4.982a1.25 1.25 0 0 0-.57-2.434 7.8 7.8 0 0 1-1.84.204 1.25 1.25 0 1 0-.024 2.5c.82.007 1.637-.084 2.433-.27m-8.524-3.564a1.25 1.25 0 0 1 1.756-.205 7 7 0 0 0 1.618.956 1.25 1.25 0 1 1-.967 2.305 9.4 9.4 0 0 1-2.203-1.3 1.25 1.25 0 0 1-.204-1.756M7 13.683a1.25 1.25 0 1 0-2.42.63c.216.828.543 1.622.97 2.36a1.25 1.25 0 0 0 2.164-1.253A7 7 0 0 1 7 13.684" clip-rule="evenodd"/></svg>
