<svg xmlns="http://www.w3.org/2000/svg" viewBox="0 0 24 24"><g fill="currentColor"><path d="M20 9a1 1 0 0 0 .8-.4l1.5-2a1 1 0 1 0-1.6-1.2l-1.5 2a1 1 0 0 0 .2 1.4 1 1 0 0 0 .6.2m.8 6.39a1 1 0 0 0-1.6 1.2l1.5 2a1 1 0 0 0 .8.4 1 1 0 0 0 .6-.2 1 1 0 0 0 .2-1.4ZM23 11h-2.5a1 1 0 0 0 0 2H23a1 1 0 0 0 0-2M3.3 5.39a1 1 0 0 0-1.6 1.2l1.5 2A1 1 0 0 0 4 9a1 1 0 0 0 .6-.2 1 1 0 0 0 .2-1.4Zm-.1 10-1.5 2a1 1 0 0 0 .2 1.4 1 1 0 0 0 .6.2 1 1 0 0 0 .8-.4l1.5-2a1 1 0 0 0-1.6-1.2M4.5 12a1 1 0 0 0-1-1H1a1 1 0 0 0 0 2h2.5a1 1 0 0 0 1-1m12.59 5.79-4.75 2.37a.72.72 0 0 1-.62 0l-4.81-2.37a.26.26 0 0 0-.27 0 .27.27 0 0 0-.14.21 1 1 0 0 0 .26.67l4.5 4.95a1 1 0 0 0 1.48 0l4.5-4.95a1 1 0 0 0 .26-.67.27.27 0 0 0-.14-.24.26.26 0 0 0-.27.03"/><path d="m6.78 16 3.75 1.88a.48.48 0 0 0 .48 0 .49.49 0 0 0 .24-.42V8.74A.49.49 0 0 0 11 8.3L6.87 6.07a.25.25 0 0 0-.25 0 .24.24 0 0 0-.12.21v9.3a.5.5 0 0 0 .28.42M7.91 4.93 11.76 7a.51.51 0 0 0 .48 0l3.85-2.08a.53.53 0 0 0 .26-.36.51.51 0 0 0-.13-.42L12.74.32a1 1 0 0 0-1.48 0L7.78 4.15a.51.51 0 0 0-.13.42.53.53 0 0 0 .26.36m9.22 1.14L13 8.3a.49.49 0 0 0-.26.44v8.73a.49.49 0 0 0 .24.42.48.48 0 0 0 .48 0L17.22 16a.5.5 0 0 0 .28-.45V6.29a.24.24 0 0 0-.12-.21.25.25 0 0 0-.25-.01"/></g></svg>
