<svg xmlns="http://www.w3.org/2000/svg" viewBox="0 0 24 24"><path fill="currentColor" d="M22.79 16.6a12.2 12.2 0 0 0-5-1.13 10 10 0 0 0-1.11.06.25.25 0 0 1-.26-.16.26.26 0 0 1 .09-.29 18 18 0 0 0 2-1.71 19.2 19.2 0 0 0 3.62-5.18.78.78 0 0 0-1-1 19.2 19.2 0 0 0-5.18 3.62 17 17 0 0 0-1.56 1.8.26.26 0 0 1-.31.08.27.27 0 0 1-.14-.28 19.6 19.6 0 0 0 .44-4A20.3 20.3 0 0 0 12.72.48a.78.78 0 0 0-1.44 0 20.3 20.3 0 0 0-1.65 7.84 19.6 19.6 0 0 0 .44 4 .27.27 0 0 1-.14.28.26.26 0 0 1-.31-.08 17 17 0 0 0-1.56-1.8 19.2 19.2 0 0 0-5.18-3.57.78.78 0 0 0-1 1 19.2 19.2 0 0 0 3.62 5.18 18 18 0 0 0 2 1.71.26.26 0 0 1 .09.29.25.25 0 0 1-.26.16 10 10 0 0 0-1.11-.06 12.2 12.2 0 0 0-5 1.13.77.77 0 0 0-.46.71.79.79 0 0 0 .46.71 12.4 12.4 0 0 0 5 1.13A11 11 0 0 0 7.89 19a.21.21 0 0 1 .23.11.21.21 0 0 1 0 .26A9.7 9.7 0 0 0 6.25 22a.79.79 0 0 0 .15.89c.64.63 2.91-.42 4.48-1.28a.25.25 0 0 1 .25 0 .26.26 0 0 1 .12.21v1.4a.75.75 0 0 0 1.5 0v-1.4a.26.26 0 0 1 .12-.21.25.25 0 0 1 .25 0A10.7 10.7 0 0 0 17 23.1a.83.83 0 0 0 .6-.19.78.78 0 0 0 .16-.89 9.7 9.7 0 0 0-1.83-2.64.21.21 0 0 1 0-.26.21.21 0 0 1 .23-.11 11 11 0 0 0 1.71.14 12.4 12.4 0 0 0 5-1.13.79.79 0 0 0 .46-.71.77.77 0 0 0-.54-.71"/></svg>
