<svg xmlns="http://www.w3.org/2000/svg" viewBox="0 0 24 24"><g fill="currentColor"><path d="M11 22.11a.54.54 0 0 0-.34-.21 10 10 0 0 1-3-.91.24.24 0 0 1-.14-.23v-1.15a2.5 2.5 0 0 1 .89-1.91 4.46 4.46 0 0 0 1.27-1.78c.07-.33.16-.65.26-1a4 4 0 0 0 .08-.7 4.51 4.51 0 0 0-4.5-4.5H2.58a.24.24 0 0 1-.19-.1.23.23 0 0 1-.05-.21 10 10 0 0 1 14.55-6.13.25.25 0 0 1 .12.28.26.26 0 0 1-.24.19h-2.52a2.75 2.75 0 0 0 0 5.5 2.57 2.57 0 0 1 1.28.36.46.46 0 0 0 .36.06 7.8 7.8 0 0 1 1.61-.17 8 8 0 0 1 6 2.7.3.3 0 0 0 .5-.2 12 12 0 0 0-24 0c0 4.92 4 12 12 12a.3.3 0 0 0 .2-.52 8 8 0 0 1-1.2-1.37"/><path d="M17.5 11a6.5 6.5 0 1 0 6.5 6.5 6.51 6.51 0 0 0-6.5-6.5m.95 10.2a.24.24 0 0 0-.2.24v.31a.75.75 0 0 1-1.5 0v-.25a.25.25 0 0 0-.25-.25H16a.75.75 0 0 1 0-1.5h2a.59.59 0 0 0 .59-.59.58.58 0 0 0-.37-.55l-2.06-.83a2.09 2.09 0 0 1 .36-4 .24.24 0 0 0 .2-.24v-.31a.75.75 0 0 1 1.5 0v.25a.25.25 0 0 0 .25.25H19a.75.75 0 0 1 0 1.5h-2a.59.59 0 0 0-.59.59.58.58 0 0 0 .37.55l2.06.83a2.09 2.09 0 0 1-.36 4Z"/></g></svg>
