<svg xmlns="http://www.w3.org/2000/svg" viewBox="0 0 24 24"><g fill="currentColor"><path d="M22.55 18.71a1 1 0 0 0-1.24.61 4 4 0 0 1-6.6 1.58.5.5 0 0 1-.15-.35.47.47 0 0 1 .15-.35l1.51-1.52a.48.48 0 0 0 .11-.53.49.49 0 0 0-.45-.3h-4.37a.49.49 0 0 0-.49.49v4.37a.5.5 0 0 0 .3.45.51.51 0 0 0 .54-.11l.77-.77a.5.5 0 0 1 .69 0A6 6 0 0 0 23.16 20a1 1 0 0 0-.61-1.29"/><path d="M9 23.13a.45.45 0 0 0 .37-.08.42.42 0 0 0 .17-.34v-1.1a.48.48 0 0 0-.35-.47 10 10 0 0 1-1.61-.64v-1.28a2.47 2.47 0 0 1 .87-1.88 4.4 4.4 0 0 0-2.82-7.78H2.46A9.81 9.81 0 0 1 12 2a9.7 9.7 0 0 1 5.53 1.72h-3.32a2.7 2.7 0 1 0 0 5.39 2.52 2.52 0 0 1 1.84.82 7 7 0 0 1 1.19-.1 7.4 7.4 0 0 1 4.23 1.33.32.32 0 0 0 .41 0 2 2 0 0 1 1.39-.57.37.37 0 0 0 .28-.13.36.36 0 0 0 .09-.3 11.76 11.76 0 0 0-23.4 1.6C.24 13 .76 21 9 23.13"/><path d="M23.76 12.47a.48.48 0 0 0-.3-.45.49.49 0 0 0-.54.1l-.83.83a.49.49 0 0 1-.69 0 6 6 0 0 0-9.82 2.35 1 1 0 0 0 .61 1.24 1 1 0 0 0 1.24-.61 4 4 0 0 1 6.57-1.6.5.5 0 0 1 .15.35.52.52 0 0 1-.15.32l-1.45 1.45a.49.49 0 0 0 .34.84h4.37a.49.49 0 0 0 .49-.49Z"/></g></svg>
