<svg xmlns="http://www.w3.org/2000/svg" fill="none" viewBox="0 0 24 24"><path fill="currentColor" fill-rule="evenodd" d="M4.496 5.495a10 10 0 0 1 3.415-2.547 17 17 0 0 0-.715 2.154c-.86.106-1.756.236-2.7.393m4.842-.606c.346-1.114.765-2.035 1.218-2.715a10 10 0 0 1 2.882-.001c.442.683.85 1.596 1.189 2.691a36.5 36.5 0 0 0-5.29.025m7.874 2.251c1.183.161 2.428.375 3.782.644q.329.7.547 1.453a1 1 0 0 0 1.921-.555C22.025 3.708 17.44.07 12 .07S1.975 3.708.537 8.682a1 1 0 1 0 1.922.555q.217-.75.544-1.447c4.882-.912 8.311-1.207 12.133-.881q.06.304.113.619a1 1 0 1 0 1.972-.332zm-.447-2.073a18 18 0 0 0-.704-2.132 10 10 0 0 1 3.42 2.534 54 54 0 0 0-2.716-.402M2.51 14.937a1 1 0 0 0-1.91.591C2.103 20.394 6.637 23.93 12 23.93s9.896-3.536 11.4-8.402a1 1 0 0 0-1.911-.59 10 10 0 0 1-.492 1.272 76 76 0 0 1-3.768.617q.145-.855.235-1.753a1 1 0 0 0-1.99-.202q-.117 1.153-.32 2.191c-2.189.2-4.185.208-6.303.027a25 25 0 0 1-.332-2.282 1 1 0 1 0-1.99.198q.094.95.247 1.852a63 63 0 0 1-3.77-.642 10 10 0 0 1-.495-1.279m2.008 3.594a10 10 0 0 0 3.402 2.526 18 18 0 0 1-.7-2.126 54 54 0 0 1-2.702-.4m6.013 3.292a10 10 0 0 0 2.936 0c.443-.71.846-1.627 1.18-2.711-1.812.135-3.52.143-5.288.023.332 1.074.732 1.984 1.172 2.688m5.547-.767a10 10 0 0 0 3.424-2.55c-.95.157-1.85.288-2.716.394-.202.77-.439 1.493-.708 2.156M9.053 10.374l-1.007 1.94-.001.002a1.37 1.37 0 0 1-1.206.727H1.266a1 1 0 1 1 0-2h5.186l1.486-2.864a1.35 1.35 0 0 1 .54-.557 1.37 1.37 0 0 1 1.462.081c.213.153.38.366.475.618l1.726 4.572 1.546-3.35a1.35 1.35 0 0 1 1.204-.784 1.36 1.36 0 0 1 1.236.729l.806 1.555h5.802a1 1 0 1 1 0 2h-6.188c-.491 0-.968-.27-1.206-.727l-.002-.002-.385-.744-1.633 3.54c-.113.25-.297.455-.524.595a1.37 1.37 0 0 1-1.507-.05 1.34 1.34 0 0 1-.483-.632z" clip-rule="evenodd"/></svg>
