<svg xmlns="http://www.w3.org/2000/svg" viewBox="0 0 24 24"><g fill="currentColor"><path d="M16.2 17.1a1.49 1.49 0 1 0 2.98 0 1.49 1.49 0 1 0-2.98 0"/><path d="M22.42 17.41a.46.46 0 0 1 0-.62l1-1a1.77 1.77 0 0 0 .24-2.1 1.73 1.73 0 0 0-1.92-.83l-1.4.33a.46.46 0 0 1-.53-.31l-.42-1.38a1.75 1.75 0 0 0-3.36 0l-.42 1.38a.46.46 0 0 1-.53.31l-1.4-.33a1.72 1.72 0 0 0-1.91.83 1.75 1.75 0 0 0 .23 2.1l1 1a.46.46 0 0 1 0 .62l-1 1.05a1.75 1.75 0 0 0-.23 2.1 1.72 1.72 0 0 0 1.91.83l1.4-.33a.46.46 0 0 1 .53.31l.39 1.38a1.75 1.75 0 0 0 3.36 0l.42-1.38a.46.46 0 0 1 .53-.31l1.4.33a1.73 1.73 0 0 0 1.92-.83 1.77 1.77 0 0 0-.24-2.1Zm-4.73 2.66a3 3 0 1 1 3-3 3 3 0 0 1-3 3"/><path d="M14.59 23.18a.51.51 0 0 0-.59-.34 3.2 3.2 0 0 1-.75.09 3.16 3.16 0 0 1-2.4-1.09.52.52 0 0 0-.3-.16 9.9 9.9 0 0 1-3-1v-1.26a2.48 2.48 0 0 1 .89-1.9 4.46 4.46 0 0 0-2.88-7.87h-3.2a9.88 9.88 0 0 1 15.22-5.94h-3.35a2.73 2.73 0 1 0 0 5.45 2.56 2.56 0 0 1 1.32.38 3.15 3.15 0 0 1 2.14-.82 3.21 3.21 0 0 1 3.1 2.3.5.5 0 0 0 .58.34 3.2 3.2 0 0 1 .75-.09 3 3 0 0 1 1.05.18.5.5 0 0 0 .66-.51 11.88 11.88 0 0 0-23.72.93c0 4.87 4 11.88 11.88 11.88a12 12 0 0 0 2.4-.25.25.25 0 0 0 .16-.12.26.26 0 0 0 .04-.2"/></g></svg>
