<svg xmlns="http://www.w3.org/2000/svg" viewBox="0 0 24 24"><path fill="currentColor" d="M18.5 12a2.5 2.5 0 1 0 5 0 2.5 2.5 0 1 0-5 0m-10 0a2 2 0 1 0 4 0 2 2 0 1 0-4 0m-4 0a1.5 1.5 0 1 0 3 0 1.5 1.5 0 1 0-3 0m-4 0a1.5 1.5 0 1 0 3 0 1.5 1.5 0 1 0-3 0m8 5a2 2 0 1 0 4 0 2 2 0 1 0-4 0m-4 0a1.5 1.5 0 1 0 3 0 1.5 1.5 0 1 0-3 0m6-12a2 2 0 1 0 2 2 2 2 0 0 0-2-2m3 7a2 2 0 1 0 4 0 2 2 0 1 0-4 0m0 5a2 2 0 1 0 4 0 2 2 0 1 0-4 0m2-12a2 2 0 1 0 2 2 2 2 0 0 0-2-2m-5-5a2 2 0 1 0 2 2 2 2 0 0 0-2-2m-2 22a2 2 0 1 0 4 0 2 2 0 1 0-4 0M6 5.5A1.5 1.5 0 1 0 7.5 7 1.5 1.5 0 0 0 6 5.5"/></svg>
