<svg xmlns="http://www.w3.org/2000/svg" viewBox="0 0 24 24"><path fill="currentColor" d="M5.68 16.2a.5.5 0 0 0-.5-.45H2.82a.5.5 0 0 0-.5.45l-.56 5.31a2.25 2.25 0 1 0 4.48 0Zm16.56 5.31-.56-5.31a.5.5 0 0 0-.5-.45h-2.36a.5.5 0 0 0-.5.45l-.56 5.31a2.25 2.25 0 1 0 4.48 0m-6.4-19.16A5 5 0 0 1 19 7v4.5a.5.5 0 0 1-.5.5.53.53 0 0 0-.39.18.53.53 0 0 0-.1.42l.25 1.25a.5.5 0 0 0 .49.4h2.4a.5.5 0 0 0 .48-.36c.05-.18.15-.51.36-1.29a.53.53 0 0 0-.1-.42.53.53 0 0 0-.39-.18.5.5 0 0 1-.5-.5V7a7 7 0 0 0-7-7 7.2 7.2 0 0 0-1.75.22 1.06 1.06 0 0 1-.5 0A7.2 7.2 0 0 0 10 0a7 7 0 0 0-7 7v4.5a.5.5 0 0 1-.5.5.53.53 0 0 0-.39.18.53.53 0 0 0-.1.42c.21.78.31 1.11.36 1.29a.5.5 0 0 0 .48.36h2.4a.5.5 0 0 0 .49-.4L6 12.6a.53.53 0 0 0-.1-.42.53.53 0 0 0-.4-.18.5.5 0 0 1-.5-.5V7a5 5 0 0 1 3.16-4.65.24.24 0 0 1 .29.08.24.24 0 0 1 0 .3A7 7 0 0 0 7 7a5 5 0 0 0 10 0 7 7 0 0 0-1.45-4.27.24.24 0 0 1 0-.3.24.24 0 0 1 .29-.08M12 10a3 3 0 0 1-3-3 5 5 0 0 1 2.5-4.33 1 1 0 0 1 1 0A5 5 0 0 1 15 7a3 3 0 0 1-3 3"/></svg>
