<svg xmlns="http://www.w3.org/2000/svg" viewBox="0 0 24 24"><g fill="currentColor"><path d="M.75 14.75a1.25 1.25 0 1 0 2.5 0 1.25 1.25 0 1 0-2.5 0m0 4a1.25 1.25 0 1 0 2.5 0 1.25 1.25 0 1 0-2.5 0m0 4a1.25 1.25 0 1 0 2.5 0 1.25 1.25 0 1 0-2.5 0m5 0a1.25 1.25 0 1 0 2.5 0 1.25 1.25 0 1 0-2.5 0m5 0a1.25 1.25 0 1 0 2.5 0 1.25 1.25 0 1 0-2.5 0m5 0a1.25 1.25 0 1 0 2.5 0 1.25 1.25 0 1 0-2.5 0m5-8a1.25 1.25 0 1 0 2.5 0 1.25 1.25 0 1 0-2.5 0m0 4a1.25 1.25 0 1 0 2.5 0 1.25 1.25 0 1 0-2.5 0m0 4a1.25 1.25 0 1 0 2.5 0 1.25 1.25 0 1 0-2.5 0M0 11.5a.76.76 0 0 0 .75.75h7.74a.25.25 0 0 0 .18-.08.26.26 0 0 0 .07-.17v-.48a12 12 0 0 1 2.95-7.88 2 2 0 1 1 3 2.63 8 8 0 0 0-2 5.25v.52a.25.25 0 0 0 .25.23h10.31a.75.75 0 0 0 0-1.5.25.25 0 0 1-.25-.27V1.75A1.75 1.75 0 0 0 21.25 0H2.75A1.75 1.75 0 0 0 1 1.75v8.75a.25.25 0 0 1-.25.25.75.75 0 0 0-.75.75"/><path d="M11.47 11.5a9.27 9.27 0 0 1 2.28-6.08.74.74 0 0 0-.08-1 .75.75 0 0 0-1.06.07 10.74 10.74 0 0 0-2 10.76.25.25 0 0 1-.1.3l-.9.55-.77.46a.75.75 0 0 0 .21 1.37l1.79.43 2.2.54a.78.78 0 0 0 .9-.55l.47-1.88.59-2.17a.75.75 0 0 0-1.12-.82l-.73.44-.82.51a.25.25 0 0 1-.22 0 .26.26 0 0 1-.15-.16 9 9 0 0 1-.49-2.77"/></g></svg>
