<svg xmlns="http://www.w3.org/2000/svg" viewBox="0 0 24 24"><g fill="currentColor"><path d="M19.91 19.91a14 14 0 0 1-19.75 0 .5.5 0 0 1 0-.73l1.47-1.49a.5.5 0 0 1 .7 0A10.85 10.85 0 1 0 17.68 2.33a.5.5 0 0 1 0-.7l1.5-1.47a.5.5 0 0 1 .73 0 14 14 0 0 1 0 19.75"/><path d="M16.76 3.31a.52.52 0 0 0-.35-.16.51.51 0 0 0-.41.15L3.3 16a.5.5 0 0 0-.15.37.52.52 0 0 0 .16.35A9.51 9.51 0 0 0 16.76 3.31M7.5 17.2c-.54 0-1-.65-1-1.46s.43-1.45 1-1.45 1 .65 1 1.45-.5 1.46-1 1.46M14 14c-.38.38-1.15.22-1.72-.35s-.69-1.3-.28-1.65 1.14-.23 1.71.34.7 1.31.29 1.66m1.71-5.56c-.8 0-1.45-.43-1.45-1s.65-1 1.45-1 1.46.44 1.46 1-.62 1.03-1.43 1.03Z"/></g></svg>
