<svg xmlns="http://www.w3.org/2000/svg" viewBox="0 0 24 24"><path fill="currentColor" d="M21.19 15.57a.49.49 0 0 1-.13-.6C23.47 9.88 24.76 3.09 22.89 1a3.18 3.18 0 0 0-5.31 1L14.8 9.06c-.17.43-.36.85-.57 1.27a.5.5 0 0 1-.32.25.5.5 0 0 1-.4-.06 5.5 5.5 0 0 0-2-.82 5.63 5.63 0 0 0-6.59 4.45.51.51 0 0 0 .25.54.5.5 0 0 0 .58 0 5.24 5.24 0 0 1 4.37-1.13 5.4 5.4 0 0 1 .81.22.5.5 0 0 1 .31.38.47.47 0 0 1-.15.46 15.4 15.4 0 0 1-7 3.58l-2.41.53a1.85 1.85 0 0 0-.19 3.56 16.4 16.4 0 0 0 5.2.85 16.3 16.3 0 0 0 8.94-2.68 16 16 0 0 0 2.24-1.76.5.5 0 0 1 .63 0 6 6 0 0 1 .69.57 5.23 5.23 0 0 1 1.5 4.26.5.5 0 0 0 .31.47.52.52 0 0 0 .58-.1 5.61 5.61 0 0 0 0-8ZM19.48 2.76a1.18 1.18 0 0 1 1.9-.35c.86.95.27 6.64-2.16 11.68a.49.49 0 0 1-.54.28 5.7 5.7 0 0 0-2.18 0 .51.51 0 0 1-.59-.38 5.4 5.4 0 0 0-.44-1.26.48.48 0 0 1 0-.48 16 16 0 0 0 1.23-2.44Z"/></svg>
