<svg xmlns="http://www.w3.org/2000/svg" viewBox="0 0 24 24"><path fill="currentColor" d="M23.37 15.86a.78.78 0 0 0-.63-.1 7.24 7.24 0 0 1-5.39-.42l-1-.61a2.55 2.55 0 0 0 .7-4h.42a5 5 0 0 0 4.9-4H23a1 1 0 0 0 0-2h-.66a5 5 0 0 0-9.68-.48 3.4 3.4 0 0 0-1.27 0 5 5 0 0 0-9.68.48H1a1 1 0 0 0 0 2h.71a5 5 0 0 0 4.9 4H7a2.52 2.52 0 0 0-.7 1.75 2.56 2.56 0 0 0 1.4 2.23l-1 .63a7.28 7.28 0 0 1-5.4.42.78.78 0 0 0-.63.1.77.77 0 0 0-.33.54c-.34 2.45.54 3.76 1.3 4.43a5.07 5.07 0 0 0 4.12 1 4.08 4.08 0 0 0 3 1.23A5.58 5.58 0 0 0 12 22a5.46 5.46 0 0 0 3.23 1h.35a4 4 0 0 0 2.66-1.22 5.07 5.07 0 0 0 4.12-1c.76-.67 1.61-2 1.34-4.43a.77.77 0 0 0-.33-.49M17.44 2.71a3 3 0 1 1-2.23 5v-.05a3 3 0 0 1-.74-2 3 3 0 0 1 2.97-2.95m-5 3.53a4.9 4.9 0 0 0 1.06 2.57l.67 2.35a1 1 0 0 0 1 .72.56.56 0 0 1 .57.57.55.55 0 0 1-.82.5 1 1 0 0 0-1.37.57 1.6 1.6 0 0 1-3 0 1 1 0 0 0-.94-.67 1.1 1.1 0 0 0-.43.1.55.55 0 0 1-.82-.5.56.56 0 0 1 .57-.57 1 1 0 0 0 1-.72l.67-2.34a5 5 0 0 0 1.06-2.58 1.06 1.06 0 0 1 .8 0Zm-8.83-.53a3 3 0 0 1 6-.06v.06a3 3 0 0 1-.74 2v.05a3 3 0 0 1-2.22 1 3 3 0 0 1-3.04-3.05"/></svg>
