<svg xmlns="http://www.w3.org/2000/svg" viewBox="0 0 24 24"><path fill="currentColor" d="m23.37 19.77-3-5.18a.28.28 0 0 0-.23-.13.24.24 0 0 0-.21.14 4.8 4.8 0 0 1-.86 1.18 4.63 4.63 0 0 1-3.46 1.36.27.27 0 0 0-.19.08 4.5 4.5 0 0 1-1 .77.25.25 0 0 0-.09.34l2.94 5a1 1 0 0 0 1.8-.17l.83-2.29 2.39.4a1 1 0 0 0 1-.41 1 1 0 0 0 .08-1.09M8.58 17.22a.23.23 0 0 0-.19-.07 4.68 4.68 0 0 1-3.46-1.37 4.8 4.8 0 0 1-.86-1.18.24.24 0 0 0-.21-.14.28.28 0 0 0-.23.13l-3 5.18a1 1 0 0 0 1 1.48l2.39-.4.83 2.29a1 1 0 0 0 1.8.17l2.94-5a.25.25 0 0 0-.04-.31 4.8 4.8 0 0 1-.97-.78m6.23-1.72a3.17 3.17 0 0 0 4-4 3.17 3.17 0 0 0 0-5.63 3.17 3.17 0 0 0-4-4 3.16 3.16 0 0 0-5.62 0 3.17 3.17 0 0 0-4 4 3.17 3.17 0 0 0 0 5.63 3.17 3.17 0 0 0 4 4 3.16 3.16 0 0 0 5.62 0m-4.36-7.69a.76.76 0 0 1-1-.15.75.75 0 0 1 .15-1l1.2-.9a1.25 1.25 0 0 1 2 1v3.75h.2A.75.75 0 0 1 13 12h-2a.75.75 0 0 1 0-1.5h.25V7.21Z"/></svg>
