<svg xmlns="http://www.w3.org/2000/svg" viewBox="0 0 24 24"><g fill="currentColor"><path d="M12.09 23.88h.55a1 1 0 0 0-.08-1.94h-.28a.23.23 0 0 1-.2-.11 22.4 22.4 0 0 1-1.89-3.17.26.26 0 0 1 0-.24.27.27 0 0 1 .21-.12h.73a1 1 0 1 0 0-1.93H9.44a.25.25 0 0 1-.24-.18 16.4 16.4 0 0 1-.72-3.43.26.26 0 0 1 .07-.19.23.23 0 0 1 .18-.08h2.17a1 1 0 0 0 0-1.94H8.72a.25.25 0 0 1-.18-.08.26.26 0 0 1-.07-.19 14.5 14.5 0 0 1 .44-2.45.26.26 0 0 1 .24-.19h2.72a1 1 0 1 0 0-1.93H10.1a.27.27 0 0 1-.21-.12.23.23 0 0 1 0-.24A16 16 0 0 1 12 2.16a.28.28 0 0 1 .18-.09h.57c.54 0 .8-.39.83-.93a1 1 0 0 0-.93-1 2 2 0 0 0-.36 0h-.15A11.64 11.64 0 0 0 .26 11.61a12 12 0 0 0 11.83 12.27m-2.8-2.83a.26.26 0 0 1 0 .29.23.23 0 0 1-.27.07 9.85 9.85 0 0 1-4.11-2.69.24.24 0 0 1 0-.27.24.24 0 0 1 .22-.15h2.7a.27.27 0 0 1 .24.16 21.5 21.5 0 0 0 1.22 2.59M4.69 5.29a9.6 9.6 0 0 1 4-2.62.24.24 0 0 1 .28.07A.26.26 0 0 1 9 3a17 17 0 0 0-1.3 2.52.25.25 0 0 1-.23.16h-2.6a.25.25 0 0 1-.23-.15.25.25 0 0 1 .05-.24M3 7.79a.25.25 0 0 1 .23-.15h3.4a.25.25 0 0 1 .28.36 16 16 0 0 0-.35 2.37.25.25 0 0 1-.25.23H2.56a.25.25 0 0 1-.19-.09.23.23 0 0 1-.06-.2A10.2 10.2 0 0 1 3 7.79m.16 8.43a10.4 10.4 0 0 1-1-3.46.22.22 0 0 1 .06-.19.27.27 0 0 1 .19-.08h3.9a.24.24 0 0 1 .25.23 18 18 0 0 0 .59 3.33.25.25 0 0 1 0 .22.26.26 0 0 1-.2.1H3.43a.25.25 0 0 1-.23-.15Z"/><path d="M18.41 8.6a5.34 5.34 0 0 0-5.33 5.33v3.4a.49.49 0 0 0 .49.48h1.74a.25.25 0 0 1 .25.23l.44 5.14a.48.48 0 0 0 .48.44h3.88a.48.48 0 0 0 .48-.44l.42-5.18a.25.25 0 0 1 .25-.23h1.75a.49.49 0 0 0 .48-.48v-3.4a5.34 5.34 0 0 0-5.33-5.29m.73 6.25a.73.73 0 1 1-1.46 0V11a.73.73 0 1 1 1.46 0Zm-.73-6.73a3.88 3.88 0 1 0-3.87-3.88 3.88 3.88 0 0 0 3.87 3.88m-2.23-4.79a.25.25 0 0 1 .16-.14.26.26 0 0 1 .21 0 5.2 5.2 0 0 0 2.93.9A5.3 5.3 0 0 0 20.54 4a.23.23 0 0 1 .29.23 2.42 2.42 0 1 1-4.84 0 2.3 2.3 0 0 1 .19-.9"/></g></svg>
