<svg xmlns="http://www.w3.org/2000/svg" viewBox="0 0 24 24"><g fill="currentColor"><path d="M19.35 14a3.08 3.08 0 0 1-2.85-1.57.24.24 0 0 0-.44.07l-1.58 5a1.49 1.49 0 0 1-1.46 1 1.48 1.48 0 0 1-1.44-1.05L9.26 8.8a.25.25 0 0 0-.49 0 14.4 14.4 0 0 1-1.2 3.75A2.82 2.82 0 0 1 4.87 14H.17a12 12 0 0 0 23.66 0Z"/><path d="M4.87 12c.94 0 1 0 1.92-3.56.2-.82.45-1.78.75-2.9A1.49 1.49 0 0 1 9 4.5a1.47 1.47 0 0 1 1.45 1l2.4 8.93a.25.25 0 0 0 .48 0l1.35-4.29a1.49 1.49 0 0 1 1.35-1 1.51 1.51 0 0 1 1.44.78l.29.56c.58 1.17.75 1.45 1.59 1.45H24A12 12 0 0 0 0 12Z"/></g></svg>
