<svg xmlns="http://www.w3.org/2000/svg" fill="none" viewBox="0 0 24 24"><path fill="currentColor" fill-rule="evenodd" d="M11.68.529a3.249 3.249 0 1 0 0 6.498 3.249 3.249 0 0 0 0-6.498m5.028 9.25-.828.415 2.793 5.895c.103.207.414.414.62.31l2.8-.724c.827-.207 1.655.31 1.861 1.138.207.827-.31 1.655-1.137 1.862l-2.8.724c-.31.103-.62.103-.93.103-1.552 0-2.896-.93-3.413-2.379l-.207-.62-2.483 1.655a.22.22 0 0 0-.206.206L11.33 22.54c-.31.62-.828.931-1.448.931-.207 0-.414 0-.62-.103-.828-.414-1.139-1.241-.828-2.069l1.448-4.176c.31-.62.724-1.137 1.344-1.551l3-1.965-1.138-2.069-1.448.724c-1.345.62-3 .414-4.137-.724L5.596 9.612c-.62-.62-.62-1.552 0-2.172s1.551-.62 2.172 0l1.907 1.926c.207.207.413.207.62.104l2.793-1.448 2.275-1.138c.931-.414 1.862-.517 2.793-.207.93.31 1.655 1.034 2.068 1.862l1.448 2.747c.31.724 0 1.655-.724 2.069-.773.386-1.613.138-2.068-.621l-1.448-2.747c-.207-.207-.517-.31-.724-.207m-8.854 8.378.45-.3.397-1.143q.026-.076.063-.15c.392-.785.941-1.48 1.769-2.032l.008-.006 1.726-1.13-.02-.04-.048.024-.02.01-.015.007a4.97 4.97 0 0 1-3.24.322l-2.828 1.853c-.621.414-1.035.93-1.345 1.551L3.303 21.3c-.31.828 0 1.655.827 2.069.207.103.414.103.621.103.62 0 1.138-.31 1.448-.93l1.448-4.177c0-.103.103-.206.207-.206M2.637 7.44l1.25 1.262c.041.647.316 1.283.823 1.791l1.766 1.784c-1.339.602-2.976.39-4.104-.739L.465 9.612c-.62-.62-.62-1.552 0-2.172.621-.62 1.552-.62 2.172 0M8.171.962a4.48 4.48 0 0 0-.99 2.816c0 .781.199 1.516.55 2.157-.982-.41-2.13-.222-2.96.563a3.249 3.249 0 0 1 3.4-5.536" clip-rule="evenodd"/></svg>
