<svg xmlns="http://www.w3.org/2000/svg" viewBox="0 0 24 24"><path fill="currentColor" d="M4.38 18.59a.51.51 0 0 1-.34.47 1 1 0 0 0-.66.94v1.5a2.5 2.5 0 0 0 2.5 2.5h12.24a2.5 2.5 0 0 0 2.5-2.5V20a1 1 0 0 0-.66-.94.51.51 0 0 1-.34-.47V5.41a.51.51 0 0 1 .38-.47 1 1 0 0 0 .62-.94V2.5a2.5 2.5 0 0 0-2.5-2.5H5.88a2.5 2.5 0 0 0-2.5 2.5V4a1 1 0 0 0 .62.94.51.51 0 0 1 .34.47Zm13.25-7.42a.51.51 0 0 1-.34.47L6.71 15.36a.27.27 0 0 1-.23 0 .22.22 0 0 1-.1-.2v-2.33a.5.5 0 0 1 .33-.47l10.58-3.72a.27.27 0 0 1 .23 0 .23.23 0 0 1 .11.2ZM14.81 5a.25.25 0 0 1 .08.49L7 8.24a.51.51 0 0 1-.45-.06.49.49 0 0 1-.21-.41V5.5a.5.5 0 0 1 .5-.5ZM9.19 19a.25.25 0 0 1-.08-.49L17 15.76a.51.51 0 0 1 .45.06.5.5 0 0 1 .22.41v2.27a.5.5 0 0 1-.5.5Z"/></svg>
