<svg xmlns="http://www.w3.org/2000/svg" viewBox="0 0 24 24"><g fill="currentColor"><path d="M24 14a4.5 4.5 0 0 0-3-4.24V9A9 9 0 0 0 3 9v.76a4.5 4.5 0 0 0 0 8.48 1.54 1.54 0 0 0 1.37-.18A1.53 1.53 0 0 0 5 16.83V9a7 7 0 0 1 14 0v7.83a1.5 1.5 0 0 0 .5 1.1v.57c0 1.48-1.29 2-2.5 2h-1.78a2 2 0 1 0-1.72 3 2 2 0 0 0 1.72-1H17c2.65 0 4.5-1.64 4.5-4V18a4.5 4.5 0 0 0 2.5-4"/><path d="M10.75 16.75a1.25 1.25 0 1 0 2.5 0 1.25 1.25 0 1 0-2.5 0M9.5 10.5a1.25 1.25 0 0 0 1.25-1.25 1.25 1.25 0 1 1 1.75 1.15 2.91 2.91 0 0 0-1.75 2.67v.56a1.25 1.25 0 1 0 2.5 0v-.56a.42.42 0 0 1 .25-.38 3.75 3.75 0 1 0-5.25-3.44A1.25 1.25 0 0 0 9.5 10.5"/></g></svg>
