<svg xmlns="http://www.w3.org/2000/svg" viewBox="0 0 24 24"><g fill="currentColor"><path d="M7 0a7 7 0 1 0 7 7 7 7 0 0 0-7-7m0 12a5 5 0 1 1 5-5 5 5 0 0 1-5 5"/><path d="M9 6.09h-.74A.25.25 0 0 1 8 5.84V4.48a1 1 0 0 0-2 0v2.6a1 1 0 0 0 1 1h2a1 1 0 1 0 0-2Zm12.31 3.23a.26.26 0 0 1-.14-.21.27.27 0 0 1 .12-.23 4 4 0 0 0 1.82-3.36A4.06 4.06 0 1 0 16.93 9a.24.24 0 0 1 .11.22.23.23 0 0 1-.13.21 4.77 4.77 0 0 0-2.47 4.17v2.8a.53.53 0 0 0 .15.36.5.5 0 0 0 .35.14h1.45a.25.25 0 0 1 .25.23l.65 6.42a.48.48 0 0 0 .49.45h2.84a.5.5 0 0 0 .5-.45l.64-6.42a.25.25 0 0 1 .24-.23h1.45a.5.5 0 0 0 .35-.14.5.5 0 0 0 .2-.36v-2.84a4.72 4.72 0 0 0-2.69-4.24M20 12.76a.75.75 0 0 1-1.5 0v-1.69a.75.75 0 0 1 1.5 0Zm-2.92-7.84a.24.24 0 0 1 .15-.16.22.22 0 0 1 .21 0 5 5 0 0 0 2.63.73 6 6 0 0 0 .93-.06.09.09 0 0 1 .11.09 2.07 2.07 0 0 1-4.14 0 2 2 0 0 1 .11-.6"/></g></svg>
