<svg xmlns="http://www.w3.org/2000/svg" viewBox="0 0 24 24"><g fill="currentColor"><path d="M11.71 15.9a1 1 0 0 0 0-2H8.35a.25.25 0 0 1-.24-.16 12.7 12.7 0 0 1-.64-2.53.26.26 0 0 1 0-.2.25.25 0 0 1 .19-.09h4.5a1 1 0 0 0 0-2H7.62a.23.23 0 0 1-.18-.08.23.23 0 0 1-.07-.19 10.7 10.7 0 0 1 .52-2.56A.22.22 0 0 1 8.1 6h4.23a.25.25 0 0 1 .24.17 11 11 0 0 1 .46 2 1 1 0 0 0 1 .86h.13A1 1 0 0 0 15 7.82a13 13 0 0 0-.31-1.55.25.25 0 0 1 .24-.27h2a.25.25 0 0 1 .22.13 7.2 7.2 0 0 1 .7 1.63 1 1 0 0 0 1.23.69 1 1 0 0 0 .68-1.23A9.94 9.94 0 0 0 10.28 0c-7 0-10 5-10 10a9.56 9.56 0 0 0 9.91 9.87 1 1 0 0 0 1-1 1 1 0 0 0-.73-.94.2.2 0 0 1-.13-.09 18 18 0 0 1-1-1.58.28.28 0 0 1 0-.25.26.26 0 0 1 .22-.12ZM6 13.59a.25.25 0 0 1 0 .22.26.26 0 0 1-.2.1H3.54a.23.23 0 0 1-.21-.13 8.2 8.2 0 0 1-.92-2.56.25.25 0 0 1 .06-.2.22.22 0 0 1 .19-.09h2.56a.24.24 0 0 1 .24.22A14.4 14.4 0 0 0 6 13.59m-.6-4.88a.25.25 0 0 1-.25.23H2.59a.27.27 0 0 1-.19-.08.25.25 0 0 1-.06-.2 7.7 7.7 0 0 1 .83-2.57.25.25 0 0 1 .22-.09h2.14a.24.24 0 0 1 .19.1.23.23 0 0 1 0 .21 12.5 12.5 0 0 0-.33 2.4ZM5.55 4a.25.25 0 0 1-.23-.17.24.24 0 0 1 .09-.28 8 8 0 0 1 1.35-.79.26.26 0 0 1 .29.06.26.26 0 0 1 0 .29q-.21.38-.39.75a.24.24 0 0 1-.2.14Zm3.76 0a.25.25 0 0 1-.21-.38A14 14 0 0 1 10 2.3a.25.25 0 0 1 .2-.09.25.25 0 0 1 .19.09 12 12 0 0 1 .94 1.29.23.23 0 0 1 0 .25.25.25 0 0 1-.22.13Zm4.12-.79a.26.26 0 0 1 0-.3.24.24 0 0 1 .29 0 8 8 0 0 1 1.13.69.25.25 0 0 1-.15.45H14a.24.24 0 0 1-.22-.14c-.11-.3-.23-.51-.35-.73ZM7.37 16.86a.24.24 0 0 1 0 .29.23.23 0 0 1-.28.06 7.4 7.4 0 0 1-1.47-.86.24.24 0 0 1-.09-.28.25.25 0 0 1 .24-.17h1a.24.24 0 0 1 .22.14c.09.27.23.55.38.82"/><path d="M20.49 18.34a.26.26 0 0 1 0-.43 4.41 4.41 0 1 0-5.08 0 .25.25 0 0 1 0 .43 5.75 5.75 0 0 0-3.14 5.12.49.49 0 0 0 .49.5h10.46a.5.5 0 0 0 .5-.5 5.76 5.76 0 0 0-3.23-5.12m-3.06 3.52v-1.49a.74.74 0 0 1 .74-.74.75.75 0 0 1 .75.74v1.49a.76.76 0 0 1-.75.75.75.75 0 0 1-.74-.75m-1.83-8.29a.26.26 0 0 1 .16-.15.26.26 0 0 1 .21 0 5.7 5.7 0 0 0 3.06.9 6 6 0 0 0 1.14-.12.12.12 0 0 1 .1 0 .14.14 0 0 1 .05.1 2.43 2.43 0 0 1-4.85 0 2.6 2.6 0 0 1 .13-.73"/></g></svg>
