<svg xmlns="http://www.w3.org/2000/svg" viewBox="0 0 24 24"><path fill="currentColor" d="M23.93 5.55a1 1 0 0 0-.93-.61h-1.49a.24.24 0 0 1-.23-.16l-.85-2.23a1.06 1.06 0 0 0-1.86 0L18 4v.07a2.51 2.51 0 0 1-1.24 2.06.25.25 0 0 0-.09.3l.23.53a2.5 2.5 0 0 1-.62 2.86A2 2 0 0 1 16 10a.27.27 0 0 0-.09.3 1 1 0 0 0 .27.37 1 1 0 0 0 1.19.14l2-1.1a.23.23 0 0 1 .25 0l1.95 1.1a1 1 0 0 0 .51.13 1 1 0 0 0 .69-.27A1 1 0 0 0 23 9.52l-.7-1.65a.27.27 0 0 1 .09-.31l1.3-.91a1 1 0 0 0 .24-1.1M7.72 9.81A2.5 2.5 0 0 1 7.1 7l.22-.52a.26.26 0 0 0-.08-.31A2.59 2.59 0 0 1 6 4l-.56-1.45a1 1 0 0 0-1.85 0l-.87 2.23a.25.25 0 0 1-.23.16H1a1 1 0 0 0-.93.61 1 1 0 0 0 .3 1.16l1.24.86a.24.24 0 0 1 .08.3L1 9.52a1 1 0 0 0 .25 1.15 1 1 0 0 0 1.2.14l1.95-1.1a.23.23 0 0 1 .25 0l2 1.1a1.1 1.1 0 0 0 .52.13 1 1 0 0 0 .68-.27.9.9 0 0 0 .15-.36.24.24 0 0 0 0-.31 1.6 1.6 0 0 1-.28-.19m7.09-3.91a.25.25 0 0 1 .09-.31l1.3-.91a1 1 0 0 0 .23-1.1A1 1 0 0 0 15.5 3H14a.25.25 0 0 1-.24-.16L12.94.58A1 1 0 0 0 12 0a1 1 0 0 0-.95.58l-.84 2.23A.25.25 0 0 1 10 3H8.5a1 1 0 0 0-.93.61 1 1 0 0 0 .3 1.16l1.23.85a.25.25 0 0 1 .09.31l-.72 1.61A1 1 0 0 0 9.41 9a1 1 0 0 0 .51-.13l2-1.11a.26.26 0 0 1 .24 0l2 1.11a1 1 0 0 0 .51.13 1 1 0 0 0 .69-.27 1 1 0 0 0 .25-1.16Zm2.12 10.29a4.52 4.52 0 0 0-9 0c0 1.84-.43 2.48-.76 2.81a1 1 0 1 0 1.4 1.42 3.7 3.7 0 0 0 .58-.73.25.25 0 0 1 .18-.11.3.3 0 0 1 .2.05 4 4 0 0 0 .76.53.24.24 0 0 1 .13.24.23.23 0 0 1-.15.21 5.92 5.92 0 0 0-3 2.65.48.48 0 0 0 0 .49.48.48 0 0 0 .43.25h9.48a.48.48 0 0 0 .43-.25.48.48 0 0 0 0-.49 5.92 5.92 0 0 0-3-2.65.23.23 0 0 1-.15-.21.24.24 0 0 1 .13-.24 4.5 4.5 0 0 0 .76-.53.3.3 0 0 1 .2-.05.25.25 0 0 1 .18.11 3.7 3.7 0 0 0 .58.73 1 1 0 0 0 .7.29 1 1 0 0 0 .71-.3 1 1 0 0 0 0-1.41c-.36-.33-.79-1-.79-2.81m-4.52 2.52a2.52 2.52 0 0 1-2.48-2.1.26.26 0 0 1 .2-.29 4 4 0 0 0 1-.31 2.67 2.67 0 0 0 1.07-.9.3.3 0 0 1 .2-.11.23.23 0 0 1 .2.1 4.8 4.8 0 0 0 1 .91 3.2 3.2 0 0 0 1 .46.25.25 0 0 1 .19.3 2.52 2.52 0 0 1-2.38 1.94"/></svg>
