<svg xmlns="http://www.w3.org/2000/svg" viewBox="0 0 24 24"><g fill="currentColor"><path d="M21.06 8.9a.27.27 0 0 0 .22.15.26.26 0 0 0 .23-.13 4 4 0 0 0-4.94-5.65.24.24 0 0 0-.16.2.25.25 0 0 0 .11.24 12.4 12.4 0 0 1 2.09 1.68 12 12 0 0 1 2.45 3.51m1.76 6.27-.26-.24a.27.27 0 0 0-.26 0 .25.25 0 0 0-.15.21 12.2 12.2 0 0 1-2.55 6.49.27.27 0 0 0 0 .26.26.26 0 0 0 .22.15 4 4 0 0 0 3-6.83ZM10 1.8a.18.18 0 0 0 .17-.11.18.18 0 0 0 0-.21 4 4 0 0 0-.28-.31 4 4 0 0 0-5.65 0A3.94 3.94 0 0 0 3 3.43a.24.24 0 0 0 .11.25.26.26 0 0 0 .27 0A12.2 12.2 0 0 1 10 1.8"/><path d="M13.66 23.86a2.8 2.8 0 0 0 .85.14 2.7 2.7 0 0 0 1.39-.4 11 11 0 0 0 2-1.59A11.25 11.25 0 1 0 2 6.1a11 11 0 0 0-1.6 2 2.65 2.65 0 0 0 .69 3.53.25.25 0 0 1 .1.18 2 2 0 0 0 .32.91 2 2 0 0 0 .26.32 1.9 1.9 0 0 0 .51.37 20.23 20.23 0 0 1 8.31 8.31 2 2 0 0 0 .8.83 1.9 1.9 0 0 0 .8.25.27.27 0 0 1 .17.1 2.6 2.6 0 0 0 1.3.96M4 7a.26.26 0 0 1 .33 0 4 4 0 0 0 6.53-1.92.25.25 0 0 1 .27-.19 9.5 9.5 0 0 1 2.87.83.27.27 0 0 1 .13.29 4 4 0 0 0 4.34 5 .24.24 0 0 1 .27.17 9.1 9.1 0 0 1 .46 2.73.25.25 0 0 1-.19.25 4 4 0 0 0-2.37 6 .24.24 0 0 1 0 .31l-.11.12a9.5 9.5 0 0 1-1.65 1.3.64.64 0 0 1-.54.06.24.24 0 0 1-.13-.11.23.23 0 0 1 0-.18 2 2 0 0 0 0-1.76A24.2 24.2 0 0 0 4.08 9.84a2 2 0 0 0-1.53-.11 1 1 0 0 0-.23.09.2.2 0 0 1-.17 0A.22.22 0 0 1 2 9.7a.66.66 0 0 1 .06-.55A9.8 9.8 0 0 1 3.4 7.51Z"/></g></svg>
