<svg xmlns="http://www.w3.org/2000/svg" viewBox="0 0 24 24"><path fill="currentColor" d="M.69 16.7a1.33 1.33 0 0 0 .64 2.5A1.4 1.4 0 0 0 2 19l8.32-4.57a.23.23 0 0 1 .24 0 .26.26 0 0 1 .13.22v8a1.33 1.33 0 1 0 2.66 0v-8a.26.26 0 0 1 .13-.22.23.23 0 0 1 .24 0L22 19a1.4 1.4 0 0 0 .65.17 1.33 1.33 0 0 0 .64-2.5l-8.15-4.48A.27.27 0 0 1 15 12a.26.26 0 0 1 .12-.22l8.19-4.48A1.34 1.34 0 0 0 22 5l-8.3 4.54a.23.23 0 0 1-.24 0 .23.23 0 0 1-.13-.21v-8a1.33 1.33 0 1 0-2.66 0v8a.23.23 0 0 1-.13.21.23.23 0 0 1-.24 0L2 5A1.34 1.34 0 0 0 .69 7.3l8.15 4.48A.26.26 0 0 1 9 12a.27.27 0 0 1-.12.22Z"/></svg>
