<svg xmlns="http://www.w3.org/2000/svg" viewBox="0 0 24 24"><g fill="currentColor"><path d="M3.5 12.25a1 1 0 0 0 1-1v-8a1 1 0 0 1 1-1h12a1 1 0 0 1 1 1v6.53a.25.25 0 0 0 .15.23 2.8 2.8 0 0 1 1.46 1.32.2.2 0 0 0 .23.11.21.21 0 0 0 .15-.2v-8a3 3 0 0 0-3-3H5.5a3 3 0 0 0-3 3v8a1 1 0 0 0 1 1.01"/><path d="M23.84 21.66 18.78 12a1.45 1.45 0 0 0-2.56 0l-5.06 9.64a1.43 1.43 0 0 0 .05 1.4 1.46 1.46 0 0 0 1.24.69h10.11a1.43 1.43 0 0 0 1.28-2.09Zm-7.09-6.41a.75.75 0 0 1 1.5 0v3a.75.75 0 0 1-1.5 0ZM17.5 22a1 1 0 1 1 1-1 1 1 0 0 1-1 1m-5.91-4.39.89-1.69a.25.25 0 0 0-.3-.35 4.2 4.2 0 0 1-1.18.18 3.08 3.08 0 0 1-2.95-1.65.49.49 0 0 0-.47-.36H.5a.48.48 0 0 0-.41.26.47.47 0 0 0 0 .47 5.43 5.43 0 0 0 5 3.31h6.33a.24.24 0 0 0 .17-.17"/></g></svg>
