<svg xmlns="http://www.w3.org/2000/svg" viewBox="0 0 24 24"><path fill="currentColor" d="M23.75 11.56a2.25 2.25 0 0 0-2.25-2.25h-6.73a.25.25 0 0 1-.19-.09.23.23 0 0 1-.05-.22 25.3 25.3 0 0 0 .72-4.73A3.36 3.36 0 0 0 14.49 2a2.36 2.36 0 0 0-1.74-.79 1.89 1.89 0 0 0-2 1.87A7.19 7.19 0 0 1 4 10.31H1a.76.76 0 0 0-.75.75v9a.75.75 0 0 0 .75.75c4.53 0 6 .64 7.31 1.2a8.15 8.15 0 0 0 3.69.8h6.5a2.25 2.25 0 0 0 2.25-2.25 2.2 2.2 0 0 0-.23-1 2.25 2.25 0 0 0 1.23-2 2.2 2.2 0 0 0-.23-1 2.25 2.25 0 0 0 1.23-2 2.2 2.2 0 0 0-.23-1 2.25 2.25 0 0 0 1.23-2"/></svg>
