<svg xmlns="http://www.w3.org/2000/svg" viewBox="0 0 24 24"><path fill="currentColor" d="M14.13 18.26a6.7 6.7 0 0 1-2.13.35 6.61 6.61 0 0 1-6.26-8.73 1.23 1.23 0 0 0-2.32-.8 10 10 0 0 0-.33 1.29.48.48 0 0 1-.48.41H1.22a1.22 1.22 0 1 0 0 2.44h1.39a.5.5 0 0 1 .49.41 9.05 9.05 0 0 0 7.27 7.27.5.5 0 0 1 .41.49v1.39a1.22 1.22 0 1 0 2.44 0v-1.39a.48.48 0 0 1 .41-.48 10 10 0 0 0 1.29-.33 1.23 1.23 0 0 0-.79-2.32m5.38-.48a.5.5 0 0 1-.06-.63 9.1 9.1 0 0 0 1.46-3.52.48.48 0 0 1 .48-.41h1.39a1.22 1.22 0 0 0 0-2.44h-1.39a.5.5 0 0 1-.49-.41 9.05 9.05 0 0 0-7.27-7.27.5.5 0 0 1-.41-.49V1.22a1.22 1.22 0 1 0-2.44 0v1.39a.48.48 0 0 1-.41.48 9.1 9.1 0 0 0-3.52 1.46.48.48 0 0 1-.62 0L2.09.36A1.22 1.22 0 0 0 .36 2.09l21.55 21.55a1.22 1.22 0 0 0 1.73-1.73ZM12 5.39A6.61 6.61 0 0 1 18.61 12a6.5 6.5 0 0 1-.82 3.18.47.47 0 0 1-.36.24.45.45 0 0 1-.41-.13L8.71 7a.49.49 0 0 1-.14-.41.51.51 0 0 1 .25-.37A6.6 6.6 0 0 1 12 5.39"/></svg>
