<svg xmlns="http://www.w3.org/2000/svg" viewBox="0 0 24 24"><g fill="currentColor"><path d="M10.68 5.85A7.52 7.52 0 0 0 6 10.7a1 1 0 0 0 .6 1.3.8.8 0 0 0 .3.05 1 1 0 0 0 1-.7 5.49 5.49 0 0 1 3.46-3.55 1 1 0 0 0-.64-1.9Z"/><path d="M1.66 17.5h2.27a.51.51 0 0 0 .44-.26.5.5 0 0 0 0-.5A9 9 0 1 1 21 12a8.93 8.93 0 0 1-1.36 4.74.5.5 0 0 0 0 .5.51.51 0 0 0 .44.26h2.27a.49.49 0 0 0 .45-.28A11.9 11.9 0 0 0 24 12a12 12 0 0 0-24 0 11.9 11.9 0 0 0 1.21 5.22.49.49 0 0 0 .45.28M23 19h-6.29a1 1 0 0 0-.71.29l-1.56 1.56a.47.47 0 0 1-.35.15H9.91a.47.47 0 0 1-.35-.15L8 19.29a1 1 0 0 0-.71-.29H1a1 1 0 0 0-1 1v.5C0 22.72 1.64 24 4.5 24h15c2.86 0 4.5-1.28 4.5-3.5V20a1 1 0 0 0-1-1"/></g></svg>
