<svg xmlns="http://www.w3.org/2000/svg" viewBox="0 0 24 24"><g fill="currentColor"><path d="M21.76 18a6.8 6.8 0 0 1-2.84-1.2.5.5 0 0 0-.64.05 8.81 8.81 0 0 1-12.56 0 .5.5 0 0 0-.64-.05A6.8 6.8 0 0 1 2.24 18 1.5 1.5 0 0 0 1 19.5v3A1.51 1.51 0 0 0 2.5 24a.8.8 0 0 0 .21 0 11.94 11.94 0 0 0 6.37-3 .25.25 0 0 1 .27 0 .25.25 0 0 1 .15.23v1.27A1.5 1.5 0 0 0 11 24h2a1.5 1.5 0 0 0 1.5-1.5v-1.35a.25.25 0 0 1 .15-.23.25.25 0 0 1 .27 0 11.94 11.94 0 0 0 6.36 3 1 1 0 0 0 .22 0A1.51 1.51 0 0 0 23 22.5v-3a1.5 1.5 0 0 0-1.24-1.5"/><path d="M12 18c4.42 0 8-4 8-9s-3.58-9-8-9-8 4-8 9 3.58 9 8 9m1-15.07a.26.26 0 0 1 .1-.2.24.24 0 0 1 .22 0 5.68 5.68 0 0 1 3.38 2.91.25.25 0 0 1 0 .24.27.27 0 0 1-.22.12h-3a.5.5 0 0 1-.5-.5Zm0 5.57a.5.5 0 0 1 .5-.5H17a.49.49 0 0 1 .5.46 6.5 6.5 0 0 1 0 1.08.49.49 0 0 1-.5.46h-3.5a.5.5 0 0 1-.5-.5Zm0 4a.5.5 0 0 1 .5-.5h3a.27.27 0 0 1 .22.12.25.25 0 0 1 0 .24 5.68 5.68 0 0 1-3.38 3 .24.24 0 0 1-.22 0 .26.26 0 0 1-.1-.2Zm-2 2.57a.26.26 0 0 1-.1.2.24.24 0 0 1-.22 0 5.68 5.68 0 0 1-3.38-3 .26.26 0 0 1 0-.24.27.27 0 0 1 .22-.03h3a.5.5 0 0 1 .5.5ZM7.3 5.64a5.68 5.68 0 0 1 3.38-2.95.24.24 0 0 1 .22 0 .26.26 0 0 1 .1.2V5.5a.5.5 0 0 1-.5.5h-3a.27.27 0 0 1-.22-.12.26.26 0 0 1 .02-.24m-.78 2.82A.49.49 0 0 1 7 8h3.5a.5.5 0 0 1 .5.5v1a.5.5 0 0 1-.5.5H7a.49.49 0 0 1-.5-.46 6.5 6.5 0 0 1 .02-1.08"/></g></svg>
