<svg xmlns="http://www.w3.org/2000/svg" viewBox="0 0 24 24"><path fill="currentColor" d="M8.36 21a1.5 1.5 0 0 0-1.43-1H5.37A1.5 1.5 0 0 0 4 21l-.6 1.68A1 1 0 0 0 4.35 24H8a1 1 0 0 0 .81-.41 1 1 0 0 0 .14-.91Zm11.13-1.6a.25.25 0 0 1-.11-.17l-.47-3.05a2.29 2.29 0 0 0-2.26-1.93H9a.5.5 0 0 1-.5-.57L9.51 6a3.74 3.74 0 0 1 2.89-3.14.5.5 0 0 0 .32-.24.47.47 0 0 0 0-.4 2.5 2.5 0 0 1-.11-.72 2.3 2.3 0 0 1 .1-.5.48.48 0 0 0-.12-.46.51.51 0 0 0-.45-.15A6.26 6.26 0 0 0 7 5.67L5.29 18.72a.22.22 0 0 0 .06.19.25.25 0 0 0 .19.09h1.72a.5.5 0 0 0 .38-.09.53.53 0 0 0 .19-.34L8 17.18a.5.5 0 0 1 .49-.43H16a.5.5 0 0 1 .49.42l.31 2a.23.23 0 0 1-.1.24 2.5 2.5 0 1 0 2.75-.05ZM13.65 1.5a1.5 1.5 0 0 0 1.5 1.5h4a1.5 1.5 0 0 0 0-3h-4a1.5 1.5 0 0 0-1.5 1.5"/></svg>
