<svg xmlns="http://www.w3.org/2000/svg" viewBox="0 0 24 24"><path fill="currentColor" d="M17.56 2.22a3.77 3.77 0 0 0-2.84 1.35.43.43 0 0 1-.46.09.43.43 0 0 1-.26-.4V.5a.5.5 0 0 0-.5-.5H10a.5.5 0 0 0-.5.5v2.82a4.6 4.6 0 0 0 1.39 3.22 3.58 3.58 0 0 1 .47 4.46A8.7 8.7 0 0 1 4 15a4 4 0 0 0-4 4v4.5a.5.5 0 0 0 .5.5H4a.5.5 0 0 0 .5-.5v-3.23a1 1 0 0 1 1-1c.33-.07.85.53 1.14.83A9.21 9.21 0 0 0 17 22.39c3.38-1.38 7-5.08 7-11.34 0-5.2-2.65-8.83-6.44-8.83M13.8 20.5a4.94 4.94 0 0 1-4.08-2.06 1.24 1.24 0 0 1-.15-1.12 1.26 1.26 0 0 1 .84-.78 5.2 5.2 0 0 1 1.42-.2 1.18 1.18 0 0 0 1.06-.71 4.31 4.31 0 0 1 3.41-2.3 2.53 2.53 0 0 1 2.49 1.55 2.9 2.9 0 0 1 .21 1.17c0 2.37-2.41 4.45-5.2 4.45"/></svg>
