<svg xmlns="http://www.w3.org/2000/svg" viewBox="0 0 24 24"><g fill="currentColor"><path d="M11.85 11.84a8 8 0 0 1 9.64-1.28.24.24 0 0 0 .23 0 .25.25 0 0 0 .15-.18A8 8 0 0 0 22 9c0-5-4.93-9-11-9S0 4 0 9a8.06 8.06 0 0 0 2.66 5.85L1 19.32a.5.5 0 0 0 .13.54.51.51 0 0 0 .53.1l5.84-2.43a14 14 0 0 0 1.71.34.25.25 0 0 0 .2-.06.27.27 0 0 0 .08-.19 8 8 0 0 1 2.36-5.78"/><path d="M17.49 11A6.49 6.49 0 0 0 11 17.51c0 5 4.42 6.49 6.54 6.49A6.51 6.51 0 0 0 24 17.48c0-5.74-5.5-6.48-6.51-6.48m-2.1 10.48a.25.25 0 0 1-.06-.4l5.75-5.75a.26.26 0 0 1 .4.05 4.51 4.51 0 0 1-6.09 6.1m-1.07-7.17a4.52 4.52 0 0 1 5.29-.79.23.23 0 0 1 .13.18.23.23 0 0 1-.07.21l-5.75 5.75a.23.23 0 0 1-.21.07.27.27 0 0 1-.19-.14 4.45 4.45 0 0 1 .8-5.28"/></g></svg>
