<svg xmlns="http://www.w3.org/2000/svg" viewBox="0 0 24 24"><path fill="currentColor" d="M2 12a1 1 0 1 0-2 0 12 12 0 0 0 2.72 7.55 1 1 0 0 0 .78.36 1 1 0 0 0 .63-.23 1 1 0 0 0 .14-1.4A10 10 0 0 1 2 12M9.18 1.21A1 1 0 0 0 7.9.61a12.06 12.06 0 0 0-6.19 5.11 1 1 0 0 0 .34 1.37 1 1 0 0 0 .51.15 1 1 0 0 0 .86-.49 10.1 10.1 0 0 1 5.16-4.26 1 1 0 0 0 .6-1.28m14.69 8.93a1 1 0 0 0-1.13-.84 1 1 0 0 0-.85 1.13A10 10 0 0 1 22 11.9a10 10 0 0 1-2.24 6.3 1 1 0 0 0 .15 1.41 1 1 0 0 0 .63.22 1 1 0 0 0 .78-.37A12 12 0 0 0 24 11.9a11.5 11.5 0 0 0-.13-1.76m-3.4-4.26a1 1 0 0 0 .64-.23 1 1 0 0 0 .13-1.41 12.1 12.1 0 0 0-6.9-4.12 1 1 0 0 0-.38 2 10.06 10.06 0 0 1 5.74 3.39 1 1 0 0 0 .77.37m-5.1 15.43a10 10 0 0 1-6.69 0A1 1 0 0 0 8 23.22a12 12 0 0 0 8 0 1 1 0 1 0-.67-1.89ZM12.5 5.4C8.92 5.4 6 7.8 6 10.75a4.78 4.78 0 0 0 1.54 3.47.25.25 0 0 1 0 .29L6.5 16.67a.5.5 0 0 0 .09.57.52.52 0 0 0 .41.16.5.5 0 0 0 .21 0l3.2-1.48a.22.22 0 0 1 .16 0 7.7 7.7 0 0 0 2 .25c3.58 0 6.5-2.4 6.5-5.36S16.08 5.4 12.5 5.4"/></svg>
