<svg xmlns="http://www.w3.org/2000/svg" viewBox="0 0 24 24"><path fill="currentColor" d="M24 3.64a1.78 1.78 0 0 0-.56-1.28 1.74 1.74 0 0 0-1.33-.46 113.6 113.6 0 0 1-20.21 0 1.73 1.73 0 0 0-1.34.46A1.78 1.78 0 0 0 0 3.64v12.42a1.78 1.78 0 0 0 .56 1.28 1.77 1.77 0 0 0 1.33.46c3.18-.25 5.68-.4 8.35-.44a.48.48 0 0 1 .36.15.47.47 0 0 1 .15.35v1.25a.5.5 0 0 1-.5.5H7a1.25 1.25 0 0 0 0 2.5h10a1.25 1.25 0 0 0 0-2.5h-3.25a.5.5 0 0 1-.5-.5v-1.25a.47.47 0 0 1 .15-.35.48.48 0 0 1 .36-.15c2.67 0 5.18.19 8.35.44A1.75 1.75 0 0 0 24 16.06Zm-2.5 11.07a.48.48 0 0 1-.16.36.5.5 0 0 1-.38.14 111.6 111.6 0 0 0-17.96 0 .5.5 0 0 1-.38-.14.48.48 0 0 1-.16-.36V5a.48.48 0 0 1 .16-.36.5.5 0 0 1 .38-.15 112 112 0 0 0 18 0 .5.5 0 0 1 .38.14.48.48 0 0 1 .12.37Z"/></svg>
