<svg xmlns="http://www.w3.org/2000/svg" viewBox="0 0 24 24"><path fill="currentColor" d="M23.58 1.18a1.41 1.41 0 0 0-1.46-.34l-4.54 1.51a1.45 1.45 0 0 0-.59.37l-.19.18a1.52 1.52 0 0 0-.44 1.1 1.6 1.6 0 0 0 .15.64l-4.24 4.21a1.36 1.36 0 0 1-.85-.56 1.78 1.78 0 0 1 0-1.43 1.49 1.49 0 0 0-.65-1.72 1.86 1.86 0 0 0-2.31.47 5.86 5.86 0 0 0-1.79 3.64.5.5 0 0 1-.46.45 6.5 6.5 0 0 0-5.87 3.93c-.86 2.29-.07 4.89 2.16 7.12a7.55 7.55 0 0 0 5.22 2.49 5.3 5.3 0 0 0 1.88-.34 6.58 6.58 0 0 0 4-5.85.49.49 0 0 1 .45-.47 5.8 5.8 0 0 0 3.64-1.78 1.87 1.87 0 0 0 .47-2.3 1.47 1.47 0 0 0-1.72-.65 1.9 1.9 0 0 1-1.44 0 1.37 1.37 0 0 1-.57-.85l4.25-4.24a1.48 1.48 0 0 0 1.7-.29l3.24-3.24a1.44 1.44 0 0 0-.04-2.05M8.3 19.2l-.36.36a1.5 1.5 0 0 1-2.12 0l-2.13-2.13a1.49 1.49 0 0 1 0-2.12l.36-.31a1.51 1.51 0 0 1 2.12 0l2.13 2.08a1.51 1.51 0 0 1 0 2.12m1.9-3a.75.75 0 0 1-1.06 0L7 14.11a.75.75 0 0 1 0-1.06.74.74 0 0 1 1.06 0l2.13 2.12a.75.75 0 0 1 .01 1.06Z"/></svg>
