<svg xmlns="http://www.w3.org/2000/svg" fill="none" viewBox="0 0 24 24"><path fill="currentColor" fill-rule="evenodd" d="M12.622.25a2 2 0 0 0-1.414.585L8.612 3.43A4.25 4.25 0 1 0 3.43 8.613L.836 11.207a2 2 0 0 0 0 2.829l2.11 2.106a.5.5 0 0 0 .815-.16 3.25 3.25 0 1 1 4.257 4.257.5.5 0 0 0-.16.814l2.106 2.107a2 2 0 0 0 2.829 0l2.594-2.59a4.25 4.25 0 0 0 4.942 3.098 4.25 4.25 0 0 0 .241-8.281l2.595-2.594a2 2 0 0 0 0-2.829l-2.112-2.106a.5.5 0 0 0-.814.16 3.25 3.25 0 1 1-4.257-4.257.5.5 0 0 0 .16-.814L14.036.836A2 2 0 0 0 12.622.25" clip-rule="evenodd"/></svg>
