<svg xmlns="http://www.w3.org/2000/svg" viewBox="0 0 24 24"><g fill="currentColor"><path d="M11.62 11.66a.25.25 0 0 0-.23-.16H2.5A.5.5 0 0 1 2 11V2.5a.5.5 0 0 1 .5-.5h13a.5.5 0 0 1 .5.5v6.85a.25.25 0 0 0 .09.19.26.26 0 0 0 .2.05 8 8 0 0 1 1.21-.09h.23a.26.26 0 0 0 .19-.07.25.25 0 0 0 .08-.17V2a2 2 0 0 0-2-2H2a2 2 0 0 0-2 2v10.5a2 2 0 0 0 2 2h5.5a.5.5 0 0 1 .5.5v.5a.5.5 0 0 1-.5.5H5a1 1 0 0 0 0 2h3.75a.25.25 0 0 0 .25-.24 8.52 8.52 0 0 1 2.56-5.83.25.25 0 0 0 .06-.27m11.15 6.94a1 1 0 0 0-1.27.62 4.09 4.09 0 0 1-6.92 1.42.24.24 0 0 1 0-.34l1.72-1.72a.51.51 0 0 0 .11-.55.5.5 0 0 0-.46-.31H11.5a.5.5 0 0 0-.5.5v4.46a.5.5 0 0 0 .31.46.47.47 0 0 0 .54-.11l1-1A.3.3 0 0 1 13 22a.23.23 0 0 1 .18.08 6.09 6.09 0 0 0 10.21-2.2 1 1 0 0 0-.62-1.28"/><path d="M23.69 11.77a.51.51 0 0 0-.54.11l-1 1a.3.3 0 0 1-.18.07.25.25 0 0 1-.18-.08A6.09 6.09 0 0 0 11.6 15.1a1 1 0 1 0 1.89.65 4.1 4.1 0 0 1 6.9-1.45.26.26 0 0 1 0 .35l-1.66 1.66a.5.5 0 0 0 .35.85h4.42a.5.5 0 0 0 .5-.5v-4.43a.5.5 0 0 0-.31-.46"/></g></svg>
