<svg xmlns="http://www.w3.org/2000/svg" viewBox="0 0 24 24"><path fill="currentColor" d="M23.64 18a1 1 0 0 0-1.41.13S20 20.75 17.5 20.75a12.4 12.4 0 0 1-5.13-1.18 14.2 14.2 0 0 0-5.87-1.32C3.12 18.25.41 20.93.29 21a1 1 0 0 0 1.42 1.42S4 20.25 6.5 20.25a12.4 12.4 0 0 1 5.13 1.18 14.2 14.2 0 0 0 5.87 1.32c3.43 0 6.15-3.22 6.27-3.36a1 1 0 0 0-.13-1.39M1.62 17a8.9 8.9 0 0 1 4.88-1.75 12.4 12.4 0 0 1 5.13 1.18 14.2 14.2 0 0 0 5.87 1.32c3.38 0 6.05-3.56 6.3-3.9a1 1 0 0 0 .2-.6 1 1 0 0 0-1-1c-1 0-1.5-.65-1.5-2a9 9 0 0 0-9-9 8 8 0 0 0-6 2.68 1.77 1.77 0 0 0 1.71 2.9A4 4 0 0 1 9 6.75a3.5 3.5 0 0 1 3.5 3.5 3.4 3.4 0 0 1-.36 1.55 1 1 0 1 0 1.79.9A5.51 5.51 0 0 0 9 4.75a.18.18 0 0 1-.16-.11.17.17 0 0 1 .06-.19 6 6 0 0 1 3.6-1.2 7 7 0 0 1 7 7 3.89 3.89 0 0 0 1.5 3.38.23.23 0 0 1 .1.19.24.24 0 0 1-.1.18 5.6 5.6 0 0 1-3.47 1.73 12.4 12.4 0 0 1-5.13-1.18 14.2 14.2 0 0 0-5.9-1.3 11 11 0 0 0-6.13 2.22 1 1 0 0 0-.15 1.41 1 1 0 0 0 1.4.12"/></svg>
