<svg xmlns="http://www.w3.org/2000/svg" viewBox="0 0 24 24"><g fill="currentColor"><path d="M22.29 9a1 1 0 0 0 .9-1.33A12 12 0 0 0 11.94 0C1.52.71 0 9.32 0 12a12 12 0 0 0 11.16 12 1.19 1.19 0 0 0 1.11-.64 1.19 1.19 0 0 0-.32-1.5 10.54 10.54 0 0 1-3.27-4 .3.3 0 0 1 0-.21.27.27 0 0 1 .15-.13 1 1 0 0 0 .68-.94 1 1 0 0 0-1-1H8.1a.26.26 0 0 1-.25-.2A15 15 0 0 1 7.5 12a16 16 0 0 1 .25-2.8A.26.26 0 0 1 8 9zM2.82 15.5a.26.26 0 0 1-.24-.17A9.9 9.9 0 0 1 2 12a9.7 9.7 0 0 1 .41-2.82.25.25 0 0 1 .24-.18h2.8a.26.26 0 0 1 .25.29A17.5 17.5 0 0 0 5.5 12a16.6 16.6 0 0 0 .3 3.2.26.26 0 0 1-.06.21.28.28 0 0 1-.19.09ZM8 20.66A.24.24 0 0 1 8 21a.25.25 0 0 1-.3.07 10.15 10.15 0 0 1-3.8-3.13.27.27 0 0 1 0-.26.25.25 0 0 1 .23-.14h2.09a.25.25 0 0 1 .24.16A13 13 0 0 0 8 20.66M6.3 6.83a.26.26 0 0 1-.24.17H3.8a.25.25 0 0 1-.22-.13.27.27 0 0 1 0-.26A10 10 0 0 1 7.73 3a.25.25 0 0 1 .27.34 13.2 13.2 0 0 0-1.7 3.49M8.72 7a.26.26 0 0 1-.21-.11.3.3 0 0 1 0-.24 10.1 10.1 0 0 1 3.36-4.38.26.26 0 0 1 .29 0 10.1 10.1 0 0 1 3.34 4.38.23.23 0 0 1 0 .24.25.25 0 0 1-.21.11Zm9.22 0a.26.26 0 0 1-.24-.17 13.1 13.1 0 0 0-1.77-3.52.24.24 0 0 1 0-.31.25.25 0 0 1 .29-.07 10 10 0 0 1 4.2 3.68.24.24 0 0 1 0 .26.25.25 0 0 1-.22.13Z"/><path d="M21.18 19.76a.25.25 0 0 1 0-.31A5.45 5.45 0 0 0 22 16.5a5.5 5.5 0 1 0-2.55 4.64.24.24 0 0 1 .31 0l2.54 2.54a1 1 0 1 0 1.41-1.42ZM16.5 13a3.5 3.5 0 1 1-3.5 3.5 3.5 3.5 0 0 1 3.5-3.5"/></g></svg>
