<svg xmlns="http://www.w3.org/2000/svg" viewBox="0 0 24 24"><g fill="currentColor"><path d="m18.71 9.21 1-1a1 1 0 1 0-1.42-1.42l-1 1a1 1 0 0 1-1.41 0 3.08 3.08 0 0 0-4.24 0 1 1 0 0 1-1.42 0 3.08 3.08 0 0 0-4.22 0l-1 1a1 1 0 0 0 0 1.42 1 1 0 0 0 1.41 0l1-1a1 1 0 0 1 1.42 0 3 3 0 0 0 4.24 0 1 1 0 0 1 1.41 0 3 3 0 0 0 4.23 0m-7.07 4.58a1 1 0 0 1-1.42 0 3.08 3.08 0 0 0-4.24 0l-1 1a1 1 0 0 0 0 1.42 1 1 0 0 0 1.41 0l1-1a1 1 0 0 1 1.42 0 3 3 0 0 0 4.24 0 1 1 0 0 0 0-1.42 1 1 0 0 0-1.41 0"/><path d="M24 2a2 2 0 0 0-2-2H2a2 2 0 0 0-2 2v20a2 2 0 0 0 2 2h14a1 1 0 0 0 .71-.29l7-7A1 1 0 0 0 24 16ZM2 2.5a.5.5 0 0 1 .5-.5h19a.5.5 0 0 1 .5.5V15a.5.5 0 0 1-.5.5h-4a2 2 0 0 0-2 2v4a.5.5 0 0 1-.5.5H2.5a.5.5 0 0 1-.5-.5Z"/></g></svg>
