<svg xmlns="http://www.w3.org/2000/svg" viewBox="0 0 24 24"><g fill="currentColor"><path d="M23 8.46a2.5 2.5 0 0 0-4.39 2.16.49.49 0 0 0 .48.38h.52a.25.25 0 0 1 .19.09.23.23 0 0 1 .05.21l-.41 2a1.52 1.52 0 0 1-.92 1 .27.27 0 0 1-.3-.09 1.5 1.5 0 0 0-.72-.53A17.8 17.8 0 0 0 12 13a17.8 17.8 0 0 0-5.47.76 1.5 1.5 0 0 0-.72.53.27.27 0 0 1-.3.09 1.52 1.52 0 0 1-.92-1l-.41-2a.23.23 0 0 1 .05-.21.25.25 0 0 1 .19-.17h.52a.49.49 0 0 0 .48-.38 2.5 2.5 0 1 0-4.84 0 .49.49 0 0 0 .48.38h.61a.5.5 0 0 1 .49.4l.47 2.33a3.54 3.54 0 0 0 2.81 2.71.27.27 0 0 1 .19.14A1.49 1.49 0 0 0 7 17.5h3.75a.25.25 0 0 1 .25.25v.6a.26.26 0 0 1-.22.25 7.2 7.2 0 0 0-4.58 2.3.26.26 0 0 1-.2.1 1.5 1.5 0 1 0 1.5 1.56c0-.12 0-.15.3-.46a5 5 0 0 1 2.91-1.49.25.25 0 0 1 .2.06.22.22 0 0 1 .09.19v.53a1.5 1.5 0 1 0 2 0v-.53a.25.25 0 0 1 .09-.2.3.3 0 0 1 .2-.05 5 5 0 0 1 2.91 1.49c.26.32.3.34.3.46A1.5 1.5 0 1 0 18 21a.25.25 0 0 1-.2-.09 7.2 7.2 0 0 0-4.58-2.3.26.26 0 0 1-.22-.25v-.6a.25.25 0 0 1 .25-.25H17a1.49 1.49 0 0 0 1.37-.92.27.27 0 0 1 .19-.14 3.54 3.54 0 0 0 2.81-2.71l.47-2.33a.5.5 0 0 1 .49-.4h.61a.49.49 0 0 0 .48-.38A2.49 2.49 0 0 0 23 8.46"/><path d="M7.18 11.57a.5.5 0 0 0 .57.32 23.4 23.4 0 0 1 8.5 0 .51.51 0 0 0 .57-.32A29 29 0 0 0 18.5 5.5 5.89 5.89 0 0 0 13.09.05a11.3 11.3 0 0 0-2.18 0A5.89 5.89 0 0 0 5.5 5.5a29 29 0 0 0 1.68 6.07"/></g></svg>
