<svg xmlns="http://www.w3.org/2000/svg" viewBox="0 0 24 24"><path fill="currentColor" d="M22.87 22H19a.23.23 0 0 1-.2-.1.23.23 0 0 1 0-.21l1.32-5a.88.88 0 0 0-.18-.79 1 1 0 0 0-.78-.36H4.87a1 1 0 0 0-.78.36.88.88 0 0 0-.18.79l1.32 5a.23.23 0 0 1 0 .21.23.23 0 0 1-.23.1H1.13a1 1 0 0 0 0 2h21.74a1 1 0 0 0 0-2M12 18a1.24 1.24 0 1 1-1.23 1.24A1.23 1.23 0 0 1 12 18m-5.72-4.43a.5.5 0 0 0 .5.48h10.44a.5.5 0 0 0 .5-.49 5.73 5.73 0 0 0-3.2-5.14.24.24 0 0 1 0-.42 4.39 4.39 0 1 0-5.09 0 .28.28 0 0 1 .11.23.26.26 0 0 1-.14.2 5.74 5.74 0 0 0-3.12 5.14M12 9.67a.74.74 0 0 1 .74.74v1.22a.74.74 0 0 1-1.48 0v-1.22a.74.74 0 0 1 .74-.74m-2.35-6a.24.24 0 0 1 .16-.15.22.22 0 0 1 .21 0 5.56 5.56 0 0 0 3 .9 6 6 0 0 0 1.13-.12.11.11 0 0 1 .1 0 .14.14 0 0 1 .05.1 2.41 2.41 0 1 1-4.69-.77Z"/></svg>
