<svg xmlns="http://www.w3.org/2000/svg" viewBox="0 0 24 24"><g fill="currentColor"><path d="M21.71 5.71 16.29.29a1 1 0 0 0-.7-.29H4a2 2 0 0 0-2 2v20a2 2 0 0 0 2 2h16a2 2 0 0 0 2-2V6.41a1 1 0 0 0-.29-.7M20 21.5a.5.5 0 0 1-.5.5h-15a.5.5 0 0 1-.5-.5v-19a.5.5 0 0 1 .5-.5h10.25a.25.25 0 0 1 .25.25V5a2 2 0 0 0 2 2h2.75a.25.25 0 0 1 .25.25Z"/><path d="M16 9.5H8a1 1 0 0 0-1 1V12a1 1 0 0 0 2 0v-.25a.25.25 0 0 1 .25-.25h1.5a.25.25 0 0 1 .25.25v5a.25.25 0 0 1-.25.25H9.5a1 1 0 0 0 0 2h5a1 1 0 0 0 0-2h-1.25a.25.25 0 0 1-.25-.25v-5a.25.25 0 0 1 .25-.25h1.5a.25.25 0 0 1 .25.25V12a1 1 0 0 0 2 0v-1.5a1 1 0 0 0-1-1"/></g></svg>
