<svg xmlns="http://www.w3.org/2000/svg" viewBox="0 0 24 24"><path fill="currentColor" d="M23.44.39a1 1 0 0 0-1.07.13c-2.87 2.33-3.87 1.78-5.52.88a9.1 9.1 0 0 0-9.7 0c-1.66.9-2.66 1.45-5.52-.88A1 1 0 0 0 .56.39 1 1 0 0 0 0 1.3c0 2.48.69 10.56 7.69 10.56A11 11 0 0 0 12 11a11.2 11.2 0 0 0 4.32.83 6.46 6.46 0 0 0 5.24-2.33.22.22 0 0 1 .27-.08.26.26 0 0 1 .17.23V23a1 1 0 0 0 2 0V1.3a1 1 0 0 0-.56-.91M10.56 7.47c-.4 1-1.78 1.32-3.09.78a14.5 14.5 0 0 1-3.3-2.93.5.5 0 0 1 .35-.84 14 14 0 0 1 4.4.26c1.31.54 2.08 1.76 1.64 2.73m9.32-2.15a14.3 14.3 0 0 1-3.31 2.93c-1.3.54-2.68.19-3.08-.78s.33-2.19 1.64-2.73a14 14 0 0 1 4.4-.26.5.5 0 0 1 .35.84"/></svg>
