<svg xmlns="http://www.w3.org/2000/svg" viewBox="0 0 24 24"><path fill="currentColor" d="M12 8.75a1 1 0 0 1-.68-.27.9.9 0 0 1 0-1.3 1.5 1.5 0 0 0 .47-1.08 1.47 1.47 0 0 0-.47-1.1 3.32 3.32 0 0 1-1-2.38 3.32 3.32 0 0 1 1-2.38 1 1 0 0 1 1.36 0 .9.9 0 0 1 0 1.3 1.5 1.5 0 0 0-.47 1.08 1.45 1.45 0 0 0 .47 1.07 3.29 3.29 0 0 1 0 4.76 1 1 0 0 1-.68.3m0 1.75c-2.81 0-12 .23-12 3.25C0 19.41 5.37 24 12 24s12-4.59 12-10.25c0-3.02-9.19-3.25-12-3.25m0 2a32.6 32.6 0 0 1 9 1 .25.25 0 0 1 0 .5 32.6 32.6 0 0 1-9 1 32.6 32.6 0 0 1-9-1 .25.25 0 0 1 0-.48 32.6 32.6 0 0 1 9-1.02M7.26 6.65a.35.35 0 0 1-.06.4 1 1 0 0 0 .7 1.7 1 1 0 0 0 .71-.29 2.36 2.36 0 0 0 .15-3.22 4 4 0 0 1-.21-.38.35.35 0 0 1 .06-.4 1 1 0 0 0 0-1.41 1 1 0 0 0-1.41 0 2.36 2.36 0 0 0-.15 3.22 4 4 0 0 1 .21.38m8.19 0a.35.35 0 0 1-.06.4 1 1 0 0 0 .7 1.7 1 1 0 0 0 .71-.29 2.36 2.36 0 0 0 .2-3.22 4 4 0 0 1-.21-.38.35.35 0 0 1 .06-.4 1 1 0 0 0 0-1.41 1 1 0 0 0-1.41 0 2.35 2.35 0 0 0-.15 3.22 4 4 0 0 1 .16.38"/></svg>
