<svg xmlns="http://www.w3.org/2000/svg" fill="none" viewBox="0 0 24 24"><path fill="currentColor" fill-rule="evenodd" d="M12 .363C5.573.363.363 5.573.363 12S5.573 23.637 12 23.637 23.637 18.427 23.637 12 18.427.363 12 .363M6.372 15.85a1.704 1.704 0 1 0 0-3.407 1.704 1.704 0 0 0 0 3.407m6.626-1.116a1.03 1.03 0 1 1-2.062 0 1.03 1.03 0 0 1 2.062 0m.15 5.647a1.031 1.031 0 1 0 0-2.062 1.031 1.031 0 0 0 0 2.062M6.73 7.024a1.03 1.03 0 1 1-2.062 0 1.03 1.03 0 0 1 2.062 0m11.116.99a3.066 3.066 0 0 1-5.88 1.218 2.202 2.202 0 1 1 .88-3.598 3.066 3.066 0 0 1 5 2.38m2.82 4.602a.75.75 0 0 0-1.499.068c.024.517-.096.76-.214.909-.146.182-.366.32-.74.523l-.082.044c-.329.177-.77.415-1.135.78-.428.429-.73 1.001-.816 1.798a.75.75 0 0 0 1.492.162c.05-.471.208-.723.385-.9.204-.204.461-.343.838-.547l.032-.018c.353-.191.837-.455 1.198-.906.388-.485.577-1.107.54-1.913" clip-rule="evenodd"/></svg>
