<svg xmlns="http://www.w3.org/2000/svg" viewBox="0 0 24 24"><path fill="currentColor" d="M12 0a12 12 0 0 0 0 24c4.48 0 6.14-1.74 6.74-3.2a4 4 0 0 0-.18-3.61 1.91 1.91 0 0 0 0-2.57l-1.44-1.43a1.93 1.93 0 0 0-2.72.1l-.21.21a28.4 28.4 0 0 1-3.69-3.68l.21-.21a1.94 1.94 0 0 0 .11-2.73L9.39 5.45a1.94 1.94 0 0 0-2.73.11l-.87.87a2.73 2.73 0 0 0-.48 3.32 28.7 28.7 0 0 0 8.93 8.93 2.46 2.46 0 0 0 1.32.37 2.84 2.84 0 0 0 1.44-.43 2.5 2.5 0 0 1-.28 1.69C16.09 21.41 14.45 22 12 22a10 10 0 1 1 8.25-4.34 1 1 0 1 0 1.64 1.13A11.87 11.87 0 0 0 24 12 12 12 0 0 0 12 0"/></svg>
