<svg xmlns="http://www.w3.org/2000/svg" viewBox="0 0 24 24"><path fill="currentColor" d="m3.29 5.32-1.5-1.94a1 1 0 0 0-1.4-.17 1 1 0 0 0-.18 1.4l1 1.32-1 1.33a1 1 0 0 0 0 1.22l1 1.33-1 1.33a1 1 0 0 0 0 1.22l1 1.33-1 1.31a1 1 0 0 0 0 1.23l1 1.32-1 1.33a1 1 0 0 0 1.58 1.22l1.5-1.94a1 1 0 0 0 0-1.22l-1-1.33 1-1.32a1 1 0 0 0 0-1.23l-1-1.32 1-1.33a1 1 0 0 0 0-1.22l-1-1.33 1-1.32a1 1 0 0 0 0-1.22m19.47 12.24 1-1.32a1 1 0 0 0 0-1.23l-1-1.32 1-1.33a1 1 0 0 0 0-1.22l-1-1.33 1-1.33a1 1 0 0 0 0-1.22l-1-1.33 1-1.32a1 1 0 0 0-1.58-1.23l-1.5 1.94a1 1 0 0 0 0 1.23l1 1.32-1 1.33a1 1 0 0 0 0 1.22l1 1.33-1 1.32a1 1 0 0 0 0 1.23l1 1.32-1 1.33a1 1 0 0 0 0 1.22l1.5 1.94a1 1 0 1 0 1.58-1.22ZM16 2H8a2.5 2.5 0 0 0-2.5 2.5v15A2.5 2.5 0 0 0 8 22h8a2.5 2.5 0 0 0 2.5-2.5v-15A2.5 2.5 0 0 0 16 2m.5 14.5a1 1 0 0 1-1 1h-7a1 1 0 0 1-1-1v-11a1 1 0 0 1 1-1h7a1 1 0 0 1 1 1Z"/></svg>
