<svg xmlns="http://www.w3.org/2000/svg" viewBox="0 0 24 24"><g fill="currentColor"><path d="M9.75 16.5a2.25 2.25 0 1 0 4.5 0 2.25 2.25 0 1 0-4.5 0"/><path d="M15 10.64V9a1 1 0 0 0-2 0v1.5h-2V9a1 1 0 0 0-2 0v1.64A8.51 8.51 0 0 0 2 19v2a1.5 1.5 0 0 0 1.5 1.5h17A1.5 1.5 0 0 0 22 21v-2a8.51 8.51 0 0 0-7-8.36m-3 2.11a3.75 3.75 0 1 1-3.75 3.75A3.75 3.75 0 0 1 12 12.75"/><path d="M21.1 2.42a45.3 45.3 0 0 0-18.2 0A3.69 3.69 0 0 0 0 5.91v2a2.5 2.5 0 0 0 2.5 2.5h3A2.5 2.5 0 0 0 8 7.91V7.1a.25.25 0 0 1 .23-.25 45 45 0 0 1 7.54 0 .25.25 0 0 1 .23.25v.81a2.5 2.5 0 0 0 2.5 2.5h3a2.5 2.5 0 0 0 2.5-2.5v-2a3.69 3.69 0 0 0-2.9-3.49"/></g></svg>
