<svg xmlns="http://www.w3.org/2000/svg" viewBox="0 0 24 24"><g fill="currentColor"><path d="M15 6a9 9 0 0 1 2.61.39A9 9 0 1 0 6.39 17.61 9 9 0 0 1 15 6"/><path d="M17.61 6.39A9 9 0 0 1 6.39 17.61 9 9 0 1 0 17.61 6.39"/><path d="M14 14.75a.74.74 0 0 1-.53-.22l-4-4a.75.75 0 0 1 1.06-1.06l4 4a.75.75 0 0 1 0 1.06.74.74 0 0 1-.53.22m2-3a.74.74 0 0 1-.53-.22l-3-3a.75.75 0 0 1 1.06-1.06l3 3a.75.75 0 0 1 0 1.06.74.74 0 0 1-.53.22m-5 5a.74.74 0 0 1-.53-.22l-3-3a.75.75 0 0 1 1.06-1.06l3 3a.75.75 0 0 1 0 1.06.74.74 0 0 1-.53.22"/></g></svg>
