<svg xmlns="http://www.w3.org/2000/svg" viewBox="0 0 24 24"><path fill="currentColor" d="M19 1.26c-2.88 0-4.78 1.14-5.57 2.32a.27.27 0 0 1-.32.09 1.14 1.14 0 0 1-.4-.33 3 3 0 0 0-5.13.33L7 4.68a1 1 0 0 1-1.65.17 3 3 0 0 0-2.29-1.08H1a1 1 0 0 0 0 2h2.06a1 1 0 0 1 .77.36 3 3 0 0 0 5-.5l.54-1a1 1 0 0 1 1.75-.12 3 3 0 0 0 2.09 1.23.27.27 0 0 1 .19.11c.71 1.2 2.6 2.41 5.6 2.41 2.49 0 5-1.2 5-3.5s-2.58-3.5-5-3.5m-3.46 9.01a5.07 5.07 0 0 0-3.31 1.06.23.23 0 0 1-.32 0 3 3 0 0 0-2.39-.67c-2.11.35-1.91 2.06-2.91 2.23a1 1 0 0 1-.83-.27 2.94 2.94 0 0 0-2.09-.87H2.5a1 1 0 0 0 0 2h1.19a1 1 0 0 1 .68.28 2.94 2.94 0 0 0 2.09.87c2.45 0 2.4-2.1 3.38-2.26a.9.9 0 0 1 .81.26 2.9 2.9 0 0 0 1 .63.27.27 0 0 1 .12.09 4.52 4.52 0 0 0 3.81 1.61c1.72 0 3.46-.85 3.46-2.48s-1.82-2.48-3.5-2.48m-2 7.52a5.05 5.05 0 0 0-3.31 1.07.24.24 0 0 1-.32 0 2.88 2.88 0 0 0-2.39-.68c-2.12.35-1.91 2.06-2.91 2.22a1 1 0 0 1-.83-.27 3 3 0 0 0-2.09-.86H1a1 1 0 0 0 0 2h.69a1 1 0 0 1 .68.28 2.94 2.94 0 0 0 2.09.87c2.46 0 2.4-2.11 3.38-2.27a.93.93 0 0 1 .81.26 3 3 0 0 0 1 .64.22.22 0 0 1 .12.09 4.52 4.52 0 0 0 3.81 1.6c1.72 0 3.46-.85 3.46-2.47s-1.82-2.48-3.5-2.48"/></svg>
