<svg xmlns="http://www.w3.org/2000/svg" viewBox="0 0 24 24"><g fill="currentColor"><path d="M15.25 4.75a.25.25 0 0 0 .25-.25v-1a3.5 3.5 0 0 0-7 0v1a.25.25 0 0 0 .25.25Z"/><path d="M22.48 4.69a.24.24 0 0 1 0-.22 1.51 1.51 0 0 0-.36-1.53l-.8-.79a1.83 1.83 0 0 0-2.7 0 1.83 1.83 0 0 0 0 2.7l.79.8a1.5 1.5 0 0 0 1.06.43 1.6 1.6 0 0 0 .31 0 .25.25 0 0 1 .29.16 2.14 2.14 0 0 1-.31 2.08l-2.66 2.61a.3.3 0 0 1-.18.07H13a.25.25 0 0 1-.25-.25V9.11a.25.25 0 0 1 .18-.24A3.51 3.51 0 0 0 15.46 6a.24.24 0 0 0-.06-.2.25.25 0 0 0-.19-.09H8.79a.25.25 0 0 0-.19.09.24.24 0 0 0-.06.2 3.51 3.51 0 0 0 2.53 2.83.26.26 0 0 1 .18.24v1.64A.25.25 0 0 1 11 11H6.08a.3.3 0 0 1-.18-.07L3.27 8.29A2.14 2.14 0 0 1 3 6.21a.25.25 0 0 1 .29-.16 1.6 1.6 0 0 0 .31 0 1.5 1.5 0 0 0 1.06-.43l.79-.8a1.83 1.83 0 0 0 0-2.7 1.83 1.83 0 0 0-2.7 0l-.8.79a1.51 1.51 0 0 0-.36 1.53.24.24 0 0 1 0 .22 4.15 4.15 0 0 0 .33 5L3 10.85a.3.3 0 0 1 .07.22.26.26 0 0 1-.13.18 1.9 1.9 0 0 0-.8.76 2.08 2.08 0 0 0 .09 2.12l2 3.28A3.47 3.47 0 0 0 7 19h2.25a.25.25 0 0 1 .25.25v4.25a.5.5 0 0 0 .5.5h4a.5.5 0 0 0 .5-.5v-4.25a.25.25 0 0 1 .25-.25H17a3.47 3.47 0 0 0 2.8-1.59l2-3.28a2.08 2.08 0 0 0 .06-2.13 1.9 1.9 0 0 0-.8-.76.26.26 0 0 1-.13-.18.3.3 0 0 1 .07-.22l1.15-1.14a4.15 4.15 0 0 0 .33-5.01"/></g></svg>
