<svg xmlns="http://www.w3.org/2000/svg" viewBox="0 0 24 24"><g fill="currentColor"><path d="M9.24 18.35a2.85 2.85 0 1 0 2.85-2.85 2.85 2.85 0 0 0-2.85 2.85M4.69 21.2a2.85 2.85 0 1 0-2.85-2.85 2.85 2.85 0 0 0 2.85 2.85m11.77-2.85a2.85 2.85 0 1 0 2.85-2.85 2.86 2.86 0 0 0-2.85 2.85"/><path d="M23.39 23.19a5.15 5.15 0 0 0-4-1.93 5.17 5.17 0 0 0-3.48 1.34.24.24 0 0 1-.33 0 5.35 5.35 0 0 0-7.08 0 .24.24 0 0 1-.33 0 5.17 5.17 0 0 0-3.48-1.34 5.15 5.15 0 0 0-4 1.93.51.51 0 0 0-.06.53A.5.5 0 0 0 1 24h22a.5.5 0 0 0 .45-.28.51.51 0 0 0-.06-.53M8.64 9.5h6.73a.51.51 0 0 0 .4-.2.53.53 0 0 0 .08-.44 4 4 0 0 0-2.53-2.65 3.25 3.25 0 1 0-2.62 0 4.05 4.05 0 0 0-2.54 2.65.53.53 0 0 0 .08.44.51.51 0 0 0 .4.2M5 12a1 1 0 0 0 1 1h.48a.25.25 0 0 1 .24.2L7 14.7a1 1 0 0 0 2-.4l-.2-1a.23.23 0 0 1 .05-.21A.25.25 0 0 1 9 13h6a.25.25 0 0 1 .19.09.23.23 0 0 1 .05.21l-.2 1a1 1 0 0 0 2 .4l.3-1.5a.25.25 0 0 1 .24-.2H18a1 1 0 0 0 0-2H6a1 1 0 0 0-1 1"/></g></svg>
