<svg xmlns="http://www.w3.org/2000/svg" viewBox="0 0 24 24"><path fill="currentColor" d="M12 0a12 12 0 1 0 12 12A12 12 0 0 0 12 0m0 10a2 2 0 1 1-2 2 2 2 0 0 1 2-2m-4.47 2H4a.48.48 0 0 1-.36-.15.54.54 0 0 1-.14-.38 8.48 8.48 0 0 1 3.8-6.55.57.57 0 0 1 .4-.07.53.53 0 0 1 .3.24l1.76 3a.49.49 0 0 1-.12.64A4 4 0 0 0 8.54 10 3.9 3.9 0 0 0 8 11.58a.5.5 0 0 1-.47.42M16 19.3a.53.53 0 0 1-.26.31 8.47 8.47 0 0 1-7.56 0A.57.57 0 0 1 8 19.3a.53.53 0 0 1 0-.39l1.75-3a.49.49 0 0 1 .62-.22 3.92 3.92 0 0 0 3.24 0 .49.49 0 0 1 .62.22l1.75 3a.5.5 0 0 1 .02.39m4.3-7.45a.53.53 0 0 1-.3.15h-3.53a.5.5 0 0 1-.5-.42 3.9 3.9 0 0 0-.51-1.58 4 4 0 0 0-1.11-1.23.49.49 0 0 1-.12-.64l1.76-3a.5.5 0 0 1 .31-.24.56.56 0 0 1 .4.07 8.48 8.48 0 0 1 3.78 6.55.57.57 0 0 1-.14.34Z"/></svg>
