<svg xmlns="http://www.w3.org/2000/svg" viewBox="0 0 24 24"><path fill="currentColor" d="M23.93 22.49 20.05 13a.28.28 0 0 1 0-.18 13.4 13.4 0 0 0 .85-4.52 8.07 8.07 0 0 0-2-5.7C17.29 1 15 .13 12 .13S6.71 1 5.15 2.6A8.07 8.07 0 0 0 3.1 8.3a13.4 13.4 0 0 0 .83 4.46.2.2 0 0 1 0 .17L.07 22.49a1 1 0 0 0 .56 1.3 1 1 0 0 0 .37.08 1 1 0 0 0 .93-.63l.19-.47a.24.24 0 0 1 .23-.15h19.3a.25.25 0 0 1 .23.15l.19.47a1 1 0 0 0 .93.63 1 1 0 0 0 .38-.08 1 1 0 0 0 .55-1.3m-5.88-5.93c.19-.25.38-.52.55-.79a.25.25 0 0 1 .24-.11.21.21 0 0 1 .2.15l.33.81a.24.24 0 0 1 0 .23.26.26 0 0 1-.21.11h-.89a.25.25 0 0 1-.23-.14.25.25 0 0 1 .01-.26M6.61 7a.75.75 0 0 1 .64-.35h9.5a.75.75 0 0 1 .64.35.73.73 0 0 1 0 .73l-.75 1.5a.73.73 0 0 1-.67.42H8a.75.75 0 0 1-.67-.42L6.58 7.7a.79.79 0 0 1 .03-.7m8 10.31a4.52 4.52 0 0 1-5.27 0 2 2 0 0 1-.13-2.09A3 3 0 0 1 12 13.63a3 3 0 0 1 2.77 1.56 2 2 0 0 1-.14 2.09Zm-10-.66.33-.84a.26.26 0 0 1 .21-.16.27.27 0 0 1 .24.12c.18.28.37.56.57.82a.23.23 0 0 1 0 .26.23.23 0 0 1-.22.14h-.91a.25.25 0 0 1-.21-.11.21.21 0 0 1-.02-.26Zm16.24 3.89a.3.3 0 0 1-.21.11H3.36a.26.26 0 0 1-.24-.35l.47-1.15a.25.25 0 0 1 .23-.15h4.41a.23.23 0 0 1 .14 0 7 7 0 0 0 2.71 1.06 6 6 0 0 0 1.84 0A7 7 0 0 0 15.63 19a.3.3 0 0 1 .14 0h4.39a.25.25 0 0 1 .23.16l.47 1.15a.3.3 0 0 1-.02.2Z"/></svg>
