<svg xmlns="http://www.w3.org/2000/svg" viewBox="0 0 24 24"><g fill="currentColor"><path d="M23 7.75h-1a1 1 0 0 0 0 2h1a1 1 0 0 0 0-2M20 5a1 1 0 0 0 .71-.3l.71-.7A1 1 0 1 0 20 2.56l-.7.71a1 1 0 0 0 0 1.41A1 1 0 0 0 20 5m-4.75-2a1 1 0 0 0 1-1V1a1 1 0 0 0-2 0v1a1 1 0 0 0 1 1m-6.1 1.06a1 1 0 0 0 .7.29 1 1 0 0 0 .71-.29 1 1 0 0 0 0-1.41l-.71-.71a1 1 0 0 0-1.41 1.41Zm12 9.18a1 1 0 0 0-1.41 1.41l.71.71a1 1 0 0 0 .7.29 1 1 0 0 0 .71-.29 1 1 0 0 0 0-1.42ZM7 21.5a2.5 2.5 0 0 0 5 0 1 1 0 0 0-2 0 .5.5 0 0 1-1 0v-3.25a.25.25 0 0 0-.25-.25h-1.5a.25.25 0 0 0-.25.25ZM7 8.35a.25.25 0 0 1-.21.24A8 8 0 0 0 0 16.5a.5.5 0 0 0 .5.5h15a.51.51 0 0 0 .5-.45v-.05a8 8 0 0 0-6.79-7.91.25.25 0 0 1-.21-.24V8a1 1 0 0 0-.11-.46 1 1 0 0 0-1.78 0A1 1 0 0 0 7 8Z"/><path d="M20 9.48a5.5 5.5 0 0 0-10-3.19.26.26 0 0 0 0 .3 3 3 0 0 1 .17.27 2 2 0 0 1 .14.32.25.25 0 0 0 .17.16c.27.08.54.17.8.27a.23.23 0 0 0 .29-.09 3.5 3.5 0 1 1 5.06 4.71.25.25 0 0 0-.07.3 9.5 9.5 0 0 1 .53 1.41.26.26 0 0 0 .15.16.24.24 0 0 0 .22 0A5.49 5.49 0 0 0 20 9.48"/></g></svg>
