<svg xmlns="http://www.w3.org/2000/svg" viewBox="0 0 24 24"><g fill="currentColor"><path d="M12 9.69a2.82 2.82 0 1 0 2.79 2.81A2.8 2.8 0 0 0 12 9.69"/><path d="M12 0a12 12 0 1 0 12 12A12 12 0 0 0 12 0m5.57 15.63c1.47 0 2.23-1.85 2.23-3.67a7.1 7.1 0 0 0-1.86-4.8 8.43 8.43 0 0 0-6.37-2.41 7.42 7.42 0 0 0-7.32 7.5 7.39 7.39 0 0 0 7.25 7.5 7.06 7.06 0 0 0 3.61-1 .75.75 0 1 1 .77 1.25 8.55 8.55 0 0 1-4.38 1.21 8.89 8.89 0 0 1-8.75-9 8.93 8.93 0 0 1 8.82-9A9.75 9.75 0 0 1 19 6.14 8.62 8.62 0 0 1 21.3 12c0 3-1.57 5.17-3.73 5.17a2.61 2.61 0 0 1-2.42-1.25.26.26 0 0 0-.17-.12.23.23 0 0 0-.21.05 4.22 4.22 0 0 1-2.74 1 4.32 4.32 0 0 1 0-8.63 4.2 4.2 0 0 1 2.39.75.25.25 0 0 0 .26 0 .24.24 0 0 0 .14-.22v-.62a.75.75 0 1 1 1.5 0v6.48c0 .67.42 1.02 1.25 1.02"/></g></svg>
