<svg xmlns="http://www.w3.org/2000/svg" fill="none" viewBox="0 0 24 24"><path fill="currentColor" fill-rule="evenodd" d="M5.352 2.285c.314-.472.83-.835 1.52-.835h10.255c.302 0 .599.096.842.228a1.9 1.9 0 0 1 .704.647l1.86 3.225H9.25c-.69 0-1.209.361-1.524.834l-.02.032-2.47 4.146-2.41-3.903 2.501-4.334zm-3.377 5.85L.26 11.108a1.66 1.66 0 0 0 0 1.784l5.067 8.783.025.04c.314.472.83.835 1.52.835h4.71l2.448-4.1H9.25c-.69 0-1.209-.361-1.524-.834l-.02-.032-2.797-4.695zM13.33 22.55h3.797c.69 0 1.207-.363 1.521-.835l.025-.04 5.067-8.783a1.66 1.66 0 0 0 0-1.784L21.4 7.05h-4.727l2.414 4.052a1.66 1.66 0 0 1 0 1.796l-2.792 4.686zM6.188 12.106l-.07-.115a1 1 0 0 0 .076-.107l2.789-4.68a.4.4 0 0 1 .12-.119.3.3 0 0 1 .147-.035h5.693q.024.069.063.134l2.8 4.7.02.032a.16.16 0 0 1 0 .168l-.02.032-2.8 4.7-.091.152a1 1 0 0 0-.165-.018h-5.5a.3.3 0 0 1-.147-.035.4.4 0 0 1-.12-.118l-2.789-4.68zM10.025 12a2.025 2.025 0 1 1 4.05 0 2.025 2.025 0 0 1-4.05 0" clip-rule="evenodd"/></svg>
