<svg xmlns="http://www.w3.org/2000/svg" viewBox="0 0 24 24"><path fill="currentColor" d="M14.69 14a1 1 0 0 0-.94.1 7 7 0 0 1-.67.4.27.27 0 0 1-.23 0 .26.26 0 0 1-.13-.19 9.6 9.6 0 0 0-2.11-5.24 9.75 9.75 0 0 0-5-3.32 1 1 0 0 0-1 .3 1 1 0 0 0-.17 1 6.77 6.77 0 0 1 .17 4.72.25.25 0 0 1-.21.17.24.24 0 0 1-.24-.13c-.13-.24-.25-.48-.36-.74a1 1 0 0 0-.73-.59 1 1 0 0 0-.9.28A7.65 7.65 0 0 0 0 16.15v.41a7.71 7.71 0 0 0 15.41-.41 8 8 0 0 0-.13-1.39 1 1 0 0 0-.59-.76m-7 8.49a3.05 3.05 0 0 1-3-3.12A5.75 5.75 0 0 1 8 14.25a.25.25 0 0 1 .29.07.24.24 0 0 1 0 .29A3.29 3.29 0 0 0 8 17.53a.25.25 0 0 0 .18.15.25.25 0 0 0 .22-.06 1.7 1.7 0 0 0 .47-.69.28.28 0 0 1 .15-.15.23.23 0 0 1 .2 0 2.81 2.81 0 0 1 1.49 2.69 3 3 0 0 1-3 3.04ZM19.88.29a.53.53 0 0 0-.55-.11.51.51 0 0 0-.3.46v2.49a.25.25 0 0 1-.25.25h-5.22a1.24 1.24 0 1 0 0 2.48h5.22a.25.25 0 0 1 .25.25V8.6a.51.51 0 0 0 .3.46h.19a.54.54 0 0 0 .36-.06l4-4a.48.48 0 0 0 0-.7Z"/></svg>
