<svg xmlns="http://www.w3.org/2000/svg" viewBox="0 0 24 24"><g fill="currentColor"><path d="M10.65 12.78A4.34 4.34 0 0 0 8.71 11a.28.28 0 0 0-.22 0 .3.3 0 0 0-.13.17 3.3 3.3 0 0 0-.11.83 3.76 3.76 0 0 0 2.64 3.58.25.25 0 0 0 .33-.22 4.4 4.4 0 0 0-.57-2.58M12 10.45a4.4 4.4 0 0 0 2.51-.8.3.3 0 0 0 .11-.19.28.28 0 0 0-.08-.2 3.7 3.7 0 0 0-5.08 0 .28.28 0 0 0-.08.2.27.27 0 0 0 .11.18 4.34 4.34 0 0 0 2.51.81m1.35 2.33a4.4 4.4 0 0 0-.57 2.58.3.3 0 0 0 .11.19.28.28 0 0 0 .22 0A3.76 3.76 0 0 0 15.75 12a3.3 3.3 0 0 0-.11-.83.26.26 0 0 0-.13-.16.22.22 0 0 0-.22 0 4.3 4.3 0 0 0-1.94 1.77"/><path d="M12 0a12 12 0 1 0 12 12A12 12 0 0 0 12 0m8.45 12a4.5 4.5 0 0 0-1-.82 4.3 4.3 0 0 0-2.06-.58.25.25 0 0 0-.2.09.25.25 0 0 0-.05.22 5 5 0 0 1 .11 1.09 5.24 5.24 0 0 1-3.68 5 .23.23 0 0 0-.15.15.24.24 0 0 0 0 .22A4.4 4.4 0 0 0 15 18.85a4.3 4.3 0 0 0 1 .43.76.76 0 0 1 .52.93.74.74 0 0 1-.72.54.8.8 0 0 1-.21 0 5.7 5.7 0 0 1-1.35-.57 5.84 5.84 0 0 1-2-1.94.25.25 0 0 0-.24-.14.24.24 0 0 0-.21.11 5.84 5.84 0 0 1-2 1.94 5.7 5.7 0 0 1-1.35.57.8.8 0 0 1-.21 0 .74.74 0 0 1-.72-.54.76.76 0 0 1 .49-.9 4.2 4.2 0 0 0 1-.43 4.45 4.45 0 0 0 1.53-1.49.24.24 0 0 0 0-.22.23.23 0 0 0-.15-.15 5.14 5.14 0 0 1-3.54-6.12.23.23 0 0 0 0-.21.26.26 0 0 0-.2-.1 4.5 4.5 0 0 0-2.06.59 4.5 4.5 0 0 0-1 .82.75.75 0 0 1-1.1-1 6.1 6.1 0 0 1 1.38-1.1 5.8 5.8 0 0 1 2.64-.8.3.3 0 0 0 .21-.13.25.25 0 0 0 0-.24A5.86 5.86 0 0 1 6.05 6a6 6 0 0 1 .26-1.72.75.75 0 1 1 1.43.44A4.6 4.6 0 0 0 7.55 6a4.3 4.3 0 0 0 .53 2.06.23.23 0 0 0 .17.13.25.25 0 0 0 .22-.06 5.2 5.2 0 0 1 7.06 0 .25.25 0 0 0 .22.06.23.23 0 0 0 .17-.13A4.3 4.3 0 0 0 16.45 6a4.6 4.6 0 0 0-.19-1.28.75.75 0 1 1 1.43-.44A6 6 0 0 1 18 6a5.86 5.86 0 0 1-.66 2.7.25.25 0 0 0 0 .24.24.24 0 0 0 .21.13 5.8 5.8 0 0 1 2.67.78A6.1 6.1 0 0 1 21.55 11a.75.75 0 1 1-1.1 1"/></g></svg>
