<svg xmlns="http://www.w3.org/2000/svg" viewBox="0 0 24 24"><g fill="currentColor"><path d="M23.277 11.056c-.362-8.68-9.984-13.714-17.32-9.06a11.29 11.29 0 0 0-5.231 10v.507a11.28 11.28 0 0 0 6.258 10.158.94.94 0 0 0 .413.094.94.94 0 0 0 .846-.508.94.94 0 0 0-.414-1.24 9.6 9.6 0 0 1-2.819-2.19.24.24 0 0 1 0-.253.24.24 0 0 1 .207-.141h2.434c.093 0 .178.055.216.14q.254.583.535 1.157a.94.94 0 0 0 .827.507.94.94 0 0 0 .827-1.334c-.15-.31-.3-.62-.432-.94a.22.22 0 0 1 0-.17 1 1 0 0 0 0-.29.94.94 0 0 0-.47-.809.23.23 0 0 1-.113-.131 15.2 15.2 0 0 1-.723-3.298.22.22 0 0 1 .066-.179.2.2 0 0 1 .169-.084h.63a.94.94 0 1 0 0-1.88h-.62a.22.22 0 0 1-.17-.084.2.2 0 0 1-.056-.179c.094-1.045.318-2.074.667-3.063a.24.24 0 0 1 .225-.16h5.638a.235.235 0 0 1 .216.16q.314.879.489 1.795a.94.94 0 0 0 .94.751q.089.015.178 0a.94.94 0 0 0 .724-1.08 16 16 0 0 0-.31-1.306.24.24 0 0 1 0-.207.24.24 0 0 1 .188-.094h2.696c.084.001.16.048.198.122a9.3 9.3 0 0 1 1.212 3.524.947.947 0 1 0 1.88-.235M8.412 3.783a.235.235 0 0 1 .291.348q-.45.714-.817 1.475a.24.24 0 0 1-.207.132H6.072a.24.24 0 0 1-.225-.16.24.24 0 0 1 .065-.263 9.9 9.9 0 0 1 2.5-1.532m-1.363 12.46a.22.22 0 0 1 0 .197.22.22 0 0 1-.188.094H3.62a.23.23 0 0 1-.207-.132 9.4 9.4 0 0 1-.808-3.147.24.24 0 0 1 .056-.179.25.25 0 0 1 .179-.075h3.4c.123 0 .225.094.235.216.1 1.024.292 2.036.573 3.026m-.592-5.31a.235.235 0 0 1-.235.217h-3.27a.23.23 0 0 1-.178-.075.25.25 0 0 1-.056-.198 9.4 9.4 0 0 1 1.184-3.176.24.24 0 0 1 .206-.122h2.66c.073 0 .143.035.187.094a.22.22 0 0 1 0 .207c-.277.996-.444 2.02-.498 3.054m3.862-5.196a.24.24 0 0 1-.197-.122.26.26 0 0 1 0-.235 16 16 0 0 1 1.626-2.236.25.25 0 0 1 .169-.056h.244c.067 0 .132.026.179.075A15.5 15.5 0 0 1 13.964 5.4a.22.22 0 0 1 0 .235.22.22 0 0 1-.197.122Zm5.046-1.606a.25.25 0 0 1 0-.282.235.235 0 0 1 .263-.066c.91.379 1.756.895 2.51 1.532a.25.25 0 0 1 .074.263.24.24 0 0 1-.225.16h-1.588a.24.24 0 0 1-.216-.141 14 14 0 0 0-.818-1.466"/><path d="M11.691 16.468h1.41s.235 0 .235.235v4.229s0 .235-.235.235h-1.41s-.235 0-.235-.235v-4.229s0-.235.235-.235m3.759 0h1.41s.234 0 .234.235v4.229s0 .235-.235.235h-1.41s-.234 0-.234-.235v-4.229s0-.235.235-.235m3.758 0h1.41s.235 0 .235.235v4.229s0 .235-.235.235h-1.41s-.234 0-.234-.235v-4.229s0-.235.234-.235m2.19 5.873H11.062a.71.71 0 0 0 0 1.419h10.336a.705.705 0 0 0 0-1.41Zm.611-7.752-5.432-2.716a.94.94 0 0 0-.845 0L10.31 14.59a.45.45 0 0 0-.244.526.46.46 0 0 0 .45.357h11.276a.47.47 0 0 0 .216-.883"/></g></svg>
