<svg xmlns="http://www.w3.org/2000/svg" viewBox="0 0 24 24"><g fill="currentColor"><path d="M9.5 17.75a8.23 8.23 0 0 1 6.3-8 .24.24 0 0 0 .2-.25V4.91a1.52 1.52 0 0 0-.44-1.06L12.15.44A1.52 1.52 0 0 0 11.09 0H1.5A1.5 1.5 0 0 0 0 1.5V9a.5.5 0 0 0 .5.5h.75a.25.25 0 0 1 .25.25v2a.25.25 0 0 1-.25.25H.5a.5.5 0 0 0-.5.5V20a1.5 1.5 0 0 0 1.5 1.5h7.75a.25.25 0 0 0 .25-.25ZM8.25 3.5v4a.75.75 0 0 1-1.5 0v-4a.75.75 0 0 1 1.5 0m-3.5 0v4a.75.75 0 0 1-1.5 0v-4a.75.75 0 0 1 1.5 0m7 4a.75.75 0 0 1-1.5 0v-4a.75.75 0 0 1 1.5 0Z"/><path d="M12.82 22.06A.3.3 0 0 1 13 22a.23.23 0 0 1 .18.08 6.09 6.09 0 0 0 10.21-2.2 1 1 0 1 0-1.89-.65 4.09 4.09 0 0 1-6.92 1.42.24.24 0 0 1 0-.34l1.72-1.72a.5.5 0 0 0-.35-.86H11.5a.5.5 0 0 0-.5.5v4.46a.5.5 0 0 0 .31.46.53.53 0 0 0 .54-.11ZM17.35 11a6.11 6.11 0 0 0-5.78 4.13 1 1 0 1 0 1.89.65 4.1 4.1 0 0 1 6.9-1.45.26.26 0 0 1 0 .35l-1.66 1.66a.5.5 0 0 0 .35.85h4.45a.5.5 0 0 0 .5-.5v-4.45a.5.5 0 0 0-.31-.47.51.51 0 0 0-.54.11l-1 1a.3.3 0 0 1-.18.07.25.25 0 0 1-.18-.08A6.12 6.12 0 0 0 17.35 11"/></g></svg>
