<svg xmlns="http://www.w3.org/2000/svg" viewBox="0 0 24 24"><g fill="currentColor"><path d="M10.5 18.5a1 1 0 0 0-1 1A2.5 2.5 0 0 1 7 22a2.32 2.32 0 0 1-2.5-2.25 1 1 0 0 0-2 0A4.28 4.28 0 0 0 7 24a4.51 4.51 0 0 0 4.5-4.5 1 1 0 0 0-1-1m10 .25a1 1 0 0 0-1 1A2.32 2.32 0 0 1 17 22a2.5 2.5 0 0 1-2.5-2.5 1 1 0 0 0-2 0A4.51 4.51 0 0 0 17 24a4.28 4.28 0 0 0 4.5-4.25 1 1 0 0 0-1-1"/><path d="M20.5 11a2.5 2.5 0 0 0-2.5 2.5V16a1 1 0 0 1-2 0V9.49a.5.5 0 0 1 .5-.5h1.89a1 1 0 0 0 .92-.59 1 1 0 0 0-.17-1.08l-6.4-7a1 1 0 0 0-1.5 0c-.57.65-5.58 6.09-6.39 7a1 1 0 0 0-.16 1.08 1 1 0 0 0 .92.6H7.5a.5.5 0 0 1 .5.5V16a1 1 0 0 1-2 0v-2.5a2.5 2.5 0 0 0-5 0v2a1 1 0 0 0 2 0v-2a.5.5 0 0 1 1 0V16a3 3 0 0 0 6 0 .5.5 0 0 1 .5-.5h3a.5.5 0 0 1 .5.5 3 3 0 0 0 6 0v-2.5a.5.5 0 0 1 1 0v2a1 1 0 0 0 2 0v-2a2.5 2.5 0 0 0-2.5-2.5"/></g></svg>
