<svg xmlns="http://www.w3.org/2000/svg" viewBox="0 0 24 24"><path fill="currentColor" d="M20.33 17.07a11.5 11.5 0 0 0-16.66 0 2.4 2.4 0 0 1-.38.34.51.51 0 0 0-.19.51A4.19 4.19 0 0 0 7.5 21h9a4.19 4.19 0 0 0 4.4-3.08.51.51 0 0 0-.19-.51 3 3 0 0 1-.38-.34m-7.95-5.29a.52.52 0 0 0 .4.24 13.2 13.2 0 0 1 2.89.5.5.5 0 0 0 .59-.27l3-6.33a.5.5 0 0 0-.16-.61 11.7 11.7 0 0 0-2.7-1.48.49.49 0 0 0-.63.25l-3.41 7.23a.52.52 0 0 0 .02.47m-6.87 1.75a.26.26 0 0 0 .29 0 12.8 12.8 0 0 1 4.26-1.43.48.48 0 0 0 .38-.28l3.78-8a.54.54 0 0 0 0-.45.5.5 0 0 0-.37-.26 12 12 0 0 0-3.35-.05.49.49 0 0 0-.39.29l-4.66 9.89a.26.26 0 0 0 .06.29m15.58-6.36a.48.48 0 0 0-.45-.17.5.5 0 0 0-.38.28l-2.58 5.47a.51.51 0 0 0 .23.66 12.9 12.9 0 0 1 3.5 2.59 1.52 1.52 0 0 0 1.64.36A1.49 1.49 0 0 0 24 15a11.87 11.87 0 0 0-2.91-7.83M8.06 3.82a.25.25 0 0 0-.27-.06A12 12 0 0 0 0 15a1.49 1.49 0 0 0 1 1.4 1.47 1.47 0 0 0 1.31-.11.45.45 0 0 0 .2-.21C3 14.94 7 6.35 8.1 4.1a.26.26 0 0 0-.04-.28"/></svg>
