<svg xmlns="http://www.w3.org/2000/svg" viewBox="0 0 24 24"><g fill="currentColor"><path d="M9.3 17.57a7.6 7.6 0 0 1 1.77-4.88.5.5 0 0 0-.38-.81H2.6a2.47 2.47 0 1 0 0 4.94H8a.25.25 0 0 1 .25.25v2.48a.25.25 0 0 1-.25.24H5a.75.75 0 0 0-.74.75.74.74 0 0 0 .74.74h4.4a.52.52 0 0 0 .41-.22.49.49 0 0 0 0-.47 7.6 7.6 0 0 1-.51-3.02m-6.21-3.22a1.24 1.24 0 1 1 1.24 1.24 1.25 1.25 0 0 1-1.24-1.24M8 15.59a1.24 1.24 0 1 1 1.24-1.24A1.25 1.25 0 0 1 8 15.59m-6.89 4.2a.75.75 0 0 0-.74.75.74.74 0 0 0 .74.74h1a.75.75 0 0 0 .75-.74.76.76 0 0 0-.75-.75ZM2.6 5h12.86a2.48 2.48 0 1 0 0-4.95H2.6a2.48 2.48 0 1 0 0 5Zm.49-2.48a1.24 1.24 0 1 1 1.24 1.19 1.24 1.24 0 0 1-1.24-1.24Zm3.71 0A1.24 1.24 0 1 1 8 3.71a1.24 1.24 0 0 1-1.2-1.24ZM17.14 9.9a.5.5 0 0 0 .45-.24 2.4 2.4 0 0 0 .35-1.25 2.48 2.48 0 0 0-2.48-2.47H2.6a2.48 2.48 0 1 0 0 5h10.49a.46.46 0 0 0 .23-.06 7.6 7.6 0 0 1 3.82-.98m-14-1.49a1.24 1.24 0 1 1 1.19 1.24 1.25 1.25 0 0 1-1.24-1.24ZM8 9.65a1.24 1.24 0 1 1 1.28-1.24A1.24 1.24 0 0 1 8 9.65"/><path d="M21.75 13.08a.25.25 0 0 1-.35 0 6.25 6.25 0 0 0-4.31-1.7A6.31 6.31 0 1 0 22 21.63a1 1 0 1 0-1.54-1.24 4.33 4.33 0 1 1-.46-5.92.25.25 0 0 1 .08.18.24.24 0 0 1-.07.18l-1.38 1.38a.49.49 0 0 0 .35.84h4.41a.5.5 0 0 0 .5-.49v-4.42a.48.48 0 0 0-.31-.45.49.49 0 0 0-.54.1l-.5.51Z"/></g></svg>
