<svg xmlns="http://www.w3.org/2000/svg" viewBox="0 0 24 24"><g fill="currentColor"><path d="M0 3.48A2.5 2.5 0 0 0 2.5 6h17A2.5 2.5 0 0 0 22 3.48v-1A2.51 2.51 0 0 0 19.5 0h-17A2.51 2.51 0 0 0 0 2.48ZM3.64 3a1.11 1.11 0 1 1 1.11 1.1A1.11 1.11 0 0 1 3.64 3M7.5 3a1.12 1.12 0 1 1 1.11 1.1A1.11 1.11 0 0 1 7.5 3m13.75 6.52a4.5 4.5 0 0 1 .75.07A2.51 2.51 0 0 0 19.5 7h-17A2.51 2.51 0 0 0 0 9.48v1A2.5 2.5 0 0 0 2.5 13h14.18a.48.48 0 0 0 .48-.36 4.25 4.25 0 0 1 4.09-3.12M9.73 10a1.12 1.12 0 1 1-1.12-1.13A1.12 1.12 0 0 1 9.73 10m-3.87 0a1.11 1.11 0 1 1-1.11-1.13A1.11 1.11 0 0 1 5.86 10M2.5 14A2.51 2.51 0 0 0 0 16.48v1A2.5 2.5 0 0 0 2.5 20h6.66a.5.5 0 0 0 .4-.19.54.54 0 0 0 .09-.44 4 4 0 0 1-.15-1.08 4.27 4.27 0 0 1 2.33-3.8.25.25 0 0 0-.12-.46Zm1.14 3a1.11 1.11 0 1 1 1.11 1.1A1.11 1.11 0 0 1 3.64 17"/><path d="M24 13.77a2.75 2.75 0 1 0-5.44.53.24.24 0 0 1-.11.27l-2.67 1.6a.24.24 0 0 1-.29 0 2.74 2.74 0 0 0-4.49 2.1A2.75 2.75 0 0 0 13.75 21a2.7 2.7 0 0 0 2.05-.95.26.26 0 0 1 .29-.06l2.27.91a.24.24 0 0 1 .15.24 2.75 2.75 0 1 0 2.74-2.64 2.69 2.69 0 0 0-2.05.94.26.26 0 0 1-.29.06l-2.26-.9a.26.26 0 0 1-.16-.26 2 2 0 0 0 0-.63.24.24 0 0 1 .11-.27l2.67-1.6a.26.26 0 0 1 .29 0A2.73 2.73 0 0 0 24 13.77"/></g></svg>
