<svg xmlns="http://www.w3.org/2000/svg" viewBox="0 0 24 24"><g fill="currentColor"><path d="M9 4a.25.25 0 0 0 .25.25h5.35a.24.24 0 0 0 .23-.15.26.26 0 0 0-.05-.28L11.9.94A1.52 1.52 0 0 0 10.83.5H9.25A.25.25 0 0 0 9 .75Zm6.51 5a.25.25 0 0 0 .24-.25V6a.25.25 0 0 0-.25-.25H1A.25.25 0 0 0 .75 6v9a1.5 1.5 0 0 0 1.5 1.5h6.26a.25.25 0 0 0 .18-.08.26.26 0 0 0 .07-.18 2 2 0 0 1 0-.24 7 7 0 0 1 6.75-7M7.25 4.25A.25.25 0 0 0 7.5 4V.75A.25.25 0 0 0 7.25.5H5.66A1.52 1.52 0 0 0 4.6.94L1.72 3.82a.28.28 0 0 0-.06.28.26.26 0 0 0 .24.15Z"/><path d="M20.42 19.26a.26.26 0 0 1 0-.31 5.5 5.5 0 1 0-1.69 1.69.26.26 0 0 1 .31 0l2.53 2.54a1 1 0 0 0 1.42 0 1 1 0 0 0 0-1.42ZM12.25 16a3.5 3.5 0 1 1 3.5 3.5 3.5 3.5 0 0 1-3.5-3.5"/></g></svg>
