<svg xmlns="http://www.w3.org/2000/svg" viewBox="0 0 24 24"><g fill="currentColor"><path d="M11.5 6a.24.24 0 0 0-.15-.24l-5-2.08a.23.23 0 0 0-.24 0 .24.24 0 0 0-.11.24V9.8a1 1 0 0 0 .61.92l4.54 1.92a.26.26 0 0 0 .24 0 .25.25 0 0 0 .11-.21c0-4.88-.01-6.09 0-6.43m5.3-3a.25.25 0 0 0 0-.46L12.38.66a1 1 0 0 0-.76 0l-.83.34a.25.25 0 0 0-.16.22.26.26 0 0 0 .14.23l4.33 2.12a.22.22 0 0 0 .21 0Zm-3.34 1.35a.28.28 0 0 0 .16-.22.27.27 0 0 0-.14-.24l-4-2a1 1 0 0 0-.82 0L7.2 2.5a.25.25 0 0 0 0 .5l4.42 1.8a1 1 0 0 0 .76 0Zm-.96 8.07a.23.23 0 0 0 .11.2.26.26 0 0 0 .24 0l4.53-1.89a1 1 0 0 0 .62-.9V3.92a.24.24 0 0 0-.11-.21.23.23 0 0 0-.24 0l-5 2.08a.24.24 0 0 0-.15.21c.01.34 0 1.55 0 6.42"/><path d="M23.5 3.5a3 3 0 0 0-3-3 1 1 0 0 0-1 1 1 1 0 0 0 1 1 1 1 0 0 1 1 1V14a1 1 0 0 1-1 1h-17a1 1 0 0 1-1-1V3.5a1 1 0 0 1 1-1 1 1 0 0 0 1-1 1 1 0 0 0-1-1 3 3 0 0 0-3 3v13a3 3 0 0 0 3 3h7.75a.25.25 0 0 1 .25.25v1.5a.25.25 0 0 1-.25.25H8.5a1 1 0 0 0 0 2h8a1 1 0 0 0 0-2h-2.75a.25.25 0 0 1-.25-.25v-1.5a.25.25 0 0 1 .25-.25h6.74a3 3 0 0 0 3-2.94Z"/></g></svg>
