<svg xmlns="http://www.w3.org/2000/svg" viewBox="0 0 24 24"><g fill="currentColor"><path d="M23.25 16.83h-22a1.21 1.21 0 0 0-.92.41 1.25 1.25 0 0 0-.32 1 5.7 5.7 0 0 0 .69 2.13.25.25 0 0 0 .23.13 2.3 2.3 0 0 1 .45 0c.58.08 1.49-.68 1.83-1.1a2.56 2.56 0 0 1 1.95-.94 2.49 2.49 0 0 1 2.13 1.19 2 2 0 0 0 1.41.82 2.7 2.7 0 0 0 1.81-1 2.5 2.5 0 0 1 4.29.4 1.2 1.2 0 0 0 1 .57 1.78 1.78 0 0 0 1.37-.76 2.51 2.51 0 0 1 2.17-1.25 2.55 2.55 0 0 1 2.13 1.19c.08.1.7.87 1.27.81a2 2 0 0 1 .35 0 .26.26 0 0 0 .22-.13 5.7 5.7 0 0 0 .69-2.72.75.75 0 0 0-.75-.75m0-15.83a.76.76 0 0 0-.75.75v1.63a.24.24 0 0 1-.12.21.25.25 0 0 1-.25 0A4.5 4.5 0 0 0 20.25 3 1.23 1.23 0 0 0 19 4.25V6.5a.25.25 0 0 0 .25.25H21a.75.75 0 0 1 0 1.5h-1.75a.25.25 0 0 0-.25.25v6.08a.76.76 0 0 0 .75.75h3.5a.76.76 0 0 0 .75-.75V1.75a.76.76 0 0 0-.75-.75"/><path d="M22.87 21.94c-1.63.21-2.74-1.5-2.75-1.52a1 1 0 0 0-1.72 0A3.25 3.25 0 0 1 15.73 22a2.74 2.74 0 0 1-2.34-1.44 1 1 0 0 0-1.71-.15 4.26 4.26 0 0 1-3 1.59A3.43 3.43 0 0 1 6 20.42a1 1 0 0 0-1.64-.09S2.8 22.2 1.13 22a1 1 0 1 0-.26 2 5 5 0 0 0 .55 0 5.6 5.6 0 0 0 3.48-1.43.24.24 0 0 1 .32 0A5.13 5.13 0 0 0 8.65 24a5.7 5.7 0 0 0 3.56-1.32.25.25 0 0 1 .33 0A4.48 4.48 0 0 0 15.73 24a5.06 5.06 0 0 0 3.38-1.3.24.24 0 0 1 .33 0 4.54 4.54 0 0 0 3.69 1.26 1 1 0 1 0-.26-2ZM11.52 10.5h5s1 0 1 1v3.33s0 1-1 1h-5s-1 0-1-1V11.5s0-1 1-1m-7.19.26a1 1 0 0 0 .67-.27 1 1 0 0 0 .05-1.41.9.9 0 0 1-.25-.61.91.91 0 1 1 1.58.6 1 1 0 1 0 1.5 1.32A2.89 2.89 0 0 0 6.55 5.7V3.85a.25.25 0 0 1 .15-.22.26.26 0 0 1 .27 0L13 8.82a.8.8 0 0 0 .49.18H17a.74.74 0 0 0 .71-.53.75.75 0 0 0-.29-.84L6.88.32a1.48 1.48 0 0 0-2.32.94v4.56a2.89 2.89 0 0 0-.95 4.62 1 1 0 0 0 .72.32"/></g></svg>
