<svg xmlns="http://www.w3.org/2000/svg" viewBox="0 0 24 24"><g fill="currentColor"><path d="M10.83 10.29a3 3 0 0 1 2.89 2.23.25.25 0 0 0 .24.18h2.87a1 1 0 0 0 1-1v-10a1 1 0 0 0-1-1h-2.75a.25.25 0 0 0-.25.25V5.2a.51.51 0 0 1-.29.46.51.51 0 0 1-.54-.08l-1.51-1.3a.26.26 0 0 0-.33 0l-1.51 1.3a.49.49 0 0 1-.53.08.5.5 0 0 1-.29-.46V1a.26.26 0 0 0-.25-.3H5.83a1 1 0 0 0-1 1v10a1 1 0 0 0 1 1h1.86a.25.25 0 0 0 .24-.18 3 3 0 0 1 2.9-2.23"/><path d="M9.33 20.46a.26.26 0 0 1-.17.23.24.24 0 0 1-.27-.07l-1.56-1.78A1.5 1.5 0 0 0 5 20.75l2.23 2.45a.25.25 0 0 0 .19.09h11.66a.26.26 0 0 0 .25-.25v-1.25a4 4 0 0 0-4-4h-2.75a.25.25 0 0 1-.25-.25v-4.25a1.5 1.5 0 0 0-3 0Z"/></g></svg>
