<svg xmlns="http://www.w3.org/2000/svg" viewBox="0 0 24 24"><g fill="currentColor"><path d="M14.65 9.36a.26.26 0 0 0 .17-.24V5.5a.25.25 0 0 0-.25-.25H.35a.25.25 0 0 0-.25.25v8.83a1.47 1.47 0 0 0 1.47 1.47h7.29a.26.26 0 0 0 .25-.2 8.36 8.36 0 0 1 5.54-6.24M8.2 3.53a.25.25 0 0 0 .25.25h5.24a.25.25 0 0 0 .23-.16.25.25 0 0 0-.06-.27L11 .53a1.44 1.44 0 0 0-1-.43H8.45a.25.25 0 0 0-.25.25Zm-1.73.25a.25.25 0 0 0 .25-.25V.35A.25.25 0 0 0 6.47.1H4.92a1.44 1.44 0 0 0-1 .43L1.06 3.35a.25.25 0 0 0-.06.27.25.25 0 0 0 .23.16Z"/><path d="M17.28 10.65a6.63 6.63 0 1 0 6.62 6.63 6.63 6.63 0 0 0-6.62-6.63m0 11.29a4.67 4.67 0 1 1 4.66-4.66 4.67 4.67 0 0 1-4.66 4.66"/><path d="M16.29 14.82v2.46a1 1 0 0 0 1 1h2a1 1 0 0 0 0-2h-.73a.25.25 0 0 1-.25-.25v-1.21a1 1 0 0 0-2 0Z"/></g></svg>
