<svg xmlns="http://www.w3.org/2000/svg" viewBox="0 0 24 24"><g fill="currentColor"><path d="M10.26 16H7.83a.23.23 0 0 1-.19-.1.21.21 0 0 1 0-.2L8 14a1.59 1.59 0 0 0-.3-1.41 1.66 1.66 0 0 0-2.55.08l-2.39 3.42a.26.26 0 0 1-.2.1H.75a.76.76 0 0 0-.75.75v4.5a.76.76 0 0 0 .41.67l.59.3C3.74 23.79 4.45 24 6 24h1.95c1.5 0 2.53-.88 3.07-2.63.76-2.54.94-3.13.95-3.15A1.74 1.74 0 0 0 10.26 16"/><path d="M23.84 5.11 22.26 1a1.52 1.52 0 0 0-1.41-1H4.23a1.5 1.5 0 0 0-1.4 1L1.25 5.11a2.54 2.54 0 0 0 0 1.74 3.27 3.27 0 0 0 1.19 1.57.25.25 0 0 1 .1.2V11a1 1 0 0 0 2 0V9.21A.25.25 0 0 1 4.76 9a3.27 3.27 0 0 0 2.09-1.24.24.24 0 0 1 .15-.1.26.26 0 0 1 .2.1 3.25 3.25 0 0 0 5.11 0 .24.24 0 0 1 .19-.1.26.26 0 0 1 .2.1 3.25 3.25 0 0 0 5.11 0 .24.24 0 0 1 .19-.1.26.26 0 0 1 .2.1A3.27 3.27 0 0 0 20.79 9a.24.24 0 0 1 .24.24v10a.25.25 0 0 1-.25.25h-1.29a.25.25 0 0 1-.25-.25V13.5a1 1 0 0 0-1-1h-3a1 1 0 0 0-1 1v5.75a.25.25 0 0 1-.25.25 1 1 0 0 0 0 2h8a1 1 0 0 0 1-1L23 8.21a.26.26 0 0 1 .1-.21 3.2 3.2 0 0 0 .75-1.19 2.54 2.54 0 0 0-.01-1.7"/></g></svg>
