<svg xmlns="http://www.w3.org/2000/svg" viewBox="0 0 24 24"><g fill="currentColor"><path d="M1 13h.83a.24.24 0 0 1 .24.22 10 10 0 0 0 8.71 8.71.24.24 0 0 1 .22.24V23a1 1 0 0 0 2 0v-.83a.24.24 0 0 1 .22-.24 10 10 0 0 0 8.71-8.71.24.24 0 0 1 .24-.22H23a1 1 0 0 0 0-2h-.83a.24.24 0 0 1-.24-.22 10 10 0 0 0-8.71-8.71.24.24 0 0 1-.22-.24V1a1 1 0 0 0-2 0v.83a.24.24 0 0 1-.22.24 10 10 0 0 0-8.71 8.71.24.24 0 0 1-.24.22H1a1 1 0 0 0 0 2m3.5-2h-.15a.25.25 0 0 1-.19-.09.24.24 0 0 1-.06-.2 8 8 0 0 1 6.61-6.61.24.24 0 0 1 .2.06.25.25 0 0 1 .09.19v.15a1 1 0 0 0 2 0v-.15a.25.25 0 0 1 .09-.19.24.24 0 0 1 .2-.06 8 8 0 0 1 6.61 6.61.24.24 0 0 1-.06.2.25.25 0 0 1-.19.09h-.15a1 1 0 0 0 0 2h.15a.25.25 0 0 1 .19.09.24.24 0 0 1 .06.2 8 8 0 0 1-6.61 6.61.24.24 0 0 1-.2-.06.25.25 0 0 1-.09-.19v-.15a1 1 0 0 0-2 0v.15a.25.25 0 0 1-.09.19.24.24 0 0 1-.2.06 8 8 0 0 1-6.61-6.61.24.24 0 0 1 .06-.2.25.25 0 0 1 .19-.09h.15a1 1 0 0 0 0-2"/><path d="M16.92 16.66a6.6 6.6 0 0 0-4.38-2.14 4 4 0 1 0-1 0 6.58 6.58 0 0 0-4.37 2.14.49.49 0 0 0-.09.54.51.51 0 0 0 .46.3h9a.51.51 0 0 0 .46-.3.51.51 0 0 0-.08-.54M10 10.55a2 2 0 0 1 .27-1 6 6 0 0 0 2.95.78 6 6 0 0 0 .76-.05 1 1 0 0 1 0 .26 2 2 0 0 1-4 0Z"/></g></svg>
