<svg xmlns="http://www.w3.org/2000/svg" viewBox="0 0 24 24"><g fill="currentColor"><path d="M23 2.13h-2.6a1.49 1.49 0 0 0-1.46 1.15l-1.12 4.65a.26.26 0 0 1-.25.2H1.09a1 1 0 0 0-.81.41 1 1 0 0 0-.14.9l2.67 8a1 1 0 0 0 .95.69H15.1a.25.25 0 0 1 .2.09.26.26 0 0 1 0 .21l-.11.5a.26.26 0 0 1-.25.2H4.92a2.25 2.25 0 1 0 2.3 2.25.25.25 0 0 1 .08-.18.22.22 0 0 1 .17-.07h6a.25.25 0 0 1 .25.25 2.25 2.25 0 1 0 3.57-1.83.22.22 0 0 1-.09-.25l3.52-15a.26.26 0 0 1 .28-.17h2a1 1 0 0 0 0-2"/><path d="M9.8 7.13h5.29a1 1 0 0 0 .91-.56 1 1 0 0 0-.09-1.05L13.93 3l-.09-.11a1.62 1.62 0 0 0-2.29 0L9.08 5.43a1 1 0 0 0 .72 1.7m-8.4-.6a1 1 0 0 0 .92.6h4.31a1 1 0 0 0 .83-.46 1 1 0 0 0 .08-1l-2-4.42a1.6 1.6 0 0 0-1-.86 1.73 1.73 0 0 0-1.23.16L1 1.61a1.67 1.67 0 0 0-.84 2.16Z"/></g></svg>
