<svg xmlns="http://www.w3.org/2000/svg" viewBox="0 0 24 24"><path fill="currentColor" d="M24 3.25a1.5 1.5 0 0 0-1.5-1.5h-21A1.5 1.5 0 0 0 0 3.25v14.5a1.5 1.5 0 0 0 1.5 1.5h.8a.24.24 0 0 1 .22.14.24.24 0 0 1 0 .27l-.77 1a1 1 0 1 0 1.56 1.25l2-2.43a.51.51 0 0 1 .39-.19h12.68a.51.51 0 0 1 .39.19l1.95 2.43a1 1 0 1 0 1.56-1.25l-.77-1a.24.24 0 0 1 0-.27.24.24 0 0 1 .22-.14h.8a1.5 1.5 0 0 0 1.5-1.5ZM6.8 9.73a.4.4 0 0 0 0-.11 1.1 1.1 0 0 1-.19-.43 1.34 1.34 0 0 1 .09-.94.26.26 0 0 0 0-.19 2.31 2.31 0 0 1 0-2 1.1 1.1 0 0 1 .58-.4.2.2 0 0 0 .12-.07 2.66 2.66 0 0 1 2-.6c1 0 2.08.36 2.26 1.24a3.5 3.5 0 0 1-.31 1.82.27.27 0 0 0 0 .2 1.32 1.32 0 0 1 .08.91 1.2 1.2 0 0 1-.18.43.2.2 0 0 0 0 .11 2.17 2.17 0 0 1-.56 1.14.28.28 0 0 0-.07.17v.45a.26.26 0 0 0 .17.24l.18.07c1.57.57 2.71 1 3.08 1.73a4.9 4.9 0 0 1 .49 2 .51.51 0 0 1-.5.5H4a.5.5 0 0 1-.5-.5 4.8 4.8 0 0 1 .48-2c.37-.74 1.51-1.16 3.08-1.73l.19-.07a.27.27 0 0 0 .16-.24V11a.28.28 0 0 0-.07-.17 2.17 2.17 0 0 1-.54-1.1m10.7 7.52a.5.5 0 0 1-.5-.5V4a.5.5 0 0 1 1 0v12.75a.5.5 0 0 1-.5.5m2.25-2.5a.75.75 0 0 1 .75-.75h1a.75.75 0 0 1 0 1.5h-1a.76.76 0 0 1-.75-.75m1.75-2.25h-1a.75.75 0 0 1 0-1.5h1a.75.75 0 0 1 0 1.5M21 8.75a1.5 1.5 0 1 1 1.5-1.5 1.5 1.5 0 0 1-1.5 1.5"/></svg>
