<svg xmlns="http://www.w3.org/2000/svg" viewBox="0 0 24 24"><path fill="currentColor" d="m18 17.85-1.8-6.28a4.2 4.2 0 0 0-1.24-2.13.48.48 0 0 0-.4-.13.49.49 0 0 0-.36.23l-1.78 2.76a.5.5 0 0 1-.84 0L9.84 9.52a.52.52 0 0 0-.36-.23.49.49 0 0 0-.4.13 4.2 4.2 0 0 0-1.26 2.13L6 17.85a.53.53 0 0 0 .08.44.51.51 0 0 0 .4.19h2.34a.26.26 0 0 1 .25.21l.93 4.9a.49.49 0 0 0 .49.39h3a.49.49 0 0 0 .49-.39l.93-4.9a.26.26 0 0 1 .25-.21h2.34a.51.51 0 0 0 .4-.19.53.53 0 0 0 .1-.44m-6-9.33a4.25 4.25 0 1 0-4.27-4.25A4.26 4.26 0 0 0 12 8.52m0-2a2.26 2.26 0 0 1-2.18-1.64.25.25 0 0 1 .18-.31 4.7 4.7 0 0 0 1.8-1.14.27.27 0 0 1 .36 0A4.65 4.65 0 0 0 14 4.57a.27.27 0 0 1 .16.31A2.26 2.26 0 0 1 12 6.52"/></svg>
