<svg xmlns="http://www.w3.org/2000/svg" viewBox="0 0 24 24"><g fill="currentColor"><path d="m22.88 7.75-10-7a1.44 1.44 0 0 0-1.66 0l-10 7A1.45 1.45 0 0 0 .5 8.94V22A1.46 1.46 0 0 0 2 23.5h20a1.46 1.46 0 0 0 1.5-1.5V8.94a1.45 1.45 0 0 0-.62-1.19m-6.32 11.71a.49.49 0 0 1-.45.29h-8a.51.51 0 0 1-.39-.82 5.72 5.72 0 0 1 4.39-2.18 5.72 5.72 0 0 1 4.39 2.18.51.51 0 0 1 .06.53m.05-4.57a.63.63 0 1 1-1.06.69 4.3 4.3 0 0 1-.55-1.21.24.24 0 0 0-.17-.17.23.23 0 0 0-.24.06 3.6 3.6 0 0 1-5 0 .24.24 0 0 0-.24-.07.29.29 0 0 0-.18.18 4.1 4.1 0 0 1-.51 1.21.64.64 0 1 1-1.07-.69A3.5 3.5 0 0 0 8.1 13v-1.7a4 4 0 0 1 8 0V13a3.5 3.5 0 0 0 .51 1.89"/><path d="M15.31 11.65a.5.5 0 0 0-.4-.58 4.33 4.33 0 0 1-2.41-1.39.39.39 0 0 0-.32-.18h-.07a.46.46 0 0 0-.4.19 4.3 4.3 0 0 1-2.4 1.39.49.49 0 0 0-.4.58.51.51 0 0 0 .59.4 5.4 5.4 0 0 0 2.44-1.21.26.26 0 0 1 .33 0 5.4 5.4 0 0 0 2.45 1.21.52.52 0 0 0 .59-.41"/></g></svg>
