<svg xmlns="http://www.w3.org/2000/svg" viewBox="0 0 24 24"><g fill="currentColor"><path d="M10.5 3a2.5 2.5 0 1 0 5 0 2.5 2.5 0 1 0-5 0m3.62 12.85a3.47 3.47 0 0 0-1.8-2l-1.85-.9 1.82-2.81a.26.26 0 0 1 .21-.14h7a1.5 1.5 0 0 0 0-3h-16a1.5 1.5 0 0 0 0 3h5a.25.25 0 0 1 .22.13.28.28 0 0 1 0 .25L2.2 21.25a1.5 1.5 0 0 0 2.6 1.5l4.05-7a.24.24 0 0 1 .32-.1l1.85.89a.47.47 0 0 1 .26.29.53.53 0 0 1 0 .39l-.22.44a.23.23 0 0 0 0 .24.24.24 0 0 0 .21.12H14a.24.24 0 0 0 .24-.19 3.45 3.45 0 0 0-.12-1.98"/><path d="M21 19H9a1 1 0 0 0 0 2h12a1 1 0 0 0 0-2m-3 3.5a1 1 0 1 0 2 0 1 1 0 1 0-2 0m-8 0a1 1 0 1 0 2 0 1 1 0 1 0-2 0"/></g></svg>
