<svg xmlns="http://www.w3.org/2000/svg" viewBox="0 0 24 24"><path fill="currentColor" d="M16.43 2.75a.25.25 0 0 0 .2-.1.27.27 0 0 0 0-.23L16 .34a.5.5 0 0 0-.5-.34h-7a.5.5 0 0 0-.5.34l-.7 2.08a.27.27 0 0 0 0 .23.25.25 0 0 0 .2.1Zm-8.86 18.5a.25.25 0 0 0-.2.1.27.27 0 0 0 0 .23L8 23.66a.5.5 0 0 0 .5.34h7a.5.5 0 0 0 .47-.34l.7-2.08a.27.27 0 0 0 0-.23.25.25 0 0 0-.2-.1ZM17.5 4h-11A2.5 2.5 0 0 0 4 6.5v11A2.51 2.51 0 0 0 6.5 20h11a2.5 2.5 0 0 0 2.5-2.5v-11A2.5 2.5 0 0 0 17.5 4M12 15.25a3.25 3.25 0 0 0 2.3-5.55.74.74 0 0 1 0-1.06.75.75 0 0 1 1.06 0 4.75 4.75 0 1 1-6.72 0 .75.75 0 0 1 1.06 0 .74.74 0 0 1 0 1.06 3.25 3.25 0 0 0 2.3 5.55m-.75-4.32V7.5a.75.75 0 0 1 1.5 0v3.43a.75.75 0 0 1-1.5 0"/></svg>
