<svg xmlns="http://www.w3.org/2000/svg" viewBox="0 0 24 24"><path fill="currentColor" d="M12 0a12 12 0 1 0 12 12A12 12 0 0 0 12 0M6 5.67l3-2a1 1 0 1 1 1.1 1.66l-3 2a.94.94 0 0 1-.55.17A1 1 0 0 1 6 5.67m0 3.42a1 1 0 0 1 1.36.39 1 1 0 0 0 .88.45 1 1 0 0 0 .87-.45 1 1 0 0 1 1.76 1 3 3 0 0 1-2.63 1.48 3 3 0 0 1-2.62-1.48A1 1 0 0 1 6 9.09m1 8.76a5.71 5.71 0 0 1 9.88 0 .43.43 0 0 1 0 .44.43.43 0 0 1-.38.22 20.9 20.9 0 0 0-9.12 0 .43.43 0 0 1-.38-.22.43.43 0 0 1 .06-.44Zm11.81-7.4a3 3 0 0 1-2.62 1.48 3 3 0 0 1-2.63-1.48 1 1 0 0 1 1.76-1 1 1 0 0 0 .87.45 1 1 0 0 0 .88-.45 1 1 0 1 1 1.74 1M13.67 4a1 1 0 0 1 1.38-.28l3 2a1 1 0 0 1-.55 1.78.94.94 0 0 1-.5-.17l-3-2A1 1 0 0 1 13.67 4"/></svg>
