<svg xmlns="http://www.w3.org/2000/svg" viewBox="0 0 24 24"><path fill="currentColor" d="M12 0a12 12 0 1 0 12 12A12 12 0 0 0 12 0M5.79 8.21a1 1 0 1 1 1.42-1.42l3 3a1 1 0 0 1 .24 1 1 1 0 0 1-.79.69l-3 .5H6.5a1 1 0 0 1-.16-2l.6-.1a.25.25 0 0 0 .2-.17.26.26 0 0 0-.06-.25Zm1.27 9.64a5.71 5.71 0 0 1 9.88 0 .43.43 0 0 1 0 .44.43.43 0 0 1-.38.22H7.44a.43.43 0 0 1-.38-.22.43.43 0 0 1 0-.44M19 11.14a1 1 0 0 1-1 .86h-.14l-3.5-.5a1 1 0 0 1-.81-.67 1 1 0 0 1 .24-1l3-3a1 1 0 1 1 1.42 1.42L17 9.44a.27.27 0 0 0-.06.26.24.24 0 0 0 .21.16l1 .15a1 1 0 0 1 .85 1.13"/></svg>
