<svg xmlns="http://www.w3.org/2000/svg" viewBox="0 0 24 24"><path fill="currentColor" d="M24 4.5a4 4 0 0 0-4-4 6 6 0 0 0-2.46.74.24.24 0 0 1-.22 0A12 12 0 0 0 1.5 17.82a.24.24 0 0 1 0 .22A5.2 5.2 0 0 0 1 20a4 4 0 0 0 6.39 3.2.26.26 0 0 1 .24 0A12 12 0 0 0 23.05 7.3a.25.25 0 0 1 0-.26A4 4 0 0 0 24 4.5m-4-2a2 2 0 0 1 0 4c-.88 0-2.91-1.28-3.69-1.79a.26.26 0 0 1-.11-.21.24.24 0 0 1 .11-.21c.78-.51 2.81-1.79 3.69-1.79m-2.95 14.55a6.15 6.15 0 0 1-5.94 1.59.16.16 0 0 1-.11-.1.2.2 0 0 1 0-.15L18.39 11a.14.14 0 0 1 .15 0 .18.18 0 0 1 .11.1 6.19 6.19 0 0 1-1.6 5.95m-1.62-9.87L12.6 9.3a1 1 0 0 1-1 .09 1 1 0 0 1-.6-.89V4.25a1 1 0 0 1 2 0V6a.24.24 0 0 0 .14.22.27.27 0 0 0 .26 0l.83-.62a1 1 0 0 1 1.4.2 1 1 0 0 1-.2 1.38m-9.51 6.74.35-.5a.23.23 0 0 0 0-.26.24.24 0 0 0-.2-.16H4.26a1 1 0 0 1 0-2H8.5a1 1 0 0 1 .81 1.58l-1.76 2.5a1 1 0 0 1-.82.42 1 1 0 0 1-.58-.19 1 1 0 0 1-.23-1.39M5 22a2 2 0 0 1-2-2c0-.89 1.28-2.91 1.79-3.69a.26.26 0 0 1 .42 0C5.72 17.09 7 19.11 7 20a2 2 0 0 1-2 2"/></svg>
