<svg xmlns="http://www.w3.org/2000/svg" viewBox="0 0 24 24"><path fill="currentColor" d="M20.66 10.71a4 4 0 0 0-.68.07 5.47 5.47 0 0 0-5.39-4.4 5.6 5.6 0 0 0-2 .37.84.84 0 0 0-.6.8v9a.84.84 0 0 0 .8.83h7.85a3.33 3.33 0 0 0 0-6.66ZM9.74 7.11a.75.75 0 0 0-.74.75v9a.75.75 0 0 0 1.5 0v-9a.76.76 0 0 0-.76-.75m-2.99 1.5a.75.75 0 0 0-.75.75v7.51a.75.75 0 0 0 1.5 0V9.36a.76.76 0 0 0-.75-.75m-3 2a.76.76 0 0 0-.75.75v5.51a.75.75 0 0 0 1.5 0v-5.51a.75.75 0 0 0-.75-.75m-2.99 1a.76.76 0 0 0-.75.75v4a.75.75 0 0 0 .75.75.74.74 0 0 0 .75-.75v-4a.75.75 0 0 0-.75-.75"/></svg>
