<svg xmlns="http://www.w3.org/2000/svg" viewBox="0 0 24 24"><g fill="currentColor"><path d="M14.686 13.192c-1.434.456-2.824-.81-2.503-2.28q.02-.093.05-.183c.791-2.492 1.3-2.99 1.514-3.205a.27.27 0 0 0 .069-.225.24.24 0 0 0-.117-.176 7.65 7.65 0 0 0-3.137-.684 7.82 7.82 0 0 0-7.819 7.818 8 8 0 0 0 0 .83.27.27 0 0 1-.068.196 14.8 14.8 0 0 0-2.15 3.773 2.63 2.63 0 0 0 .254 2.785c.367.35.86.537 1.368.518a8.3 8.3 0 0 0 3.91-1.515.24.24 0 0 1 .253 0c5.051 3.273 11.75-.15 12.06-6.16q.01-.213.01-.427a8 8 0 0 0-.333-2.247.24.24 0 0 0-.166-.157.22.22 0 0 0-.215 0 11.3 11.3 0 0 1-2.98 1.339m-5.053.528a.733.733 0 0 1 1.134.908c-3.831 3.626-6.93 5.454-8.17 5.747a.235.235 0 0 1-.293-.293 5.8 5.8 0 0 1 .508-1.29c.127-.245.273-.518.45-.821a.24.24 0 0 1 .214-.098.23.23 0 0 1 .206.127.22.22 0 0 0 .146.117q.098.03.196 0a36 36 0 0 0 5.61-4.397"/><path d="M17.285 9.596a1.5 1.5 0 0 0-.43-1.036 1.515 1.515 0 0 0-2.072 0c-.508.814-.9 1.695-1.163 2.619a.5.5 0 0 0 .127.498.49.49 0 0 0 .489.117 10 10 0 0 0 2.62-1.153c.273-.28.427-.654.43-1.045m5.491-7.858-1.524.655c-.358.162-.688.38-.977.645l-1.134 1.153a3.97 3.97 0 0 0-3.675.91l-.342.341a.5.5 0 0 0 0 .694l4.144 4.144c.093.093.22.146.352.146a.48.48 0 0 0 .342-.146l.342-.342a3.91 3.91 0 0 0 .909-3.665L22.386 5.1a3.4 3.4 0 0 0 .636-.977l.654-1.525a.68.68 0 0 0-.097-.791.68.68 0 0 0-.802-.069"/></g></svg>
