<svg xmlns="http://www.w3.org/2000/svg" viewBox="0 0 24 24"><g fill="currentColor"><path d="M22.66 17.85a.26.26 0 0 1 0-.29 12 12 0 0 0 0-11.15.26.26 0 0 1 0-.29l.34-.34A3.4 3.4 0 0 0 23 1a3.48 3.48 0 0 0-4.8 0l-.34.35a.27.27 0 0 1-.3 0 12.11 12.11 0 0 0-11.14 0 .27.27 0 0 1-.3 0L5.79 1A3.48 3.48 0 0 0 1 1a3.4 3.4 0 0 0 0 4.8l.35.34a.26.26 0 0 1 0 .29 12 12 0 0 0 0 11.15.26.26 0 0 1 0 .29L1 18.2A3.39 3.39 0 0 0 5.79 23l.34-.34a.24.24 0 0 1 .3 0 11.93 11.93 0 0 0 11.14 0 .24.24 0 0 1 .3 0l.34.34A3.39 3.39 0 0 0 23 18.2Zm-1.91 3.89a1 1 0 1 1 1-1 1 1 0 0 1-1 1m1-18.5a1 1 0 1 1-1-1 1 1 0 0 1 1 1M12 19.49A7.5 7.5 0 1 1 19.5 12a7.5 7.5 0 0 1-7.5 7.49m-9.75 1.25a1 1 0 1 1 1 1 1 1 0 0 1-1-1m1-16.5a1 1 0 1 1 1-1 1 1 0 0 1-1 1"/><path d="M9.5 11.99a2.5 2.5 0 1 0 5 0 2.5 2.5 0 1 0-5 0"/></g></svg>
