<svg xmlns="http://www.w3.org/2000/svg" viewBox="0 0 24 24"><path fill="currentColor" d="M12 0C6.21 0 1.5 4.26 1.5 9.5c0 5.75 7.3 12.29 9.54 14.15a1.49 1.49 0 0 0 1.92 0c2.24-1.87 9.54-8.4 9.54-14.15C22.5 4.26 17.79 0 12 0m-.95 14.73a.5.5 0 0 1-.6.3A5.5 5.5 0 0 1 9 14.41a.49.49 0 0 1-.09-.78l7.2-7.2a.49.49 0 0 1 .41-.14.49.49 0 0 1 .37.23A6 6 0 0 1 17.54 8a.5.5 0 0 1-.3.6 11.3 11.3 0 0 0-3.77 2.4 11.4 11.4 0 0 0-2.42 3.73M13 4.27a.5.5 0 0 1 .6-.3 5.5 5.5 0 0 1 1.4.62.49.49 0 0 1 .23.37.49.49 0 0 1-.14.41c-1.4 1.39-5.81 5.8-7.2 7.2a.49.49 0 0 1-.78-.09 6 6 0 0 1-.63-1.43.5.5 0 0 1 .3-.6A11.1 11.1 0 0 0 10.53 8 11.4 11.4 0 0 0 13 4.27m-2.41-.33a.49.49 0 0 1 .51.17.49.49 0 0 1 .06.54A9.1 9.1 0 0 1 9.47 7a9.1 9.1 0 0 1-2.32 1.61.49.49 0 0 1-.54-.06.49.49 0 0 1-.17-.55 5.78 5.78 0 0 1 4.1-4.06Zm2.92 11.12a.49.49 0 0 1-.51-.17.49.49 0 0 1-.06-.54 8.4 8.4 0 0 1 4-4 .49.49 0 0 1 .54.06.49.49 0 0 1 .17.51 5.78 5.78 0 0 1-4.19 4.14Z"/></svg>
