<svg xmlns="http://www.w3.org/2000/svg" viewBox="0 0 24 24"><g fill="currentColor"><path d="M19 0H5a2.5 2.5 0 0 0-2.5 2.5v19A2.5 2.5 0 0 0 5 24h14a2.5 2.5 0 0 0 2.5-2.5v-19A2.5 2.5 0 0 0 19 0M5 4.5a1 1 0 0 1 1-1h12a1 1 0 0 1 1 1v14a1 1 0 0 1-1 1H6a1 1 0 0 1-1-1Z"/><path d="M7.5 6.25h1s.75 0 .75.75v1s0 .75-.75.75h-1s-.75 0-.75-.75V7s0-.75.75-.75m4 0h1s.75 0 .75.75v1s0 .75-.75.75h-1s-.75 0-.75-.75V7s0-.75.75-.75m4 0h1s.75 0 .75.75v1s0 .75-.75.75h-1s-.75 0-.75-.75V7s0-.75.75-.75m-8 4h1s.75 0 .75.75v1s0 .75-.75.75h-1s-.75 0-.75-.75v-1s0-.75.75-.75m4 0h1s.75 0 .75.75v1s0 .75-.75.75h-1s-.75 0-.75-.75v-1s0-.75.75-.75m-4 4h1s.75 0 .75.75v1s0 .75-.75.75h-1s-.75 0-.75-.75v-1s0-.75.75-.75m4 0h1s.75 0 .75.75v1s0 .75-.75.75h-1s-.75 0-.75-.75v-1s0-.75.75-.75m4-4h1s.75 0 .75.75v1s0 .75-.75.75h-1s-.75 0-.75-.75v-1s0-.75.75-.75"/></g></svg>
