<svg xmlns="http://www.w3.org/2000/svg" viewBox="0 0 24 24"><g fill="currentColor"><path d="M6.23 10a.26.26 0 0 0 0 .27.25.25 0 0 0 .23.15h11.31a.25.25 0 0 0 .23-.15.26.26 0 0 0 0-.27 8 8 0 0 0-3.29-2.15.5.5 0 0 1-.3-.27.53.53 0 0 1 0-.41 2.4 2.4 0 0 0 .22-1 2.5 2.5 0 1 0-5 0 2.4 2.4 0 0 0 .21 1 .53.53 0 0 1 0 .41.5.5 0 0 1-.3.27A8 8 0 0 0 6.23 10"/><path d="M19.65 20.38a4.25 4.25 0 1 0 0-8.5H4.85A2.26 2.26 0 0 1 2.6 9.62v-.24s-.09-1.5-1.28-1.5A1.21 1.21 0 0 0 .1 9.1a.77.77 0 0 0 .77.78.22.22 0 0 1 .23.22v1.28A3.76 3.76 0 0 0 3.8 15a.41.41 0 0 1 .3.39A8 8 0 0 0 5.54 20a1 1 0 0 0 .82.43Zm.28-2.15a.25.25 0 0 1-.22-.09.26.26 0 0 1-.05-.24 7.3 7.3 0 0 0 .34-3.5.24.24 0 0 1 .09-.23.26.26 0 0 1 .24 0 2.11 2.11 0 0 1 1.42 2 2.13 2.13 0 0 1-1.82 2.06"/></g></svg>
