<svg xmlns="http://www.w3.org/2000/svg" viewBox="0 0 24 24"><path fill="currentColor" d="M15.93 18.54a1 1 0 0 0-1.3-.55 7.06 7.06 0 0 1-5.25 0 1 1 0 1 0-.76 1.85 9 9 0 0 0 6.76 0 1 1 0 0 0 .55-1.3m.01-12.83A7 7 0 0 1 19 11.5a9 9 0 0 1-.05.88 1 1 0 1 0 2 .24A8 8 0 0 0 21 11.5a9 9 0 0 0-3.93-7.44 1 1 0 1 0-1.13 1.65M4.18 13.49a1 1 0 0 0 .87-1.11 9 9 0 0 1 0-.88 7 7 0 0 1 3.01-5.79 1 1 0 1 0-1.13-1.65A9 9 0 0 0 3 11.5a8 8 0 0 0 .07 1.12 1 1 0 0 0 1.11.87M15.67 9.5a.25.25 0 0 0 .2-.09.27.27 0 0 0 .05-.21A4.06 4.06 0 0 0 8 9.19a.25.25 0 0 0 0 .22.28.28 0 0 0 .19.09Zm-6.17-7a2.5 2.5 0 1 0 5 0 2.5 2.5 0 1 0-5 0m10.5 18a4.06 4.06 0 0 0-4 3.2.25.25 0 0 0 .24.3h7.46a.3.3 0 0 0 .2-.09.28.28 0 0 0 0-.22A4.06 4.06 0 0 0 20 20.5M17.53 17a2.5 2.5 0 1 0 5 0 2.5 2.5 0 1 0-5 0M4 20.5a4.06 4.06 0 0 0-4 3.2.26.26 0 0 0 0 .21.25.25 0 0 0 .3.09h7.45a.25.25 0 0 0 .25-.31 4.07 4.07 0 0 0-4-3.19M1.57 17a2.5 2.5 0 1 0 5 0 2.5 2.5 0 1 0-5 0"/></svg>
