<svg xmlns="http://www.w3.org/2000/svg" viewBox="0 0 24 24"><g fill="currentColor"><path d="M18.86 7.88a1 1 0 0 0-1.44 1.39 4.23 4.23 0 0 1 0 5.81 1 1 0 0 0 .72 1.7 1 1 0 0 0 .72-.31 6.25 6.25 0 0 0 0-8.59"/><path d="M21.34 5.48a1 1 0 0 0-1.44 1.39 7.73 7.73 0 0 1 0 10.61 1 1 0 0 0 .72 1.7 1 1 0 0 0 .72-.31 9.75 9.75 0 0 0 0-13.39m-8.24 5.84a.76.76 0 0 0-.75.75 4 4 0 1 1-3.95-4 .75.75 0 1 0 0-1.5 5.46 5.46 0 1 0 5.45 5.45.75.75 0 0 0-.75-.7"/><path d="M7.65 10.19a.75.75 0 0 0 .75.75 1.13 1.13 0 0 1 0 2.26 1.12 1.12 0 0 1-1.13-1.13.75.75 0 0 0-1.5 0A2.63 2.63 0 1 0 8.4 9.44a.75.75 0 0 0-.75.75"/><path d="M16.8 12.07a8.43 8.43 0 0 0-4-7.14.19.19 0 0 1-.1-.13L11.92.69a.44.44 0 0 0-.43-.33H5.3a.43.43 0 0 0-.42.33L4.07 4.8a.18.18 0 0 1-.07.13 8.39 8.39 0 0 0 0 14.28.24.24 0 0 1 .09.13l.81 4a.43.43 0 0 0 .42.33h6.19a.44.44 0 0 0 .43-.32l.82-4a.23.23 0 0 1 .1-.12 8.43 8.43 0 0 0 3.94-7.16M8.4 18.7a6.63 6.63 0 1 1 6.6-6.63 6.63 6.63 0 0 1-6.6 6.63"/></g></svg>
