<svg xmlns="http://www.w3.org/2000/svg" viewBox="0 0 24 24"><g fill="currentColor"><path d="M14 4.5a4.5 4.5 0 0 0-9 0v9.44a.23.23 0 0 1-.06.16 6 6 0 1 0 9.12 0 .23.23 0 0 1-.06-.16ZM9.5 22a4 4 0 0 1-2.8-6.86 1 1 0 0 0 .3-.71V4.5a2.5 2.5 0 0 1 5 0v9.93a1 1 0 0 0 .3.71A4 4 0 0 1 9.5 22"/><path d="M10.61 16.34a.26.26 0 0 1-.11-.21V5a1 1 0 0 0-2 0v11.13a.26.26 0 0 1-.11.21 2 2 0 1 0 2.22 0m8.89-4.84H17a1 1 0 0 0 0 2h2.5a1 1 0 0 0 0-2m-2.5-6h2.5a1 1 0 0 0 0-2H17a1 1 0 0 0 0 2m2.5 2H17a1 1 0 0 0 0 2h2.5a1 1 0 0 0 0-2"/></g></svg>
