<svg xmlns="http://www.w3.org/2000/svg" viewBox="0 0 24 24"><g fill="currentColor"><path d="M14.35 3.34a.99.99 0 1 0 1.98 0 .99.99 0 1 0-1.98 0m0 2.72a.99.99 0 1 0 1.98 0 .99.99 0 1 0-1.98 0m0 2.72a.99.99 0 1 0 1.98 0 .99.99 0 1 0-1.98 0"/><path d="M9.6 15.46H2.23a.25.25 0 0 1-.23-.24v-1.9a.25.25 0 0 1 .18-.24 4.45 4.45 0 0 0 0-8.59.25.25 0 0 1-.18-.24v-1.9a.25.25 0 0 1 .25-.25h19.3a.25.25 0 0 1 .24.25v1.9a.25.25 0 0 1-.18.24 4.46 4.46 0 0 0-3.28 4.29 4 4 0 0 0 0 .6.25.25 0 0 0 .21.21 7.3 7.3 0 0 1 1.57.37.27.27 0 0 0 .26-.06.26.26 0 0 0 .06-.26 2.3 2.3 0 0 1-.16-.86 2.47 2.47 0 0 1 2.16-2.45 1.49 1.49 0 0 0 1.3-1.47V2.1a2 2 0 0 0-2-2H2a2 2 0 0 0-2 2v2.76a1.49 1.49 0 0 0 1.3 1.47 2.47 2.47 0 0 1 2.16 2.45 2.48 2.48 0 0 1-2.16 2.46A1.48 1.48 0 0 0 0 12.71v2.75a2 2 0 0 0 2 2h7.41a.24.24 0 0 0 .24-.24 7.7 7.7 0 0 1 .19-1.44.24.24 0 0 0-.05-.2.26.26 0 0 0-.19-.12"/><path d="M17.57 11A6.44 6.44 0 1 0 24 17.44 6.45 6.45 0 0 0 17.57 11M20 18.19h-1.44a.25.25 0 0 0-.25.24v1.49a.74.74 0 0 1-.74.74.75.75 0 0 1-.75-.74v-1.49a.24.24 0 0 0-.24-.24h-1.49a.75.75 0 0 1-.74-.75.74.74 0 0 1 .74-.74h1.49a.25.25 0 0 0 .24-.25V15a.75.75 0 0 1 .75-.74.74.74 0 0 1 .74.74v1.48a.25.25 0 0 0 .25.25H20a.74.74 0 0 1 .74.74.75.75 0 0 1-.74.72"/></g></svg>
