<svg xmlns="http://www.w3.org/2000/svg" viewBox="0 0 24 24"><g fill="currentColor"><path d="M22.53 10.1a8 8 0 0 0-2.43-5.64 1 1 0 0 0-1-.19 1 1 0 0 0-.63.84A1.35 1.35 0 0 1 17 6.31a4.39 4.39 0 0 1-.87-4.82 1 1 0 0 0-.9-1.49c-4.31 0-7.55 2.41-8.5 6.21a1.53 1.53 0 0 1-1-1.15 1 1 0 0 0-1.63-.62A7.41 7.41 0 0 0 1.53 11a6.35 6.35 0 0 0 3.15 4.7.25.25 0 0 0 .22 0 .24.24 0 0 0 .15-.16 7.7 7.7 0 0 1 .54-1.36.25.25 0 0 0-.08-.33 4.33 4.33 0 0 1-2-3.12A5.43 5.43 0 0 1 4.46 7a3.68 3.68 0 0 0 3.17 1.3 1 1 0 0 0 .89-.86 6 6 0 0 1 5.29-5.33 6.35 6.35 0 0 0 2.26 6 1 1 0 0 0 .5.17 3.56 3.56 0 0 0 3.1-1.21 5.87 5.87 0 0 1 .86 3 3.92 3.92 0 0 1-1.46 3.17.25.25 0 0 0-.05.33 8 8 0 0 1 .66 1.32.26.26 0 0 0 .17.15.26.26 0 0 0 .21 0 5.91 5.91 0 0 0 2.47-4.94"/><path d="M18.73 17.75A6.25 6.25 0 1 0 12.48 24a6.26 6.26 0 0 0 6.25-6.25m-2.45 0a.75.75 0 0 1-.75.75h-3a.76.76 0 0 1-.75-.75v-3.5a.75.75 0 0 1 1.5 0v2.5a.25.25 0 0 0 .25.25h2a.75.75 0 0 1 .75.75"/></g></svg>
