<svg xmlns="http://www.w3.org/2000/svg" viewBox="0 0 24 24"><g fill="currentColor"><path d="M12 18.5a1 1 0 0 1-1-1v-2a1 1 0 0 1 2 0v2a1 1 0 0 1-1 1"/><path d="M20.5 24a2 2 0 0 0 1.61-.81 2 2 0 0 0 .3-1.78l-3-9.7a1 1 0 0 0-1-.71h-.72a.5.5 0 0 1-.5-.5V6.91a1 1 0 0 1 .5-.87A11 11 0 0 0 22.46.69a.49.49 0 0 0 0-.47A.51.51 0 0 0 22 0H2.5a.51.51 0 0 0-.42.22.49.49 0 0 0-.08.47 11 11 0 0 0 4.29 5.07 1 1 0 0 1 .46.84v3.9a.5.5 0 0 1-.5.5h-.72a1 1 0 0 0-1 .71l-3 9.7a2 2 0 0 0 .3 1.78A2 2 0 0 0 3.5 24ZM9.25 7.73a.49.49 0 0 1 .19-.39.48.48 0 0 1 .42-.1 11 11 0 0 0 2.39.26 12 12 0 0 0 1.91-.16.47.47 0 0 1 .41.11.49.49 0 0 1 .18.38v2.67a.5.5 0 0 1-.5.5h-4.5a.5.5 0 0 1-.5-.5ZM12 22a4.5 4.5 0 1 1 4.5-4.5A4.49 4.49 0 0 1 12 22"/></g></svg>
