<svg xmlns="http://www.w3.org/2000/svg" viewBox="0 0 24 24"><g fill="currentColor"><path d="M5.84 6.62h6.41a.25.25 0 0 0 .25-.24V4.62a.75.75 0 0 0-.75-.74h-1a6.73 6.73 0 0 0-5.1 2.33.27.27 0 0 0 0 .27.24.24 0 0 0 .19.14m17.41 12.76H23v-.26a1.25 1.25 0 0 0-1.25-1.24h-1.2a.25.25 0 0 0-.2.4 2.93 2.93 0 0 1 .65 1.84 3.4 3.4 0 0 1 0 .46.3.3 0 0 0 .05.21.28.28 0 0 0 .19.09h2.05a.76.76 0 0 0 .75-.76.75.75 0 0 0-.79-.74"/><path d="M16.15 17.77a.26.26 0 0 0 .1-.2V4.88a1 1 0 0 1 1-1h.5a1 1 0 0 0 0-2h-.5a3 3 0 0 0-3 3v12.74a.26.26 0 0 1-.25.26h-1.25a.26.26 0 0 1-.25-.26V7.88a.26.26 0 0 0-.25-.26H4.88a.25.25 0 0 0-.23.15 5 5 0 0 0-.25.6 6.4 6.4 0 0 0-.4 2.25v2.5a.26.26 0 0 1-.25.26h-.31a2.73 2.73 0 0 0-2.71 2.29L0 20a.72.72 0 0 0 .17.61.73.73 0 0 0 .57.26h1a.25.25 0 0 0 .26-.11.25.25 0 0 0 .06-.2 2 2 0 0 1 0-.44 3 3 0 0 1 6 0 3.4 3.4 0 0 1 0 .46.3.3 0 0 0 0 .21.28.28 0 0 0 .19.09h6.6a.28.28 0 0 0 .19-.09.3.3 0 0 0 0-.21 3.4 3.4 0 0 1 0-.46 3 3 0 0 1 1.11-2.35M9.75 13a.5.5 0 0 1-.48.38H6.78a.51.51 0 0 1-.5-.5v-2.26a5 5 0 0 1 .13-1.1.49.49 0 0 1 .48-.4H10a.5.5 0 0 1 .5.5Z"/><path d="M3 20.13a2 2 0 1 0 4 0 2 2 0 1 0-4 0m13 0a2 2 0 1 0 4 0 2 2 0 1 0-4 0"/></g></svg>
