<svg xmlns="http://www.w3.org/2000/svg" viewBox="0 0 24 24"><path fill="currentColor" d="M21.49 0A2.5 2.5 0 0 0 19 2.5a2.6 2.6 0 0 0 .13.8.23.23 0 0 1-.06.25l-2.28 2.26a1 1 0 0 0 .7 1.71 1 1 0 0 0 .71-.29L20.5 5a.23.23 0 0 1 .25-.06 2.6 2.6 0 0 0 .74.11 2.5 2.5 0 0 0 0-5Zm.01 19a2.6 2.6 0 0 0-.8.13.23.23 0 0 1-.25-.06l-1.79-1.8a1 1 0 0 0-1.42 1.41l1.81 1.82a.25.25 0 0 1 .06.26 2.6 2.6 0 0 0-.11.74 2.5 2.5 0 1 0 2.5-2.5M7.21 5.81 4.94 3.55a.23.23 0 0 1-.06-.25A2.6 2.6 0 0 0 5 2.5 2.5 2.5 0 1 0 2.51 5a2.6 2.6 0 0 0 .74-.11.25.25 0 0 1 .26.11L5.8 7.23a1 1 0 0 0 .71.29 1 1 0 0 0 .71-.3 1 1 0 0 0-.01-1.41M2.5 24A2.5 2.5 0 0 0 5 21.5a2.6 2.6 0 0 0-.11-.74.23.23 0 0 1 .11-.25l1.81-1.83a1 1 0 0 0-1.42-1.41l-1.79 1.8a.23.23 0 0 1-.25.06A2.6 2.6 0 0 0 2.5 19a2.5 2.5 0 0 0 0 5M21.49 9a2.53 2.53 0 0 0-2.23 1.36.23.23 0 0 1-.22.14H18a1 1 0 0 0 0 2h1a.23.23 0 0 1 .22.14A2.5 2.5 0 1 0 21.49 9M5 10.5a.24.24 0 0 1-.22-.14A2.53 2.53 0 0 0 2.51 9a2.5 2.5 0 1 0 2.23 3.64.24.24 0 0 1 .26-.14h1a1 1 0 0 0 0-2Zm4.14-3.38A2.86 2.86 0 1 0 12 4.26a2.86 2.86 0 0 0-2.86 2.86m-.97 9.14h7.66a1.14 1.14 0 0 0 1.1-1.47 5.15 5.15 0 0 0-9.86 0 1.14 1.14 0 0 0 1.1 1.47"/></svg>
