<svg xmlns="http://www.w3.org/2000/svg" viewBox="0 0 24 24"><path fill="currentColor" d="m23.06 21.538-2.085-5.899a1.66 1.66 0 0 0-1.553-1.096h-1.125l-.66-2.067-1.455-4.6-1.213-3.803-.699-2.183c-.566-1.747-2.813-2.226-4.043-.861a2.4 2.4 0 0 0-.497.861l-.7 2.183-1.212 3.804-1.455 4.599-.66 2.067H4.578a1.66 1.66 0 0 0-1.553 1.096l-2.086 5.9a1.7 1.7 0 0 0 .214 1.522c.313.439.819.7 1.358.699h18.978c.54 0 1.045-.26 1.358-.699.31-.444.39-1.01.214-1.523M10.187 5.267c.584.198 1.197.3 1.814.3a5.7 5.7 0 0 0 1.814-.3l.796 2.493a5.23 5.23 0 0 1-5.22 0ZM12 14.785a9.9 9.9 0 0 0 4.521-1.038l.476 1.504.427 1.339a.49.49 0 0 1-.117.495c-.776.776-2.163 1.804-5.317 1.804s-4.54-1.028-5.317-1.804a.49.49 0 0 1-.116-.495l.427-1.34.475-1.503A9.9 9.9 0 0 0 12 14.785"/></svg>
