<svg xmlns="http://www.w3.org/2000/svg" viewBox="0 0 24 24"><g fill="currentColor"><path d="M16.4 15.11a.49.49 0 0 0-.18-.64 11.7 11.7 0 0 0-3.64-1.59.52.52 0 0 0-.48.15 13.36 13.36 0 0 1-10.46 4.11.27.27 0 0 0-.23.12.25.25 0 0 0 0 .25 12 12 0 0 0 3.39 4 1 1 0 0 0 .72.19c4.48-.51 8.93-2.7 10.88-6.59"/><path d="M18.28 16.16a.5.5 0 0 0-.42-.15.47.47 0 0 0-.37.25A14.42 14.42 0 0 1 8 22.82a.25.25 0 0 0 0 .48 12 12 0 0 0 12.6-2.91.49.49 0 0 0 .1-.54 11.6 11.6 0 0 0-2.42-3.69m5.47-3.38C21 9.15 16.88 6.42 12.57 6.67a.49.49 0 0 0-.47.47 11.8 11.8 0 0 0 .45 3.94.49.49 0 0 0 .36.35 13.35 13.35 0 0 1 8.8 7 .26.26 0 0 0 .21.14.24.24 0 0 0 .22-.12 12 12 0 0 0 1.8-4.94 1.05 1.05 0 0 0-.19-.73"/><path d="M12.62 5a.48.48 0 0 0 .4.2c4-.05 7.64 2 10.4 4.9a.25.25 0 0 0 .29 0 .25.25 0 0 0 .14-.27A12 12 0 0 0 15 .39a.5.5 0 0 0-.52.18 11.7 11.7 0 0 0-2 3.94.5.5 0 0 0 .14.49m-4.81 9.38A12 12 0 0 0 11 12a.51.51 0 0 0 .11-.49A13.38 13.38 0 0 1 12.79.41a.27.27 0 0 0 0-.26.23.23 0 0 0-.2-.15 11.9 11.9 0 0 0-5.18.94 1 1 0 0 0-.53.52c-1.79 4.18-2.08 9.13.29 12.74a.5.5 0 0 0 .64.18"/><path d="M5.32 15.31a.5.5 0 0 0 .34-.31.51.51 0 0 0 0-.45c-2-3.42-2.09-7.61-1-11.45a.24.24 0 0 0-.1-.28.26.26 0 0 0-.3 0A12 12 0 0 0 .5 15.2a.48.48 0 0 0 .41.36 11.7 11.7 0 0 0 4.41-.25"/></g></svg>
