<svg xmlns="http://www.w3.org/2000/svg" viewBox="0 0 24 24"><path fill="currentColor" d="M2 20.5a1 1 0 0 0 1-1V18a.5.5 0 0 1 .5-.5h17a.5.5 0 0 1 .5.5v1a1 1 0 0 0 2 0V7.5a1 1 0 0 0-1-1H2a1 1 0 0 0-1 1v12a1 1 0 0 0 1 1M18 9a.5.5 0 0 1 .5-.5h2a.5.5 0 0 1 .5.5v1.5a.5.5 0 0 1-.5.5h-2a.5.5 0 0 1-.5-.5Zm0 4.5a.5.5 0 0 1 .5-.5h2a.5.5 0 0 1 .5.5V15a.5.5 0 0 1-.5.5h-2a.5.5 0 0 1-.5-.5ZM13 9a.5.5 0 0 1 .5-.5h2a.5.5 0 0 1 .5.5v1.5a.5.5 0 0 1-.5.5h-2a.5.5 0 0 1-.5-.5Zm0 4.5a.5.5 0 0 1 .5-.5h2a.5.5 0 0 1 .5.5V15a.5.5 0 0 1-.5.5h-2a.5.5 0 0 1-.5-.5ZM8 9a.5.5 0 0 1 .5-.5h2a.5.5 0 0 1 .5.5v1.5a.5.5 0 0 1-.5.5h-2a.5.5 0 0 1-.5-.5Zm0 4.5a.5.5 0 0 1 .5-.5h2a.5.5 0 0 1 .5.5V15a.5.5 0 0 1-.5.5h-2A.5.5 0 0 1 8 15ZM3 9a.5.5 0 0 1 .5-.5h2A.5.5 0 0 1 6 9v1.5a.5.5 0 0 1-.5.5h-2a.5.5 0 0 1-.5-.5Zm0 4.5a.5.5 0 0 1 .5-.5h2a.5.5 0 0 1 .5.5V15a.5.5 0 0 1-.5.5h-2A.5.5 0 0 1 3 15Zm20.72 9.16a11.9 11.9 0 0 0-7-2.16 10.8 10.8 0 0 0-4.35.86 1 1 0 0 1-.8 0 10.8 10.8 0 0 0-4.35-.86 11.9 11.9 0 0 0-7 2.16.77.77 0 0 0-.22.84.76.76 0 0 0 .71.5h22.5a.76.76 0 0 0 .71-.5.77.77 0 0 0-.2-.84M16 2.75a2.75 2.75 0 1 0 5.5 0 2.75 2.75 0 1 0-5.5 0"/></svg>
