<svg xmlns="http://www.w3.org/2000/svg" viewBox="0 0 24 24"><g fill="currentColor"><path d="M21.49 8.66A3.27 3.27 0 0 0 19 6.75a4.36 4.36 0 0 0-3.79-2.23 4.46 4.46 0 0 0-2.21.57 1 1 0 1 0 1 1.74 2.3 2.3 0 0 1 1.18-.31 2.38 2.38 0 0 1 2.21 1.55 1 1 0 0 0 1 .65h.07a1.27 1.27 0 0 1 1.25 1 1 1 0 0 0 1 .81 1.29 1.29 0 0 1 1.29 1.3 1.3 1.3 0 0 1-.17.65 1 1 0 0 0 .34 1.38 1.06 1.06 0 0 0 .51.14 1 1 0 0 0 .86-.49 3.26 3.26 0 0 0 .46-1.68 3.3 3.3 0 0 0-2.51-3.17M3.17 6.25A3.13 3.13 0 1 0 0 3.12a3.13 3.13 0 0 0 3.17 3.13M21 6a3 3 0 1 0-3-3 3 3 0 0 0 3 3M9.79 3a1.5 1.5 0 1 0-1.5-1.5A1.5 1.5 0 0 0 9.79 3"/><path d="M21.72 14.5h-8.41a.51.51 0 0 1-.5-.5.5.5 0 0 1 .5-.5h5a1.75 1.75 0 0 0 0-3.5h-10a.26.26 0 0 1-.24-.18.25.25 0 0 1 .1-.28l3-2.12a1.74 1.74 0 0 0-2-2.83l-7.76 5.47A3.26 3.26 0 0 0 0 12.72v5A6.25 6.25 0 0 0 6.3 24h9a1.77 1.77 0 0 0 1.42-.72 1.8 1.8 0 0 0 .28-1.61.25.25 0 0 0-.24-.17h-4.95a.51.51 0 0 1-.5-.5.5.5 0 0 1 .5-.5h6.5a1.77 1.77 0 0 0 1.42-.72 1.8 1.8 0 0 0 .27-1.61.25.25 0 0 0-.24-.17h-6.45a.51.51 0 0 1-.5-.5.5.5 0 0 1 .5-.5h7a1.75 1.75 0 0 0 1.75-1.75 1.7 1.7 0 0 0-.1-.59.25.25 0 0 0-.24-.16"/></g></svg>
