<svg xmlns="http://www.w3.org/2000/svg" viewBox="0 0 24 24"><g fill="currentColor"><path d="M9.5 8.55a2.5 2.5 0 1 0 5 0 2.5 2.5 0 1 0-5 0m6.66 9.52a.53.53 0 0 0-.54-.07 8.57 8.57 0 0 1-7.24 0 .51.51 0 0 0-.54.07 6.43 6.43 0 0 0-2.15 3.72A1.4 1.4 0 0 0 6 23a1.42 1.42 0 0 0 1.09.5h9.84a1.4 1.4 0 0 0 1.07-.56 1.37 1.37 0 0 0 .3-1.15 6.43 6.43 0 0 0-2.14-3.72"/><path d="M12 17.55a8.5 8.5 0 1 0-8.5-8.5 8.51 8.51 0 0 0 8.5 8.5m4.5-8.5a4.5 4.5 0 0 1-9 0V4.48a.23.23 0 0 1 .08-.18 6.46 6.46 0 0 1 8.84 0 .23.23 0 0 1 .08.18Z"/></g></svg>
