<svg xmlns="http://www.w3.org/2000/svg" viewBox="0 0 24 24"><g fill="currentColor"><path d="M13 11.93a3 3 0 1 0-2.08 0L7.06 22.66A1 1 0 0 0 8 24h8a1 1 0 0 0 .94-1.34ZM20.34.29a1 1 0 0 0-1.42 0 1 1 0 0 0 0 1.41 10.5 10.5 0 0 1 0 14.85A1 1 0 0 0 20.34 18a12.52 12.52 0 0 0 0-17.71M5.08 1.7a1 1 0 0 0 0-1.41 1 1 0 0 0-1.42 0 12.52 12.52 0 0 0 0 17.71 1 1 0 0 0 1.42-1.42 10.5 10.5 0 0 1 0-14.88"/><path d="M17.05 3.83a1 1 0 1 0-1.41 1.41 5.5 5.5 0 0 1 0 7.78 1 1 0 1 0 1.41 1.41 7.48 7.48 0 0 0 0-10.6m-8.69 10.6a1 1 0 0 0 0-1.41 5.5 5.5 0 0 1 0-7.78A1 1 0 0 0 7 3.83a7.48 7.48 0 0 0 0 10.6 1 1 0 0 0 1.36 0"/></g></svg>
