<svg xmlns="http://www.w3.org/2000/svg" viewBox="0 0 24 24"><g fill="currentColor"><path d="M20.34 1.67a1 1 0 0 0-1.42 0 1 1 0 0 0 0 1.41 10.49 10.49 0 0 1 0 14.85 1 1 0 0 0 0 1.41 1 1 0 0 0 .71.3 1 1 0 0 0 .71-.3 12.49 12.49 0 0 0 0-17.67"/><path d="M17.51 4.49a1 1 0 1 0-1.41 1.42 6.49 6.49 0 0 1 0 9.19 1 1 0 0 0 .71 1.71 1 1 0 0 0 .71-.29 8.51 8.51 0 0 0 0-12ZM2 10.51a10.4 10.4 0 0 1 3.08-7.43 1 1 0 0 0 0-1.41 1 1 0 0 0-1.42 0 12.49 12.49 0 0 0 0 17.67 1 1 0 0 0 .71.3 1 1 0 0 0 .71-.3 1 1 0 0 0 0-1.41A10.4 10.4 0 0 1 2 10.51"/><path d="M7.9 4.49a1 1 0 0 0-1.41 0 8.51 8.51 0 0 0 0 12A1 1 0 0 0 7.9 15.1a6.51 6.51 0 0 1 0-9.19 1 1 0 0 0 0-1.42M12 7.37a3 3 0 0 0-1 5.82v8.43a1 1 0 1 0 2 0v-8.43a3 3 0 0 0-1-5.82"/></g></svg>
