<svg xmlns="http://www.w3.org/2000/svg" fill="none" viewBox="0 0 24 24"><path fill="currentColor" fill-rule="evenodd" d="M14.572 4.388a2.58 2.58 0 1 0-5.144 0l.82 10.06a1.757 1.757 0 0 0 3.504 0zm-6.505 1.69a.98.98 0 0 1-.631 1.234 14.8 14.8 0 0 0-5.548 3.262A.98.98 0 0 1 .552 9.14a16.8 16.8 0 0 1 6.28-3.693.98.98 0 0 1 1.234.631m7.866 0a.98.98 0 0 1 1.235-.63 16.8 16.8 0 0 1 6.28 3.692.98.98 0 0 1-1.336 1.434 14.8 14.8 0 0 0-5.548-3.262.98.98 0 0 1-.63-1.234m-7.777 5.553a.98.98 0 0 0-.716-1.824 12.5 12.5 0 0 0-4.264 2.791.98.98 0 0 0 1.386 1.386 10.5 10.5 0 0 1 3.594-2.353m8.404-1.824a.98.98 0 1 0-.716 1.824 10.5 10.5 0 0 1 3.594 2.353.98.98 0 1 0 1.385-1.386 12.5 12.5 0 0 0-4.263-2.791M9.012 15.98a.98.98 0 1 0-.943-1.719 8.2 8.2 0 0 0-1.846 1.385.98.98 0 1 0 1.385 1.386c.42-.419.893-.772 1.404-1.052m6.913-1.719a.98.98 0 1 0-.943 1.719c.511.28.984.633 1.404 1.052a.98.98 0 0 0 1.385-1.386 8.2 8.2 0 0 0-1.846-1.385m-1.753 5.968a2.172 2.172 0 1 1-4.344 0 2.172 2.172 0 0 1 4.344 0" clip-rule="evenodd"/></svg>
