<svg xmlns="http://www.w3.org/2000/svg" viewBox="0 0 24 24"><g fill="currentColor"><path d="M20.5 14.5a1 1 0 0 0 1-1v-8a3 3 0 0 0-3-3h-13a3 3 0 0 0-3 3v8a1 1 0 0 0 2 0v-8a1 1 0 0 1 1-1h13a1 1 0 0 1 1 1v8a1 1 0 0 0 1 1m3 1.5H16a.5.5 0 0 0-.5.5c0 .71-1.5 1.5-3.5 1.5s-3.5-.79-3.5-1.5A.5.5 0 0 0 8 16H.5a.52.52 0 0 0-.41.21.48.48 0 0 0-.06.45 7.07 7.07 0 0 0 6.71 4.84h10.52A7.07 7.07 0 0 0 24 16.66a.48.48 0 0 0-.06-.45.52.52 0 0 0-.44-.21"/><path d="M10.59 14.09A1.41 1.41 0 1 0 12 12.68a1.41 1.41 0 0 0-1.41 1.41M16 9a1 1 0 0 0 .63-1.78 7.32 7.32 0 0 0-9.26 0 1 1 0 0 0 1.26 1.56 5.33 5.33 0 0 1 6.74 0A1 1 0 0 0 16 9"/><path d="M15.11 11.63a1 1 0 0 0-.11-1.41 4.7 4.7 0 0 0-5.92 0 1 1 0 0 0-.15 1.41 1 1 0 0 0 .78.37 1 1 0 0 0 .62-.22 2.71 2.71 0 0 1 3.42 0 1 1 0 0 0 1.36-.15"/></g></svg>
