<svg xmlns="http://www.w3.org/2000/svg" viewBox="0 0 24 24"><path fill="currentColor" d="M23.34 7.36a15 15 0 0 0-1.67-1.51 1 1 0 1 0-1.23 1.58 13 13 0 0 1 1.46 1.31 1 1 0 0 0 .72.31 1 1 0 0 0 .69-.28 1 1 0 0 0 .03-1.41M9.28 20a2 2 0 1 0 4 0 2 2 0 1 0-4 0m9.06-10.6a1 1 0 1 0-1.06 1.7 8.6 8.6 0 0 1 1.6 1.28 1 1 0 0 0 1.42 0 1 1 0 0 0 0-1.42 11.7 11.7 0 0 0-1.96-1.56m-4.09 4.06a1 1 0 1 0-.5 1.93 5.1 5.1 0 0 1 2.31 1.31 1 1 0 0 0 .7.3 1 1 0 0 0 .71-1.71 6.94 6.94 0 0 0-3.22-1.83M21.43.24A1 1 0 0 0 20 .35L17.75 3A15.08 15.08 0 0 0 .67 5.89a1 1 0 0 0 0 1.42 1 1 0 0 0 1.42 0 13.08 13.08 0 0 1 14.3-2.76l-2.06 2.38A11.08 11.08 0 0 0 3.5 9.72a1 1 0 0 0 0 1.42 1 1 0 0 0 1.42 0 9 9 0 0 1 7.93-2.49L1 22.35a1 1 0 0 0 .11 1.41 1 1 0 0 0 .65.24 1 1 0 0 0 .76-.35l19-22a1 1 0 0 0-.09-1.41"/></svg>
