<svg xmlns="http://www.w3.org/2000/svg" viewBox="0 0 24 24"><path fill="currentColor" d="M12 0a12 12 0 1 0 12 12A12 12 0 0 0 12 0m6.54 8.71L18 10.28 17.18 13l-.84 2.68s-.05.2-.11.4c-.65 2.4-.73 2.71-1.4 2.71a.75.75 0 0 1-.72-.55L12 10.56 9.84 18.2a.75.75 0 0 1-1.44 0L5.69 8.53H5A.75.75 0 1 1 5 7h2.89a.75.75 0 0 1 0 1.5h-.64l1.87 6.68L11 8.53h-.65a.75.75 0 0 1 0-1.5h2.85a.75.75 0 1 1 0 1.5H13l1.9 6.81v-.14l.84-2.69 1.28-4 .1-.28a2 2 0 0 0 .16-.62.5.5 0 0 0 0-.14.49.49 0 0 0-.64-.11.75.75 0 1 1-.83-1.25 2 2 0 0 1 2.75.59 1.7 1.7 0 0 1 .25.79 2.9 2.9 0 0 1-.27 1.22"/></svg>
