<svg xmlns="http://www.w3.org/2000/svg" fill="none" viewBox="0 0 24 24"><path fill="currentColor" d="m8.629 8.63 1.467 1.466h-.001l3.197 3.197h.001l2.008 2.008-.002-.001 6.7 6.7-1.425 1.425L17 19.85v1.65a1 1 0 0 1-1.242.97L12 21.53l-3.758.94A1 1 0 0 1 7 21.5v-3a1 1 0 0 1 .553-.894L9 16.882v-1.646l-5.79 1.241A1 1 0 0 1 2 15.5V13l.009-.133a1 1 0 0 1 .495-.735l4.311-2.466-6.24-6.241L1.998 2zm2.355 5.205Q11 13.917 11 14v3.5a1 1 0 0 1-.553.895L9 19.118v1.102l2.758-.69.12-.022a1 1 0 0 1 .364.022l2.758.69v-1.102l-1.447-.724A1 1 0 0 1 13 17.5v-1.65zM12 2a3 3 0 0 1 3 3v3.419l6.496 3.713A1 1 0 0 1 22 13v2.5a1 1 0 0 1-1.21.977l-1.862-.399-2.603-2.602 3.675.787v-.683l-6.496-3.712A1 1 0 0 1 13 9V5a1 1 0 1 0-2 0v3.15l-2-2V5a3 3 0 0 1 3-3M4 13.58v.683l5.79-1.24a1 1 0 0 1 .374-.008l-1.883-1.883z"/></svg>
