<svg xmlns="http://www.w3.org/2000/svg" fill="none" viewBox="0 0 24 24"><path fill="currentColor" d="M12 4a7 7 0 0 1 7 7v.028A4.5 4.5 0 0 1 18.5 20h-12A5.5 5.5 0 0 1 5.251 9.143 7 7 0 0 1 12 4m0 2a5 5 0 0 0-4.933 4.182 1 1 0 0 1-.894.834A3.5 3.5 0 0 0 6.5 18h12a2.5 2.5 0 0 0 0-5H18a1 1 0 0 1-1-1v-1a5 5 0 0 0-5-5m-2.75 7.75H11v1.5H9.25V17h-1.5v-1.75H6v-1.5h1.75V12h1.5zm7.25.75q.5 0 .875.375c.375.375.375.542.375.875s-.125.625-.375.875-.542.375-.875.375-.625-.125-.875-.375-.375-.542-.375-.875.125-.625.375-.875.542-.375.875-.375M14 12q.5 0 .875.375c.375.375.375.542.375.875s-.125.625-.375.875-.542.375-.875.375-.625-.125-.875-.375-.375-.542-.375-.875.125-.625.375-.875S13.667 12 14 12"/></svg>
