<svg xmlns="http://www.w3.org/2000/svg" fill="none" viewBox="0 0 24 24"><path fill="currentColor" d="M18.83 1.51c.765.045 1.49.248 2.14.575l.103.06a1 1 0 0 1 .154 1.54L18.913 6l.586.586 2.314-2.314.09-.079a1 1 0 0 1 1.51.336A5.5 5.5 0 0 1 24 7l-.007.283a5.5 5.5 0 0 1-5.21 5.21l-.283.007c-.485 0-.956-.065-1.404-.184L15.913 13.5l4.294 4.294a2.768 2.768 0 0 1-3.914 3.914l-4.294-4.294-4.292 4.294a2.77 2.77 0 0 1-3.704.19l-.21-.19a2.77 2.77 0 0 1 0-3.914L8.085 13.5 6.75 12.165l-1.043 1.043a1 1 0 0 1-1.338.068l-.076-.068-4-4a1 1 0 0 1 0-1.414l6-6 .076-.068a1 1 0 0 1 1.338.068l4 4 .068.076a1 1 0 0 1-.068 1.338L10.664 8.25l1.335 1.335 1.183-1.184a5.5 5.5 0 0 1-.175-1.131L13 7a5.5 5.5 0 0 1 5.5-5.5zm-5.417 14.489 4.294 4.294a.769.769 0 0 0 1.086-1.086l-4.294-4.294zM18.5 3.5A3.5 3.5 0 0 0 15 7l.004.172c.02.399.106.779.247 1.13a1 1 0 0 1-.124.969l-.097.112-9.823 9.824c-.3.3-.3.786 0 1.086l.059.053a.77.77 0 0 0 1.027-.053l9.823-9.824.112-.097a1 1 0 0 1 .968-.124c.403.162.843.252 1.304.252l.18-.005A3.5 3.5 0 0 0 22 7l-.003-.085-1.79 1.792a1 1 0 0 1-1.414 0l-2-2a1 1 0 0 1 0-1.414l1.79-1.791zM8.164 10.75l1.335 1.335 1.086-1.086L9.25 9.664zM2.414 8.5 5 11.086 9.586 6.5 7 3.914z"/></svg>
