<svg xmlns="http://www.w3.org/2000/svg" fill="none" viewBox="0 0 24 24"><path fill="currentColor" d="M21 21H3v-2h18zM5.372 4.345a4.71 4.71 0 0 1 6.589 0l.039.038.04-.038.173-.163a4.71 4.71 0 0 1 6.415.163 4.57 4.57 0 0 1 .166 6.359l-.166.173-5.926 5.836-.702.69-.702-.69-5.926-5.836a4.573 4.573 0 0 1 0-6.532m5.186 1.425a2.707 2.707 0 0 0-3.783 0 2.57 2.57 0 0 0 0 3.681L12 14.596l5.225-5.145.181-.197a2.57 2.57 0 0 0-.181-3.484 2.71 2.71 0 0 0-3.58-.18l-.203.18-.74.73a1 1 0 0 1-1.328.067l-.076-.067z"/></svg>
