<svg xmlns="http://www.w3.org/2000/svg" fill="none" viewBox="0 0 24 24"><path fill="currentColor" d="M12.37 1.225a1 1 0 0 1 1.337.068L21.414 9l-11 11H1v-3.235c0-1.17.678-2.194 1.67-2.713l.544-.295c1.193-.678 1.88-1.287 2.378-2.109.6-.989.99-2.386 1.424-4.824l.038-.147a1 1 0 0 1 .239-.384l5-5zM8.925 7.487a30 30 0 0 1-.62 2.76l2.224 2.223-1.06 1.06-1.717-1.716a8 8 0 0 1-.451.87 7 7 0 0 1-.656.902L8.03 14.97l-1.06 1.06-1.418-1.418c-.405.311-.853.6-1.349.882l-.606.33a1.08 1.08 0 0 0-.597.94V18h6.586l9-9L13 3.414zm14.281 3.72-4 4-1.414-1.414 4-4z"/></svg>
