<svg xmlns="http://www.w3.org/2000/svg" fill="none" viewBox="0 0 24 24"><path fill="currentColor" d="M11.63 4.07a1 1 0 0 1 .855.056l8.974 4.985.988.494.121.072A1 1 0 0 1 23 10.5V17h-2v-5.857l-2 1.11V17a1 1 0 0 1-.106.447L18 17c.833.416.89.446.894.448l-.002.004-.003.006-.008.015-.023.043-.077.131c-.065.108-.16.253-.286.421a6.8 6.8 0 0 1-1.183 1.213C16.21 20.163 14.492 21 12 21s-4.21-.837-5.312-1.719a6.8 6.8 0 0 1-1.183-1.213 5 5 0 0 1-.363-.552l-.023-.043-.008-.015-.003-.006-.002-.003c.004-.002.061-.033.894-.449l-.895.447A1 1 0 0 1 5 17v-4.746l-2.485-1.38a1 1 0 0 1 0-1.748l9-5zm.855 11.804a1 1 0 0 1-.854.056l-.116-.056L7 13.365v3.35q.043.069.104.154c.17.225.44.536.834.85C8.71 18.337 9.993 19 12 19s3.29-.663 4.063-1.281c.392-.314.664-.625.833-.85.042-.056.075-.11.104-.153v-3.35zM5.06 10 12 13.855 18.941 10 12 6.144z"/></svg>
