<svg xmlns="http://www.w3.org/2000/svg" fill="none" viewBox="0 0 24 24"><path fill="currentColor" d="M15.327 2.626a19.7 19.7 0 0 1 3.476.148 17 17 0 0 1 1.325.23l.08.018.023.005.007.002h.003l.001.002V3.03l.026.007.06.02.062.022q.038.017.076.037l.034.018q.044.026.085.056l.023.016a1 1 0 0 1 .257.293l.016.03q.021.042.04.085.007.015.013.033.017.045.03.09l.006.02h-.002.002v.002l.001.003.002.007.005.023.019.08q.023.103.06.288c.049.247.11.6.168 1.037a19.7 19.7 0 0 1 .149 3.476c-.132 2.755-.923 6.29-3.667 9.034s-6.28 3.535-9.034 3.666a19.7 19.7 0 0 1-3.476-.147 17 17 0 0 1-1.325-.23l-.08-.017-.023-.006-.007-.002-.002-.001-.001-.002-.001.002-.022-.007q-.035-.01-.068-.022t-.064-.024l-.034-.016q-.04-.019-.08-.041l-.035-.024a1 1 0 0 1-.286-.284l-.032-.047-.035-.07-.02-.04-.028-.076-.015-.047-.009-.03v-.004l-.003-.007-.006-.024-.018-.08-.06-.288c-.05-.247-.111-.6-.169-1.036a19.7 19.7 0 0 1-.147-3.476c.131-2.755.921-6.29 3.666-9.035s6.279-3.535 9.034-3.666m4.056 5.73c-.95 1.84-2.424 4.098-4.676 6.35-2.253 2.253-4.51 3.727-6.35 4.676q.11-.002.22-.007c2.496-.119 5.461-.827 7.716-3.082s2.964-5.22 3.083-7.716zm-.915-2.826c-.349.136-.742.3-1.17.5-1.788.834-4.187 2.27-6.591 4.675s-3.841 4.804-4.675 6.591c-.2.428-.365.822-.5 1.171.35-.136.743-.3 1.17-.5 1.788-.834 4.187-2.272 6.59-4.676 2.405-2.404 3.842-4.803 4.676-6.59.2-.428.365-.822.5-1.17m-3.045-.909c-2.495.12-5.46.83-7.715 3.084s-2.965 5.22-3.084 7.715l-.008.22c.949-1.84 2.424-4.097 4.677-6.35s4.509-3.728 6.35-4.677z"/></svg>
