<svg xmlns="http://www.w3.org/2000/svg" fill="none" viewBox="0 0 24 24"><path fill="currentColor" d="M12 2c5.523 0 10 4.477 10 10s-4.477 10-10 10S2 17.523 2 12 6.477 2 12 2m0 2c-1.67 0-3.22.512-4.502 1.387.502.569.94 1.195 1.304 1.868l.879-.501.495.868.496.868-1.098.627a10 10 0 0 1 0 5.765l1.098.628-.496.868-.495.868-.88-.502a10 10 0 0 1-1.303 1.868C8.781 19.487 10.33 20 12 20s3.22-.513 4.502-1.388a10 10 0 0 1-1.304-1.868l-.879.502-.495-.868-.496-.868 1.097-.628a10 10 0 0 1 0-5.765l-1.097-.627.496-.868.495-.868.88.5c.363-.672.8-1.298 1.303-1.867A7.96 7.96 0 0 0 12 4M6 6.71A7.97 7.97 0 0 0 4 12c0 2.028.756 3.878 2 5.288a8 8 0 0 0 1.064-1.535l-1.12-.64.496-.869.497-.868.843.481A8 8 0 0 0 8 12c0-.64-.078-1.262-.22-1.858l-.843.482-.497-.868-.496-.87 1.12-.64A8 8 0 0 0 6 6.711m12 0a8 8 0 0 0-1.066 1.535l1.122.64-.496.87-.496.868-.845-.482a8 8 0 0 0 0 3.715l.845-.481.496.868.496.87-1.122.639A8 8 0 0 0 18 17.288c1.244-1.41 2-3.26 2-5.288a7.97 7.97 0 0 0-2-5.29"/></svg>
