<svg xmlns="http://www.w3.org/2000/svg" fill="none" viewBox="0 0 24 24"><path fill="currentColor" d="M4 20h14v2H3a1 1 0 0 1-1-1V6h2zM21.103 2.005A1 1 0 0 1 22 3v14a1 1 0 0 1-1 1H7a1 1 0 0 1-1-1V3l.005-.103A1 1 0 0 1 7 2h14zM8 16h12V4H8zm6-4.5q.975 0 1.938.188a9.6 9.6 0 0 1 1.862.562q.575.225.888.737C19 13.5 19 13.7 19 14.1v.4H9v-.4q0-.6.313-1.113.312-.512.887-.737.9-.375 1.863-.562A10 10 0 0 1 14 11.5m0-6q1.05 0 1.775.725C16.5 6.95 16.5 7.3 16.5 8s-.241 1.292-.725 1.775q-.725.726-1.775.725c-1.05-.001-1.292-.241-1.775-.725Q11.499 9.05 11.5 8c.001-1.05.241-1.292.725-1.775S13.3 5.5 14 5.5"/></svg>
