<svg xmlns="http://www.w3.org/2000/svg" fill="none" viewBox="0 0 14 14"><g stroke="currentColor" stroke-linecap="round" stroke-linejoin="round"><path d="m2.5 8.833-1.821 0m12.642 0-1.821 0m-9-3.666-1.821 0m12.642 0-1.821 0M5.167 2.5l0-1.821m0 12.642 0-1.821m3.666-9 0-1.821m0 12.642 0-1.821m1.667-9h-7a1 1 0 0 0-1 1v7a1 1 0 0 0 1 1h7a1 1 0 0 0 1-1v-7a1 1 0 0 0-1-1"></path><path d="M4.667 7.25c-.281-.048-.281-.452 0-.501a2.55 2.55 0 0 0 2.05-1.964l.018-.078c.06-.278.457-.28.52-.002l.02.09a2.56 2.56 0 0 0 2.057 1.953c.283.049.283.455 0 .504a2.56 2.56 0 0 0-2.057 1.952l-.02.09c-.063.278-.46.276-.52-.002l-.017-.077A2.55 2.55 0 0 0 4.667 7.25"></path></g></svg>
