<svg xmlns="http://www.w3.org/2000/svg" fill="none" viewBox="0 0 14 14"><g stroke="currentColor" stroke-linecap="round"><path d="M11.805 1.077c.449.387.757.907.93 1.512"></path><path stroke-linejoin="round" d="m3.262 8.618.46.46m-2.615.606 1.494 1.493M4.31 6.468 5.804 7.96m-1.696 4.37c.282.281.658.574 1.438.5 1.262-.12 1.75-.931 2-1.781s1.125-2.032 1.5-2.344c.75-.938 1.937-1.719 1.781-3.875s-2.062-3.531-4.75-3.156C4.258 1.927 3.445 3.63 3.174 4.83"></path><path stroke-linejoin="round" d="M5.804 4.561c.343-.547.69-.737 1.03-.828 1.424-.379 2.513 1.408 1.282 2.734"></path></g></svg>
