<svg xmlns="http://www.w3.org/2000/svg" fill="none" viewBox="0 0 14 14"><path stroke="currentColor" stroke-linecap="round" stroke-linejoin="round" d="M3.531 7.027 2.885 9.5m8.224-5L10.344 7M6.25 6.257 7.5 7.5m5-3-2 0a1 1 0 0 1-1-1l0-2a1 1 0 0 1 1-1l2 0a1 1 0 0 1 1 1l0 2a1 1 0 0 1-1 1m-2 6.5-2 0a1 1 0 0 1-1-1l0-2a1 1 0 0 1 1-1l2 0a1 1 0 0 1 1 1l0 2a1 1 0 0 1-1 1M5.25 7.027l-2 0a1 1 0 0 1-1-1l0-2a1 1 0 0 1 1-1l2 0a1 1 0 0 1 1 1l0 2a1 1 0 0 1-1 1M3.5 13.5l-2 0a1 1 0 0 1-1-1l0-2a1 1 0 0 1 1-1l2 0a1 1 0 0 1 1 1l0 2a1 1 0 0 1-1 1"></path></svg>
