<svg xmlns="http://www.w3.org/2000/svg" fill="none" viewBox="0 0 14 14"><g stroke="currentColor" stroke-linecap="round" stroke-linejoin="round"><path d="m7 5.07 0 4.32M5.56 6.15l.36 0A1.08 1.08 0 0 0 7 5.07v0m1.44 4.32H5.56"></path><path d="M6.039 1.282a1.135 1.135 0 0 1 1.922 0l1.866 2.952 2.432.298a1.115 1.115 0 0 1 .721 1.836l-2.028 2.327.653 3.22a1.12 1.12 0 0 1-.442 1.126 1.14 1.14 0 0 1-1.211.067L7 11.493l-2.952 1.615a1.14 1.14 0 0 1-1.211-.067 1.13 1.13 0 0 1-.442-1.125l.653-3.221L1.02 6.368a1.115 1.115 0 0 1 .72-1.836l2.433-.298z"></path></g></svg>
