<svg xmlns="http://www.w3.org/2000/svg" fill="none" viewBox="0 0 14 14"><g stroke="currentColor" stroke-linecap="round" stroke-linejoin="round"><path d="M8.315 1.031a.5.5 0 0 0-.5.5v1.407l-1.406 0a.5.5 0 0 0-.5.5v1.625a.5.5 0 0 0 .5.5h1.406v1.406a.5.5 0 0 0 .5.5H9.94a.5.5 0 0 0 .5-.5V5.563h1.406a.5.5 0 0 0 .5-.5V3.438a.5.5 0 0 0-.5-.5l-1.406 0V1.53a.5.5 0 0 0-.5-.5zm-7.732 9.75 2.444 2.037a2 2 0 0 0 1.28.463l6.443 0c.46 0 .833-.373.833-.833 0-.92-.746-1.667-1.667-1.667H5.437"></path><path d="m3.583 9.781.75.75a1.06 1.06 0 1 0 1.5-1.5L4.669 7.867a2 2 0 0 0-1.414-.586H.583"></path></g></svg>
