<svg xmlns="http://www.w3.org/2000/svg" fill="none" viewBox="0 0 14 14"><g stroke="currentColor" stroke-linecap="round" stroke-linejoin="round"><path d="M12.5 12.5a1 1 0 0 1-1 1h-9a1 1 0 0 1-1-1v-11a1 1 0 0 1 1-1H9L12.5 4z"></path><path d="M6.303 4.771a.43.43 0 0 0-.43.43v1.208l-1.207 0a.43.43 0 0 0-.43.429v1.395c0 .238.193.43.43.43h1.207V9.87c0 .238.193.43.43.43h1.395a.43.43 0 0 0 .43-.43V8.663h1.207a.43.43 0 0 0 .43-.43V6.838a.43.43 0 0 0-.43-.43l-1.207 0V5.202a.43.43 0 0 0-.43-.43z"></path></g></svg>
