<svg xmlns="http://www.w3.org/2000/svg" fill="none" viewBox="0 0 14 14"><g stroke="currentColor" stroke-linecap="round" stroke-linejoin="round"><path d="M.5 3.494h13M12.5.5h-11a1 1 0 0 0-1 1v11a1 1 0 0 0 1 1h11a1 1 0 0 0 1-1v-11a1 1 0 0 0-1-1"></path><path d="M6.303 5.735a.43.43 0 0 0-.43.43v1.207l-1.207 0a.43.43 0 0 0-.43.43v1.395c0 .237.193.43.43.43h1.207v1.207c0 .237.193.43.43.43h1.395a.43.43 0 0 0 .43-.43V9.627h1.207a.43.43 0 0 0 .43-.43V7.802a.43.43 0 0 0-.43-.43l-1.207 0V6.165a.43.43 0 0 0-.43-.43z"></path></g></svg>
