<svg xmlns="http://www.w3.org/2000/svg" fill="none" viewBox="0 0 14 14"><g stroke="currentColor" stroke-linecap="round" stroke-linejoin="round"><path d="M13 1.25H1a.5.5 0 0 0-.5.5v8a.5.5 0 0 0 .5.5h12a.5.5 0 0 0 .5-.5v-8a.5.5 0 0 0-.5-.5m-7 9-1 2.5m3-2.5 1 2.5m-5 0h6"></path><path d="M6.302 2.986a.43.43 0 0 0-.43.43v1.207l-1.207 0a.43.43 0 0 0-.43.43v1.395c0 .237.193.43.43.43h1.208v1.207c0 .237.192.43.43.43h1.395a.43.43 0 0 0 .43-.43V6.877h1.207a.43.43 0 0 0 .43-.43V5.053a.43.43 0 0 0-.43-.43l-1.208 0V3.416a.43.43 0 0 0-.43-.43z"></path></g></svg>
