<svg xmlns="http://www.w3.org/2000/svg" fill="none" viewBox="0 0 14 14"><g stroke="currentColor" stroke-linecap="round" stroke-linejoin="round"><path d="m12 12.5 0-11a1 1 0 0 0-1-1l-8 0a1 1 0 0 0-1 1l0 11a1 1 0 0 0 1 1l8 0a1 1 0 0 0 1-1"></path><path d="M8.547 5.488a1.228 1.228 0 1 0 0-2.457 1.228 1.228 0 0 0 0 2.457M2 7.807q.522-.088 1.053-.087c1.224-.025 2.419.338 3.37 1.025 1.542 1.111 2.124 3.038 2.124 4.755"></path><path d="M12 9.37a7.3 7.3 0 0 0-2.102-.306 7.4 7.4 0 0 0-2.632.479"></path></g></svg>
