<svg xmlns="http://www.w3.org/2000/svg" fill="none" viewBox="0 0 14 14"><g stroke="currentColor" stroke-linecap="round" stroke-linejoin="round"><path d="M1.358 2.266h11.284s.858 0 .858.858v7.752s0 .858-.858.858H1.358s-.858 0-.858-.858V3.124s0-.858.858-.858M9.36 5.88l1.986 0M9.36 7.849l1.986 0"></path><path d="M3.507 6.208a1.64 1.64 0 1 0 3.282 0 1.64 1.64 0 0 0-3.282 0"></path><path d="M2.654 9.473a3.2 3.2 0 0 1 1.064-1.19 2.6 2.6 0 0 1 1.43-.434c.502 0 .994.15 1.431.434a3.2 3.2 0 0 1 1.064 1.19"></path></g></svg>
